<svg xmlns="http://www.w3.org/2000/svg" viewBox="0 0 463.02 518.54"><defs><style>.cls-1{fill:#d74957;}.cls-2{fill:#001121;}.cls-3{fill:#e8e8e8;}.cls-4{fill:#d2d8d6;}.cls-5{fill:none;}.cls-11,.cls-5{stroke:#000;stroke-miterlimit:10;stroke-width:0.5px;}.cls-6{fill:#e2eef2;}.cls-7{fill:#b3cac4;}.cls-8{fill:#faf1e4;}.cls-9{fill:#b48f5b;}.cls-10{fill:#ffaea8;}</style></defs><title>Asset 7</title><g id="Layer_2" data-name="Layer 2"><g id="lazer"><path class="cls-1" d="M317.74,125.49c-.52-4.44-4.37-6.47-8.4-6.47s-6.9,4.75-6.47,8.4c.52,4.44,4.37,6.47,8.4,6.47S318.18,129.14,317.74,125.49Z" transform="translate(0)"/></g><g id="Layer_8" data-name="Layer 8"><path class="cls-2" d="M301.66.25c1.25,0,1.81,2.26,2.18,3.05.47,1,.94,2,1.4,2.93.32.66.63,1.32.95,2l-1.28,54.89a7.47,7.47,0,0,1-1,.78,8.39,8.39,0,0,1-8.89.27,7.48,7.48,0,0,1-1-.64l.18-7.51a.37.37,0,0,1,0-.38l1.14-48.78c.33-.43.67-.84,1-1.25.63-.79,1.29-1.55,2-2.31S300.4.27,301.66.25ZM303.61,5c-.63-1.56-1.53-3.5-3-2.66a9.2,9.2,0,0,0-2.36,2.41,9.09,9.09,0,0,0,5.29.24Zm-5.82.66a.69.69,0,0,1-.17-.1c-.27.36-.52.71-.76,1s-.31.39-.46.6a.38.38,0,0,1,.27,0c2.41,1.05,5.6.92,8.19.58l-.75-1.58L304,5.9l-.09,0A10.37,10.37,0,0,1,297.79,5.67Zm-1.47,2.44-.22,9.28c2.54,1,6,1.92,8.68.82a.46.46,0,0,1,.19,0l.22-9.46h0C302.39,9.11,298.93,9.23,296.32,8.11Zm-.24,10.34-.18,7.6-.69,29.61c1,.93,2.77,1.11,4,1.26a6.65,6.65,0,0,0,4.52-.77.65.65,0,0,1,.32-.06l.69-29.83.16-7.06C302.21,20.25,298.76,19.5,296.08,18.45Zm-.89,38.42L295,63a7.39,7.39,0,0,0,8.9-.43l.12-5.47a7.79,7.79,0,0,1-5,.78A10.09,10.09,0,0,1,295.19,56.87Z" transform="translate(0)"/><path class="cls-3" d="M300.59,2.35c1.49-.84,2.39,1.1,3,2.66h-.09a9.09,9.09,0,0,1-5.29-.24A9.2,9.2,0,0,1,300.59,2.35Z" transform="translate(0)"/><path class="cls-3" d="M297.62,5.57a.69.69,0,0,0,.17.1,10.37,10.37,0,0,0,6.09.27l.09,0,.14.28.75,1.58c-2.59.34-5.78.47-8.19-.58a.38.38,0,0,0-.27,0c.15-.21.31-.39.46-.6S297.35,5.93,297.62,5.57Z" transform="translate(0)"/><path class="cls-3" d="M296.1,17.39l.22-9.28c2.61,1.12,6.07,1,8.84.61h0L305,18.17a.46.46,0,0,0-.19,0C302.14,19.31,298.64,18.43,296.1,17.39Z" transform="translate(0)"/><path class="cls-3" d="M295.9,26.05l.18-7.6c2.68,1.05,6.13,1.8,8.86.75l-.16,7.06-1.92-.05a2.5,2.5,0,0,0-5-.11Z" transform="translate(0)"/><circle class="cls-4" cx="300.36" cy="26.16" r="2.5"/><path class="cls-3" d="M302.86,26.21l1.92.05-.69,29.83a.65.65,0,0,0-.32.06,6.65,6.65,0,0,1-4.52.77c-1.27-.15-3.08-.33-4-1.26l.69-29.61,2,.05a2.5,2.5,0,1,0,5,.11Z" transform="translate(0)"/><path class="cls-3" d="M295,63l.15-6.16a10.09,10.09,0,0,0,3.9,1,7.79,7.79,0,0,0,5-.78l-.12,5.47A7.39,7.39,0,0,1,295,63Z" transform="translate(0)"/><path class="cls-5" d="M298.35,3.29c-.68.76-1.34,1.52-2,2.31-.35.41-.69.82-1,1.25l-1.14,48.78a.37.37,0,0,0,0,.38L294,63.52a7.48,7.48,0,0,0,1,.64,8.39,8.39,0,0,0,8.89-.27,7.47,7.47,0,0,0,1-.78l1.28-54.89c-.32-.67-.63-1.33-.95-2-.46-1-.93-1.95-1.4-2.93-.37-.79-.93-3.07-2.18-3S299.07,2.5,298.35,3.29Z" transform="translate(0)"/><path class="cls-5" d="M305.16,8.72h0L305,18.17a.46.46,0,0,0-.19,0c-2.64,1.1-6.14.22-8.68-.82l.22-9.28C298.93,9.23,302.39,9.11,305.16,8.72Z" transform="translate(0)"/><path class="cls-5" d="M304.78,26.26l-.69,29.83a.65.65,0,0,0-.32.06,6.65,6.65,0,0,1-4.52.77c-1.27-.15-3.08-.33-4-1.26l.69-29.61.18-7.6c2.68,1.05,6.13,1.8,8.86.75Z" transform="translate(0)"/><path class="cls-5" d="M295,63l.15-6.16a10.09,10.09,0,0,0,3.9,1,7.79,7.79,0,0,0,5-.78l-.12,5.47A7.39,7.39,0,0,1,295,63Z" transform="translate(0)"/><path class="cls-5" d="M304.86,7.76c-2.59.34-5.78.47-8.19-.58a.38.38,0,0,0-.27,0c.15-.21.31-.39.46-.6s.49-.62.76-1a.69.69,0,0,0,.17.1,10.37,10.37,0,0,0,6.09.27l.09,0,.14.28Z" transform="translate(0)"/><path class="cls-5" d="M303.61,5h-.09a9.09,9.09,0,0,1-5.29-.24,9.2,9.2,0,0,1,2.36-2.41C302.08,1.51,303,3.45,303.61,5Z" transform="translate(0)"/><circle class="cls-5" cx="300.36" cy="26.16" r="2.5"/><path class="cls-1" d="M299.53,2.24c0,1.92,2.94,1.59,3-.32S299.58.33,299.53,2.24Z" transform="translate(0)"/></g><g id="Layer_7" data-name="Layer 7"><path d="M461.94,258.91a378.1,378.1,0,0,1-.09,51.49c-.45,6.31-.6,13.24-4.14,18.73-3.26,5.06-8.78,8.43-13.83,11.48a120.94,120.94,0,0,1-26.13,11.67c-.55.18-1.09.35-1.64.51-2.26.69-4.53,1.31-6.82,1.88-25.4,6.34-52.1,6.22-78,4-13.48-1.15-27-3.33-39.15-9.67A75.71,75.71,0,0,1,278,339.38q2.25,19.42,3.27,39a.5.5,0,0,1-.74.49c.39,1.71.7,3.42.92,5.17a.45.45,0,0,1,0,.26c2.3,19.59.83,39.31-2,58.78-.06.36-.11.73-.16,1.1l-.51,3.33c-1.48,9.48-3.16,18.94-5,28.37a40.44,40.44,0,0,1-2.81,9.29c-.16.37-.34.73-.53,1.09a21,21,0,0,1-6.66,7.74c-5.5,3.88-12.24,5.61-18.76,6.89s-13.3,2.48-19.91,1.53c-6.11-.88-11.52-4.09-13.87-10-2.52-6.3-1.82-13.78-1.43-20.59h0l.06-1.2c0-.61.06-1.21.08-1.8l.15-4.67,0-1q.79-24.87,1.59-49.75c-7.19-.74-14.9.36-21.45,1.21A162.46,162.46,0,0,0,173,417.74a50.56,50.56,0,0,0-.89,8.47c-.17,7.56.71,15.12,1,22.67.24,6.48.27,13,.1,19.46h0c0,.34,0,.67,0,1s0,.57,0,.86q-.17,5.44-.54,10.87c0,.35,0,.69-.07,1-.19,2.76-.43,5.52-.7,8.28-.49,5-.24,11.57-3.86,15.49-3.38,3.65-9.21,5.25-13.74,6.8A103.82,103.82,0,0,1,136.52,517a76.43,76.43,0,0,1-17.08,1.13A11.29,11.29,0,0,1,109.26,511a103.78,103.78,0,0,1-6.86-21.22c-.08-.4-.17-.78-.25-1.18h0c-.81-3.9-1.45-7.8-2-11.66-.18-1.35-.34-2.69-.48-4,0-.33-.08-.66-.11-1-3-29.61,2.45-58.69,11.53-86.8l1.27-.91c-3,9-5.52,18.1-7.57,27.36-4.37,19.74-6.27,40.2-4.23,60.34,0,.33.07.67.11,1,.33,3.09.75,6.17,1.28,9.24.32,1.86.67,3.71,1.07,5.55a26.5,26.5,0,0,1,7.64-4.31,89.46,89.46,0,0,1,21-5.75,90.4,90.4,0,0,1,39.9,3.13q.38-5.65.53-11.31,0-.51,0-1,.27-10.21-.14-20.43c-.41-9.85-2-20.16-.26-30,.06-.36.13-.72.2-1.08l1.21-.29A163.18,163.18,0,0,1,192,413.32c6.13-.72,13.13-1.58,19.75-.94l1,.1a26.42,26.42,0,0,1,14,5.5c.49.41-.13,1.2-.62.79a25.51,25.51,0,0,0-13.38-5.32l-1.58,49.46,0,1-.22,7c0,.13,0,.26,0,.4h0a79.82,79.82,0,0,0,59.09,14,38.8,38.8,0,0,0,2.84-9.59c.79-4.11,1.53-8.23,2.26-12.35,1.12-6.24,2.2-12.5,3.14-18.78h0c.05-.37.11-.72.16-1.09.31-2.12.61-4.25.89-6.37,2.33-17.75,3.29-35.72,1.11-53.53a.59.59,0,0,1,0-.19,50,50,0,0,0-1-5.27,145.07,145.07,0,0,0-35.71-15.43,153.68,153.68,0,0,0-26-5c-4,6.85-8.37,13.49-13,19.93a.5.5,0,0,1-.79,0c-5.14-7.53-13-12.13-19.94-17.81-.72-.59-1.43-1.19-2.13-1.82a152.67,152.67,0,0,0-69.38,26.2c.18-.54.35-1.07.53-1.6A147.3,147.3,0,0,1,142,367.08a156.83,156.83,0,0,1,38.82-9.94c-4.12-3.86-7.72-8.41-9.21-13.89-2.09-7.66.87-15.33,3.07-22.6a268.24,268.24,0,0,0,9.77-47.86c-1.11-1.35-2.09-2.71-2.89-3.87a41.77,41.77,0,0,1-5.9-12.52q-.15-.49-.27-1c.3-.17.6-.32.9-.47A42.55,42.55,0,0,1,188,251a133.23,133.23,0,0,1-27.24-4c-.09-.36-.2-.72-.3-1.08a134.06,134.06,0,0,0,59,1.74h0c1.62-.77,3.24-1.56,4.84-2.36l1-.54a224.88,224.88,0,0,0,23.25-13.7q6.84-4.59,13.33-9.68c.29-.22.59-.46.88-.7.07.37.14.74.22,1.11.54,2.62,1.11,5.24,1.72,7.84.08.37.17.73.26,1.09.37,1.56.75,3.12,1.15,4.68q2.49,9.89,5.66,19.58c.08.27.17.53.26.8a2.76,2.76,0,0,0,.08.27c.08.23.15.46.23.68l-.94.37-.1,0h0l-.5.19h0l-7.28,2.86-.94.37-21.7,8.51c5.45,23.18,15,46.48,31.69,63.85,1.33,1.38,2.69,2.7,4.1,4h0c.37.34.73.67,1.11,1a74,74,0,0,0,21.53,13.29c12.92,5.1,27,6.24,40.76,7.11,25,1.57,50.71.91,74.89-6.23l2.19-.67h0l1.62-.52a116.23,116.23,0,0,0,29.36-14.23c6-4.09,10.34-8.77,11.66-16.14,1.25-6.9,1.36-14.13,1.65-21.12a376.86,376.86,0,0,0-.8-44.33c-.9-11.79-2.35-24.48-10.29-33.81A78.65,78.65,0,0,1,426.14,254c-22.44,17.85-52.55,19.68-80.11,17.58a173.79,173.79,0,0,1-24.85-3.68.48.48,0,0,1-.26,0l-.12-.05-.45-.1.08-.07a41.48,41.48,0,0,1-7.69-4.57,36.69,36.69,0,0,1-7.11-6.09c.26-.19.53-.39.79-.61a35.76,35.76,0,0,0,6.94,5.92,39.9,39.9,0,0,0,7.85,4.61,176.86,176.86,0,0,0,29.07,3.95c14.2.78,28.84.45,42.78-2.53a78,78,0,0,0,56.7-48.17.51.51,0,0,1,.86-.11C460.06,230.51,461.05,245.5,461.94,258.91ZM280.18,377.5q-.72-13.5-2-27-.59-6.06-1.3-12.11a88.7,88.7,0,0,1-9.35-9.64c-14.12-16.89-22.54-38-27.57-59.31l-17,6.68-1,.41c0-.37.05-.74.08-1.11q1.06-13.87,2.14-27.77l1-.23Q224.06,261.25,223,275l16.72-6.55.94-.37,21.69-8.51.93-.36,7.56-3,.28-.11-.06-.18q-4-12.09-6.91-24.48c-.09-.36-.18-.72-.25-1.08-.63-2.63-1.21-5.28-1.77-7.93a225.77,225.77,0,0,1-36.89,23.44l-1,.52q-.36.19-.72.36h0c-1.22.62-2.44,1.21-3.67,1.79h0c-1.26.25-2.53.48-3.8.68a132.44,132.44,0,0,1-13.19,1.52,44,44,0,0,1,8.36,2.2l.93.36c-.11.31-.23.61-.36.91a92.69,92.69,0,0,1-7.33,14.47,65.9,65.9,0,0,1-5,7.21q10.29,26.16,20.6,52.33c1.68,4.26,3.77,8.67,3.85,13.33.07,4.27-1.79,8.18-3.81,11.83-.62,1.13-1.26,2.25-1.9,3.37A150.83,150.83,0,0,1,280.18,377.5ZM268.42,487.88c.33-.49.63-1,.91-1.48a80.87,80.87,0,0,1-58.58-13.89c-.34,7.28-1.33,15.78,2.7,22.11,3.9,6.11,11.59,7.33,18.28,7a89.37,89.37,0,0,0,19.8-3.36C257.94,496.52,264.56,493.56,268.42,487.88ZM219.14,353.06c2.43-4.39,4.34-8.88,3.47-14-.82-4.84-3.18-9.54-5-14.09q-9.5-24.08-19-48.16c-.09.12-.2.23-.31.35a5.53,5.53,0,0,1-5,2.06c-3-.43-5.76-2.77-8.07-5.39-.85,7.41-2,14.8-3.47,22.12q-2.45,12.21-6,24.16c-2.53,8.49-6.06,17.34-2.16,26A33,33,0,0,0,182,357l1,.89c7.08,6.16,15.76,10.95,21.24,18.61,4.36-6.11,8.51-12.39,12.31-18.87.18-.3.36-.6.53-.91C217.77,355.5,218.46,354.29,219.14,353.06ZM205.35,265.2a92.09,92.09,0,0,0,5.43-11.28,42.8,42.8,0,0,0-34.24,2A40.42,40.42,0,0,0,182.12,268a39.4,39.4,0,0,0,2.48,3.26c.29.35.58.69.9,1h0c.5.57,1,1.12,1.57,1.66,1.75,1.73,3.92,3.91,6.46,4.29,1.95.29,3.48-.92,4.75-2.43.26-.29.49-.6.72-.91.61-.82,1.15-1.65,1.64-2.35C202.33,270.18,203.9,267.72,205.35,265.2ZM171.1,487.32c.16-1.84.31-3.68.44-5.52a89.37,89.37,0,0,0-56,.83c-3.44,1.2-9.19,2.93-12.25,6.12q1.29,5.87,3.1,11.6c.91,2.86,1.91,5.7,3,8.48s2.42,5.64,5.17,7.1,5.93,1.35,8.86,1.28c3.09-.08,6.19-.31,9.26-.67a102.65,102.65,0,0,0,18-3.78c3-.9,5.88-1.94,8.74-3.11,2.52-1,5.18-2.07,7.2-3.93,2.71-2.51,3.1-6.1,3.51-9.57C170.53,493.21,170.84,490.27,171.1,487.32Z" transform="translate(0)"/><path class="cls-6" d="M460.66,255.09a376.86,376.86,0,0,1,.8,44.33c-.29,7-.4,14.22-1.65,21.12-1.32,7.37-5.65,12-11.66,16.14a116.23,116.23,0,0,1-29.36,14.23l-1.62.52h0l-2.19.67c-24.18,7.14-49.89,7.8-74.89,6.23-13.74-.87-27.84-2-40.76-7.11a74,74,0,0,1-21.53-13.29c-.38-.32-.74-.65-1.11-1h0c-1.41-1.29-2.77-2.61-4.1-4-16.68-17.37-26.24-40.67-31.69-63.85l21.7-8.51.94-.37,7.28-2.86h0l.5-.19h0l.1,0,.94-.37c-.08-.22-.15-.45-.23-.68a2.76,2.76,0,0,1-.08-.27c-.09-.27-.18-.53-.26-.8q-3.17-9.69-5.66-19.58l1.66-.42c.08.27.17.53.26.8l.4-.15q2.28-3.06,4.33-6.21c.2-.28.38-.55.55-.83q1.46-2.25,2.82-4.53,2.69-4.52,5-9.15h0c.19-.38.38-.77.56-1.16a135.55,135.55,0,0,0,11.72-37.24,152.86,152.86,0,0,0,1.52-35.1q-.36-5.19-1-10.37h0c-.18-1.47-.39-2.93-.62-4.4a0,0,0,0,1,0,0q-1.15-7.35-2.91-14.63a206.85,206.85,0,0,0-11.45-33.93c-.14-.31-.27-.63-.41-.94l-.07-.16.34,0,2.07-.25q4.6-.57,9.18-1.23l1.31-.19c2.13-.32,4.25-.65,6.37-1,.44-.06.88-.14,1.32-.23q13.22-2.2,26.16-5.31c.39-.09.78-.18,1.17-.29q4.57-1.09,9.11-2.31c8.39,26.05,14.16,52.84,15.63,79.6a170.76,170.76,0,0,1-.47,25.88c0,.35-.06.7-.1,1a136.68,136.68,0,0,1-3.45,19.59c-.07.33-.16.65-.24,1a120.89,120.89,0,0,1-5.64,16.58,113.6,113.6,0,0,1-25,36.87c-.27.28-.55.55-.83.81a119,119,0,0,1-18.54,14.69c-.49.32.11.93.6.62q4.31-2.76,8.24-5.8a36.69,36.69,0,0,0,7.11,6.09,41.48,41.48,0,0,0,7.69,4.57l-.08.07.45.1.12.05a.48.48,0,0,0,.26,0A173.79,173.79,0,0,0,346,271.54c27.56,2.1,57.67.27,80.11-17.58a78.65,78.65,0,0,0,24.23-32.68C458.31,230.61,459.76,243.3,460.66,255.09Z" transform="translate(0)"/><path d="M416.11,352.79c.55-.16,1.09-.33,1.64-.51a165.68,165.68,0,0,1-17,19C378,393.08,350.28,409.1,322.6,423.81a452.16,452.16,0,0,1-43.39,20.33c.05-.37.1-.74.16-1.1a490,490,0,0,0,51.08-24.6c27.31-15,54.48-31.51,76-54.36Q411.54,358.68,416.11,352.79Z" transform="translate(0)"/><path class="cls-7" d="M409.29,354.67c2.29-.57,4.56-1.19,6.82-1.88q-4.56,5.88-9.66,11.29c-21.52,22.85-48.69,39.39-76,54.36A490,490,0,0,1,279.37,443c2.83-19.47,4.3-39.19,2-58.78a.45.45,0,0,0,0-.26c-.22-1.75-.53-3.46-.92-5.17a.5.5,0,0,0,.74-.49q-1-19.53-3.27-39A75.71,75.71,0,0,0,292.1,349c12.11,6.34,25.67,8.52,39.15,9.67C357.19,360.89,383.89,361,409.29,354.67Z" transform="translate(0)"/><path d="M359.17,196.53c2.09,2.74,4.43,6.71,2.61,10.17s-6.1,3.69-9.41,3.22a43.47,43.47,0,0,0-6.77-.9,29.88,29.88,0,0,0-3.62,1.42h0c.2-.46.39-.91.58-1.37a17.35,17.35,0,0,1,2.32-.9,7.66,7.66,0,0,1,2.94.07c1.43.14,2.84.39,4.26.61,2.61.41,5.68.5,7.82-1.33,2.77-2.37,1.26-6.26-.36-8.78a27.21,27.21,0,0,0-10.67-9.49h0c.08-.34.16-.66.23-1A28.82,28.82,0,0,1,359.17,196.53Z" transform="translate(0)"/><path class="cls-8" d="M359.52,198.75c1.62,2.52,3.13,6.41.36,8.78-2.14,1.83-5.21,1.74-7.82,1.33-1.42-.22-2.83-.47-4.26-.61a7.66,7.66,0,0,0-2.94-.07,17.35,17.35,0,0,0-2.32.9,118.93,118.93,0,0,0,4-11.24c.48-1.6.93-3.19,1.34-4.8.09-.3.17-.6.24-.91.24-1,.47-1.91.69-2.87A27.21,27.21,0,0,1,359.52,198.75Z" transform="translate(0)"/><path d="M346.78,106.12c4.31,21.67,7,44,4.86,65.92,0,.35-.07.7-.11,1.05a138.24,138.24,0,0,1-2.45,15.16l-.22-.11-.22-.1c0,.35-.07.7-.11,1.05l.32.16h0c-.22,1-.45,1.91-.69,2.87-.07.31-.15.61-.24.91-.41,1.61-.86,3.2-1.34,4.8a118.93,118.93,0,0,1-4,11.24l-.94.43a.52.52,0,0,0-.27.32l-.16-.07a120.89,120.89,0,0,0,5.64-16.58c.08-.32.17-.64.24-1a136.68,136.68,0,0,0,3.45-19.59c0-.34.07-.69.1-1a170.76,170.76,0,0,0,.47-25.88c-1.47-26.76-7.24-53.55-15.63-79.6q-4.53,1.22-9.11,2.31c.07-.28.14-.55.2-.84l1.82-.44c.42-.11.86-.13,1.27-.28s.87-.26,1.32-.38l3-.77c-1.14,0-2.29,0-3.44,0,.2-.33.38-.66.56-1,1.31,0,2.63,0,3.93,0l1,0c0,.11.07.22.1.33s.15.45.22.68a.14.14,0,0,1,0,.07A372,372,0,0,1,346.78,106.12Z" transform="translate(0)"/><path d="M348.86,188.14l.22.11c-.07.34-.15.66-.23,1l-.32-.16c0-.35.07-.7.11-1.05Z" transform="translate(0)"/><path d="M342.54,209.08c-.19.46-.38.91-.58,1.37-.42.18-.72-.26-.63-.62a.52.52,0,0,1,.27-.32Z" transform="translate(0)"/><path d="M341.33,209.83c-.09.36.21.8.63.62a116.52,116.52,0,0,1-24.78,36.41c-.27.28-.55.55-.83.82a117.31,117.31,0,0,1-9.93,8.66l-.1-.12c-.41-.5-1.21.1-.81.6a1.42,1.42,0,0,0,.12.13q-3.94,3-8.24,5.8c-.49.31-1.09-.3-.6-.62a119,119,0,0,0,18.54-14.69c.28-.26.56-.53.83-.81a113.6,113.6,0,0,0,25-36.87Z" transform="translate(0)"/><path class="cls-7" d="M334,65.7l-3,.77c-.45.12-.88.23-1.32.38s-.85.17-1.27.28l-1.82.44a13.69,13.69,0,0,0,.27-1.6c.85-.07,1.71-.13,2.58-.17h0l1.12-.06C331.66,65.7,332.81,65.68,334,65.7Z" transform="translate(0)"/><path d="M330,64.78l1.11,0c-.18.34-.36.67-.56,1l-1.12.06h0c-.87,0-1.73.1-2.58.17,0-.33.08-.67.1-1Q328.42,64.86,330,64.78Z" transform="translate(0)"/><path d="M324.91,50.32c1,4.17,2.35,9.66,2,14.64,0,.34-.06.68-.1,1a13.69,13.69,0,0,1-.27,1.6c-.06.29-.13.56-.2.84-.39.11-.78.2-1.17.29Q312.23,71.79,299,74c-.44.09-.88.17-1.32.23-2.12.36-4.24.69-6.37,1l-1.31.19q-4.58.66-9.18,1.23l-2.07.25-.34,0,.07.16c.14.31.27.63.41.94A206.85,206.85,0,0,1,290.34,112q1.76,7.28,2.91,14.63a0,0,0,0,0,0,0c.23,1.47.44,2.93.62,4.4h0q.67,5.17,1,10.37h0a0,0,0,0,0,0,0,9.83,9.83,0,0,0-1.1-1.42h0q-.51-6.65-1.55-13.24a0,0,0,0,0,0,0c-.21-.62-.43-1.24-.67-1.85,0-.73,0-1.46,0-2.19a.52.52,0,0,0,0-.18.49.49,0,0,0,0-.12,0,0,0,0,1,0,0s0,0,0-.05a.75.75,0,0,0-.1-.49,201.37,201.37,0,0,0-13.29-43.17l-.46-1.06c-.16-.38-.25-.81-.38-1.2.92-.15,1.83-.31,2.75-.43a35.49,35.49,0,0,1,5-2.72l1-.44a56.56,56.56,0,0,1,7.38-2.47,50.3,50.3,0,0,1-8.8-12,6.85,6.85,0,0,1-1.19-.07c-5-.69-7.73-6-6.81-10.64,1.06-5.35,5.6-8.73,10.45-10.51.09-.37.2-.74.32-1.1a.49.49,0,0,0,.78.3l.25-.19c-.14.39-.26.78-.37,1.18s-.18.67-.25,1a18.18,18.18,0,0,0-.43,3.62,21.42,21.42,0,0,0,.66,5.71,5.25,5.25,0,0,0-.53.62c-.38.52.4,1.14.78.62l.06-.08a23,23,0,0,0,2.26,5.09c.18.3.37.6.57.89,3.12,4.61,8,7.72,14.14,6.95a.5.5,0,0,1,.13,1c-6.29.8-11.57-2.39-15-7.17a8.88,8.88,0,0,1-4.79,2.67,48.85,48.85,0,0,0,8.85,11.83c.26.28.53.54.81.79.92.88,1.89,1.72,2.88,2.52,2.47-.42,4.92-.85,7.38-1.31s5.09-1,7.64-1.51,5.06-1.07,7.59-1.65c1.53-.35,3.06-.7,4.58-1.08a15.17,15.17,0,0,0,.29-1.79c0-.33.07-.67.09-1a33.32,33.32,0,0,0-.2-5.1,70.07,70.07,0,0,0-3.13-14.68c-2.74-8.32-7.11-18.61-16.88-20.11C298.12,24,292,28.29,289.08,34.48c-.52.32-1,.68-1.54,1.06a.08.08,0,0,0,0,0,17.43,17.43,0,0,1,6.39-8.7,16.38,16.38,0,0,1,19.87,1C320,33.27,323,42.57,324.91,50.32Zm-28,23.28c-.94-.78-1.84-1.59-2.72-2.44a57.64,57.64,0,0,0-6.86,2.19h0c-.34.14-.66.27-1,.42a34.82,34.82,0,0,0-3.92,1.94q3.19-.4,6.39-.87l1.37-.19Q293.52,74.15,296.89,73.6Zm-7-18.87a22.16,22.16,0,0,1-2.8-6.49,22.65,22.65,0,0,1-.31-9.93c-3.6,1.44-7,3.73-8.55,7.41-1.82,4.28-.49,9.86,4.36,11.34C285.41,57.92,288,56.74,289.89,54.73Z" transform="translate(0)"/><path class="cls-8" d="M325.57,60a33.32,33.32,0,0,1,.2,5.1c0,.33,0,.67-.09,1a15.17,15.17,0,0,1-.29,1.79c-1.52.38-3.05.73-4.58,1.08q-3.8.87-7.59,1.65c-2.55.53-5.09,1-7.64,1.51s-4.91.89-7.38,1.31c-1-.8-2-1.64-2.88-2.52-.28-.25-.55-.51-.81-.79a48.85,48.85,0,0,1-8.85-11.83,8.88,8.88,0,0,0,4.79-2.67c3.39,4.78,8.67,8,15,7.17a.5.5,0,0,0-.13-1c-6.12.77-11-2.34-14.14-6.95-.2-.29-.39-.59-.57-.89a23,23,0,0,1-2.26-5.09c2.49-3.25,8.29-3.35,12-2.88a21.86,21.86,0,0,1,10.88,4.61.5.5,0,0,0,.62-.79,22.93,22.93,0,0,0-12.94-5c-3.52-.2-8.26.13-10.84,2.86a21.42,21.42,0,0,1-.66-5.71,18.18,18.18,0,0,1,.43-3.62c.07-.34.16-.68.25-1s.23-.79.37-1.18a18.71,18.71,0,0,1,24.28,1.6c.46.45,1.08-.34.62-.78a19.68,19.68,0,0,0-24.21-2.49c2.87-6.19,9-10.46,16.48-9.32,9.77,1.5,14.14,11.79,16.88,20.11A70.07,70.07,0,0,1,325.57,60Z" transform="translate(0)"/><path d="M313.29,37c.46.44-.16,1.23-.62.78a18.71,18.71,0,0,0-24.28-1.6,16.28,16.28,0,0,1,.69-1.67A19.68,19.68,0,0,1,313.29,37Z" transform="translate(0)"/><path d="M311.78,49.77a.5.5,0,0,1-.62.79A21.86,21.86,0,0,0,300.28,46c-3.68-.47-9.48-.37-12,2.88-.11-.38-.22-.77-.31-1.16,2.58-2.73,7.32-3.06,10.84-2.86A22.93,22.93,0,0,1,311.78,49.77Z" transform="translate(0)"/><path d="M306.32,256.22l.1.12c-.26.22-.53.42-.79.61a1.42,1.42,0,0,1-.12-.13C305.11,256.32,305.91,255.72,306.32,256.22Z" transform="translate(0)"/><path class="cls-7" d="M294.17,71.16c.88.85,1.78,1.66,2.72,2.44q-3.36.56-6.74,1.05l-1.37.19q-3.19.47-6.39.87a34.82,34.82,0,0,1,3.92-1.94c.33-.15.65-.28,1-.42h0A57.64,57.64,0,0,1,294.17,71.16Z" transform="translate(0)"/><path d="M294.93,141.43a152.86,152.86,0,0,1-1.52,35.1,135.55,135.55,0,0,1-11.72,37.24c-.18.39-.37.78-.56,1.16h0q-2.28,4.63-5,9.15L276,224a.44.44,0,0,0,0-.56l-.34-.45q2.3-3.9,4.3-7.91l.54-1.1q2.38-4.85,4.33-9.82c7.89-20.18,10.49-41.43,9.06-62.42l.09.12a.65.65,0,0,1,.66-.49.79.79,0,0,1,.23,0,0,0,0,0,1,0,0Z" transform="translate(0)"/><path d="M294.91,141.42a.79.79,0,0,0-.23,0,.65.65,0,0,0-.66.49l-.09-.12c0-.5-.06-1-.1-1.51,0-.08,0-.16,0-.24A9.83,9.83,0,0,1,294.91,141.42Z" transform="translate(0)"/><path class="cls-8" d="M293.93,141.75c1.43,21-1.17,42.24-9.06,62.42q-2,5-4.33,9.82l-.54,1.1q-2,4-4.3,7.91l-1.76-2.32a.39.39,0,0,0-.3-.18,58.6,58.6,0,0,0,9-22.33c3-17-2.68-34.51-14.28-47.22a57.67,57.67,0,0,0-13.7-11.07,32.05,32.05,0,0,0,4-2.47,28.25,28.25,0,0,0,9-10.71c.24-.5.45-1,.65-1.53a33.94,33.94,0,0,1,3.63,5.18,12.36,12.36,0,0,0,7.8,6.1c4,1,8.76.64,12.25,3.17A8.53,8.53,0,0,1,293.93,141.75Z" transform="translate(0)"/><path d="M69.37,112.05,57.88,114.8l.06,2.61.08,0,1.09-.38A48.18,48.18,0,0,0,69.37,112.05Zm224.46,28.19c0,.5.08,1,.1,1.51a8.53,8.53,0,0,0-2-2.13c-3.49-2.53-8.24-2.14-12.25-3.17a12.36,12.36,0,0,1-7.8-6.1,33.94,33.94,0,0,0-3.63-5.18c-.2.52-.41,1-.65,1.53a28.25,28.25,0,0,1-9,10.71,32.05,32.05,0,0,1-4,2.47l-.2-.11c-.3-.18-.61-.35-.91-.51a31.16,31.16,0,0,0,4.19-2.58,27,27,0,0,0,9.09-11.14c.18-.42.35-.84.5-1.27s.24-.69.35-1a21.25,21.25,0,0,0-2.79-18.93A25.52,25.52,0,0,0,247,94a9.07,9.07,0,0,1-4.31,7.74c-2.52,1.54-5.95.73-6.69-2.07-.8-3.07,1.79-5.59,4.93-6.42a17.19,17.19,0,0,1,4.73-.54,20.21,20.21,0,0,0-.19-2.28c-1-7.35-6.24-13.92-12.92-18.18-7.24-4.63-16.27-6.53-25.05-7-7-.36-21.23-1.24-24.26,6.12a38.85,38.85,0,0,1,9,4.46.51.51,0,0,1,.18.63c-1.29,2.84-5.32,3.42-8.14,1.94-2.61-1.37-3.13-4-2.45-6.42-.77-.25-1.56-.48-2.36-.68A39.58,39.58,0,0,0,154.84,73a34.37,34.37,0,0,0-16.73,14.78A25.22,25.22,0,0,0,135,96.59a10,10,0,0,1,1.11-.25c3.74-.59,7.69,1.82,7.29,5.45s-5.25,3.81-7.72,1.69a6.41,6.41,0,0,1-2.09-5.22,21.56,21.56,0,0,0-6,5.11,25,25,0,0,0-5,9.94,23.55,23.55,0,0,0,1.85,16.48,12.45,12.45,0,0,0,.65,1.18,22.29,22.29,0,0,0,1.83,2.68c.46.57.94,1.13,1.46,1.66-.31.23-.61.46-.9.7a25.81,25.81,0,0,1-1.76-2,23,23,0,0,1-2-3.13c-4.2.2-6.94,6.06-9,9.18a12,12,0,0,1-8.32,5.59c-3.88.69-7.84.11-11.74.57-5.48.64-8.25,4-9.35,9.24-.66,3.16-1,6.54-2.71,9.34a13.27,13.27,0,0,1-6.2,5l-.79.32q-.47.19-1,.36c-5.56,2-12.41,2.62-16,7.71-2.44,3.5-2.5,8-4,11.92a17.08,17.08,0,0,1-5.88,7.68c-6.2,4.69-14.29,5.53-20.63,9.81a11.4,11.4,0,0,0-2.23,2h0c-.24.27-.46.56-.67.85-2.23,3.18-2.59,7.34,1.22,10a10.78,10.78,0,0,0,4.9,1.78,11.11,11.11,0,0,0,1.16.1c3.05.2,6.25-.32,9.18-.31a44,44,0,0,1,23.52,6.94c4.19,2.66,8.15,5.64,13.39,5.13,4.25-.41,8.16-2.46,12.38-3.06.5-.07,1-.11,1.48-.13s.82,0,1.22,0a24.05,24.05,0,0,1,8.68,2.44c4.58,2,9.56,4.5,14.58,2.39h0s0,0,.07,0a9.36,9.36,0,0,0,2.34-1.53l.06,0a14.7,14.7,0,0,0,2.22-2.75l.14.13h0c-.53.91-1.06,1.82-1.6,2.73-.17.29-.33.58-.51.87l-.12.2a14,14,0,0,1-2.15,1.3l-.06,0s0,0-.06,0c-4.64,2-9.39.28-13.74-1.67a34.1,34.1,0,0,0-8-2.94c-.38-.06-.76-.11-1.13-.14s-.84,0-1.25,0a25.68,25.68,0,0,0-7.14,1.4c-4.29,1.3-8.61,2.68-13.06,1.19-5-1.7-9.11-5.58-14-7.74A42.94,42.94,0,0,0,43.92,223c-3.53-.19-7.22.46-10.79.3,8,14.3,17.49,29.87,33.6,39.84h0c.48.31,1,.61,1.47.89l.54,1.24q12.47,29.13,23,59c.44,1.22.86,2.44,1.29,3.66.09,1.26.17,2.51.24,3.77.94,14.44,1.41,28.92,1.3,43.37C94.43,392.19,93,409.24,88,425.66a163.76,163.76,0,0,1-22.61,46c11.39.2,22.78.31,34.16.25,0,.33.07.66.11,1-11.65.07-23.3-.05-34.95-.26l-1.21,0c.24-.33.46-.65.68-1q3.32-4.71,6.3-9.63a155.46,155.46,0,0,0,18.31-42.95c4.26-17,4.9-34.65,4.73-52.13q-.19-19.44-1.54-38.84Q80.8,295.85,67.29,264.43a74.27,74.27,0,0,1-19.47-17.11A162.19,162.19,0,0,1,32,223.24a16.22,16.22,0,0,1-2.91-.55c-2.95-.88-5.78-3-6.43-6.15a8.72,8.72,0,0,1,2.11-7.22q-4.41-9.12-8-18.45A229.39,229.39,0,0,1,2.15,127.42a.3.3,0,0,1,0-.1.11.11,0,0,1,0,0,.37.37,0,0,1,0-.11.29.29,0,0,1,0-.16.68.68,0,0,1,0-.14c.11.5.94.56,1,0a2.55,2.55,0,0,1,.24-.93,23.82,23.82,0,0,1,3.68-.19,1.35,1.35,0,0,0,.55-.11l3.18-.38L10.15,124a.47.47,0,0,1-.41-.28l-.1-.22.22,0c.64-.05.51-1-.13-1l-.54,0c-.11-.22-.21-.45-.31-.68s-.28-.62-.41-.93A100.35,100.35,0,0,1,.59,92.13C-.4,83.57.52,74.79,7,68.52c6.13-5.9,14.59-8.1,22.74-9.51,7.63-1.32,17.1-3.48,23.9,1.49,6,4.35,7.41,11.72,7.9,18.74,0,.23,0,.45,0,.67a4.33,4.33,0,0,1,.51.39,10,10,0,0,1,3.37,5c2,6.67-2.13,13.32-7.6,16.86l-.31.2.17,7.33,0,1,.07,3.12L71,110.63a.52.52,0,0,1,.25,0,9.13,9.13,0,0,0,.87-.79c0,.52-.14,1-.21,1.55a8,8,0,0,0-.1,1.38.33.33,0,0,1,.05.15L74.15,148c.45,7,.86,14.07,1.34,21.1a17.15,17.15,0,0,0,3.4-1.88c6.72-4.85,3.12-15,9.56-19.89,6.2-4.7,14.93-.3,21.5-4,4.42-2.47,7.37-12.83,13.16-13.56a25.09,25.09,0,0,1,1.34-24c2-3.26,5.15-7.09,9.21-8.74a25.21,25.21,0,0,1,1.53-5.74c3.58-9.61,12.45-17.67,23.36-20.76a41.4,41.4,0,0,1,23.63.49,7.39,7.39,0,0,1,.8-1.43c3-4.28,9.15-5,14.36-5.32a81.75,81.75,0,0,1,19.4,1c10.51,1.93,20.3,6.81,25.95,15.12a25.5,25.5,0,0,1,4.36,12.42c7.14.63,14.17,5.06,18.06,9.93A22.31,22.31,0,0,1,268.64,124a9.41,9.41,0,0,1,.84.83c1.71,1.92,2.69,4.37,4.17,6.45a11.28,11.28,0,0,0,7.47,4.47c4.14.83,8.88.7,12.18,3.72a6.14,6.14,0,0,1,.51.51h0C293.82,140.08,293.82,140.16,293.83,140.24ZM245.68,93.92c-2.64-.1-6,.18-7.67,2.22-2.19,2.61.36,6.78,4,4.76C244.64,99.45,245.53,96.65,245.68,93.92ZM186.42,78.05c1.17.23,5.13-.08,4.34-1.85-.27-.6-2.4-1.44-3-1.75-.9-.47-1.82-.91-2.77-1.3-.67-.28-1.36-.52-2-.76a0,0,0,0,0,0,0A4.35,4.35,0,0,0,186.42,78.05Zm-46.5,25.8c3.21-.86,2.61-4.28.43-5.76a5.72,5.72,0,0,0-5.45-.43c0,.15,0,.3,0,.44C134.8,100.26,136.36,104.8,139.92,103.85ZM74.53,169.47c-1.26-17.92-2.33-35.86-3.48-53.79,0-.68-.09-1.36-.13-2l0-.06a5.36,5.36,0,0,1,0-1.26c0-.09,0-.17,0-.26l-.11.07h0c-.29.2-.59.39-.89.58a50,50,0,0,1-11,5.21h0l-.93.32-.13,0-.86.27a102.65,102.65,0,0,1-13.39,3.09c-9.3,1.58-18.76,2.68-28.19,3.8l-1,.13h0l-2.12.25-1.05.12L6,126.59a.62.62,0,0,1-.24,0l-.45.05c-.71.09-1.42.15-2.13.17v.07l0,.41A224.67,224.67,0,0,0,8.74,162a237,237,0,0,0,16.7,46.58,11.25,11.25,0,0,1,1.14-1.05c3.22-2.59,7.4-3.77,11.19-5.24s7.73-3.1,11-5.7c4.07-3.28,5.32-7.48,6.5-12.38.83-3.39,2-6.64,4.74-8.92C64.11,171.82,69.64,171.32,74.53,169.47ZM58.59,100.4c4.3-3.24,7.37-8.67,6.13-14.18a9.36,9.36,0,0,0-3-5,.76.76,0,0,0,0-.15.47.47,0,0,0-.05.1c-.28.46-.57.92-.87,1.37A38.28,38.28,0,0,1,49.19,93.88l-.84.52-.07-.12a1.5,1.5,0,0,1,.33-.29c.15-.12.28-.26.42-.39L48.69,93a37,37,0,0,0,12-12.15c0-.13,0-.27,0-.4,0-.41-.06-.82-.08-1.23-.64-8.12-2.7-17-11.25-19.84-3.94-1.29-8.16-1-12.21-.52s-8.06,1.19-12,2.07C17.28,62.67,9.14,66,4.62,73-.29,80.52,1,90.32,2.62,98.69a102.21,102.21,0,0,0,6.83,21.87c.11.29.24.58.37.87l.08,0a.43.43,0,0,1,.2.2c.58,1.14,1.16,2.29,1.75,3.43l2.61-.32,1-.13c8.83-1.06,17.67-2.11,26.4-3.51A101.86,101.86,0,0,0,57,117.72L56.89,115l0-.9-.08-3.25,0-1-.16-6.87c-5.1,3-13,5.75-17.61,1.26a8,8,0,0,1-2.44-5.1,38.49,38.49,0,0,1-3.87.62C21.25,100.91,3.54,95.35,6,80.68a.5.5,0,0,1,1,.13c-1.2,7.28,4,13.31,10.38,16A32.25,32.25,0,0,0,34.69,98.4c.62-.1,1.23-.22,1.84-.37.37-.07.74-.16,1.11-.26l.78-.21h0l1.71.3a.81.81,0,0,0,.22,0l0,.16c-.92.3-1.86.57-2.8.8a6.72,6.72,0,0,0,5.16,6.34c4.3,1.16,9.78-.89,13.8-3.38.34-.21.66-.42,1-.65S58.26,100.65,58.59,100.4Z" transform="translate(0)"/><path d="M289.08,34.48a16.28,16.28,0,0,0-.69,1.67l-.25.19a.49.49,0,0,1-.78-.3c0-.16.09-.31.14-.46a.08.08,0,0,1,0,0C288,35.16,288.56,34.8,289.08,34.48Z" transform="translate(0)"/><path d="M288.31,48.83l-.06.08c-.38.52-1.16-.1-.78-.62a5.25,5.25,0,0,1,.53-.62C288.09,48.06,288.2,48.45,288.31,48.83Z" transform="translate(0)"/><path d="M287.5,35.58c-.05.15-.1.3-.14.46A.44.44,0,0,1,287.5,35.58Z" transform="translate(0)"/><path class="cls-8" d="M287.09,48.24a22.16,22.16,0,0,0,2.8,6.49c-1.88,2-4.48,3.19-7.3,2.33-4.85-1.48-6.18-7.06-4.36-11.34,1.57-3.68,4.95-6,8.55-7.41A22.65,22.65,0,0,0,287.09,48.24Z" transform="translate(0)"/><path d="M268.33,151c11.6,12.71,17.27,30.18,14.28,47.22a58.6,58.6,0,0,1-9,22.33.49.49,0,0,0-.51.75,58.53,58.53,0,0,1-8.15,9.49c-.09-.36-.18-.72-.26-1.09a56.88,56.88,0,0,0,9.15-11.33c9-14.55,11.17-32.6,4.95-48.63a57.88,57.88,0,0,0-25.26-29.25c.36-.17.72-.35,1.07-.56A57.67,57.67,0,0,1,268.33,151Z" transform="translate(0)"/><path class="cls-9" d="M280.29,383.58c2.18,17.81,1.22,35.78-1.11,53.53-.28,2.12-.58,4.25-.89,6.37-.05.37-.11.72-.16,1.09h0c-.94,6.28-2,12.54-3.14,18.78-.73,4.12-1.47,8.24-2.26,12.35a38.8,38.8,0,0,1-2.84,9.59,79.82,79.82,0,0,1-59.09-14h0c0-.14,0-.27,0-.4l.22-7,0-1,1.58-49.46A25.51,25.51,0,0,1,226,418.77c.49.41,1.11-.38.62-.79a26.42,26.42,0,0,0-14-5.5l-1-.1c-6.62-.64-13.62.22-19.75.94a163.18,163.18,0,0,0-18.77,3.35L172,417a168.17,168.17,0,0,0-21.35,6.8.5.5,0,0,0,.37.92A168.48,168.48,0,0,1,171.77,418c-1.71,9.82-.15,20.13.26,30q.42,10.2.14,20.43,0,.51,0,1-.15,5.65-.53,11.31a90.4,90.4,0,0,0-39.9-3.13,89.46,89.46,0,0,0-21,5.75,26.5,26.5,0,0,0-7.64,4.31c-.4-1.84-.75-3.69-1.07-5.55-.53-3.07-1-6.15-1.28-9.24,0-.33-.08-.67-.11-1-2-20.14-.14-40.6,4.23-60.34,2.05-9.26,4.62-18.37,7.57-27.36A152.67,152.67,0,0,1,181.77,358c.7.63,1.41,1.23,2.13,1.82,6.91,5.68,14.8,10.28,19.94,17.81a.5.5,0,0,0,.79,0c4.62-6.44,9-13.08,13-19.93a153.68,153.68,0,0,1,26,5,145.07,145.07,0,0,1,35.71,15.43,50,50,0,0,1,1,5.27A.59.59,0,0,0,280.29,383.58Z" transform="translate(0)"/><path class="cls-8" d="M278.82,169.69c6.22,16,4,34.08-4.95,48.63a56.88,56.88,0,0,1-9.15,11.33c-.61-2.6-1.18-5.22-1.72-7.84-.08-.37-.15-.74-.22-1.11-.29.24-.59.48-.88.7q-6.49,5.08-13.33,9.68L247,228.64c8.06-6,11.43-18.68,6.49-27.2h0c-.1-.72-.22-1.41-.35-2.06a24.05,24.05,0,0,0-10.3-15.22,23.09,23.09,0,0,0-18-3.19c-4.69,1.08-10.14,3.84-13.1,8a9.23,9.23,0,0,0-4.32-.63,3.44,3.44,0,0,0-.38-2.63c-1.91-3.33-6.39-3.53-10.35-3.26l-.88.07c-1.25.1-2.43.24-3.42.31-2.28.17-4.56.39-6.84.64l-.8.09q-1.59.18-3.18.39c-2.18.29-5,.34-6.74,1.91a4.29,4.29,0,0,0-1.09,1.62,28.54,28.54,0,0,0-12.87-1.72,27,27,0,0,0-5.2,1c-2.07.62-3.86,1.85-6,1.58-3.8-.48-7.33-1.19-11.18-.6-15.8,2.42-18.83,21.74-11,33.34a32.34,32.34,0,0,0,1,8.61l-3.16-2.11-.83-.56-.51.87c-.51.87-1,1.73-1.53,2.6A61.36,61.36,0,0,1,105.44,202c-4.52-17-.6-35.1,9.66-49.24A59.65,59.65,0,0,1,130,138.37a33.4,33.4,0,0,0,20.2,7.65,15.36,15.36,0,0,0,1.21,3.8,18.14,18.14,0,0,0,3.9,5.31,10.17,10.17,0,0,0-1.84.23c-6.89,1.43-14.12,9.6-12.14,21.33.15.93,1.15.75,1-.2-1.94-11.47,5.44-18.76,12.07-19.77a8.18,8.18,0,0,1,2.8,0,27.36,27.36,0,0,0,4.88,3,31.36,31.36,0,0,1,2.53,3.14c2.45,3.39,4.7,6.92,5.71,11.81.19.93,1.12.36.93-.57-1.15-5.5-3.84-9.5-6.62-13.26,13.62,5.47,30.78,5.18,44.91,1.85l.17,0a19.69,19.69,0,0,0-.41,11.09c.22.93,1.15.35.93-.58a17.94,17.94,0,0,1,.93-10.87c6.57-1.67,14.87-4.56,20.19-9.14a17,17,0,0,1,4.83,3.68c3.77,4.05,5.91,10.24,8,16.4.29.87,1.22.3.92-.58-2.29-6.88-4.73-13.69-9.1-17.88a17.83,17.83,0,0,0-3.51-2.64,13.24,13.24,0,0,0,4.11-7.63,52,52,0,0,0,8.91-1.18,37.78,37.78,0,0,0,8.11-2.9A57.88,57.88,0,0,1,278.82,169.69Zm-49.15,4.92a5.5,5.5,0,1,0-5.5,5.5A5.5,5.5,0,0,0,229.67,174.61Zm-69,3a5.5,5.5,0,1,0-5.5,5.5A5.5,5.5,0,0,0,160.67,177.61Z" transform="translate(0)"/><path class="cls-8" d="M278.16,350.53q1.3,13.47,2,27a150.83,150.83,0,0,0-62-20.68c.64-1.12,1.28-2.24,1.9-3.37,2-3.65,3.88-7.56,3.81-11.83-.08-4.66-2.17-9.07-3.85-13.33q-10.31-26.16-20.6-52.33a65.9,65.9,0,0,0,5-7.21,92.69,92.69,0,0,0,7.33-14.47c.13-.3.25-.6.36-.91l-.93-.36a44,44,0,0,0-8.36-2.2A132.44,132.44,0,0,0,216,249.29c1.27-.2,2.54-.43,3.8-.68h0c1.23-.58,2.45-1.17,3.67-1.79h0q.36-.16.72-.36a1.23,1.23,0,0,1,0,.2c0,.34,0,.68-.07,1Q223,261.57,222,275.45c0,.37-.06.74-.08,1.11l1-.41,17-6.68c5,21.28,13.45,42.42,27.57,59.31a88.7,88.7,0,0,0,9.35,9.64Q277.56,344.47,278.16,350.53Z" transform="translate(0)"/><path d="M276,224l.11.07q-1.36,2.28-2.82,4.53c-.17.28-.35.55-.55.83q-2.05,3.15-4.33,6.21l-.4.15c-.09-.27-.18-.53-.26-.8q2.2-3,4.22-6.07c.19-.28.37-.56.55-.85q1.33-2.06,2.58-4.15l.09.12A.5.5,0,0,0,276,224Z" transform="translate(0)"/><path d="M276,223.45a.44.44,0,0,1,0,.56.5.5,0,0,1-.81,0l-.09-.12c.19-.31.38-.62.56-.93Z" transform="translate(0)"/><path d="M273.94,220.68,275.7,223c-.18.31-.37.62-.56.93-.66-.89-1.33-1.77-2-2.65a0,0,0,0,1,0,0l.51-.75A.39.39,0,0,1,273.94,220.68Z" transform="translate(0)"/><path class="cls-6" d="M273.14,221.28c.67.88,1.34,1.76,2,2.65q-1.25,2.1-2.58,4.15c-.18.29-.36.57-.55.85q-2,3.07-4.22,6.07l-1.66.42c-.4-1.56-.78-3.12-1.15-4.68a58.53,58.53,0,0,0,8.15-9.49A0,0,0,0,0,273.14,221.28Z" transform="translate(0)"/><path d="M273.64,220.5l-.51.75A.49.49,0,0,1,273.64,220.5Z" transform="translate(0)"/><path class="cls-6" d="M271.05,256l.06.18-.28.11-7.56,3-.93.36-21.69,8.51-.94.37L223,275q1.06-13.79,2.12-27.59c0-.34.06-.68.08-1,0-.16,0-.32,0-.49a225.77,225.77,0,0,0,36.89-23.44c.56,2.65,1.14,5.3,1.77,7.93.07.36.16.72.25,1.08Q267.08,243.89,271.05,256Z" transform="translate(0)"/><path class="cls-8" d="M269.33,486.4c-.28.51-.58,1-.91,1.48-3.86,5.68-10.48,8.64-16.89,10.42a89.37,89.37,0,0,1-19.8,3.36c-6.69.29-14.38-.93-18.28-7-4-6.33-3-14.83-2.7-22.11A80.87,80.87,0,0,0,269.33,486.4Z" transform="translate(0)"/><path class="cls-8" d="M264.86,104.31a21.25,21.25,0,0,1,2.79,18.93c-.11.34-.22.69-.35,1s-.32.85-.5,1.27a27,27,0,0,1-9.09,11.14,31.16,31.16,0,0,1-4.19,2.58c-.36.19-.73.38-1.11.55-.85.4-1.72.77-2.61,1.1a39.3,39.3,0,0,1-12,2.43l-1.21.06a13.31,13.31,0,0,0-.39-3.53.51.51,0,0,0-.09-.18,5.23,5.23,0,0,0-1.76-3,9.53,9.53,0,0,0-3.11-2.32,12.54,12.54,0,0,0-1.54-.7l0-.08a5.38,5.38,0,0,0-5.75,4.85c-.4,5,5.36,6.19,11.21,6.12a13,13,0,0,1-4,7c-.38.37-.78.73-1.19,1.08a36.08,36.08,0,0,1-10,5.68,78.78,78.78,0,0,1-8.41,2.77c-.52.14-1,.28-1.55.4a84.32,84.32,0,0,1-16.32,2.37c-9,.42-18.69-.44-27.18-3.37a30.8,30.8,0,0,1-3.5-1.45,28.19,28.19,0,0,1-5.94-3.77c-3-2.51-5.27-5.65-5.86-9.23a28.35,28.35,0,0,0,3.32-.24c4-.55,9.08-3.41,7.31-7.65-1.39-3.31-6.4-3.31-9-1.23s-3.22,5.06-2.93,8.05c-1.17-.07-2.29-.19-3.28-.33A32.05,32.05,0,0,1,131,137.72a9.85,9.85,0,0,1-.78-.67l-.08-.07c-.6-.53-1.18-1.09-1.73-1.67s-1-1.09-1.46-1.66a22.29,22.29,0,0,1-1.83-2.68,12.45,12.45,0,0,1-.65-1.18,23.55,23.55,0,0,1-1.85-16.48,25,25,0,0,1,5-9.94,21.56,21.56,0,0,1,6-5.11,6.41,6.41,0,0,0,2.09,5.22c2.47,2.12,7.33,1.92,7.72-1.69s-3.55-6-7.29-5.45a10,10,0,0,0-1.11.25,25.22,25.22,0,0,1,3.12-8.83A34.37,34.37,0,0,1,154.84,73a39.58,39.58,0,0,1,24.62-1.65c.8.2,1.59.43,2.36.68-.68,2.4-.16,5,2.45,6.42,2.82,1.48,6.85.9,8.14-1.94a.51.51,0,0,0-.18-.63,38.85,38.85,0,0,0-9-4.46c3-7.36,17.3-6.48,24.26-6.12,8.78.46,17.81,2.36,25.05,7,6.68,4.26,11.89,10.83,12.92,18.18a20.21,20.21,0,0,1,.19,2.28,17.19,17.19,0,0,0-4.73.54c-3.14.83-5.73,3.35-4.93,6.42.74,2.8,4.17,3.61,6.69,2.07A9.07,9.07,0,0,0,247,94,25.52,25.52,0,0,1,264.86,104.31Z" transform="translate(0)"/><path d="M254.43,139.77l.2.11c-.35.21-.71.39-1.07.56l-.08,0A3.56,3.56,0,0,0,254.43,139.77Z" transform="translate(0)"/><path d="M253.52,139.26c.3.16.61.33.91.51a3.56,3.56,0,0,1-1,.63l.08,0a37.78,37.78,0,0,1-8.11,2.9,52,52,0,0,1-8.91,1.18,13.24,13.24,0,0,1-4.11,7.63c-.35.35-.72.69-1.1,1-5.32,4.58-13.62,7.47-20.19,9.14l-1.45.36-.17,0c-14.13,3.33-31.29,3.62-44.91-1.85,2.78,3.76,5.47,7.76,6.62,13.26.19.93-.74,1.5-.93.57-1-4.89-3.26-8.42-5.71-11.81a31.36,31.36,0,0,0-2.53-3.14,27.36,27.36,0,0,1-4.88-3,8.18,8.18,0,0,0-2.8,0c-6.63,1-14,8.3-12.07,19.77.16.95-.84,1.13-1,.2-2-11.73,5.25-19.9,12.14-21.33a10.17,10.17,0,0,1,1.84-.23,18.14,18.14,0,0,1-3.9-5.31,15.36,15.36,0,0,1-1.21-3.8,33.4,33.4,0,0,1-20.2-7.65l.42-.28a1.49,1.49,0,0,1-.61-.79l.29-.32.08.07a9.85,9.85,0,0,0,.78.67,32.05,32.05,0,0,0,15.81,6.89c1,.14,2.11.26,3.28.33-.29-3,.43-6.05,2.93-8.05s7.62-2.08,9,1.23c1.77,4.24-3.36,7.1-7.31,7.65a28.35,28.35,0,0,1-3.32.24c.59,3.58,2.85,6.72,5.86,9.23a28.19,28.19,0,0,0,5.94,3.77,30.8,30.8,0,0,0,3.5,1.45c8.49,2.93,18.14,3.79,27.18,3.37a84.32,84.32,0,0,0,16.32-2.37c.52-.12,1-.26,1.55-.4a78.78,78.78,0,0,0,8.41-2.77,36.08,36.08,0,0,0,10-5.68c.41-.35.81-.71,1.19-1.08a13,13,0,0,0,4-7c-5.85.07-11.61-1.15-11.21-6.12a5.38,5.38,0,0,1,5.75-4.85l0,.08a12.54,12.54,0,0,1,1.54.7,9.53,9.53,0,0,1,3.11,2.32,5.23,5.23,0,0,1,1.76,3,.51.51,0,0,1,.09.18,13.31,13.31,0,0,1,.39,3.53l1.21-.06a39.3,39.3,0,0,0,12-2.43c.89-.33,1.76-.7,2.61-1.1C252.79,139.64,253.16,139.45,253.52,139.26Zm-18.14,4.17a11.2,11.2,0,0,0-.3-3.31.25.25,0,0,0,0-.07,7,7,0,0,0-2-3.2l-.39-.33a12.51,12.51,0,0,0-1.77-1.2,6.81,6.81,0,0,0-1.68-.57,3.23,3.23,0,0,0-.44,0,4,4,0,0,0-3.59,4.33C225.65,143,231.22,143.47,235.38,143.43Zm-75.51-1.14c2.29-2.67.34-6.48-3.68-5.72-2.86.53-4.41,3.11-4.84,5.47a11.74,11.74,0,0,0-.14,2.94C154.52,145,158,144.48,159.87,142.29Z" transform="translate(0)"/><path d="M158.48,215.64a2.73,2.73,0,0,0,.63-.14h0l.38-.1h0a19.53,19.53,0,0,0,7.95-4.31.51.51,0,0,1,.7.1c2.65,4.06,7,7.33,11.9,7.87.33,0,.65.06,1,.07a12.5,12.5,0,0,0,2.65-.19,11.78,11.78,0,0,0,9.21-8.78h0a9.15,9.15,0,0,0,.26-1.95h0a9.52,9.52,0,0,0-.23-2.48c-.14-.63.85-.75,1-.13A10.82,10.82,0,0,1,194,210c2.26,4.35,6.67,7.6,11.82,6.69a10.88,10.88,0,0,0,1.22-.3,8.16,8.16,0,0,0,1.05-.4,10.46,10.46,0,0,0,4.18-3.64c.74-1,1.13-1.4,2.36-1s2.42,1.23,3.73,1.63a18.18,18.18,0,0,0,3.08.66,14.88,14.88,0,0,1,1.58-6.89c.29-.57,1.22-.18.92.39a14,14,0,0,0-1.49,6.6c0,.34,0,.67,0,1A20.84,20.84,0,0,0,225.89,225a13.69,13.69,0,0,0,17.3,4.74c9-4.08,13.77-16.15,10.56-25.18a14.85,14.85,0,0,0-6.37-7.83c-.55-.33.08-1.11.62-.78a15.65,15.65,0,0,1,4.08,3.54c-.09-.44-.19-.88-.3-1.31a23.21,23.21,0,0,0-9.61-13.22,22.17,22.17,0,0,0-16.9-3.07c-4.52,1-9.79,3.58-12.68,7.56a9.82,9.82,0,0,1,2.58,2c.44.47-.36,1.07-.8.6a8.57,8.57,0,0,0-2.32-1.78,6.93,6.93,0,0,0-.93-.41,8.12,8.12,0,0,0-4.24-.42h0a8.26,8.26,0,0,0-3.51,1.48,8.62,8.62,0,0,0-3,4c-.22.61-1.14.21-.92-.39a9.54,9.54,0,0,1,2.15-3.44c-1.94-.08-3.89-.15-5.83-.21-.62,2.69-1.56,5.06-3.61,5.9-3.48,1.42-5.28-2-6.31-6.09-1.39,0-2.79,0-4.18,0h-.06c-.44,0-1,.06-1.71.12-.51,0-1.06.09-1.62.12-1.66.09-3.36,0-4.2-.78a2,2,0,0,1-.62-1.66,27.34,27.34,0,0,0-12.53-1.71,26.23,26.23,0,0,0-5.67,1.18c-1.28.42-2.78,1.55-4.08,1.74-1.14.17-2.87-.57-4-.75a32.52,32.52,0,0,0-4.61-.43c-8.28-.14-15,4.24-17.54,12.28a23.08,23.08,0,0,0,2.45,18.68,15.46,15.46,0,0,1,3.41-8.45c.41-.5,1.2.12.78.62a15.37,15.37,0,0,0-3.35,9.11h0c0,.54,0,1.07,0,1.62a31.13,31.13,0,0,0,1.28,8.12c.14.51.3,1,.46,1.51.43,1.33.92,2.6,1.44,3.79.39.9.83,1.79,1.31,2.65.35.61.71,1.21,1.1,1.79,3.64,5.47,9.23,9.52,16.18,9.24a12.94,12.94,0,0,0,4.63-1,11.09,11.09,0,0,0,1-.5,12.92,12.92,0,0,0,4.21-3.79h0a19,19,0,0,0,3.23-10.4,33.67,33.67,0,0,0-4.09-17.23,20.37,20.37,0,0,1-22.74-10.75c-.29-.58.64-.95.93-.38a19.27,19.27,0,0,0,21.2,10.23Zm95-14.2c4.94,8.52,1.57,21.18-6.49,27.2a18,18,0,0,1-4.13,2.3,14.61,14.61,0,0,1-17.33-4.8,21.79,21.79,0,0,1-4-11.45,18.91,18.91,0,0,1-6.15-1.81c-2.14-1-2.16.33-3.46,1.72a10.2,10.2,0,0,1-3.94,2.57,45.73,45.73,0,0,1-2.33,8.86c-.2.53-.4,1.06-.62,1.59-.12.3-.25.61-.38.91-2,4.63-4.89,8.91-10.48,9.05a12.7,12.7,0,0,1-10.88-6.05c-.19-.28-.37-.57-.54-.86,0,0,0,0,0,0a16,16,0,0,1-.77-1.48A22.5,22.5,0,0,1,180.1,220c-5-.52-9.55-3.74-12.4-7.84a20.18,20.18,0,0,1-7.66,4.09,35.12,35.12,0,0,1,4.1,15.35c.19,4.83-.73,10.11-3.8,13.89h0l-.26.32-.53.57-.11.11a12.24,12.24,0,0,1-1.77,1.49c-.31.22-.63.42-1,.61a10.72,10.72,0,0,1-1,.52c-4.89,2.29-10.94,1.45-15.54-1.25a22.69,22.69,0,0,1-8.15-8.74c-.32-.58-.62-1.16-.9-1.76h0a37.94,37.94,0,0,1-2.31-6.22q-.14-.44-.24-.87c-.05-.19-.1-.39-.14-.58a32.34,32.34,0,0,1-1-8.61c-7.8-11.6-4.77-30.92,11-33.34,3.85-.59,7.38.12,11.18.6,2.17.27,4-1,6-1.58a27,27,0,0,1,5.2-1,28.54,28.54,0,0,1,12.87,1.72,4.29,4.29,0,0,1,1.09-1.62c1.75-1.57,4.56-1.62,6.74-1.91q1.59-.21,3.18-.39l.8-.09c2.28-.25,4.56-.47,6.84-.64,1-.07,2.17-.21,3.42-.31l.88-.07c4-.27,8.44-.07,10.35,3.26a3.44,3.44,0,0,1,.38,2.63,9.23,9.23,0,0,1,4.32.63c3-4.19,8.41-7,13.1-8a23.09,23.09,0,0,1,18,3.19,24.05,24.05,0,0,1,10.3,15.22c.13.65.25,1.34.35,2.06ZM206.32,188.5c.62-1.39-.41-2.84-1.5-3.63a8.83,8.83,0,0,0-4.72-1.37c-1.13-.06-2.28-.05-3.43,0l-.86.05c-2.07.11-4.16.35-6.19.53-1.33.12-2.67.25-4,.4l-.84.08c-1.83.21-3.67.45-5.49.73a9.75,9.75,0,0,0-2.7.62L175,187a6.63,6.63,0,0,0-.17.95,2.45,2.45,0,0,0,.09,1.13h0c.17.48.58.68,1.22.6h.12a7.5,7.5,0,0,0,2.17.17h0c.71,0,1.42-.1,2.09-.14h0a.38.38,0,0,1,.22-.06c1.61,0,3.21,0,4.82,0h.87c2.94,0,5.88.08,8.82.17l.67,0c2,.06,4,.13,6,.22a.5.5,0,0,0,.25.35l0,0a3.29,3.29,0,0,1,.42-.34,4.1,4.1,0,0,1,.5-.35h0a8.89,8.89,0,0,1,3.13-1.28Zm-.92,35.09a44.51,44.51,0,0,0,1.48-6.08,11.28,11.28,0,0,1-4.09.28,12.6,12.6,0,0,1-9.14-6.37,13,13,0,0,1-9,8.33,12.72,12.72,0,0,1-3.56.36,22.16,22.16,0,0,0,1.22,7.28,16,16,0,0,0,1.14,2.49c2.95-2.87,7.21-4,11.41-4.34a17.36,17.36,0,0,1,9.31,1.62C204.64,226,205,224.73,205.4,223.59Zm-10.72,13c4.75-.4,7.38-4.31,9.12-8.47a14.73,14.73,0,0,0-5.25-1.51.41.41,0,0,1-.41.53,4.62,4.62,0,0,0-4.71,4.73c0,.63-1,.77-1,.12a5.65,5.65,0,0,1,3.6-5.47c-.35,0-.71,0-1.06.06-4,.31-8.22,1.35-11,4.21C186.3,234.38,190.09,237,194.68,236.55Zm-2.28-41.17c1.24-.75,2.13-2.44,2.68-4.52-2.78-.08-5.57-.14-8.35-.16C187.7,194.33,189.35,197.2,192.4,195.38Z" transform="translate(0)"/><path class="cls-8" d="M158.46,215.64a19.27,19.27,0,0,1-21.2-10.23c-.29-.57-1.22-.2-.93.38a20.37,20.37,0,0,0,22.74,10.75,33.67,33.67,0,0,1,4.09,17.23,19,19,0,0,1-3.23,10.4h0a12.92,12.92,0,0,1-4.21,3.79,11.09,11.09,0,0,1-1,.5,12.94,12.94,0,0,1-4.63,1c-7,.28-12.54-3.77-16.18-9.24-.39-.58-.75-1.18-1.1-1.79-.48-.86-.92-1.75-1.31-2.65-.52-1.19-1-2.46-1.44-3.79-.16-.49-.32-1-.46-1.51a31.13,31.13,0,0,1-1.28-8.12c0-.55,0-1.08,0-1.62h0a15.37,15.37,0,0,1,3.35-9.11c.42-.5-.37-1.12-.78-.62a15.46,15.46,0,0,0-3.41,8.45A23.08,23.08,0,0,1,125,200.79c2.5-8,9.26-12.42,17.54-12.28a32.52,32.52,0,0,1,4.61.43c1.14.18,2.87.92,4,.75,1.3-.19,2.8-1.32,4.08-1.74a26.23,26.23,0,0,1,5.67-1.18,27.34,27.34,0,0,1,12.53,1.71,2,2,0,0,0,.62,1.66c.84.79,2.54.87,4.2.78.56,0,1.11-.07,1.62-.12.67-.06,1.27-.12,1.71-.12h.06c1.39,0,2.79,0,4.18,0,1,4.1,2.83,7.51,6.31,6.09,2.05-.84,3-3.21,3.61-5.9,1.94.06,3.89.13,5.83.21a9.54,9.54,0,0,0-2.15,3.44c-.22.6.7,1,.92.39a8.62,8.62,0,0,1,3-4,3.44,3.44,0,0,0,3.51-1.48h0a8.12,8.12,0,0,1,4.24.42,6.93,6.93,0,0,1,.93.41,8.57,8.57,0,0,1,2.32,1.78c.44.47,1.24-.13.8-.6a9.82,9.82,0,0,0-2.58-2c2.89-4,8.16-6.59,12.68-7.56a22.17,22.17,0,0,1,16.9,3.07,23.21,23.21,0,0,1,9.61,13.22c.11.43.21.87.3,1.31a15.65,15.65,0,0,0-4.08-3.54c-.54-.33-1.17.45-.62.78a14.85,14.85,0,0,1,6.37,7.83c3.21,9-1.6,21.1-10.56,25.18a13.69,13.69,0,0,1-17.3-4.74,20.84,20.84,0,0,1-3.38-10.19c0-.34,0-.67,0-1a14,14,0,0,1,1.49-6.6c.3-.57-.63-1-.92-.39a14.88,14.88,0,0,0-1.58,6.89,18.18,18.18,0,0,1-3.08-.66c-1.31-.4-2.46-1.2-3.73-1.63s-1.62,0-2.36,1a10.46,10.46,0,0,1-4.18,3.64,8.16,8.16,0,0,1-1.05.4,10.88,10.88,0,0,1-1.22.3c-5.15.91-9.56-2.34-11.82-6.69a10.82,10.82,0,0,0-.05-4.46c-.15-.62-1.14-.5-1,.13a9.52,9.52,0,0,1,.23,2.48h0a9.15,9.15,0,0,1-.26,1.95h0a11.78,11.78,0,0,1-9.21,8.78,12.5,12.5,0,0,1-2.65.19c-.33,0-.65,0-1-.07-4.86-.54-9.25-3.81-11.9-7.87a.51.51,0,0,0-.7-.1,19.53,19.53,0,0,1-7.95,4.31h0l-.38.1h0a2.73,2.73,0,0,1-.63.14Z" transform="translate(0)"/><path class="cls-8" d="M247,228.64l1.62,2.44a224.88,224.88,0,0,1-23.25,13.7l-1,.54c-1.6.8-3.22,1.59-4.84,2.36h0a134.06,134.06,0,0,1-59-1.74l-.2-.05-.17,0,.26-.32h0c3.07-3.78,4-9.06,3.8-13.89a35.12,35.12,0,0,0-4.1-15.35,20.18,20.18,0,0,0,7.66-4.09c2.85,4.1,7.43,7.32,12.4,7.84a22.5,22.5,0,0,0,1.84,9.14,16,16,0,0,0,.77,1.48s0,0,0,0c.17.29.35.58.54.86a12.7,12.7,0,0,0,10.88,6.05c5.59-.14,8.49-4.42,10.48-9.05.13-.3.26-.61.38-.91.22-.53.42-1.06.62-1.59a45.73,45.73,0,0,0,2.33-8.86,10.2,10.2,0,0,0,3.94-2.57c1.3-1.39,1.32-2.77,3.46-1.72a18.91,18.91,0,0,0,6.15,1.81,21.79,21.79,0,0,0,4,11.45,14.61,14.61,0,0,0,17.33,4.8A18,18,0,0,0,247,228.64Z" transform="translate(0)"/><path class="cls-8" d="M238,96.14c1.7-2,5-2.32,7.67-2.22-.15,2.73-1,5.53-3.67,7C238.37,102.92,235.82,98.75,238,96.14Z" transform="translate(0)"/><path d="M245,172.67c.3.88-.63,1.45-.92.58-2.05-6.16-4.19-12.35-8-16.4a17,17,0,0,0-4.83-3.68c.38-.33.75-.67,1.1-1a17.83,17.83,0,0,1,3.51,2.64C240.31,159,242.75,165.79,245,172.67Z" transform="translate(0)"/><path class="cls-8" d="M235.08,140.12a11.2,11.2,0,0,1,.3,3.31c-4.16,0-9.73-.48-10.13-4.34a4,4,0,0,1,3.59-4.33,3.23,3.23,0,0,1,.44,0,6.81,6.81,0,0,1,1.68.57,12.51,12.51,0,0,1,1.77,1.2l.39.33a7,7,0,0,1,2,3.2A.25.25,0,0,1,235.08,140.12Z" transform="translate(0)"/><circle cx="224.17" cy="174.61" r="5.5"/><path d="M225.23,245.94c0,.17,0,.33,0,.49,0,.34-.05.68-.08,1l-1,.23c0-.34.05-.68.07-1a1.23,1.23,0,0,0,0-.2Z" transform="translate(0)"/><path class="cls-1" d="M222.61,339.07c.87,5.11-1,9.6-3.47,14-.68,1.23-1.37,2.44-2.07,3.65-.17.31-.35.61-.53.91-3.8,6.48-7.95,12.76-12.31,18.87-5.48-7.66-14.16-12.45-21.24-18.61l-1-.89a33,33,0,0,1-8.29-10.87c-3.9-8.66-.37-17.51,2.16-26q3.57-11.92,6-24.16c1.46-7.32,2.62-14.71,3.47-22.12,2.31,2.62,5.1,5,8.07,5.39a5.53,5.53,0,0,0,5-2.06c.11-.12.22-.23.31-.35q9.48,24.07,19,48.16C219.43,329.53,221.79,334.23,222.61,339.07Z" transform="translate(0)"/><path class="cls-7" d="M211.67,413.34q-.81,24.87-1.59,49.75c-2.5.46-5,.9-7.5,1.32h0l-.53.09q-14.37,2.37-28.88,3.84c.17-6.48.14-13-.1-19.46-.29-7.55-1.17-15.11-1-22.67a50.56,50.56,0,0,1,.89-8.47,162.46,162.46,0,0,1,17.27-3.19C196.77,413.7,204.48,412.6,211.67,413.34Z" transform="translate(0)"/><path d="M209.69,162.67l1.45-.36a17.94,17.94,0,0,0-.93,10.87c.22.93-.71,1.51-.93.58A19.69,19.69,0,0,1,209.69,162.67Z" transform="translate(0)"/><path d="M210.08,463.09l0,1c-2.17.41-4.35.79-6.54,1.16l-1.23.2q-14.5,2.4-29.14,3.89c0-.34,0-.67,0-1h0q14.49-1.48,28.88-3.84l.53-.09h0C205.09,464,207.58,463.55,210.08,463.09Z" transform="translate(0)"/><path d="M204.82,184.87c1.09.79,2.12,2.24,1.5,3.63h0a8.89,8.89,0,0,0-3.13,1.28h0a4.1,4.1,0,0,0-.5.35,3.29,3.29,0,0,0-.42.34l0,0a.5.5,0,0,1-.25-.35c-2-.09-4-.16-6-.22l-.67,0c-2.94-.09-5.88-.14-8.82-.17h-.87c-1.61,0-3.21,0-4.82,0a.38.38,0,0,0-.22.06h0c-.67,0-1.38.11-2.09.14h0a25.32,25.32,0,0,0-3.61-1.89A6.63,6.63,0,0,1,175,187l1.56-1.12a9.75,9.75,0,0,1,2.7-.62c1.82-.28,3.66-.52,5.49-.73l.84-.08c1.33-.15,2.67-.28,4-.4,2-.18,4.12-.42,6.19-.53l.86-.05c1.15-.05,2.3-.06,3.43,0A8.83,8.83,0,0,1,204.82,184.87Z" transform="translate(0)"/><path class="cls-1" d="M210.78,253.92a92.09,92.09,0,0,1-5.43,11.28c-1.45,2.52-3,5-4.71,7.35-.49.7-1,1.53-1.64,2.35-.23.31-.46.62-.72.91-1.27,1.51-2.8,2.72-4.75,2.43-2.54-.38-4.71-2.56-6.46-4.29-.54-.54-1.07-1.09-1.57-1.66h0c-.32-.33-.61-.67-.9-1a39.4,39.4,0,0,1-2.48-3.26,40.42,40.42,0,0,1-5.58-12.07A42.8,42.8,0,0,1,210.78,253.92Z" transform="translate(0)"/><path d="M206.88,217.51a44.51,44.51,0,0,1-1.48,6.08c-.36,1.14-.76,2.36-1.24,3.57a17.36,17.36,0,0,0-9.31-1.62c-4.2.34-8.46,1.47-11.41,4.34a16,16,0,0,1-1.14-2.49,22.16,22.16,0,0,1-1.22-7.28,12.72,12.72,0,0,0,3.56-.36,13,13,0,0,0,9-8.33,12.6,12.6,0,0,0,9.14,6.37A11.28,11.28,0,0,0,206.88,217.51Z" transform="translate(0)"/><path d="M206.88,189.41a3.44,3.44,0,0,1-3.51,1.48A8.26,8.26,0,0,1,206.88,189.41Z" transform="translate(0)"/><path class="cls-10" d="M203.8,228.08c-1.74,4.16-4.37,8.07-9.12,8.47-4.59.4-8.38-2.17-10.73-5.8,2.81-2.86,7-3.9,11-4.21.35,0,.71,0,1.06-.06a5.65,5.65,0,0,0-3.6,5.47c0,.65,1,.51,1-.12a4.62,4.62,0,0,1,4.71-4.73.41.41,0,0,0,.41-.53A14.73,14.73,0,0,1,203.8,228.08Z" transform="translate(0)"/><path d="M195.08,190.86c-.55,2.08-1.44,3.77-2.68,4.52-3.05,1.82-4.7-1-5.67-4.68C189.51,190.72,192.3,190.78,195.08,190.86Z" transform="translate(0)"/><path class="cls-8" d="M190.76,76.2c.79,1.77-3.17,2.08-4.34,1.85a4.35,4.35,0,0,1-3.49-5.63,0,0,0,0,1,0,0c.68.24,1.37.48,2,.76,1,.39,1.87.83,2.77,1.3C188.36,74.76,190.49,75.6,190.76,76.2Z" transform="translate(0)"/><path class="cls-8" d="M181.54,268.92c.8,1.16,1.78,2.52,2.89,3.87a268.24,268.24,0,0,1-9.77,47.86c-2.2,7.27-5.16,14.94-3.07,22.6,1.49,5.48,5.09,10,9.21,13.89A156.83,156.83,0,0,0,142,367.08a147.3,147.3,0,0,0-29.06,15.54c-.42.3-.85.59-1.27.9-1.16.81-2.31,1.64-3.44,2.5l-.63-.83a.73.73,0,0,0,.08-.09c9.14-13.47,13-29.64,16.12-45.39A330.42,330.42,0,0,0,130,286q.33-9.9,0-19.79l34.65,9.5,1,.28c0-.35-.05-.7-.08-1.05a141.8,141.8,0,0,0-3.18-21.23c-.11-.48-.23-.95-.35-1.43l-1.22-.82-4.17-2.78c.33-.19.65-.39,1-.61a12.24,12.24,0,0,0,1.77-1.49.42.42,0,0,0,.19.18.52.52,0,0,0,.15.06l1,.24A133.23,133.23,0,0,0,188,251a42.55,42.55,0,0,0-11.72,3.95c-.3.15-.6.3-.9.47q.12.5.27,1A41.77,41.77,0,0,0,181.54,268.92Z" transform="translate(0)"/><path d="M178.47,189.87a7.5,7.5,0,0,1-2.17-.17h-.12c-.4-.21-.81-.41-1.22-.6h0a2.45,2.45,0,0,1-.09-1.13A25.32,25.32,0,0,1,178.47,189.87Z" transform="translate(0)"/><path d="M172,417c-.07.36-.14.72-.2,1.08A168.48,168.48,0,0,0,151,424.68a.5.5,0,0,1-.37-.92A168.17,168.17,0,0,1,172,417Z" transform="translate(0)"/><path class="cls-8" d="M171.54,481.8c-.13,1.84-.28,3.68-.44,5.52-.26,2.95-.57,5.89-.91,8.83-.41,3.47-.8,7.06-3.51,9.57-2,1.86-4.68,2.9-7.2,3.93-2.86,1.17-5.78,2.21-8.74,3.11a102.65,102.65,0,0,1-18,3.78c-3.07.36-6.17.59-9.26.67-2.93.07-6.19.14-8.86-1.28s-4.06-4.35-5.17-7.1-2.13-5.62-3-8.48q-1.81-5.73-3.1-11.6c3.06-3.19,8.81-4.92,12.25-6.12a89.37,89.37,0,0,1,56-.83Z" transform="translate(0)"/><path d="M165.63,274.9c0,.35.06.7.08,1.05l-1-.28L130,266.17l-1-.28-22.61-6.2-1-.27.52-.88c.67-1.14,1.34-2.28,2-3.42l1-1.72c.33-.56.65-1.15,1-1.7.17-.26.3-.55.47-.81l.48-.82c.34-.57.68-1.14,1-1.72.68-1.14,1.35-2.29,2-3.43s1.34-2.3,2-3.44l2-3.44c.55-.93,1.08-1.88,1.64-2.8l.12-.2a.39.39,0,0,0,.28-.12,15.5,15.5,0,0,0,2.52-3.07l.17.1-.1.18-11.46,19.52-.48.81L107,258.81,129,264.86l1,.27,34.59,9.49a140,140,0,0,0-3.39-21.77l-5.52-3.69a10.72,10.72,0,0,0,1-.52l4.17,2.78,1.22.82c.12.48.24.95.35,1.43A141.8,141.8,0,0,1,165.63,274.9Z" transform="translate(0)"/><path class="cls-6" d="M164.61,274.62,130,265.13l-1-.27L107,258.81l3.72-6.35.48-.81,11.46-19.52.1-.18.42-.72,1.62-2.75,4,2.7a37.94,37.94,0,0,0,2.31,6.22h0c.28.6.58,1.18.9,1.76a22.69,22.69,0,0,0,8.15,8.74c4.6,2.7,10.65,3.54,15.54,1.25l5.52,3.69A140,140,0,0,1,164.61,274.62Z" transform="translate(0)"/><path d="M160.45,245.94c.1.36.21.72.3,1.08l-1-.24a.52.52,0,0,1-.15-.06.42.42,0,0,1-.19-.18l.11-.11.53-.57.17,0Z" transform="translate(0)"/><path class="cls-8" d="M156.19,136.57c4-.76,6,3.05,3.68,5.72-1.88,2.19-5.35,2.74-8.66,2.69a11.74,11.74,0,0,1,.14-2.94C151.78,139.68,153.33,137.1,156.19,136.57Z" transform="translate(0)"/><circle cx="155.17" cy="177.61" r="5.5"/><path class="cls-8" d="M140.35,98.09c2.18,1.48,2.78,4.9-.43,5.76-3.56,1-5.12-3.59-5.06-5.75,0-.14,0-.29,0-.44A5.72,5.72,0,0,1,140.35,98.09Z" transform="translate(0)"/><path d="M130.41,138.09l-.42.28c-.26-.21-.52-.43-.78-.67.19-.14.39-.27.59-.4A1.49,1.49,0,0,0,130.41,138.09Z" transform="translate(0)"/><path d="M130,266.17q.27,9.9,0,19.79a330.42,330.42,0,0,1-6.21,53.75c-3.14,15.75-7,31.92-16.12,45.39a.73.73,0,0,1-.08.09c-.38.36-1-.22-.71-.71,5.18-7.63,8.63-16.18,11.2-25,4.78-16.4,7.59-33.54,9.35-50.51A331.56,331.56,0,0,0,129,265.89Z" transform="translate(0)"/><path d="M130.09,137l-.29.32c-.2.13-.4.26-.59.4-.61-.54-1.2-1.1-1.75-1.69.29-.24.59-.47.9-.7C128.91,135.89,129.49,136.45,130.09,137Z" transform="translate(0)"/><path d="M129.21,137.7c.26.24.52.46.78.67a59.65,59.65,0,0,0-14.89,14.42c-10.26,14.14-14.18,32.26-9.66,49.24a61.36,61.36,0,0,0,16.94,28.5l-.29.49a.38.38,0,0,0-.33.21l-.05.07a60.56,60.56,0,0,1-7.32-8.34c-10.54-14.45-14.54-33-9.86-50.37A62.11,62.11,0,0,1,129.21,137.7Z" transform="translate(0)"/><path class="cls-6" d="M129,265.89A331.56,331.56,0,0,1,127.42,309c-1.76,17-4.57,34.11-9.35,50.51-2.57,8.81-6,17.36-11.2,25-.34.49.33,1.07.71.71l.63.83-1.41,1.07a.5.5,0,0,0,.6.8c1.22-.94,2.46-1.87,3.72-2.76-9.08,28.11-14.55,57.19-11.53,86.8-11.38.06-22.77-.05-34.16-.25a163.76,163.76,0,0,0,22.61-46c4.94-16.42,6.39-33.47,6.53-50.55.11-14.45-.36-28.93-1.3-43.37-.07-1.26-.15-2.51-.24-3.77-.43-1.22-.85-2.44-1.29-3.66q-10.51-29.88-23-59L68.21,264c-.5-.28-1-.58-1.47-.89h0c-16.11-10-25.59-25.54-33.6-39.84,3.57.16,7.26-.49,10.79-.3A42.94,42.94,0,0,1,59,226.67c4.85,2.16,8.92,6,14,7.74,4.45,1.49,8.77.11,13.06-1.19a25.68,25.68,0,0,1,7.14-1.4c.41,0,.83,0,1.25,0s.75.08,1.13.14a34.1,34.1,0,0,1,8,2.94c4.35,1.95,9.1,3.63,13.74,1.67,0,0,0,0,.06,0l.06,0a14,14,0,0,0,2.15-1.3c-.56.92-1.09,1.87-1.64,2.8l-2,3.44c-.68,1.14-1.35,2.29-2,3.44s-1.34,2.29-2,3.43c-.33.58-.67,1.15-1,1.72l-.48.82c-.17.26-.3.55-.47.81-.35.55-.67,1.14-1,1.7l-1,1.72c-.66,1.14-1.33,2.28-2,3.42l-.52.88,1,.27Z" transform="translate(0)"/><path d="M128.55,230.31q.1.44.24.87l-4-2.7-1.62,2.75-.42.72-.17-.1a.55.55,0,0,0-.44-.83c.09-.17.19-.33.28-.49.52-.87,1-1.73,1.53-2.6l.51-.87.83.56,3.16,2.11C128.45,229.92,128.5,230.12,128.55,230.31Z" transform="translate(0)"/><path class="cls-8" d="M127.46,136c.55.59,1.14,1.15,1.75,1.69a62.11,62.11,0,0,0-24.68,34.89c-4.68,17.37-.68,35.92,9.86,50.37a60.56,60.56,0,0,0,7.32,8.34,14.7,14.7,0,0,1-2.22,2.75l-.06,0a9.36,9.36,0,0,1-2.34,1.53s0,0-.07,0h0c-5,2.11-10-.35-14.58-2.39a24.05,24.05,0,0,0-8.68-2.44c-.4,0-.81,0-1.22,0s-1,.06-1.48.13c-4.22.6-8.13,2.65-12.38,3.06-5.24.51-9.2-2.47-13.39-5.13A44,44,0,0,0,41.73,222c-2.93,0-6.13.51-9.18.31a11.11,11.11,0,0,1-1.16-.1,10.78,10.78,0,0,1-4.9-1.78c-3.81-2.64-3.45-6.8-1.22-10,.21-.29.43-.58.67-.85h0a11.4,11.4,0,0,1,2.23-2c6.34-4.28,14.43-5.12,20.63-9.81a17.08,17.08,0,0,0,5.88-7.68c1.45-3.91,1.51-8.42,4-11.92,3.56-5.09,10.41-5.74,16-7.71q.5-.16,1-.36l.79-.32a13.27,13.27,0,0,0,6.2-5c1.74-2.8,2-6.18,2.71-9.34,1.1-5.24,3.87-8.6,9.35-9.24,3.9-.46,7.86.12,11.74-.57a12,12,0,0,0,8.32-5.59c2-3.12,4.78-9,9-9.18a23,23,0,0,0,2,3.13A25.81,25.81,0,0,0,127.46,136Z" transform="translate(0)"/><path d="M122.1,231a.55.55,0,0,1,.44.83,15.5,15.5,0,0,1-2.52,3.07.39.39,0,0,1-.28.12c.18-.29.34-.58.51-.87.54-.91,1.07-1.82,1.6-2.73h0l.24-.41Z" transform="translate(0)"/><path d="M122.09,231l-.24.41-.14-.13.05-.07A.38.38,0,0,1,122.09,231Z" transform="translate(0)"/><path d="M112.92,382.62c-.18.53-.35,1.06-.53,1.6l-1.27.91c-1.26.89-2.5,1.82-3.72,2.76a.5.5,0,0,1-.6-.8l1.41-1.07c1.13-.86,2.28-1.69,3.44-2.5C112.07,383.21,112.5,382.92,112.92,382.62Z" transform="translate(0)"/><path class="cls-6" d="M71.05,115.68c1.15,17.93,2.22,35.87,3.48,53.79-4.89,1.85-10.42,2.35-14.56,5.77-2.77,2.28-3.91,5.53-4.74,8.92-1.18,4.9-2.43,9.1-6.5,12.38-3.23,2.6-7.13,4.21-11,5.7s-8,2.65-11.19,5.24a11.25,11.25,0,0,0-1.14,1.05A237,237,0,0,1,8.74,162a224.67,224.67,0,0,1-5.6-34.68l0-.41v-.07c.71,0,1.42-.08,2.13-.17l.45-.05a.62.62,0,0,0,.24,0l5.18-.64,1.05-.12,2.12-.25h0l1-.13c9.43-1.12,18.89-2.22,28.19-3.8A102.65,102.65,0,0,0,57,118.56l.86-.27.13,0,.93-.32h0a50,50,0,0,0,11-5.21c.3-.19.6-.38.89-.58h0l.11-.07c0,.09,0,.17,0,.26a5.36,5.36,0,0,0,0,1.26l0,.06C71,114.32,71,115,71.05,115.68Z" transform="translate(0)"/><path class="cls-8" d="M64.72,86.22c1.24,5.51-1.83,10.94-6.13,14.18-.33.25-.68.5-1,.73s-.64.44-1,.65c-4,2.49-9.5,4.54-13.8,3.38a6.72,6.72,0,0,1-5.16-6.34c.94-.23,1.88-.5,2.8-.8a39.54,39.54,0,0,0,7.94-3.62l.84-.52A38.28,38.28,0,0,0,60.75,82.56c.3-.45.59-.91.87-1.37l.06,0A9.36,9.36,0,0,1,64.72,86.22Z" transform="translate(0)"/><path class="cls-7" d="M57.88,114.8l11.49-2.75a48.18,48.18,0,0,1-10.26,5l-1.09.38-.08,0Z" transform="translate(0)"/><path d="M61.67,81.09a.76.76,0,0,1,0,.15l-.06,0A.47.47,0,0,1,61.67,81.09Z" transform="translate(0)"/><path class="cls-8" d="M60.64,80.46c0,.13,0,.27,0,.4A37,37,0,0,1,48.69,93q-5.55-9.45-11.08-18.92c-.33-.56-1.12,0-.8.6l11,18.85a38.07,38.07,0,0,1-7.39,3.4.48.48,0,0,0-.18-.07L38,96.47A20.17,20.17,0,0,1,24.54,79.33c-.06-.64-1.06-.51-1,.13A21.17,21.17,0,0,0,37.65,97.4h0l.09,0,.66.12-.78.21c-.37.1-.74.19-1.11.26-.61.15-1.22.27-1.84.37a32.25,32.25,0,0,1-17.37-1.63c-6.41-2.65-11.58-8.68-10.38-16a.5.5,0,0,0-1-.13c-2.41,14.67,15.3,20.23,26.73,19a38.49,38.49,0,0,0,3.87-.62,8,8,0,0,0,2.44,5.1c4.63,4.49,12.51,1.72,17.61-1.26l.16,6.87,0,1,.08,3.25,0,.9.06,2.76a101.86,101.86,0,0,1-15.05,3.42c-8.73,1.4-17.57,2.45-26.4,3.51l-1,.13-2.61.32c-.59-1.14-1.17-2.29-1.75-3.43a.43.43,0,0,0-.2-.2l-.08,0c-.13-.29-.26-.58-.37-.87A102.21,102.21,0,0,1,2.62,98.69C1,90.32-.29,80.52,4.62,73c4.52-7,12.66-10.3,20.46-12,4-.88,8-1.55,12-2.07s8.27-.77,12.21.52c8.55,2.81,10.61,11.72,11.25,19.84C60.58,79.64,60.61,80.05,60.64,80.46Z" transform="translate(0)"/><path d="M48.69,93l.34.59c-.14.13-.27.27-.42.39a1.5,1.5,0,0,0-.33.29c-.14-.25-.29-.49-.44-.74C48.13,93.37,48.41,93.19,48.69,93Z" transform="translate(0)"/><path d="M48.69,93c-.28.18-.56.36-.85.53l-11-18.85c-.32-.55.47-1.16.8-.6Q43.15,83.54,48.69,93Z" transform="translate(0)"/><path d="M48.28,94.28l.07.12A39.54,39.54,0,0,1,40.41,98l0-.16a.52.52,0,0,0,.09-.92,38.07,38.07,0,0,0,7.39-3.4C48,93.79,48.14,94,48.28,94.28Z" transform="translate(0)"/><path d="M40.45,96.94a.52.52,0,0,1-.09.92.81.81,0,0,1-.22,0l-1.71-.3C39.11,97.37,39.78,97.17,40.45,96.94Z" transform="translate(0)"/><path d="M40.27,96.87a.48.48,0,0,1,.18.07c-.67.23-1.34.43-2,.62h0l-.66-.12-.09,0h0A21.17,21.17,0,0,1,23.54,79.46c-.06-.64.94-.77,1-.13A20.17,20.17,0,0,0,38,96.47Z" transform="translate(0)"/><path class="cls-7" d="M10.15,124l.65,1.28-3.18.38a1.35,1.35,0,0,1-.55.11,23.82,23.82,0,0,0-3.68.19c.94-1.91,4.31-2.31,6.25-2.46l.1.22A.47.47,0,0,0,10.15,124Z" transform="translate(0)"/><path d="M9.73,122.43c.64,0,.77.95.13,1l-.22,0-.45-1Z" transform="translate(0)"/><path d="M9.19,122.47l.45,1c-1.94.15-5.31.55-6.25,2.46a9.37,9.37,0,0,0-.92.19l-.23,0C2.88,123.43,6.67,122.72,9.19,122.47Z" transform="translate(0)"/><path d="M3.39,125.91a2.55,2.55,0,0,0-.24.93c0,.58-.87.52-1,0v0c0-.17,0-.35,0-.51l0-.17.23,0A9.37,9.37,0,0,1,3.39,125.91Z" transform="translate(0)"/><path d="M2.24,126.14l0,.17a.91.91,0,0,1,0-.17Z" transform="translate(0)"/><path d="M2.16,126.71c0-.14,0-.27,0-.4,0,.16,0,.34,0,.51A.37.37,0,0,1,2.16,126.71Z" transform="translate(0)"/><path class="cls-5" d="M119.62,235.24c-.56.92-1.09,1.87-1.64,2.8l-2,3.44c-.68,1.14-1.35,2.29-2,3.44s-1.34,2.29-2,3.43c-.33.58-.67,1.15-1,1.72l-.48.82c-.17.26-.3.55-.47.81-.35.55-.67,1.14-1,1.7l-1,1.72c-.66,1.14-1.33,2.28-2,3.42l-.52.88,1,.27,22.61,6.2" transform="translate(0)"/><path class="cls-5" d="M121.85,231.43h0c-.53.91-1.06,1.82-1.6,2.73-.17.29-.33.58-.51.87" transform="translate(0)"/><path class="cls-5" d="M128.41,229.73l-3.16-2.11-.83-.56-.51.87c-.51.87-1,1.73-1.53,2.6-.09.16-.19.32-.28.49" transform="translate(0)"/><path class="cls-5" d="M155.7,249.16l5.52,3.69a140,140,0,0,1,3.39,21.77L130,265.13l-1-.27L107,258.81l3.72-6.35.48-.81,11.46-19.52.1-.18.42-.72,1.62-2.75,4,2.7" transform="translate(0)"/><path class="cls-5" d="M130,266.17l34.65,9.5,1,.28c0-.35-.05-.7-.08-1.05a141.8,141.8,0,0,0-3.18-21.23c-.11-.48-.23-.95-.35-1.43l-1.22-.82-4.17-2.78" transform="translate(0)"/><path class="cls-5" d="M224.1,247.68c0-.34.05-.68.07-1a1.23,1.23,0,0,0,0-.2" transform="translate(0)"/><path class="cls-5" d="M225.23,245.94c0,.17,0,.33,0,.49,0,.34-.05.68-.08,1" transform="translate(0)"/><path class="cls-5" d="M129.21,137.7c.26.24.52.46.78.67" transform="translate(0)"/><path class="cls-5" d="M253.56,140.44c.36-.17.72-.35,1.07-.56" transform="translate(0)"/><path class="cls-5" d="M232.43,152.15a13.24,13.24,0,0,0,4.11-7.63,52,52,0,0,0,8.91-1.18,37.78,37.78,0,0,0,8.11-2.9" transform="translate(0)"/><path class="cls-5" d="M211.14,162.31c6.57-1.67,14.87-4.56,20.19-9.14" transform="translate(0)"/><path class="cls-5" d="M130,138.37a33.4,33.4,0,0,0,20.2,7.65,15.36,15.36,0,0,0,1.21,3.8,18.14,18.14,0,0,0,3.9,5.31,10.17,10.17,0,0,0-1.84.23c-6.89,1.43-14.12,9.6-12.14,21.33.15.93,1.15.75,1-.2-1.94-11.47,5.44-18.76,12.07-19.77a8.18,8.18,0,0,1,2.8,0,27.36,27.36,0,0,0,4.88,3,31.36,31.36,0,0,1,2.53,3.14c2.45,3.39,4.7,6.92,5.71,11.81.19.93,1.12.36.93-.57-1.15-5.5-3.84-9.5-6.62-13.26,13.62,5.47,30.78,5.18,44.91,1.85l.17,0" transform="translate(0)"/><path class="cls-5" d="M127.46,136c.55.59,1.14,1.15,1.75,1.69" transform="translate(0)"/><path class="cls-5" d="M253.52,139.26c-.36.19-.73.38-1.11.55-.85.4-1.72.77-2.61,1.1a39.3,39.3,0,0,1-12,2.43l-1.21.06a13.31,13.31,0,0,0-.39-3.53.51.51,0,0,0-.09-.18,5.23,5.23,0,0,0-1.76-3,9.53,9.53,0,0,0-3.11-2.32,12.54,12.54,0,0,0-1.54-.7l0-.08a5.38,5.38,0,0,0-5.75,4.85c-.4,5,5.36,6.19,11.21,6.12a13,13,0,0,1-4,7c-.38.37-.78.73-1.19,1.08a36.08,36.08,0,0,1-10,5.68,78.78,78.78,0,0,1-8.41,2.77c-.52.14-1,.28-1.55.4a84.32,84.32,0,0,1-16.32,2.37c-9,.42-18.69-.44-27.18-3.37a30.8,30.8,0,0,1-3.5-1.45,28.19,28.19,0,0,1-5.94-3.77c-3-2.51-5.27-5.65-5.86-9.23a28.35,28.35,0,0,0,3.32-.24c4-.55,9.08-3.41,7.31-7.65-1.39-3.31-6.4-3.31-9-1.23s-3.22,5.06-2.93,8.05c-1.17-.07-2.29-.19-3.28-.33A32.05,32.05,0,0,1,131,137.72a9.85,9.85,0,0,1-.78-.67l-.08-.07c-.6-.53-1.18-1.09-1.73-1.67" transform="translate(0)"/><path class="cls-5" d="M151.35,142c.43-2.36,2-4.94,4.84-5.47,4-.76,6,3.05,3.68,5.72-1.88,2.19-5.35,2.74-8.66,2.69A11.74,11.74,0,0,1,151.35,142Z" transform="translate(0)"/><path class="cls-5" d="M235.38,143.43c-4.16,0-9.73-.48-10.13-4.34a4,4,0,0,1,3.59-4.33,3.23,3.23,0,0,1,.44,0,6.81,6.81,0,0,1,1.68.57,12.51,12.51,0,0,1,1.77,1.2l.39.33a7,7,0,0,1,2,3.2.25.25,0,0,1,0,.07A11.2,11.2,0,0,1,235.38,143.43Z" transform="translate(0)"/><path class="cls-5" d="M348.85,189.26a27.21,27.21,0,0,1,10.67,9.49c1.62,2.52,3.13,6.41.36,8.78-2.14,1.83-5.21,1.74-7.82,1.33-1.42-.22-2.83-.47-4.26-.61a7.66,7.66,0,0,0-2.94-.07,17.35,17.35,0,0,0-2.32.9l-.94.43a.52.52,0,0,0-.27.32c-.09.36.21.8.63.62h0A29.88,29.88,0,0,1,345.6,209a43.47,43.47,0,0,1,6.77.9c3.31.47,7.66.13,9.41-3.22s-.52-7.43-2.61-10.17a28.82,28.82,0,0,0-10.09-8.28l-.22-.11-.22-.1c0,.35-.07.7-.11,1.05l.32.16" transform="translate(0)"/><path class="cls-5" d="M206.88,189.41a3.44,3.44,0,0,1-3.51,1.48" transform="translate(0)"/><path class="cls-5" d="M111.12,385.13c-1.26.89-2.5,1.82-3.72,2.76a.5.5,0,0,1-.6-.8l1.41-1.07c1.13-.86,2.28-1.69,3.44-2.5.42-.31.85-.6,1.27-.9" transform="translate(0)"/><path class="cls-5" d="M130,266.17q.27,9.9,0,19.79a330.42,330.42,0,0,1-6.21,53.75c-3.14,15.75-7,31.92-16.12,45.39a.73.73,0,0,1-.08.09c-.38.36-1-.22-.71-.71,5.18-7.63,8.63-16.18,11.2-25,4.78-16.4,7.59-33.54,9.35-50.51A331.56,331.56,0,0,0,129,265.89Z" transform="translate(0)"/><path class="cls-5" d="M171.77,418A168.48,168.48,0,0,0,151,424.68a.5.5,0,0,1-.37-.92A168.17,168.17,0,0,1,172,417" transform="translate(0)"/><path class="cls-5" d="M279.37,443c2.83-19.47,4.3-39.19,2-58.78a.45.45,0,0,0,0-.26c-.22-1.75-.53-3.46-.92-5.17a.5.5,0,0,0,.74-.49q-1-19.53-3.27-39A75.71,75.71,0,0,0,292.1,349c12.11,6.34,25.67,8.52,39.15,9.67,25.94,2.21,52.64,2.33,78-4,2.29-.57,4.56-1.19,6.82-1.88" transform="translate(0)"/><path class="cls-5" d="M210.05,464.11l-.15,4.67c0,.59-.05,1.19-.08,1.8l-.06,1.2h0c-.39,6.81-1.09,14.29,1.43,20.59,2.35,5.91,7.76,9.12,13.87,10,6.61.95,13.42-.25,19.91-1.53s13.26-3,18.76-6.89a21,21,0,0,0,6.66-7.74c.19-.36.37-.72.53-1.09a40.44,40.44,0,0,0,2.81-9.29c1.81-9.43,3.49-18.89,5-28.37l.51-3.33" transform="translate(0)"/><path class="cls-5" d="M173.16,468.34c.17-6.48.14-13-.1-19.46-.29-7.55-1.17-15.11-1-22.67a50.56,50.56,0,0,1,.89-8.47,162.46,162.46,0,0,1,17.27-3.19c6.55-.85,14.26-1.95,21.45-1.21q-.81,24.87-1.59,49.75" transform="translate(0)"/><path class="cls-5" d="M99.7,472.92c.14,1.35.3,2.69.48,4,.52,3.86,1.16,7.76,2,11.66h0c.08.4.17.78.25,1.18A103.78,103.78,0,0,0,109.26,511a11.29,11.29,0,0,0,10.18,7.13A76.43,76.43,0,0,0,136.52,517a103.82,103.82,0,0,0,17.69-4.34c4.53-1.55,10.36-3.15,13.74-6.8,3.62-3.92,3.37-10.52,3.86-15.49.27-2.76.51-5.52.7-8.28,0-.34.05-.68.07-1q.38-5.43.54-10.87c0-.29,0-.57,0-.86" transform="translate(0)"/><path class="cls-5" d="M160.75,247A133.23,133.23,0,0,0,188,251a42.55,42.55,0,0,0-11.72,3.95c-.3.15-.6.3-.9.47q.12.5.27,1a41.77,41.77,0,0,0,5.9,12.52c.8,1.16,1.78,2.52,2.89,3.87a268.24,268.24,0,0,1-9.77,47.86c-2.2,7.27-5.16,14.94-3.07,22.6,1.49,5.48,5.09,10,9.21,13.89A156.83,156.83,0,0,0,142,367.08a147.3,147.3,0,0,0-29.06,15.54c-.18.53-.35,1.06-.53,1.6A152.67,152.67,0,0,1,181.77,358c.7.63,1.41,1.23,2.13,1.82,6.91,5.68,14.8,10.28,19.94,17.81a.5.5,0,0,0,.79,0c4.62-6.44,9-13.08,13-19.93a153.68,153.68,0,0,1,26,5,145.07,145.07,0,0,1,35.71,15.43,50,50,0,0,1,1,5.27.59.59,0,0,0,0,.19c2.18,17.81,1.22,35.78-1.11,53.53-.28,2.12-.58,4.25-.89,6.37-.05.37-.11.72-.16,1.09h0c-.94,6.28-2,12.54-3.14,18.78-.73,4.12-1.47,8.24-2.26,12.35a38.8,38.8,0,0,1-2.84,9.59,79.82,79.82,0,0,1-59.09-14h0c0-.14,0-.27,0-.4l.22-7,0-1,1.58-49.46A25.51,25.51,0,0,1,226,418.77c.49.41,1.11-.38.62-.79a26.42,26.42,0,0,0-14-5.5l-1-.1c-6.62-.64-13.62.22-19.75.94a163.18,163.18,0,0,0-18.77,3.35L172,417c-.07.36-.14.72-.2,1.08-1.71,9.82-.15,20.13.26,30q.42,10.2.14,20.43,0,.51,0,1-.15,5.65-.53,11.31a90.4,90.4,0,0,0-39.9-3.13,89.46,89.46,0,0,0-21,5.75,26.5,26.5,0,0,0-7.64,4.31c-.4-1.84-.75-3.69-1.07-5.55-.53-3.07-1-6.15-1.28-9.24,0-.33-.08-.67-.11-1-2-20.14-.14-40.6,4.23-60.34,2.05-9.26,4.62-18.37,7.57-27.36l-1.27.91c-9.08,28.11-14.55,57.19-11.53,86.8" transform="translate(0)"/><path class="cls-5" d="M264.72,229.65c-.61-2.6-1.18-5.22-1.72-7.84-.08-.37-.15-.74-.22-1.11-.29.24-.59.48-.88.7q-6.49,5.08-13.33,9.68a224.88,224.88,0,0,1-23.25,13.7l-1,.54c-1.6.8-3.22,1.59-4.84,2.36h0a134.06,134.06,0,0,1-59-1.74" transform="translate(0)"/><path class="cls-5" d="M417.75,352.28a120.94,120.94,0,0,0,26.13-11.67c5.05-3.05,10.57-6.42,13.83-11.48,3.54-5.49,3.69-12.42,4.14-18.73a378.1,378.1,0,0,0,.09-51.49c-.89-13.41-1.88-28.4-11.32-38.9a.51.51,0,0,0-.86.11,78,78,0,0,1-56.7,48.17c-13.94,3-28.58,3.31-42.78,2.53a176.86,176.86,0,0,1-29.07-3.95,39.9,39.9,0,0,1-7.85-4.61,35.76,35.76,0,0,1-6.94-5.92l-.1-.12c-.41-.5-1.21.1-.81.6a1.42,1.42,0,0,0,.12.13,36.69,36.69,0,0,0,7.11,6.09,41.48,41.48,0,0,0,7.69,4.57l-.08.07.45.1.12.05a.48.48,0,0,0,.26,0A173.79,173.79,0,0,0,346,271.54c27.56,2.1,57.67.27,80.11-17.58a78.65,78.65,0,0,0,24.23-32.68c7.94,9.33,9.39,22,10.29,33.81a376.86,376.86,0,0,1,.8,44.33c-.29,7-.4,14.22-1.65,21.12-1.32,7.37-5.65,12-11.66,16.14a116.23,116.23,0,0,1-29.36,14.23l-1.62.52h0l-2.19.67c-24.18,7.14-49.89,7.8-74.89,6.23-13.74-.87-27.84-2-40.76-7.11a74,74,0,0,1-21.53-13.29c-.38-.32-.74-.65-1.11-1h0c-1.41-1.29-2.77-2.61-4.1-4-16.68-17.37-26.24-40.67-31.69-63.85l21.7-8.51.94-.37,7.28-2.86h0l.5-.19h0l.1,0,.94-.37c-.08-.22-.15-.45-.23-.68a2.76,2.76,0,0,1-.08-.27c-.09-.27-.18-.53-.26-.8q-3.17-9.69-5.66-19.58c-.4-1.56-.78-3.12-1.15-4.68" transform="translate(0)"/><path class="cls-5" d="M171.1,487.32c-.26,2.95-.57,5.89-.91,8.83-.41,3.47-.8,7.06-3.51,9.57-2,1.86-4.68,2.9-7.2,3.93-2.86,1.17-5.78,2.21-8.74,3.11a102.65,102.65,0,0,1-18,3.78c-3.07.36-6.17.59-9.26.67-2.93.07-6.19.14-8.86-1.28s-4.06-4.35-5.17-7.1-2.13-5.62-3-8.48q-1.81-5.73-3.1-11.6c3.06-3.19,8.81-4.92,12.25-6.12a89.37,89.37,0,0,1,56-.83C171.41,483.64,171.26,485.48,171.1,487.32Z" transform="translate(0)"/><path class="cls-5" d="M268.42,487.88c-3.86,5.68-10.48,8.64-16.89,10.42a89.37,89.37,0,0,1-19.8,3.36c-6.69.29-14.38-.93-18.28-7-4-6.33-3-14.83-2.7-22.11a80.87,80.87,0,0,0,58.58,13.89C269.05,486.91,268.75,487.39,268.42,487.88Z" transform="translate(0)"/><path class="cls-5" d="M182.12,268a40.42,40.42,0,0,1-5.58-12.07,42.8,42.8,0,0,1,34.24-2,92.09,92.09,0,0,1-5.43,11.28c-1.45,2.52-3,5-4.71,7.35-.49.7-1,1.53-1.64,2.35-.23.31-.46.62-.72.91-1.27,1.51-2.8,2.72-4.75,2.43-2.54-.38-4.71-2.56-6.46-4.29-.54-.54-1.07-1.09-1.57-1.66h0c-.32-.33-.61-.67-.9-1A39.4,39.4,0,0,1,182.12,268Z" transform="translate(0)"/><path class="cls-5" d="M217.07,356.71c-.17.31-.35.61-.53.91-3.8,6.48-7.95,12.76-12.31,18.87-5.48-7.66-14.16-12.45-21.24-18.61l-1-.89a33,33,0,0,1-8.29-10.87c-3.9-8.66-.37-17.51,2.16-26q3.57-11.92,6-24.16c1.46-7.32,2.62-14.71,3.47-22.12,2.31,2.62,5.1,5,8.07,5.39a5.53,5.53,0,0,0,5-2.06c.11-.12.22-.23.31-.35q9.48,24.07,19,48.16c1.78,4.55,4.14,9.25,5,14.09.87,5.11-1,9.6-3.47,14C218.46,354.29,217.77,355.5,217.07,356.71Z" transform="translate(0)"/><path class="cls-5" d="M224.1,247.68Q223,261.57,222,275.45c0,.37-.06.74-.08,1.11l1-.41,17-6.68c5,21.28,13.45,42.42,27.57,59.31a88.7,88.7,0,0,0,9.35,9.64q.7,6,1.3,12.11,1.3,13.47,2,27a150.83,150.83,0,0,0-62-20.68c.64-1.12,1.28-2.24,1.9-3.37,2-3.65,3.88-7.56,3.81-11.83-.08-4.66-2.17-9.07-3.85-13.33q-10.31-26.16-20.6-52.33a65.9,65.9,0,0,0,5-7.21,92.69,92.69,0,0,0,7.33-14.47c.13-.3.25-.6.36-.91l-.93-.36a44,44,0,0,0-8.36-2.2A132.44,132.44,0,0,0,216,249.29c1.27-.2,2.54-.43,3.8-.68h0c1.23-.58,2.45-1.17,3.67-1.79h0q.36-.16.72-.36l1-.52a225.77,225.77,0,0,0,36.89-23.44c.56,2.65,1.14,5.3,1.77,7.93.07.36.16.72.25,1.08q2.94,12.38,6.91,24.48l.06.18-.28.11-7.56,3-.93.36-21.69,8.51-.94.37L223,275q1.06-13.79,2.12-27.59Z" transform="translate(0)"/><path class="cls-5" d="M210.08,463.09l0,1c-2.17.41-4.35.79-6.54,1.16l-1.23.2q-14.5,2.4-29.14,3.89c0-.34,0-.67,0-1h0q14.49-1.48,28.88-3.84l.53-.09h0C205.09,464,207.58,463.55,210.08,463.09Z" transform="translate(0)"/><path class="cls-5" d="M417.75,352.28a165.68,165.68,0,0,1-17,19C378,393.08,350.28,409.1,322.6,423.81a452.16,452.16,0,0,1-43.39,20.33c.05-.37.1-.74.16-1.1a490,490,0,0,0,51.08-24.6c27.31-15,54.48-31.51,76-54.36q5.08-5.4,9.66-11.29C416.66,352.63,417.2,352.46,417.75,352.28Z" transform="translate(0)"/><path class="cls-5" d="M326.53,67.57l1.82-.44c.42-.11.86-.13,1.27-.28s.87-.26,1.32-.38l3-.77c-1.14,0-2.29,0-3.44,0" transform="translate(0)"/><path class="cls-5" d="M331.07,64.74c1.31,0,2.63,0,3.93,0l1,0c0,.11.07.22.1.33s.15.45.22.68a.14.14,0,0,1,0,.07,372,372,0,0,1,10.42,40.26c4.31,21.67,7,44,4.86,65.92,0,.35-.07.7-.11,1.05a138.24,138.24,0,0,1-2.45,15.16c-.07.34-.15.66-.23,1h0c-.22,1-.45,1.91-.69,2.87-.07.31-.15.61-.24.91-.41,1.61-.86,3.2-1.34,4.8a118.93,118.93,0,0,1-4,11.24c-.19.46-.38.91-.58,1.37a116.52,116.52,0,0,1-24.78,36.41c-.27.28-.55.55-.83.82a117.31,117.31,0,0,1-9.93,8.66c-.26.22-.53.42-.79.61q-3.94,3-8.24,5.8c-.49.31-1.09-.3-.6-.62a119,119,0,0,0,18.54-14.69c.28-.26.56-.53.83-.81a113.6,113.6,0,0,0,25-36.87,120.89,120.89,0,0,0,5.64-16.58c.08-.32.17-.64.24-1a136.68,136.68,0,0,0,3.45-19.59c0-.34.07-.69.1-1a170.76,170.76,0,0,0,.47-25.88c-1.47-26.76-7.24-53.55-15.63-79.6q-4.53,1.22-9.11,2.31" transform="translate(0)"/><path class="cls-5" d="M326.9,65q1.52-.1,3.06-.18l1.11,0c-.18.34-.36.67-.56,1l-1.12.06h0c-.87,0-1.73.1-2.58.17" transform="translate(0)"/><path class="cls-5" d="M160.08,245.86l.26-.32h0c3.07-3.78,4-9.06,3.8-13.89a35.12,35.12,0,0,0-4.1-15.35,20.18,20.18,0,0,0,7.66-4.09c2.85,4.1,7.43,7.32,12.4,7.84a22.5,22.5,0,0,0,1.84,9.14,16,16,0,0,0,.77,1.48s0,0,0,0c.17.29.35.58.54.86a12.7,12.7,0,0,0,10.88,6.05c5.59-.14,8.49-4.42,10.48-9.05.13-.3.26-.61.38-.91.22-.53.42-1.06.62-1.59a45.73,45.73,0,0,0,2.33-8.86,10.2,10.2,0,0,0,3.94-2.57c1.3-1.39,1.32-2.77,3.46-1.72a18.91,18.91,0,0,0,6.15,1.81,21.79,21.79,0,0,0,4,11.45,14.61,14.61,0,0,0,17.33,4.8,18,18,0,0,0,4.13-2.3c8.06-6,11.43-18.68,6.49-27.2h0c-.1-.72-.22-1.41-.35-2.06a24.05,24.05,0,0,0-10.3-15.22,23.09,23.09,0,0,0-18-3.19c-4.69,1.08-10.14,3.84-13.1,8a9.23,9.23,0,0,0-4.32-.63,3.44,3.44,0,0,0-.38-2.63c-1.91-3.33-6.39-3.53-10.35-3.26l-.88.07c-1.25.1-2.43.24-3.42.31-2.28.17-4.56.39-6.84.64l-.8.09q-1.59.18-3.18.39c-2.18.29-5,.34-6.74,1.91a4.29,4.29,0,0,0-1.09,1.62,28.54,28.54,0,0,0-12.87-1.72,27,27,0,0,0-5.2,1c-2.07.62-3.86,1.85-6,1.58-3.8-.48-7.33-1.19-11.18-.6-15.8,2.42-18.83,21.74-11,33.34a32.34,32.34,0,0,0,1,8.61c0,.19.09.39.14.58s.15.58.24.87a37.94,37.94,0,0,0,2.31,6.22h0c.28.6.58,1.18.9,1.76a22.69,22.69,0,0,0,8.15,8.74c4.6,2.7,10.65,3.54,15.54,1.25a10.72,10.72,0,0,0,1-.52c.33-.19.65-.39,1-.61a12.24,12.24,0,0,0,1.77-1.49" transform="translate(0)"/><path class="cls-5" d="M176.18,189.71c-.64.08-1.05-.12-1.22-.6" transform="translate(0)"/><path class="cls-5" d="M174.86,188A6.63,6.63,0,0,1,175,187l1.56-1.12a9.75,9.75,0,0,1,2.7-.62c1.82-.28,3.66-.52,5.49-.73l.84-.08c1.33-.15,2.67-.28,4-.4,2-.18,4.12-.42,6.19-.53l.86-.05c1.15-.05,2.3-.06,3.43,0a8.83,8.83,0,0,1,4.72,1.37c1.09.79,2.12,2.24,1.5,3.63h0a8.89,8.89,0,0,0-3.13,1.28h0a4.1,4.1,0,0,0-.5.35,3.29,3.29,0,0,0-.42.34l0,0a.5.5,0,0,1-.25-.35c-2-.09-4-.16-6-.22l-.67,0c-2.94-.09-5.88-.14-8.82-.17h-.87c-1.61,0-3.21,0-4.82,0a.38.38,0,0,0-.22.06h0c-.67,0-1.38.11-2.09.14h0" transform="translate(0)"/><path class="cls-5" d="M195.08,190.86c-.55,2.08-1.44,3.77-2.68,4.52-3.05,1.82-4.7-1-5.67-4.68C189.51,190.72,192.3,190.78,195.08,190.86Z" transform="translate(0)"/><path class="cls-5" d="M194.68,236.55c-4.59.4-8.38-2.17-10.73-5.8,2.81-2.86,7-3.9,11-4.21.35,0,.71,0,1.06-.06a5.65,5.65,0,0,0-3.6,5.47c0,.65,1,.51,1-.12a4.62,4.62,0,0,1,4.71-4.73.41.41,0,0,0,.41-.53,14.73,14.73,0,0,1,5.25,1.51C202.06,232.24,199.43,236.15,194.68,236.55Z" transform="translate(0)"/><path class="cls-5" d="M205.4,223.59c-.36,1.14-.76,2.36-1.24,3.57a17.36,17.36,0,0,0-9.31-1.62c-4.2.34-8.46,1.47-11.41,4.34a16,16,0,0,1-1.14-2.49,22.16,22.16,0,0,1-1.22-7.28,12.72,12.72,0,0,0,3.56-.36,13,13,0,0,0,9-8.33,12.6,12.6,0,0,0,9.14,6.37,11.28,11.28,0,0,0,4.09-.28A44.51,44.51,0,0,1,205.4,223.59Z" transform="translate(0)"/><path class="cls-5" d="M158.46,215.64a19.27,19.27,0,0,1-21.2-10.23c-.29-.57-1.22-.2-.93.38a20.37,20.37,0,0,0,22.74,10.75,33.67,33.67,0,0,1,4.09,17.23,19,19,0,0,1-3.23,10.4h0a12.92,12.92,0,0,1-4.21,3.79,11.09,11.09,0,0,1-1,.5,12.94,12.94,0,0,1-4.63,1c-7,.28-12.54-3.77-16.18-9.24-.39-.58-.75-1.18-1.1-1.79-.48-.86-.92-1.75-1.31-2.65-.52-1.19-1-2.46-1.44-3.79-.16-.49-.32-1-.46-1.51a31.13,31.13,0,0,1-1.28-8.12c0-.55,0-1.08,0-1.62h0a15.37,15.37,0,0,1,3.35-9.11c.42-.5-.37-1.12-.78-.62a15.46,15.46,0,0,0-3.41,8.45A23.08,23.08,0,0,1,125,200.79c2.5-8,9.26-12.42,17.54-12.28a32.52,32.52,0,0,1,4.61.43c1.14.18,2.87.92,4,.75,1.3-.19,2.8-1.32,4.08-1.74a26.23,26.23,0,0,1,5.67-1.18,27.34,27.34,0,0,1,12.53,1.71,2,2,0,0,0,.62,1.66c.84.79,2.54.87,4.2.78.56,0,1.11-.07,1.62-.12.67-.06,1.27-.12,1.71-.12h.06c1.39,0,2.79,0,4.18,0,1,4.1,2.83,7.51,6.31,6.09,2.05-.84,3-3.21,3.61-5.9,1.94.06,3.89.13,5.83.21a9.54,9.54,0,0,0-2.15,3.44c-.22.6.7,1,.92.39a8.62,8.62,0,0,1,3-4,8.26,8.26,0,0,1,3.51-1.48h0a8.12,8.12,0,0,1,4.24.42,6.93,6.93,0,0,1,.93.41,8.57,8.57,0,0,1,2.32,1.78c.44.47,1.24-.13.8-.6a9.82,9.82,0,0,0-2.58-2c2.89-4,8.16-6.59,12.68-7.56a22.17,22.17,0,0,1,16.9,3.07,23.21,23.21,0,0,1,9.61,13.22c.11.43.21.87.3,1.31a15.65,15.65,0,0,0-4.08-3.54c-.54-.33-1.17.45-.62.78a14.85,14.85,0,0,1,6.37,7.83c3.21,9-1.6,21.1-10.56,25.18a13.69,13.69,0,0,1-17.3-4.74,20.84,20.84,0,0,1-3.38-10.19c0-.34,0-.67,0-1a14,14,0,0,1,1.49-6.6c.3-.57-.63-1-.92-.39a14.88,14.88,0,0,0-1.58,6.89,18.18,18.18,0,0,1-3.08-.66c-1.31-.4-2.46-1.2-3.73-1.63s-1.62,0-2.36,1a10.46,10.46,0,0,1-4.18,3.64,8.16,8.16,0,0,1-1.05.4,10.88,10.88,0,0,1-1.22.3c-5.15.91-9.56-2.34-11.82-6.69a10.82,10.82,0,0,0-.05-4.46c-.15-.62-1.14-.5-1,.13a9.52,9.52,0,0,1,.23,2.48h0a9.15,9.15,0,0,1-.26,1.95h0a11.78,11.78,0,0,1-9.21,8.78,12.5,12.5,0,0,1-2.65.19c-.33,0-.65,0-1-.07-4.86-.54-9.25-3.81-11.9-7.87a.51.51,0,0,0-.7-.1,19.53,19.53,0,0,1-7.95,4.31" transform="translate(0)"/><path class="cls-5" d="M178.47,189.87a7.5,7.5,0,0,1-2.17-.17h-.12c-.4-.21-.81-.41-1.22-.6h0a2.45,2.45,0,0,1-.09-1.13A25.32,25.32,0,0,1,178.47,189.87Z" transform="translate(0)"/><circle class="cls-5" cx="155.17" cy="177.61" r="5.5"/><circle class="cls-5" cx="224.17" cy="174.61" r="5.5"/><path class="cls-5" d="M211.14,162.31a17.94,17.94,0,0,0-.93,10.87c.22.93-.71,1.51-.93.58a19.69,19.69,0,0,1,.41-11.09Z" transform="translate(0)"/><path class="cls-5" d="M232.43,152.15a17.83,17.83,0,0,1,3.51,2.64c4.37,4.19,6.81,11,9.1,17.88.3.88-.63,1.45-.92.58-2.05-6.16-4.19-12.35-8-16.4a17,17,0,0,0-4.83-3.68C231.71,152.84,232.08,152.5,232.43,152.15Z" transform="translate(0)"/><path class="cls-5" d="M130,138.37a59.65,59.65,0,0,0-14.89,14.42c-10.26,14.14-14.18,32.26-9.66,49.24a61.36,61.36,0,0,0,16.94,28.5l-.29.49-.24.41-.14-.13a60.56,60.56,0,0,1-7.32-8.34c-10.54-14.45-14.54-33-9.86-50.37a62.11,62.11,0,0,1,24.68-34.89c.19-.14.39-.27.59-.4a1.49,1.49,0,0,0,.61.79Z" transform="translate(0)"/><path class="cls-5" d="M254.63,139.88A57.67,57.67,0,0,1,268.33,151c11.6,12.71,17.27,30.18,14.28,47.22a58.6,58.6,0,0,1-9,22.33l-.51.75a58.53,58.53,0,0,1-8.15,9.49c-.09-.36-.18-.72-.26-1.09a56.88,56.88,0,0,0,9.15-11.33c9-14.55,11.17-32.6,4.95-48.63a57.88,57.88,0,0,0-25.26-29.25l-.08,0a3.56,3.56,0,0,0,1-.63" transform="translate(0)"/><path class="cls-5" d="M160.75,247l-1-.24a.52.52,0,0,1-.15-.06.42.42,0,0,1-.19-.18l.11-.11.53-.57.17,0,.2.05C160.55,246.3,160.66,246.66,160.75,247Z" transform="translate(0)"/><path class="cls-5" d="M3.39,125.91a9.37,9.37,0,0,0-.92.19l-.23,0h0a.91.91,0,0,0,0,.17c0,.16,0,.34,0,.51" transform="translate(0)"/><path class="cls-5" d="M9.19,122.47l.45,1" transform="translate(0)"/><path class="cls-5" d="M2.17,126.86a.68.68,0,0,0,0,.14.29.29,0,0,0,0,.16.37.37,0,0,0,0,.11.11.11,0,0,0,0,0,.3.3,0,0,0,0,.1,229.39,229.39,0,0,0,14.61,63.45q3.58,9.33,8,18.45a8.72,8.72,0,0,0-2.11,7.22c.65,3.17,3.48,5.27,6.43,6.15a16.22,16.22,0,0,0,2.91.55,162.19,162.19,0,0,0,15.84,24.08,74.27,74.27,0,0,0,19.47,17.11q13.5,31.4,24.73,63.68,1.35,19.39,1.54,38.84c.17,17.48-.47,35.1-4.73,52.13A155.46,155.46,0,0,1,70.52,462q-3,4.92-6.3,9.63c-.22.33-.44.65-.68,1l1.21,0c11.65.21,23.3.33,35,.26,0-.33-.08-.66-.11-1-11.38.06-22.77-.05-34.16-.25a163.76,163.76,0,0,0,22.61-46c4.94-16.42,6.39-33.47,6.53-50.55.11-14.45-.36-28.93-1.3-43.37-.07-1.26-.15-2.51-.24-3.77-.43-1.22-.85-2.44-1.29-3.66q-10.51-29.88-23-59L68.21,264c-.5-.28-1-.58-1.47-.89h0c-16.11-10-25.59-25.54-33.6-39.84,3.57.16,7.26-.49,10.79-.3A42.94,42.94,0,0,1,59,226.67c4.85,2.16,8.92,6,14,7.74,4.45,1.49,8.77.11,13.06-1.19a25.68,25.68,0,0,1,7.14-1.4c.41,0,.83,0,1.25,0s.75.08,1.13.14a34.1,34.1,0,0,1,8,2.94c4.35,1.95,9.1,3.63,13.74,1.67,0,0,0,0,.06,0l.06,0a14,14,0,0,0,2.15-1.3l.12-.2a.39.39,0,0,0,.28-.12,15.5,15.5,0,0,0,2.52-3.07.55.55,0,0,0-.44-.83h0a.38.38,0,0,0-.33.21l-.05.07a14.7,14.7,0,0,1-2.22,2.75l-.06,0a9.36,9.36,0,0,1-2.34,1.53s0,0-.07,0h0c-5,2.11-10-.35-14.58-2.39a24.05,24.05,0,0,0-8.68-2.44c-.4,0-.81,0-1.22,0s-1,.06-1.48.13c-4.22.6-8.13,2.65-12.38,3.06-5.24.51-9.2-2.47-13.39-5.13A44,44,0,0,0,41.73,222c-2.93,0-6.13.51-9.18.31a11.11,11.11,0,0,1-1.16-.1,10.78,10.78,0,0,1-4.9-1.78c-3.81-2.64-3.45-6.8-1.22-10,.21-.29.43-.58.67-.85h0a11.4,11.4,0,0,1,2.23-2c6.34-4.28,14.43-5.12,20.63-9.81a17.08,17.08,0,0,0,5.88-7.68c1.45-3.91,1.51-8.42,4-11.92,3.56-5.09,10.41-5.74,16-7.71q.5-.16,1-.36l.79-.32a13.27,13.27,0,0,0,6.2-5c1.74-2.8,2-6.18,2.71-9.34,1.1-5.24,3.87-8.6,9.35-9.24,3.9-.46,7.86.12,11.74-.57a12,12,0,0,0,8.32-5.59c2-3.12,4.78-9,9-9.18a23,23,0,0,0,2,3.13,25.81,25.81,0,0,0,1.76,2c.29-.24.59-.47.9-.7-.52-.53-1-1.09-1.46-1.66a22.29,22.29,0,0,1-1.83-2.68,12.45,12.45,0,0,1-.65-1.18,23.55,23.55,0,0,1-1.85-16.48,25,25,0,0,1,5-9.94,21.56,21.56,0,0,1,6-5.11,6.41,6.41,0,0,0,2.09,5.22c2.47,2.12,7.33,1.92,7.72-1.69s-3.55-6-7.29-5.45a10,10,0,0,0-1.11.25,25.22,25.22,0,0,1,3.12-8.83A34.37,34.37,0,0,1,154.84,73a39.58,39.58,0,0,1,24.62-1.65c.8.2,1.59.43,2.36.68-.68,2.4-.16,5,2.45,6.42,2.82,1.48,6.85.9,8.14-1.94a.51.51,0,0,0-.18-.63,38.85,38.85,0,0,0-9-4.46c3-7.36,17.3-6.48,24.26-6.12,8.78.46,17.81,2.36,25.05,7,6.68,4.26,11.89,10.83,12.92,18.18a20.21,20.21,0,0,1,.19,2.28,17.19,17.19,0,0,0-4.73.54c-3.14.83-5.73,3.35-4.93,6.42.74,2.8,4.17,3.61,6.69,2.07A9.07,9.07,0,0,0,247,94a25.52,25.52,0,0,1,17.83,10.29,21.25,21.25,0,0,1,2.79,18.93c-.11.34-.22.69-.35,1s-.32.85-.5,1.27a27,27,0,0,1-9.09,11.14,31.16,31.16,0,0,1-4.19,2.58c.3.16.61.33.91.51l.2.11a32.05,32.05,0,0,0,4-2.47,28.25,28.25,0,0,0,9-10.71c.24-.5.45-1,.65-1.53a33.94,33.94,0,0,1,3.63,5.18,12.36,12.36,0,0,0,7.8,6.1c4,1,8.76.64,12.25,3.17a8.53,8.53,0,0,1,2,2.13" transform="translate(0)"/><path class="cls-5" d="M9.64,123.45l.1.22a.47.47,0,0,0,.41.28l.65,1.28-3.18.38a1.35,1.35,0,0,1-.55.11,23.82,23.82,0,0,0-3.68.19" transform="translate(0)"/><path class="cls-5" d="M293.81,140a6.14,6.14,0,0,0-.51-.51c-3.3-3-8-2.89-12.18-3.72a11.28,11.28,0,0,1-7.47-4.47c-1.48-2.08-2.46-4.53-4.17-6.45a9.41,9.41,0,0,0-.84-.83,22.31,22.31,0,0,0-3.53-21.27c-3.89-4.87-10.92-9.3-18.06-9.93a25.5,25.5,0,0,0-4.36-12.42C237,72.08,227.25,67.2,216.74,65.27a81.75,81.75,0,0,0-19.4-1c-5.21.29-11.33,1-14.36,5.32a7.39,7.39,0,0,0-.8,1.43,41.4,41.4,0,0,0-23.63-.49c-10.91,3.09-19.78,11.15-23.36,20.76A25.21,25.21,0,0,0,133.66,97c-4.06,1.65-7.22,5.48-9.21,8.74a25.09,25.09,0,0,0-1.34,24c-5.79.73-8.74,11.09-13.16,13.56-6.57,3.67-15.3-.73-21.5,4-6.44,4.89-2.84,15-9.56,19.89a17.15,17.15,0,0,1-3.4,1.88c-.48-7-.89-14.07-1.34-21.1l-2.28-35.07a.33.33,0,0,0-.05-.15,8,8,0,0,1,.1-1.38c.07-.52.17-1,.21-1.55a9.13,9.13,0,0,1-.87.79.52.52,0,0,0-.25,0l-13.16,3.15-.07-3.12,0-1-.17-7.33.31-.2c5.47-3.54,9.61-10.19,7.6-16.86a10,10,0,0,0-3.37-5,4.33,4.33,0,0,0-.51-.39c0-.22,0-.44,0-.67-.49-7-2-14.39-7.9-18.74-6.8-5-16.27-2.81-23.9-1.49C21.61,60.42,13.15,62.62,7,68.52.52,74.79-.4,83.57.59,92.13a100.35,100.35,0,0,0,7.88,28.73c.13.31.27.62.41.93s.2.46.31.68" transform="translate(0)"/><path class="cls-5" d="M69.37,112.05a48.18,48.18,0,0,1-10.26,5l-1.09.38-.08,0-.06-2.61Z" transform="translate(0)"/><path class="cls-5" d="M61.68,81.24a9.36,9.36,0,0,1,3,5c1.24,5.51-1.83,10.94-6.13,14.18-.33.25-.68.5-1,.73s-.64.44-1,.65c-4,2.49-9.5,4.54-13.8,3.38a6.72,6.72,0,0,1-5.16-6.34c.94-.23,1.88-.5,2.8-.8a39.54,39.54,0,0,0,7.94-3.62l.84-.52A38.28,38.28,0,0,0,60.75,82.56c.3-.45.59-.91.87-1.37" transform="translate(0)"/><path class="cls-5" d="M38.42,97.56l-.78.21c-.37.1-.74.19-1.11.26-.61.15-1.22.27-1.84.37a32.25,32.25,0,0,1-17.37-1.63c-6.41-2.65-11.58-8.68-10.38-16a.5.5,0,0,0-1-.13c-2.41,14.67,15.3,20.23,26.73,19a38.49,38.49,0,0,0,3.87-.62,8,8,0,0,0,2.44,5.1c4.63,4.49,12.51,1.72,17.61-1.26l.16,6.87,0,1,.08,3.25,0,.9.06,2.76a101.86,101.86,0,0,1-15.05,3.42c-8.73,1.4-17.57,2.45-26.4,3.51l-1,.13-2.61.32c-.59-1.14-1.17-2.29-1.75-3.43a.43.43,0,0,0-.2-.2l-.08,0c-.13-.29-.26-.58-.37-.87A102.21,102.21,0,0,1,2.62,98.69C1,90.32-.29,80.52,4.62,73c4.52-7,12.66-10.3,20.46-12,4-.88,8-1.55,12-2.07s8.27-.77,12.21.52c8.55,2.81,10.61,11.72,11.25,19.84,0,.41,0,.82.08,1.23,0,.13,0,.27,0,.4A37,37,0,0,1,48.69,93c-.28.18-.56.36-.85.53a38.07,38.07,0,0,1-7.39,3.4c-.67.23-1.34.43-2,.62" transform="translate(0)"/><path class="cls-5" d="M60,175.24c-2.77,2.28-3.91,5.53-4.74,8.92-1.18,4.9-2.43,9.1-6.5,12.38-3.23,2.6-7.13,4.21-11,5.7s-8,2.65-11.19,5.24a11.25,11.25,0,0,0-1.14,1.05A237,237,0,0,1,8.74,162a224.67,224.67,0,0,1-5.6-34.68l0-.41v-.07c.71,0,1.42-.08,2.13-.17l.45-.05a.62.62,0,0,0,.24,0l5.18-.64,1.05-.12,2.12-.25h0l1-.13c9.43-1.12,18.89-2.22,28.19-3.8A102.65,102.65,0,0,0,57,118.56l.86-.27.13,0,.93-.32h0a50,50,0,0,0,11-5.21c.3-.19.6-.38.89-.58h0l.11-.07c0,.09,0,.17,0,.26a5.36,5.36,0,0,0,0,1.26l0,.06c0,.68.09,1.36.13,2,1.15,17.93,2.22,35.87,3.48,53.79C69.64,171.32,64.11,171.82,60,175.24Z" transform="translate(0)"/><path class="cls-5" d="M140.35,98.09c2.18,1.48,2.78,4.9-.43,5.76-3.56,1-5.12-3.59-5.06-5.75,0-.14,0-.29,0-.44A5.72,5.72,0,0,1,140.35,98.09Z" transform="translate(0)"/><path class="cls-5" d="M185,73.15c1,.39,1.87.83,2.77,1.3.61.31,2.74,1.15,3,1.75.79,1.77-3.17,2.08-4.34,1.85a4.35,4.35,0,0,1-3.49-5.63,0,0,0,0,1,0,0C183.62,72.63,184.31,72.87,185,73.15Z" transform="translate(0)"/><path class="cls-5" d="M242,100.9c-3.64,2-6.19-2.15-4-4.76,1.7-2,5-2.32,7.67-2.22C245.53,96.65,244.64,99.45,242,100.9Z" transform="translate(0)"/><path class="cls-5" d="M275.14,223.93q-1.25,2.1-2.58,4.15c-.18.29-.36.57-.55.85q-2,3.07-4.22,6.07c.08.27.17.53.26.8l.4-.15q2.28-3.06,4.33-6.21c.2-.28.38-.55.55-.83q1.46-2.25,2.82-4.53,2.69-4.52,5-9.15h0c.19-.38.38-.77.56-1.16a135.55,135.55,0,0,0,11.72-37.24,152.86,152.86,0,0,0,1.52-35.1q-.36-5.19-1-10.37h0c-.18-1.47-.39-2.93-.62-4.4a0,0,0,0,1,0,0q-1.15-7.35-2.91-14.63a206.85,206.85,0,0,0-11.45-33.93c-.14-.31-.27-.63-.41-.94l-.07-.16.34,0,2.07-.25q4.6-.57,9.18-1.23l1.31-.19c2.13-.32,4.25-.65,6.37-1,.44-.06.88-.14,1.32-.23q13.22-2.2,26.16-5.31c.39-.09.78-.18,1.17-.29.07-.28.14-.55.2-.84a13.69,13.69,0,0,0,.27-1.6c0-.33.08-.67.1-1,.36-5-1-10.47-2-14.64-1.89-7.75-4.87-17-11.15-22.43a16.38,16.38,0,0,0-19.87-1,17.43,17.43,0,0,0-6.39,8.7c-.05.15-.1.3-.14.46-.12.36-.23.73-.32,1.1-4.85,1.78-9.39,5.16-10.45,10.51-.92,4.67,1.78,10,6.81,10.64a6.85,6.85,0,0,0,1.19.07,50.3,50.3,0,0,0,8.8,12A56.56,56.56,0,0,0,286,72.84l-1,.44A35.49,35.49,0,0,0,280,76c-.92.12-1.83.28-2.75.43.13.39.22.82.38,1.2l.46,1.06a201.37,201.37,0,0,1,13.29,43.17.75.75,0,0,1,.1.49s0,0,0,.05a0,0,0,0,0,0,0,.49.49,0,0,1,0,.12.52.52,0,0,1,0,.18c0,.73,0,1.46,0,2.19.24.61.46,1.23.67,1.85a0,0,0,0,1,0,0q1,6.6,1.55,13.24h0" transform="translate(0)"/><path class="cls-5" d="M293.93,141.75c1.43,21-1.17,42.24-9.06,62.42q-2,5-4.33,9.82l-.54,1.1q-2,4-4.3,7.91" transform="translate(0)"/><path class="cls-5" d="M282.59,57.06c-4.85-1.48-6.18-7.06-4.36-11.34,1.57-3.68,4.95-6,8.55-7.41a22.65,22.65,0,0,0,.31,9.93,22.16,22.16,0,0,0,2.8,6.49C288,56.74,285.41,57.92,282.59,57.06Z" transform="translate(0)"/><path class="cls-5" d="M290.15,74.65l-1.37.19q-3.19.47-6.39.87a34.82,34.82,0,0,1,3.92-1.94c.33-.15.65-.28,1-.42h0a57.64,57.64,0,0,1,6.86-2.19c.88.85,1.78,1.66,2.72,2.44Q293.53,74.16,290.15,74.65Z" transform="translate(0)"/><path class="cls-5" d="M289.08,34.48c2.87-6.19,9-10.46,16.48-9.32,9.77,1.5,14.14,11.79,16.88,20.11A70.07,70.07,0,0,1,325.57,60a33.32,33.32,0,0,1,.2,5.1c0,.33,0,.67-.09,1a15.17,15.17,0,0,1-.29,1.79c-1.52.38-3.05.73-4.58,1.08q-3.8.87-7.59,1.65c-2.55.53-5.09,1-7.64,1.51s-4.91.89-7.38,1.31c-1-.8-2-1.64-2.88-2.52-.28-.25-.55-.51-.81-.79a48.85,48.85,0,0,1-8.85-11.83,8.88,8.88,0,0,0,4.79-2.67c3.39,4.78,8.67,8,15,7.17a.5.5,0,0,0-.13-1c-6.12.77-11-2.34-14.14-6.95-.2-.29-.39-.59-.57-.89a23,23,0,0,1-2.26-5.09c-.11-.38-.22-.77-.31-1.16a21.42,21.42,0,0,1-.66-5.71,18.18,18.18,0,0,1,.43-3.62c.07-.34.16-.68.25-1s.23-.79.37-1.18A16.28,16.28,0,0,1,289.08,34.48Z" transform="translate(0)"/><path class="cls-5" d="M275.14,223.93c.19-.31.38-.62.56-.93" transform="translate(0)"/><path class="cls-5" d="M294.91,141.42a.79.79,0,0,0-.23,0,.65.65,0,0,0-.66.49l-.09-.12c0-.5-.06-1-.1-1.51,0-.08,0-.16,0-.24a9.83,9.83,0,0,1,1.1,1.42,0,0,0,0,1,0,0" transform="translate(0)"/><path class="cls-5" d="M61.68,81.24l-.06,0a.47.47,0,0,1,.05-.1A.76.76,0,0,1,61.68,81.24Z" transform="translate(0)"/><path class="cls-5" d="M9.19,122.47l.54,0c.64,0,.77.95.13,1l-.22,0c-1.94.15-5.31.55-6.25,2.46a2.55,2.55,0,0,0-.24.93c0,.58-.87.52-1,0v0a.37.37,0,0,1,0-.11c0-.14,0-.27,0-.4l0-.17C2.88,123.43,6.67,122.72,9.19,122.47Z" transform="translate(0)"/><path class="cls-5" d="M69.37,112.05h0" transform="translate(0)"/><line class="cls-5" x1="69.39" y1="112.04" x2="69.4" y2="112.04"/><path class="cls-5" d="M40.45,96.94a.48.48,0,0,0-.18-.07L38,96.47A20.17,20.17,0,0,1,24.54,79.33c-.06-.64-1.06-.51-1,.13A21.17,21.17,0,0,0,37.65,97.4h0l.09,0,.66.12h0l1.71.3a.81.81,0,0,0,.22,0A.52.52,0,0,0,40.45,96.94Z" transform="translate(0)"/><path class="cls-5" d="M48.28,94.28a1.5,1.5,0,0,1,.33-.29c.15-.12.28-.26.42-.39L48.69,93q-5.55-9.45-11.08-18.92c-.33-.56-1.12,0-.8.6l11,18.85C48,93.79,48.14,94,48.28,94.28Z" transform="translate(0)"/><path class="cls-5" d="M276,224a.5.5,0,0,1-.81,0l-.09-.12c-.66-.89-1.33-1.77-2-2.65a0,0,0,0,1,0,0,.49.49,0,0,1,.51-.75.39.39,0,0,1,.3.18L275.7,223l.34.45A.44.44,0,0,1,276,224Z" transform="translate(0)"/><path class="cls-5" d="M288.39,36.15a18.71,18.71,0,0,1,24.28,1.6c.46.45,1.08-.34.62-.78a19.68,19.68,0,0,0-24.21-2.49c-.52.32-1,.68-1.54,1.06a.08.08,0,0,0,0,0,.44.44,0,0,0-.14.46.49.49,0,0,0,.78.3Z" transform="translate(0)"/><path class="cls-5" d="M288.31,48.83c2.49-3.25,8.29-3.35,12-2.88a21.86,21.86,0,0,1,10.88,4.61.5.5,0,0,0,.62-.79,22.93,22.93,0,0,0-12.94-5c-3.52-.2-8.26.13-10.84,2.86a5.25,5.25,0,0,0-.53.62c-.38.52.4,1.14.78.62Z" transform="translate(0)"/><path class="cls-5" d="M159.15,215.49l.38-.1h0" transform="translate(0)"/><line class="cls-5" x1="158.48" y1="215.64" x2="158.49" y2="215.64"/><path class="cls-5" d="M158.44,215.64h0a2.73,2.73,0,0,0,.63-.14h0" transform="translate(0)"/><path class="cls-11" d="M182.14,219.34a64.12,64.12,0,0,1-27.62-3.73c-.61-.22-1,.7-.39.92a65.42,65.42,0,0,0,28.14,3.8C182.91,220.28,182.79,219.29,182.14,219.34Z" transform="translate(0)"/><path class="cls-8" d="M175.56,207.11c-.58-.06-1.16-.12-1.75-.2q-1.91-.24-3.81-.57-2.91-.51-5.76-1.23a7.37,7.37,0,0,0-2.36-1.41c-5.48-2-9.62,3.23-8.9,7.57a5.29,5.29,0,0,0,3.88,5.2c7.88,2.28,22.82,7.76,28.61-.9C190,208.79,180.34,200.89,175.56,207.11Z" transform="translate(0)"/><path class="cls-8" d="M220.69,203.49c-3.82,1.82-10.05,1.54-13.86-.23-7.59-3.54-12.64,8.44-5.06,12,6.69,3.12,17.09,3.51,23.81.3C233.11,212,228.27,199.88,220.69,203.49Z" transform="translate(0)"/><path class="cls-8" d="M174.77,207.18c-2.5,3.65-7,3-10.87,1.95-1.72-.46-9.47-2.79-9.9-4.73-1.8-8.1-14.71-6.52-12.9,1.67,2,9,11.37,13.35,19.56,15.54,8.67,2.32,18.8,1.67,24.31-6.37C189.69,208.37,179.51,200.27,174.77,207.18Z" transform="translate(0)"/><path class="cls-8" d="M200,203.87a6.59,6.59,0,0,0-2.42-4.26l-1.5-.89a6.57,6.57,0,0,0-3.37-.46h-.17a7.21,7.21,0,0,0-4.26,2.42,6.49,6.49,0,0,0,1.07,9.13l1.5.89a6.57,6.57,0,0,0,3.37.46h.17a5,5,0,0,0,2.33-.84,4.84,4.84,0,0,0,1.93-1.58A6.66,6.66,0,0,0,200,203.87Z" transform="translate(0)"/><path class="cls-8" d="M141.61,219a8.73,8.73,0,0,0-1.52-3.93,6.53,6.53,0,0,0-4-5.8,6.63,6.63,0,0,0-8.52,3.45,8.33,8.33,0,0,0,0,6.57,11.89,11.89,0,0,0,1.27,2.16A6.5,6.5,0,0,0,141.61,219Z" transform="translate(0)"/><path class="cls-8" d="M218,189.9a7.89,7.89,0,0,0-4.15-.65,5.54,5.54,0,0,0-4.44,2.71l-1.14.06c-.34,0-.95-.08-1.35-.1a6.44,6.44,0,0,0-.6-.3c-4.81-2.07-11.29,1.92-9.93,7.55.83,3.41,3.54,6.1,7.29,5.61l.16,0a12.32,12.32,0,0,0,1.68.23,50.16,50.16,0,0,0,6.25-.12,10.87,10.87,0,0,0,9.68-6.44C223.08,195.07,220.94,191.47,218,189.9Z" transform="translate(0)"/><path class="cls-8" d="M248.65,194.44c-2.49-2.33-7.2-1.62-9.14,1.07a6.53,6.53,0,0,0,.14,8.1l-.37.51c.46-.4.4-.34-.19.17-.34.27-.68.53-1,.77a6.51,6.51,0,0,0,7.79,10.42C252.93,210.42,255.52,200.88,248.65,194.44Z" transform="translate(0)"/><path class="cls-11" d="M193.16,210.65c-.84,5.76-7.87,7.63-12.75,8.19a30.13,30.13,0,0,1-8.74-.28c-3-.54-5.63-1.83-8.53-2.57-4.87-1.24-9.91,0-14.77-1.57a22.44,22.44,0,0,1-12-9.54c-.34-.55-1.14.05-.8.6A23.33,23.33,0,0,0,148,215.34a25.83,25.83,0,0,0,8,1.14,40.64,40.64,0,0,1,5.18.15,28.49,28.49,0,0,1,5.5,1.63,31.09,31.09,0,0,0,17.94.82c4.26-1.09,8.85-3.54,9.54-8.3A.5.5,0,0,0,193.16,210.65Z" transform="translate(0)"/><path class="cls-11" d="M224.64,204.27a26.09,26.09,0,0,0-2.67,14.8.5.5,0,0,0,1-.13,25.24,25.24,0,0,1,2.6-14.28C225.85,204.09,224.93,203.7,224.64,204.27Z" transform="translate(0)"/><path class="cls-11" d="M222.27,211.67c-1.21,3.5-6.61,4-9.69,4.5s-6.13.9-9.21,1.17c-.64,0-.51,1,.13,1a89.35,89.35,0,0,0,12.7-1.84c2.66-.62,6-1.59,7-4.43C223.4,211.46,222.48,211.06,222.27,211.67Z" transform="translate(0)"/><path class="cls-8" d="M168.56,189.15c-4.79-3-9.74-2.52-15.21-2.57a40.28,40.28,0,0,0-14.86,2.65c-7.91,2.79-3,14.83,4.88,12.05a22.73,22.73,0,0,1,8.28-1.81c1.87,0,3.73,0,5.6.06.46,0,3.24-.18,3.25-.18,3,1.87,6.75,1.88,9.13-1.07C171.64,195.79,171.53,191,168.56,189.15Z" transform="translate(0)"/><path class="cls-11" d="M173.8,188.51c-.91-1.83-2.84-2.08-4.7-2.39a55.06,55.06,0,0,0-9.94-.66c-7.27.12-14.45,1.4-21.58,2.68-.63.11-.51,1.1.13,1,5.59-1,11.2-2,16.88-2.45a67.85,67.85,0,0,1,8.79-.16c2.32.12,8.29-.06,9.49,2.37C173.16,189.46,174.08,189.09,173.8,188.51Z" transform="translate(0)"/><path class="cls-11" d="M162.77,222.69a18.11,18.11,0,0,0-3.67-7.08c-.41-.49-1.21.11-.8.6a17.52,17.52,0,0,1,3.54,6.85C162,223.68,162.93,223.3,162.77,222.69Z" transform="translate(0)"/></g></g></svg>