<svg xmlns="http://www.w3.org/2000/svg" viewBox="0 0 353.41 496.09"><defs><style>.cls-1{fill:#faf1e4;}.cls-2{fill:#e2eef2;}.cls-3{fill:#b48f5b;}.cls-4{fill:none;stroke:#333;stroke-miterlimit:10;stroke-width:0.75px;}</style></defs><title>Asset 9</title><g id="Layer_2" data-name="Layer 2"><g id="Layer_13" data-name="Layer 13"><path d="M349.51,418.34c5.52,4.47,3.54,10.58.89,16.06a58.64,58.64,0,0,1-10.28,14.75c-12.89,13.58-31.38,21.58-50.43,24.37a20.71,20.71,0,0,1-4.9,10.66c-3.09,3.4-7.43,5.47-11.81,7a91.38,91.38,0,0,1-16.34,4c-10.16,1.47-21.09.53-29.69-5.23a29,29,0,0,1-9.24-10.52c-1.09-2-2.11-4-3.11-6-.17-.34-.33-.69-.49-1-1.44-3-2.83-5.95-4.27-8.9-.64-1.31-1.28-2.62-1.94-3.93-4.17-1.68-8.29-3.43-12.4-5.23L175,453.13c-.35.91-.71,1.81-1.07,2.72-.22.59-.44,1.16-.67,1.74-.15.38-.3.76-.44,1.14-1.16,3-2.22,6-3.4,8.93-.14.33-.27.66-.41,1-.6,1.47-1.23,2.92-1.93,4.34-1.68,3.45-3.95,6.82-7.5,8.76-4,2.16-8.73,2.17-13.16,1.87a98.46,98.46,0,0,1-15.5-2.34c-9.49-2.21-19.57-5.67-27.63-11-3.71-2.46-2.8-6.76-2.42-10.54.11-1.08.23-2.16.39-3.24q.06-.52.15-1.05c.21-1.43.46-2.86.74-4.28C82,444.45,62.59,434.71,44.44,424.2a361.13,361.13,0,0,1-42.8-29.09l-.9-.71L1.81,394a95.92,95.92,0,0,0,20.51-12c10.57-8,19.67-17.61,27.93-27.73a322.57,322.57,0,0,0,24.32-34.1,230.71,230.71,0,0,0,11.66-21.1c2.74-15.61,4.47-31.41,5.93-47.22L81,244.55c-4.15-2.71-8.39-5.29-12.38-8.21-1.56-1.14-3.07-2.33-4.52-3.6a21.56,21.56,0,0,1-1.88-1.82A59.05,59.05,0,0,0,57,226.45q-2.62-2.26-5.1-4.66a120.11,120.11,0,0,1-9.35-10.08A124.92,124.92,0,0,1,27.51,189c-.34-.67-.69-1.34-1-2-15.22-30.84-17-66.69-3.5-98.36A130.14,130.14,0,0,1,81.89,25.29c.37-.2.75-.4,1.12-.58l1.15.54q2.69,1.29,5.33,2.61C94.72,21,100.44,14.34,108,9.68c8-4.94,17.35-7.33,26.71-8.38,6.51-.74,14.42-1.7,21.11.13h.06a19.32,19.32,0,0,1,2.81,1c.34.14.63.29,1,.44,7,3.46,8.26,11.2,4.73,17.51a14.14,14.14,0,0,1-1,1.53c2.94-.48,5.9-.8,8.85-1,3.67-.24,7.35-.31,11-.29,3.05,0,6.54-.16,9.24,1.4a8.26,8.26,0,0,1,.81.55,29.23,29.23,0,0,1,7.59-.11,58.55,58.55,0,0,1,40.13,20c3.65,4.4,7.25,10.08,6.29,15.86a9.57,9.57,0,0,1-.55,2c4.61,2.72,6,8.13,6.5,12.93.62,6.18.21,12.86-3.3,18.33a19,19,0,0,1-3.6,4.15.43.43,0,0,1-.22.22l0,0c2,1.84,4,3.76,6.09,5.54a34.74,34.74,0,0,0,11.17,7.06c3.75,1.31,7.85,1.57,11.33,3.59,5.19,3,7.75,8.62,10.12,13.7,2.87,6.12,5.87,12.19,12.54,15.27,6.37,2.94,14.1,3.52,19.32,8.48,4.77,4.56,6.11,11.19,8.93,16.82a18.08,18.08,0,0,0,8.54,8.72c3.56,1.7,7.58,2.57,10.93,4.69,4.51,2.85,8.48,9.32,3.51,13.61-4,3.41-10.71,2.43-15,.13-3.34-1.81-6.2-4.3-9.45-6.23a18.09,18.09,0,0,0-14.41-2c-4.18,1-8.16,2.57-12.42,3.27a48.29,48.29,0,0,1-12.48.38,49.9,49.9,0,0,1-22.34-8.2c-6-3.87-11.5-7.71-18.22-8.88a64.39,64.39,0,0,1-5.48,6.24c1,.9,2,1.85,3,2.84s3.56,3.12,3.46,4.52c0,.65-.66,1.09-1.06,1.54-1.07,1.18-2.22,2.29-3.33,3.42-.55.58-1.11,1.15-1.67,1.72l2.63,1.21,2.31,1.11q2.32,1.14,4.62,2.34c.77.41,1.53.82,2.28,1.24.34.18.65.41,1,.58l1,.46c.53.25,1,.52,1.54.81a11.34,11.34,0,0,1,2.82,2.29,8.55,8.55,0,0,1,1,1.5,7.28,7.28,0,0,1,.4.85c.07.16.12.31.18.46a3.5,3.5,0,0,0,.14.46.65.65,0,0,1,0,.13l.05,0c8.38,4.16,17.91,10.41,21,19.55a38.42,38.42,0,0,1,1.59,7.08c.16,1.08.28,2.18.38,3.27-.22,1.51-.45,3-.69,4.51-1.2,7.48-2.77,14.9-4.66,22.24q5.37,21.78,8.6,44c2.46,16.92,3.57,34.24,9.18,50.59A103.82,103.82,0,0,0,316,392.71a108.25,108.25,0,0,0,16,14.47q4.31,3.18,8.93,5.95C343.73,414.84,346.93,416.23,349.51,418.34Zm-4.87-224.07c4.19-1,6.32-4.84,4.47-8.71-3.47-7.31-13.53-7.16-19.34-11.9-4.52-3.69-6.25-9.33-8.38-14.41a27,27,0,0,0-4.87-8.3c-2.53-2.72-6-4.24-9.53-5.43-5.77-1.93-11.9-3.26-16.18-7.72-3.79-3.94-5.75-9.07-8.06-13.84-3-6.22-6.62-11.08-13.91-12.92-3.54-.89-6.91-1.66-10.1-3.45a48,48,0,0,1-8.47-6.41c-1.65-1.48-3.3-3.05-5-4.58l-.18-.16c-4.53,2.07-9.74,2.83-14.54,4-5.24,1.25-10.5,2.33-15.82,3.1.07.29.16.58.25.87.38,1.16.81,2.31,1.18,3.47.1.32.2.64.28,1a12.37,12.37,0,0,1,.51,4.77,19,19,0,0,1-3.18,7.69c-1.58,2.55-3.42,5-4.4,7.85-1.26,3.58-.16,6.72,1.88,9.8,2.56,3.89,6.47,8.59,2.76,13-1.74,2.09-4.39,3.24-6.41,5.05a7.17,7.17,0,0,0-2.49,5.39c8.68,2,17.72,5,25.42,9.4a47.21,47.21,0,0,1,13.2-.91c.41,0,.82.1,1.24.16a24.44,24.44,0,0,1,7,2.15c6.59,3.16,12,8.09,18.73,11.08a46.9,46.9,0,0,0,24.75,3.64c7.46-.94,15.08-5.5,22.74-4.06,6.74,1.27,11.07,6.73,17,9.4A14.9,14.9,0,0,0,344.64,194.27Zm1.48,245.63c3.76-5.83,9.49-15.18,2.74-20.78-2.55-2.12-5.79-3.5-8.65-5.21s-5.84-3.68-8.62-5.71a106.24,106.24,0,0,1-42.07-66.81c-3.18-16-4.4-32.35-7.24-48.43q-2.52-14.31-5.95-28.42l-.48-2-.45-1.8c-.22-1-.45-1.89-.69-2.81-.11-.41-.21-.83-.32-1.24-.24-.94-.49-1.87-.74-2.81s-.5-1.87-.76-2.81-.51-1.87-.77-2.8-.53-1.87-.79-2.8l-.81-2.8c-.28-.93-.55-1.86-.83-2.79s-.56-1.85-.85-2.78-.57-1.86-.86-2.78-.59-1.85-.88-2.78l-.9-2.77c-.3-.92-.61-1.84-.92-2.76l-.93-2.76c-.31-.92-.63-1.84-1-2.76s-.64-1.83-1-2.75-.65-1.83-1-2.74-.67-1.83-1-2.74-.68-1.82-1-2.73L259,208.3a6.09,6.09,0,0,1-.17-.61c-.06-.21-.12-.41-.19-.62a5.37,5.37,0,0,0-.21-.56,2.56,2.56,0,0,1-.05-.27c0-.09-.05-.18-.07-.26a7.89,7.89,0,0,0-.29-.86,7.54,7.54,0,0,0-2.41-3.25l-.06-.05a10.12,10.12,0,0,0-.92-.65,20.45,20.45,0,0,0-3.34-1.68l-.07,0a.38.38,0,0,1-.14-.09c-.75-.43-1.5-.84-2.24-1.25q-5.08-2.75-10.37-5.09c-.32-.15-.65-.3-1-.43q-3.91-1.72-7.92-3.23l-2.55-.92-.59-.21c-.39-.14-.78-.28-1.17-.4a161.64,161.64,0,0,0-57.49-8.64c-.67,0-.81-1-.14-1A161.42,161.42,0,0,1,195,179.6a163,163,0,0,1,30,7.05l.82.28.38.14c.44.15.88.32,1.31.49l.33.13a2.8,2.8,0,0,1,.28.06c.22.06.42.16.63.23l1.82.68c1.22.46,2.43.94,3.63,1.43s2.4,1,3.59,1.51l.5.22,3.18-3.28c.65-.67,1.92-1.55,2.32-2.39.5-1.05.08-1.23-.71-2.2s-1.86-2.15-2.86-3.15c-.66-.66-1.35-1.3-2-1.89-.26-.25-.52-.47-.79-.69l-1.36-1.07a12.67,12.67,0,0,1-1.16-1,17.66,17.66,0,0,0-2.41-2.07l-.93-.61-.49-.32c-.08,0-.36-.28-.45-.28a2.44,2.44,0,0,0-.44-.4,1.64,1.64,0,0,0-.75-.4l-.11,0c-1-.58-2-1.13-3-1.64a93.16,93.16,0,0,0-21-7l-1.16-.26c-4.07-.88-8.17-1.61-12.24-2.3a168.66,168.66,0,0,0-38-2.51c-18,1.07-36.11,6.28-50.38,16.8l-.16-.21a63.13,63.13,0,0,0-10.16,11,66.81,66.81,0,0,0,5.49,5.81c2.1,1.3,4.18,2.64,6.34,3.86a9.44,9.44,0,0,1,2,1.54,4.68,4.68,0,0,0,.77,1,.08.08,0,0,1,0,0l0,.14c0,.21.12.74,0,.05a4.54,4.54,0,0,0,.14.68c0,.07.08.14.12.2,2.94,4.72,2.62,10.61,2.28,16.06-.39,6.29.43,13.49-4.79,18.26-.48.45-1.11-.36-.63-.8,4.92-4.5,4-11.68,4.37-17.59.33-5,.65-10.43-1.83-14.87a11.8,11.8,0,0,0-1.3-1.92,7.4,7.4,0,0,0-1.7-1.83l0,0c-.3-.2-.6-.4-.93-.59-1.24-.74-2.46-1.5-3.69-2.26-.37-.17-.72-.31-1.06-.43l-.22-.2a.44.44,0,0,1-.19-.07l-1.51-.92-.17-.17-.22-.27c-.07-.1-.15-.22-.18-.25-.14-.22-.27-.44-.39-.67a3.08,3.08,0,0,0-.49-.65l0-.08.2.14c-.14-.15-.27-.31-.42-.46a4.47,4.47,0,0,0-.42-.45c-.76-.8-1.5-1.61-2.21-2.44l-.65-.78-.22-.27-.64-.8a53.67,53.67,0,0,1-8.48-15.32c-.15-.42-.3-.84-.42-1.27a.71.71,0,0,1-.25,0,29.67,29.67,0,0,0-17.76.81c-3.64,1.3-7.48,3.21-11.47,2.95s-6-3-9-5.13c-2.71-2-5.53-1.4-8.69-1.14-2.44.2-4.89.3-7.33.29-2.86,0-6.43.6-7.44-2.54-.85-2.68.14-5.66,1.6-8,4.27-6.74,13-9.24,16.61-16.52,2.87-5.72,3.8-12.51,9.1-16.84,5-4.12,12.45-5.24,16.72-10.24,2.7-3.16,2.77-7.3,4.16-11a15.21,15.21,0,0,1,5.76-7.07c6-4.14,13.7-5.75,20.41-8.52,7.73-3.18,14.61-7.29,19.9-13.6,1-1.12,2-2.34,3.12-3.48,0-.27,0-.55-.07-.83a.5.5,0,0,1,.37-.52,26.86,26.86,0,0,1,1.53-8.17c1-2.6,3-5.61,5.88-6.8a16.3,16.3,0,0,1,.28-2.57c-3.49-2.4-7.2-4.56-10.73-6.66q-12.23-7.26-25-13.62l-.94-.47c-1.93-1-3.88-1.92-5.83-2.85A129.24,129.24,0,0,0,47.65,52.75C24.51,77.67,12.19,110.72,15.3,144c0,.57.1,1.14.16,1.7a123.43,123.43,0,0,0,2,12.51c.42,1.91.89,3.82,1.4,5.71.59,2.19,1.24,4.37,1.95,6.52a124.92,124.92,0,0,0,25.41,44,127.52,127.52,0,0,0,9.1,9.21q2.4,2.17,4.94,4.25A32.06,32.06,0,0,1,62.8,230c.88.9,1.79,1.79,2.76,2.61,1.17,1,2.4,1.95,3.65,2.87,4,3,8.28,5.55,12.46,8.28l10.59,6.94.94.61,7.17,4.7c0,.22,0,.45-.07.67s-.06.29-.09.44l-7.11-4.66c-1.32,14.24-2.87,28.48-5.18,42.58a1.89,1.89,0,0,0-.17.61c-.12,1.25-.3,2.56-.52,3.84a2.72,2.72,0,0,1-.11.25c-.52,1.08-1.06,2.16-1.6,3.24-10.2,20.37-23.68,39.57-38.59,56.84-12.14,14.06-26.75,27.33-44.21,34.85q8.22,6.48,16.83,12.49A365.05,365.05,0,0,0,76,439.39a273.17,273.17,0,0,0,26.28,10.92l1,.33a90.36,90.36,0,0,0,24.13,4.81c15.37-10.11,32.17-20.42,44.06-33.89.33-.37.63-.71.94-1.08l.06,1.46c.33,10-.61,20.27.77,30.09l1,.06,1.09.06,17.58,1,2.87.16,2.63,1.14c2.9,1.25,5.83,2.49,8.79,3.69.49.21,1,.41,1.5.61,18.51,7.45,37.92,13.53,57.8,14.73h.05c2.19.15,4.39.22,6.6.23h0q4,0,8-.25,3.81-.26,7.63-.81c.37,0,.74-.1,1.09-.16C312.13,469.07,334.13,458.44,346.12,439.9Zm-59.3,39.33a24.2,24.2,0,0,0,1.76-5.55,106.93,106.93,0,0,1-16.24,1c-1.85,0-3.69-.11-5.53-.23h-.06c-5.87.47-11.83.42-17.69.32q-16.63-.3-33.23-1.32c3.46,7.08,7.39,13.76,15.12,17.6,9.41,4.68,20.41,4.34,30.53,2.21C270.85,491.25,282.57,488.42,286.82,479.23ZM281.3,236.48a48.35,48.35,0,0,0-1.7-10c-2.69-9-11.79-15.25-20-19.44,0,0,0,0,0,0,.37.94.72,1.89,1.08,2.83l.84,2.26c.89,2.43,1.77,4.86,2.62,7.31s1.69,4.89,2.51,7.34,1.61,4.92,2.38,7.39,1.53,4.94,2.26,7.42,1.44,5,2.12,7.46c.35,1.24.69,2.49,1,3.74s.58,2.39.94,3.58c.14.47.34.95.44,1.43l0,.16q.1.56.24,1.11c.06.24.12.48.19.72a3.26,3.26,0,0,1,.17.6A232.94,232.94,0,0,0,281.3,236.48ZM247.11,473.69c4.08.08,8.22.17,12.35.09-17.26-2-33.94-7.27-50.08-13.71,1.18,2.45,2.38,4.9,3.58,7.35.8,1.65,1.58,3.31,2.38,5Q231.21,473.37,247.11,473.69ZM246.05,95c5.45-5.09,7-13.84,6.39-20.9-.39-4.68-1.5-10.25-6-13a7,7,0,0,1-2.75,3.1,4.12,4.12,0,0,1-5.12-.47c-1-1.08-1.41-2.78-.21-3.87,1.71-1.59,5-1.06,7-.25a6.49,6.49,0,0,1,.65.31,11.1,11.1,0,0,0,.52-4.24c-.62-8.62-8.77-16.58-15.76-21.64a58.46,58.46,0,0,0-24.9-10.23,57.51,57.51,0,0,0-6.81-.67,28.32,28.32,0,0,0-5,.07,4.22,4.22,0,0,1,1.21,4.18A4,4,0,0,1,191.38,30a2.92,2.92,0,0,1-2.83-3c.07-2,1.67-3.46,3.66-4.1a12.19,12.19,0,0,0-4.84-1.3,99.31,99.31,0,0,0-24.65,1.23l-1.64.3q-2.69.54-5.27,1.24a57.58,57.58,0,0,0-5.66,1.86c-.54.2-1.08.42-1.6.65a42.93,42.93,0,0,0-16,11.25,28.76,28.76,0,0,0-6,10.89l0,.09c-.08.29-.16.6-.23.93a11.05,11.05,0,0,0-.26,1.78,6.31,6.31,0,0,1,2.36-.25,4.4,4.4,0,0,1,.51.05,5.84,5.84,0,0,1,2.11.77l1,.83a2.51,2.51,0,0,1,.53,1.24,2.16,2.16,0,0,1,0,.57,2.79,2.79,0,0,1-2.57,2.15c-3.33.43-4.48-1.7-4.65-4.19-5.08,2.08-6.35,8.74-6.53,14.27a1.93,1.93,0,0,1,0,.24,1.73,1.73,0,0,0-.07,1.7c.75,5.46,3.4,10.39,6.82,14.72a34.19,34.19,0,0,0,9.91,8.35l.9.52c1.23.7,2.51,1.38,3.83,2,5.52,2.8,11.19,5.46,17.27,6.77a57,57,0,0,0,8.54,1.1c2.75.16,5.5.55,8.27.58,1.66,0,3.37-.24,5-.13s3,.25,4.59.3a29.61,29.61,0,0,0,9.24-.89,9.08,9.08,0,0,0,2-.8,4.86,4.86,0,0,1-.55-4c.55-1.88,2.88-3.43,3.79-.87.68,2-.32,3.78-1.84,5a5.23,5.23,0,0,0,3.12,1.43,31,31,0,0,0,4.52.31,41.52,41.52,0,0,0,4.73-.25q1.16-.12,2.31-.3c.72-.11,1.45-.29,2.17-.37,1.71-.19,3.42-.49,5.12-.78s3.43-.62,5.14-1,3.41-.73,5.11-1.12l.89-.21c4.81-1.14,10.06-1.9,14.66-3.88a1.74,1.74,0,0,0,.69-.31,1.92,1.92,0,0,0,.41-.19l.5-.23A.4.4,0,0,1,246.05,95Zm-.35-34.29c-.23-.11-.44-.22-.68-.32-1.51-.62-6.37-1.66-6.51,1.34-.11,2,2.65,2.7,4.22,2A5.77,5.77,0,0,0,245.7,60.69Zm-5.22,114.19c.9-1,1.75-2,2.57-3.09a24.15,24.15,0,0,0-5.46-.07c-1.91.18-3.84.51-5.79.86a1.51,1.51,0,0,1,.36.22l.38.24.76.49a43.37,43.37,0,0,1,4.69,4Q239.28,176.23,240.48,174.88ZM213.34,120c2.09-3.54,3-6.81,2.17-10.67-.08-.32-.16-.65-.27-1,0-.1-.05-.19-.08-.29-.46-1.47-1-2.94-1.35-4.43l-.32,0a.47.47,0,0,1-.21,0,46.15,46.15,0,0,1-8.3.73,25.77,25.77,0,0,1-6.57-.28,5.79,5.79,0,0,1-2.82-1.67,7.53,7.53,0,0,1-1.42.71,24.42,24.42,0,0,1-8.7,1.21c-3,0-6-.14-9.07-.23-6.71-.21-13.52-.29-20.09-1.85-6.41-1.52-12.35-4.45-18.18-7.44-.79-.41-1.56-.82-2.31-1.25a38.53,38.53,0,0,1-6.15,8.24c-3.95,4.2-7.61,8.33-6.74,14.35.61,4.23,2.79,9.12-.24,13s-9.07,4.19-11.33,8.83c-2.18,4.48-.47,9.94-.22,14.63.21,4.06-.42,8.14-3.6,11.11-3.44,3.21-8.36,4.38-13,4.53-3.84.13-7.63-.13-11.43-.24.47,1.48,1,2.93,1.62,4.37a52.14,52.14,0,0,0,7.06,11.9l.63.79,0,0a64.27,64.27,0,0,1,10.24-11.07.43.43,0,0,1,.52-.05,82.83,82.83,0,0,1,21.49-11.11c24.13-8.4,50.48-6.54,75.19-1.63,1.36.27,2.75.56,4.14.88a8.26,8.26,0,0,1,.32-2c1.85-6.45,13.32-7.46,9.29-15.64-2.72-5.53-7.58-9.46-5.1-16.05C209.64,125.43,211.69,122.79,213.34,120Zm-16-21.64a2.2,2.2,0,0,0,.13-.8.93.93,0,0,0-.65-.87.91.91,0,0,0-.71.19,2.28,2.28,0,0,0-.49.49,2.36,2.36,0,0,0-.41,1.49,4.89,4.89,0,0,0,.22,1.19c0,.08.4,1,.4,1a4.44,4.44,0,0,0,.67-.7,3.23,3.23,0,0,0,.67-1.3A5.65,5.65,0,0,1,197.34,98.38Zm-2.88-72.09a3.49,3.49,0,0,0-1.39-2.89,6.44,6.44,0,0,0-1.79.74c-1.63,1-3.24,5.21.47,5A2.94,2.94,0,0,0,194.46,26.29Zm-20.6,426.78-.47,0-1.08-.06c-.05-.33-.1-.67-.14-1-1.28-9.44-.42-19.33-.67-29-11.62,12.8-27.55,22.77-42.36,32.5l-1.37.9h0l-1.68-.09A92.8,92.8,0,0,1,104.7,452l-1.59-.52c-.29,1.48-.54,2.95-.77,4.44h0A94,94,0,0,0,118,461.8l1.28.35c15.71,4.22,32.59,5,48.94,5.47.42-1.08.82-2.16,1.24-3.23l3.36-8.62h0c.24-.61.48-1.21.71-1.83v0C173.64,453.63,173.75,453.36,173.86,453.07ZM164.68,17c1.26-4,.55-8.51-2.81-11.45a14.71,14.71,0,0,0-6.28-3.06h0a52.14,52.14,0,0,0-15.27,3.5A96.65,96.65,0,0,0,130,10.65c-3.12,1.64-6.44,3.48-7.46,7-.18.62-1.15.23-1-.38.92-3.15,3.61-5.07,6.46-6.65a92.14,92.14,0,0,1,11-5.22,57.46,57.46,0,0,1,12.89-3.54l-.42-.05c-8.15-.81-17,.17-25,1.85a53.49,53.49,0,0,0-23.45,10.88A82.08,82.08,0,0,0,90.43,28.33q13.2,6.62,25.85,14.16c3.14,1.87,6.38,3.8,9.49,5.92.07-.28.14-.53.22-.77a32.22,32.22,0,0,1,9.46-13.73A45.23,45.23,0,0,1,147,26.56c.62-.28,1.25-.54,1.88-.8a66.63,66.63,0,0,1,13-3.65A15.45,15.45,0,0,0,164.68,17Zm-.62,459.17a36.38,36.38,0,0,0,3.76-7.51c-16.6-.46-33.69-1.33-49.61-5.72l-1.24-.35a92.59,92.59,0,0,1-14.76-5.6c-.13,1-.24,1.92-.34,2.88-.31,3.18-1.21,7.1,1.72,9.42A37.36,37.36,0,0,0,110.4,473a98.23,98.23,0,0,0,27.4,8.65C147,483.09,158.19,484.64,164.06,476.12ZM128.71,56.25c1.66.3,3.32-.91,2.76-2.23h0a2.27,2.27,0,0,0-.76-.9,3.56,3.56,0,0,0-.9-.49,5.45,5.45,0,0,0-2.77-.23,8.21,8.21,0,0,0-1.06.26C126,54.34,126.69,55.88,128.71,56.25Zm6.21,36.85a36.38,36.38,0,0,1-11-9.65,31.1,31.1,0,0,1-6.23-13.91c-.19.2-.37.41-.55.61a60,60,0,0,1-7.8,8.14c-6.14,4.89-13.64,7.91-21.07,10.57-6.54,2.35-14.93,4.5-18.28,11-1.69,3.27-1.72,7-3.37,10.33a14.39,14.39,0,0,1-5.13,5.44c-5.08,3.31-11.63,4.73-15.52,9.54-4.13,5.11-4.58,12-8.41,17.27-4.27,5.9-12.53,8.33-15.68,15.08-.95,2-1.77,5.35.28,6.87,1.75,1.29,5.38.75,7.5.7s4.45-.2,6.67-.42a15,15,0,0,1,4.77-.05c2.9.65,4.67,3.05,6.92,4.69,4,2.89,8.5,1.55,12.73,0,7-2.6,13.53-3.81,20.88-2.05,0-.05,0-.09-.07-.14.15,0,.28,0,.43,0a4.56,4.56,0,0,0,.76-.07c3.87.11,7.72.37,11.62.24,5.72-.19,12.35-2,14.78-7.51,2-4.38.64-9.42.28-14-.29-3.62-.17-7.53,2.48-10.41,3-3.33,9-3.91,10.81-8.29,2-4.8-1.75-10.11-.85-15.1.76-4.17,3.85-7.45,6.72-10.5A39.3,39.3,0,0,0,134.92,93.1Z"/><path class="cls-1" d="M349.11,185.56c1.85,3.87-.28,7.67-4.47,8.71a14.9,14.9,0,0,1-9.42-1c-6-2.67-10.3-8.13-17-9.4-7.66-1.44-15.28,3.12-22.74,4.06a46.9,46.9,0,0,1-24.75-3.64c-6.7-3-12.14-7.92-18.73-11.08a24.44,24.44,0,0,0-7-2.15c-.42-.06-.83-.12-1.24-.16a47.21,47.21,0,0,0-13.2.91c-7.7-4.45-16.74-7.38-25.42-9.4A7.17,7.17,0,0,1,207.6,157c2-1.81,4.67-3,6.41-5.05,3.71-4.45-.2-9.15-2.76-13-2-3.08-3.14-6.22-1.88-9.8,1-2.82,2.82-5.3,4.4-7.85a19,19,0,0,0,3.18-7.69,12.37,12.37,0,0,0-.51-4.77c-.08-.33-.18-.65-.28-1-.37-1.16-.8-2.31-1.18-3.47-.09-.29-.18-.58-.25-.87,5.32-.77,10.58-1.85,15.82-3.1,4.8-1.14,10-1.9,14.54-4l.18.16c1.7,1.53,3.35,3.1,5,4.58a48,48,0,0,0,8.47,6.41c3.19,1.79,6.56,2.56,10.1,3.45,7.29,1.84,10.89,6.7,13.91,12.92,2.31,4.77,4.27,9.9,8.06,13.84,4.28,4.46,10.41,5.79,16.18,7.72,3.54,1.19,7,2.71,9.53,5.43a27,27,0,0,1,4.87,8.3c2.13,5.08,3.86,10.72,8.38,14.41C335.58,178.4,345.64,178.25,349.11,185.56Z"/><path class="cls-2" d="M348.86,419.12c6.75,5.6,1,14.95-2.74,20.78-12,18.54-34,29.17-56.25,32.55-.35.06-.72.12-1.09.16q-3.82.56-7.63.81-4,.27-8,.25h0c-2.21,0-4.41-.08-6.6-.23h-.05c-19.88-1.2-39.29-7.28-57.8-14.73-.5-.2-1-.4-1.5-.61-3-1.2-5.89-2.44-8.79-3.69l-2.63-1.14-2.87-.16-17.58-1-1.09-.06-1-.06c-1.38-9.82-.44-20.1-.77-30.09l-.06-1.46c-.31.37-.61.71-.94,1.08-11.89,13.47-28.69,23.78-44.06,33.89a90.36,90.36,0,0,1-24.13-4.81l-1-.33A273.17,273.17,0,0,1,76,439.39a365.05,365.05,0,0,1-56.44-32.23q-8.61-6-16.83-12.49c17.46-7.52,32.07-20.79,44.21-34.85C61.84,342.55,75.32,323.35,85.52,303c.54-1.08,1.08-2.16,1.6-3.24a2.72,2.72,0,0,0,.11-.25c.22-1.28.4-2.59.52-3.84a1.89,1.89,0,0,1,.17-.61c2.31-14.1,3.86-28.34,5.18-42.58l7.11,4.66c0-.15.07-.29.09-.44s0-.45.07-.67l-7.17-4.7-.94-.61-10.59-6.94c-4.18-2.73-8.45-5.33-12.46-8.28-1.25-.92-2.48-1.87-3.65-2.87-1-.82-1.88-1.71-2.76-2.61a32.06,32.06,0,0,0-2.51-2.13q-2.53-2.07-4.94-4.25a127.52,127.52,0,0,1-9.1-9.21,124.57,124.57,0,0,1-25.41-44c-.71-2.15-1.36-4.33-1.95-6.52l1.26-.34c1,3.14,4.58,2.53,7.44,2.54,2.44,0,4.89-.09,7.33-.29,3.16-.26,6-.81,8.69,1.14,2.94,2.11,5,4.86,9,5.13s7.83-1.65,11.47-2.95a29.67,29.67,0,0,1,17.76-.81.71.71,0,0,0,.25,0c.12.43.27.85.42,1.27A53.67,53.67,0,0,0,91,184.9l.64.8.22.27.65.78c.71.83,1.45,1.64,2.21,2.44a4.47,4.47,0,0,1,.42.45c.15.15.28.31.42.46l-.2-.14,0,.08a3.08,3.08,0,0,1,.49.65c.12.23.25.45.39.67,0,0,.11.15.18.25l.22.27.17.17,1.51.92a.44.44,0,0,0,.19.07l.22.2c.34.12.69.26,1.06.43,1.23.76,2.45,1.52,3.69,2.26.33.19.63.39.93.59l0,0a7.4,7.4,0,0,1,1.7,1.83,11.8,11.8,0,0,1,1.3,1.92c2.48,4.44,2.16,9.84,1.83,14.87-.36,5.91.55,13.09-4.37,17.59-.48.44.15,1.25.63.8,5.22-4.77,4.4-12,4.79-18.26.34-5.45.66-11.34-2.28-16.06,0-.06-.07-.13-.12-.2a4.54,4.54,0,0,1-.14-.68c.07.69,0,.16,0-.05l0-.14a.08.08,0,0,0,0,0,4.68,4.68,0,0,1-.77-1,9.44,9.44,0,0,0-2-1.54c-2.16-1.22-4.24-2.56-6.34-3.86a66.81,66.81,0,0,1-5.49-5.81,63.13,63.13,0,0,1,10.16-11l.16.21c14.27-10.52,32.38-15.73,50.38-16.8a168.66,168.66,0,0,1,38,2.51c4.07.69,8.17,1.42,12.24,2.3l1.16.26a93.16,93.16,0,0,1,21,7c1,.51,2,1.06,3,1.64l.11,0a1.64,1.64,0,0,1,.75.4,2.44,2.44,0,0,1,.44.4c.09,0,.37.24.45.28l.49.32.93.61a17.66,17.66,0,0,1,2.41,2.07,12.67,12.67,0,0,0,1.16,1l1.36,1.07c.27.22.53.44.79.69.7.59,1.39,1.23,2,1.89,1,1,2,2.06,2.86,3.15s1.21,1.15.71,2.2c-.4.84-1.67,1.72-2.32,2.39l-3.18,3.28-.5-.22c-1.19-.52-2.39-1-3.59-1.51s-2.41-1-3.63-1.43l-1.82-.68c-.21-.07-.41-.17-.63-.23a2.8,2.8,0,0,0-.28-.06l-.33-.13c-.43-.17-.87-.34-1.31-.49l-.38-.14-.82-.28a163,163,0,0,0-30-7.05,161.42,161.42,0,0,0-27.36-1.39c-.67,0-.53,1,.14,1a161.64,161.64,0,0,1,57.49,8.64c.39.12.78.26,1.17.4l.59.21,2.55.92q4,1.5,7.92,3.23c.32.13.65.28,1,.43q5.28,2.34,10.37,5.09c.74.41,1.49.82,2.24,1.25a.38.38,0,0,0,.14.09l.07,0a20.45,20.45,0,0,1,3.34,1.68,10.12,10.12,0,0,1,.92.65l.06.05a7.54,7.54,0,0,1,2.41,3.25,7.89,7.89,0,0,1,.29.86c0,.08.05.17.07.26a2.56,2.56,0,0,0,.05.27,5.37,5.37,0,0,1,.21.56c.07.21.13.41.19.62a6.09,6.09,0,0,0,.17.61l.47,1.26c.34.91.69,1.82,1,2.73s.67,1.82,1,2.74.66,1.83,1,2.74.65,1.83,1,2.75.64,1.84,1,2.76l.93,2.76c.31.92.62,1.84.92,2.76l.9,2.77c.29.93.59,1.85.88,2.78s.58,1.85.86,2.78.57,1.86.85,2.78.55,1.86.83,2.79l.81,2.8c.26.93.53,1.86.79,2.8s.52,1.87.77,2.8.51,1.87.76,2.81.5,1.87.74,2.81c.11.41.21.83.32,1.24.24.92.47,1.85.69,2.81l.45,1.8.48,2q3.44,14.13,5.95,28.42c2.84,16.08,4.06,32.41,7.24,48.43a106.24,106.24,0,0,0,42.07,66.81q4.17,3,8.62,5.71C343.07,415.62,346.31,417,348.86,419.12Z"/><path class="cls-1" d="M288.58,473.68a24.2,24.2,0,0,1-1.76,5.55c-4.25,9.19-16,12-25.34,14-10.12,2.13-21.12,2.47-30.53-2.21-7.73-3.84-11.66-10.52-15.12-17.6q16.6,1,33.23,1.32c5.86.1,11.82.15,17.69-.32h.06c1.84.12,3.68.2,5.53.23A106.93,106.93,0,0,0,288.58,473.68Z"/><path class="cls-2" d="M279.6,226.44a48.35,48.35,0,0,1,1.7,10,232.94,232.94,0,0,1-4.87,23.89,3.26,3.26,0,0,0-.17-.6c-.07-.24-.13-.48-.19-.72s-.17-.74-.24-1.11l0-.16c-.1-.48-.3-1-.44-1.43-.36-1.19-.62-2.38-.94-3.58s-.67-2.5-1-3.74q-1-3.74-2.12-7.46c-.73-2.48-1.49-4.95-2.26-7.42s-1.57-4.93-2.38-7.39-1.65-4.9-2.51-7.34-1.73-4.88-2.62-7.31l-.84-2.26c-.36-.94-.71-1.89-1.08-2.83,0,0,0,0,0,0C267.81,211.19,276.91,217.43,279.6,226.44Z"/><path class="cls-3" d="M259.46,473.78c-4.13.08-8.27,0-12.35-.09q-15.88-.33-31.77-1.31c-.8-1.65-1.58-3.31-2.38-5-1.2-2.45-2.4-4.9-3.58-7.35C225.52,466.51,242.2,471.76,259.46,473.78Z"/><path class="cls-1" d="M252.44,74.08c.59,7.06-.94,15.81-6.39,20.9a.4.4,0,0,0-.29,0l-.5.23a1.92,1.92,0,0,1-.41.19,1.74,1.74,0,0,1-.69.31c-4.6,2-9.85,2.74-14.66,3.88l-.89.21c-1.7.39-3.4.77-5.11,1.12s-3.42.67-5.14,1-3.41.59-5.12.78c-.72.08-1.45.26-2.17.37s-1.54.22-2.31.3a41.52,41.52,0,0,1-4.73.25,31,31,0,0,1-4.52-.31,5.23,5.23,0,0,1-3.12-1.43c1.52-1.26,2.52-3.09,1.84-5-.91-2.56-3.24-1-3.79.87a4.86,4.86,0,0,0,.55,4,9.08,9.08,0,0,1-2,.8,29.61,29.61,0,0,1-9.24.89c-1.54-.05-3.06-.2-4.59-.3s-3.36.15-5,.13c-2.77,0-5.52-.42-8.27-.58a57,57,0,0,1-8.54-1.1c-6.08-1.31-11.75-4-17.27-6.77-1.32-.67-2.6-1.35-3.83-2l-.9-.52a34.19,34.19,0,0,1-9.91-8.35c-3.42-4.33-6.07-9.26-6.82-14.72a1.73,1.73,0,0,1,.07-1.7,1.93,1.93,0,0,0,0-.24c.18-5.53,1.45-12.19,6.53-14.27.17,2.49,1.32,4.62,4.65,4.19a2.79,2.79,0,0,0,2.57-2.15,2.16,2.16,0,0,0,0-.57,2.51,2.51,0,0,0-.53-1.24l-1-.83a5.84,5.84,0,0,0-2.11-.77,4.4,4.4,0,0,0-.51-.05,6.31,6.31,0,0,0-2.36.25,11.05,11.05,0,0,1,.26-1.78c.07-.33.15-.64.23-.93l0-.09a28.76,28.76,0,0,1,6-10.89,42.93,42.93,0,0,1,16-11.25c.52-.23,1.06-.45,1.6-.65a57.58,57.58,0,0,1,5.66-1.86q2.58-.71,5.27-1.24l1.64-.3a99.31,99.31,0,0,1,24.65-1.23,12.19,12.19,0,0,1,4.84,1.3c-2,.64-3.59,2.06-3.66,4.1a2.92,2.92,0,0,0,2.83,3,4,4,0,0,0,3.86-2.56A4.22,4.22,0,0,0,194,23.21a28.32,28.32,0,0,1,5-.07,57.51,57.51,0,0,1,6.81.67A58.46,58.46,0,0,1,230.77,34c7,5.06,15.14,13,15.76,21.64a11.1,11.1,0,0,1-.52,4.24,6.49,6.49,0,0,0-.65-.31c-2-.81-5.29-1.34-7,.25-1.2,1.09-.81,2.79.21,3.87a4.12,4.12,0,0,0,5.12.47,7,7,0,0,0,2.75-3.1C250.94,63.83,252.05,69.4,252.44,74.08Z"/><path class="cls-1" d="M245,60.37c.24.1.45.21.68.32a5.77,5.77,0,0,1-3,3.06c-1.57.66-4.33-.06-4.22-2C238.65,58.71,243.51,59.75,245,60.37Z"/><path class="cls-1" d="M243.05,171.79c-.82,1.06-1.67,2.09-2.57,3.09s-1.63,1.78-2.49,2.64a43.37,43.37,0,0,0-4.69-4l-.76-.49-.38-.24a1.51,1.51,0,0,0-.36-.22c1.95-.35,3.88-.68,5.79-.86A24.15,24.15,0,0,1,243.05,171.79Z"/><path class="cls-1" d="M215.51,109.35c.85,3.86-.08,7.13-2.17,10.67-1.65,2.77-3.7,5.41-4.84,8.43C206,135,210.88,139,213.6,144.5c4,8.18-7.44,9.19-9.29,15.64a8.26,8.26,0,0,0-.32,2c-1.39-.32-2.78-.61-4.14-.88-24.71-4.91-51.06-6.77-75.19,1.63A82.83,82.83,0,0,0,103.17,174a.43.43,0,0,0-.52.05,64.27,64.27,0,0,0-10.24,11.07l0,0-.63-.79a52.14,52.14,0,0,1-7.06-11.9c-.61-1.44-1.15-2.89-1.62-4.37,3.8.11,7.59.37,11.43.24,4.68-.15,9.6-1.32,13-4.53,3.18-3,3.81-7.05,3.6-11.11-.25-4.69-2-10.15.22-14.63,2.26-4.64,8.31-5,11.33-8.83s.85-8.75.24-13c-.87-6,2.79-10.15,6.74-14.35a38.53,38.53,0,0,0,6.15-8.24c.75.43,1.52.84,2.31,1.25,5.83,3,11.77,5.92,18.18,7.44,6.57,1.56,13.38,1.64,20.09,1.85,3,.09,6,.21,9.07.23a24.42,24.42,0,0,0,8.7-1.21,7.53,7.53,0,0,0,1.42-.71,5.79,5.79,0,0,0,2.82,1.67,25.77,25.77,0,0,0,6.57.28,46.15,46.15,0,0,0,8.3-.73.47.47,0,0,0,.21,0l.32,0c.39,1.49.89,3,1.35,4.43,0,.1.06.19.08.29C215.35,108.7,215.43,109,215.51,109.35Z"/><path class="cls-1" d="M197.47,97.58a2.2,2.2,0,0,1-.13.8,5.65,5.65,0,0,0-.17.71,3.23,3.23,0,0,1-.67,1.3,4.44,4.44,0,0,1-.67.7s-.38-.94-.4-1a4.89,4.89,0,0,1-.22-1.19,2.36,2.36,0,0,1,.41-1.49,2.28,2.28,0,0,1,.49-.49.91.91,0,0,1,.71-.19A.93.93,0,0,1,197.47,97.58Z"/><path class="cls-1" d="M193.07,23.4a3.49,3.49,0,0,1,1.39,2.89,2.94,2.94,0,0,1-2.71,2.84c-3.71.22-2.1-4-.47-5A6.44,6.44,0,0,1,193.07,23.4Z"/><path class="cls-3" d="M173.39,453l.47,0c-.11.29-.22.56-.34.84v0c-.23.62-.47,1.22-.71,1.83h0l-3.36,8.62c-.42,1.07-.82,2.15-1.24,3.23-16.35-.44-33.23-1.25-48.94-5.47L118,461.8a94,94,0,0,1-15.65-5.9h0c.23-1.49.48-3,.77-4.44l1.59.52a92.8,92.8,0,0,0,21.38,4.35l1.68.09h0l1.37-.9c14.81-9.73,30.74-19.7,42.36-32.5.25,9.64-.61,19.53.67,29,0,.33.09.67.14,1Z"/><path class="cls-1" d="M161.87,5.5c3.36,2.94,4.07,7.41,2.81,11.45a15.45,15.45,0,0,1-2.78,5.16,66.63,66.63,0,0,0-13,3.65c-.63.26-1.26.52-1.88.8a45.23,45.23,0,0,0-11.57,7.35A32.22,32.22,0,0,0,126,47.64c-.08.24-.15.49-.22.77-3.11-2.12-6.35-4-9.49-5.92q-12.63-7.56-25.85-14.16a82.08,82.08,0,0,1,12.64-13.84A53.49,53.49,0,0,1,126.52,3.61c8-1.68,16.8-2.66,25-1.85l.42.05A57.46,57.46,0,0,0,139,5.35a92.14,92.14,0,0,0-11,5.22c-2.85,1.58-5.54,3.5-6.46,6.65-.18.61.79,1,1,.38,1-3.47,4.34-5.31,7.46-7a96.65,96.65,0,0,1,10.3-4.71,52.14,52.14,0,0,1,15.27-3.5h0A14.71,14.71,0,0,1,161.87,5.5Z"/><path class="cls-1" d="M167.82,468.61a36.38,36.38,0,0,1-3.76,7.51c-5.87,8.52-17.07,7-26.26,5.49A98.23,98.23,0,0,1,110.4,473a37.36,37.36,0,0,1-6.81-3.72c-2.93-2.32-2-6.24-1.72-9.42.1-1,.21-1.92.34-2.88a92.59,92.59,0,0,0,14.76,5.6l1.24.35C134.13,467.28,151.22,468.15,167.82,468.61Z"/><path class="cls-1" d="M131.47,54c.56,1.32-1.1,2.53-2.76,2.23-2-.37-2.67-1.91-2.73-3.6a8.21,8.21,0,0,1,1.06-.26,5.45,5.45,0,0,1,2.77.23,3.56,3.56,0,0,1,.9.49,2.27,2.27,0,0,1,.76.9Z"/><path class="cls-1" d="M123.91,83.45a36.38,36.38,0,0,0,11,9.65,39.3,39.3,0,0,1-6.34,8.4c-2.87,3-6,6.33-6.72,10.5-.9,5,2.84,10.3.85,15.1-1.81,4.38-7.76,5-10.81,8.29-2.65,2.88-2.77,6.79-2.48,10.41.36,4.56,1.67,9.6-.28,14-2.43,5.46-9.06,7.32-14.78,7.51-3.9.13-7.75-.13-11.62-.24a4.56,4.56,0,0,1-.76.07c-.15,0-.28,0-.43,0,0,0,0,.09.07.14-7.35-1.76-13.9-.55-20.88,2.05-4.23,1.57-8.77,2.91-12.73,0-2.25-1.64-4-4-6.92-4.69a15,15,0,0,0-4.77.05c-2.22.22-4.44.37-6.67.42s-5.75.59-7.5-.7c-2-1.52-1.23-4.86-.28-6.87,3.15-6.75,11.41-9.18,15.68-15.08,3.83-5.28,4.28-12.16,8.41-17.27,3.89-4.81,10.44-6.23,15.52-9.54a14.39,14.39,0,0,0,5.13-5.44c1.65-3.28,1.68-7.06,3.37-10.33,3.35-6.48,11.74-8.63,18.28-11,7.43-2.66,14.93-5.68,21.07-10.57a60,60,0,0,0,7.8-8.14c.18-.2.36-.41.55-.61A31.1,31.1,0,0,0,123.91,83.45Z"/><path class="cls-2" d="M125.52,49.43a16.3,16.3,0,0,0-.28,2.57c-2.85,1.19-4.91,4.2-5.88,6.8A26.86,26.86,0,0,0,117.83,67a.5.5,0,0,0-.37.52c0,.28,0,.56.07.83-1.14,1.14-2.17,2.36-3.12,3.48-5.29,6.31-12.17,10.42-19.9,13.6-6.71,2.77-14.42,4.38-20.41,8.52A15.21,15.21,0,0,0,68.34,101c-1.39,3.69-1.46,7.83-4.16,11-4.27,5-11.69,6.12-16.72,10.24-5.3,4.33-6.23,11.12-9.1,16.84-3.66,7.28-12.34,9.78-16.61,16.52-1.46,2.3-2.45,5.28-1.6,8l-1.26.34c-.51-1.89-1-3.8-1.4-5.71a123.43,123.43,0,0,1-2-12.51c-.06-.56-.11-1.13-.16-1.7-3.11-33.24,9.21-66.29,32.35-91.21A129.24,129.24,0,0,1,83,25.83c1.95.93,3.9,1.88,5.83,2.85l.94.47q12.75,6.36,25,13.62C118.32,44.87,122,47,125.52,49.43Z"/><path class="cls-4" d="M349.51,418.34c-2.58-2.11-5.78-3.5-8.65-5.21q-4.62-2.76-8.93-5.95a108.25,108.25,0,0,1-16-14.47,103.82,103.82,0,0,1-21.29-35.78c-5.61-16.35-6.72-33.67-9.18-50.59q-3.22-22.15-8.6-44c1.89-7.34,3.46-14.76,4.66-22.24.24-1.5.47-3,.69-4.51-.1-1.09-.22-2.19-.38-3.27a38.42,38.42,0,0,0-1.59-7.08c-3.11-9.14-12.64-15.39-21-19.55l-.05,0a.65.65,0,0,0,0-.13,3.5,3.5,0,0,1-.14-.46c-.06-.15-.11-.3-.18-.46a7.28,7.28,0,0,0-.4-.85,8.55,8.55,0,0,0-1-1.5,11.34,11.34,0,0,0-2.82-2.29c-.5-.29-1-.56-1.54-.81l-1-.46c-.35-.17-.66-.4-1-.58-.75-.42-1.51-.83-2.28-1.24q-2.29-1.2-4.62-2.34l-2.31-1.11-2.63-1.21c.56-.57,1.12-1.14,1.67-1.72,1.11-1.13,2.26-2.24,3.33-3.42.4-.45,1-.89,1.06-1.54.1-1.4-2.61-3.62-3.46-4.52s-1.94-1.94-3-2.84a64.39,64.39,0,0,0,5.48-6.24c6.72,1.17,12.25,5,18.22,8.88a49.9,49.9,0,0,0,22.34,8.2,48.29,48.29,0,0,0,12.48-.38c4.26-.7,8.24-2.25,12.42-3.27a18.09,18.09,0,0,1,14.41,2c3.25,1.93,6.11,4.42,9.45,6.23,4.26,2.3,11,3.28,15-.13,5-4.29,1-10.76-3.51-13.61-3.35-2.12-7.37-3-10.93-4.69a18.08,18.08,0,0,1-8.54-8.72c-2.82-5.63-4.16-12.26-8.93-16.82-5.22-5-13-5.54-19.32-8.48-6.67-3.08-9.67-9.15-12.54-15.27-2.37-5.08-4.93-10.67-10.12-13.7-3.48-2-7.58-2.28-11.33-3.59a34.74,34.74,0,0,1-11.17-7.06c-2-1.78-4-3.7-6.09-5.54l0,0a.43.43,0,0,0,.22-.22,19,19,0,0,0,3.6-4.15c3.51-5.47,3.92-12.15,3.3-18.33-.47-4.8-1.89-10.21-6.5-12.93a9.57,9.57,0,0,0,.55-2c1-5.78-2.64-11.46-6.29-15.86a58.55,58.55,0,0,0-40.13-20,29.23,29.23,0,0,0-7.59.11,8.26,8.26,0,0,0-.81-.55c-2.7-1.56-6.19-1.37-9.24-1.4-3.68,0-7.36.05-11,.29-2.95.19-5.91.51-8.85,1a14.14,14.14,0,0,0,1-1.53c3.53-6.31,2.27-14-4.73-17.51-.32-.15-.61-.3-1-.44a19.32,19.32,0,0,0-2.81-.95h-.06C149.1-.4,141.19.56,134.68,1.3,125.32,2.35,115.94,4.74,108,9.68,100.44,14.34,94.72,21,89.49,27.86q-2.64-1.32-5.33-2.61L83,24.71c-.37.18-.75.38-1.12.58A130.14,130.14,0,0,0,23,88.61C9.48,120.28,11.28,156.13,26.5,187c.32.67.67,1.34,1,2a124.92,124.92,0,0,0,15.06,22.73,120.11,120.11,0,0,0,9.35,10.08q2.47,2.4,5.1,4.66a59.05,59.05,0,0,1,5.22,4.47,21.56,21.56,0,0,0,1.88,1.82c1.45,1.27,3,2.46,4.52,3.6,4,2.92,8.23,5.5,12.38,8.21l11.14,7.29c-1.46,15.81-3.19,31.61-5.93,47.22a230.71,230.71,0,0,1-11.66,21.1,322.57,322.57,0,0,1-24.32,34.1C42,364.38,32.89,374,22.32,382A95.92,95.92,0,0,1,1.81,394l-1.07.44.9.71a361.13,361.13,0,0,0,42.8,29.09c18.15,10.51,37.52,20.25,57.67,26.92-.28,1.42-.53,2.85-.74,4.28q-.09.53-.15,1.05c-.16,1.08-.28,2.16-.39,3.24-.38,3.78-1.29,8.08,2.42,10.54,8.06,5.37,18.14,8.83,27.63,11a98.46,98.46,0,0,0,15.5,2.34c4.43.3,9.18.29,13.16-1.87,3.55-1.94,5.82-5.31,7.5-8.76.7-1.42,1.33-2.87,1.93-4.34.14-.32.27-.65.41-1,1.18-3,2.24-6,3.4-8.93.14-.38.29-.76.44-1.14.23-.58.45-1.15.67-1.74.36-.91.72-1.81,1.07-2.72l20.54,1.12c4.11,1.8,8.23,3.55,12.4,5.23.66,1.31,1.3,2.62,1.94,3.93,1.44,2.95,2.83,5.94,4.27,8.9.16.34.32.69.49,1,1,2,2,4,3.11,6A29,29,0,0,0,227,489.87c8.6,5.76,19.53,6.7,29.69,5.23a91.38,91.38,0,0,0,16.34-4c4.38-1.5,8.72-3.57,11.81-7a20.71,20.71,0,0,0,4.9-10.66c19.05-2.79,37.54-10.79,50.43-24.37A58.64,58.64,0,0,0,350.4,434.4C353.05,428.92,355,422.81,349.51,418.34Z"/><path class="cls-4" d="M279.6,226.44a48.35,48.35,0,0,1,1.7,10,232.94,232.94,0,0,1-4.87,23.89,3.26,3.26,0,0,0-.17-.6c-.07-.24-.13-.48-.19-.72s-.17-.74-.24-1.11l0-.16c-.1-.48-.3-1-.44-1.43-.36-1.19-.62-2.38-.94-3.58s-.67-2.5-1-3.74q-1-3.74-2.12-7.46c-.73-2.48-1.49-4.95-2.26-7.42s-1.57-4.93-2.38-7.39-1.65-4.9-2.51-7.34-1.73-4.88-2.62-7.31l-.84-2.26c-.36-.94-.71-1.89-1.08-2.83,0,0,0,0,0,0C267.81,211.19,276.91,217.43,279.6,226.44Z"/><path class="cls-4" d="M240.48,174.88q-1.2,1.35-2.49,2.64a43.37,43.37,0,0,0-4.69-4l-.76-.49-.38-.24a1.51,1.51,0,0,0-.36-.22c1.95-.35,3.88-.68,5.79-.86a24.15,24.15,0,0,1,5.46.07C242.23,172.85,241.38,173.88,240.48,174.88Z"/><path class="cls-4" d="M250.27,101.18a48,48,0,0,0,8.47,6.41c3.19,1.79,6.56,2.56,10.1,3.45,7.29,1.84,10.89,6.7,13.91,12.92,2.31,4.77,4.27,9.9,8.06,13.84,4.28,4.46,10.41,5.79,16.18,7.72,3.54,1.19,7,2.71,9.53,5.43a27,27,0,0,1,4.87,8.3c2.13,5.08,3.86,10.72,8.38,14.41,5.81,4.74,15.87,4.59,19.34,11.9,1.85,3.87-.28,7.67-4.47,8.71a14.9,14.9,0,0,1-9.42-1c-6-2.67-10.3-8.13-17-9.4-7.66-1.44-15.28,3.12-22.74,4.06a46.9,46.9,0,0,1-24.75-3.64c-6.7-3-12.14-7.92-18.73-11.08a24.44,24.44,0,0,0-7-2.15c-.42-.06-.83-.12-1.24-.16a47.21,47.21,0,0,0-13.2.91c-7.7-4.45-16.74-7.38-25.42-9.4A7.17,7.17,0,0,1,207.6,157c2-1.81,4.67-3,6.41-5.05,3.71-4.45-.2-9.15-2.76-13-2-3.08-3.14-6.22-1.88-9.8,1-2.82,2.82-5.3,4.4-7.85a19,19,0,0,0,3.18-7.69,12.37,12.37,0,0,0-.51-4.77c-.08-.33-.18-.65-.28-1-.37-1.16-.8-2.31-1.18-3.47-.09-.29-.18-.58-.25-.87,5.32-.77,10.58-1.85,15.82-3.1,4.8-1.14,10-1.9,14.54-4l.18.16C247,98.13,248.62,99.7,250.27,101.18Z"/><path class="cls-4" d="M81.62,167.22c-7.35-1.76-13.9-.55-20.88,2.05-4.23,1.57-8.77,2.91-12.73,0-2.25-1.64-4-4-6.92-4.69a15,15,0,0,0-4.77.05c-2.22.22-4.44.37-6.67.42s-5.75.59-7.5-.7c-2-1.52-1.23-4.86-.28-6.87,3.15-6.75,11.41-9.18,15.68-15.08,3.83-5.28,4.28-12.16,8.41-17.27,3.89-4.81,10.44-6.23,15.52-9.54a14.39,14.39,0,0,0,5.13-5.44c1.65-3.28,1.68-7.06,3.37-10.33,3.35-6.48,11.74-8.63,18.28-11,7.43-2.66,14.93-5.68,21.07-10.57a60,60,0,0,0,7.8-8.14c.18-.2.36-.41.55-.61a31.1,31.1,0,0,0,6.23,13.91,36.38,36.38,0,0,0,11,9.65,39.3,39.3,0,0,1-6.34,8.4c-2.87,3-6,6.33-6.72,10.5-.9,5,2.84,10.3.85,15.1-1.81,4.38-7.76,5-10.81,8.29-2.65,2.88-2.77,6.79-2.48,10.41.36,4.56,1.67,9.6-.28,14-2.43,5.46-9.06,7.32-14.78,7.51-3.9.13-7.75-.13-11.62-.24a4.56,4.56,0,0,1-.76.07c-.15,0-.28,0-.43,0C81.58,167.13,81.59,167.17,81.62,167.22Z"/><path class="cls-4" d="M94.5,168.28c4.68-.15,9.6-1.32,13-4.53,3.18-3,3.81-7.05,3.6-11.11-.25-4.69-2-10.15.22-14.63,2.26-4.64,8.31-5,11.33-8.83s.85-8.75.24-13c-.87-6,2.79-10.15,6.74-14.35a38.53,38.53,0,0,0,6.15-8.24c.75.43,1.52.84,2.31,1.25,5.83,3,11.77,5.92,18.18,7.44,6.57,1.56,13.38,1.64,20.09,1.85,3,.09,6,.21,9.07.23a24.42,24.42,0,0,0,8.7-1.21,7.53,7.53,0,0,0,1.42-.71,5.79,5.79,0,0,0,2.82,1.67,25.77,25.77,0,0,0,6.57.28,46.15,46.15,0,0,0,8.3-.73.47.47,0,0,0,.21,0l.32,0c.39,1.49.89,3,1.35,4.43,0,.1.06.19.08.29.11.33.19.66.27,1,.85,3.86-.08,7.13-2.17,10.67-1.65,2.77-3.7,5.41-4.84,8.43C206,135,210.88,139,213.6,144.5c4,8.18-7.44,9.19-9.29,15.64a8.26,8.26,0,0,0-.32,2c-1.39-.32-2.78-.61-4.14-.88-24.71-4.91-51.06-6.77-75.19,1.63A82.83,82.83,0,0,0,103.17,174a.43.43,0,0,0-.52.05,64.27,64.27,0,0,0-10.24,11.07l0,0-.63-.79a52.14,52.14,0,0,1-7.06-11.9c-.61-1.44-1.15-2.89-1.62-4.37C86.87,168.15,90.66,168.41,94.5,168.28Z"/><path class="cls-4" d="M195.21,98.88a2.36,2.36,0,0,1,.41-1.49,2.28,2.28,0,0,1,.49-.49.91.91,0,0,1,.71-.19.93.93,0,0,1,.65.87,2.2,2.2,0,0,1-.13.8,5.65,5.65,0,0,0-.17.71,3.23,3.23,0,0,1-.67,1.3,4.44,4.44,0,0,1-.67.7s-.38-.94-.4-1A4.89,4.89,0,0,1,195.21,98.88Z"/><path class="cls-4" d="M193.07,23.4a3.49,3.49,0,0,1,1.39,2.89,2.94,2.94,0,0,1-2.71,2.84c-3.71.22-2.1-4-.47-5A6.44,6.44,0,0,1,193.07,23.4Z"/><path class="cls-4" d="M187.37,21.51a12.19,12.19,0,0,1,4.84,1.3c-2,.64-3.59,2.06-3.66,4.1a2.92,2.92,0,0,0,2.83,3,4,4,0,0,0,3.86-2.56A4.22,4.22,0,0,0,194,23.21a28.32,28.32,0,0,1,5-.07,57.51,57.51,0,0,1,6.81.67A58.46,58.46,0,0,1,230.77,34c7,5.06,15.14,13,15.76,21.64a11.1,11.1,0,0,1-.52,4.24,6.49,6.49,0,0,0-.65-.31c-2-.81-5.29-1.34-7,.25-1.2,1.09-.81,2.79.21,3.87a4.12,4.12,0,0,0,5.12.47,7,7,0,0,0,2.75-3.1c4.5,2.73,5.61,8.3,6,13,.59,7.06-.94,15.81-6.39,20.9a.4.4,0,0,0-.29,0l-.5.23a1.92,1.92,0,0,1-.41.19,1.74,1.74,0,0,1-.69.31c-4.6,2-9.85,2.74-14.66,3.88l-.89.21c-1.7.39-3.4.77-5.11,1.12s-3.42.67-5.14,1-3.41.59-5.12.78c-.72.08-1.45.26-2.17.37s-1.54.22-2.31.3a41.52,41.52,0,0,1-4.73.25,31,31,0,0,1-4.52-.31,5.23,5.23,0,0,1-3.12-1.43c1.52-1.26,2.52-3.09,1.84-5-.91-2.56-3.24-1-3.79.87a4.86,4.86,0,0,0,.55,4,9.08,9.08,0,0,1-2,.8,29.61,29.61,0,0,1-9.24.89c-1.54-.05-3.06-.2-4.59-.3s-3.36.15-5,.13c-2.77,0-5.52-.42-8.27-.58a57,57,0,0,1-8.54-1.1c-6.08-1.31-11.75-4-17.27-6.77-1.32-.67-2.6-1.35-3.83-2l-.9-.52a34.19,34.19,0,0,1-9.91-8.35c-3.42-4.33-6.07-9.26-6.82-14.72a1.73,1.73,0,0,1,.07-1.7,1.93,1.93,0,0,0,0-.24c.18-5.53,1.45-12.19,6.53-14.27.17,2.49,1.32,4.62,4.65,4.19a2.79,2.79,0,0,0,2.57-2.15,2.16,2.16,0,0,0,0-.57,2.51,2.51,0,0,0-.53-1.24l-1-.83a5.84,5.84,0,0,0-2.11-.77,4.4,4.4,0,0,0-.51-.05,6.31,6.31,0,0,0-2.36.25,11.05,11.05,0,0,1,.26-1.78c.07-.33.15-.64.23-.93l0-.09a28.76,28.76,0,0,1,6-10.89,42.93,42.93,0,0,1,16-11.25c.52-.23,1.06-.45,1.6-.65a57.58,57.58,0,0,1,5.66-1.86q2.58-.71,5.27-1.24l1.64-.3A99.31,99.31,0,0,1,187.37,21.51Z"/><path class="cls-4" d="M245.7,60.69a5.77,5.77,0,0,1-3,3.06c-1.57.66-4.33-.06-4.22-2,.14-3,5-2,6.51-1.34C245.26,60.47,245.47,60.58,245.7,60.69Z"/><path class="cls-4" d="M128.71,56.25c-2-.37-2.67-1.91-2.73-3.6a8.21,8.21,0,0,1,1.06-.26,5.45,5.45,0,0,1,2.77.23,3.56,3.56,0,0,1,.9.49,2.27,2.27,0,0,1,.76.9h0C132,55.34,130.37,56.55,128.71,56.25Z"/><path class="cls-4" d="M103.07,14.49A53.49,53.49,0,0,1,126.52,3.61c8-1.68,16.8-2.66,25-1.85l.42.05A57.46,57.46,0,0,0,139,5.35a92.14,92.14,0,0,0-11,5.22c-2.85,1.58-5.54,3.5-6.46,6.65-.18.61.79,1,1,.38,1-3.47,4.34-5.31,7.46-7a96.65,96.65,0,0,1,10.3-4.71,52.14,52.14,0,0,1,15.27-3.5h0a14.71,14.71,0,0,1,6.28,3.06c3.36,2.94,4.07,7.41,2.81,11.45a15.45,15.45,0,0,1-2.78,5.16,66.63,66.63,0,0,0-13,3.65c-.63.26-1.26.52-1.88.8a45.23,45.23,0,0,0-11.57,7.35A32.22,32.22,0,0,0,126,47.64c-.08.24-.15.49-.22.77-3.11-2.12-6.35-4-9.49-5.92q-12.63-7.56-25.85-14.16A82.08,82.08,0,0,1,103.07,14.49Z"/><path class="cls-4" d="M164.06,476.12c-5.87,8.52-17.07,7-26.26,5.49A98.23,98.23,0,0,1,110.4,473a37.36,37.36,0,0,1-6.81-3.72c-2.93-2.32-2-6.24-1.72-9.42.1-1,.21-1.92.34-2.88a92.59,92.59,0,0,0,14.76,5.6l1.24.35c15.92,4.39,33,5.26,49.61,5.72A36.38,36.38,0,0,1,164.06,476.12Z"/><path class="cls-4" d="M173.52,453.91v0c-.23.62-.47,1.22-.71,1.83h0l-3.36,8.62c-.42,1.07-.82,2.15-1.24,3.23-16.35-.44-33.23-1.25-48.94-5.47L118,461.8a94,94,0,0,1-15.65-5.9h0c.23-1.49.48-3,.77-4.44l1.59.52a92.8,92.8,0,0,0,21.38,4.35l1.68.09h0l1.37-.9c14.81-9.73,30.74-19.7,42.36-32.5.25,9.64-.61,19.53.67,29,0,.33.09.67.14,1l1.08.06.47,0C173.75,453.36,173.64,453.63,173.52,453.91Z"/><path class="cls-4" d="M213,467.42c-1.2-2.45-2.4-4.9-3.58-7.35,16.14,6.44,32.82,11.69,50.08,13.71-4.13.08-8.27,0-12.35-.09q-15.88-.33-31.77-1.31C214.54,470.73,213.76,469.07,213,467.42Z"/><path class="cls-4" d="M286.82,479.23c-4.25,9.19-16,12-25.34,14-10.12,2.13-21.12,2.47-30.53-2.21-7.73-3.84-11.66-10.52-15.12-17.6q16.6,1,33.23,1.32c5.86.1,11.82.15,17.69-.32h.06c1.84.12,3.68.2,5.53.23a106.93,106.93,0,0,0,16.24-1A24.2,24.2,0,0,1,286.82,479.23Z"/><path class="cls-4" d="M20.15,163.54c1,3.14,4.58,2.53,7.44,2.54,2.44,0,4.89-.09,7.33-.29,3.16-.26,6-.81,8.69,1.14,2.94,2.11,5,4.86,9,5.13s7.83-1.65,11.47-2.95a29.67,29.67,0,0,1,17.76-.81.71.71,0,0,0,.25,0c.12.43.27.85.42,1.27A53.67,53.67,0,0,0,91,184.9l.64.8.22.27.65.78c.71.83,1.45,1.64,2.21,2.44a4.47,4.47,0,0,1,.42.45c.15.15.28.31.42.46l-.2-.14,0,.08a3.08,3.08,0,0,1,.49.65c.12.23.25.45.39.67,0,0,.11.15.18.25l.22.27.17.17,1.51.92a.44.44,0,0,0,.19.07l.22.2c.34.12.69.26,1.06.43,1.23.76,2.45,1.52,3.69,2.26.33.19.63.39.93.59l0,0a7.4,7.4,0,0,1,1.7,1.83,11.8,11.8,0,0,1,1.3,1.92c2.48,4.44,2.16,9.84,1.83,14.87-.36,5.91.55,13.09-4.37,17.59-.48.44.15,1.25.63.8,5.22-4.77,4.4-12,4.79-18.26.34-5.45.66-11.34-2.28-16.06,0-.06-.07-.13-.12-.2a4.54,4.54,0,0,1-.14-.68c.07.69,0,.16,0-.05l0-.14a.08.08,0,0,0,0,0,4.68,4.68,0,0,1-.77-1,9.44,9.44,0,0,0-2-1.54c-2.16-1.22-4.24-2.56-6.34-3.86a66.81,66.81,0,0,1-5.49-5.81,63.13,63.13,0,0,1,10.16-11l.16.21c14.27-10.52,32.38-15.73,50.38-16.8a168.66,168.66,0,0,1,38,2.51c4.07.69,8.17,1.42,12.24,2.3l1.16.26a93.16,93.16,0,0,1,21,7c1,.51,2,1.06,3,1.64l.11,0a1.64,1.64,0,0,1,.75.4,2.44,2.44,0,0,1,.44.4c.09,0,.37.24.45.28l.49.32.93.61a17.66,17.66,0,0,1,2.41,2.07,12.67,12.67,0,0,0,1.16,1l1.36,1.07c.27.22.53.44.79.69.7.59,1.39,1.23,2,1.89,1,1,2,2.06,2.86,3.15s1.21,1.15.71,2.2c-.4.84-1.67,1.72-2.32,2.39l-3.18,3.28-.5-.22c-1.19-.52-2.39-1-3.59-1.51s-2.41-1-3.63-1.43l-1.82-.68c-.21-.07-.41-.17-.63-.23a2.8,2.8,0,0,0-.28-.06l-.33-.13c-.43-.17-.87-.34-1.31-.49l-.38-.14-.82-.28a163,163,0,0,0-30-7.05,161.42,161.42,0,0,0-27.36-1.39c-.67,0-.53,1,.14,1a161.64,161.64,0,0,1,57.49,8.64c.39.12.78.26,1.17.4l.59.21,2.55.92q4,1.5,7.92,3.23c.32.13.65.28,1,.43q5.28,2.34,10.37,5.09c.74.41,1.49.82,2.24,1.25a.38.38,0,0,0,.14.09l.07,0a20.45,20.45,0,0,1,3.34,1.68,10.12,10.12,0,0,1,.92.65l.06.05a7.54,7.54,0,0,1,2.41,3.25,7.89,7.89,0,0,1,.29.86c0,.08.05.17.07.26a2.56,2.56,0,0,0,.05.27,5.37,5.37,0,0,1,.21.56c.07.21.13.41.19.62a6.09,6.09,0,0,0,.17.61l.47,1.26c.34.91.69,1.82,1,2.73s.67,1.82,1,2.74.66,1.83,1,2.74.65,1.83,1,2.75.64,1.84,1,2.76l.93,2.76c.31.92.62,1.84.92,2.76l.9,2.77c.29.93.59,1.85.88,2.78s.58,1.85.86,2.78.57,1.86.85,2.78.55,1.86.83,2.79l.81,2.8c.26.93.53,1.86.79,2.8s.52,1.87.77,2.8.51,1.87.76,2.81.5,1.87.74,2.81c.11.41.21.83.32,1.24.24.92.47,1.85.69,2.81l.45,1.8.48,2q3.44,14.13,5.95,28.42c2.84,16.08,4.06,32.41,7.24,48.43a106.24,106.24,0,0,0,42.07,66.81q4.17,3,8.62,5.71c2.86,1.71,6.1,3.09,8.65,5.21,6.75,5.6,1,14.95-2.74,20.78-12,18.54-34,29.17-56.25,32.55-.35.06-.72.12-1.09.16q-3.82.56-7.63.81-4,.27-8,.25h0c-2.21,0-4.41-.08-6.6-.23h-.05c-19.88-1.2-39.29-7.28-57.8-14.73-.5-.2-1-.4-1.5-.61-3-1.2-5.89-2.44-8.79-3.69l-2.63-1.14-2.87-.16-17.58-1-1.09-.06-1-.06c-1.38-9.82-.44-20.1-.77-30.09l-.06-1.46c-.31.37-.61.71-.94,1.08-11.89,13.47-28.69,23.78-44.06,33.89a90.36,90.36,0,0,1-24.13-4.81l-1-.33A273.17,273.17,0,0,1,76,439.39a365.05,365.05,0,0,1-56.44-32.23q-8.61-6-16.83-12.49c17.46-7.52,32.07-20.79,44.21-34.85C61.84,342.55,75.32,323.35,85.52,303c.54-1.08,1.08-2.16,1.6-3.24a2.72,2.72,0,0,0,.11-.25c.22-1.28.4-2.59.52-3.84a1.89,1.89,0,0,1,.17-.61c2.31-14.1,3.86-28.34,5.18-42.58l7.11,4.66c0-.15.07-.29.09-.44s0-.45.07-.67l-7.17-4.7-.94-.61-10.59-6.94c-4.18-2.73-8.45-5.33-12.46-8.28-1.25-.92-2.48-1.87-3.65-2.87-1-.82-1.88-1.71-2.76-2.61a32.06,32.06,0,0,0-2.51-2.13q-2.53-2.07-4.94-4.25a127.52,127.52,0,0,1-9.1-9.21,124.57,124.57,0,0,1-25.41-44c-.71-2.15-1.36-4.33-1.95-6.52-.51-1.89-1-3.8-1.4-5.71a123.43,123.43,0,0,1-2-12.51c-.06-.56-.11-1.13-.16-1.7-3.11-33.24,9.21-66.29,32.35-91.21A129.24,129.24,0,0,1,83,25.83c1.95.93,3.9,1.88,5.83,2.85l.94.47q12.75,6.36,25,13.62c3.53,2.1,7.24,4.26,10.73,6.66a16.3,16.3,0,0,0-.28,2.57c-2.85,1.19-4.91,4.2-5.88,6.8A26.86,26.86,0,0,0,117.83,67a.5.5,0,0,0-.37.52c0,.28,0,.56.07.83-1.14,1.14-2.17,2.36-3.12,3.48-5.29,6.31-12.17,10.42-19.9,13.6-6.71,2.77-14.42,4.38-20.41,8.52A15.21,15.21,0,0,0,68.34,101c-1.39,3.69-1.46,7.83-4.16,11-4.27,5-11.69,6.12-16.72,10.24-5.3,4.33-6.23,11.12-9.1,16.84-3.66,7.28-12.34,9.78-16.61,16.52C20.29,157.88,19.3,160.86,20.15,163.54Z"/><path d="M248.59,398.89c2.75,8.12-1.72,15.75-8.85,19.71l-.5.26a13.26,13.26,0,0,1,.77,1.23c4.16,7.76-.23,16.78-6,22.33-6.93,6.7-16.19,11.37-25.42,13.93-8,2.24-18.07,3.85-25.08-1.85a13,13,0,0,1-4.5-6.7,3.12,3.12,0,0,0-.62.15.52.52,0,0,1-.17,0,30.4,30.4,0,0,1-8.09,3.11c-7.9,1.79-17,.54-23.66-4.36-2.88-2.13-5.16-5.25-5.08-9a8.24,8.24,0,0,1,.88-3.5c-6.12-3.27-12.16-7.56-14.66-14.22-1.65-4.38-1.52-9.37-1.2-14a63.87,63.87,0,0,1,2.91-15.13c1.29-4,2.85-8.38,6-11.35,3.3-3.13,8.21-4.13,12.48-5.23,7-1.8,16.58-4.32,21.63,1.83a35.91,35.91,0,0,1,6.82-3.22c9.53-3.37,19.84-2.77,29.61-.83,9,1.78,18.07,4.32,26.08,8.85C239,385,245.92,391,248.59,398.89Zm-7.88,18c6.58-4.31,9.57-11.72,6.36-19.13-2.5-5.77-7.25-10.45-12.4-13.91-10.82-7.26-25-10.87-37.89-12-7.18-.65-14.53-.13-21.29,2.52a33.76,33.76,0,0,0-5.41,2.71,12.5,12.5,0,0,1,1,1.81c1.26,2.76,1.45,6.76-1.22,8.79a5.33,5.33,0,0,1-6.54-.13c-2.4-2.3-.52-5.68,1.35-7.58a25,25,0,0,1,3.85-3.15c-2.51-2.88-6.08-3.92-9.9-3.56a72.13,72.13,0,0,0-12.4,2.6c-3.21.88-6.75,1.72-9.41,3.81-2.88,2.26-4.4,5.74-5.64,9.08a62.71,62.71,0,0,0-2.89,10.6c-1.23,6.82-2.19,15.23.83,21.7,2.68,5.73,8.27,9.5,13.7,12.4a5.47,5.47,0,0,1,3.1-2.24c2.25-.6,4.85.69,4.5,3.3-.45,3.29-3.53,2.11-5.53,1.13l-1.74-.89c-1.41,2.68-.65,6.11,1.1,8.47,3.76,5.08,11.18,7.28,17.2,7.64a29.88,29.88,0,0,0,17.39-4.35c0-.15,0-.3,0-.45,0-3.41,3.13-4.76,6.19-4.48,2,.18,4.43,1.63,3.48,4-1.3,3.23-5.51,2.11-8.47,2.19a11.76,11.76,0,0,0,2,3.85c5.16,6.63,14.34,6.42,21.78,4.93a63.79,63.79,0,0,0,21.79-8.81c6.4-4.1,13-9.61,14.62-17.4a15,15,0,0,0-1.93-10.92c-3.31,1.65-7.48,3.12-11,3-3-.12-5-2.8-3.59-5.7s5.51-3.48,8.4-2.8a12.19,12.19,0,0,1,6.54,4.21A23.79,23.79,0,0,0,240.71,416.85Zm-3,1.67a9.84,9.84,0,0,0-7.49-3.94,6.94,6.94,0,0,0-4.37,1.11c-1.6,1.17-2.7,4.12,0,5.39,1.43.68,3.39.14,4.85-.2A34.84,34.84,0,0,0,237.69,418.52Zm-51.06,27.63c1.82-1.28.51-3.08-1.18-3.57-2.14-.61-5.22.41-5.62,2.82,0,.14,0,.29,0,.43.23-.15.47-.29.69-.45.53-.37,1.13.43.6.8l-.67.46c.64,0,1.29,0,2,.09C183.85,446.83,185.36,447.05,186.63,446.15Zm-19.11-58.57c4.78-1,3.78-7,1.68-10a25.93,25.93,0,0,0-2.73,2.05c-1.66,1.43-4.61,4.34-2.76,6.78A3.85,3.85,0,0,0,167.52,387.58Zm-20.33,48c3,.31,3.06-3.74-.41-3.56a4.38,4.38,0,0,0-3.05,1.79l0,.07A11.55,11.55,0,0,0,147.19,435.56Z"/><path class="cls-1" d="M247.07,397.72c3.21,7.41.22,14.82-6.36,19.13a23.79,23.79,0,0,1-2.07,1.21,12.19,12.19,0,0,0-6.54-4.21c-2.89-.68-6.92-.17-8.4,2.8s.55,5.58,3.59,5.7c3.52.13,7.69-1.34,11-3a15,15,0,0,1,1.93,10.92c-1.67,7.79-8.22,13.3-14.62,17.4a63.79,63.79,0,0,1-21.79,8.81c-7.44,1.49-16.62,1.7-21.78-4.93a11.76,11.76,0,0,1-2-3.85c3-.08,7.17,1,8.47-2.19,1-2.37-1.46-3.82-3.48-4-3.06-.28-6.18,1.07-6.19,4.48,0,.15,0,.3,0,.45a29.88,29.88,0,0,1-17.39,4.35c-6-.36-13.44-2.56-17.2-7.64-1.75-2.36-2.51-5.79-1.1-8.47l1.74.89c2,1,5.08,2.16,5.53-1.13.35-2.61-2.25-3.9-4.5-3.3a5.47,5.47,0,0,0-3.1,2.24c-5.43-2.9-11-6.67-13.7-12.4-3-6.47-2.06-14.88-.83-21.7a62.71,62.71,0,0,1,2.89-10.6c1.24-3.34,2.76-6.82,5.64-9.08,2.66-2.09,6.2-2.93,9.41-3.81a72.13,72.13,0,0,1,12.4-2.6c3.82-.36,7.39.68,9.9,3.56a25,25,0,0,0-3.85,3.15c-1.87,1.9-3.75,5.28-1.35,7.58a5.33,5.33,0,0,0,6.54.13c2.67-2,2.48-6,1.22-8.79a12.5,12.5,0,0,0-1-1.81,33.76,33.76,0,0,1,5.41-2.71c6.76-2.65,14.11-3.17,21.29-2.52,12.84,1.15,27.07,4.76,37.89,12C239.82,387.27,244.57,392,247.07,397.72Z"/><path class="cls-1" d="M230.2,414.58a9.84,9.84,0,0,1,7.49,3.94,34.84,34.84,0,0,1-7,2.36c-1.46.34-3.42.88-4.85.2-2.7-1.27-1.6-4.22,0-5.39A6.94,6.94,0,0,1,230.2,414.58Z"/><path class="cls-1" d="M185.45,442.58c1.69.49,3,2.29,1.18,3.57-1.27.9-2.78.68-4.22.58-.7-.05-1.35-.1-2-.09l.67-.46c.53-.37-.07-1.17-.6-.8-.22.16-.46.3-.69.45,0-.14,0-.29,0-.43C180.23,443,183.31,442,185.45,442.58Z"/><path class="cls-1" d="M169.2,377.58c2.1,3,3.1,9-1.68,10a3.85,3.85,0,0,1-3.81-1.17c-1.85-2.44,1.1-5.35,2.76-6.78A25.93,25.93,0,0,1,169.2,377.58Z"/><path class="cls-1" d="M146.78,432c3.47-.18,3.45,3.87.41,3.56a11.55,11.55,0,0,1-3.51-1.7l0-.07A4.38,4.38,0,0,1,146.78,432Z"/><path class="cls-4" d="M248.59,398.89C245.92,391,239,385,232,381c-8-4.53-17.1-7.07-26.08-8.85-9.77-1.94-20.08-2.54-29.61.83a35.91,35.91,0,0,0-6.82,3.22c-5-6.15-14.6-3.63-21.63-1.83-4.27,1.1-9.18,2.1-12.48,5.23-3.14,3-4.7,7.34-6,11.35a63.87,63.87,0,0,0-2.91,15.13c-.32,4.6-.45,9.59,1.2,14,2.5,6.66,8.54,11,14.66,14.22a8.24,8.24,0,0,0-.88,3.5c-.08,3.72,2.2,6.84,5.08,9,6.61,4.9,15.76,6.15,23.66,4.36a30.4,30.4,0,0,0,8.09-3.11.52.52,0,0,0,.17,0,3.12,3.12,0,0,1,.62-.15,13,13,0,0,0,4.5,6.7c7,5.7,17.05,4.09,25.08,1.85,9.23-2.56,18.49-7.23,25.42-13.93,5.74-5.55,10.13-14.57,6-22.33a13.26,13.26,0,0,0-.77-1.23l.5-.26C246.87,414.64,251.34,407,248.59,398.89Z"/><path class="cls-4" d="M169.2,377.58c2.1,3,3.1,9-1.68,10a3.85,3.85,0,0,1-3.81-1.17c-1.85-2.44,1.1-5.35,2.76-6.78A25.93,25.93,0,0,1,169.2,377.58Z"/><path class="cls-4" d="M180.49,445.38c-.22.16-.46.3-.69.45,0-.14,0-.29,0-.43.4-2.41,3.48-3.43,5.62-2.82,1.69.49,3,2.29,1.18,3.57-1.27.9-2.78.68-4.22.58-.7-.05-1.35-.1-2-.09l.67-.46C181.62,445.81,181,445,180.49,445.38Z"/><path class="cls-4" d="M232.1,413.85c-2.89-.68-6.92-.17-8.4,2.8s.55,5.58,3.59,5.7c3.52.13,7.69-1.34,11-3a15,15,0,0,1,1.93,10.92c-1.67,7.79-8.22,13.3-14.62,17.4a63.79,63.79,0,0,1-21.79,8.81c-7.44,1.49-16.62,1.7-21.78-4.93a11.76,11.76,0,0,1-2-3.85c3-.08,7.17,1,8.47-2.19,1-2.37-1.46-3.82-3.48-4-3.06-.28-6.18,1.07-6.19,4.48,0,.15,0,.3,0,.45a29.88,29.88,0,0,1-17.39,4.35c-6-.36-13.44-2.56-17.2-7.64-1.75-2.36-2.51-5.79-1.1-8.47l1.74.89c2,1,5.08,2.16,5.53-1.13.35-2.61-2.25-3.9-4.5-3.3a5.47,5.47,0,0,0-3.1,2.24c-5.43-2.9-11-6.67-13.7-12.4-3-6.47-2.06-14.88-.83-21.7a62.71,62.71,0,0,1,2.89-10.6c1.24-3.34,2.76-6.82,5.64-9.08,2.66-2.09,6.2-2.93,9.41-3.81a72.13,72.13,0,0,1,12.4-2.6c3.82-.36,7.39.68,9.9,3.56a25,25,0,0,0-3.85,3.15c-1.87,1.9-3.75,5.28-1.35,7.58a5.33,5.33,0,0,0,6.54.13c2.67-2,2.48-6,1.22-8.79a12.5,12.5,0,0,0-1-1.81,33.76,33.76,0,0,1,5.41-2.71c6.76-2.65,14.11-3.17,21.29-2.52,12.84,1.15,27.07,4.76,37.89,12,5.15,3.46,9.9,8.14,12.4,13.91,3.21,7.41.22,14.82-6.36,19.13a23.79,23.79,0,0,1-2.07,1.21A12.19,12.19,0,0,0,232.1,413.85Z"/><path class="cls-4" d="M237.69,418.52a34.84,34.84,0,0,1-7,2.36c-1.46.34-3.42.88-4.85.2-2.7-1.27-1.6-4.22,0-5.39a6.94,6.94,0,0,1,4.37-1.11A9.84,9.84,0,0,1,237.69,418.52Z"/><path class="cls-4" d="M143.68,433.86l0-.07a4.38,4.38,0,0,1,3.05-1.79c3.47-.18,3.45,3.87.41,3.56A11.55,11.55,0,0,1,143.68,433.86Z"/></g></g></svg>