<svg xmlns="http://www.w3.org/2000/svg" viewBox="0 0 647.1 394.36"><defs><style>.cls-1{fill:#faf1e4;}.cls-2{fill:#e2eef2;}.cls-3{fill:#d74957;}.cls-4{fill:#ffaea8;}.cls-5{fill:none;stroke:#000;stroke-miterlimit:10;stroke-width:0.75px;}</style></defs><title>Asset 5</title><g id="Layer_2" data-name="Layer 2"><g id="Layer_15" data-name="Layer 15"><path class="cls-1" d="M634.69,194.6c4.65,1.47,11.83,5,10.79,11s-9.13,7.48-14,8.41a84.24,84.24,0,0,1-12.74,1.45l-1.39,0c-1.61,0-3.21,0-4.81,0-.9,0-1.09,1.35-.18,1.38,1.63,0,3.26,0,4.87,0,0,.12,0,.26,0,.39l-21.65,3.2c1.17-4.08.75-8.79.06-12.83s-1.82-9.19-4.8-12.35a8.51,8.51,0,0,0-7.07-2.59l-.09-1.8a218.28,218.28,0,0,1,32.85.26A87.86,87.86,0,0,1,634.69,194.6Z"/><path d="M642,196.53c6.08,4.27,6.59,11.74-.17,15.63-3.8,2.19-8.43,3-12.69,3.65a84.58,84.58,0,0,1-10.51,1c0,.07,0,.15,0,.22l-.12,1.42c-.85,9.83-2.4,20.6-8.46,27.88h0a22.88,22.88,0,0,1-2.28,2.34,0,0,0,0,1,0,0,22.08,22.08,0,0,1-6.34,4c-8.11,3.35-18.63,2.73-27.2,2a102.09,102.09,0,0,1-21.22-4.18,40.36,40.36,0,0,1-5.45,5c-.51.38-1,.75-1.56,1.1-.64-.14-1.27-.28-1.91-.39q-13-2.7-26.13-5.13-65.38-12.23-131.63-18.74c5.21,10.48,10,21.15,13,32.5.49,1.87.95,3.73,1.35,5.62.12.48.21,1,.31,1.45s.17.79.25,1.19q7,4.67,13.51,10a89.79,89.79,0,0,1,20.07-12.63,86.33,86.33,0,0,1,14.08-4.74c3.73-5.46,9.07-9.77,16.2-7.76,3,.84,6,2.1,8.06,4.33,4.52-.27,9-.41,13.56-.5,5.54-.09,11.31-.54,16.81.24,7.67,1.1,16.56,7.3,13.26,16.13-2.44,6.49-8.31,8.79-14.58,9.42a30.65,30.65,0,0,1-.39,5c-.06.39-.13.78-.2,1.16a40.83,40.83,0,0,1-12,21.27c-9.13,8.68-21.2,13-33.41,15.92,1,1.6,2,3.26,2.95,4.95.23.41.46.83.68,1.25l-1,.85c-25.8,22.68-57.61,37-90.74,45.37-31.92,8-65.26,11-98.12,10.66-34.22-.42-69.33-5.92-99.32-23.32-25.08-14.55-46.57-37.34-54.2-65.87-6.14-23.05-3.34-48.88,9.79-68.82a87.38,87.38,0,0,1-9-13.41c-.08-.16-.16-.29-.23-.45-.81-.28-1.61-.58-2.39-.88-4.68-1.75-9.24-3.1-14.3-2.95a75,75,0,0,0-11.37,1.5c-7.12,1.34-14.58,2.9-21.74.9-8-2.25-14.76-7.52-22.82-9.82-9.24-2.63-18.13-2.35-27.58-1.45-5.8.56-12.35.1-15.41-5.64C-.94,199.38.9,195,5.47,193.31c3.42-1.25,7.38-1.07,10.27-3.56,2.65-2.3,3.78-5.89,5.12-9A20.79,20.79,0,0,1,31.58,169.4c5.59-2.61,11.75-3.59,17.38-6.08a19.46,19.46,0,0,0,8.42-6.54c2-2.92,3.2-6.38,5.7-9,3.87-4,9.49-5.46,14.72-6.84,7.8-2.06,14.3-4.45,17.67-12.41,2.76-6.48,5-12.3,10.59-16.93a29.66,29.66,0,0,1,9.69-5.32c-.46-13.05,4.22-26.82,11.3-36.76a39.76,39.76,0,0,1,11.18-10.79,32.12,32.12,0,0,1,1.2-11.08c4.93-17.29,18.83-30.38,34.72-38C191.08,1.6,212.53-2.08,231,2.14c7.51,1.72,15.12,6,18.55,13,22.67-5.53,48.24,8.75,64.13,24.38,3.79,3.72,7.12,8.37,8.47,13.36,4,4.3,7.27,9.88,10.35,14a24.26,24.26,0,0,0,7.44,6.9c2.82,1.55,5.94,2.14,9,3.13,5.19,1.7,8.34,4.95,11,9.61,3,5.24,5.44,10.44,11.1,13.31,4.54,2.3,9.68,3.08,14.6,4.18,4.1.91,8.34,2,11.89,4.29,4,2.62,5.89,6.51,7.18,10.94,1.88,6.43,3.58,12.62,11.35,13.51,5.49.63,11-.68,16.29,1.46a.76.76,0,0,1,.42.56c.67,7.85-6.5,13.14-13.35,15-4.51,1.25-9.26,1.38-13.84,2.2a25.75,25.75,0,0,0-14.18,7.33c-2.3,2.26-4.47,4.77-6.88,6.92q23.55-.66,47.13-.12,32.85.78,65.58,3.87,16.35,1.55,32.64,3.68,8.14,1.06,16.27,2.27c4.35.65,9,1,13.17,2.32,6.76,2.11,8.17,7.32,8.43,13.29a57.42,57.42,0,0,1,10.49-1.73,237,237,0,0,1,33.28-.45,108.24,108.24,0,0,1,17.92,2.4C633.8,192.77,638.27,193.93,642,196.53Zm3.49,9c1-6-6.14-9.5-10.79-11a87.86,87.86,0,0,0-18.19-3.45,218.28,218.28,0,0,0-32.85-.26c-.92,0-1.83.1-2.75.15a61,61,0,0,0-13.11,2c0,.81,0,1.63,0,2.45,0,4.75-.07,9.52-.36,14.27A103.65,103.65,0,0,1,565.68,224c-.14.68-.29,1.37-.45,2A55.72,55.72,0,0,1,554,249.34a99.34,99.34,0,0,0,19.12,3.82c8.5.84,18.51,1.41,26.72-1.38a22.3,22.3,0,0,0,3.73-1.67c-5.73,1.69-11.69,2.54-17.53,1-5.12-1.33-10.66-6.37-7.61-11.69-5.6-2.3-8.46-8.81-3.83-13.8-2-2.53-2.81-5.82-3.25-9a70.54,70.54,0,0,1-.69-10.76c0-1.51-.15-3.42.48-4.8a11.53,11.53,0,0,1,2-3.22,17.94,17.94,0,0,1,8.3-4.75,11.75,11.75,0,0,1,2.32-.4,8.51,8.51,0,0,1,7.07,2.59c3,3.16,4.1,8.21,4.8,12.35s1.11,8.75-.06,12.83l21.65-3.2c0-.13,0-.27,0-.39-1.61,0-3.24,0-4.87,0-.91,0-.72-1.41.18-1.38,1.6,0,3.2,0,4.81,0l1.39,0A84.24,84.24,0,0,0,631.47,214C636.35,213.05,644.42,211.54,645.48,205.57Zm-28.4,13.11-22,3.26c0,.09-.06.16-.09.23-3,7.12-12.19,10.27-18.55,5.33a10.48,10.48,0,0,1-.93-.82,7,7,0,0,0,1.2,10.44,9.65,9.65,0,0,0,2.45,1.21h0a7.76,7.76,0,0,0,1.07.32,41.52,41.52,0,0,0,7.3.88,115.61,115.61,0,0,0,24.6-.79.64.64,0,0,1,.7.4C615.52,233,616.48,225.54,617.08,218.68Zm-4.69,21.41a.32.32,0,0,1-.09,0,119.45,119.45,0,0,1-16.9,1.13c-5.1,0-10.64,0-15.6-1.34,0,0,0,0-.07,0-2.4,3.86,1,7.76,4.64,9.26a23,23,0,0,0,10,1.29,46,46,0,0,0,12.76-3A23.48,23.48,0,0,0,612.39,240.09ZM594,220.81c2.33-6.52.58-16.19-2.46-22.06a7.85,7.85,0,0,0-8.81-4.38,16.5,16.5,0,0,0-1.81.45,15.9,15.9,0,0,0-6.43,3.58c-2.06,2-2.62,4.38-2.49,7.18,0,1.56-.11,3.15-.09,4.72a46.57,46.57,0,0,0,.32,4.72,22.49,22.49,0,0,0,2.62,8.47c4.49,7.72,15.55,5.84,18.85-1.87a1,1,0,0,0,.08-.24A.72.72,0,0,1,594,220.81Zm-27.38-27.44c0-.49,0-1,0-1.46a19.58,19.58,0,0,0-1-6.43c-1.8-5.06-6.86-6.13-11.54-6.91-5-.81-9.92-1.52-14.89-2.22q-29.47-4.18-59.18-6.42a919.66,919.66,0,0,0-97.23-2.23,18.21,18.21,0,0,1-6.72,3.38c-5.29,1.33-11.45,0-16,3.58a14.4,14.4,0,0,0-2.13,2.07,72.66,72.66,0,0,1-2.1,11.71c-3.34,12.41-10.11,22.92-18.64,32,3.43,1.17,6.83,3.49,9.94,5.13q6.27,3.34,12.42,6.94,11.79,6.94,23,14.82a.7.7,0,0,1,0,1.1A452,452,0,0,1,329,284.08c-2.07,1.17-4.51,3-7,4.11,3.9,4.6,8.28,8.81,12.21,13.38,12.2-5,24.2-10.45,36.18-15.92,9.15-4.16,18.3-8.4,27-13.35l1.38-.78.56-.32c-.56-2.59-1.19-5.19-1.91-7.75-3-10.89-7.74-21.17-12.81-31.28l-.74-1.47c-2.73-5.43-5.56-10.79-8.26-16.17-.41-.81.89-1.33,1.29-.53,2.83,5.6,5.76,11.2,8.59,16.85q8.91.85,17.81,1.84,71.66,7.86,142.34,22.42a36.35,36.35,0,0,0,5.86-5.07c.35-.38.69-.75,1-1.14,8-9.23,11.9-22.22,13.13-34.37.46-4.53.63-9.09.7-13.65,0-.5,0-1,0-1.52v-.23C566.43,197.3,566.56,195.35,566.59,193.37Zm-54.11,88.55c5.78-5.61,3.58-13.48-3.3-16.84-6-2.93-13.41-2.06-19.88-2-5.07.08-10.15.21-15.21.52-.51,0-1,.05-1.54.09l-1.8.12A131.78,131.78,0,0,0,449.56,267c-.61.14-1.24.29-1.85.46a81,81,0,0,0-14.11,5.06A89.88,89.88,0,0,0,415.76,284a179.4,179.4,0,0,1,38.64,44.14l1,1.52c11.16-2.69,22.17-6.46,31.07-13.77a40.15,40.15,0,0,0,13.39-20.74,44.62,44.62,0,0,1-16.43,8.26c-.87.22-1.4-1.06-.53-1.29a43.87,43.87,0,0,0,17.43-9.16,30,30,0,0,0,.46-5.27,64.78,64.78,0,0,1-9.21-.22c-.89-.07-.7-1.45.18-1.38,1.34.11,2.66.22,4,.29s2.73.11,4.1.07c.39,0,.78,0,1.17,0a14.13,14.13,0,0,0,1.85-.18c.56-.07,1.12-.17,1.66-.28a17.24,17.24,0,0,0,3.2-.94,14.62,14.62,0,0,0,2.95-1.56A17.47,17.47,0,0,0,512.48,281.92Zm-43.77-19.33c.87-.07,1.75-.14,2.61-.19a17.19,17.19,0,0,0-9.44-3.55c-4.87-.1-8.44,2.73-11.15,6.4A130.16,130.16,0,0,1,468.71,262.59Zm-10.6,74.06c-1-1.88-2.12-3.71-3.26-5.48-.27-.41-.53-.83-.81-1.24-1.2-1.84-2.4-3.59-3.5-5.26a178.94,178.94,0,0,0-35.86-39.83l-1.09-.89q-5.85-4.72-12.07-8.95c-.53-.37-1.06-.73-1.6-1.07h0c-.37-.27-.75-.52-1.14-.77h0c-11.21,6.43-23.11,11.65-34.85,17-9.46,4.29-19,8.58-28.74,12.58l-1.35.56c-6.9,2.82-13.86,5.48-20.89,7.88-.51.18-1,.34-1.5.5q-4.73,1.61-9.49,3l-1.42.43c-6.84,2-13.74,3.71-20.74,5-.46.1-.92.18-1.38.27-1.38.25-2.76.48-4.14.71-.49.07-1,.15-1.45.21-3.89.6-7.79,1.06-11.73,1.39q-7.89.65-15.85.52l-1.7-.05c-25.15-.73-50.18-7.79-70.07-23.69a.7.7,0,0,1,.87-1.09c14,11.15,30.69,18.05,48.21,21.24a135.34,135.34,0,0,0,20.07,2.11c-4.66-7.42-8.29-15.46-12.1-23.33q-5.43-.3-10.88-.67c-3.66-.27-7.31-.56-11-.91s-7.3-.72-10.94-1.16-7.28-.92-10.9-1.45c-4.95-.72-9.1-2.06-11.26-6.91-2.82-6.37-4.48-13.5-6.54-20.14-.14-.43-.32-.93-.52-1.49-1.33-.47-2.67-1-4-1.52a95.94,95.94,0,0,1-37.38-27.09c-15.19,23.38-16.08,54.77-4.85,80.19,12.11,27.41,36.63,47.73,63.66,59.57,31.93,14,67.58,16.63,102,15.53C348.05,390.45,411.82,377.49,458.11,336.65ZM427.44,144c2.22-2,6.75-8.3,1.69-9.38-5.62-1.22-11.74.78-17.2-1.44s-6.83-7.47-8.25-12.5c-1.71-6-4.35-10.54-10.36-13-9.14-3.8-20.82-2.81-28.14-10.4-4.14-4.3-5.71-10.33-9.66-14.74-4.8-5.39-12.8-4.78-18.44-9-5.19-3.87-9.31-12.25-14.44-18.41a15.44,15.44,0,0,1-.78,7.78c6.67,7.12,7.7,18.1,5.19,27.26a40,40,0,0,1-5.94,12.56c-.25.36-.51.72-.79,1.07a52.72,52.72,0,0,1-16.88,14.25c1.53,4.82,7.09,9.38,10,12.54a16.35,16.35,0,0,1,4.53,8.43c.69,4.45-.63,8.92,2.16,12.9,2.09,3,5.17,5.17,7.34,8.09a30.15,30.15,0,0,1,4.41,8.66c2.09,6.44,2.32,13.34,2,20-.08,1.79-.22,3.57-.37,5.34-.12,1.28-.66,3-.42,4.22.78,4.07,7,3.21,9.66,1.94,7-3.36,8-12.71,10.83-19.05a21.66,21.66,0,0,1,2.9-4.82,14.16,14.16,0,0,1,1.56-1.72,14,14,0,0,1,6.92-3.58c3.91-.8,8-.38,11.84-1.65a16.06,16.06,0,0,0,3.45-1.64h.09a19.74,19.74,0,0,0,2-1.44h0c.73-.6,1.38-1.17,2-1.8,4.12-3.86,7.53-8.56,12.63-11.24,6.16-3.24,13.3-3,20-4.34A21.91,21.91,0,0,0,427.44,144ZM380.85,247.88c-13.69-9.57-28.24-19-43.53-25.76a7.27,7.27,0,0,0-1.36-.46,121.52,121.52,0,0,1-11.77,10.55c.71,7.68-.82,15.71-5.57,21.62-6.29,7.81-17.24,8.37-25.64,3.72a24.07,24.07,0,0,1-3.94-2.7l-1,.49a.62.62,0,0,1,.75.21l19.28,23.68c1.59,1.95,3.11,4,4.86,5.85a6.69,6.69,0,0,0,6.5,2.26,10.94,10.94,0,0,0,1.43-.43c.39-.16.8-.35,1.2-.56,4.35-2.27,8.6-4.79,12.82-7.3A449.26,449.26,0,0,0,380.85,247.88Zm-24.7-68.66a38.43,38.43,0,0,0-2.79,6.39c-2.25,6.37-4.46,14.34-11.72,16.55a9.7,9.7,0,0,1-8-.71c-2.79-1.77-1.91-3.48-1.63-6.49.81-8.52,1.23-17.48-1.45-25.73a29.35,29.35,0,0,0-7.18-11.71c-2.56-2.59-5.34-5-6.24-8.72-1.17-4.8.47-9.64-2.29-14.11-2-3.29-5.2-5.69-7.85-8.43a19.57,19.57,0,0,1-4.66-7.6,87.89,87.89,0,0,1-25.68,8.6,12.46,12.46,0,0,1,.56,3,.7.7,0,0,1,.75.94,39.81,39.81,0,0,1-7.26,12.3c-15.08,17.42-39.25,20-60.85,20.17-11.2.11-23.29.15-33.19-5.82-5.09-3-9.9-8-11.72-13.86a40.61,40.61,0,0,1-21.73-1.25c-2.57,3.49-5.76,6.53-7.86,10.37-2.4,4.38-2.29,8.63-.64,13.25,1.29,3.59,3.22,7.08,3.7,10.92.58,4.41-1.81,7.59-2.69,11.74-1.51,7.29,2.62,14.37,3.38,21.51.51,5-1.13,9.89-5.87,12.26-4.57,2.27-9.59,1.44-14.29-.06a84.62,84.62,0,0,0,8,11.88s0,.06.07.08l.92,1.13a95.21,95.21,0,0,0,39.95,28.06c.6.24,1.2.46,1.8.67,2,.71,4,1.35,6,1.95a37.17,37.17,0,0,1-5.74-8.38c-.32-.62-.61-1.25-.89-1.91a33.89,33.89,0,0,1-1.59-4.51c-3.28-11.92.79-25.8,11.44-32.67,5.84-3.77,12.9-5.24,19.61-6.6a195.51,195.51,0,0,1,24-3.27,3.59,3.59,0,0,0,0,.47,2.07,2.07,0,0,0,.22.91,195.61,195.61,0,0,0-20.72,2.66c-7.19,1.33-14.86,2.65-21.26,6.4-10.53,6.17-14.94,19.3-12.1,30.89a33.26,33.26,0,0,0,1.79,5.29c.21.49.43,1,.67,1.44a36.93,36.93,0,0,0,7.26,10c.32.34.64.65,1,.94s.78.71,1.19,1.06a44.76,44.76,0,0,0,12.07,7.37c8.61,3.54,29.38,9.05,33.5-3.47a2.77,2.77,0,0,0,.1-.26c.07-.26.14-.49.21-.74.12-.46.24-.94.32-1.4,0-.14,0-.26.07-.4,1.57-9.28-3.33-19-10.7-24.63h0a29.74,29.74,0,0,1-18.51-13.62c-.45-.77.67-1.6,1.11-.84a28.25,28.25,0,0,0,13.1,11.53h0a27.56,27.56,0,0,0,4.94,1.65h0a24.5,24.5,0,0,0,2.84.53,26.85,26.85,0,0,0,12.84-1.39c4.33-1.59,8.3-4.09,12.78-5.33,4.32-1.19,8.44-.58,12.82,0a47,47,0,0,0,15.92-.36,34.34,34.34,0,0,0,4.22-1.19c.45-.14.88-.3,1.31-.47a28.84,28.84,0,0,0,16.6-16,.69.69,0,0,1,1.28.54,30.15,30.15,0,0,1-17.45,16.84c2,5.83,5.05,11.44,9.41,15.49.41.37.81.72,1.23,1.06A21.88,21.88,0,0,0,302,259c14.87,1.7,21.53-13,20.81-25.74,0-.42,0-.84-.08-1.26,0-.12,0-.26-.05-.39-.07-.71-.16-1.4-.29-2.1q-.12-.78-.3-1.53a48.94,48.94,0,0,0-7.38-16.21c-1.5-2.29-3-4.65-4.72-6.79-2.76-3.43-6.34-3.82-10.46-4.16a100.11,100.11,0,0,0-42.44,6,.69.69,0,0,1-.93-.63,1.47,1.47,0,0,0,.32-.62l.1,0a101.57,101.57,0,0,1,43.13-6.11c5.82.46,9.19,1.58,12.62,6.4,3.58,5,7.19,10.26,9.43,16.06a38.81,38.81,0,0,1,1.57,5.1c.11.5.22,1,.32,1.52.12.68.23,1.36.33,2.06a110,110,0,0,0,10-9.06c.53-.51,1-1,1.52-1.57C346.27,208.58,354,195,356.15,179.22ZM326.87,83.13c.47-6.52-1.26-13.79-5.58-18.81-.26.53-.54,1.07-.86,1.6-2.29,3.71-6.13,6.83-10.68,6.83-4,0-8.14-2.73-9-6.84s2.44-7.2,6-8.28c4.62-1.4,9.51.49,13.1,3.45.32.27.6.55.89.81a16.92,16.92,0,0,0-.17-9,17.26,17.26,0,0,0-.74-2.24,24.45,24.45,0,0,0-3.58-6.24C310.5,37.1,302,31.29,294.13,26.38,281.19,18.31,265,13.07,250.18,16.5a18.53,18.53,0,0,1,.94,3.09c.39,1.91.78,3.08-.69,4.27a9.18,9.18,0,0,1-4.51,1.72A10.81,10.81,0,0,1,236.3,22a.71.71,0,0,1,.14-1,40.31,40.31,0,0,1,11.75-5.46,21.49,21.49,0,0,0-6.9-7.65c-8.38-5.77-19.88-6.13-29.7-5.77-16.34.61-32.91,5.23-46.57,14.36-12.2,8.13-22.69,20.82-25.17,35.62a26.82,26.82,0,0,0-.38,5.94,24.07,24.07,0,0,1,9.08-2.94c6.85-.76,16.21,2.05,14.6,10.65-1.45,7.83-9.77,10.87-16.46,7.2-5.11-2.83-7.58-7.58-8.31-12.79-9.07,5.79-15.29,17.17-18.2,26.81a61.3,61.3,0,0,0-2.74,18.83c0,.49,0,1,0,1.45.53,10.09,4.23,19.63,12.62,26.67l.73.6.46.34a41.48,41.48,0,0,0,11.32,6.22c.49.18,1,.36,1.49.5a38.89,38.89,0,0,0,20.51,1.13,15.69,15.69,0,0,1-.3-5.73c.48-3.36,2.35-7,5.83-8a7.37,7.37,0,0,1,7.78,2.9c4.26,6.37-6.54,10.45-11.61,11.83,2,6.39,7.82,11.6,13.64,14.39,9,4.29,19.35,4.32,29.1,4.24,9.37-.07,18.81-.44,28-2.26,15.83-3.14,31.61-11.64,38.54-26.72a11.16,11.16,0,0,0-.29-5.84c-1.68.28-3.35.5-5,.68-4.73.53-10.15-.33-12.45-5-.61-1.26-1.31-3.61-.36-4.88s4-1.35,5.27-1.35a15,15,0,0,1,13.31,8.85l.95-.2a119.25,119.25,0,0,0,15.26-4.19A70.9,70.9,0,0,0,302,117.1c.37-.19.73-.39,1.09-.6a52.5,52.5,0,0,0,16.06-13.43l.79-1.08A36.22,36.22,0,0,0,326.87,83.13Zm-5.93,223.64q6-2.24,11.91-4.64c-4-4.56-8.34-8.77-12.23-13.4a8,8,0,0,1-2.9.5c-3.62-.08-6-3.41-8.11-6q-11-13.41-21.89-26.9a.62.62,0,0,1,.14-.93q-4.08,2.06-8.26,3.82c4.87,1.66,8.46,5,9,11.48a64.25,64.25,0,0,1-.52,16.77c8,7.4,15.75,15,23.64,22.51C314.83,309,317.89,307.9,320.94,306.77ZM315.58,69.29a13.58,13.58,0,0,0,4.75-6A17,17,0,0,0,315,59.65a11.12,11.12,0,0,0-8.76-.35c-3.45,1.46-5.4,5.1-3.15,8.56C306,72.28,311.72,72.08,315.58,69.29ZM300.94,313.43c3.13-.9,6.23-1.88,9.31-2.9-7.51-7.13-14.9-14.38-22.48-21.42a26.37,26.37,0,0,1-3.26,8.15c-4.08,6.5-11.48,4.67-17.8,2.41,1.76,6.75,3.56,13.83,6.78,20,1.43-.22,2.87-.47,4.3-.73l1.38-.25c6.85-1.29,13.63-2.94,20.35-4.86C300,313.71,300.47,313.58,300.94,313.43ZM287.33,274.8c0-4.79-.32-10-4.73-12.9a14.33,14.33,0,0,0-4.75-1.91l-.38.16a178.76,178.76,0,0,1-31.71,9.2c-5.14,3-6,9.22-2.59,14,2.38,3.35,6,5.86,9.39,8a62,62,0,0,0,11.82,5.95l.3.12,1.59.6c3.72,1.38,8,2.78,11.8,2.27,5.35-.74,7.39-7.51,8.29-12.09a1.91,1.91,0,0,0,.06-.33c.11-.54.21-1.09.28-1.63A76.84,76.84,0,0,0,287.33,274.8Zm.5-21c-4.43-4.19-7.38-9.84-9.34-15.71-.46.17-.93.33-1.41.46a43.38,43.38,0,0,1-14.48,1.59h-.22a7.46,7.46,0,0,1-.35,3.64,8,8,0,0,1-5.95,5.56c-6.72,1.53-14.16-.66-16.14-7.58-3.33,1.52-6.58,3.23-10.16,4.12a27.88,27.88,0,0,1-10.88.46,28.49,28.49,0,0,1,7,9.65,27.42,27.42,0,0,1,2.29,14.66c5.77-.59,11.51-1.46,17.18-2.59,0,0,0,0,0,0h0a1.6,1.6,0,0,1,.19-.11.57.57,0,0,1,.55,0q5.11-1,10.14-2.32a157.27,157.27,0,0,0,18.58-6h0c.76-.3,1.53-.6,2.28-.92C280.75,257.11,284.32,255.49,287.83,253.76ZM274.75,126.05a13.65,13.65,0,0,0-4.4-5.17c-2.4-1.73-14.06-5.23-11.37,1.31C261.51,128.35,269.11,127.22,274.75,126.05ZM272.06,319.9c-3.27-6.47-5.07-13.83-6.94-20.82-.43-.17-.86-.34-1.28-.49-7.69-2.92-16.88-7.57-21.78-14.44-3.34-4.69-3-10.51.76-14.26-1.22.24-2.46.44-3.69.64-3.72.61-7.49,1.1-11.26,1.46a7,7,0,0,1-.24.9c1.44,4.09,2.69,8.25,4.13,12.22l4.18,11.67a8.35,8.35,0,0,0,.72,1.85c-1.5,0-3-.06-4.57-.14,3.79,7.9,7.46,15.93,12.2,23.3A164.59,164.59,0,0,0,272.06,319.9Zm-13.22-73.58c.53-.5,3.54-6,1.86-6.2a.76.76,0,0,1-.37-.18,98.13,98.13,0,0,0-10.12-.84,9.51,9.51,0,0,1,2.72,5.42.72.72,0,0,1-.74.77.6.6,0,0,1-.64-.59c-.2-2.23-1.65-3.93-3.12-5.5a19.48,19.48,0,0,0-5,1.06c-.75.28-1.5.57-2.24.89,1.35,5.28,6,7.09,11,7.08h.54C255,248.16,257.18,247.88,258.84,246.32ZM245.74,24.2c2.8-.37,4.61-1.4,4-4.43a16.51,16.51,0,0,0-.94-2.94A38.44,38.44,0,0,0,238,21.67,9.36,9.36,0,0,0,245.74,24.2ZM231.3,297c1.11.05,2.21.11,3.33.15-2.61-7.33-5.22-14.68-7.88-22,0,0,0,.08-.05.12-5.48,11-23.75,6.59-32.52,3.44a46.54,46.54,0,0,1-16.59-10.23c-2.48-.65-5-1.4-7.38-2.24q.43,1.46.9,2.94,1.32,4.15,2.65,8.33c2,6.08,3,13.11,10.15,14.77,5.56,1.29,11.5,1.67,17.15,2.29q14.69,1.63,29.45,2.37A.77.77,0,0,1,231.3,297ZM175,138.3c3.1-2.45,3-5.91-.61-7.6-5.09-2.38-8.52,2.9-8.82,7.38a15.88,15.88,0,0,0,.34,4.26,30.89,30.89,0,0,0,3.22-1A22.63,22.63,0,0,0,175,138.3Zm-13.1-73.91c.36-5.47-4.95-7.72-9.56-8a22.57,22.57,0,0,0-12.78,3,16.46,16.46,0,0,0,3,8.11c2.83,3.83,8.12,6.91,13,5.31A9.7,9.7,0,0,0,161.94,64.39ZM139.17,145.6c.83-1,1.74-2.14,2.62-3.34a42.8,42.8,0,0,1-11.43-6.36c-.41-.3-.8-.62-1.19-1a36.73,36.73,0,0,1-13.35-27.19,28.25,28.25,0,0,0-13,9.17c-4.48,5.66-5.05,13.6-10.15,18.75-4.31,4.35-10.59,5.54-16.27,7.09-3.33.91-6.77,1.9-9.68,3.82-3.56,2.37-5.15,6-7.25,9.52-5.71,9.64-17.2,10.16-26.55,14.24-6.47,2.82-9.13,7.31-11.82,13.54-2.05,4.74-4.59,8.11-9.76,9.43-3.82,1-9.84,1.48-9.6,6.82.18,4.14,4.06,7.07,7.8,7.8,4.35.85,8.86-.25,13.2-.61a63.94,63.94,0,0,1,10,0A62,62,0,0,1,54.06,213c7.44,3.5,13.62,7.56,22.2,7.2,7.29-.31,14.33-2.58,21.58-3.18,6.61-.56,12.17,1.11,18.2,3.29.43.15.88.3,1.33.47.22.09.44.15.68.24,6.61,2.24,16.72,3.54,19.35-4.95,1.79-5.8-1.36-12.35-2.57-18a23.72,23.72,0,0,1-.58-8.35c.46-3.29,2.52-6.13,2.88-9.45.74-6.9-4.78-12.74-5.09-19.54C131.78,154.78,135.58,150,139.17,145.6Z"/><path class="cls-1" d="M595.05,221.94l22-3.26c-.6,6.86-1.56,14.27-4.26,20.46a.64.64,0,0,0-.7-.4,115.61,115.61,0,0,1-24.6.79,41.52,41.52,0,0,1-7.3-.88,7.76,7.76,0,0,1-1.07-.32h0a9.65,9.65,0,0,1-2.45-1.21,7,7,0,0,1-1.2-10.44,10.48,10.48,0,0,0,.93.82c6.36,4.94,15.52,1.79,18.55-5.33C595,222.1,595,222,595.05,221.94Z"/><path class="cls-1" d="M612.3,240.12a.32.32,0,0,0,.09,0,23.48,23.48,0,0,1-5.26,7.34,46,46,0,0,1-12.76,3,23,23,0,0,1-10-1.29c-3.64-1.5-7-5.4-4.64-9.26,0,0,0,0,.07,0,5,1.31,10.5,1.31,15.6,1.34A119.45,119.45,0,0,0,612.3,240.12Z"/><path class="cls-1" d="M603.52,250.11a22.3,22.3,0,0,1-3.73,1.67c-8.21,2.79-18.22,2.22-26.72,1.38A99.34,99.34,0,0,1,554,249.34,55.72,55.72,0,0,0,565.23,226c.16-.68.31-1.37.45-2a103.65,103.65,0,0,0,1.77-14.26c.29-4.75.36-9.52.36-14.27,0-.82,0-1.64,0-2.45a61,61,0,0,1,13.11-2c.92,0,1.83-.11,2.75-.15l.09,1.8a11.75,11.75,0,0,0-2.32.4,17.94,17.94,0,0,0-8.3,4.75,11.53,11.53,0,0,0-2,3.22c-.63,1.38-.45,3.29-.48,4.8a70.54,70.54,0,0,0,.69,10.76c.44,3.18,1.27,6.47,3.25,9-4.63,5-1.77,11.5,3.83,13.8-3,5.32,2.49,10.36,7.61,11.69C591.83,252.65,597.79,251.8,603.52,250.11Z"/><path class="cls-1" d="M591.51,198.75c3,5.87,4.79,15.54,2.46,22.06a.72.72,0,0,0-.22.57,1,1,0,0,1-.08.24c-3.3,7.71-14.36,9.59-18.85,1.87A22.49,22.49,0,0,1,572.2,215a46.57,46.57,0,0,1-.32-4.72c0-1.57.14-3.16.09-4.72-.13-2.8.43-5.19,2.49-7.18a15.9,15.9,0,0,1,6.43-3.58,16.5,16.5,0,0,1,1.81-.45A7.85,7.85,0,0,1,591.51,198.75Z"/><path class="cls-2" d="M566.59,191.91c0,.48,0,1,0,1.46,0,2-.16,3.93-.18,5.76v.23c0,.5,0,1,0,1.52-.07,4.56-.24,9.12-.7,13.65-1.23,12.15-5.13,25.14-13.13,34.37-.33.39-.67.76-1,1.14a36.35,36.35,0,0,1-5.86,5.07q-70.6-14.52-142.34-22.42-8.91-1-17.81-1.84c-2.83-5.65-5.76-11.25-8.59-16.85-.4-.8-1.7-.28-1.29.53,2.7,5.38,5.53,10.74,8.26,16.17l.74,1.47c5.07,10.11,9.77,20.39,12.81,31.28.72,2.56,1.35,5.16,1.91,7.75l-.56.32-1.38.78c-8.74,4.95-17.89,9.19-27,13.35-12,5.47-24,10.93-36.18,15.92-3.93-4.57-8.31-8.78-12.21-13.38,2.51-1.12,4.95-2.94,7-4.11a452,452,0,0,0,53.44-35.67.7.7,0,0,0,0-1.1q-11.19-7.86-23-14.82-6.15-3.59-12.42-6.94c-3.11-1.64-6.51-4-9.94-5.13,8.53-9.06,15.3-19.57,18.64-32a72.66,72.66,0,0,0,2.1-11.71,14.4,14.4,0,0,1,2.13-2.07c4.59-3.54,10.75-2.25,16-3.58a18.21,18.21,0,0,0,6.72-3.38A919.66,919.66,0,0,1,480,169.93q29.67,2.25,59.18,6.42c5,.7,9.94,1.41,14.89,2.22,4.68.78,9.74,1.85,11.54,6.91A19.58,19.58,0,0,1,566.59,191.91Z"/><path class="cls-1" d="M509.18,265.08c6.88,3.36,9.08,11.23,3.3,16.84a17.47,17.47,0,0,1-1.84,1.5,14.62,14.62,0,0,1-2.95,1.56,17.24,17.24,0,0,1-3.2.94c-.54.11-1.1.21-1.66.28a14.13,14.13,0,0,1-1.85.18c-.39,0-.78,0-1.17,0-1.37,0-2.73,0-4.1-.07s-2.66-.18-4-.29c-.88-.07-1.07,1.31-.18,1.38a64.78,64.78,0,0,0,9.21.22,30,30,0,0,1-.46,5.27,43.87,43.87,0,0,1-17.43,9.16c-.87.23-.34,1.51.53,1.29a44.62,44.62,0,0,0,16.43-8.26,40.15,40.15,0,0,1-13.39,20.74c-8.9,7.31-19.91,11.08-31.07,13.77l-1-1.52A179.4,179.4,0,0,0,415.76,284a89.88,89.88,0,0,1,17.84-11.49,81,81,0,0,1,14.11-5.06c.61-.17,1.24-.32,1.85-.46a131.78,131.78,0,0,1,21.19-3.13l1.8-.12c.51,0,1-.08,1.54-.09,5.06-.31,10.14-.44,15.21-.52C495.77,263,503.18,262.15,509.18,265.08Z"/><path class="cls-1" d="M471.32,262.4c-.86.05-1.74.12-2.61.19a130.16,130.16,0,0,0-18,2.66c2.71-3.67,6.28-6.5,11.15-6.4A17.19,17.19,0,0,1,471.32,262.4Z"/><path class="cls-2" d="M454.85,331.17c1.14,1.77,2.25,3.6,3.26,5.48-46.29,40.84-110.06,53.8-170.14,55.71-34.46,1.1-70.11-1.52-102-15.53-27-11.84-51.55-32.16-63.66-59.57-11.23-25.42-10.34-56.81,4.85-80.19a95.94,95.94,0,0,0,37.38,27.09c1.33.54,2.67,1,4,1.52.2.56.38,1.06.52,1.49,2.06,6.64,3.72,13.77,6.54,20.14,2.16,4.85,6.31,6.19,11.26,6.91q5.43.79,10.9,1.45t10.94,1.16c3.65.35,7.3.64,11,.91s7.26.47,10.88.67c3.81,7.87,7.44,15.91,12.1,23.33a135.34,135.34,0,0,1-20.07-2.11c-17.52-3.19-34.25-10.09-48.21-21.24a.7.7,0,0,0-.87,1.09c19.89,15.9,44.92,23,70.07,23.69l1.7.05q8,.13,15.85-.52c3.94-.33,7.84-.79,11.73-1.39.49-.06,1-.14,1.45-.21,1.38-.23,2.76-.46,4.14-.71.46-.09.92-.17,1.38-.27,7-1.31,13.9-3,20.74-5l1.42-.43q4.77-1.43,9.49-3c.51-.16,1-.32,1.5-.5,7-2.4,14-5.06,20.89-7.88l1.35-.56c9.7-4,19.28-8.29,28.74-12.58,11.74-5.33,23.64-10.55,34.85-17h0c.39.25.77.5,1.14.77h0c.54.34,1.07.7,1.6,1.07q6.21,4.23,12.07,8.95l1.09.89a178.94,178.94,0,0,1,35.86,39.83c1.1,1.67,2.3,3.42,3.5,5.26C454.32,330.34,454.58,330.76,454.85,331.17Z"/><path class="cls-1" d="M429.13,134.64c5.06,1.08.53,7.38-1.69,9.38A21.91,21.91,0,0,1,417,148.94c-6.66,1.36-13.8,1.1-20,4.34-5.1,2.68-8.51,7.38-12.63,11.24-.67.63-1.32,1.2-2,1.8h0a19.74,19.74,0,0,1-2,1.44h-.09a16.06,16.06,0,0,1-3.45,1.64c-3.82,1.27-7.93.85-11.84,1.65a14,14,0,0,0-6.92,3.58,14.16,14.16,0,0,0-1.56,1.72,21.66,21.66,0,0,0-2.9,4.82c-2.87,6.34-3.82,15.69-10.83,19.05-2.64,1.27-8.88,2.13-9.66-1.94-.24-1.25.3-2.94.42-4.22.15-1.77.29-3.55.37-5.34.32-6.7.09-13.6-2-20a30.15,30.15,0,0,0-4.41-8.66c-2.17-2.92-5.25-5.1-7.34-8.09-2.79-4-1.47-8.45-2.16-12.9a16.35,16.35,0,0,0-4.53-8.43c-2.92-3.16-8.48-7.72-10-12.54a52.72,52.72,0,0,0,16.88-14.25c.28-.35.54-.71.79-1.07a40,40,0,0,0,5.94-12.56c2.51-9.16,1.48-20.14-5.19-27.26a15.44,15.44,0,0,0,.78-7.78c5.13,6.16,9.25,14.54,14.44,18.41,5.64,4.18,13.64,3.57,18.44,9,4,4.41,5.52,10.44,9.66,14.74,7.32,7.59,19,6.6,28.14,10.4,6,2.49,8.65,7,10.36,13,1.42,5,2.94,10.35,8.25,12.5S423.51,133.42,429.13,134.64Z"/><path class="cls-2" d="M337.32,222.12c15.29,6.79,29.84,16.19,43.53,25.76a449.26,449.26,0,0,1-45.93,31.17c-4.22,2.51-8.47,5-12.82,7.3-.4.21-.81.4-1.2.56a10.94,10.94,0,0,1-1.43.43,6.69,6.69,0,0,1-6.5-2.26c-1.75-1.82-3.27-3.9-4.86-5.85l-19.28-23.68a.62.62,0,0,0-.75-.21l1-.49a24.07,24.07,0,0,0,3.94,2.7c8.4,4.65,19.35,4.09,25.64-3.72,4.75-5.91,6.28-13.94,5.57-21.62A121.52,121.52,0,0,0,336,221.66,7.27,7.27,0,0,1,337.32,222.12Z"/><path class="cls-1" d="M353.36,185.61a38.43,38.43,0,0,1,2.79-6.39C354,195,346.27,208.58,335.57,220c-.49.53-1,1.06-1.52,1.57a110,110,0,0,1-10,9.06c-.1-.7-.21-1.38-.33-2.06-.1-.52-.21-1-.32-1.52a38.81,38.81,0,0,0-1.57-5.1c-2.24-5.8-5.85-11-9.43-16.06-3.43-4.82-6.8-5.94-12.62-6.4a101.57,101.57,0,0,0-43.13,6.11l-.1,0a1.5,1.5,0,0,0,0-.61c-.25-2.33-4.29-2.9-6-3.2a.65.65,0,0,0-.51.12,55.71,55.71,0,0,0-15.71,1.13.39.39,0,0,0-.24.06,42.41,42.41,0,0,0-7.22,2.3c-1.53.65-4.1,1.84-4.43,3.76a195.51,195.51,0,0,0-24,3.27c-6.71,1.36-13.77,2.83-19.61,6.6-10.65,6.87-14.72,20.75-11.44,32.67a33.89,33.89,0,0,0,1.59,4.51c.28.66.57,1.29.89,1.91a37.17,37.17,0,0,0,5.74,8.38c-2-.6-4-1.24-6-1.95-.6-.21-1.2-.43-1.8-.67a95.21,95.21,0,0,1-39.95-28.06l-.92-1.13s0-.05-.07-.08a84.62,84.62,0,0,1-8-11.88c4.7,1.5,9.72,2.33,14.29.06,4.74-2.37,6.38-7.26,5.87-12.26-.76-7.14-4.89-14.22-3.38-21.51.88-4.15,3.27-7.33,2.69-11.74-.48-3.84-2.41-7.33-3.7-10.92-1.65-4.62-1.76-8.87.64-13.25,2.1-3.84,5.29-6.88,7.86-10.37A40.61,40.61,0,0,0,165,144c1.82,5.82,6.63,10.81,11.72,13.86,9.9,6,22,5.93,33.19,5.82,21.6-.21,45.77-2.75,60.85-20.17a39.81,39.81,0,0,0,7.26-12.3.7.7,0,0,0-.75-.94,12.46,12.46,0,0,0-.56-3,87.89,87.89,0,0,0,25.68-8.6,19.57,19.57,0,0,0,4.66,7.6c2.65,2.74,5.83,5.14,7.85,8.43,2.76,4.47,1.12,9.31,2.29,14.11.9,3.68,3.68,6.13,6.24,8.72a29.35,29.35,0,0,1,7.18,11.71c2.68,8.25,2.26,17.21,1.45,25.73-.28,3-1.16,4.72,1.63,6.49a9.7,9.7,0,0,0,8,.71C348.9,200,351.11,192,353.36,185.61Zm-56-18.1c.47.77,1.58-.08,1.11-.83-5.59-8.85-14.05-19.93-26.06-15.89-11.34,3.8-14.58,16.45-13.59,27.14.07.89,1.46.72,1.38-.18-.92-10.05,2-22.11,12.74-25.68C284.32,148.31,292.15,159.25,297.38,167.51ZM292.16,187a8.36,8.36,0,1,0-8.36,8.36A8.36,8.36,0,0,0,292.16,187Zm-81.07-1c.26.85,1.54.33,1.29-.53-2.66-8.66-7.92-18.85-18.23-19.27-11.15-.43-18.38,9.3-22.13,18.58a.69.69,0,0,0,1.28.54c3.61-8.93,10.77-18.81,21.7-17.66C204.24,168.59,208.69,178.12,211.09,186Zm-6.74,13.55a8.36,8.36,0,1,0-8.36,8.37A8.37,8.37,0,0,0,204.35,199.5Z"/><path class="cls-1" d="M321.29,64.32c4.32,5,6,12.29,5.58,18.81A36.22,36.22,0,0,1,319.94,102l-.79,1.08a52.5,52.5,0,0,1-16.06,13.43c-.36.21-.72.41-1.09.6a70.9,70.9,0,0,1-9.67,4.27,119.25,119.25,0,0,1-15.26,4.19l-.95.2a15,15,0,0,0-13.31-8.85c-1.31,0-4.41.21-5.27,1.35s-.25,3.62.36,4.88c2.3,4.71,7.72,5.57,12.45,5,1.63-.18,3.3-.4,5-.68a11.16,11.16,0,0,1,.29,5.84c-6.93,15.08-22.71,23.58-38.54,26.72-9.21,1.82-18.65,2.19-28,2.26-9.75.08-20.11.05-29.1-4.24-5.82-2.79-11.64-8-13.64-14.39,5.07-1.38,15.87-5.46,11.61-11.83a7.37,7.37,0,0,0-7.78-2.9c-3.48,1-5.35,4.64-5.83,8a15.69,15.69,0,0,0,.3,5.73,38.89,38.89,0,0,1-20.51-1.13c-.5-.14-1-.32-1.49-.5a41.48,41.48,0,0,1-11.32-6.22l-.46-.34-.73-.6c-8.39-7-12.09-16.58-12.62-26.67,0-.48,0-1,0-1.45A61.3,61.3,0,0,1,120.18,87c2.91-9.64,9.13-21,18.2-26.81.73,5.21,3.2,10,8.31,12.79,6.69,3.67,15,.63,16.46-7.2,1.61-8.6-7.75-11.41-14.6-10.65A24.07,24.07,0,0,0,139.47,58a26.82,26.82,0,0,1,.38-5.94c2.48-14.8,13-27.49,25.17-35.62C178.68,7.33,195.25,2.71,211.59,2.1c9.82-.36,21.32,0,29.7,5.77a21.49,21.49,0,0,1,6.9,7.65A40.31,40.31,0,0,0,236.44,21a.71.71,0,0,0-.14,1,10.81,10.81,0,0,0,9.62,3.62,9.18,9.18,0,0,0,4.51-1.72c1.47-1.19,1.08-2.36.69-4.27a18.53,18.53,0,0,0-.94-3.09c14.83-3.43,31,1.81,43.95,9.88,7.89,4.91,16.37,10.72,22.2,18.08a24.45,24.45,0,0,1,3.58,6.24,17.26,17.26,0,0,1,.74,2.24,16.92,16.92,0,0,1,.17,9c-.29-.26-.57-.54-.89-.81-3.59-3-8.48-4.85-13.1-3.45-3.6,1.08-6.83,4.23-6,8.28s4.92,6.84,9,6.84c4.55,0,8.39-3.12,10.68-6.83C320.75,65.39,321,64.85,321.29,64.32Z"/><path class="cls-1" d="M332.85,302.13q-5.93,2.4-11.91,4.64c-3.05,1.13-6.11,2.23-9.21,3.26-7.89-7.5-15.65-15.11-23.64-22.51a64.25,64.25,0,0,0,.52-16.77c-.55-6.52-4.14-9.82-9-11.48q4.18-1.75,8.26-3.82a.62.62,0,0,0-.14.93q10.95,13.47,21.89,26.9c2.08,2.54,4.49,5.87,8.11,6a8,8,0,0,0,2.9-.5C324.51,293.36,328.89,297.57,332.85,302.13Z"/><path class="cls-1" d="M322.84,233.29C323.56,246,316.9,260.73,302,259a21.88,21.88,0,0,1-11.58-4.9c-.42-.34-.82-.69-1.23-1.06-4.36-4-7.41-9.66-9.41-15.49a30.15,30.15,0,0,0,17.45-16.84.69.69,0,0,0-1.28-.54,28.84,28.84,0,0,1-16.6,16c-.43.17-.86.33-1.31.47a34.34,34.34,0,0,1-4.22,1.19,47,47,0,0,1-15.92.36c-4.38-.57-8.5-1.18-12.82,0-4.48,1.24-8.45,3.74-12.78,5.33A26.85,26.85,0,0,1,219.49,245a24.5,24.5,0,0,1-2.84-.53h0a27.56,27.56,0,0,1-4.94-1.65h0a28.25,28.25,0,0,1-13.1-11.53c-.44-.76-1.56.07-1.11.84A29.74,29.74,0,0,0,216,245.71h0c7.37,5.65,12.27,15.35,10.7,24.63,0,.14,0,.26-.07.4-.08.46-.2.94-.32,1.4-.07.25-.14.48-.21.74a2.77,2.77,0,0,1-.1.26c-4.12,12.52-24.89,7-33.5,3.47a44.76,44.76,0,0,1-12.07-7.37c-.41-.35-.8-.7-1.19-1.06s-.64-.6-1-.94a36.93,36.93,0,0,1-7.26-10c-.24-.48-.46-.95-.67-1.44a33.26,33.26,0,0,1-1.79-5.29c-2.84-11.59,1.57-24.72,12.1-30.89,6.4-3.75,14.07-5.07,21.26-6.4a195.61,195.61,0,0,1,20.72-2.66c.67,1.45,2.85,1.8,4.32,1.85,4,.14,8.34-1.36,12.26-2.19h0c.2,1.11.13,2.21.28,3.39.27,2.25,2.05,2.83,4.11,2.4,3.17-.66,3.38-4,3.5-6.64,0-.26,0-.54.06-.83l5.74-1.21c1-.21,2.54-.31,3.25-1.09a.69.69,0,0,0,.93.63,100.11,100.11,0,0,1,42.44-6c4.12.34,7.7.73,10.46,4.16,1.71,2.14,3.22,4.5,4.72,6.79A48.94,48.94,0,0,1,322.12,228q.18.75.3,1.53c.13.7.22,1.39.29,2.1,0,.13,0,.27.05.39C322.8,232.45,322.83,232.87,322.84,233.29Z"/><path class="cls-1" d="M320.33,63.29a13.58,13.58,0,0,1-4.75,6c-3.86,2.79-9.61,3-12.48-1.43-2.25-3.46-.3-7.1,3.15-8.56a11.12,11.12,0,0,1,8.76.35A17,17,0,0,1,320.33,63.29Z"/><path class="cls-3" d="M310.25,310.53c-3.08,1-6.18,2-9.31,2.9-.47.15-.94.28-1.42.42-6.72,1.92-13.5,3.57-20.35,4.86l-1.38.25c-1.43.26-2.87.51-4.3.73-3.22-6.19-5-13.27-6.78-20,6.32,2.26,13.72,4.09,17.8-2.41a26.37,26.37,0,0,0,3.26-8.15C295.35,296.15,302.74,303.4,310.25,310.53Z"/><path d="M298.49,166.68c.47.75-.64,1.6-1.11.83-5.23-8.26-13.06-19.2-24.42-15.44-10.75,3.57-13.66,15.63-12.74,25.68.08.9-1.31,1.07-1.38.18-1-10.69,2.25-23.34,13.59-27.14C284.44,146.75,292.9,157.83,298.49,166.68Z"/><circle cx="283.8" cy="186.96" r="8.36"/><path class="cls-3" d="M282.6,261.9c4.41,2.86,4.74,8.11,4.73,12.9a76.84,76.84,0,0,1-.63,11.44c-.07.54-.17,1.09-.28,1.63a1.91,1.91,0,0,1-.06.33c-.9,4.58-2.94,11.35-8.29,12.09-3.79.51-8.08-.89-11.8-2.27l-1.59-.6-.3-.12a62,62,0,0,1-11.82-5.95c-3.4-2.18-7-4.69-9.39-8-3.37-4.74-2.55-11,2.59-14a178.76,178.76,0,0,0,31.71-9.2l.38-.16A14.33,14.33,0,0,1,282.6,261.9Z"/><path class="cls-1" d="M278.49,238.05c2,5.87,4.91,11.52,9.34,15.71-3.51,1.73-7.08,3.35-10.71,4.83-.75.32-1.52.62-2.28.92h0a157.27,157.27,0,0,1-18.58,6q-5,1.29-10.14,2.32a.57.57,0,0,0-.55,0,1.6,1.6,0,0,0-.19.11h0s0,0,0,0c-5.67,1.13-11.41,2-17.18,2.59a27.42,27.42,0,0,0-2.29-14.66,28.49,28.49,0,0,0-7-9.65,27.88,27.88,0,0,0,10.88-.46c3.58-.89,6.83-2.6,10.16-4.12,2,6.92,9.42,9.11,16.14,7.58a8,8,0,0,0,5.95-5.56,7.46,7.46,0,0,0,.35-3.64h.22a43.38,43.38,0,0,0,14.48-1.59C277.56,238.38,278,238.22,278.49,238.05Z"/><path class="cls-1" d="M270.35,120.88a13.65,13.65,0,0,1,4.4,5.17c-5.64,1.17-13.24,2.3-15.77-3.86C256.29,115.65,268,119.15,270.35,120.88Z"/><path class="cls-1" d="M265.12,299.08c1.87,7,3.67,14.35,6.94,20.82a164.59,164.59,0,0,1-27.77,1.89c-4.74-7.37-8.41-15.4-12.2-23.3,1.53.08,3.07.18,4.57.14a8.35,8.35,0,0,1-.72-1.85l-4.18-11.67c-1.44-4-2.69-8.13-4.13-12.22a7,7,0,0,0,.24-.9c3.77-.36,7.54-.85,11.26-1.46,1.23-.2,2.47-.4,3.69-.64-3.78,3.75-4.1,9.57-.76,14.26,4.9,6.87,14.09,11.52,21.78,14.44C264.26,298.74,264.69,298.91,265.12,299.08Z"/><path class="cls-4" d="M260.7,240.12c1.68.21-1.33,5.7-1.86,6.2-1.66,1.56-3.84,1.84-6,1.9h-.54l-.07-2.94a.72.72,0,0,0,.74-.77,9.51,9.51,0,0,0-2.72-5.42,98.13,98.13,0,0,1,10.12.84A.76.76,0,0,0,260.7,240.12Z"/><path d="M256.55,205a1.5,1.5,0,0,1,0,.61.57.57,0,0,0-.32.62c-.71.78-2.27.88-3.25,1.09l-5.74,1.21c0-.46.08-1,.12-1.45l2.83-.6c.46-.1,3-.25,3.26-.68,1.22-2-1.31-2.36-2.63-2.55a.72.72,0,0,1-.38.08c-1.21-.1-2.42-.14-3.63-.14a3,3,0,0,0-.84-1,.7.7,0,0,0-1,1,49,49,0,0,0-8.45.88,9.44,9.44,0,0,0-1.87-1,.52.52,0,0,0-.26-.06,55.71,55.71,0,0,1,15.71-1.13.65.65,0,0,1,.51-.12C252.26,202.12,256.3,202.69,256.55,205Z"/><path d="M256.51,205.63a1.47,1.47,0,0,1-.32.62A.57.57,0,0,1,256.51,205.63Z"/><path d="M250.78,203.27c1.32.19,3.85.53,2.63,2.55-.25.43-2.8.58-3.26.68l-2.83.6a6.68,6.68,0,0,0-.55-3.89c1.21,0,2.42,0,3.63.14A.72.72,0,0,0,250.78,203.27Z"/><path class="cls-4" d="M252.19,245.29l.07,2.94c-5,0-9.69-1.8-11-7.08.74-.32,1.49-.61,2.24-.89a19.48,19.48,0,0,1,5-1.06c1.47,1.57,2.92,3.27,3.12,5.5A.6.6,0,0,0,252.19,245.29Z"/><path class="cls-1" d="M249.74,19.77c.61,3-1.2,4.06-4,4.43A9.36,9.36,0,0,1,238,21.67a38.44,38.44,0,0,1,10.84-4.84A16.51,16.51,0,0,1,249.74,19.77Z"/><path d="M246.77,203.21a6.68,6.68,0,0,1,.55,3.89l-1.29.28c.08-1.7-.07-3.39-1-4a.32.32,0,0,1-.14-.14C245.54,203.2,246.15,203.18,246.77,203.21Z"/><path d="M246,207.38l1.29-.28c0,.5-.08,1-.12,1.45l-1.28.26C246,208.35,246,207.87,246,207.38Z"/><path d="M247.2,208.55c0,.29,0,.57-.06.83-.12,2.65-.33,6-3.5,6.64-2.06.43-3.84-.15-4.11-2.4-.15-1.18-.08-2.28-.28-3.39l1.44-.3c0,.18.08.36.11.56.15.86-.14,2.14.11,3,.52,1.73,2.8,1.3,3.88.39.61-.51.79-2,.86-2.7.06-.56.18-1.39.27-2.33Z"/><path d="M246.77,203.21c-.62,0-1.23,0-1.84,0a.7.7,0,0,1,1-1A3,3,0,0,1,246.77,203.21Z"/><path d="M245.07,203.35c.89.64,1,2.33,1,4L243,208c-.89.19-1.8.39-2.69.6a9.69,9.69,0,0,0-3.79-4.53,49,49,0,0,1,8.45-.88A.32.32,0,0,0,245.07,203.35Z"/><path d="M243,208l3.07-.64c0,.49-.07,1-.11,1.43l-5.23,1.12a9.53,9.53,0,0,0-.42-1.31C241.16,208.41,242.07,208.21,243,208Z"/><path d="M240.69,209.93l5.23-1.12c-.09.94-.21,1.77-.27,2.33-.07.74-.25,2.19-.86,2.7-1.08.91-3.36,1.34-3.88-.39-.25-.82,0-2.1-.11-3C240.77,210.29,240.73,210.11,240.69,209.93Z"/><path d="M240.69,209.93l-1.44.3a5.35,5.35,0,0,0-.37-1.29l1.39-.32A9.53,9.53,0,0,1,240.69,209.93Z"/><path d="M240.27,208.62l-1.39.32a1.92,1.92,0,0,0-.17-.39,8.25,8.25,0,0,0-4.33-4c.41-.11.83-.21,1.25-.29l.85-.17A9.69,9.69,0,0,1,240.27,208.62Z"/><path d="M239.25,210.23h0c-3.92.83-8.23,2.33-12.26,2.19-1.47,0-3.65-.4-4.32-1.85l2.16-.15c1.11.94,3.67.54,4.59.41a95.73,95.73,0,0,0,9.48-1.89A5.35,5.35,0,0,1,239.25,210.23Z"/><path d="M238.71,208.55a1.92,1.92,0,0,1,.17.39,95.73,95.73,0,0,1-9.48,1.89c-.92.13-3.48.53-4.59-.41h0c.89-.07.71-1.45-.18-1.4-.11,0-.23,0-.34,0a1.86,1.86,0,0,1,.06-.45c.18-.85,2.86-1.81,3.62-2.1a46.58,46.58,0,0,1,6.39-1.95A8.25,8.25,0,0,1,238.71,208.55Z"/><path d="M236.48,204.09l-.85.17c-.42.08-.84.18-1.25.29a1.73,1.73,0,0,0-.31-.14.69.69,0,0,1,0-1.28.94.94,0,0,1,.24-.06.52.52,0,0,1,.26.06A9.44,9.44,0,0,1,236.48,204.09Z"/><path class="cls-2" d="M234.63,297.18c-1.12,0-2.22-.1-3.33-.15a.77.77,0,0,0-.79,0q-14.76-.75-29.45-2.37c-5.65-.62-11.59-1-17.15-2.29-7.18-1.66-8.2-8.69-10.15-14.77q-1.33-4.17-2.65-8.33-.47-1.49-.9-2.94c2.43.84,4.9,1.59,7.38,2.24a46.54,46.54,0,0,0,16.59,10.23c8.77,3.15,27,7.52,32.52-3.44,0,0,0-.08.05-.12C229.41,282.5,232,289.85,234.63,297.18Z"/><path d="M234.07,204.41a1.73,1.73,0,0,1,.31.14A46.58,46.58,0,0,0,228,206.5c-.76.29-3.44,1.25-3.62,2.1a1.86,1.86,0,0,0-.06.45c-.61,0-1.24.08-1.85.14.33-1.92,2.9-3.11,4.43-3.76a42.41,42.41,0,0,1,7.22-2.3A.69.69,0,0,0,234.07,204.41Z"/><path d="M234.35,203.07a.94.94,0,0,0-.24.06A.39.39,0,0,1,234.35,203.07Z"/><path d="M224.65,209c.89-.05,1.07,1.33.18,1.4h0a1.57,1.57,0,0,1-.5-1.37C224.42,209,224.54,209,224.65,209Z"/><path d="M224.81,210.42l-2.16.15a2.07,2.07,0,0,1-.22-.91,3.59,3.59,0,0,1,0-.47c.61-.06,1.24-.1,1.85-.14A1.57,1.57,0,0,0,224.81,210.42Z"/><path d="M212.38,185.42c.25.86-1,1.38-1.29.53-2.4-7.83-6.85-17.36-16.09-18.34-10.93-1.15-18.09,8.73-21.7,17.66a.69.69,0,0,1-1.28-.54c3.75-9.28,11-19,22.13-18.58C204.46,166.57,209.72,176.76,212.38,185.42Z"/><circle cx="195.99" cy="199.5" r="8.36"/><path class="cls-1" d="M174.43,130.7c3.57,1.69,3.71,5.15.61,7.6a22.63,22.63,0,0,1-5.87,3,30.89,30.89,0,0,1-3.22,1,15.88,15.88,0,0,1-.34-4.26C165.91,133.6,169.34,128.32,174.43,130.7Z"/><path class="cls-1" d="M152.38,56.37c4.61.3,9.92,2.55,9.56,8a9.7,9.7,0,0,1-6.34,8.43c-4.87,1.6-10.16-1.48-13-5.31a16.46,16.46,0,0,1-3-8.11A22.57,22.57,0,0,1,152.38,56.37Z"/><path class="cls-1" d="M141.79,142.26c-.88,1.2-1.79,2.33-2.62,3.34-3.59,4.35-7.39,9.18-7.13,15.14.31,6.8,5.83,12.64,5.09,19.54-.36,3.32-2.42,6.16-2.88,9.45a23.72,23.72,0,0,0,.58,8.35c1.21,5.63,4.36,12.18,2.57,18-2.63,8.49-12.74,7.19-19.35,4.95-.24-.09-.46-.15-.68-.24-.45-.17-.9-.32-1.33-.47-6-2.18-11.59-3.85-18.2-3.29-7.25.6-14.29,2.87-21.58,3.18-8.58.36-14.76-3.7-22.2-7.2a62,62,0,0,0-21.37-5.67,63.94,63.94,0,0,0-10,0c-4.34.36-8.85,1.46-13.2.61-3.74-.73-7.62-3.66-7.8-7.8-.24-5.34,5.78-5.83,9.6-6.82,5.17-1.32,7.71-4.69,9.76-9.43,2.69-6.23,5.35-10.72,11.82-13.54,9.35-4.08,20.84-4.6,26.55-14.24,2.1-3.55,3.69-7.15,7.25-9.52,2.91-1.92,6.35-2.91,9.68-3.82,5.68-1.55,12-2.74,16.27-7.09,5.1-5.15,5.67-13.09,10.15-18.75a28.25,28.25,0,0,1,13-9.17,36.73,36.73,0,0,0,13.35,27.19c.39.34.78.66,1.19,1A42.8,42.8,0,0,0,141.79,142.26Z"/><path class="cls-5" d="M256.51,205.63a1.5,1.5,0,0,0,0-.61c-.25-2.33-4.29-2.9-6-3.2a.65.65,0,0,0-.51.12,55.71,55.71,0,0,0-15.71,1.13.94.94,0,0,0-.24.06,42.41,42.41,0,0,0-7.22,2.3c-1.53.65-4.1,1.84-4.43,3.76a3.59,3.59,0,0,0,0,.47,2.07,2.07,0,0,0,.22.91c.67,1.45,2.85,1.8,4.32,1.85,4,.14,8.34-1.36,12.26-2.19h0l1.44-.3,5.23-1.12,1.28-.26,5.74-1.21c1-.21,2.54-.31,3.25-1.09A1.47,1.47,0,0,0,256.51,205.63Z"/><path class="cls-5" d="M246.77,203.21c1.21,0,2.42,0,3.63.14a.72.72,0,0,0,.38-.08c1.32.19,3.85.53,2.63,2.55-.25.43-2.8.58-3.26.68l-2.83.6-1.29.28L243,208c-.89.19-1.8.39-2.69.6l-1.39.32a95.73,95.73,0,0,1-9.48,1.89c-.92.13-3.48.53-4.59-.41a1.57,1.57,0,0,1-.5-1.37,1.86,1.86,0,0,1,.06-.45c.18-.85,2.86-1.81,3.62-2.1a46.58,46.58,0,0,1,6.39-1.95c.41-.11.83-.21,1.25-.29l.85-.17a49,49,0,0,1,8.45-.88C245.54,203.2,246.15,203.18,246.77,203.21Z"/><path class="cls-5" d="M246.77,203.21a3,3,0,0,0-.84-1,.7.7,0,0,0-1,1,.32.32,0,0,0,.14.14c.89.64,1,2.33,1,4,0,.49-.07,1-.11,1.43-.09.94-.21,1.77-.27,2.33-.07.74-.25,2.19-.86,2.7-1.08.91-3.36,1.34-3.88-.39-.25-.82,0-2.1-.11-3,0-.2-.07-.38-.11-.56a9.53,9.53,0,0,0-.42-1.31,9.69,9.69,0,0,0-3.79-4.53,9.44,9.44,0,0,0-1.87-1,.52.52,0,0,0-.26-.06.39.39,0,0,0-.24.06.69.69,0,0,0,0,1.28,1.73,1.73,0,0,1,.31.14,8.25,8.25,0,0,1,4.33,4,1.92,1.92,0,0,1,.17.39,5.35,5.35,0,0,1,.37,1.29c.2,1.11.13,2.21.28,3.39.27,2.25,2.05,2.83,4.11,2.4,3.17-.66,3.38-4,3.5-6.64,0-.26,0-.54.06-.83,0-.46.08-1,.12-1.45A6.68,6.68,0,0,0,246.77,203.21Z"/><circle class="cls-5" cx="195.99" cy="199.5" r="8.36"/><circle class="cls-5" cx="283.8" cy="186.96" r="8.36"/><path class="cls-5" d="M173.3,185.27c3.61-8.93,10.77-18.81,21.7-17.66,9.24,1,13.69,10.51,16.09,18.34.26.85,1.54.33,1.29-.53-2.66-8.66-7.92-18.85-18.23-19.27-11.15-.43-18.38,9.3-22.13,18.58A.69.69,0,0,0,173.3,185.27Z"/><path class="cls-5" d="M260.22,177.75c-.92-10.05,2-22.11,12.74-25.68,11.36-3.76,19.19,7.18,24.42,15.44.47.77,1.58-.08,1.11-.83-5.59-8.85-14.05-19.93-26.06-15.89-11.34,3.8-14.58,16.45-13.59,27.14C258.91,178.82,260.3,178.65,260.22,177.75Z"/><path class="cls-5" d="M642,196.53c-3.72-2.6-8.19-3.76-12.56-4.75a108.24,108.24,0,0,0-17.92-2.4,237,237,0,0,0-33.28.45,57.42,57.42,0,0,0-10.49,1.73c-.26-6-1.67-11.18-8.43-13.29-4.22-1.32-8.82-1.67-13.17-2.32q-8.13-1.22-16.27-2.27-16.27-2.15-32.64-3.68-32.72-3.1-65.58-3.87-23.55-.54-47.13.12c2.41-2.15,4.58-4.66,6.88-6.92A25.75,25.75,0,0,1,405.58,152c4.58-.82,9.33-.95,13.84-2.2,6.85-1.9,14-7.19,13.35-15a.76.76,0,0,0-.42-.56c-5.3-2.14-10.8-.83-16.29-1.46-7.77-.89-9.47-7.08-11.35-13.51-1.29-4.43-3.23-8.32-7.18-10.94-3.55-2.34-7.79-3.38-11.89-4.29-4.92-1.1-10.06-1.88-14.6-4.18-5.66-2.87-8.09-8.07-11.1-13.31-2.67-4.66-5.82-7.91-11-9.61-3-1-6.14-1.58-9-3.13a24.26,24.26,0,0,1-7.44-6.9c-3.08-4.09-6.35-9.67-10.35-14-1.35-5-4.68-9.64-8.47-13.36-15.89-15.63-41.46-29.91-64.13-24.38-3.43-7-11-11.3-18.55-13-18.5-4.22-39.95-.54-56.88,7.56-15.89,7.58-29.79,20.67-34.72,38a32.12,32.12,0,0,0-1.2,11.08,39.76,39.76,0,0,0-11.18,10.79c-7.08,9.94-11.76,23.71-11.3,36.76a29.66,29.66,0,0,0-9.69,5.32c-5.61,4.63-7.83,10.45-10.59,16.93-3.37,8-9.87,10.35-17.67,12.41-5.23,1.38-10.85,2.79-14.72,6.84-2.5,2.61-3.67,6.07-5.7,9A19.46,19.46,0,0,1,49,163.32c-5.63,2.49-11.79,3.47-17.38,6.08a20.79,20.79,0,0,0-10.72,11.36c-1.34,3.1-2.47,6.69-5.12,9-2.89,2.49-6.85,2.31-10.27,3.56C.9,195-.94,199.38,1.37,203.74c3.06,5.74,9.61,6.2,15.41,5.64,9.45-.9,18.34-1.18,27.58,1.45,8.06,2.3,14.83,7.57,22.82,9.82,7.16,2,14.62.44,21.74-.9a75,75,0,0,1,11.37-1.5c5.06-.15,9.62,1.2,14.3,2.95.78.3,1.58.6,2.39.88.07.16.15.29.23.45a87.38,87.38,0,0,0,9,13.41c-13.13,19.94-15.93,45.77-9.79,68.82,7.63,28.53,29.12,51.32,54.2,65.87,30,17.4,65.1,22.9,99.32,23.32,32.86.39,66.2-2.62,98.12-10.66,33.13-8.35,64.94-22.69,90.74-45.37l1-.85c-.22-.42-.45-.84-.68-1.25-.94-1.69-1.94-3.35-2.95-4.95,12.21-3,24.28-7.24,33.41-15.92a40.83,40.83,0,0,0,12-21.27c.07-.38.14-.77.2-1.16a30.65,30.65,0,0,0,.39-5c6.27-.63,12.14-2.93,14.58-9.42,3.3-8.83-5.59-15-13.26-16.13-5.5-.78-11.27-.33-16.81-.24-4.53.09-9,.23-13.56.5-2-2.23-5.11-3.49-8.06-4.33-7.13-2-12.47,2.3-16.2,7.76a86.33,86.33,0,0,0-14.08,4.74,89.79,89.79,0,0,0-20.07,12.63q-6.53-5.3-13.51-10c-.08-.4-.17-.79-.25-1.19s-.19-1-.31-1.45c-.4-1.89-.86-3.75-1.35-5.62-3-11.35-7.79-22-13-32.5q66.19,6.51,131.63,18.74Q531,253.5,544,256.2c.64.11,1.27.25,1.91.39.53-.35,1.05-.72,1.56-1.1a40.36,40.36,0,0,0,5.45-5,102.09,102.09,0,0,0,21.22,4.18c8.57.74,19.09,1.36,27.2-2a22.08,22.08,0,0,0,6.34-4,0,0,0,0,0,0,0,22.88,22.88,0,0,0,2.28-2.34h0c6.06-7.28,7.61-18,8.46-27.88l.12-1.42c0-.07,0-.15,0-.22a84.58,84.58,0,0,0,10.51-1c4.26-.68,8.89-1.46,12.69-3.65C648.58,208.27,648.07,200.8,642,196.53Z"/><path class="cls-5" d="M322.64,55.16c5.13,6.16,9.25,14.54,14.44,18.41,5.64,4.18,13.64,3.57,18.44,9,4,4.41,5.52,10.44,9.66,14.74,7.32,7.59,19,6.6,28.14,10.4,6,2.49,8.65,7,10.36,13,1.42,5,2.94,10.35,8.25,12.5s11.58.22,17.2,1.44c5.06,1.08.53,7.38-1.69,9.38A21.91,21.91,0,0,1,417,148.94c-6.66,1.36-13.8,1.1-20,4.34-5.1,2.68-8.51,7.38-12.63,11.24-.67.63-1.32,1.2-2,1.8h0a19.74,19.74,0,0,1-2,1.44h-.09a16.06,16.06,0,0,1-3.45,1.64c-3.82,1.27-7.93.85-11.84,1.65a14,14,0,0,0-6.92,3.58,14.16,14.16,0,0,0-1.56,1.72,21.66,21.66,0,0,0-2.9,4.82c-2.87,6.34-3.82,15.69-10.83,19.05-2.64,1.27-8.88,2.13-9.66-1.94-.24-1.25.3-2.94.42-4.22.15-1.77.29-3.55.37-5.34.32-6.7.09-13.6-2-20a30.15,30.15,0,0,0-4.41-8.66c-2.17-2.92-5.25-5.1-7.34-8.09-2.79-4-1.47-8.45-2.16-12.9a16.35,16.35,0,0,0-4.53-8.43c-2.92-3.16-8.48-7.72-10-12.54a52.72,52.72,0,0,0,16.88-14.25c.28-.35.54-.71.79-1.07a40,40,0,0,0,5.94-12.56c2.51-9.16,1.48-20.14-5.19-27.26A15.44,15.44,0,0,0,322.64,55.16Z"/><path class="cls-5" d="M249.74,19.77c.61,3-1.2,4.06-4,4.43A9.36,9.36,0,0,1,238,21.67a38.44,38.44,0,0,1,10.84-4.84A16.51,16.51,0,0,1,249.74,19.77Z"/><path class="cls-5" d="M120.18,87c2.91-9.64,9.13-21,18.2-26.81.73,5.21,3.2,10,8.31,12.79,6.69,3.67,15,.63,16.46-7.2,1.61-8.6-7.75-11.41-14.6-10.65A24.07,24.07,0,0,0,139.47,58a26.82,26.82,0,0,1,.38-5.94c2.48-14.8,13-27.49,25.17-35.62C178.68,7.33,195.25,2.71,211.59,2.1c9.82-.36,21.32,0,29.7,5.77a21.49,21.49,0,0,1,6.9,7.65A40.31,40.31,0,0,0,236.44,21a.71.71,0,0,0-.14,1,10.81,10.81,0,0,0,9.62,3.62,9.18,9.18,0,0,0,4.51-1.72c1.47-1.19,1.08-2.36.69-4.27a18.53,18.53,0,0,0-.94-3.09c14.83-3.43,31,1.81,43.95,9.88,7.89,4.91,16.37,10.72,22.2,18.08a24.45,24.45,0,0,1,3.58,6.24,17.26,17.26,0,0,1,.74,2.24,16.92,16.92,0,0,1,.17,9c-.29-.26-.57-.54-.89-.81-3.59-3-8.48-4.85-13.1-3.45-3.6,1.08-6.83,4.23-6,8.28s4.92,6.84,9,6.84c4.55,0,8.39-3.12,10.68-6.83.32-.53.6-1.07.86-1.6,4.32,5,6,12.29,5.58,18.81A36.22,36.22,0,0,1,319.94,102l-.79,1.08a52.5,52.5,0,0,1-16.06,13.43c-.36.21-.72.41-1.09.6a70.9,70.9,0,0,1-9.67,4.27,119.25,119.25,0,0,1-15.26,4.19l-.95.2a15,15,0,0,0-13.31-8.85c-1.31,0-4.41.21-5.27,1.35s-.25,3.62.36,4.88c2.3,4.71,7.72,5.57,12.45,5,1.63-.18,3.3-.4,5-.68a11.16,11.16,0,0,1,.29,5.84c-6.93,15.08-22.71,23.58-38.54,26.72-9.21,1.82-18.65,2.19-28,2.26-9.75.08-20.11.05-29.1-4.24-5.82-2.79-11.64-8-13.64-14.39,5.07-1.38,15.87-5.46,11.61-11.83a7.37,7.37,0,0,0-7.78-2.9c-3.48,1-5.35,4.64-5.83,8a15.69,15.69,0,0,0,.3,5.73,38.89,38.89,0,0,1-20.51-1.13c-.5-.14-1-.32-1.49-.5a41.48,41.48,0,0,1-11.32-6.22l-.46-.34-.73-.6c-8.39-7-12.09-16.58-12.62-26.67,0-.48,0-1,0-1.45A61.3,61.3,0,0,1,120.18,87Z"/><path class="cls-5" d="M139.6,59.4a22.57,22.57,0,0,1,12.78-3c4.61.3,9.92,2.55,9.56,8a9.7,9.7,0,0,1-6.34,8.43c-4.87,1.6-10.16-1.48-13-5.31A16.46,16.46,0,0,1,139.6,59.4Z"/><path class="cls-5" d="M320.33,63.29a13.58,13.58,0,0,1-4.75,6c-3.86,2.79-9.61,3-12.48-1.43-2.25-3.46-.3-7.1,3.15-8.56a11.12,11.12,0,0,1,8.76.35A17,17,0,0,1,320.33,63.29Z"/><path class="cls-5" d="M274.75,126.05c-5.64,1.17-13.24,2.3-15.77-3.86-2.69-6.54,9-3,11.37-1.31A13.65,13.65,0,0,1,274.75,126.05Z"/><path class="cls-5" d="M166,142.34a15.88,15.88,0,0,1-.34-4.26c.3-4.48,3.73-9.76,8.82-7.38,3.57,1.69,3.71,5.15.61,7.6a22.63,22.63,0,0,1-5.87,3A30.89,30.89,0,0,1,166,142.34Z"/><path class="cls-5" d="M117.37,220.77c-.45-.17-.9-.32-1.33-.47-6-2.18-11.59-3.85-18.2-3.29-7.25.6-14.29,2.87-21.58,3.18-8.58.36-14.76-3.7-22.2-7.2a62,62,0,0,0-21.37-5.67,63.94,63.94,0,0,0-10,0c-4.34.36-8.85,1.46-13.2.61-3.74-.73-7.62-3.66-7.8-7.8-.24-5.34,5.78-5.83,9.6-6.82,5.17-1.32,7.71-4.69,9.76-9.43,2.69-6.23,5.35-10.72,11.82-13.54,9.35-4.08,20.84-4.6,26.55-14.24,2.1-3.55,3.69-7.15,7.25-9.52,2.91-1.92,6.35-2.91,9.68-3.82,5.68-1.55,12-2.74,16.27-7.09,5.1-5.15,5.67-13.09,10.15-18.75a28.25,28.25,0,0,1,13-9.17,36.73,36.73,0,0,0,13.35,27.19c.39.34.78.66,1.19,1a42.8,42.8,0,0,0,11.43,6.36c-.88,1.2-1.79,2.33-2.62,3.34-3.59,4.35-7.39,9.18-7.13,15.14.31,6.8,5.83,12.64,5.09,19.54-.36,3.32-2.42,6.16-2.88,9.45a23.72,23.72,0,0,0,.58,8.35c1.21,5.63,4.36,12.18,2.57,18-2.63,8.49-12.74,7.19-19.35,4.95C117.81,220.92,117.59,220.86,117.37,220.77Z"/><path class="cls-5" d="M222.46,209.19a195.51,195.51,0,0,0-24,3.27c-6.71,1.36-13.77,2.83-19.61,6.6-10.65,6.87-14.72,20.75-11.44,32.67a33.89,33.89,0,0,0,1.59,4.51c.28.66.57,1.29.89,1.91a37.17,37.17,0,0,0,5.74,8.38c-2-.6-4-1.24-6-1.95-.6-.21-1.2-.43-1.8-.67a95.21,95.21,0,0,1-39.95-28.06l-.92-1.13s0-.05-.07-.08a84.62,84.62,0,0,1-8-11.88c4.7,1.5,9.72,2.33,14.29.06,4.74-2.37,6.38-7.26,5.87-12.26-.76-7.14-4.89-14.22-3.38-21.51.88-4.15,3.27-7.33,2.69-11.74-.48-3.84-2.41-7.33-3.7-10.92-1.65-4.62-1.76-8.87.64-13.25,2.1-3.84,5.29-6.88,7.86-10.37A40.61,40.61,0,0,0,165,144c1.82,5.82,6.63,10.81,11.72,13.86,9.9,6,22,5.93,33.19,5.82,21.6-.21,45.77-2.75,60.85-20.17a39.81,39.81,0,0,0,7.26-12.3.7.7,0,0,0-.75-.94,12.46,12.46,0,0,0-.56-3,87.89,87.89,0,0,0,25.68-8.6,19.57,19.57,0,0,0,4.66,7.6c2.65,2.74,5.83,5.14,7.85,8.43,2.76,4.47,1.12,9.31,2.29,14.11.9,3.68,3.68,6.13,6.24,8.72a29.35,29.35,0,0,1,7.18,11.71c2.68,8.25,2.26,17.21,1.45,25.73-.28,3-1.16,4.72,1.63,6.49a9.7,9.7,0,0,0,8,.71c7.26-2.21,9.47-10.18,11.72-16.55a38.43,38.43,0,0,1,2.79-6.39C354,195,346.27,208.58,335.57,220c-.49.53-1,1.06-1.52,1.57a110,110,0,0,1-10,9.06c-.1-.7-.21-1.38-.33-2.06-.1-.52-.21-1-.32-1.52a38.81,38.81,0,0,0-1.57-5.1c-2.24-5.8-5.85-11-9.43-16.06-3.43-4.82-6.8-5.94-12.62-6.4a101.57,101.57,0,0,0-43.13,6.11l-.1,0a.57.57,0,0,0-.32.62.69.69,0,0,0,.93.63,100.11,100.11,0,0,1,42.44-6c4.12.34,7.7.73,10.46,4.16,1.71,2.14,3.22,4.5,4.72,6.79A48.94,48.94,0,0,1,322.12,228q.18.75.3,1.53c.13.7.22,1.39.29,2.1,0,.13,0,.27.05.39,0,.42.07.84.08,1.26C323.56,246,316.9,260.73,302,259a21.88,21.88,0,0,1-11.58-4.9c-.42-.34-.82-.69-1.23-1.06-4.36-4-7.41-9.66-9.41-15.49a30.15,30.15,0,0,0,17.45-16.84.69.69,0,0,0-1.28-.54,28.84,28.84,0,0,1-16.6,16c-.43.17-.86.33-1.31.47a34.34,34.34,0,0,1-4.22,1.19,47,47,0,0,1-15.92.36c-4.38-.57-8.5-1.18-12.82,0-4.48,1.24-8.45,3.74-12.78,5.33A26.85,26.85,0,0,1,219.49,245a24.5,24.5,0,0,1-2.84-.53h0a27.56,27.56,0,0,1-4.94-1.65h0a28.25,28.25,0,0,1-13.1-11.53c-.44-.76-1.56.07-1.11.84A29.74,29.74,0,0,0,216,245.71h0c7.37,5.65,12.27,15.35,10.7,24.63,0,.14,0,.26-.07.4-.08.46-.2.94-.32,1.4-.07.25-.14.48-.21.74a2.77,2.77,0,0,1-.1.26c-4.12,12.52-24.89,7-33.5,3.47a44.76,44.76,0,0,1-12.07-7.37c-.41-.35-.8-.7-1.19-1.06s-.64-.6-1-.94a36.93,36.93,0,0,1-7.26-10c-.24-.48-.46-.95-.67-1.44a33.26,33.26,0,0,1-1.79-5.29c-2.84-11.59,1.57-24.72,12.1-30.89,6.4-3.75,14.07-5.07,21.26-6.4a195.61,195.61,0,0,1,20.72-2.66l2.16-.15h0c.89-.07.71-1.45-.18-1.4-.11,0-.23,0-.34,0C223.7,209.09,223.07,209.13,222.46,209.19Z"/><path class="cls-5" d="M201.06,294.61c-5.65-.62-11.59-1-17.15-2.29-7.18-1.66-8.2-8.69-10.15-14.77q-1.33-4.17-2.65-8.33-.47-1.49-.9-2.94c2.43.84,4.9,1.59,7.38,2.24a46.54,46.54,0,0,0,16.59,10.23c8.77,3.15,27,7.52,32.52-3.44,0,0,0-.08.05-.12,2.66,7.31,5.27,14.66,7.88,22-1.12,0-2.22-.1-3.33-.15a.77.77,0,0,0-.79,0Q215.75,296.23,201.06,294.61Z"/><path class="cls-5" d="M236.66,298.63a8.35,8.35,0,0,1-.72-1.85l-4.18-11.67c-1.44-4-2.69-8.13-4.13-12.22a7,7,0,0,0,.24-.9c3.77-.36,7.54-.85,11.26-1.46,1.23-.2,2.47-.4,3.69-.64-3.78,3.75-4.1,9.57-.76,14.26,4.9,6.87,14.09,11.52,21.78,14.44.42.15.85.32,1.28.49,1.87,7,3.67,14.35,6.94,20.82a164.59,164.59,0,0,1-27.77,1.89c-4.74-7.37-8.41-15.4-12.2-23.3C233.62,298.57,235.16,298.67,236.66,298.63Z"/><path class="cls-5" d="M252.19,245.29a.72.72,0,0,0,.74-.77,9.51,9.51,0,0,0-2.72-5.42,98.13,98.13,0,0,1,10.12.84.76.76,0,0,0,.37.18c1.68.21-1.33,5.7-1.86,6.2-1.66,1.56-3.84,1.84-6,1.9h-.54c-5,0-9.69-1.8-11-7.08.74-.32,1.49-.61,2.24-.89a19.48,19.48,0,0,1,5-1.06c1.47,1.57,2.92,3.27,3.12,5.5A.6.6,0,0,0,252.19,245.29Z"/><path class="cls-5" d="M256.08,249.29a8,8,0,0,0,5.95-5.56,7.46,7.46,0,0,0,.35-3.64h.22a43.38,43.38,0,0,0,14.48-1.59c.48-.13.95-.29,1.41-.46,2,5.87,4.91,11.52,9.34,15.71-3.51,1.73-7.08,3.35-10.71,4.83-.75.32-1.52.62-2.28.92h0a157.27,157.27,0,0,1-18.58,6q-5,1.29-10.14,2.32a.57.57,0,0,0-.55,0,1.6,1.6,0,0,0-.19.11h0s0,0,0,0c-5.67,1.13-11.41,2-17.18,2.59a27.42,27.42,0,0,0-2.29-14.66,28.49,28.49,0,0,0-7-9.65,27.88,27.88,0,0,0,10.88-.46c3.58-.89,6.83-2.6,10.16-4.12C241.92,248.63,249.36,250.82,256.08,249.29Z"/><path class="cls-5" d="M277.85,260a14.33,14.33,0,0,1,4.75,1.91c4.41,2.86,4.74,8.11,4.73,12.9a76.84,76.84,0,0,1-.63,11.44c-.07.54-.17,1.09-.28,1.63a1.91,1.91,0,0,1-.06.33c-.9,4.58-2.94,11.35-8.29,12.09-3.79.51-8.08-.89-11.8-2.27l-1.59-.6-.3-.12a62,62,0,0,1-11.82-5.95c-3.4-2.18-7-4.69-9.39-8-3.37-4.74-2.55-11,2.59-14a178.76,178.76,0,0,0,31.71-9.2Z"/><path class="cls-5" d="M266.71,299.67c6.32,2.26,13.72,4.09,17.8-2.41a26.37,26.37,0,0,0,3.26-8.15c7.58,7,15,14.29,22.48,21.42-3.08,1-6.18,2-9.31,2.9-.47.15-.94.28-1.42.42-6.72,1.92-13.5,3.57-20.35,4.86l-1.38.25c-1.43.26-2.87.51-4.3.73C270.27,313.5,268.47,306.42,266.71,299.67Z"/><path class="cls-5" d="M288.09,287.52a64.25,64.25,0,0,0,.52-16.77c-.55-6.52-4.14-9.82-9-11.48q4.18-1.75,8.26-3.82a.62.62,0,0,0-.14.93q10.95,13.47,21.89,26.9c2.08,2.54,4.49,5.87,8.11,6a8,8,0,0,0,2.9-.5c3.89,4.63,8.27,8.84,12.23,13.4q-5.93,2.4-11.91,4.64c-3.05,1.13-6.11,2.23-9.21,3.26C303.84,302.53,296.08,294.92,288.09,287.52Z"/><path class="cls-5" d="M319.47,287.34a6.69,6.69,0,0,1-6.5-2.26c-1.75-1.82-3.27-3.9-4.86-5.85l-19.28-23.68a.62.62,0,0,0-.75-.21l1-.49a24.07,24.07,0,0,0,3.94,2.7c8.4,4.65,19.35,4.09,25.64-3.72,4.75-5.91,6.28-13.94,5.57-21.62A121.52,121.52,0,0,0,336,221.66a7.27,7.27,0,0,1,1.36.46c15.29,6.79,29.84,16.19,43.53,25.76a449.26,449.26,0,0,1-45.93,31.17c-4.22,2.51-8.47,5-12.82,7.3-.4.21-.81.4-1.2.56A10.94,10.94,0,0,1,319.47,287.34Z"/><path class="cls-5" d="M461.88,258.85a17.19,17.19,0,0,1,9.44,3.55c-.86.05-1.74.12-2.61.19a130.16,130.16,0,0,0-18,2.66C453.44,261.58,457,258.75,461.88,258.85Z"/><path class="cls-5" d="M433.6,272.48a81,81,0,0,1,14.11-5.06c.61-.17,1.24-.32,1.85-.46a131.78,131.78,0,0,1,21.19-3.13l1.8-.12c.51,0,1-.08,1.54-.09,5.06-.31,10.14-.44,15.21-.52,6.47-.08,13.88-1,19.88,2,6.88,3.36,9.08,11.23,3.3,16.84a17.47,17.47,0,0,1-1.84,1.5,14.62,14.62,0,0,1-2.95,1.56,17.24,17.24,0,0,1-3.2.94c-.54.11-1.1.21-1.66.28a14.13,14.13,0,0,1-1.85.18c-.39,0-.78,0-1.17,0-1.37,0-2.73,0-4.1-.07s-2.66-.18-4-.29c-.88-.07-1.07,1.31-.18,1.38a64.78,64.78,0,0,0,9.21.22,30,30,0,0,1-.46,5.27,43.87,43.87,0,0,1-17.43,9.16c-.87.23-.34,1.51.53,1.29a44.62,44.62,0,0,0,16.43-8.26,40.15,40.15,0,0,1-13.39,20.74c-8.9,7.31-19.91,11.08-31.07,13.77l-1-1.52A179.4,179.4,0,0,0,415.76,284,89.88,89.88,0,0,1,433.6,272.48Z"/><path class="cls-5" d="M399.92,273.92h0c.54.34,1.07.7,1.6,1.07q6.21,4.23,12.07,8.95l1.09.89a178.94,178.94,0,0,1,35.86,39.83c1.1,1.67,2.3,3.42,3.5,5.26.28.41.54.83.81,1.24,1.14,1.77,2.25,3.6,3.26,5.48-46.29,40.84-110.06,53.8-170.14,55.71-34.46,1.1-70.11-1.52-102-15.53-27-11.84-51.55-32.16-63.66-59.57-11.23-25.42-10.34-56.81,4.85-80.19a95.94,95.94,0,0,0,37.38,27.09c1.33.54,2.67,1,4,1.52.2.56.38,1.06.52,1.49,2.06,6.64,3.72,13.77,6.54,20.14,2.16,4.85,6.31,6.19,11.26,6.91q5.43.79,10.9,1.45t10.94,1.16c3.65.35,7.3.64,11,.91s7.26.47,10.88.67c3.81,7.87,7.44,15.91,12.1,23.33a135.34,135.34,0,0,1-20.07-2.11c-17.52-3.19-34.25-10.09-48.21-21.24a.7.7,0,0,0-.87,1.09c19.89,15.9,44.92,23,70.07,23.69l1.7.05q8,.13,15.85-.52c3.94-.33,7.84-.79,11.73-1.39.49-.06,1-.14,1.45-.21,1.38-.23,2.76-.46,4.14-.71.46-.09.92-.17,1.38-.27,7-1.31,13.9-3,20.74-5l1.42-.43q4.77-1.43,9.49-3c.51-.16,1-.32,1.5-.5,7-2.4,14-5.06,20.89-7.88l1.35-.56c9.7-4,19.28-8.29,28.74-12.58,11.74-5.33,23.64-10.55,34.85-17h0c.39.25.77.5,1.14.77Z"/><path class="cls-5" d="M552.55,248.9c-.33.39-.67.76-1,1.14a36.35,36.35,0,0,1-5.86,5.07q-70.6-14.52-142.34-22.42-8.91-1-17.81-1.84c-2.83-5.65-5.76-11.25-8.59-16.85-.4-.8-1.7-.28-1.29.53,2.7,5.38,5.53,10.74,8.26,16.17l.74,1.47c5.07,10.11,9.77,20.39,12.81,31.28.72,2.56,1.35,5.16,1.91,7.75l-.56.32-1.38.78c-8.74,4.95-17.89,9.19-27,13.35-12,5.47-24,10.93-36.18,15.92-3.93-4.57-8.31-8.78-12.21-13.38,2.51-1.12,4.95-2.94,7-4.11a452,452,0,0,0,53.44-35.67.7.7,0,0,0,0-1.1q-11.19-7.86-23-14.82-6.15-3.59-12.42-6.94c-3.11-1.64-6.51-4-9.94-5.13,8.53-9.06,15.3-19.57,18.64-32a72.66,72.66,0,0,0,2.1-11.71,14.4,14.4,0,0,1,2.13-2.07c4.59-3.54,10.75-2.25,16-3.58a18.21,18.21,0,0,0,6.72-3.38A919.66,919.66,0,0,1,480,169.93q29.67,2.25,59.18,6.42c5,.7,9.94,1.41,14.89,2.22,4.68.78,9.74,1.85,11.54,6.91a19.58,19.58,0,0,1,1,6.43c0,.48,0,1,0,1.46,0,2-.16,3.93-.18,5.76v.23c0,.5,0,1,0,1.52-.07,4.56-.24,9.12-.7,13.65C564.45,226.68,560.55,239.67,552.55,248.9Z"/><path class="cls-5" d="M607.13,247.43a46,46,0,0,1-12.76,3,23,23,0,0,1-10-1.29c-3.64-1.5-7-5.4-4.64-9.26,0,0,0,0,.07,0,5,1.31,10.5,1.31,15.6,1.34a119.45,119.45,0,0,0,16.9-1.13.32.32,0,0,0,.09,0A23.48,23.48,0,0,1,607.13,247.43Z"/><path class="cls-5" d="M612.82,239.14a.64.64,0,0,0-.7-.4,115.61,115.61,0,0,1-24.6.79,41.52,41.52,0,0,1-7.3-.88,7.76,7.76,0,0,1-1.07-.32h0a9.65,9.65,0,0,1-2.45-1.21,7,7,0,0,1-1.2-10.44,10.48,10.48,0,0,0,.93.82c6.36,4.94,15.52,1.79,18.55-5.33,0-.07.06-.14.09-.23l22-3.26C616.48,225.54,615.52,233,612.82,239.14Z"/><path class="cls-5" d="M572,205.58c-.13-2.8.43-5.19,2.49-7.18a15.9,15.9,0,0,1,6.43-3.58,16.5,16.5,0,0,1,1.81-.45,7.85,7.85,0,0,1,8.81,4.38c3,5.87,4.79,15.54,2.46,22.06a.72.72,0,0,0-.22.57,1,1,0,0,1-.08.24c-3.3,7.71-14.36,9.59-18.85,1.87A22.49,22.49,0,0,1,572.2,215a46.57,46.57,0,0,1-.32-4.72C571.86,208.73,572,207.14,572,205.58Z"/><path class="cls-5" d="M583.65,190.89a218.28,218.28,0,0,1,32.85.26,87.86,87.86,0,0,1,18.19,3.45c4.65,1.47,11.83,5,10.79,11s-9.13,7.48-14,8.41a84.24,84.24,0,0,1-12.74,1.45l-1.39,0c-1.61,0-3.21,0-4.81,0-.9,0-1.09,1.35-.18,1.38,1.63,0,3.26,0,4.87,0,0,.12,0,.26,0,.39l-21.65,3.2c1.17-4.08.75-8.79.06-12.83s-1.82-9.19-4.8-12.35a8.51,8.51,0,0,0-7.07-2.59,11.75,11.75,0,0,0-2.32.4,17.94,17.94,0,0,0-8.3,4.75,11.53,11.53,0,0,0-2,3.22c-.63,1.38-.45,3.29-.48,4.8a70.54,70.54,0,0,0,.69,10.76c.44,3.18,1.27,6.47,3.25,9-4.63,5-1.77,11.5,3.83,13.8-3,5.32,2.49,10.36,7.61,11.69,5.84,1.54,11.8.69,17.53-1a22.3,22.3,0,0,1-3.73,1.67c-8.21,2.79-18.22,2.22-26.72,1.38A99.34,99.34,0,0,1,554,249.34,55.72,55.72,0,0,0,565.23,226c.16-.68.31-1.37.45-2a103.65,103.65,0,0,0,1.77-14.26c.29-4.75.36-9.52.36-14.27,0-.82,0-1.64,0-2.45a61,61,0,0,1,13.11-2C581.82,191,582.73,190.93,583.65,190.89Z"/></g></g></svg>