<svg xmlns="http://www.w3.org/2000/svg" viewBox="0 0 650.34 541.63"><defs><style>.cls-1{fill:#37343f;}.cls-2{fill:#ffdda7;}.cls-3{fill:#7b6b9a;}.cls-4{fill:#3a3349;}.cls-5{fill:#ffaea8;}.cls-6{fill:#faf1e4;}.cls-7{fill:none;stroke:#000;stroke-miterlimit:10;}</style></defs><title>Asset 1</title><g id="Layer_2" data-name="Layer 2"><g id="Wendy"><path d="M649.81,375.58c.21.77-.76,1.24-1.06.47-4.56-11.76-16.64-16.77-27.57-16.22-21.49,1.12-40.07,19.11-62.1,15.68a41.39,41.39,0,0,1-14.86-5.46c1.16,27.76-2.33,55.63-12.07,81.45-13.23,35.06-37.43,64.65-69.6,79-31.29,13.95-66.86,13.49-98.86,2.72-33.2-11.17-61.93-34.14-84.79-62.68q-8.22-10.26-15.45-21.38A113.05,113.05,0,0,1,259.94,460c-7.58,19.94-20.67,37.38-37.12,49.13-8.26,5.9-17.14,9.8-26.51,13s-20,6.56-24.88,16.73a.57.57,0,0,1-1.08-.33c1.33-19.82,15.5-34.16,28.42-46.16,12-11.18,26-24.18,29.6-41.66-19.59-8.27-34.53-27-39.37-49.75-2.2-10.32-3.75-25.91,6.12-32.21a9.53,9.53,0,0,1,7.6-1.22c-.35-1.27-.69-2.55-1-3.83l-8.95.25c-12.6.3-25.47.34-37.62-3.44a55.28,55.28,0,0,1-25-16.33,61,61,0,0,1-13.49-25.87c-2.46-10.24-1.21-19.68.72-29.87,1-5.09,2-10.6.76-15.75-1.66-7.06-7.83-9.87-14.56-10.38-13.23-1-26.39,2.35-39.43,4-11.49,1.41-23.52,1.51-34.2-3.59C21.2,258.47,14.23,251.28,9.4,243A66.2,66.2,0,0,1,.9,214.72c-.37-5.17.23-10.38-.11-15.53,0-.62-.08-1.24-.15-1.85.56.48,1.11,1,1.64,1.48a67.38,67.38,0,0,1,10.17,13.23c3.71,5.93,7.36,12.11,12.82,16.61s12.08,6.75,18.93,7.76c12.15,1.81,24.5.21,36.71.62a158.42,158.42,0,0,1,41.15,7c5.68,1.75,11.75,3.57,16.73,6.9,4.19,2.82,7,6.93,9,11.51,4.46,10.21,5.95,21.79,16.21,28.16s23.25,5.81,33.84,1c1-.43,1.91-.9,2.84-1.39-8.4-30.76-13.24-62.53-7.48-94.23,3.47-19.09,10.85-37.35,22.7-52.79,11.75-15.28,27-27.54,43.2-37.82,34-21.57,73.83-37.27,114.66-35.22a145.43,145.43,0,0,1,98.87,46.58A140.72,140.72,0,0,1,492.06,144c.35.64.7,1.26,1,1.9a146,146,0,0,1,12,30.3c4.12-1.82,8.2-3.72,12.17-5.81,9.7-5.12,18.82-11.68,25-20.9a39.53,39.53,0,0,0,6.34-15.65c.88-5.71-.1-11.31-1-17-3-18.66,2-37.23,14.75-51.41,13.78-15.31,35.25-20.9,48.39-36.89A57.89,57.89,0,0,0,622.84,1.75c.4.69.77,1.39,1.11,2.09a58.27,58.27,0,0,1-15.43,29.32c-7.81,7.89-17.7,13.11-27,18.93-10,6.2-18.82,13.46-25,23.61a58.16,58.16,0,0,0-8.5,33c.37,6.39,2.16,12.62,2.34,19A35.88,35.88,0,0,1,548,141.41C544.38,151.06,537.2,159,528.91,165a121.25,121.25,0,0,1-23.41,12.9c.15.58.3,1.18.43,1.76-.24.23-.49.46-.74.67a.68.68,0,0,1-.12.12c0,.12,0,.26,0,.39-.2-.84-.4-1.67-.62-2.51-2,.84-4.09,1.62-6.14,2.34-3.07,1.07-7.11,2-10,0-3.27-2.22-3-6.3-2.26-9.72,1.74-8.44,3.69-16.85,5.64-25.27A139.57,139.57,0,0,0,461,106.91a144.48,144.48,0,0,0-103.54-35.5C317.79,73.89,279,91.54,247.25,114.83c-15.49,11.37-29.51,25.14-39,42s-14.45,36-15.92,55.25c-2,26.37,2.45,52.27,9.39,77.6,9.74-5.44,17.63-13.91,24.44-22.62,8-10.23,15.13-23.26,8.82-36.17-5.19-10.62-16.14-17.37-26-23.13-.76-.44-.23-1.72.54-1.27,10.16,5.93,21.43,12.89,26.73,23.87,6.17,12.8,0,25.79-7.95,36.19-7,9.19-15.91,18.55-26.25,24.34-.34.21-.68.39-1,.56-9.05,4.84-19.17,6.89-30,3.73S154,284,150.39,273.68c-1.93-5.46-3.44-11.29-6.79-16.1-4.2-6-11-8.61-17.76-10.89a156.06,156.06,0,0,0-45.11-8.27c-12.89-.44-26,1.41-38.81-1-12-2.25-20.45-8.91-27-19C11.19,212.85,7.37,206,2.41,200.78c.25,5.93-.46,12.12.26,17.65a62.32,62.32,0,0,0,11.54,29.31,43.72,43.72,0,0,0,27.61,17.18c12.58,2.16,25.34-.51,37.78-2.38a133.13,133.13,0,0,1,18.7-1.78c5-.05,10.59,0,15,2.75,7.66,4.72,7.26,14.35,6,22.16-.8,5-2.13,9.84-2.58,14.86a53.26,53.26,0,0,0,.92,15.68A59.4,59.4,0,0,0,131.9,344a54.82,54.82,0,0,0,29,16.55c12.9,2.83,26.3,2.16,39.43,1.73l1,0c.4,0,.8,0,1.2-.05,15.31-.51,30.64-1.38,45.86-3.21.45,0,.91-.09,1.37-.16q3-.36,5.93-.77c.1-.32.19-.66.31-1a66.87,66.87,0,0,1,30-36.05,68.54,68.54,0,0,1,47.65-7.2c.71.16.57,1.29-.15,1.14a66.93,66.93,0,0,0-26.86-.29,65.73,65.73,0,0,0-39.81,24.55A67.61,67.61,0,0,0,257,357.9c5.6-.8,11.16-1.74,16.71-2.86,24.45-4.94,48.39-13.47,69.13-27.59,20.54-14,39-33,47-56.95.43-1.26.83-2.54,1.19-3.84.15-.5.29-1,.41-1.49A91,91,0,0,0,385.13,201a92.38,92.38,0,0,0-27.64-32.62c-.44-.33-.9-.66-1.36-1a91.08,91.08,0,0,0-18.75-10.28.69.69,0,0,1,.54-1.27,93.92,93.92,0,0,1,13.92,7c1.25.77,2.48,1.58,3.71,2.38.62.41,1.25.8,1.85,1.21s.8.71,1.25,1q2.93,2.19,5.69,4.6a94.53,94.53,0,0,1,18.76,22.4,91.4,91.4,0,0,1,6.51,13.11c.56,1.41,1.09,2.83,1.58,4.27a93.1,93.1,0,0,1,1.36,54.39,81,81,0,0,0,7.28,5.82,67.48,67.48,0,0,0,15.39,8.14c20.69-12.06,46.56-13.82,69.15-6.16A169.59,169.59,0,0,0,511,257.51c.36-.25.7-.51,1.05-.78.94-.71,1.87-1.41,2.79-2.12,2.32-1.8,4.62-3.61,6.89-5.47.59-.46,1.16-.93,1.73-1.4,2.49-2,5-4.09,7.41-6.17l2.57-2.2c10.05-8.62,19.88-17.52,29.81-26.22,15.25-13.35,31.22-27.77,37.31-47.79,3.13-10.3,3.2-21.28-1.06-31.26-3.76-8.82-10-16.28-14.82-24.47-4.32-7.27-7.79-15.71-7.28-24.33.45-7.52,4.35-13.83,10.12-18.48,6.08-4.91,13.37-8,20-12,7.82-4.72,14.11-11.06,17.64-19.61A38.12,38.12,0,0,0,624,3.84c.16-.78.31-1.57.45-2.36a39.45,39.45,0,0,1,2.9,32.22A41.37,41.37,0,0,1,610.12,55c-8.08,5.17-17.63,8.57-24.48,15.49-18,18.19,3.19,40.93,12.34,57.34,9.66,17.32,7.12,36.77-3,53.33-11.14,18.23-29.12,31.68-45,45.57-5.08,4.44-10.13,9-15.25,13.39,9.36.89,15.64,11,19.82,19.43A94.34,94.34,0,0,1,559.19,330a58.77,58.77,0,0,1-2.19,5.68,59.93,59.93,0,0,0,15.59,2c16.12.18,33.1-3.39,48.55,3.38C634.82,347,645.57,360,649.81,375.58Zm-3.2-5.83a53.21,53.21,0,0,0-12.23-18.31,45.65,45.65,0,0,0-20.9-11.68c-8.16-1.95-16.57-1.74-24.86-1.39-10.66.46-21.84,1.36-32.15-1.59h0a20.45,20.45,0,0,1-5.66,7.34,11.17,11.17,0,0,1-8.64,2.39c1,7.31,1.65,14.68,2,22.05v0a39,39,0,0,0,26.55,5.64c11.48-1.7,21.95-7.55,32.83-11.56,9.14-3.38,19.11-5.67,28.63-2.84A27.69,27.69,0,0,1,646.61,369.75Zm-86.18-48.3a93.68,93.68,0,0,0-5.85-59.21c-4.07-8.88-10.45-20.39-20.52-21h-.15l-.53,0c-3.56,3.07-7.14,6.11-10.78,9.09-.87,4.14-.14,8.53.81,12.66,0,.18.08.34.11.5.12.36.22.7.32,1.05a370,370,0,0,1,10.37,42.54.73.73,0,0,1,0,.37h0q2.05,7.5,3.76,15.1c1.64,7.45,3,15,4,22.64,4.86,1,9.63-2.53,12.39-7.09.33-.55.65-1.12,1-1.69.19-.35.39-.74.57-1.11A67.16,67.16,0,0,0,560.43,321.45Zm-25.11,117c6.62-22.36,8.83-45.76,7.74-69.09h0c0-.5,0-1-.07-1.5-.37-7.22-1.07-14.42-2-21.59-.05-.45-.11-.92-.19-1.37A297.15,297.15,0,0,0,533,307.59a.59.59,0,0,1,0-.44v0a363.28,363.28,0,0,0-10-41.14c-.18-.66-.37-1.3-.58-1.94a.45.45,0,0,0,0-.08l-.17-.72a.86.86,0,0,0,0,.27l.14.45a87.65,87.65,0,0,1-10.14-5.56c-4.9,3.66-9.94,7.13-15.18,10.32q-5.24,3.21-10.78,6a81.34,81.34,0,0,1,18.52,9.58c.61.42-.1,1.32-.71.9A80.49,80.49,0,0,0,485,275.35c-14.14,6.87-29.51,11.27-45.31,11A71.22,71.22,0,0,1,415,281.58c-9.33,5.5-17.33,13.19-21,23.36-.27.69-1.32.24-1.07-.45,3.27-8.92,9.87-16,17.59-21.31,1.07-.73,2.15-1.43,3.24-2.09a77.12,77.12,0,0,1-21.53-13.41,91.2,91.2,0,0,1-4.34,11.77c-10.12,22.61-29.91,40.68-50.76,53.38S292.59,353,268.63,357.42c-4,.74-8.08,1.38-12.13,2a66.74,66.74,0,0,0-3.1,24.25c0,.73-1.1.88-1.13.15a67.75,67.75,0,0,1,3-24.22c-2.06.28-4.1.55-6.16.8a83.4,83.4,0,0,1-9.22,14.82,75.91,75.91,0,0,1-8.14,8.91,360.49,360.49,0,0,0,28.42,57.64l.81,1.31q1,1.6,2,3.21c.27.45.56.89.87,1.33v0a262.62,262.62,0,0,0,23.21,30.8C311,505.59,340.64,526.27,374.22,535c32.26,8.41,67.45,6.27,97.31-10.45C502.64,507.18,524.61,474.61,535.32,438.42Zm-13.23-176a32.8,32.8,0,0,1-.86-10.92c-2.59,2.09-5.2,4.13-7.86,6.12A86.13,86.13,0,0,0,522.09,262.4ZM500.81,178,504,176.6a144.57,144.57,0,0,0-11.32-29c-1.91,8-3.79,16-5.28,24.07-.81,4.39.25,8.82,5.56,8.63C495.73,180.17,498.32,179.05,500.81,178ZM483,274.66q-2-.66-4.11-1.23a85.57,85.57,0,0,0-48.05,1.09,79.58,79.58,0,0,0-14.26,6.12c13.9,4.9,29.13,5.33,43.79,2A109,109,0,0,0,483,274.66ZM262.59,447.82c-.72-1.1-1.43-2.21-2.14-3.34-.33.93-.7,1.87-1.1,2.77,0,.05,0,.08,0,.12-2.76,11.45-18.59,7.5-25.74,5.24-1.4-.44-2.8-.93-4.16-1.47-3.31,15.77-15,28.22-25.94,38.46-13.25,12.41-29.11,26.18-31.74,46.3,5.25-8.3,14.45-11.72,23-14.59,9.68-3.27,18.84-7.07,27.4-13.17a100.27,100.27,0,0,0,22.44-22.33A111.29,111.29,0,0,0,262.59,447.82Zm-4.45-.68a41.33,41.33,0,0,0,1.53-3.92,360.09,360.09,0,0,1-28.88-58.29l-.23.21c-3.13,2.8-6.7,5.71-10.83,6.31-5.31.75-11.59-4.76-9-10.8a.65.65,0,0,1-.11-.44,11.81,11.81,0,0,0-6.08-10.75,10.1,10.1,0,0,0-1.39-.61,8.78,8.78,0,0,0-2.69-.46c-6.44-.07-10.49,7-11.49,13.24-1.62,10,1.08,21.45,4.65,30.64a69,69,0,0,0,16.66,25.13,62.61,62.61,0,0,0,18.37,12.05,10.28,10.28,0,0,0,1.09.43c1.42.6,2.88,1.11,4.35,1.57,6.25,2,21.3,5.95,24.06-3.9A.54.54,0,0,1,258.14,447.14ZM244.3,366.66c1.21-2,2.35-4.05,3.39-6.14-14.86,1.75-29.83,2.6-44.78,3.11.36,1.45.76,2.89,1.16,4.33a12.87,12.87,0,0,1,7.65,11.79.76.76,0,0,1,.2.95c-2.92,5.48,3.32,10.08,7.67,9.48,4.06-.56,7.57-3.59,10.63-6.36a.43.43,0,0,0,.1-.09c.31-.27.61-.55.91-.86A78,78,0,0,0,244.3,366.66Z"/><path class="cls-1" d="M634.38,351.44a53.21,53.21,0,0,1,12.23,18.31,27.69,27.69,0,0,0-14.44-9.93c-9.52-2.83-19.49-.54-28.63,2.84-10.88,4-21.35,9.86-32.83,11.56a39,39,0,0,1-26.55-5.64v0c-.35-7.37-1-14.74-2-22.05a11.17,11.17,0,0,0,8.64-2.39,20.45,20.45,0,0,0,5.66-7.34h0c10.31,3,21.49,2.05,32.15,1.59,8.29-.35,16.7-.56,24.86,1.39A45.65,45.65,0,0,1,634.38,351.44Z"/><path class="cls-1" d="M624,3.84a38.12,38.12,0,0,1,1.18,31.39c-3.53,8.55-9.82,14.89-17.64,19.61-6.65,4-13.94,7.07-20,12-5.77,4.65-9.67,11-10.12,18.48-.51,8.62,3,17.06,7.28,24.33,4.86,8.19,11.06,15.65,14.82,24.47,4.26,10,4.19,21,1.06,31.26-6.09,20-22.06,34.44-37.31,47.79-9.93,8.7-19.76,17.6-29.81,26.22l-2.57,2.2c-2.46,2.08-4.92,4.13-7.41,6.17-.57.47-1.14.94-1.73,1.4-2.27,1.86-4.57,3.67-6.89,5.47-.92.71-1.85,1.41-2.79,2.12-.35.27-.69.53-1.05.78A169.59,169.59,0,0,1,484.37,274c-22.59-7.66-48.46-5.9-69.15,6.16A67.48,67.48,0,0,1,399.83,272a81,81,0,0,1-7.28-5.82,93.1,93.1,0,0,0-1.36-54.39c-.49-1.44-1-2.86-1.58-4.27a91.4,91.4,0,0,0-6.51-13.11A94.53,94.53,0,0,0,364.34,172q-2.76-2.42-5.69-4.6c-.45-.32-.8-.73-1.25-1s-1.23-.8-1.85-1.21c-1.23-.8-2.46-1.61-3.71-2.38a93.92,93.92,0,0,0-13.92-7,.69.69,0,0,0-.54,1.27,91.08,91.08,0,0,1,18.75,10.28c.46.32.92.65,1.36,1A92.38,92.38,0,0,1,385.13,201a91,91,0,0,1,6.27,64.21c-.12.5-.26,1-.41,1.49-.36,1.3-.76,2.58-1.19,3.84-8,24-26.44,43-47,56.95-20.74,14.12-44.68,22.65-69.13,27.59-5.55,1.12-11.11,2.06-16.71,2.86a67.61,67.61,0,0,1,9.91-18.63,65.73,65.73,0,0,1,39.81-24.55,66.93,66.93,0,0,1,26.86.29c.72.15.86-1,.15-1.14a68.54,68.54,0,0,0-47.65,7.2,66.87,66.87,0,0,0-30,36.05c-.12.32-.21.66-.31,1q-3,.4-5.93.77c-.46.07-.92.13-1.37.16-15.22,1.83-30.55,2.7-45.86,3.21-.4,0-.8,0-1.2.05l-1,0c-13.13.43-26.53,1.1-39.43-1.73a54.82,54.82,0,0,1-29-16.55,59.4,59.4,0,0,1-14.29-27.83,53.26,53.26,0,0,1-.92-15.68c.45-5,1.78-9.9,2.58-14.86,1.28-7.81,1.68-17.44-6-22.16-4.4-2.71-10-2.8-15-2.75a133.13,133.13,0,0,0-18.7,1.78c-12.44,1.87-25.2,4.54-37.78,2.38a43.72,43.72,0,0,1-27.61-17.18A62.32,62.32,0,0,1,2.67,218.43c-.72-5.53,0-11.72-.26-17.65,5,5.21,8.78,12.07,12.47,17.68,6.59,10.08,15,16.74,27,19,12.78,2.38,25.92.53,38.81,1a156.06,156.06,0,0,1,45.11,8.27c6.71,2.28,13.56,4.84,17.76,10.89,3.35,4.81,4.86,10.64,6.79,16.1C154,284,160.12,292,171,295.16s20.95,1.11,30-3.73c.34-.17.68-.35,1-.56,10.34-5.79,19.25-15.15,26.25-24.34,7.91-10.4,14.12-23.39,7.95-36.19-5.3-11-16.57-17.94-26.73-23.87-.77-.45-1.3.83-.54,1.27,9.85,5.76,20.8,12.51,26,23.13,6.31,12.91-.8,25.94-8.82,36.17-6.81,8.71-14.7,17.18-24.44,22.62-6.94-25.33-11.41-51.23-9.39-77.6,1.47-19.25,6.37-38.39,15.92-55.25s23.55-30.61,39-42C279,91.54,317.79,73.89,357.44,71.41A144.48,144.48,0,0,1,461,106.91a139.57,139.57,0,0,1,30.69,38.74c-1.95,8.42-3.9,16.83-5.64,25.27-.7,3.42-1,7.5,2.26,9.72,2.92,2,7,1.05,10,0,2.05-.72,4.09-1.5,6.14-2.34.22.84.42,1.67.62,2.51,0-.13,0-.27,0-.39a.68.68,0,0,0,.12-.12c.25-.21.5-.44.74-.67-.13-.58-.28-1.18-.43-1.76A121.25,121.25,0,0,0,528.91,165c8.29-6,15.47-13.89,19.12-23.54a35.88,35.88,0,0,0,2.36-13.64c-.18-6.41-2-12.64-2.34-19a58.16,58.16,0,0,1,8.5-33c6.13-10.15,15-17.41,25-23.61,9.32-5.82,19.21-11,27-18.93A58.27,58.27,0,0,0,624,3.84Z"/><path class="cls-2" d="M554.58,262.24a93.68,93.68,0,0,1,5.85,59.21,67.16,67.16,0,0,1-4.53,13.89c-.18.37-.38.76-.57,1.11-.3.57-.62,1.14-1,1.69-2.76,4.56-7.53,8.12-12.39,7.09-1-7.63-2.41-15.19-4-22.64q-1.71-7.6-3.76-15.1h0a.73.73,0,0,0,0-.37,370,370,0,0,0-10.37-42.54c-.1-.35-.2-.69-.32-1.05,0-.16-.08-.32-.11-.5-.95-4.13-1.68-8.52-.81-12.66,3.64-3,7.22-6,10.78-9.09l.53,0h.15C544.13,241.85,550.51,253.36,554.58,262.24Zm-3.72,62.43a11.76,11.76,0,0,0-8.6-18.16.57.57,0,0,0-.15,1.13A10.62,10.62,0,0,1,550,324C549.58,324.57,550.47,325.29,550.86,324.67Zm-14.11-42.05A21.08,21.08,0,0,0,543,256c-.34-.64-1.4-.22-1,.43a20,20,0,0,1-5.91,25.29A.58.58,0,0,0,536.75,282.62Z"/><path d="M542.26,306.51a11.76,11.76,0,0,1,8.6,18.16c-.39.62-1.28-.1-.89-.71a10.62,10.62,0,0,0-7.86-16.32A.57.57,0,0,1,542.26,306.51Z"/><path d="M543,256a21.08,21.08,0,0,1-6.27,26.64.58.58,0,0,1-.69-.92A20,20,0,0,0,542,256.41C541.62,255.76,542.68,255.34,543,256Z"/><path class="cls-2" d="M543.06,369.33c1.09,23.33-1.12,46.73-7.74,69.09-10.71,36.19-32.68,68.76-63.79,86.17-29.86,16.72-65,18.86-97.31,10.45-33.58-8.77-63.25-29.45-87.16-56.64a262.62,262.62,0,0,1-23.21-30.8v0c-.31-.44-.6-.88-.87-1.33q-1-1.61-2-3.21l-.81-1.31a360.49,360.49,0,0,1-28.42-57.64,75.91,75.91,0,0,0,8.14-8.91,83.4,83.4,0,0,0,9.22-14.82c2.06-.25,4.1-.52,6.16-.8a67.75,67.75,0,0,0-3,24.22c0,.73,1.18.58,1.13-.15a66.74,66.74,0,0,1,3.1-24.25c4.05-.58,8.1-1.22,12.13-2,24-4.38,47.51-11.88,68.41-24.59s40.64-30.77,50.76-53.38a91.2,91.2,0,0,0,4.34-11.77,77.12,77.12,0,0,0,21.53,13.41c-1.09.66-2.17,1.36-3.24,2.09-7.72,5.33-14.32,12.39-17.59,21.31-.25.69.8,1.14,1.07.45,3.71-10.17,11.71-17.86,21-23.36a71.22,71.22,0,0,0,24.75,4.81c15.8.23,31.17-4.17,45.31-11a80.49,80.49,0,0,1,19.15,9.83c.61.42,1.32-.48.71-.9a81.34,81.34,0,0,0-18.52-9.58q5.53-2.77,10.78-6c5.24-3.19,10.28-6.66,15.18-10.32A87.65,87.65,0,0,0,522.45,264a.45.45,0,0,1,0,.08c.21.64.4,1.28.58,1.94a363.28,363.28,0,0,1,10,41.14v0a.59.59,0,0,0,0,.44,297.15,297.15,0,0,1,7.74,37.27c.08.45.14.92.19,1.37,1,7.17,1.67,14.37,2,21.59,0,.5,0,1,.07,1.5Zm-20-77.17c-.18-.59-.37-1.17-.58-1.76.13.51.25,1,.39,1.48A.42.42,0,0,0,523.05,292.16Zm-.6-1.83-.17-.65a.74.74,0,0,0,0,.25C522.36,290.07,522.4,290.2,522.45,290.33Zm-20.34,60.35c4.34-7.36,6.19-16.89,2.41-24.88-3.42-7.24-10.61-11.72-17.85-14.44a72.32,72.32,0,0,0-33-4.16l-1.58.2a58.48,58.48,0,0,0-20.21,6.49c-16.31,8.9-27.47,27.63-24.38,46.41a.55.55,0,0,0,.49.47c6.33,18.08,29.37,18.47,45.36,18.1,2.63-.05,5.2-.19,7.72-.45.43-.05.86-.11,1.3-.15a40.92,40.92,0,0,0,19.42-7.21C489.45,365.55,497.26,358.9,502.11,350.68ZM485.8,446.25c.64.36,1.07-.7.44-1.05l-18.66-10.68c-.64-.36-1.08.69-.45,1.05l6.27,3.58c-.87.9-1.76,1.79-2.66,2.66a.56.56,0,0,0-.88.38l-.06.56a146.32,146.32,0,0,1-27.58,20.86c-1.53.9-3.1,1.78-4.68,2.62a146.22,146.22,0,0,1-27.63,11.39,15.87,15.87,0,0,0,.26-5.6.58.58,0,0,0-1.14.15,14.92,14.92,0,0,1-.38,5.82c-.15.53-.32,1.07-.52,1.58a14.84,14.84,0,0,1-3.52,5.15c-.53.49.16,1.41.68.91a16.1,16.1,0,0,0,3.27-4.33,26.15,26.15,0,0,0,3.52,7.47c.22.32.43.63.67.93a25.32,25.32,0,0,0,22.5,10.18c15.88-1.39,23.95-16.65,29.12-29.93a106.6,106.6,0,0,0,6.51-26.66c1.18-1.15,2.34-2.31,3.49-3.5,0,0,0,0,0-.06C478.2,441.89,482,444.08,485.8,446.25Zm-46.49-25.6c8.58,3.93,18.59-2.14,18.39-11.78-.21-11.5-13.26-15-22.49-15.77a.56.56,0,0,0-.58.37,49.41,49.41,0,0,0-7.14-9.44c-7.79-8-17.62-13.65-27.24-19.15-.64-.36-1.07.69-.45,1.06,14.7,8.41,31,17.94,37.19,34.71,5.9,15.87-1.78,34.79-20,36.53-10.27,1-19.88-3.64-27.95-9.56-.59-.44-1.3.46-.71.89a62.63,62.63,0,0,0,9.85,6,.61.61,0,0,0-.37.29A15.13,15.13,0,0,1,375.54,440c-7.24-5.41-7.8-15.79-1.83-22.37.49-.54-.41-1.25-.9-.71-6.59,7.28-5.59,18.89,2.69,24.44a16.28,16.28,0,0,0,23.38-6.09.43.43,0,0,0,0-.39,36.63,36.63,0,0,0,14.82,3.58c8.15.12,16.23-3,21.15-9.71a26.45,26.45,0,0,0,4.17-8.3A.6.6,0,0,0,439.31,420.65Zm-83.5-17.4c4.35-7.36,6.2-16.89,2.42-24.88-3.42-7.23-10.61-11.71-17.86-14.43a72,72,0,0,0-33-4.16c-.53.05-1.05.12-1.58.19a58.7,58.7,0,0,0-20.21,6.49c-16.31,8.91-27.47,27.64-24.38,46.42a.54.54,0,0,0,.49.46c6.33,18.08,29.37,18.47,45.36,18.11,2.63-.06,5.2-.2,7.71-.46l1.31-.15a40.92,40.92,0,0,0,19.42-7.21C343.16,418.12,351,411.47,355.81,403.25Z"/><path d="M522.47,290.4c.21.59.4,1.17.58,1.76a.42.42,0,0,1-.19-.28C522.72,291.4,522.6,290.91,522.47,290.4Z"/><path d="M522.28,289.68l.17.65c-.05-.13-.09-.26-.14-.4A.74.74,0,0,1,522.28,289.68Z"/><path class="cls-3" d="M521.23,251.48a32.8,32.8,0,0,0,.86,10.92,86.13,86.13,0,0,1-8.72-4.8C516,255.61,518.64,253.57,521.23,251.48Z"/><path d="M504.52,325.8c3.78,8,1.93,17.52-2.41,24.88-4.85,8.22-12.66,14.87-20.31,20.38a40.92,40.92,0,0,1-19.42,7.21c-.44,0-.87.1-1.3.15-2.52.26-5.09.4-7.72.45-16,.37-39,0-45.36-18.1a.55.55,0,0,1-.49-.47c-3.09-18.78,8.07-37.51,24.38-46.41a58.48,58.48,0,0,1,20.21-6.49l1.58-.2a72.32,72.32,0,0,1,33,4.16C493.91,314.08,501.1,318.56,504.52,325.8Zm-.83,18.87c3.19-8.8,1.88-18.46-5.12-25-5.86-5.5-14-8.26-21.67-9.94a72.22,72.22,0,0,0-24.2-1.21c-.52.67-1,1.37-1.45,2.08-11.47,17.49-4.31,37.83,4,55a100.12,100.12,0,0,0,6.52,11.68,38.43,38.43,0,0,0,13.49-3.53,61.86,61.86,0,0,0,11.41-7.95C493.64,360.05,500.54,353.39,503.69,344.67Zm-43.28,32.75a114,114,0,0,1-7.52-14c-4.33-9.35-8.25-19.31-8.85-29.71a38.92,38.92,0,0,1,7.12-25,53.46,53.46,0,0,0-24.58,9.94c-12.24,9.25-20,24.59-18.12,40a.53.53,0,0,1,.12.21c2.73,9.58,11.68,15.39,21,17.54a73.1,73.1,0,0,0,16.3,1.45C450.69,377.85,455.58,377.82,460.41,377.42Z"/><path d="M498.57,319.66c7,6.55,8.31,16.21,5.12,25s-10.05,15.38-17.06,21.15a61.86,61.86,0,0,1-11.41,7.95,38.43,38.43,0,0,1-13.49,3.53,100.12,100.12,0,0,1-6.52-11.68c-8.27-17.2-15.43-37.54-4-55,.45-.71.93-1.41,1.45-2.08a72.22,72.22,0,0,1,24.2,1.21C484.61,311.4,492.71,314.16,498.57,319.66Z"/><path class="cls-4" d="M504,176.6,500.81,178c-2.49,1.07-5.08,2.19-7.85,2.29-5.31.19-6.37-4.24-5.56-8.63,1.49-8,3.37-16.07,5.28-24.07A144.57,144.57,0,0,1,504,176.6Z"/><path d="M486.24,445.2c.63.35.2,1.41-.44,1.05-3.8-2.17-7.6-4.36-11.4-6.52,0,0,0,0,0,.06-1.15,1.19-2.31,2.35-3.49,3.5A106.6,106.6,0,0,1,464.37,470c-5.17,13.28-13.24,28.54-29.12,29.93a25.32,25.32,0,0,1-22.5-10.18c-.24-.3-.45-.61-.67-.93a26.15,26.15,0,0,1-3.52-7.47,16.1,16.1,0,0,1-3.27,4.33c-.52.5-1.21-.42-.68-.91a14.84,14.84,0,0,0,3.52-5.15c.2-.51.37-1.05.52-1.58a14.92,14.92,0,0,0,.38-5.82.58.58,0,0,1,1.14-.15,15.87,15.87,0,0,1-.26,5.6,146.22,146.22,0,0,0,27.63-11.39c1.58-.84,3.15-1.72,4.68-2.62a146.32,146.32,0,0,0,27.58-20.86l.06-.56a.56.56,0,0,1,.88-.38c.9-.87,1.79-1.76,2.66-2.66l-6.27-3.58c-.63-.36-.19-1.41.45-1.05Zm-27.36,34.17a104.67,104.67,0,0,0,10.69-34.85,146.5,146.5,0,0,1-25.4,19.32c-2,1.21-4.08,2.37-6.16,3.49Q425.79,478.18,413.55,489c.28.39.56.77.87,1.13A24,24,0,0,0,430,498.67C443.7,500.32,453.06,490.65,458.88,479.37Zm-46,8.7,21-18.63a144.73,144.73,0,0,1-20.68,8.36c-.81.25-2.84.47-3.69,1.17a1,1,0,0,0-.32.39,1.24,1.24,0,0,0,0,.59,17.49,17.49,0,0,0,1.3,3.6A24.76,24.76,0,0,0,412.89,488.07Z"/><path class="cls-4" d="M478.86,273.43q2.07.57,4.11,1.23a109,109,0,0,1-22.63,8c-14.66,3.34-29.89,2.91-43.79-2a79.58,79.58,0,0,1,14.26-6.12A85.57,85.57,0,0,1,478.86,273.43Z"/><path class="cls-5" d="M469.57,444.52a104.67,104.67,0,0,1-10.69,34.85c-5.82,11.28-15.18,20.95-28.93,19.3a24,24,0,0,1-15.53-8.55c-.31-.36-.59-.74-.87-1.13q12.24-10.82,24.46-21.66c2.08-1.12,4.14-2.28,6.16-3.49A146.5,146.5,0,0,0,469.57,444.52Z"/><path d="M457.7,408.87c.2,9.64-9.81,15.71-18.39,11.78a.6.6,0,0,1-.25-.22,26.45,26.45,0,0,1-4.17,8.3c-4.92,6.67-13,9.83-21.15,9.71a36.63,36.63,0,0,1-14.82-3.58.43.43,0,0,1,0,.39,16.28,16.28,0,0,1-23.38,6.09c-8.28-5.55-9.28-17.16-2.69-24.44.49-.54,1.39.17.9.71-6,6.58-5.41,17,1.83,22.37a15.13,15.13,0,0,0,22.29-5.17.61.61,0,0,1,.37-.29,62.63,62.63,0,0,1-9.85-6c-.59-.43.12-1.33.71-.89,8.07,5.92,17.68,10.55,27.95,9.56,18.2-1.74,25.88-20.66,20-36.53-6.21-16.77-22.49-26.3-37.19-34.71-.62-.37-.19-1.42.45-1.06,9.62,5.5,19.45,11.11,27.24,19.15a49.41,49.41,0,0,1,7.14,9.44.56.56,0,0,1,.58-.37C444.44,393.86,457.49,397.37,457.7,408.87ZM439.76,419.6c8.93,4.1,19.3-3.91,16.34-13.72-2.68-8.86-13.07-11-21-11.65,4.38,7.84,6.46,16.9,4.24,25.35A.57.57,0,0,1,439.76,419.6Z"/><path class="cls-2" d="M456.1,405.88c3,9.81-7.41,17.82-16.34,13.72a.57.57,0,0,0-.46,0c2.22-8.45.14-17.51-4.24-25.35C443,394.9,453.42,397,456.1,405.88Z"/><path class="cls-6" d="M452.89,363.38a114,114,0,0,0,7.52,14c-4.83.4-9.72.43-14.57.44a73.1,73.1,0,0,1-16.3-1.45c-9.28-2.15-18.23-8-21-17.54a.53.53,0,0,0-.12-.21c-1.9-15.42,5.88-30.76,18.12-40a53.46,53.46,0,0,1,24.58-9.94,38.92,38.92,0,0,0-7.12,25C444.64,344.07,448.56,354,452.89,363.38Z"/><path d="M433.91,469.44l-21,18.63a24.76,24.76,0,0,1-2.4-4.52,17.49,17.49,0,0,1-1.3-3.6,1.24,1.24,0,0,1,0-.59,1,1,0,0,1,.32-.39c.85-.7,2.88-.92,3.69-1.17A144.73,144.73,0,0,0,433.91,469.44Z"/><path d="M358.23,378.37c3.78,8,1.93,17.52-2.42,24.88-4.84,8.22-12.65,14.87-20.3,20.38a40.92,40.92,0,0,1-19.42,7.21l-1.31.15c-2.51.26-5.08.4-7.71.46-16,.36-39,0-45.36-18.11a.54.54,0,0,1-.49-.46c-3.09-18.78,8.07-37.51,24.38-46.42A58.7,58.7,0,0,1,305.81,360c.53-.07,1.05-.14,1.58-.19a72,72,0,0,1,33,4.16C347.62,366.66,354.81,371.14,358.23,378.37Zm-.83,18.87c3.19-8.8,1.88-18.46-5.12-25-5.86-5.49-14-8.26-21.67-9.94a72.48,72.48,0,0,0-24.2-1.21c-.52.67-1,1.37-1.45,2.08-11.47,17.5-4.31,37.83,4,55a97.89,97.89,0,0,0,6.52,11.68,38.43,38.43,0,0,0,13.49-3.53,62.3,62.3,0,0,0,11.41-7.94C347.35,412.62,354.25,406,357.4,397.24ZM314.12,430A114.8,114.8,0,0,1,306.6,416c-4.33-9.35-8.25-19.3-8.86-29.7a39.07,39.07,0,0,1,7.12-25,53.37,53.37,0,0,0-24.57,10c-12.24,9.24-20,24.58-18.12,40a.66.66,0,0,1,.12.22C265,421,274,426.83,283.25,429a73.1,73.1,0,0,0,16.3,1.45C304.4,430.42,309.29,430.4,314.12,430Z"/><path d="M352.28,372.23c7,6.55,8.31,16.21,5.12,25s-10,15.38-17.06,21.16a62.3,62.3,0,0,1-11.41,7.94,38.43,38.43,0,0,1-13.49,3.53,97.89,97.89,0,0,1-6.52-11.68c-8.27-17.2-15.43-37.53-4-55,.45-.71.93-1.41,1.45-2.08a72.48,72.48,0,0,1,24.2,1.21C338.32,364,346.42,366.74,352.28,372.23Z"/><path class="cls-6" d="M306.6,416A114.8,114.8,0,0,0,314.12,430c-4.83.4-9.72.42-14.57.43a73.1,73.1,0,0,1-16.3-1.45c-9.28-2.15-18.23-8-21-17.53a.66.66,0,0,0-.12-.22c-1.9-15.42,5.88-30.76,18.12-40a53.37,53.37,0,0,1,24.57-10,39.07,39.07,0,0,0-7.12,25C298.35,396.65,302.27,406.6,306.6,416Z"/><path class="cls-1" d="M260.45,444.48c.71,1.13,1.42,2.24,2.14,3.34a111.29,111.29,0,0,1-18,38,100.27,100.27,0,0,1-22.44,22.33c-8.56,6.1-17.72,9.9-27.4,13.17-8.53,2.87-17.73,6.29-23,14.59,2.63-20.12,18.49-33.89,31.74-46.3,10.93-10.24,22.63-22.69,25.94-38.46,1.36.54,2.76,1,4.16,1.47,7.15,2.26,23,6.21,25.74-5.24,0,0,0-.07,0-.12C259.75,446.35,260.12,445.41,260.45,444.48Z"/><path class="cls-2" d="M259.67,443.22a41.33,41.33,0,0,1-1.53,3.92.54.54,0,0,0,0,.41c-2.76,9.85-17.81,5.88-24.06,3.9-1.47-.46-2.93-1-4.35-1.57a10.28,10.28,0,0,1-1.09-.43,62.61,62.61,0,0,1-18.37-12.05,69,69,0,0,1-16.66-25.13c-3.57-9.19-6.27-20.63-4.65-30.64,1-6.26,5-13.31,11.49-13.24a8.78,8.78,0,0,1,2.69.46,10.1,10.1,0,0,1,1.39.61,11.81,11.81,0,0,1,6.08,10.75.65.65,0,0,0,.11.44c-2.55,6,3.73,11.55,9,10.8,4.13-.6,7.7-3.51,10.83-6.31l.23-.21A360.09,360.09,0,0,0,259.67,443.22Zm-24.45-3.43a.57.57,0,0,0,.15-1.13,11.06,11.06,0,0,1-9.66-10.57c0-5.41,4.33-9.91,9.55-10.68a.57.57,0,0,0-.15-1.13c-5.75.84-10.59,5.84-10.56,11.81S229.46,439,235.22,439.79Zm-5.17-37.9c.7-.22.26-1.27-.43-1.06a23.08,23.08,0,0,1-28.35-13.72.57.57,0,0,0-1.06.44A24.25,24.25,0,0,0,230.05,401.89Z"/><path class="cls-1" d="M247.69,360.52c-1,2.09-2.18,4.15-3.39,6.14a78,78,0,0,1-13.07,16.21c-.3.31-.6.59-.91.86a.43.43,0,0,1-.1.09c-3.06,2.77-6.57,5.8-10.63,6.36-4.35.6-10.59-4-7.67-9.48a.76.76,0,0,0-.2-.95A12.87,12.87,0,0,0,204.07,368c-.4-1.44-.8-2.88-1.16-4.33C217.86,363.12,232.83,362.27,247.69,360.52Z"/><path d="M235.37,438.66a.57.57,0,0,1-.15,1.13c-5.76-.78-10.64-5.75-10.67-11.7s4.81-11,10.56-11.81a.57.57,0,0,1,.15,1.13c-5.22.77-9.58,5.27-9.55,10.68A11.06,11.06,0,0,0,235.37,438.66Z"/><path d="M229.62,400.83c.69-.21,1.13.84.43,1.06a24.25,24.25,0,0,1-29.84-14.34.57.57,0,0,1,1.06-.44A23.08,23.08,0,0,0,229.62,400.83Z"/><path class="cls-7" d="M358.23,378.37c-3.42-7.23-10.61-11.71-17.86-14.43a72,72,0,0,0-33-4.16c-.53.05-1.05.12-1.58.19a58.7,58.7,0,0,0-20.21,6.49c-16.31,8.91-27.47,27.64-24.38,46.42a.54.54,0,0,0,.49.46c6.33,18.08,29.37,18.47,45.36,18.11,2.63-.06,5.2-.2,7.71-.46l1.31-.15a40.92,40.92,0,0,0,19.42-7.21c7.65-5.51,15.46-12.16,20.3-20.38C360.16,395.89,362,386.36,358.23,378.37Z"/><path class="cls-7" d="M299.55,430.43a73.1,73.1,0,0,1-16.3-1.45c-9.28-2.15-18.23-8-21-17.53a.66.66,0,0,0-.12-.22c-1.9-15.42,5.88-30.76,18.12-40a53.37,53.37,0,0,1,24.57-10,39.07,39.07,0,0,0-7.12,25c.61,10.4,4.53,20.35,8.86,29.7A114.8,114.8,0,0,0,314.12,430C309.29,430.4,304.4,430.42,299.55,430.43Z"/><path class="cls-7" d="M340.34,418.4a62.3,62.3,0,0,1-11.41,7.94,38.43,38.43,0,0,1-13.49,3.53,97.89,97.89,0,0,1-6.52-11.68c-8.27-17.2-15.43-37.53-4-55,.45-.71.93-1.41,1.45-2.08a72.48,72.48,0,0,1,24.2,1.21c7.71,1.68,15.81,4.45,21.67,9.94,7,6.55,8.31,16.21,5.12,25S347.35,412.62,340.34,418.4Z"/><path class="cls-7" d="M504.52,325.8c-3.42-7.24-10.61-11.72-17.85-14.44a72.32,72.32,0,0,0-33-4.16l-1.58.2a58.48,58.48,0,0,0-20.21,6.49c-16.31,8.9-27.47,27.63-24.38,46.41a.55.55,0,0,0,.49.47c6.33,18.08,29.37,18.47,45.36,18.1,2.63-.05,5.2-.19,7.72-.45.43-.05.86-.11,1.3-.15a40.92,40.92,0,0,0,19.42-7.21c7.65-5.51,15.46-12.16,20.31-20.38C506.45,343.32,508.3,333.79,504.52,325.8Z"/><path class="cls-7" d="M445.84,377.86a73.1,73.1,0,0,1-16.3-1.45c-9.28-2.15-18.23-8-21-17.54a.53.53,0,0,0-.12-.21c-1.9-15.42,5.88-30.76,18.12-40a53.46,53.46,0,0,1,24.58-9.94,38.92,38.92,0,0,0-7.12,25c.6,10.4,4.52,20.36,8.85,29.71a114,114,0,0,0,7.52,14C455.58,377.82,450.69,377.85,445.84,377.86Z"/><path class="cls-7" d="M486.63,365.82a61.86,61.86,0,0,1-11.41,7.95,38.43,38.43,0,0,1-13.49,3.53,100.12,100.12,0,0,1-6.52-11.68c-8.27-17.2-15.43-37.54-4-55,.45-.71.93-1.41,1.45-2.08a72.22,72.22,0,0,1,24.2,1.21c7.71,1.68,15.81,4.44,21.67,9.94,7,6.55,8.31,16.21,5.12,25S493.64,360.05,486.63,365.82Z"/><path class="cls-7" d="M522.86,291.88a.42.42,0,0,0,.19.28c-.18-.59-.37-1.17-.58-1.76C522.6,290.91,522.72,291.4,522.86,291.88Z"/><path class="cls-7" d="M413.74,438.44c8.15.12,16.23-3,21.15-9.71a26.45,26.45,0,0,0,4.17-8.3.6.6,0,0,0,.25.22c8.58,3.93,18.59-2.14,18.39-11.78-.21-11.5-13.26-15-22.49-15.77a.56.56,0,0,0-.58.37,49.41,49.41,0,0,0-7.14-9.44c-7.79-8-17.62-13.65-27.24-19.15-.64-.36-1.07.69-.45,1.06,14.7,8.41,31,17.94,37.19,34.71,5.9,15.87-1.78,34.79-20,36.53-10.27,1-19.88-3.64-27.95-9.56-.59-.44-1.3.46-.71.89a62.63,62.63,0,0,0,9.85,6,.61.61,0,0,0-.37.29A15.13,15.13,0,0,1,375.54,440c-7.24-5.41-7.8-15.79-1.83-22.37.49-.54-.41-1.25-.9-.71-6.59,7.28-5.59,18.89,2.69,24.44a16.28,16.28,0,0,0,23.38-6.09.43.43,0,0,0,0-.39A36.63,36.63,0,0,0,413.74,438.44Z"/><path class="cls-7" d="M435.06,394.23c8,.67,18.36,2.79,21,11.65,3,9.81-7.41,17.82-16.34,13.72a.57.57,0,0,0-.46,0C441.52,411.13,439.44,402.07,435.06,394.23Z"/><path class="cls-7" d="M486.24,445.2l-18.66-10.68c-.64-.36-1.08.69-.45,1.05l6.27,3.58c-.87.9-1.76,1.79-2.66,2.66a.56.56,0,0,0-.88.38l-.06.56a146.32,146.32,0,0,1-27.58,20.86c-1.53.9-3.1,1.78-4.68,2.62a146.22,146.22,0,0,1-27.63,11.39,15.87,15.87,0,0,0,.26-5.6.58.58,0,0,0-1.14.15,14.92,14.92,0,0,1-.38,5.82c-.15.53-.32,1.07-.52,1.58a14.84,14.84,0,0,1-3.52,5.15c-.53.49.16,1.41.68.91a16.1,16.1,0,0,0,3.27-4.33,26.15,26.15,0,0,0,3.52,7.47c.22.32.43.63.67.93a25.32,25.32,0,0,0,22.5,10.18c15.88-1.39,23.95-16.65,29.12-29.93a106.6,106.6,0,0,0,6.51-26.66c1.18-1.15,2.34-2.31,3.49-3.5,0,0,0,0,0-.06,3.8,2.16,7.6,4.35,11.4,6.52C486.44,446.61,486.87,445.55,486.24,445.2Z"/><path class="cls-7" d="M410.49,483.55a17.49,17.49,0,0,1-1.3-3.6,1.24,1.24,0,0,1,0-.59,1,1,0,0,1,.32-.39c.85-.7,2.88-.92,3.69-1.17a144.73,144.73,0,0,0,20.68-8.36l-21,18.63A24.76,24.76,0,0,1,410.49,483.55Z"/><path class="cls-7" d="M458.88,479.37c-5.82,11.28-15.18,20.95-28.93,19.3a24,24,0,0,1-15.53-8.55c-.31-.36-.59-.74-.87-1.13q12.24-10.82,24.46-21.66c2.08-1.12,4.14-2.28,6.16-3.49a146.5,146.5,0,0,0,25.4-19.32A104.67,104.67,0,0,1,458.88,479.37Z"/><path class="cls-7" d="M522.31,289.93c.05.14.09.27.14.4l-.17-.65A.74.74,0,0,0,522.31,289.93Z"/><path class="cls-7" d="M624,3.84a38.12,38.12,0,0,1,1.18,31.39c-3.53,8.55-9.82,14.89-17.64,19.61-6.65,4-13.94,7.07-20,12-5.77,4.65-9.67,11-10.12,18.48-.51,8.62,3,17.06,7.28,24.33,4.86,8.19,11.06,15.65,14.82,24.47,4.26,10,4.19,21,1.06,31.26-6.09,20-22.06,34.44-37.31,47.79-9.93,8.7-19.76,17.6-29.81,26.22l-2.57,2.2c-2.46,2.08-4.92,4.13-7.41,6.17-.57.47-1.14.94-1.73,1.4-2.27,1.86-4.57,3.67-6.89,5.47-.92.71-1.85,1.41-2.79,2.12-.35.27-.69.53-1.05.78A169.59,169.59,0,0,1,484.37,274c-22.59-7.66-48.46-5.9-69.15,6.16A67.48,67.48,0,0,1,399.83,272a81,81,0,0,1-7.28-5.82,93.1,93.1,0,0,0-1.36-54.39c-.49-1.44-1-2.86-1.58-4.27a91.4,91.4,0,0,0-6.51-13.11A94.53,94.53,0,0,0,364.34,172q-2.76-2.42-5.69-4.6c-.45-.32-.8-.73-1.25-1s-1.23-.8-1.85-1.21c-1.23-.8-2.46-1.61-3.71-2.38a93.92,93.92,0,0,0-13.92-7,.69.69,0,0,0-.54,1.27,91.08,91.08,0,0,1,18.75,10.28c.46.32.92.65,1.36,1A92.38,92.38,0,0,1,385.13,201a91,91,0,0,1,6.27,64.21c-.12.5-.26,1-.41,1.49-.36,1.3-.76,2.58-1.19,3.84-8,24-26.44,43-47,56.95-20.74,14.12-44.68,22.65-69.13,27.59-5.55,1.12-11.11,2.06-16.71,2.86a67.61,67.61,0,0,1,9.91-18.63,65.73,65.73,0,0,1,39.81-24.55,66.93,66.93,0,0,1,26.86.29c.72.15.86-1,.15-1.14a68.54,68.54,0,0,0-47.65,7.2,66.87,66.87,0,0,0-30,36.05c-.12.32-.21.66-.31,1q-3,.4-5.93.77c-.46.07-.92.13-1.37.16-15.22,1.83-30.55,2.7-45.86,3.21-.4,0-.8,0-1.2.05l-1,0c-13.13.43-26.53,1.1-39.43-1.73a54.82,54.82,0,0,1-29-16.55,59.4,59.4,0,0,1-14.29-27.83,53.26,53.26,0,0,1-.92-15.68c.45-5,1.78-9.9,2.58-14.86,1.28-7.81,1.68-17.44-6-22.16-4.4-2.71-10-2.8-15-2.75a133.13,133.13,0,0,0-18.7,1.78c-12.44,1.87-25.2,4.54-37.78,2.38a43.72,43.72,0,0,1-27.61-17.18A62.32,62.32,0,0,1,2.67,218.43c-.72-5.53,0-11.72-.26-17.65,5,5.21,8.78,12.07,12.47,17.68,6.59,10.08,15,16.74,27,19,12.78,2.38,25.92.53,38.81,1a156.06,156.06,0,0,1,45.11,8.27c6.71,2.28,13.56,4.84,17.76,10.89,3.35,4.81,4.86,10.64,6.79,16.1C154,284,160.12,292,171,295.16s20.95,1.11,30-3.73c.34-.17.68-.35,1-.56,10.34-5.79,19.25-15.15,26.25-24.34,7.91-10.4,14.12-23.39,7.95-36.19-5.3-11-16.57-17.94-26.73-23.87-.77-.45-1.3.83-.54,1.27,9.85,5.76,20.8,12.51,26,23.13,6.31,12.91-.8,25.94-8.82,36.17-6.81,8.71-14.7,17.18-24.44,22.62-6.94-25.33-11.41-51.23-9.39-77.6,1.47-19.25,6.37-38.39,15.92-55.25s23.55-30.61,39-42C279,91.54,317.79,73.89,357.44,71.41A144.48,144.48,0,0,1,461,106.91a139.57,139.57,0,0,1,30.69,38.74c-1.95,8.42-3.9,16.83-5.64,25.27-.7,3.42-1,7.5,2.26,9.72,2.92,2,7,1.05,10,0,2.05-.72,4.09-1.5,6.14-2.34.22.84.42,1.67.62,2.51,0-.13,0-.27,0-.39a.68.68,0,0,0,.12-.12c.25-.21.5-.44.74-.67-.13-.58-.28-1.18-.43-1.76A121.25,121.25,0,0,0,528.91,165c8.29-6,15.47-13.89,19.12-23.54a35.88,35.88,0,0,0,2.36-13.64c-.18-6.41-2-12.64-2.34-19a58.16,58.16,0,0,1,8.5-33c6.13-10.15,15-17.41,25-23.61,9.32-5.82,19.21-11,27-18.93A58.27,58.27,0,0,0,624,3.84Z"/><path class="cls-7" d="M624,3.84c-.34-.7-.71-1.4-1.11-2.09a57.89,57.89,0,0,1-12.16,26.78c-13.14,16-34.61,21.58-48.39,36.89-12.75,14.18-17.74,32.75-14.75,51.41.89,5.65,1.87,11.25,1,17a39.53,39.53,0,0,1-6.34,15.65c-6.16,9.22-15.28,15.78-25,20.9-4,2.09-8.05,4-12.17,5.81a146,146,0,0,0-12-30.3c-.33-.64-.68-1.26-1-1.9a140.72,140.72,0,0,0-19.44-27.22,145.43,145.43,0,0,0-98.87-46.58c-40.83-2.05-80.7,13.65-114.66,35.22-16.18,10.28-31.45,22.54-43.2,37.82-11.85,15.44-19.23,33.7-22.7,52.79-5.76,31.7-.92,63.47,7.48,94.23-.93.49-1.88,1-2.84,1.39-10.59,4.78-23.71,5.26-33.84-1s-11.75-17.95-16.21-28.16c-2-4.58-4.8-8.69-9-11.51-5-3.33-11-5.15-16.73-6.9a158.42,158.42,0,0,0-41.15-7c-12.21-.41-24.56,1.19-36.71-.62-6.85-1-13.53-3.3-18.93-7.76S16.16,218,12.45,212.05A67.38,67.38,0,0,0,2.28,198.82c-.53-.51-1.08-1-1.64-1.48.07.61.12,1.23.15,1.85.34,5.15-.26,10.36.11,15.53A66.2,66.2,0,0,0,9.4,243c4.83,8.33,11.8,15.52,20.55,19.69,10.68,5.1,22.71,5,34.2,3.59,13-1.6,26.2-5,39.43-4,6.73.51,12.9,3.32,14.56,10.38,1.21,5.15.2,10.66-.76,15.75-1.93,10.19-3.18,19.63-.72,29.87a61,61,0,0,0,13.49,25.87,55.28,55.28,0,0,0,25,16.33c12.15,3.78,25,3.74,37.62,3.44l8.95-.25c.33,1.28.67,2.56,1,3.83a9.53,9.53,0,0,0-7.6,1.22c-9.87,6.3-8.32,21.89-6.12,32.21,4.84,22.76,19.78,41.48,39.37,49.75-3.58,17.48-17.58,30.48-29.6,41.66-12.92,12-27.09,26.34-28.42,46.16a.57.57,0,0,0,1.08.33c4.92-10.17,15.58-13.63,24.88-16.73s18.25-7.05,26.51-13C239.27,497.4,252.36,480,259.94,460a113.05,113.05,0,0,0,3.51-10.88q7.23,11.12,15.45,21.38c22.86,28.54,51.59,51.51,84.79,62.68,32,10.77,67.57,11.23,98.86-2.72,32.17-14.33,56.37-43.92,69.6-79,9.74-25.82,13.23-53.69,12.07-81.45a41.39,41.39,0,0,0,14.86,5.46c22,3.43,40.61-14.56,62.1-15.68,10.93-.55,23,4.46,27.57,16.22.3.77,1.27.3,1.06-.47C645.57,360,634.82,347,621.14,341c-15.45-6.77-32.43-3.2-48.55-3.38a59.93,59.93,0,0,1-15.59-2,58.77,58.77,0,0,0,2.19-5.68,94.34,94.34,0,0,0-4.63-70.46c-4.18-8.46-10.46-18.54-19.82-19.43,5.12-4.44,10.17-9,15.25-13.39,15.88-13.89,33.86-27.34,45-45.57,10.11-16.56,12.65-36,3-53.33-9.15-16.41-30.31-39.15-12.34-57.34C592.49,63.54,602,60.14,610.12,55A41.37,41.37,0,0,0,627.3,33.7a39.45,39.45,0,0,0-2.9-32.22C624.26,2.27,624.11,3.06,624,3.84Z"/><path class="cls-7" d="M492.68,147.57a144.57,144.57,0,0,1,11.32,29L500.81,178c-2.49,1.07-5.08,2.19-7.85,2.29-5.31.19-6.37-4.24-5.56-8.63C488.89,163.6,490.77,155.57,492.68,147.57Z"/><path class="cls-7" d="M522.6,250.36c3.64-3,7.22-6,10.78-9.09l.53,0h.15c10.07.56,16.45,12.07,20.52,21a93.68,93.68,0,0,1,5.85,59.21,67.16,67.16,0,0,1-4.53,13.89c-.18.37-.38.76-.57,1.11-.3.57-.62,1.14-1,1.69-2.76,4.56-7.53,8.12-12.39,7.09-1-7.63-2.41-15.19-4-22.64q-1.71-7.6-3.76-15.1h0a.73.73,0,0,0,0-.37,370,370,0,0,0-10.37-42.54c-.1-.35-.2-.69-.32-1.05,0-.16-.08-.32-.11-.5C522.46,258.89,521.73,254.5,522.6,250.36Z"/><path class="cls-7" d="M521.23,251.48a32.8,32.8,0,0,0,.86,10.92,86.13,86.13,0,0,1-8.72-4.8C516,255.61,518.64,253.57,521.23,251.48Z"/><path class="cls-7" d="M430.81,274.52a85.57,85.57,0,0,1,48.05-1.09q2.07.57,4.11,1.23a109,109,0,0,1-22.63,8c-14.66,3.34-29.89,2.91-43.79-2A79.58,79.58,0,0,1,430.81,274.52Z"/><path class="cls-7" d="M247.69,360.52c-1,2.09-2.18,4.15-3.39,6.14a78,78,0,0,1-13.07,16.21c-.3.31-.6.59-.91.86a.43.43,0,0,1-.1.09c-3.06,2.77-6.57,5.8-10.63,6.36-4.35.6-10.59-4-7.67-9.48a.76.76,0,0,0-.2-.95A12.87,12.87,0,0,0,204.07,368c-.4-1.44-.8-2.88-1.16-4.33C217.86,363.12,232.83,362.27,247.69,360.52Z"/><path class="cls-7" d="M210.24,437.4a69,69,0,0,1-16.66-25.13c-3.57-9.19-6.27-20.63-4.65-30.64,1-6.26,5-13.31,11.49-13.24a8.78,8.78,0,0,1,2.69.46,10.1,10.1,0,0,1,1.39.61,11.81,11.81,0,0,1,6.08,10.75.65.65,0,0,0,.11.44c-2.55,6,3.73,11.55,9,10.8,4.13-.6,7.7-3.51,10.83-6.31l.23-.21a360.09,360.09,0,0,0,28.88,58.29,41.33,41.33,0,0,1-1.53,3.92.54.54,0,0,0,0,.41c-2.76,9.85-17.81,5.88-24.06,3.9-1.47-.46-2.93-1-4.35-1.57a10.28,10.28,0,0,1-1.09-.43A62.61,62.61,0,0,1,210.24,437.4Z"/><path class="cls-7" d="M244.58,485.81a100.27,100.27,0,0,1-22.44,22.33c-8.56,6.1-17.72,9.9-27.4,13.17-8.53,2.87-17.73,6.29-23,14.59,2.63-20.12,18.49-33.89,31.74-46.3,10.93-10.24,22.63-22.69,25.94-38.46,1.36.54,2.76,1,4.16,1.47,7.15,2.26,23,6.21,25.74-5.24,0,0,0-.07,0-.12.4-.9.77-1.84,1.1-2.77.71,1.13,1.42,2.24,2.14,3.34A111.29,111.29,0,0,1,244.58,485.81Z"/><path class="cls-7" d="M522.45,264l-.14-.45a.86.86,0,0,1,0-.27Z"/><path class="cls-7" d="M535.32,438.42c-10.71,36.19-32.68,68.76-63.79,86.17-29.86,16.72-65,18.86-97.31,10.45-33.58-8.77-63.25-29.45-87.16-56.64a262.62,262.62,0,0,1-23.21-30.8v0c-.31-.44-.6-.88-.87-1.33q-1-1.61-2-3.21l-.81-1.31a360.49,360.49,0,0,1-28.42-57.64,75.91,75.91,0,0,0,8.14-8.91,83.4,83.4,0,0,0,9.22-14.82c2.06-.25,4.1-.52,6.16-.8a67.75,67.75,0,0,0-3,24.22c0,.73,1.18.58,1.13-.15a66.74,66.74,0,0,1,3.1-24.25c4.05-.58,8.1-1.22,12.13-2,24-4.38,47.51-11.88,68.41-24.59s40.64-30.77,50.76-53.38a91.2,91.2,0,0,0,4.34-11.77,77.12,77.12,0,0,0,21.53,13.41c-1.09.66-2.17,1.36-3.24,2.09-7.72,5.33-14.32,12.39-17.59,21.31-.25.69.8,1.14,1.07.45,3.71-10.17,11.71-17.86,21-23.36a71.22,71.22,0,0,0,24.75,4.81c15.8.23,31.17-4.17,45.31-11a80.49,80.49,0,0,1,19.15,9.83c.61.42,1.32-.48.71-.9a81.34,81.34,0,0,0-18.52-9.58q5.53-2.77,10.78-6c5.24-3.19,10.28-6.66,15.18-10.32A87.65,87.65,0,0,0,522.45,264a.45.45,0,0,1,0,.08c.21.64.4,1.28.58,1.94a363.28,363.28,0,0,1,10,41.14v0a.59.59,0,0,0,0,.44,297.15,297.15,0,0,1,7.74,37.27c.08.45.14.92.19,1.37,1,7.17,1.67,14.37,2,21.59,0,.5,0,1,.07,1.5h0C544.15,392.66,541.94,416.06,535.32,438.42Z"/><path class="cls-7" d="M632.17,359.82c-9.52-2.83-19.49-.54-28.63,2.84-10.88,4-21.35,9.86-32.83,11.56a39,39,0,0,1-26.55-5.64v0c-.35-7.37-1-14.74-2-22.05a11.17,11.17,0,0,0,8.64-2.39,20.45,20.45,0,0,0,5.66-7.34h0c10.31,3,21.49,2.05,32.15,1.59,8.29-.35,16.7-.56,24.86,1.39a45.65,45.65,0,0,1,20.9,11.68,53.21,53.21,0,0,1,12.23,18.31A27.69,27.69,0,0,0,632.17,359.82Z"/><path class="cls-7" d="M235.37,438.66a11.06,11.06,0,0,1-9.66-10.57c0-5.41,4.33-9.91,9.55-10.68a.57.57,0,0,0-.15-1.13c-5.75.84-10.59,5.84-10.56,11.81s4.91,10.92,10.67,11.7A.57.57,0,0,0,235.37,438.66Z"/><path class="cls-7" d="M229.62,400.83a23.08,23.08,0,0,1-28.35-13.72.57.57,0,0,0-1.06.44,24.25,24.25,0,0,0,29.84,14.34C230.75,401.67,230.31,400.62,229.62,400.83Z"/><path class="cls-7" d="M542.11,307.64A10.62,10.62,0,0,1,550,324c-.39.61.5,1.33.89.71a11.76,11.76,0,0,0-8.6-18.16A.57.57,0,0,0,542.11,307.64Z"/><path class="cls-7" d="M536.75,282.62A21.08,21.08,0,0,0,543,256c-.34-.64-1.4-.22-1,.43a20,20,0,0,1-5.91,25.29A.58.58,0,0,0,536.75,282.62Z"/></g></g></svg>