<svg xmlns="http://www.w3.org/2000/svg" viewBox="0 0 650.34 541.63"><defs><style>.cls-1{fill:#37343f;}.cls-2{fill:#ffdda7;}.cls-3{fill:#faf1e4;}.cls-4{fill:#3a3349;}.cls-5{fill:none;stroke:#000;stroke-miterlimit:10;}</style></defs><title>Asset 2</title><g id="Layer_2" data-name="Layer 2"><g id="Wendy"><path d="M649.81,375.58c.21.77-.76,1.24-1.06.47-4.56-11.76-16.64-16.77-27.57-16.22-21.49,1.12-40.07,19.11-62.1,15.68a41.39,41.39,0,0,1-14.86-5.46c1.16,27.76-2.33,55.63-12.07,81.45-13.23,35.06-37.43,64.65-69.6,79-31.29,13.95-66.86,13.49-98.86,2.72-33.2-11.17-61.93-34.14-84.79-62.68q-8.22-10.26-15.45-21.38A113.05,113.05,0,0,1,259.94,460c-7.58,19.94-20.67,37.38-37.12,49.13-8.26,5.9-17.14,9.8-26.51,13s-20,6.56-24.88,16.73a.57.57,0,0,1-1.08-.33c1.33-19.82,15.5-34.16,28.42-46.16,12-11.18,26-24.18,29.6-41.66-19.59-8.27-34.53-27-39.37-49.75-2.2-10.32-3.75-25.91,6.12-32.21a9.53,9.53,0,0,1,7.6-1.22c-.35-1.27-.69-2.55-1-3.83l-8.95.25c-12.6.3-25.47.34-37.62-3.44a55.28,55.28,0,0,1-25-16.33,61,61,0,0,1-13.49-25.87c-2.46-10.24-1.21-19.68.72-29.87,1-5.09,2-10.6.76-15.75-1.66-7.06-7.83-9.87-14.56-10.38-13.23-1-26.39,2.35-39.43,4-11.49,1.41-23.52,1.51-34.2-3.59C21.2,258.47,14.23,251.28,9.4,243A66.2,66.2,0,0,1,.9,214.72c-.37-5.17.23-10.38-.11-15.53,0-.62-.08-1.24-.15-1.85.56.48,1.11,1,1.64,1.48a67.38,67.38,0,0,1,10.17,13.23c3.71,5.93,7.36,12.11,12.82,16.61s12.08,6.75,18.93,7.76c12.15,1.81,24.5.21,36.71.62a158.42,158.42,0,0,1,41.15,7c5.68,1.75,11.75,3.57,16.73,6.9,4.19,2.82,7,6.93,9,11.51,4.46,10.21,5.95,21.79,16.21,28.16s23.25,5.81,33.84,1c1-.43,1.91-.9,2.84-1.39.11.41.21.81.33,1.22-9.05,4.84-19.17,6.89-30,3.73S154,284,150.39,273.68c-1.93-5.46-3.44-11.29-6.79-16.1-4.2-6-11-8.61-17.76-10.89a156.06,156.06,0,0,0-45.11-8.27c-12.89-.44-26,1.41-38.81-1-12-2.25-20.45-8.91-27-19C11.19,212.85,7.37,206,2.41,200.78c.25,5.93-.46,12.12.26,17.65a62.32,62.32,0,0,0,11.54,29.31,43.72,43.72,0,0,0,27.61,17.18c12.58,2.16,25.34-.51,37.78-2.38a133.13,133.13,0,0,1,18.7-1.78c5-.05,10.59,0,15,2.75,7.66,4.72,7.26,14.35,6,22.16-.8,5-2.13,9.84-2.58,14.86a53.26,53.26,0,0,0,.92,15.68A59.4,59.4,0,0,0,131.9,344a54.82,54.82,0,0,0,29,16.55c12.9,2.83,26.3,2.16,39.43,1.73l1,0c.4,0,.8,0,1.2-.05,15.31-.51,30.64-1.38,45.86-3.21.45,0,.91-.09,1.37-.16,8-1,16-2.23,23.91-3.83,19.15-3.87,38-9.94,55.21-19.17l3.11-.12c-19.61,11-41.33,17.64-63.38,21.67-6.49,1.19-13,2.15-19.56,2.94a83.4,83.4,0,0,1-9.22,14.82,75.91,75.91,0,0,1-8.14,8.91,360.49,360.49,0,0,0,28.42,57.64l.81,1.31q1,1.6,2,3.21c.27.45.56.89.87,1.33v0a262.62,262.62,0,0,0,23.21,30.8C311,505.59,340.64,526.27,374.22,535c32.26,8.41,67.45,6.27,97.31-10.45,31.11-17.41,53.08-50,63.79-86.17,6.62-22.36,8.83-45.76,7.74-69.09h0c0-.5,0-1-.07-1.5-.37-7.22-1.07-14.42-2-21.59-.05-.45-.11-.92-.19-1.37A297.15,297.15,0,0,0,533,307.59a.59.59,0,0,1,0-.44v0a363.28,363.28,0,0,0-10-41.14c-.18-.66-.37-1.3-.58-1.94a.45.45,0,0,0,0-.08l-.17-.72a.86.86,0,0,0,0,.27l.14.45a87.65,87.65,0,0,1-10.14-5.56c-4.9,3.66-9.94,7.13-15.18,10.32-14.72,9-31.24,15.72-48.48,17.32l2-1.76a88.84,88.84,0,0,0,9.65-1.65c18.64-4.24,35.38-13.81,50.61-25.12.36-.25.7-.51,1.05-.78.94-.71,1.87-1.41,2.79-2.12,2.32-1.8,4.62-3.61,6.89-5.47h0c.59-.45,1.16-.92,1.73-1.39h0c2.49-2,5-4.08,7.41-6.16h0l2.56-2.2c10.05-8.62,19.88-17.52,29.81-26.22,15.25-13.35,31.22-27.77,37.31-47.79,3.13-10.3,3.2-21.28-1.06-31.26-3.76-8.82-10-16.28-14.82-24.47-4.32-7.27-7.79-15.71-7.28-24.33.45-7.52,4.35-13.83,10.12-18.48,6.08-4.91,13.37-8,20-12,7.82-4.72,14.11-11.06,17.64-19.61A38.12,38.12,0,0,0,624,3.84c.16-.78.31-1.57.45-2.36a39.45,39.45,0,0,1,2.9,32.22A41.37,41.37,0,0,1,610.12,55c-8.08,5.17-17.63,8.57-24.48,15.49-18,18.19,3.19,40.93,12.34,57.34,9.66,17.32,7.12,36.77-3,53.33-11.14,18.23-29.12,31.68-45,45.57-5.08,4.44-10.13,9-15.25,13.39,9.36.89,15.64,11,19.82,19.43A94.34,94.34,0,0,1,559.19,330a58.77,58.77,0,0,1-2.19,5.68,59.93,59.93,0,0,0,15.59,2c16.12.18,33.1-3.39,48.55,3.38C634.82,347,645.57,360,649.81,375.58Zm-3.2-5.83a53.21,53.21,0,0,0-12.23-18.31,45.65,45.65,0,0,0-20.9-11.68c-8.16-1.95-16.57-1.74-24.86-1.39-10.66.46-21.84,1.36-32.15-1.59h0a20.45,20.45,0,0,1-5.66,7.34,11.17,11.17,0,0,1-8.64,2.39c1,7.31,1.65,14.68,2,22.05v0a39,39,0,0,0,26.55,5.64c11.48-1.7,21.95-7.55,32.83-11.56,9.14-3.38,19.11-5.67,28.63-2.84A27.69,27.69,0,0,1,646.61,369.75Zm-86.18-48.3a93.68,93.68,0,0,0-5.85-59.21c-4.07-8.88-10.45-20.39-20.52-21h-.15l-.53,0c-3.56,3.07-7.14,6.11-10.78,9.09-.87,4.14-.14,8.53.81,12.66,0,.18.08.34.11.5.12.36.22.7.32,1.05a370,370,0,0,1,10.37,42.54.73.73,0,0,1,0,.37h0q2.05,7.5,3.76,15.1c1.64,7.45,3,15,4,22.64,4.86,1,9.63-2.53,12.39-7.09.33-.55.65-1.12,1-1.69.19-.35.39-.74.57-1.11A67.16,67.16,0,0,0,560.43,321.45ZM522.09,262.4a32.8,32.8,0,0,1-.86-10.92c-2.59,2.09-5.2,4.13-7.86,6.12A86.13,86.13,0,0,0,522.09,262.4ZM262.59,447.82c-.72-1.1-1.43-2.21-2.14-3.34-.33.93-.7,1.87-1.1,2.77,0,.05,0,.08,0,.12-2.76,11.45-18.59,7.5-25.74,5.24-1.4-.44-2.8-.93-4.16-1.47-3.31,15.77-15,28.22-25.94,38.46-13.25,12.41-29.11,26.18-31.74,46.3,5.25-8.3,14.45-11.72,23-14.59,9.68-3.27,18.84-7.07,27.4-13.17a100.27,100.27,0,0,0,22.44-22.33A111.29,111.29,0,0,0,262.59,447.82Zm-4.45-.68a41.33,41.33,0,0,0,1.53-3.92,360.09,360.09,0,0,1-28.88-58.29l-.23.21c-3.13,2.8-6.7,5.71-10.83,6.31-5.31.75-11.59-4.76-9-10.8a.65.65,0,0,1-.11-.44,11.81,11.81,0,0,0-6.08-10.75,10.1,10.1,0,0,0-1.39-.61,8.78,8.78,0,0,0-2.69-.46c-6.44-.07-10.49,7-11.49,13.24-1.62,10,1.08,21.45,4.65,30.64a69,69,0,0,0,16.66,25.13,62.61,62.61,0,0,0,18.37,12.05,10.28,10.28,0,0,0,1.09.43c1.42.6,2.88,1.11,4.35,1.57,6.25,2,21.3,5.95,24.06-3.9A.54.54,0,0,1,258.14,447.14ZM244.3,366.66c1.21-2,2.35-4.05,3.39-6.14-14.86,1.75-29.83,2.6-44.78,3.11.36,1.45.76,2.89,1.16,4.33a12.87,12.87,0,0,1,7.65,11.79.76.76,0,0,1,.2.95c-2.92,5.48,3.32,10.08,7.67,9.48,4.06-.56,7.57-3.59,10.63-6.36a.43.43,0,0,0,.1-.09c.31-.27.61-.55.91-.86A78,78,0,0,0,244.3,366.66Z"/><path class="cls-1" d="M634.38,351.44a53.21,53.21,0,0,1,12.23,18.31,27.69,27.69,0,0,0-14.44-9.93c-9.52-2.83-19.49-.54-28.63,2.84-10.88,4-21.35,9.86-32.83,11.56a39,39,0,0,1-26.55-5.64v0c-.35-7.37-1-14.74-2-22.05a11.17,11.17,0,0,0,8.64-2.39,20.45,20.45,0,0,0,5.66-7.34h0c10.31,3,21.49,2.05,32.15,1.59,8.29-.35,16.7-.56,24.86,1.39A45.65,45.65,0,0,1,634.38,351.44Z"/><path class="cls-1" d="M624,3.84a38.12,38.12,0,0,1,1.18,31.39c-3.53,8.55-9.82,14.89-17.64,19.61-6.65,4-13.94,7.07-20,12-5.77,4.65-9.67,11-10.12,18.48-.51,8.62,3,17.06,7.28,24.33,4.86,8.19,11.06,15.65,14.82,24.47,4.26,10,4.19,21,1.06,31.26-6.09,20-22.06,34.44-37.31,47.79-9.93,8.7-19.76,17.6-29.81,26.22l-2.56,2.2h0c-2.46,2.08-4.92,4.13-7.41,6.16h0c-.57.47-1.14.94-1.73,1.39h0c-2.27,1.86-4.57,3.67-6.89,5.47-.92.71-1.85,1.41-2.79,2.12-.35.27-.69.53-1.05.78-15.23,11.31-32,20.88-50.61,25.12a88.84,88.84,0,0,1-9.65,1.65L475,263.17c.6-.52-.14-1.49-.73-1L448.6,284.48c-17.16,1.51-34.41-2.26-48.77-12.46a82.73,82.73,0,0,1-7.28-5.81h0a91.47,91.47,0,0,0-34.84-99.46c-.44-.33-.89-.65-1.35-1-.09.52-.17,1-.23,1.57.46.32.92.65,1.36,1A92.38,92.38,0,0,1,385.13,201a91,91,0,0,1,6.27,64.21c-.12.5-.26,1-.41,1.49-.36,1.3-.76,2.58-1.19,3.84-8,24-26.44,43-47,56.95q-5.67,3.87-11.66,7.18c-1.72,0-3.44.06-5.13.13l-53.42,1.9c-.79,0-.63,1.23.16,1.21l56.13-2c-17.22,9.23-36.06,15.3-55.21,19.17-7.92,1.6-15.9,2.85-23.91,3.83-.46.07-.92.13-1.37.16-15.22,1.83-30.55,2.7-45.86,3.21-.4,0-.8,0-1.2.05l-1,0c-13.13.43-26.53,1.1-39.43-1.73a54.82,54.82,0,0,1-29-16.55,59.4,59.4,0,0,1-14.29-27.83,53.26,53.26,0,0,1-.92-15.68c.45-5,1.78-9.9,2.58-14.86,1.28-7.81,1.68-17.44-6-22.16-4.4-2.71-10-2.8-15-2.75a133.13,133.13,0,0,0-18.7,1.78c-12.44,1.87-25.2,4.54-37.78,2.38a43.72,43.72,0,0,1-27.61-17.18A62.32,62.32,0,0,1,2.67,218.43c-.72-5.53,0-11.72-.26-17.65,5,5.21,8.78,12.07,12.47,17.68,6.59,10.08,15,16.74,27,19,12.78,2.38,25.92.53,38.81,1a156.06,156.06,0,0,1,45.11,8.27c6.71,2.28,13.56,4.84,17.76,10.89,3.35,4.81,4.86,10.64,6.79,16.1C154,284,160.12,292,171,295.16s20.95,1.11,30-3.73c.34-.17.68-.35,1-.56,10.34-5.79,19.25-15.15,26.25-24.34,7.91-10.4,14.12-23.39,7.95-36.19-5.3-11-16.57-17.94-26.73-23.87-.77-.45-1.3.83-.54,1.27,9.85,5.76,20.8,12.51,26,23.13,6.31,12.91-.8,25.94-8.82,36.17-6.81,8.71-14.7,17.18-24.44,22.62-6.94-25.33-11.41-51.23-9.39-77.6,1.47-19.25,6.37-38.39,15.92-55.25s23.55-30.61,39-42C279,91.54,317.79,73.89,357.44,71.41A144.48,144.48,0,0,1,461,106.91a139.57,139.57,0,0,1,30.69,38.74c-1.95,8.42-3.9,16.83-5.64,25.27-.7,3.42-1,7.5,2.26,9.72,2.92,2,7,1.05,10,0,2.75-1,5.48-2,8.15-3.18s5.17-2.32,7.69-3.6,5-2.65,7.43-4.1,4.72-2.94,7-4.55l.33-.24c8.29-6,15.47-13.89,19.12-23.54a35.88,35.88,0,0,0,2.36-13.64c-.18-6.41-2-12.64-2.34-19a58.16,58.16,0,0,1,8.5-33c6.13-10.15,15-17.41,25-23.61,9.32-5.82,19.21-11,27-18.93A58.27,58.27,0,0,0,624,3.84Z"/><path d="M622.84,1.75c.4.69.77,1.39,1.11,2.09a58.27,58.27,0,0,1-15.43,29.32c-7.81,7.89-17.7,13.11-27,18.93-10,6.2-18.82,13.46-25,23.61a58.16,58.16,0,0,0-8.5,33c.37,6.39,2.16,12.62,2.34,19A35.88,35.88,0,0,1,548,141.41C544.38,151.06,537.2,159,528.91,165l-.33.24c-2.27,1.61-4.6,3.12-7,4.55s-4.9,2.82-7.43,4.1-5.08,2.48-7.69,3.6-5.4,2.22-8.15,3.18c-3.07,1.07-7.11,2-10,0-3.27-2.22-3-6.3-2.26-9.72,1.74-8.44,3.69-16.85,5.64-25.27A139.57,139.57,0,0,0,461,106.91a144.48,144.48,0,0,0-103.54-35.5C317.79,73.89,279,91.54,247.25,114.83c-15.49,11.37-29.51,25.14-39,42s-14.45,36-15.92,55.25c-2,26.37,2.45,52.27,9.39,77.6.11.41.22.81.34,1.21-.34.21-.68.39-1,.56-.12-.41-.22-.81-.33-1.22-8.4-30.76-13.24-62.53-7.48-94.23,3.47-19.09,10.85-37.35,22.7-52.79,11.75-15.28,27-27.54,43.2-37.82,34-21.57,73.83-37.27,114.66-35.22a145.43,145.43,0,0,1,98.87,46.58A140.72,140.72,0,0,1,492.06,144c.35.64.7,1.26,1,1.9a146,146,0,0,1,12,30.3c4.12-1.82,8.2-3.72,12.17-5.81,9.7-5.12,18.82-11.68,25-20.9a39.53,39.53,0,0,0,6.34-15.65c.88-5.71-.1-11.31-1-17-3-18.66,2-37.23,14.75-51.41,13.78-15.31,35.25-20.9,48.39-36.89A57.89,57.89,0,0,0,622.84,1.75ZM500.81,178,504,176.6a144.57,144.57,0,0,0-11.32-29c-1.91,8-3.79,16-5.28,24.07-.81,4.39.25,8.82,5.56,8.63C495.73,180.17,498.32,179.05,500.81,178Z"/><path class="cls-2" d="M554.58,262.24a93.68,93.68,0,0,1,5.85,59.21,67.16,67.16,0,0,1-4.53,13.89c-.18.37-.38.76-.57,1.11-.3.57-.62,1.14-1,1.69-2.76,4.56-7.53,8.12-12.39,7.09-1-7.63-2.41-15.19-4-22.64q-1.71-7.6-3.76-15.1h0a.73.73,0,0,0,0-.37,370,370,0,0,0-10.37-42.54c-.1-.35-.2-.69-.32-1.05,0-.16-.08-.32-.11-.5-.95-4.13-1.68-8.52-.81-12.66,3.64-3,7.22-6,10.78-9.09l.53,0h.15C544.13,241.85,550.51,253.36,554.58,262.24Zm-3.72,62.43a11.76,11.76,0,0,0-8.6-18.16.57.57,0,0,0-.15,1.13A10.62,10.62,0,0,1,550,324C549.58,324.57,550.47,325.29,550.86,324.67Zm-14.11-42.05A21.08,21.08,0,0,0,543,256c-.34-.64-1.4-.22-1,.43a20,20,0,0,1-5.91,25.29A.58.58,0,0,0,536.75,282.62Z"/><path d="M542.26,306.51a11.76,11.76,0,0,1,8.6,18.16c-.39.62-1.28-.1-.89-.71a10.62,10.62,0,0,0-7.86-16.32A.57.57,0,0,1,542.26,306.51Z"/><path d="M543,256a21.08,21.08,0,0,1-6.27,26.64.58.58,0,0,1-.69-.92A20,20,0,0,0,542,256.41C541.62,255.76,542.68,255.34,543,256Z"/><path class="cls-2" d="M543.06,369.33c1.09,23.33-1.12,46.73-7.74,69.09-10.71,36.19-32.68,68.76-63.79,86.17-29.86,16.72-65,18.86-97.31,10.45-33.58-8.77-63.25-29.45-87.16-56.64a262.62,262.62,0,0,1-23.21-30.8v0c-.31-.44-.6-.88-.87-1.33q-1-1.61-2-3.21l-.81-1.31a360.49,360.49,0,0,1-28.42-57.64,75.91,75.91,0,0,0,8.14-8.91,83.4,83.4,0,0,0,9.22-14.82c6.55-.79,13.07-1.75,19.56-2.94,22.05-4,43.77-10.71,63.38-21.67l1.37,0c8.66-.31,18.49.39,26.45-3.67,5.63-2.87,9.89-8.46,9.44-15-.06-.79-1.27-.63-1.21.16.65,9.18-8.19,14.64-16.15,16.08a110.15,110.15,0,0,1-17.84,1.28c1-.57,2-1.17,3-1.76,20.85-12.7,40.64-30.77,50.76-53.38a91.2,91.2,0,0,0,4.34-11.77c13.21,11.58,29.62,18.46,47.56,18.71,2.31,0,4.62,0,6.92-.19l-14.11,12.26-10,8.66c-3.36,2.93-6.78,6.12-11,7.77-3.66,1.44-8.39,1.67-11.65-.89-2.4-1.87-3.29-5.09-6.34-6.15-.75-.25-1.23.87-.48,1.14,3.3,1.12,4.42,5.32,7.6,6.93a13.16,13.16,0,0,0,8.57.95c8-1.66,14.44-9.14,20.35-14.28q9.53-8.26,19-16.55c17.24-1.6,33.76-8.34,48.48-17.32,5.24-3.19,10.28-6.66,15.18-10.32A87.65,87.65,0,0,0,522.45,264a.45.45,0,0,1,0,.08c.21.64.4,1.28.58,1.94a363.28,363.28,0,0,1,10,41.14v0a.59.59,0,0,0,0,.44,297.15,297.15,0,0,1,7.74,37.27c.08.45.14.92.19,1.37,1,7.17,1.67,14.37,2,21.59,0,.5,0,1,.07,1.5Zm-23.31-28.15c1.94-6.78-1.79-14-6.1-18.79a47.86,47.86,0,0,0-19.76-12.89,7.37,7.37,0,0,0-3.92-1.21c-16.61-4.45-33.82-.14-48.11,10.32-2.07,1.51-4.16,3.13-6.16,4.89A7.56,7.56,0,0,0,432,327c-.51.54-1,1.09-1.5,1.65-.28.34-.57.68-.85,1a30.32,30.32,0,0,0-5.58,10.11,19.42,19.42,0,0,0,.51,13,.75.75,0,0,1,.07.12,39,39,0,0,1,1.72,4.72A82,82,0,0,0,433.17,368c2.46,3,5.78,5.37,10,4.73,4.65-.71,8.16-4.63,11.68-7.44a49.84,49.84,0,0,1,16.31-8.6c9.75-3,19.77-1.8,29.68-3.31C508.15,352.29,517.45,349.19,519.75,341.18Zm-28,116.1a.67.67,0,0,0,.51-1.23c-2.1-.93-4.41-1.95-5.9-3.8-1.81-2.27-1.17-4.95-1.71-7.58a13.68,13.68,0,0,0-4.95-7.93c-.66-.55-1.49.49-.82,1a12.35,12.35,0,0,1,4.54,7.53c.09.51.13,1,.17,1.54a2,2,0,0,0-.5,0c-25,3.11-47.47,11.77-63.63,24.51-.85.66.76,1.48,1.61.82,15.8-12.46,37.85-21,62.29-24a1.81,1.81,0,0,0,.27-.06,10,10,0,0,0,.49,2.86C485.31,454.27,488.69,455.94,491.71,457.28Zm-52.4-36.63c8.58,3.93,18.59-2.14,18.39-11.78-.21-11.5-13.26-15-22.49-15.77a.56.56,0,0,0-.58.37,49.41,49.41,0,0,0-7.14-9.44c-7.79-8-17.62-13.65-27.24-19.15-.64-.36-1.07.69-.45,1.06,14.7,8.41,31,17.94,37.19,34.71,5.9,15.87-1.78,34.79-20,36.53-10.27,1-19.88-3.64-27.95-9.56-.59-.44-1.3.46-.71.89a62.63,62.63,0,0,0,9.85,6,.61.61,0,0,0-.37.29A15.13,15.13,0,0,1,375.54,440c-7.24-5.41-7.8-15.79-1.83-22.37.49-.54-.41-1.25-.9-.71-6.59,7.28-5.59,18.89,2.69,24.44a16.28,16.28,0,0,0,23.38-6.09.43.43,0,0,0,0-.39,36.63,36.63,0,0,0,14.82,3.58c8.15.12,16.23-3,21.15-9.71a26.45,26.45,0,0,0,4.17-8.3A.6.6,0,0,0,439.31,420.65Zm-78.72-14.74c3.64-2.24,4.7-6.34,4.69-10.37a90.25,90.25,0,0,0-1.4-13.36,10.58,10.58,0,0,1-1.46-4.09h0a20.06,20.06,0,0,0-8-11.22,30.12,30.12,0,0,0-12-4.69c-.38-.08-.76-.14-1.15-.2a67.21,67.21,0,0,0-14.08-.43c-15.15.89-29.08,6.8-39.06,17.6-.31.32-.61.65-.89,1a53.1,53.1,0,0,0-5.81,8A51.5,51.5,0,0,0,274.05,412c-.26,6.71,1.42,15,7.23,19.13,6.86,4.93,16,1.28,22.42-2.67,8.62-5.33,15.63-12.88,25.05-16.93a48.05,48.05,0,0,1,18.07-3.86C351.33,407.57,356.53,408.42,360.59,405.91Z"/><path class="cls-1" d="M521.23,251.48a32.8,32.8,0,0,0,.86,10.92,86.13,86.13,0,0,1-8.72-4.8C516,255.61,518.64,253.57,521.23,251.48Z"/><path d="M513.65,322.39c4.31,4.81,8,12,6.1,18.79-2.3,8-11.6,11.11-18.95,12.23-9.91,1.51-19.93.34-29.68,3.31a49.84,49.84,0,0,0-16.31,8.6c-3.52,2.81-7,6.73-11.68,7.44-4.18.64-7.5-1.73-10-4.73a82,82,0,0,1-6.79-10.35,39,39,0,0,0-1.72-4.72.75.75,0,0,0-.07-.12,19.42,19.42,0,0,1-.51-13,30.32,30.32,0,0,1,5.58-10.11c.28-.36.57-.7.85-1,.48-.56,1-1.11,1.5-1.65a6.55,6.55,0,0,0-.33,4.78c-.39-.34-.75-.72-1.12-1.1a.53.53,0,0,0-.1.12c-4.67,5.85-7.44,14.46-4.92,21.18a2,2,0,0,0,0,.24,5.63,5.63,0,0,0,.74,2A14.74,14.74,0,0,0,427.6,357c.25.43.53.9.83,1.33l-.1-.08c1.21,2,2.41,3.91,3.66,5.83,2.57,4,6.2,8.63,11.76,7.25,3.71-.91,6.65-4,9.51-6.37a51.9,51.9,0,0,1,10.65-6.8c7.09-3.36,14.48-4.61,22.16-5,7.91-.41,16.21-.22,23.68-3.52,4.46-2,8.33-5.28,9.06-10.25.59-4-.78-8-2.7-11.34-3.49-6.09-9.38-10.81-15.5-14.14a46.94,46.94,0,0,0-4.82-2.27,5.5,5.5,0,0,0-1.9-2.13A47.86,47.86,0,0,1,513.65,322.39Z"/><path class="cls-3" d="M516.11,328c1.92,3.35,3.29,7.37,2.7,11.34-.73,5-4.6,8.27-9.06,10.25-7.47,3.3-15.77,3.11-23.68,3.52-7.68.39-15.07,1.64-22.16,5a51.9,51.9,0,0,0-10.65,6.8c-2.86,2.36-5.8,5.46-9.51,6.37-5.56,1.38-9.19-3.26-11.76-7.25-1.25-1.92-2.45-3.87-3.66-5.83l.1.08c-.3-.43-.58-.9-.83-1.33a14.74,14.74,0,0,1-1.29-2.75,5.63,5.63,0,0,1-.74-2,2,2,0,0,1,0-.24c-2.52-6.72.25-15.33,4.92-21.18a.53.53,0,0,1,.1-.12c.37.38.73.76,1.12,1.1a4.1,4.1,0,0,0,.11.4c4.87,14.22,26.5,18.87,39.57,15.35,14.68-4,22-18,24.87-31.83a6.09,6.09,0,0,0-.44-4.09,46.94,46.94,0,0,1,4.82,2.27C506.73,317.23,512.62,322,516.11,328Z"/><path class="cls-4" d="M504,176.6,500.81,178c-2.49,1.07-5.08,2.19-7.85,2.29-5.31.19-6.37-4.24-5.56-8.63,1.49-8,3.37-16.07,5.28-24.07A144.57,144.57,0,0,1,504,176.6Z"/><path d="M495.79,311.63a6.09,6.09,0,0,1,.44,4.09c-2.86,13.85-10.19,27.87-24.87,31.83-13.07,3.52-34.7-1.13-39.57-15.35a4.1,4.1,0,0,1-.11-.4c4.16,3.91,9.66,6.65,14.87,8.46A35.83,35.83,0,0,0,457.6,342c4.21.1,8.73.32,12.82-1.08s7.83-4.5,11.27-7.31c3-2.44,5.86-5.1,7.62-8.56a27.08,27.08,0,0,0,2.78-14.8C493.34,310.67,494.57,311.12,495.79,311.63Z"/><path d="M493.89,309.5a5.5,5.5,0,0,1,1.9,2.13c-1.22-.51-2.45-1-3.7-1.36a27.08,27.08,0,0,1-2.78,14.8c-1.76,3.46-4.64,6.12-7.62,8.56-3.44,2.81-7,5.85-11.27,7.31s-8.61,1.18-12.82,1.08a35.83,35.83,0,0,1-11.05-1.76c-5.21-1.81-10.71-4.55-14.87-8.46A6.55,6.55,0,0,1,432,327q1.77-1.84,3.69-3.52c3.23-1.49,7.33-.79,8.8,3.54,2.58,7.5,18.43,9.35,24.87,6.77,8.06-3.21,11.64-12,13.26-19.89a7,7,0,0,1,7.34-5.63c.19,0,.39.09.58.15.45.12.9.26,1.35.4s1,.32,1.52.49C493.58,309.39,493.74,309.43,493.89,309.5Z"/><path d="M493.89,309.5c-.15-.07-.31-.11-.47-.17-.5-.17-1-.34-1.52-.49s-.9-.28-1.35-.4c-.19-.06-.39-.11-.58-.15A7.37,7.37,0,0,1,493.89,309.5Z"/><path d="M492.22,456.05a.67.67,0,0,1-.51,1.23c-3-1.34-6.4-3-7.63-6.31a10,10,0,0,1-.49-2.86c.82-.25.73-1.09,0-1.26,0-.51-.08-1-.17-1.54a12.35,12.35,0,0,0-4.54-7.53c-.67-.55.16-1.59.82-1a13.68,13.68,0,0,1,4.95,7.93c.54,2.63-.1,5.31,1.71,7.58C487.81,454.1,490.12,455.12,492.22,456.05Z"/><path d="M490,308.29a7,7,0,0,0-7.34,5.63c-1.62,7.89-5.2,16.68-13.26,19.89-6.44,2.58-22.29.73-24.87-6.77-1.47-4.33-5.57-5-8.8-3.54,2-1.76,4.09-3.38,6.16-4.89C456.15,308.15,473.36,303.84,490,308.29Z"/><path d="M483.55,446.85c.77.17.86,1,0,1.26C483.57,447.69,483.56,447.26,483.55,446.85Z"/><path d="M483.55,446.85c0,.41,0,.84,0,1.26a1.81,1.81,0,0,1-.27.06c-24.44,3-46.49,11.54-62.29,24-.85.66-2.46-.16-1.61-.82,16.16-12.74,38.66-21.4,63.63-24.51A2,2,0,0,1,483.55,446.85Z"/><path d="M474.23,262.2c.59-.52,1.33.45.73,1l-24.27,21.11c-.7.08-1.4.14-2.09.2Z"/><path d="M457.7,408.87c.2,9.64-9.81,15.71-18.39,11.78a.6.6,0,0,1-.25-.22,26.45,26.45,0,0,1-4.17,8.3c-4.92,6.67-13,9.83-21.15,9.71a36.63,36.63,0,0,1-14.82-3.58.43.43,0,0,1,0,.39,16.28,16.28,0,0,1-23.38,6.09c-8.28-5.55-9.28-17.16-2.69-24.44.49-.54,1.39.17.9.71-6,6.58-5.41,17,1.83,22.37a15.13,15.13,0,0,0,22.29-5.17.61.61,0,0,1,.37-.29,62.63,62.63,0,0,1-9.85-6c-.59-.43.12-1.33.71-.89,8.07,5.92,17.68,10.55,27.95,9.56,18.2-1.74,25.88-20.66,20-36.53-6.21-16.77-22.49-26.3-37.19-34.71-.62-.37-.19-1.42.45-1.06,9.62,5.5,19.45,11.11,27.24,19.15a49.41,49.41,0,0,1,7.14,9.44.56.56,0,0,1,.58-.37C444.44,393.86,457.49,397.37,457.7,408.87ZM439.76,419.6c8.93,4.1,19.3-3.91,16.34-13.72-2.68-8.86-13.07-11-21-11.65,4.38,7.84,6.46,16.9,4.24,25.35A.57.57,0,0,1,439.76,419.6Z"/><path class="cls-2" d="M456.1,405.88c3,9.81-7.41,17.82-16.34,13.72a.57.57,0,0,0-.46,0c2.22-8.45.14-17.51-4.24-25.35C443,394.9,453.42,397,456.1,405.88Z"/><path d="M450.69,284.28l-2,1.76c-.67.06-1.36.12-2,.16l2-1.72C449.29,284.42,450,284.36,450.69,284.28Z"/><path d="M448.65,286q-9.51,8.28-19,16.55c-5.91,5.14-12.34,12.62-20.35,14.28a13.16,13.16,0,0,1-8.57-.95c-3.18-1.61-4.3-5.81-7.6-6.93-.75-.27-.27-1.39.48-1.14,3.05,1.06,3.94,4.28,6.34,6.15,3.26,2.56,8,2.33,11.65.89,4.2-1.65,7.62-4.84,11-7.77l10-8.66,14.11-12.26C447.29,286.16,448,286.1,448.65,286Z"/><path d="M448.6,284.48l-2,1.72c-2.3.16-4.61.23-6.92.19-17.94-.25-34.35-7.13-47.56-18.71a91.2,91.2,0,0,1-4.34,11.77c-10.12,22.61-29.91,40.68-50.76,53.38-1,.59-2,1.19-3,1.76l-2.91,0q6-3.31,11.66-7.18c20.54-14,39-33,47-56.95.43-1.26.83-2.54,1.19-3.84.15-.5.29-1,.41-1.49A91,91,0,0,0,385.13,201a92.38,92.38,0,0,0-27.64-32.62c-.44-.33-.9-.66-1.36-1,.06-.53.14-1.05.23-1.57.46.3.91.62,1.35,1a91.47,91.47,0,0,1,34.84,99.46h0a82.73,82.73,0,0,0,7.28,5.81C414.19,282.22,431.44,286,448.6,284.48Z"/><path d="M435.7,323.5q-1.92,1.68-3.69,3.52A7.56,7.56,0,0,1,435.7,323.5Z"/><path d="M369.27,317.07c.45,6.51-3.81,12.1-9.44,15-8,4.06-17.79,3.36-26.45,3.67l-1.37,0c.68-.37,1.37-.76,2.06-1.16a110.15,110.15,0,0,0,17.84-1.28c8-1.44,16.8-6.9,16.15-16.08C368,316.44,369.21,316.28,369.27,317.07Z"/><path d="M365.28,395.54c0,4-1,8.13-4.69,10.37-4.06,2.51-9.26,1.66-13.77,1.73a48.05,48.05,0,0,0-18.07,3.86c-9.42,4.05-16.43,11.6-25.05,16.93-6.4,3.95-15.56,7.6-22.42,2.67-5.81-4.16-7.49-12.42-7.23-19.13a51.5,51.5,0,0,1,7.36-23.85,53.1,53.1,0,0,1,5.81-8c.28-.33.58-.66.89-1,10-10.8,23.91-16.71,39.06-17.6a67.21,67.21,0,0,1,14.08.43c.39.06.77.12,1.15.2a30.12,30.12,0,0,1,12,4.69,20.06,20.06,0,0,1,8,11.22h0a10.58,10.58,0,0,0,1.46,4.09A90.25,90.25,0,0,1,365.28,395.54Zm-6.08,9.63c5.16-2.56,5-8.68,4.49-13.59-.26-2.36-.57-4.73-.88-7.09l0,.21a14.27,14.27,0,0,0-1.25-5c-1.11-6.8-7.12-12.07-13.75-14.67a7.57,7.57,0,0,0-7.34-1.84,65.78,65.78,0,0,0-27.79,2.07,51.52,51.52,0,0,0-24.08,15.31c.07.2.15.38.23.57a6.05,6.05,0,0,0-.61,1.44c-.16-.34-.32-.69-.47-1.05a53.14,53.14,0,0,0-9,15c-2.63,6.71-4.19,14.39-3,21.59.65,3.95,2.14,8.1,5.12,10.9,3.72,3.5,8.82,3.61,13.51,2.25,7.88-2.28,14.17-7.9,20.55-12.79,6.19-4.76,12.71-8.63,20.32-10.61a49.72,49.72,0,0,1,12.55-1.56C351.49,406.33,355.75,406.87,359.2,405.17Z"/><path class="cls-3" d="M363.69,391.58c.55,4.91.67,11-4.49,13.59-3.45,1.7-7.71,1.16-11.41,1.16a49.72,49.72,0,0,0-12.55,1.56c-7.61,2-14.13,5.85-20.32,10.61-6.38,4.89-12.67,10.51-20.55,12.79-4.69,1.36-9.79,1.25-13.51-2.25-3-2.8-4.47-7-5.12-10.9-1.17-7.2.39-14.88,3-21.59a53.14,53.14,0,0,1,9-15c.15.36.31.71.47,1.05a6.33,6.33,0,0,0,1.13,5.65c7.3,9.92,21.08,12.88,32.78,11,14.43-2.28,21.65-14.77,27-27a6.11,6.11,0,0,0-1.34-7.2c6.63,2.6,12.64,7.87,13.75,14.67a14.27,14.27,0,0,1,1.25,5l0-.21C363.12,386.85,363.43,389.22,363.69,391.58Z"/><path d="M347.78,365.07a6.11,6.11,0,0,1,1.34,7.2c-5.37,12.26-12.59,24.75-27,27-11.7,1.85-25.48-1.11-32.78-11a6.33,6.33,0,0,1-1.13-5.65,23.83,23.83,0,0,0,11.28,10.85c3.11,1.42,6.54,1.62,9.91,1.61,3.88,0,8,.07,11.68-1.36s6.48-4.15,9.28-6.64a32,32,0,0,0,6.49-7.62c2.76-4.67,5.12-10.31,5.51-15.92l1.41.29A28.22,28.22,0,0,1,347.78,365.07Z"/><path d="M347.78,365.07a28.22,28.22,0,0,0-4-1.24l-1.41-.29c-.39,5.61-2.75,11.25-5.51,15.92a32,32,0,0,1-6.49,7.62c-2.8,2.49-5.73,5.27-9.28,6.64s-7.8,1.35-11.68,1.36c-3.37,0-6.8-.19-9.91-1.61a23.83,23.83,0,0,1-11.28-10.85,6.05,6.05,0,0,1,.61-1.44,21.86,21.86,0,0,0,12.89,11.91c3.53,1.11,7.41.92,11.06.8s6.94-.48,10-2.3a37.52,37.52,0,0,0,14.15-14.68c2.12-4.2,4-8.84,4.29-13.57l-.76-.11A7.57,7.57,0,0,1,347.78,365.07Z"/><path d="M340.44,363.23l.76.11c-.33,4.73-2.17,9.37-4.29,13.57a37.52,37.52,0,0,1-14.15,14.68c-3.07,1.82-6.5,2.2-10,2.3s-7.53.31-11.06-.8a21.86,21.86,0,0,1-12.89-11.91c2.19-3.87,8.08-5.78,11.5-1.12,4.29,5.82,13.33,6.86,20,5.64,9-1.65,12.88-11.32,16.15-18.77A6.32,6.32,0,0,1,340.44,363.23Z"/><path d="M340.44,363.23a6.32,6.32,0,0,0-3.95,3.7c-3.27,7.45-7.13,17.12-16.15,18.77-6.71,1.22-15.75.18-20-5.64-3.42-4.66-9.31-2.75-11.5,1.12-.08-.19-.16-.37-.23-.57a51.52,51.52,0,0,1,24.08-15.31A65.78,65.78,0,0,1,340.44,363.23Z"/><path d="M334.07,334.59c-.69.4-1.38.79-2.06,1.16l-3.11.12c.77-.4,1.52-.81,2.26-1.24Z"/><path d="M331.16,334.63c-.74.43-1.49.84-2.26,1.24l-56.13,2c-.79,0-.95-1.19-.16-1.21l53.42-1.9C327.72,334.69,329.44,334.66,331.16,334.63Z"/><path class="cls-1" d="M260.45,444.48c.71,1.13,1.42,2.24,2.14,3.34a111.29,111.29,0,0,1-18,38,100.27,100.27,0,0,1-22.44,22.33c-8.56,6.1-17.72,9.9-27.4,13.17-8.53,2.87-17.73,6.29-23,14.59,2.63-20.12,18.49-33.89,31.74-46.3,10.93-10.24,22.63-22.69,25.94-38.46,1.36.54,2.76,1,4.16,1.47,7.15,2.26,23,6.21,25.74-5.24,0,0,0-.07,0-.12C259.75,446.35,260.12,445.41,260.45,444.48Z"/><path class="cls-2" d="M259.67,443.22a41.33,41.33,0,0,1-1.53,3.92.54.54,0,0,0,0,.41c-2.76,9.85-17.81,5.88-24.06,3.9-1.47-.46-2.93-1-4.35-1.57a10.28,10.28,0,0,1-1.09-.43,62.61,62.61,0,0,1-18.37-12.05,69,69,0,0,1-16.66-25.13c-3.57-9.19-6.27-20.63-4.65-30.64,1-6.26,5-13.31,11.49-13.24a8.78,8.78,0,0,1,2.69.46,10.1,10.1,0,0,1,1.39.61,11.81,11.81,0,0,1,6.08,10.75.65.65,0,0,0,.11.44c-2.55,6,3.73,11.55,9,10.8,4.13-.6,7.7-3.51,10.83-6.31l.23-.21A360.09,360.09,0,0,0,259.67,443.22Zm-24.45-3.43a.57.57,0,0,0,.15-1.13,11.06,11.06,0,0,1-9.66-10.57c0-5.41,4.33-9.91,9.55-10.68a.57.57,0,0,0-.15-1.13c-5.75.84-10.59,5.84-10.56,11.81S229.46,439,235.22,439.79Zm-5.17-37.9c.7-.22.26-1.27-.43-1.06a23.08,23.08,0,0,1-28.35-13.72.57.57,0,0,0-1.06.44A24.25,24.25,0,0,0,230.05,401.89Z"/><path class="cls-1" d="M247.69,360.52c-1,2.09-2.18,4.15-3.39,6.14a78,78,0,0,1-13.07,16.21c-.3.31-.6.59-.91.86a.43.43,0,0,1-.1.09c-3.06,2.77-6.57,5.8-10.63,6.36-4.35.6-10.59-4-7.67-9.48a.76.76,0,0,0-.2-.95A12.87,12.87,0,0,0,204.07,368c-.4-1.44-.8-2.88-1.16-4.33C217.86,363.12,232.83,362.27,247.69,360.52Z"/><path d="M236.22,230.34c6.17,12.8,0,25.79-7.95,36.19-7,9.19-15.91,18.55-26.25,24.34-.12-.4-.23-.8-.34-1.21,9.74-5.44,17.63-13.91,24.44-22.62,8-10.23,15.13-23.26,8.82-36.17-5.19-10.62-16.14-17.37-26-23.13-.76-.44-.23-1.72.54-1.27C219.65,212.4,230.92,219.36,236.22,230.34Z"/><path d="M235.37,438.66a.57.57,0,0,1-.15,1.13c-5.76-.78-10.64-5.75-10.67-11.7s4.81-11,10.56-11.81a.57.57,0,0,1,.15,1.13c-5.22.77-9.58,5.27-9.55,10.68A11.06,11.06,0,0,0,235.37,438.66Z"/><path d="M229.62,400.83c.69-.21,1.13.84.43,1.06a24.25,24.25,0,0,1-29.84-14.34.57.57,0,0,1,1.06-.44A23.08,23.08,0,0,0,229.62,400.83Z"/><path class="cls-5" d="M435.21,393.1a.56.56,0,0,0-.58.37,49.41,49.41,0,0,0-7.14-9.44c-7.79-8-17.62-13.65-27.24-19.15-.64-.36-1.07.69-.45,1.06,14.7,8.41,31,17.94,37.19,34.71,5.9,15.87-1.78,34.79-20,36.53-10.27,1-19.88-3.64-27.95-9.56-.59-.44-1.3.46-.71.89a62.63,62.63,0,0,0,9.85,6,.61.61,0,0,0-.37.29A15.13,15.13,0,0,1,375.54,440c-7.24-5.41-7.8-15.79-1.83-22.37.49-.54-.41-1.25-.9-.71-6.59,7.28-5.59,18.89,2.69,24.44a16.28,16.28,0,0,0,23.38-6.09.43.43,0,0,0,0-.39,36.63,36.63,0,0,0,14.82,3.58c8.15.12,16.23-3,21.15-9.71a26.45,26.45,0,0,0,4.17-8.3.6.6,0,0,0,.25.22c8.58,3.93,18.59-2.14,18.39-11.78C457.49,397.37,444.44,393.86,435.21,393.1Z"/><path class="cls-5" d="M439.76,419.6a.57.57,0,0,0-.46,0c2.22-8.45.14-17.51-4.24-25.35,8,.67,18.36,2.79,21,11.65C459.06,415.69,448.69,423.7,439.76,419.6Z"/><path class="cls-5" d="M201.68,289.66c9.74-5.44,17.63-13.91,24.44-22.62,8-10.23,15.13-23.26,8.82-36.17-5.19-10.62-16.14-17.37-26-23.13-.76-.44-.23-1.72.54-1.27,10.16,5.93,21.43,12.89,26.73,23.87,6.17,12.8,0,25.79-7.95,36.19-7,9.19-15.91,18.55-26.25,24.34"/><path class="cls-5" d="M328.9,335.87c-17.22,9.23-36.06,15.3-55.21,19.17-7.92,1.6-15.9,2.85-23.91,3.83-.46.07-.92.13-1.37.16-15.22,1.83-30.55,2.7-45.86,3.21-.4,0-.8,0-1.2.05l-1,0c-13.13.43-26.53,1.1-39.43-1.73a54.82,54.82,0,0,1-29-16.55,59.4,59.4,0,0,1-14.29-27.83,53.26,53.26,0,0,1-.92-15.68c.45-5,1.78-9.9,2.58-14.86,1.28-7.81,1.68-17.44-6-22.16-4.4-2.71-10-2.8-15-2.75a133.13,133.13,0,0,0-18.7,1.78c-12.44,1.87-25.2,4.54-37.78,2.38a43.72,43.72,0,0,1-27.61-17.18A62.32,62.32,0,0,1,2.67,218.43c-.72-5.53,0-11.72-.26-17.65,5,5.21,8.78,12.07,12.47,17.68,6.59,10.08,15,16.74,27,19,12.78,2.38,25.92.53,38.81,1a156.06,156.06,0,0,1,45.11,8.27c6.71,2.28,13.56,4.84,17.76,10.89,3.35,4.81,4.86,10.64,6.79,16.1C154,284,160.12,292,171,295.16s20.95,1.11,30-3.73"/><path class="cls-5" d="M448.6,284.48c-17.16,1.51-34.41-2.26-48.77-12.46a82.73,82.73,0,0,1-7.28-5.81h0a91.47,91.47,0,0,0-34.84-99.46c-.44-.33-.89-.65-1.35-1-.09.52-.17,1-.23,1.57.46.32.92.65,1.36,1A92.38,92.38,0,0,1,385.13,201a91,91,0,0,1,6.27,64.21c-.12.5-.26,1-.41,1.49-.36,1.3-.76,2.58-1.19,3.84-8,24-26.44,43-47,56.95q-5.67,3.87-11.66,7.18"/><path class="cls-5" d="M200.67,290.21c-.93.49-1.88,1-2.84,1.39-10.59,4.78-23.71,5.26-33.84-1s-11.75-17.95-16.21-28.16c-2-4.58-4.8-8.69-9-11.51-5-3.33-11-5.15-16.73-6.9a158.42,158.42,0,0,0-41.15-7c-12.21-.41-24.56,1.19-36.71-.62-6.85-1-13.53-3.3-18.93-7.76S16.16,218,12.45,212.05A67.38,67.38,0,0,0,2.28,198.82c-.53-.51-1.08-1-1.64-1.48.07.61.12,1.23.15,1.85.34,5.15-.26,10.36.11,15.53A66.2,66.2,0,0,0,9.4,243c4.83,8.33,11.8,15.52,20.55,19.69,10.68,5.1,22.71,5,34.2,3.59,13-1.6,26.2-5,39.43-4,6.73.51,12.9,3.32,14.56,10.38,1.21,5.15.2,10.66-.76,15.75-1.93,10.19-3.18,19.63-.72,29.87a61,61,0,0,0,13.49,25.87,55.28,55.28,0,0,0,25,16.33c12.15,3.78,25,3.74,37.62,3.44l8.95-.25c.33,1.28.67,2.56,1,3.83a9.53,9.53,0,0,0-7.6,1.22c-9.87,6.3-8.32,21.89-6.12,32.21,4.84,22.76,19.78,41.48,39.37,49.75-3.58,17.48-17.58,30.48-29.6,41.66-12.92,12-27.09,26.34-28.42,46.16a.57.57,0,0,0,1.08.33c4.92-10.17,15.58-13.63,24.88-16.73s18.25-7.05,26.51-13C239.27,497.4,252.36,480,259.94,460a113.05,113.05,0,0,0,3.51-10.88q7.23,11.12,15.45,21.38c22.86,28.54,51.59,51.51,84.79,62.68,32,10.77,67.57,11.23,98.86-2.72,32.17-14.33,56.37-43.92,69.6-79,9.74-25.82,13.23-53.69,12.07-81.45a41.39,41.39,0,0,0,14.86,5.46c22,3.43,40.61-14.56,62.1-15.68,10.93-.55,23,4.46,27.57,16.22.3.77,1.27.3,1.06-.47C645.57,360,634.82,347,621.14,341c-15.45-6.77-32.43-3.2-48.55-3.38a59.93,59.93,0,0,1-15.59-2,58.77,58.77,0,0,0,2.19-5.68,94.34,94.34,0,0,0-4.63-70.46c-4.18-8.46-10.46-18.54-19.82-19.43,5.12-4.44,10.17-9,15.25-13.39,15.88-13.89,33.86-27.34,45-45.57,10.11-16.56,12.65-36,3-53.33-9.15-16.41-30.31-39.15-12.34-57.34C592.49,63.54,602,60.14,610.12,55A41.37,41.37,0,0,0,627.3,33.7a39.45,39.45,0,0,0-2.9-32.22c-.14.79-.29,1.58-.45,2.36a38.12,38.12,0,0,1,1.18,31.39c-3.53,8.55-9.82,14.89-17.64,19.61-6.65,4-13.94,7.07-20,12-5.77,4.65-9.67,11-10.12,18.48-.51,8.62,3,17.06,7.28,24.33,4.86,8.19,11.06,15.65,14.82,24.47,4.26,10,4.19,21,1.06,31.26-6.09,20-22.06,34.44-37.31,47.79-9.93,8.7-19.76,17.6-29.81,26.22l-2.56,2.2h0c-2.46,2.08-4.92,4.13-7.41,6.16h0c-.57.47-1.14.94-1.73,1.39h0c-2.27,1.86-4.57,3.67-6.89,5.47-.92.71-1.85,1.41-2.79,2.12-.35.27-.69.53-1.05.78-15.23,11.31-32,20.88-50.61,25.12a88.84,88.84,0,0,1-9.65,1.65"/><path class="cls-5" d="M533.38,241.27l.53,0h.15c10.07.56,16.45,12.07,20.52,21a93.68,93.68,0,0,1,5.85,59.21,67.16,67.16,0,0,1-4.53,13.89c-.18.37-.38.76-.57,1.11-.3.57-.62,1.14-1,1.69-2.76,4.56-7.53,8.12-12.39,7.09-1-7.63-2.41-15.19-4-22.64q-1.71-7.6-3.76-15.1h0a.73.73,0,0,0,0-.37,370,370,0,0,0-10.37-42.54c-.1-.35-.2-.69-.32-1.05,0-.16-.08-.32-.11-.5-.95-4.13-1.68-8.52-.81-12.66C526.24,247.38,529.82,244.34,533.38,241.27Z"/><path class="cls-5" d="M521.23,251.48a32.8,32.8,0,0,0,.86,10.92,86.13,86.13,0,0,1-8.72-4.8C516,255.61,518.64,253.57,521.23,251.48Z"/><path class="cls-5" d="M247.69,360.52c-1,2.09-2.18,4.15-3.39,6.14a78,78,0,0,1-13.07,16.21c-.3.31-.6.59-.91.86a.43.43,0,0,1-.1.09c-3.06,2.77-6.57,5.8-10.63,6.36-4.35.6-10.59-4-7.67-9.48a.76.76,0,0,0-.2-.95A12.87,12.87,0,0,0,204.07,368c-.4-1.44-.8-2.88-1.16-4.33C217.86,363.12,232.83,362.27,247.69,360.52Z"/><path class="cls-5" d="M210.24,437.4a69,69,0,0,1-16.66-25.13c-3.57-9.19-6.27-20.63-4.65-30.64,1-6.26,5-13.31,11.49-13.24a8.78,8.78,0,0,1,2.69.46,10.1,10.1,0,0,1,1.39.61,11.81,11.81,0,0,1,6.08,10.75.65.65,0,0,0,.11.44c-2.55,6,3.73,11.55,9,10.8,4.13-.6,7.7-3.51,10.83-6.31l.23-.21a360.09,360.09,0,0,0,28.88,58.29,41.33,41.33,0,0,1-1.53,3.92.54.54,0,0,0,0,.41c-2.76,9.85-17.81,5.88-24.06,3.9-1.47-.46-2.93-1-4.35-1.57a10.28,10.28,0,0,1-1.09-.43A62.61,62.61,0,0,1,210.24,437.4Z"/><path class="cls-5" d="M244.58,485.81a100.27,100.27,0,0,1-22.44,22.33c-8.56,6.1-17.72,9.9-27.4,13.17-8.53,2.87-17.73,6.29-23,14.59,2.63-20.12,18.49-33.89,31.74-46.3,10.93-10.24,22.63-22.69,25.94-38.46,1.36.54,2.76,1,4.16,1.47,7.15,2.26,23,6.21,25.74-5.24,0,0,0-.07,0-.12.4-.9.77-1.84,1.1-2.77.71,1.13,1.42,2.24,2.14,3.34A111.29,111.29,0,0,1,244.58,485.81Z"/><path class="cls-5" d="M522.45,264l-.14-.45a.86.86,0,0,1,0-.27Z"/><path class="cls-5" d="M448.65,286c17.24-1.6,33.76-8.34,48.48-17.32,5.24-3.19,10.28-6.66,15.18-10.32A87.65,87.65,0,0,0,522.45,264"/><path class="cls-5" d="M334.07,334.59c1-.57,2-1.17,3-1.76,20.85-12.7,40.64-30.77,50.76-53.38a91.2,91.2,0,0,0,4.34-11.77c13.21,11.58,29.62,18.46,47.56,18.71,2.31,0,4.62,0,6.92-.19"/><path class="cls-5" d="M522.45,264a.45.45,0,0,1,0,.08c.21.64.4,1.28.58,1.94a363.28,363.28,0,0,1,10,41.14v0a.59.59,0,0,0,0,.44,297.15,297.15,0,0,1,7.74,37.27c.08.45.14.92.19,1.37,1,7.17,1.67,14.37,2,21.59,0,.5,0,1,.07,1.5h0c1.09,23.33-1.12,46.73-7.74,69.09-10.71,36.19-32.68,68.76-63.79,86.17-29.86,16.72-65,18.86-97.31,10.45-33.58-8.77-63.25-29.45-87.16-56.64a262.62,262.62,0,0,1-23.21-30.8v0c-.31-.44-.6-.88-.87-1.33q-1-1.61-2-3.21l-.81-1.31a360.49,360.49,0,0,1-28.42-57.64,75.91,75.91,0,0,0,8.14-8.91,83.4,83.4,0,0,0,9.22-14.82c6.55-.79,13.07-1.75,19.56-2.94,22.05-4,43.77-10.71,63.38-21.67"/><path class="cls-5" d="M632.17,359.82c-9.52-2.83-19.49-.54-28.63,2.84-10.88,4-21.35,9.86-32.83,11.56a39,39,0,0,1-26.55-5.64v0c-.35-7.37-1-14.74-2-22.05a11.17,11.17,0,0,0,8.64-2.39,20.45,20.45,0,0,0,5.66-7.34h0c10.31,3,21.49,2.05,32.15,1.59,8.29-.35,16.7-.56,24.86,1.39a45.65,45.65,0,0,1,20.9,11.68,53.21,53.21,0,0,1,12.23,18.31A27.69,27.69,0,0,0,632.17,359.82Z"/><path class="cls-5" d="M624,3.84c-.34-.7-.71-1.4-1.11-2.09a57.89,57.89,0,0,1-12.16,26.78c-13.14,16-34.61,21.58-48.39,36.89-12.75,14.18-17.74,32.75-14.75,51.41.89,5.65,1.87,11.25,1,17a39.53,39.53,0,0,1-6.34,15.65c-6.16,9.22-15.28,15.78-25,20.9-4,2.09-8.05,4-12.17,5.81a146,146,0,0,0-12-30.3c-.33-.64-.68-1.26-1-1.9a140.72,140.72,0,0,0-19.44-27.22,145.43,145.43,0,0,0-98.87-46.58c-40.83-2.05-80.7,13.65-114.66,35.22-16.18,10.28-31.45,22.54-43.2,37.82-11.85,15.44-19.23,33.7-22.7,52.79-5.76,31.7-.92,63.47,7.48,94.23.11.41.21.81.33,1.22.34-.17.68-.35,1-.56-.12-.4-.23-.8-.34-1.21-6.94-25.33-11.41-51.23-9.39-77.6,1.47-19.25,6.37-38.39,15.92-55.25s23.55-30.61,39-42C279,91.54,317.79,73.89,357.44,71.41A144.48,144.48,0,0,1,461,106.91a139.57,139.57,0,0,1,30.69,38.74c-1.95,8.42-3.9,16.83-5.64,25.27-.7,3.42-1,7.5,2.26,9.72,2.92,2,7,1.05,10,0,2.75-1,5.48-2,8.15-3.18s5.17-2.32,7.69-3.6,5-2.65,7.43-4.1,4.72-2.94,7-4.55l.33-.24c8.29-6,15.47-13.89,19.12-23.54a35.88,35.88,0,0,0,2.36-13.64c-.18-6.41-2-12.64-2.34-19a58.16,58.16,0,0,1,8.5-33c6.13-10.15,15-17.41,25-23.61,9.32-5.82,19.21-11,27-18.93A58.27,58.27,0,0,0,624,3.84Z"/><path class="cls-5" d="M500.81,178c-2.49,1.07-5.08,2.19-7.85,2.29-5.31.19-6.37-4.24-5.56-8.63,1.49-8,3.37-16.07,5.28-24.07a144.57,144.57,0,0,1,11.32,29Z"/><path class="cls-5" d="M332,335.75l1.37,0c8.66-.31,18.49.39,26.45-3.67,5.63-2.87,9.89-8.46,9.44-15-.06-.79-1.27-.63-1.21.16.65,9.18-8.19,14.64-16.15,16.08a110.15,110.15,0,0,1-17.84,1.28l-2.91,0c-1.72,0-3.44.06-5.13.13l-53.42,1.9c-.79,0-.63,1.23.16,1.21l56.13-2Z"/><path class="cls-5" d="M450.69,284.28,475,263.17c.6-.52-.14-1.49-.73-1L448.6,284.48l-2,1.72-14.11,12.26-10,8.66c-3.36,2.93-6.78,6.12-11,7.77-3.66,1.44-8.39,1.67-11.65-.89-2.4-1.87-3.29-5.09-6.34-6.15-.75-.25-1.23.87-.48,1.14,3.3,1.12,4.42,5.32,7.6,6.93a13.16,13.16,0,0,0,8.57.95c8-1.66,14.44-9.14,20.35-14.28q9.53-8.26,19-16.55Z"/><path class="cls-5" d="M362.42,378.09h0a20.06,20.06,0,0,0-8-11.22,30.12,30.12,0,0,0-12-4.69c-.38-.08-.76-.14-1.15-.2a67.21,67.21,0,0,0-14.08-.43c-15.15.89-29.08,6.8-39.06,17.6-.31.32-.61.65-.89,1a53.1,53.1,0,0,0-5.81,8A51.5,51.5,0,0,0,274.05,412c-.26,6.71,1.42,15,7.23,19.13,6.86,4.93,16,1.28,22.42-2.67,8.62-5.33,15.63-12.88,25.05-16.93a48.05,48.05,0,0,1,18.07-3.86c4.51-.07,9.71.78,13.77-1.73,3.64-2.24,4.7-6.34,4.69-10.37a90.25,90.25,0,0,0-1.4-13.36A10.58,10.58,0,0,1,362.42,378.09Z"/><path class="cls-5" d="M288.8,381.18c-.08-.19-.16-.37-.23-.57a51.52,51.52,0,0,1,24.08-15.31,65.78,65.78,0,0,1,27.79-2.07"/><path class="cls-5" d="M347.78,365.07c6.63,2.6,12.64,7.87,13.75,14.67a14.27,14.27,0,0,1,1.25,5l0-.21c.31,2.36.62,4.73.88,7.09.55,4.91.67,11-4.49,13.59-3.45,1.7-7.71,1.16-11.41,1.16a49.72,49.72,0,0,0-12.55,1.56c-7.61,2-14.13,5.85-20.32,10.61-6.38,4.89-12.67,10.51-20.55,12.79-4.69,1.36-9.79,1.25-13.51-2.25-3-2.8-4.47-7-5.12-10.9-1.17-7.2.39-14.88,3-21.59a53.14,53.14,0,0,1,9-15c.15.36.31.71.47,1.05"/><path class="cls-5" d="M490,308.29c-16.61-4.45-33.82-.14-48.11,10.32-2.07,1.51-4.16,3.13-6.16,4.89"/><path class="cls-5" d="M432,327c-.51.54-1,1.09-1.5,1.65-.28.34-.57.68-.85,1a30.32,30.32,0,0,0-5.58,10.11,19.42,19.42,0,0,0,.51,13,.75.75,0,0,1,.07.12,39,39,0,0,1,1.72,4.72A82,82,0,0,0,433.17,368c2.46,3,5.78,5.37,10,4.73,4.65-.71,8.16-4.63,11.68-7.44a49.84,49.84,0,0,1,16.31-8.6c9.75-3,19.77-1.8,29.68-3.31,7.35-1.12,16.65-4.22,18.95-12.23,1.94-6.78-1.79-14-6.1-18.79a47.86,47.86,0,0,0-19.76-12.89"/><path class="cls-5" d="M495.79,311.63a46.94,46.94,0,0,1,4.82,2.27c6.12,3.33,12,8.05,15.5,14.14,1.92,3.35,3.29,7.37,2.7,11.34-.73,5-4.6,8.27-9.06,10.25-7.47,3.3-15.77,3.11-23.68,3.52-7.68.39-15.07,1.64-22.16,5a51.9,51.9,0,0,0-10.65,6.8c-2.86,2.36-5.8,5.46-9.51,6.37-5.56,1.38-9.19-3.26-11.76-7.25-1.25-1.92-2.45-3.87-3.66-5.83l.1.08c-.3-.43-.58-.9-.83-1.33a14.74,14.74,0,0,1-1.29-2.75,5.63,5.63,0,0,1-.74-2,2,2,0,0,1,0-.24c-2.52-6.72.25-15.33,4.92-21.18a.53.53,0,0,1,.1-.12c.37.38.73.76,1.12,1.1"/></g></g></svg>