<svg xmlns="http://www.w3.org/2000/svg" viewBox="0 0 569.45 525.06"><defs><style>.cls-1{fill:#b48f5b;}.cls-2{fill:#ffdda7;}.cls-3{fill:#ffaea8;}.cls-4{fill:#faf1e4;}.cls-5{fill:#6a9270;}.cls-6{fill:#fdd621;}.cls-7{fill:none;stroke:#000;stroke-miterlimit:10;stroke-width:0.75px;}</style></defs><title>Asset 4</title><g id="Layer_2" data-name="Layer 2"><g id="Layer_24" data-name="Layer 24"><path d="M569,255.46c1.57,28.71-13.54,55.7-28.1,79.34C526.58,358,510,380.06,489.65,398.24A187.83,187.83,0,0,1,456.28,422c-11.06,6.22-22.55,11.71-33.5,18.14,0-.47.06-.92.08-1.38,11.51-6.7,23.59-12.4,35.15-19.05a188.48,188.48,0,0,0,35.83-26.87c19.6-18.66,35.5-40.89,49.35-64.06,14.65-24.52,29.5-53.7,23.32-83.13-3.11-14.87-11.74-27.78-19.59-40.51-8-13-16.18-26-25.16-38.38-15.24-21-33.09-39.84-51.81-57.72a150.17,150.17,0,0,1-5.55,28.23c-3.68,12.29-9.19,25-19.51,33.14-10.08,8-23.83,10-36.15,7a175.15,175.15,0,0,1,24.76,52.78c9.48,35.05,5.91,74-14,104.85-17.24,26.74-47,45.22-78.84,46.66a111.36,111.36,0,0,1-36.59,54.67c12.45,4.16,21,13.17,27.17,24,.19.33.39.68.58,1a111.76,111.76,0,0,1,7.2,16.1c9-7.5,19.38-13.42,29.4-19.26Q395,442.67,422.61,429c.41-.2.81.22.78.62-.17,3-.34,6.07-.53,9.11-.4.23-.8.46-1.19.7.17-3,.35-5.95.52-8.92q-27,13.41-53.09,28.58C359,465,348.45,471,339.41,478.6l-.92.8q-.19-.58-.42-1.17a110.57,110.57,0,0,0-7.13-16.12c-15.65,13.94-31.63,27.66-49.62,38.52a161.11,161.11,0,0,1-56.56,20.91c-20.65,3.51-41.72,3.64-62.58,2.51-10.76-.59-21.52-1.54-32.26-2.57-10.47-1-21.14-1.66-31.35-4.29-8.71-2.23-17-6.13-23.06-12.88a29.47,29.47,0,0,1-7.88-17.8,60.43,60.43,0,0,1-41-18.61C13.15,453.68,8.2,433.6,8.18,414.48a176.21,176.21,0,0,1,3.35-32.21C13.35,372.6,15.85,363,20,354a67.79,67.79,0,0,1,10.41-16c-8.87-14.15-12-31.39-15.23-47.61-4.36-21.61-9.08-43.2-13.06-64.9-1.8-9.85-2.83-20-.05-29.8,2.6-9.16,7.79-17.37,13.18-25.14a208.49,208.49,0,0,1,78.81-67.74c-.17-.35-.34-.7-.49-1.05a56.76,56.76,0,0,1-7.6,2.2c-9.11,2-20.25,2.93-27.12-4.67-6.2-6.87-6.31-17-1.86-24.81,4.61-8.09,12.91-12.71,21.76-14.69Q76,48.58,74.22,37.17c-.06-.48-.13-1-.2-1.44l-.21-1.44c.35-.33.69-.67,1-1h0a74.42,74.42,0,0,1,7.79-6.51c6.84-4.94,14.49-8.76,21.92-12.73a280.53,280.53,0,0,1,26.72-12.9h0c.65-.28,1.3-.53,2-.78h0l2,.45C161,7,183.6,22.38,203.71,39.75c2.57-.75,5.14-1.43,7.74-2.06A181,181,0,0,1,336.74,53.5h0c6.28-4.79,14-8.06,21.24-10.68,15.76-5.71,31.6-11.19,47.4-16.77l23.25-8.22c5.58-2,13.68-6.58,19.33-2.58,4.68,3.33,7.16,10.47,9.4,15.48A150.6,150.6,0,0,1,465,52.06a156.05,156.05,0,0,1,5.67,42.23c0,4.43-.22,8.87-.62,13.29,22,21,42.64,43.43,59.8,68.76,8.78,13,17.1,26.32,25.12,39.79C562.26,228.31,568.18,241.1,569,255.46ZM469,106.56a154.75,154.75,0,0,0-6.17-57.86,149.38,149.38,0,0,0-7-18.43c-2.44-5.36-5.59-14.9-12.5-15.45-4-.33-8.5,2-12.2,3.33l-10.56,3.73-21.2,7.5c-13.68,4.83-27.38,9.57-41,14.51-7.08,2.57-14.49,5.63-20.56,10.19-.33.25-.67.51-1,.77A31.85,31.85,0,0,0,327,67.42c-2.66,6.23-2.77,13.42,1.05,19.18,3.44,5.21,9.3,8.68,15.64,7.68a.58.58,0,0,1,.16,1.14c-6.18,1-12-2-15.78-6.81a20.34,20.34,0,0,1-3.36-18.08,30.81,30.81,0,0,1,11-16.25A179.28,179.28,0,0,0,272.48,35.1a176.47,176.47,0,0,0-67.56,5.7l-1.29.37A175,175,0,0,0,145.33,71a180.62,180.62,0,0,0-42.28,46.8c-.24.37-.47.75-.7,1.12,0,0,0,0,0,0a188.38,188.38,0,0,0-14.78,30.36c-1.11,2.82-2.19,5.66-3.27,8.49,6-1.48,12.57-.79,18.84.83,9.44,2.43,20.72,5.29,27.78,12.44,7.43,7.51,9.25,18.91,10.71,28.92a172,172,0,0,1,1.74,28l-1.17.58A171.3,171.3,0,0,0,140.3,199c-1.49-9.85-3.42-21.1-11.22-28.11-3.6-3.25-8.1-5.28-12.62-6.93a140.62,140.62,0,0,0-15-4.59c-6.12-1.44-12.23-1.76-17.76-.14-.49.13-1,.28-1.42.45v0A23.08,23.08,0,0,0,72.07,167c-5.79,7-8,15.86-9.53,24.65-.08.45-.16.92-.23,1.37-.18,1.07-.37,2.14-.54,3.2a.45.45,0,0,1-.19.32.57.57,0,0,1-1-.47c.14-.82.28-1.64.42-2.48l.07-.41a.54.54,0,0,0-.29.41s0,.09,0,.12c-11.46,5.66-19.35,18-19,31,.7,23.36,25.24,39,23.72,62.9-.77,12.43-7.81,23.22-11.21,35-.13.43-.25.87-.36,1.3-.25.91-.47,1.83-.65,2.76a57.5,57.5,0,0,0,5.11,37.26A7.91,7.91,0,0,1,59,362c.06-.12.12-.25.19-.37h0a47.14,47.14,0,0,1,14.26-31.93c4.76-4.68,9.63-8.95,12.7-15s4.55-12.72,6.06-19.27c2.25-9.87,5.23-19.21,10-28.05h0a15.78,15.78,0,0,0,2.68-3.06.61.61,0,0,0-.37-.94,94.15,94.15,0,0,1,11.35-14.87A92.54,92.54,0,0,0,101,240.23a11.17,11.17,0,0,0,.17-1.18,94.8,94.8,0,0,1,15.5,8.54c.35-.37.71-.74,1.09-1.11a0,0,0,0,1,0,0c.41.61,1.34-.09.92-.7a1,1,0,0,0-.12-.16,94.33,94.33,0,0,1,7.07-6.34c-.13.6-.27,1.19-.42,1.78a.28.28,0,0,0,0,.08l-.67.56a91.13,91.13,0,0,0-6.93,6.55c-.27.27-.54.55-.79.84a92.36,92.36,0,0,0-14,19.48c-5.68,10.59-8,21.79-11,33.32a58.22,58.22,0,0,1-6,15.73C82.54,323,77.69,327,73.32,331.4a45.52,45.52,0,0,0-12.89,28.39c3.84-4.06,11.77-3.26,16.73-3.61l54.82-4q11.67-.84,23.33-1.67c6.36-.44,12.86-1.13,19.22-.28,5.32.72,10.58,2.7,14.17,6.86a22.37,22.37,0,0,1,4.94,15.09c-.15,6.77-2.92,13.21-6.27,19-1.66,2.85-4,6.42-7.25,7.57a5.79,5.79,0,0,1-2.23.39,6.91,6.91,0,0,1-2-.34c-4.83-1.59-3.78-7.14-2.53-10.85,1.43-4.22,1.7-8.21-2-11.32a12.82,12.82,0,0,0-9.69-2.66c-15.62,1.62-20.76,19.87-29.87,29.79-5.38,5.85-13.18,9.67-20.39,8.15-6.29,16.48-3.23,34.43,5.69,49,.21.35.43.7.66,1a65.53,65.53,0,0,0,10.57,12.75A76.73,76.73,0,0,0,138.94,483c.46.3.92.6,1.4.89,13.49,8.37,29.3,12.73,45.17,14.09,19.73,1.67,41.57.3,59.78-8.12a53.6,53.6,0,0,0,22-17.93c5.88-8.52,8.93-18.62,10.85-28.69a215.79,215.79,0,0,0,3.84-31.63c.43-11.1-1.81-23.09-10.87-30.44a.59.59,0,0,1-.2-.32.7.7,0,0,1,.08.1.6.6,0,0,0,1-.54c.31.26.62.52.9.78l-.17,0a.58.58,0,0,0,.15,1.15c.37-.05.73-.1,1.1-.13,7.59,7.69,9.54,19,9.12,29.53a190,190,0,0,1-5.35,38.56c-2.48,9.79-6.45,19.36-13.22,27C258.15,484.51,249.84,489.6,241,493a107.07,107.07,0,0,1-29.29,6.16,149.28,149.28,0,0,1-35.34-1.06,98.46,98.46,0,0,1-37.61-13.8l-1.47-.95a75,75,0,0,1-16-14.31,61.6,61.6,0,0,1-4.36-5.94,60.63,60.63,0,0,1-18.57,16c-.33.2-.65.37-1,.54a58.05,58.05,0,0,1-25.26,6.95c-1.11.05-2.21.05-3.31,0,.54,9,6.17,17,13.44,22.22,9.36,6.76,21.27,8.73,32.49,10,39.77,4.51,81.51,8.68,120.89-.61,19.76-4.66,38-13.25,54.69-24.68,14.2-9.71,27.24-21,40.06-32.41-6.26-10.93-14.89-20-27.68-24a.58.58,0,0,1-.12-1,110.24,110.24,0,0,0,31-39.07l.07.05a.58.58,0,0,0,.72-.9l-.29-.23a110.69,110.69,0,0,0,5.39-14.21c.11-.38.23-.77.35-1.16l1.2-.06a95.69,95.69,0,0,0,47.18-15.61c29.95-19.5,46.67-53.51,49-88.65,2.35-35.5-10.13-70.37-30.14-99.31h0c-12.66-3.59-23.28-12.19-31.13-22.58a.58.58,0,0,1,.92-.69c7.41,9.79,17.42,18,29.17,21.76.59.19,1.18.36,1.77.52a42.46,42.46,0,0,0,4.79,1c14.6,2.34,29.13-2.64,38.39-14.31,8-10,12.06-22.93,14.87-35.26A147.8,147.8,0,0,0,468.9,108c.05-.48.09-1,.13-1.44ZM192.42,373.36c.48-6.33-1.47-13.05-6.39-17.29-4.27-3.68-10.08-4.78-15.56-5-6.28-.27-12.62.44-18.88.88q-10.31.72-20.61,1.48l-41.11,3c-7,.51-14,.95-21,1.53-3.28.28-6.94,1.05-8.53,3.95a46.51,46.51,0,0,0,.13,5,.62.62,0,0,1-.1.41.37.37,0,0,0,0,.11.49.49,0,0,1,.32.35c0,.13.07.26.1.39s0,0,0,0c.09.34.17.66.24,1s.11.53.16.8.12.69.18,1c.65,4.24.68,8.67,2.61,12.53a9.57,9.57,0,0,0,3.36,3.9,4,4,0,0,0,1.86.8,4.48,4.48,0,0,0,3.42-2.42c.56-1.58.09-4-.08-5.66-.12-1.13-.31-2.24-.54-3.35l-.21-.93a.66.66,0,0,1,0-.14.38.38,0,0,1,0-.16h0c.3-.05.59-.11.89-.19a34.22,34.22,0,0,0,4.58-1.65c4.78-2,8.89-.91,12.13,3.15,8,10,6.34,27.2,19.52,33.16.57.25,1.13.47,1.7.66a.6.6,0,0,1,1,.27c11.8,3,21.26-9.72,26.81-18.47,5.44-8.6,12.31-18.77,23.5-19.72a13.57,13.57,0,0,1,11.35,4.13c3.14,3.52,2.51,7.36,1.12,11.49-1.27,3.75-2,10.2,4.14,9.48,3.23-.38,5.28-3.13,6.88-5.67C189,386.56,191.92,380.09,192.42,373.36Zm10-333.23c-11.35-9.79-23.35-18.87-36.53-26.05A125.5,125.5,0,0,0,133.28,1.59a268.57,268.57,0,0,0-27.36,13c-7.5,4-15.25,7.86-22.19,12.81a72.82,72.82,0,0,0-8.68,7.27,235,235,0,0,0,4.86,24.82c.1.37.19.75.29,1.12q1.68,6.56,3.75,13c.1.37.23.73.35,1.1Q86.46,81.48,89,88.07c-.37.12-.73.25-1.1.35C86.19,84,84.6,79.51,83.14,75c-4.22.89-8.64,2.44-10.19,6.84-2.55,7.25,5.81,8.31,10.76,7.57a28.76,28.76,0,0,0,4.23-1c.13.37.28.76.43,1.13a27.11,27.11,0,0,1-8,1.29c-5.06.06-10.11-2.8-8.78-8.54C72.85,77,77.92,75,82.79,73.9Q81.3,69.24,80,64.51c-.33-1.2-.65-2.42-1-3.62C69.66,63,60.78,68.25,56.81,77.42c-3.46,8-1.84,18.34,5.67,23.52,7.94,5.48,19.46,3.27,28.06.63.87-.26,1.72-.55,2.58-.88a11,11,0,0,0,1.09-.4c7-2.79,13.42-7.29,17.3-13.91,4.51-7.73,4.46-17.7-1.58-24.61A.52.52,0,0,1,110,61c-4.27.11-8.47,3.73-10.8,7.41a13.4,13.4,0,0,1-1.53,15.11,19,19,0,0,1-8.19,5.63c-.15-.37-.3-.72-.44-1.09a17.68,17.68,0,0,0,7.71-5.25c3-3.7,4-8.95,1.78-13.23-.22.42-.41.85-.58,1.27-.27.69-1.34.24-1.06-.45,2.24-5.73,9.62-12.47,16.31-10,.69.26.24,1.32-.46,1.07A7,7,0,0,0,110.8,61a.1.1,0,0,1,.06,0c7,8,6.18,19.78.17,28.15-4.09,5.69-9.94,9.57-16.36,12.09.15.31.29.63.45,1s.31.68.49,1q3.17,6.76,6.8,13.32c1.28-2.06,2.62-4.08,4-6.08C129.33,77.17,163.65,51.74,202.44,40.13ZM97.92,478a59.94,59.94,0,0,0,18.34-16c-9.3-14.94-12.34-33.65-6-50.39a16.23,16.23,0,0,1-7-4.24c-4.5-4.48-6.71-10.49-8.71-16.39s-4.5-16.33-11.9-17.19c-3.41-.41-6.29,1.94-9.48,2.78.74,3.24,1.8,8.65.08,11.37-1.24,2-3.85,1.83-5.72.94-6.94-3.3-6.21-12.74-7.53-19.29v0A7.45,7.45,0,0,1,59,368a7.87,7.87,0,0,1-.41-1.15c-.05-.16-.09-.35-.13-.52a58.73,58.73,0,0,1-5.77-42.16,47,47,0,0,0-20.81,13.92,11.06,11.06,0,0,0-.79.9,73.8,73.8,0,0,0-13.41,23.88,154.4,154.4,0,0,0-6.41,27.86c-.25,1.69-.49,3.39-.69,5.08v0a.12.12,0,0,0,0,.1s0,.07,0,.1a134.46,134.46,0,0,0-1,26.07c1.29,18.11,7.75,36.43,21.72,48.65a59.58,59.58,0,0,0,36.29,14.56l1.13,0a55.5,55.5,0,0,0,9.79-.66,57.67,57.67,0,0,0,18.38-6.22C97.25,478.35,97.58,478.16,97.92,478Zm3.79-360.23q-3.81-6.85-7.14-13.93a206.72,206.72,0,0,0-81.31,71.75C7.75,184,2.91,193.07,1.79,203.2.6,214,3.14,224.8,5.27,235.31Q11.48,266.15,17.71,297c2.82,13.79,6.11,28.07,13.53,40.1A48.89,48.89,0,0,1,53,322.91c3.68-13.53,12.72-26.17,11.29-40.7-1.25-12.72-9.51-23.32-15.64-34.07-5.75-10.07-10-21.19-6.87-32.86a35.62,35.62,0,0,1,19.46-23.12c1.85-10.55,4.56-21.42,12.7-28.89a23,23,0,0,1,8.91-5.1c2-5.06,3.86-10.14,5.93-15.15A177.21,177.21,0,0,1,101.71,117.75Z"/><path class="cls-1" d="M566.51,245.63c6.18,29.43-8.67,58.61-23.32,83.13-13.85,23.17-29.75,45.4-49.35,64.06A188.48,188.48,0,0,1,458,419.69c-11.56,6.65-23.64,12.35-35.15,19.05.19-3,.36-6.07.53-9.11,0-.4-.37-.82-.78-.62q-27.6,13.65-54.2,29.17c-10,5.84-20.44,11.76-29.4,19.26a111.76,111.76,0,0,0-7.2-16.1c-.19-.35-.39-.7-.58-1-6.21-10.79-14.72-19.8-27.17-24a111.36,111.36,0,0,0,36.59-54.67c31.87-1.44,61.6-19.92,78.84-46.66,19.92-30.9,23.49-69.8,14-104.85a175.15,175.15,0,0,0-24.76-52.78c12.32,3,26.07,1,36.15-7,10.32-8.17,15.83-20.85,19.51-33.14A150.17,150.17,0,0,0,470,109c18.72,17.88,36.57,36.74,51.81,57.72,9,12.38,17.13,25.37,25.16,38.38C554.77,217.85,563.4,230.76,566.51,245.63Z"/><path class="cls-2" d="M469.43,87.37a153.65,153.65,0,0,1-.4,19.19h0c0,.48-.08,1-.13,1.44a147.8,147.8,0,0,1-3.09,19.4c-2.81,12.33-6.89,25.22-14.87,35.26-9.26,11.67-23.79,16.65-38.39,14.31a42.46,42.46,0,0,1-4.79-1c-.59-.16-1.18-.33-1.77-.52-11.75-3.72-21.76-12-29.17-21.76a.58.58,0,0,0-.92.69c7.85,10.39,18.47,19,31.13,22.58h0c20,28.94,32.49,63.81,30.14,99.31-2.33,35.14-19.05,69.15-49,88.65A95.69,95.69,0,0,1,341,380.51l-1.2.06c-.12.39-.24.78-.35,1.16a110.69,110.69,0,0,1-5.39,14.21c-17-13.83-39.88-17.31-61.19-14.72-.28-.26-.59-.52-.9-.78l-.1-.16C260,366.22,241.06,363.83,223.71,364a34.84,34.84,0,0,0,1.54-21.85c-.19-.72-1.27-.27-1.07.44a33.65,33.65,0,0,1-1.77,21.6.31.31,0,0,0-.06.13,47.06,47.06,0,0,1-7.74,12.51c-7.86,9.2-18.35,15.6-28.61,21.81a9.53,9.53,0,0,1-5.88.17c3.21-1.15,5.59-4.72,7.25-7.57,3.35-5.79,6.12-12.23,6.27-19a22.37,22.37,0,0,0-4.94-15.09c-3.59-4.16-8.85-6.14-14.17-6.86-6.36-.85-12.86-.16-19.22.28q-11.67.81-23.33,1.67l-54.82,4c-5,.35-12.89-.45-16.73,3.61A45.52,45.52,0,0,1,73.32,331.4C77.69,327,82.54,323,85.8,317.64a58.22,58.22,0,0,0,6-15.73c2.92-11.53,5.28-22.73,11-33.32a92.36,92.36,0,0,1,14-19.48c.25-.29.52-.57.79-.84a91.13,91.13,0,0,1,6.93-6.55l.67-.56c.49-.41,1-.8,1.46-1.19h0a91.6,91.6,0,0,1,15.45-10.06l1.18-.59a90.27,90.27,0,0,1,14.62-5.76c.7-.21.26-1.28-.44-1.07A89.89,89.89,0,0,0,143.36,228a172,172,0,0,0-1.74-28c-1.46-10-3.28-21.41-10.71-28.92-7.06-7.15-18.34-10-27.78-12.44-6.27-1.62-12.83-2.31-18.84-.83,1.08-2.83,2.16-5.67,3.27-8.49a188.38,188.38,0,0,1,14.78-30.36s0,0,0,0c.23-.37.46-.75.7-1.12A180.62,180.62,0,0,1,145.33,71a175,175,0,0,1,58.3-29.82l1.29-.37a176.47,176.47,0,0,1,67.56-5.7,179.28,179.28,0,0,1,63.29,19.18,30.81,30.81,0,0,0-11,16.25,20.34,20.34,0,0,0,3.36,18.08c3.78,4.83,9.6,7.79,15.78,6.81a.58.58,0,0,0-.16-1.14c-6.34,1-12.2-2.47-15.64-7.68-3.82-5.76-3.71-12.95-1.05-19.18a31.85,31.85,0,0,1,9.85-12.57c.32-.26.66-.52,1-.77,6.07-4.56,13.48-7.62,20.56-10.19,13.64-4.94,27.34-9.68,41-14.51l21.2-7.5,10.56-3.73c3.7-1.31,8.19-3.66,12.2-3.33,6.91.55,10.06,10.09,12.5,15.45a149.38,149.38,0,0,1,7,18.43A154.37,154.37,0,0,1,469.43,87.37ZM410.49,139.6C431.2,120.52,440.05,90.71,432,63.13c-1.63-5.52-4.73-12.13-11.67-9.85-3.71,1.23-7.18,3.83-10.4,6q-5.29,3.53-10.25,7.46a116.14,116.14,0,0,0-18.09,17.23c-4.33,5.34-7.46,11.87-5.76,18.87,4.25,17.4,27.09,20.79,33.36,36.46a76.17,76.17,0,0,1-7.87,6.18c-.61.41.08,1.34.7.92a72.25,72.25,0,0,0,7.59-5.94,20.81,20.81,0,0,1,.75,2.82c.14.73,1.29.58,1.15-.15A22.18,22.18,0,0,0,410.49,139.6Zm-72.67,97.63c3.12-18.89,6.08-38.69-.09-57.27-5.22-15.71-16.61-27.93-32.85-32.18-17-4.43-35.91-1.36-52.69,2.65-8.6,2.06-17.12,5.06-24.28,10.35A50.44,50.44,0,0,0,212.64,180c-9.56,20.28-7.13,43.23-4.65,64.79a.51.51,0,0,0,.17.35.44.44,0,0,0,0,.52A90.58,90.58,0,0,0,237,277a.62.62,0,0,0,.77-.07c9.55,13.63,24.08,23.56,41.48,23.16a37.68,37.68,0,0,0,30.95-17.2,57,57,0,0,0,7-15.33,23.57,23.57,0,0,0,5.85-1.79c3.28-1.27,6.55-2.86,8.89-5.59,4.58-5.36,3.79-12.92,5.2-19.55a0,0,0,0,1,0,0,.52.52,0,0,0,.16-.72,20.38,20.38,0,0,1,.62-2.1A.61.61,0,0,0,337.82,237.23ZM207.44,316.62C205,301.9,213,287.68,210,272.94c-2.63-13-11.43-23.74-19.72-33.67-.48-.57-1.42.11-.93.69,8.52,10.21,17.76,21.37,19.83,35,2.15,14.12-5.25,27.72-2.91,41.84C206.41,317.5,207.57,317.35,207.44,316.62Z"/><path d="M432,63.13c8.1,27.58-.75,57.39-21.46,76.47a22.18,22.18,0,0,1,1,3.5c.14.73-1,.88-1.15.15a20.81,20.81,0,0,0-.75-2.82,72.25,72.25,0,0,1-7.59,5.94c-.62.42-1.31-.51-.7-.92a76.17,76.17,0,0,0,7.87-6.18c-6.27-15.67-29.11-19.06-33.36-36.46-1.7-7,1.43-13.53,5.76-18.87a116.14,116.14,0,0,1,18.09-17.23q5-3.94,10.25-7.46c3.22-2.14,6.69-4.74,10.4-6C427.22,51,430.32,57.61,432,63.13Zm-2.1,45.17c5.18-15,5.58-32.47.15-47.49-1.82-5-5-8.32-10.61-5.94-3.52,1.5-6.92,4-10.08,6.16a147.38,147.38,0,0,0-17.45,13.88c-5.45,5-11.66,10.74-14.31,17.86-3,8,.81,15.87,6.59,21.5,8.37,8.14,21.14,13.17,25.9,24.19A74.14,74.14,0,0,0,429.85,108.3Z"/><path class="cls-3" d="M430,60.81c5.43,15,5,32.48-.15,47.49A74.14,74.14,0,0,1,410,138.46c-4.76-11-17.53-16.05-25.9-24.19-5.78-5.63-9.56-13.47-6.59-21.5,2.65-7.12,8.86-12.81,14.31-17.86A147.38,147.38,0,0,1,409.31,61c3.16-2.15,6.56-4.66,10.08-6.16C425,52.49,428.18,55.8,430,60.81Z"/><path d="M337.73,180c6.17,18.58,3.21,38.38.09,57.27a.55.55,0,0,0-1,.1c-.18.48-.33,1-.47,1.48,0,0,0-.06,0-.1,3.46-20.72,7-42.87-1.44-62.89a47.08,47.08,0,0,0-14.68-19.51c-6.71-5.07-14.82-7.77-23.1-8.83a99.25,99.25,0,0,0-25.48.57,157.28,157.28,0,0,0-25.36,5.16c-8.59,2.62-16.77,6.69-23.09,13.2a55.56,55.56,0,0,0-12.4,21.21c-6.12,18.39-3.86,38.12-1.7,57a.58.58,0,0,1-.09.38.67.67,0,0,0-.88.12.51.51,0,0,1-.17-.35c-2.48-21.56-4.91-44.51,4.65-64.79a50.44,50.44,0,0,1,15.27-19.18c7.16-5.29,15.68-8.29,24.28-10.35,16.78-4,35.72-7.08,52.69-2.65C321.12,152,332.51,164.25,337.73,180Z"/><path class="cls-4" d="M337.82,237.23a.61.61,0,0,1,.08.55,20.38,20.38,0,0,0-.62,2.1.55.55,0,0,0-.58-.32l-.55.08c.07-.27.14-.55.22-.82a.59.59,0,0,0,1.17,0Z"/><path d="M337.82,237.23l-.28,1.63a.59.59,0,0,1-1.17,0h0c.14-.5.29-1,.47-1.48A.55.55,0,0,1,337.82,237.23Z"/><path d="M337.28,239.88a.52.52,0,0,1-.16.72,0,0,0,0,0,0,0C337.17,240.37,337.22,240.12,337.28,239.88Z"/><path d="M337.28,239.88c-.06.24-.11.49-.17.73l-1.32.8c.11-.59.22-1.18.36-1.77l.55-.08A.55.55,0,0,1,337.28,239.88Z"/><path class="cls-1" d="M335.79,241.41l1.32-.8c-1.41,6.63-.62,14.19-5.2,19.55-2.34,2.73-5.61,4.32-8.89,5.59a23.57,23.57,0,0,1-5.85,1.79c.12-.4.24-.81.35-1.21a27,27,0,0,0,7.58-2.71c3.54-1.66,6.51-4,8-7.71C335,251.33,334.93,246.25,335.79,241.41Z"/><path class="cls-1" d="M334.94,175.82c8.46,20,4.9,42.17,1.44,62.89,0,0,0,.06,0,.1h0c-.08.27-.15.55-.22.82a144.61,144.61,0,0,1-15.35,1.64,109.89,109.89,0,0,0-8.38-45.1,13.23,13.23,0,0,1-1.3-3v0s0,0,0,0q-.09-.31-.15-.63c-.44-.84-.87-1.71-1.37-2.53-.23-.5-.47-1-.73-1.47l-.41-.54c-.14-.24-.26-.49-.37-.73a40.57,40.57,0,0,0-9.82-7.7c-10.18-5.71-22.46-6.81-33.86-5.16-5.95.87-12,2.45-17,5.84-4.9,3.27-8.54,8.07-11.55,13.07A79.87,79.87,0,0,0,227,253l-.11.06c-.64.36-.23,1.41.4,1.09.22.84.45,1.69.71,2.52.11.39.23.79.36,1.18.44,1.38.91,2.74,1.43,4.09a69.74,69.74,0,0,0,6.9,13.45,89.36,89.36,0,0,1-27.51-30.19.38.38,0,0,1-.08-.59c-2.16-18.86-4.42-38.59,1.7-57a55.56,55.56,0,0,1,12.4-21.21c6.32-6.51,14.5-10.58,23.09-13.2a157.28,157.28,0,0,1,25.36-5.16,99.25,99.25,0,0,1,25.48-.57c8.28,1.06,16.39,3.76,23.1,8.83A47.08,47.08,0,0,1,334.94,175.82Z"/><path d="M336.15,239.64c-.14.59-.25,1.18-.36,1.77-5.09,3.12-10.21,6.23-15.31,9.34,0-.2,0-.39,0-.59s0-.5,0-.75q6.78-4.12,13.54-8.27c-4.37.64-8.8,1-13.25,1.29l0-1.15A144.61,144.61,0,0,0,336.15,239.64Z"/><path class="cls-1" d="M320.48,250.75c5.1-3.11,10.22-6.22,15.31-9.34-.86,4.84-.77,9.92-2.65,14.5-1.53,3.7-4.5,6-8,7.71a27,27,0,0,1-7.58,2.71,111.83,111.83,0,0,0,2.8-13.88v-.11a2,2,0,0,1,0-.35c0-.12,0-.22,0-.34a4,4,0,0,1,.09-.48v0s0,0,0,0S320.48,250.87,320.48,250.75Z"/><path d="M334.35,396.17a.58.58,0,0,1-.72.9l-.07-.05c.16-.36.34-.72.5-1.08Z"/><path class="cls-4" d="M334.06,395.94c-.16.36-.34.72-.5,1.08C317,383.45,294.78,379.9,274,382.26c-.35-.35-.71-.69-1.08-1C294.18,378.63,317,382.11,334.06,395.94Z"/><path d="M334,241.14q-6.76,4.16-13.54,8.27v-.57a4.15,4.15,0,0,1,0-.49c0-.62,0-1.23,0-1.84v0a.88.88,0,0,1,0-.16.19.19,0,0,1,0-.07,1.34,1.34,0,0,0,0-.2.28.28,0,0,0,.05-.16c.08-1.14.14-2.3.18-3.44C325.21,242.17,329.64,241.78,334,241.14Z"/><path class="cls-4" d="M333.56,397a110.24,110.24,0,0,1-31,39.07.58.58,0,0,0,.12,1c12.79,4,21.42,13.05,27.68,24-12.82,11.45-25.86,22.7-40.06,32.41-16.72,11.43-34.93,20-54.69,24.68-39.38,9.29-81.12,5.12-120.89.61-11.22-1.27-23.13-3.24-32.49-10-7.27-5.21-12.9-13.26-13.44-22.22,1.1,0,2.2,0,3.31,0a58.05,58.05,0,0,0,25.26-6.95c.12.24.25.47.37.69,2.64,4.45,7.59,4.8,12.29,4.77,7.28-.06,14.57-.11,21.85-.25a47.3,47.3,0,0,0,6.84-.53,98.46,98.46,0,0,0,37.61,13.8,149.28,149.28,0,0,0,35.34,1.06A107.07,107.07,0,0,0,241,493c8.89-3.36,17.2-8.45,23.55-15.61,6.77-7.64,10.74-17.21,13.22-27a190,190,0,0,0,5.35-38.56c.42-10.57-1.53-21.84-9.12-29.53C294.78,379.9,317,383.45,333.56,397Z"/><path d="M312.42,196.18a109.89,109.89,0,0,1,8.38,45.1c-.39,0-.77,0-1.16.06a108.51,108.51,0,0,0-11.85-52.4,44,44,0,0,1,3.33,4.24A13.23,13.23,0,0,0,312.42,196.18Z"/><path d="M320.8,241.28l0,1.15-1.15,0,0-1.14C320,241.32,320.41,241.29,320.8,241.28Z"/><path d="M319.61,242.48l1.15,0c0,1.14-.1,2.3-.18,3.44a.28.28,0,0,1-.05.16.17.17,0,0,1,0,.1.42.42,0,0,0,0,.1v.28c0,.61,0,1.22,0,1.84a4.15,4.15,0,0,0,0,.49.71.71,0,0,0,0,.14c0,.15,0,.29,0,.44l-.84.52-.1.07v0h-.07a198.8,198.8,0,0,0-25.25-3.13,15.61,15.61,0,0,1-31.21.51c-11.77,1-23.92,3.25-33.59,9.78a72.67,72.67,0,0,0,4.22,10.6c9.74,19.65,30.08,35.15,52.93,30.34,11.78-2.48,20.62-10.73,25.85-21.33,4-8.18,5.84-17.12,7.05-26.12a.61.61,0,0,0,.86.25l.17-.11c0,.13,0,.26,0,.38v0a4,4,0,0,0-.09.48c0,.12,0,.22,0,.34a2,2,0,0,0,0,.35v.11a111.83,111.83,0,0,1-2.8,13.88l-.53.06a.34.34,0,0,1,0,.1,1.71,1.71,0,0,1-.41,1.11,3.94,3.94,0,0,0,.58-.06,57,57,0,0,1-7,15.33,37.68,37.68,0,0,1-30.95,17.2c-17.4.4-31.93-9.53-41.48-23.16a.51.51,0,0,0,0-.83c-.33-.23-.67-.45-1-.7a69.74,69.74,0,0,1-6.9-13.45c-.52-1.35-1-2.71-1.43-4.09-.13-.39-.25-.79-.36-1.18-.26-.83-.49-1.68-.71-2.52h0l1-.55c.2.81.42,1.6.65,2.4,9.81-6.54,22.1-8.73,33.93-9.76l1.15-.09c2.43-.2,4.83-.35,7.19-.49a196.54,196.54,0,0,1,21.71,0l1.17,0a200.61,200.61,0,0,1,25.25,3.12c0-1,0-2,0-3a.78.78,0,0,1,.05-.28C319.51,244.53,319.57,243.5,319.61,242.48ZM293,246.77a194.12,194.12,0,0,0-20.47,0c-2.75.14-5.59.3-8.44.52a14.46,14.46,0,0,0,28.91-.48Z"/><path d="M320.54,246.23a.19.19,0,0,0,0,.07.88.88,0,0,0,0,.16Z"/><path d="M320.53,246a1.34,1.34,0,0,1,0,.2.42.42,0,0,1,0-.1A.17.17,0,0,0,320.53,246Z"/><path d="M320.48,250.75c0,.12,0,.22,0,.34s0,0,0,0,0-.25,0-.38Z"/><path d="M320.47,250.16c0,.2,0,.39,0,.59h0a6,6,0,0,1,0-.6c0-.24,0-.5,0-.74h0C320.47,249.66,320.46,249.91,320.47,250.16Z"/><path d="M320.47,248.84v.57h0c0-.15,0-.29,0-.44A.71.71,0,0,1,320.47,248.84Z"/><path d="M320.46,250.16a6,6,0,0,0,0,.6l-.17.11a.61.61,0,0,1-.86-.25s0-.08,0-.11v0a3.71,3.71,0,0,0,.06-.45l.1-.07.84-.52C320.45,249.66,320.45,249.92,320.46,250.16Z"/><path class="cls-4" d="M307.79,188.94a108.51,108.51,0,0,1,11.85,52.4c-30.93,1.59-63.31-3.75-91.55,11.1a79.34,79.34,0,0,1,4.61-50.7c5-11.05,12.15-21,24.26-24.61,11-3.26,23.78-3.29,34.64.64A39.43,39.43,0,0,1,307.79,188.94Z"/><path d="M319.64,241.34l0,1.14c-30.86,1.55-63.12-3.74-91.23,11.1-.11-.38-.2-.76-.29-1.14C256.33,237.59,288.71,242.93,319.64,241.34Z"/><path d="M319.61,242.48c0,1-.1,2.05-.17,3.07a.78.78,0,0,0-.05.28c0,1,0,2,0,3a200.61,200.61,0,0,0-25.25-3.12l-1.17,0a196.54,196.54,0,0,0-21.71,0c-2.36.14-4.76.29-7.19.49l-1.15.09c-11.83,1-24.12,3.22-33.93,9.76-.23-.8-.45-1.59-.65-2.4C256.49,238.74,288.75,244,319.61,242.48Z"/><path d="M319.51,250v0l-.07.07V250Z"/><path d="M319.51,250a3.71,3.71,0,0,1-.06.45c0-.12,0-.25,0-.38Z"/><path d="M319.45,250.46v0s0,.08,0,.11a.48.48,0,0,1,0-.54C319.44,250.21,319.44,250.34,319.45,250.46Z"/><path d="M317.52,266.33c-.11.4-.23.81-.35,1.21a3.94,3.94,0,0,1-.58.06,1.71,1.71,0,0,0,.41-1.11.34.34,0,0,0,0-.1Z"/><path d="M311.12,193.16v0a44,44,0,0,0-3.33-4.24c-.55-1.1-1.13-2.18-1.73-3.26.6.61,1.22,1.2,1.85,1.78.13.12.27.22.4.32l.14.19c.25.51.55,1,.85,1.51a4.29,4.29,0,0,1,.29.5c.53,1,1,2.09,1.52,3.16C311.11,193.15,311.12,193.15,311.12,193.16Z"/><path d="M311,192.51q.06.31.15.63c-.48-1.07-1-2.12-1.52-3.16C310.09,190.8,310.52,191.67,311,192.51Z"/><path d="M308.86,188.51c.26.49.5,1,.73,1.47a4.29,4.29,0,0,0-.29-.5c-.3-.49-.6-1-.85-1.51Z"/><path d="M308.45,188l-.14-.19c-.13-.1-.27-.2-.4-.32-.63-.58-1.25-1.17-1.85-1.78.6,1.08,1.18,2.16,1.73,3.26a39.43,39.43,0,0,0-16.19-11.17c-10.86-3.93-23.61-3.9-34.64-.64-12.11,3.57-19.29,13.56-24.26,24.61a79.34,79.34,0,0,0-4.61,50.7c-.36.17-.71.36-1.06.55a79.87,79.87,0,0,1,8.8-59.7c3-5,6.65-9.8,11.55-13.07,5.05-3.39,11.07-5,17-5.84,11.4-1.65,23.68-.55,33.86,5.16a40.57,40.57,0,0,1,9.82,7.7C308.19,187.48,308.31,187.73,308.45,188Z"/><path class="cls-5" d="M272.55,246.73a194.12,194.12,0,0,1,20.47,0,14.46,14.46,0,0,1-28.91.48C267,247,269.8,246.87,272.55,246.73Z"/><path class="cls-4" d="M271.06,381.2c9.06,7.35,11.3,19.34,10.87,30.44a215.79,215.79,0,0,1-3.84,31.63c-1.92,10.07-5,20.17-10.85,28.69a53.6,53.6,0,0,1-22,17.93c-18.21,8.42-40,9.79-59.78,8.12-15.87-1.36-31.68-5.72-45.17-14.09-.48-.29-.94-.59-1.4-.89a76.73,76.73,0,0,1-10.65-8.29A65.53,65.53,0,0,1,117.72,462c-.23-.34-.45-.69-.66-1-8.92-14.6-12-32.55-5.69-49,7.21,1.52,15-2.3,20.39-8.15,9.11-9.92,14.25-28.17,29.87-29.79a12.82,12.82,0,0,1,9.69,2.66c3.7,3.11,3.43,7.1,2,11.32-1.25,3.71-2.3,9.26,2.53,10.85a6.91,6.91,0,0,0,2,.34,10.59,10.59,0,0,0,9.54,0c.74-.37,4.53-2.88,4.62-2.94,1.48-.91,3-1.85,4.42-2.8,2.93-1.91,5.8-3.9,8.56-6a76.37,76.37,0,0,0,7.79-6.93,56.58,56.58,0,0,0,4.48-5.18,47,47,0,0,0,5.95-10.2c17-.19,35.89,2,47.61,15.78A.59.59,0,0,0,271.06,381.2Z"/><path d="M274,382.26c-.37,0-.73.08-1.1.13a.58.58,0,0,1-.15-1.15l.17,0C273.24,381.57,273.6,381.91,274,382.26Z"/><path d="M272,380.44a.6.6,0,0,1-1,.54.7.7,0,0,0-.08-.1.59.59,0,0,1,.92-.6Z"/><path class="cls-4" d="M271.87,380.28l.1.16-.19-.16a.59.59,0,0,0-.92.6c-11.72-13.78-30.57-16-47.61-15.78.16-.38.31-.77.46-1.15C241.06,363.83,260,366.22,271.87,380.28Z"/><path d="M237.73,276.08a.51.51,0,0,1,0,.83q-.54-.75-1.05-1.53C237.06,275.63,237.4,275.85,237.73,276.08Z"/><path class="cls-1" d="M237.77,276.91a.62.62,0,0,1-.77.07,90.58,90.58,0,0,1-28.86-31.36.44.44,0,0,1,0-.52A.61.61,0,0,0,209,245a.58.58,0,0,1,.17.21,89.36,89.36,0,0,0,27.51,30.19Q237.23,276.16,237.77,276.91Z"/><path d="M228.38,253.58l-1,.55h0c-.1-.38-.21-.76-.29-1.15.35-.19.7-.38,1.06-.55C228.18,252.82,228.27,253.2,228.38,253.58Z"/><path d="M227,253c.08.39.19.77.29,1.15-.63.32-1-.73-.4-1.09Z"/><path d="M225.25,342.1A34.84,34.84,0,0,1,223.71,364h-.9a.47.47,0,0,0-.4.19,33.65,33.65,0,0,0,1.77-21.6C224,341.83,225.06,341.38,225.25,342.1Z"/><path d="M223.71,364c-.15.38-.3.77-.46,1.15H223a.64.64,0,0,1-.6-.83.31.31,0,0,1,.06-.13.47.47,0,0,1,.4-.19Z"/><path d="M223,365.1h.3a47,47,0,0,1-5.95,10.2,56.58,56.58,0,0,1-4.48,5.18,76.37,76.37,0,0,1-7.79,6.93c-2.76,2.13-5.63,4.12-8.56,6-1.46.95-2.94,1.89-4.42,2.8-.09.06-3.88,2.57-4.62,2.94a10.59,10.59,0,0,1-9.54,0,5.79,5.79,0,0,0,2.23-.39,9.53,9.53,0,0,0,5.88-.17c10.26-6.21,20.75-12.61,28.61-21.81a47.06,47.06,0,0,0,7.74-12.51A.64.64,0,0,0,223,365.1Z"/><path d="M210,272.94c3,14.74-5,29-2.59,43.68.13.73-1,.88-1.14.14-2.34-14.12,5.06-27.72,2.91-41.84-2.07-13.59-11.31-24.75-19.83-35-.49-.58.45-1.26.93-.69C198.6,249.2,207.4,259.92,210,272.94Z"/><path d="M208.16,245.1A.67.67,0,0,1,209,245,.61.61,0,0,1,208.16,245.1Z"/><path class="cls-3" d="M186,356.07c4.92,4.24,6.87,11,6.39,17.29-.5,6.73-3.44,13.2-7,18.86-1.6,2.54-3.65,5.29-6.88,5.67-6.14.72-5.41-5.73-4.14-9.48,1.39-4.13,2-8-1.12-11.49a13.57,13.57,0,0,0-11.35-4.13c-11.19.95-18.06,11.12-23.5,19.72-5.55,8.75-15,21.5-26.81,18.47a.6.6,0,0,0-1-.27c-.57-.19-1.13-.41-1.7-.66-13.18-6-11.54-23.18-19.52-33.16-3.24-4.06-7.35-5.11-12.13-3.15a34.22,34.22,0,0,1-4.58,1.65.6.6,0,0,0-.89.19h0a.38.38,0,0,0,0,.16.66.66,0,0,0,0,.14l.21.93c.23,1.11.42,2.22.54,3.35.17,1.63.64,4.08.08,5.66a4.48,4.48,0,0,1-3.42,2.42,4,4,0,0,1-1.86-.8,9.57,9.57,0,0,1-3.36-3.9c-1.93-3.86-2-8.29-2.61-12.53q-.09-.54-.18-1c-.05-.27-.1-.54-.16-.8s-.15-.66-.24-1c0,0,0,0,0,0s-.07-.26-.1-.39a.49.49,0,0,0-.32-.35.37.37,0,0,1,0-.11.62.62,0,0,0,.1-.41,46.51,46.51,0,0,1-.13-5c1.59-2.9,5.25-3.67,8.53-3.95,7-.58,14-1,21-1.53l41.11-3q10.31-.75,20.61-1.48c6.26-.44,12.6-1.15,18.88-.88C176,351.29,181.76,352.39,186,356.07Z"/><path class="cls-2" d="M165.91,14.08c13.18,7.18,25.18,16.26,36.53,26.05-38.79,11.61-73.11,37-96,70.42-1.38,2-2.72,4-4,6.08q-3.63-6.55-6.8-13.32c-.18-.35-.34-.68-.49-1s-.3-.65-.45-1c6.42-2.52,12.27-6.4,16.36-12.09,6-8.37,6.87-20.11-.17-28.15a.1.1,0,0,0-.06,0,7,7,0,0,1,1.94.43c.7.25,1.15-.81.46-1.07-6.69-2.45-14.07,4.29-16.31,10-.28.69.79,1.14,1.06.45.17-.42.36-.85.58-1.27,2.22,4.28,1.23,9.53-1.78,13.23A17.68,17.68,0,0,1,89,88.07q-2.57-6.6-4.74-13.31c-.12-.37-.25-.73-.35-1.1q-2.07-6.45-3.75-13c-.1-.37-.19-.75-.29-1.12a235,235,0,0,1-4.86-24.82,72.82,72.82,0,0,1,8.68-7.27c6.94-5,14.69-8.79,22.19-12.81a268.57,268.57,0,0,1,27.36-13A125.5,125.5,0,0,1,165.91,14.08Z"/><path d="M157.5,222.48c.7-.21,1.14.86.44,1.07a90.27,90.27,0,0,0-14.62,5.76l-1.18.59A91.6,91.6,0,0,0,126.69,240c.13-.58.24-1.17.35-1.76h0a93.33,93.33,0,0,1,15.14-9.61h0l1.17-.58A89.89,89.89,0,0,1,157.5,222.48Z"/><path class="cls-1" d="M140.3,199a171.3,171.3,0,0,1,1.89,29.57h0a93.33,93.33,0,0,0-15.14,9.61,50.89,50.89,0,0,0-7-36.28C112.78,190.44,99,180,84.66,183.1c-13.73,3-21.16,17-22.68,29.89a75.85,75.85,0,0,0-.27,13.65l-1.81,0c-.59-10,.38-20.31,1.68-30.12a.45.45,0,0,0,.19-.32c.17-1.06.36-2.13.54-3.2.07-.45.15-.92.23-1.37,1.57-8.79,3.74-17.66,9.53-24.65a23.08,23.08,0,0,1,10.23-7.25v0c.47-.17.93-.32,1.42-.45,5.53-1.62,11.64-1.3,17.76.14a140.62,140.62,0,0,1,15,4.59c4.52,1.65,9,3.68,12.62,6.93C136.88,177.91,138.81,189.16,140.3,199Z"/><path d="M137.24,483.31l1.47.95a47.3,47.3,0,0,1-6.84.53c-7.28.14-14.57.19-21.85.25-4.7,0-9.65-.32-12.29-4.77-.12-.22-.25-.45-.37-.69.34-.17.66-.34,1-.54a8.22,8.22,0,0,0,2.55,3.08c4.32,3.11,11.69,1.74,16.71,1.68,5.28-.05,10.56,0,15.83-.2C134.72,483.55,136,483.47,137.24,483.31Z"/><path class="cls-3" d="M137.24,483.31c-1.25.16-2.52.24-3.8.29-5.27.19-10.55.15-15.83.2-5,.06-12.39,1.43-16.71-1.68A8.22,8.22,0,0,1,98.35,479a60.63,60.63,0,0,0,18.57-16,61.6,61.6,0,0,0,4.36,5.94A75,75,0,0,0,137.24,483.31Z"/><path d="M120,201.92a50.89,50.89,0,0,1,7,36.28h0l-1.39,1.1a49.67,49.67,0,0,0-8-38.84c-7.56-10.66-21.54-20.18-35.09-15.59-13.1,4.44-18.9,18.7-19.72,31.44a85.1,85.1,0,0,0,0,10.35l-1.14,0A75.85,75.85,0,0,1,62,213c1.52-12.9,9-26.89,22.68-29.89C99,180,112.78,190.44,120,201.92Z"/><path d="M127,238.2c-.11.59-.22,1.18-.35,1.76h0c-.5.39-1,.78-1.46,1.19a.28.28,0,0,1,0-.08c.15-.59.29-1.18.42-1.78Z"/><path class="cls-4" d="M117.66,200.46a49.67,49.67,0,0,1,8,38.84,94.33,94.33,0,0,0-7.07,6.34c-6.16-8.86-18.8-12.32-28.64-15a120.17,120.17,0,0,0-27.09-4,85.1,85.1,0,0,1,0-10.35c.82-12.74,6.62-27,19.72-31.44C96.12,180.28,110.1,189.8,117.66,200.46Z"/><path d="M118.7,245.8c.42.61-.51,1.31-.92.7a0,0,0,0,0,0,0l.82-.84A1,1,0,0,1,118.7,245.8Z"/><path d="M118.58,245.64l-.82.84c-3.11-4.54-7.8-7.26-12.76-9.4a114.62,114.62,0,0,0-16.84-5.69,118.15,118.15,0,0,0-25.23-3.56c0-.39-.06-.77-.08-1.17a120.17,120.17,0,0,1,27.09,4C99.78,233.32,112.42,236.78,118.58,245.64Z"/><path d="M117.76,246.48c-.38.37-.74.74-1.09,1.11a94.8,94.8,0,0,0-15.5-8.54l-1.11-.48a94.82,94.82,0,0,0-19.63-5.82l-1.12-.2a94.43,94.43,0,0,0-14.85-1.32H63.22c-.12-1.12-.21-2.26-.29-3.39a118.15,118.15,0,0,1,25.23,3.56A114.62,114.62,0,0,1,105,237.08C110,239.22,114.65,241.94,117.76,246.48Z"/><path class="cls-6" d="M109.93,61.77c6,6.91,6.09,16.88,1.58,24.61-3.88,6.62-10.28,11.12-17.3,13.91a11,11,0,0,1-1.09.4c-.86.33-1.71.62-2.58.88-8.6,2.64-20.12,4.85-28.06-.63C55,95.76,53.35,85.41,56.81,77.42c4-9.17,12.85-14.44,22.25-16.53.3,1.2.62,2.42,1,3.62q1.29,4.72,2.78,9.39C77.92,75,72.85,77,71.61,82.3c-1.33,5.74,3.72,8.6,8.78,8.54a27.11,27.11,0,0,0,8-1.29q.57-.18,1.11-.39a19,19,0,0,0,8.19-5.63A13.4,13.4,0,0,0,99.2,68.42c2.33-3.68,6.53-7.3,10.8-7.41A.52.52,0,0,0,109.93,61.77Z"/><path class="cls-4" d="M116.26,462a59.94,59.94,0,0,1-18.34,16c-.34.18-.67.37-1,.54a57.67,57.67,0,0,1-18.38,6.22,55.5,55.5,0,0,1-9.79.66l-1.13,0a59.58,59.58,0,0,1-36.29-14.56c-14-12.22-20.43-30.54-21.72-48.65a134.46,134.46,0,0,1,1-26.07c0,.59.89.9,1.09.25,2.9-9.72,8.61-17.63,17.8-22.24S49,368.59,59,368a7.45,7.45,0,0,0,1,1.56v0c1.32,6.55.59,16,7.53,19.29,1.87.89,4.48,1,5.72-.94,1.72-2.72.66-8.13-.08-11.37,3.19-.84,6.07-3.19,9.48-2.78,7.4.86,10,11.43,11.9,17.19s4.21,11.91,8.71,16.39a16.23,16.23,0,0,0,7,4.24C103.92,428.38,107,447.09,116.26,462Z"/><path d="M104.51,263.31a.61.61,0,0,1,.37.94,15.78,15.78,0,0,1-2.68,3.06c.67-1.24,1.39-2.47,2.13-3.7C104.38,263.51,104.45,263.41,104.51,263.31Z"/><path d="M104.51,263.31c-.06.1-.13.2-.18.3-.74,1.23-1.46,2.46-2.13,3.7h0a18.79,18.79,0,0,1-14.11,4.41c-6.07-.54-11.41-4-15.38-8.51a.52.52,0,0,0,.09-.77,49.61,49.61,0,0,1-6-8.92h0a62.86,62.86,0,0,1-3.83-15c-.24-1.7-.47-3.41-.66-5.12a6.11,6.11,0,0,0,1.12-.32c.23,2.12.52,4.23.85,6.32,1.11,7.21,3,14.46,7.27,20.49,3.74,5.32,9.31,9.76,15.91,10.63,6.34.83,12.92-1.57,16.53-7A.48.48,0,0,1,104.51,263.31Z"/><path d="M100.06,238.57l1.11.48a11.17,11.17,0,0,1-.17,1.18c-1.39,6.61-8.26,11.09-15,8.61-6.9-2.55-8.16-9-7-15.16a89.43,89.43,0,0,0-14.35-1.29.57.57,0,0,1,.13-.08c.5-.35.11-1-.39-1v0a94.43,94.43,0,0,1,14.85,1.32l1.12.2A94.82,94.82,0,0,1,100.06,238.57Zm-14.28,8.91c6.25,2.84,12.9-1.4,14.12-7.71a93.08,93.08,0,0,0-19.72-5.9C79.09,239.27,80,244.85,85.78,247.48Z"/><path class="cls-2" d="M102.2,267.32c-4.77,8.84-7.75,18.18-10,28.05-1.51,6.55-3,13.24-6.06,19.27s-7.94,10.33-12.7,15a47.14,47.14,0,0,0-14.26,31.93h0c-.07.12-.13.25-.19.37a7.91,7.91,0,0,0-.54,1.89,57.5,57.5,0,0,1-5.11-37.26c.18-.93.4-1.85.65-2.76.11-.43.23-.87.36-1.3,3.4-11.78,10.44-22.57,11.21-35,1.52-23.94-23-39.54-23.72-62.9-.38-12.94,7.51-25.3,19-31-1.49,10.65-2.71,22-2.06,32.94-2,0-4.12,0-6.16.15a.59.59,0,0,0-.4.92c1.92,2.24,4.41,4.72,7.2,5.53,1.44,10.82,5.09,21.13,12.49,29.94a.58.58,0,0,0,.83.07c4,4.52,9.31,8,15.38,8.51A18.79,18.79,0,0,0,102.2,267.32Z"/><path class="cls-1" d="M94.57,103.82q3.33,7.07,7.14,13.93A177.21,177.21,0,0,0,88.82,143c-2.07,5-4,10.09-5.93,15.15a23,23,0,0,0-8.91,5.1c-8.14,7.47-10.85,18.34-12.7,28.89a35.62,35.62,0,0,0-19.46,23.12c-3.13,11.67,1.12,22.79,6.87,32.86,6.13,10.75,14.39,21.35,15.64,34.07,1.43,14.53-7.61,27.17-11.29,40.7a48.89,48.89,0,0,0-21.8,14.18c-7.42-12-10.71-26.31-13.53-40.1q-6.29-30.83-12.44-61.68C3.14,224.8.6,214,1.79,203.2c1.12-10.13,6-19.23,11.47-27.63a206.72,206.72,0,0,1,81.31-71.75Z"/><path class="cls-5" d="M99.9,239.77c-1.22,6.31-7.87,10.55-14.12,7.71-5.81-2.63-6.69-8.21-5.6-13.61A93.08,93.08,0,0,1,99.9,239.77Z"/><path d="M89,88.07c.14.37.29.72.44,1.09q-.54.21-1.11.39c-.15-.37-.3-.76-.43-1.13C88.31,88.32,88.67,88.19,89,88.07Z"/><path d="M72.8,262.45a.52.52,0,0,1-.09.77,34,34,0,0,1-2.35-3,36,36,0,0,1-3.56-6.67A49.61,49.61,0,0,0,72.8,262.45Z"/><path d="M71.83,375.58a.6.6,0,0,1,.89-.19C72.42,375.47,72.13,375.53,71.83,375.58Z"/><path class="cls-1" d="M72.71,263.22a.58.58,0,0,1-.83-.07c-7.4-8.81-11-19.12-12.49-29.94a7.93,7.93,0,0,0,1.18.23,60.25,60.25,0,0,0,6.22,20.08h0a36,36,0,0,0,3.56,6.67A34,34,0,0,0,72.71,263.22Z"/><path d="M64.46,231.27c.5,0,.89.69.39,1a.57.57,0,0,0-.13.08H63.34c0,.22,0,.45.08.67a6.11,6.11,0,0,1-1.12.32c0-.32-.08-.66-.11-1a.41.41,0,0,1,0-.15,5.69,5.69,0,0,0,2-.87A.59.59,0,0,1,64.46,231.27Z"/><path d="M63.34,232.38h1.38a7.58,7.58,0,0,1-1.3.66C63.39,232.83,63.37,232.6,63.34,232.38Z"/><path d="M64.46,231.23v0a.59.59,0,0,0-.31.1,5.69,5.69,0,0,1-2,.87c0-.34-.06-.67-.1-1-.12-1.14-.21-2.29-.29-3.43l1.15,0c.08,1.13.17,2.27.29,3.39Z"/><path class="cls-1" d="M63,238.49a62.86,62.86,0,0,0,3.83,15,60.25,60.25,0,0,1-6.22-20.08,5.59,5.59,0,0,0,1.73-.07C62.49,235.08,62.72,236.79,63,238.49Z"/><path d="M62.85,226.66c0,.4,0,.78.08,1.17l-1.15,0c0-.39-.06-.77-.07-1.16Z"/><path d="M62.19,232.39c0,.32.07.66.11,1a5.59,5.59,0,0,1-1.73.07c0-.34-.1-.68-.14-1a.61.61,0,0,1,0-.14,4.7,4.7,0,0,0,1.75,0A.41.41,0,0,0,62.19,232.39Z"/><path d="M62.07,231.23c0,.34.06.67.1,1a4.7,4.7,0,0,1-1.75,0c-.06-.33-.1-.67-.13-1-.13-1.17-.24-2.34-.31-3.51q.9,0,1.8,0C61.86,228.94,62,230.09,62.07,231.23Z"/><path d="M61.71,226.64c0,.39,0,.77.07,1.16q-.9,0-1.8,0c0-.38-.06-.76-.08-1.15Z"/><path class="cls-1" d="M60.62,196a.57.57,0,0,0,1,.47c-1.3,9.81-2.27,20.1-1.68,30.12H58.75c-.65-11,.57-22.29,2.06-32.94l.23-.12C60.9,194.39,60.76,195.21,60.62,196Z"/><path d="M61.11,193.14l-.07.41-.23.12s0-.08,0-.12A.54.54,0,0,1,61.11,193.14Z"/><path d="M60.43,232.42c0,.34.09.68.14,1a7.93,7.93,0,0,1-1.18-.23c0-.24-.07-.5-.11-.74s0-.33-.05-.49a5.46,5.46,0,0,0,1.19.3A.61.61,0,0,0,60.43,232.42Z"/><path d="M60.29,231.28c0,.33.07.67.13,1a5.46,5.46,0,0,1-1.19-.3c0-.22-.06-.44-.09-.66-.12-1.18-.24-2.37-.32-3.56H60C60.05,228.94,60.16,230.11,60.29,231.28Z"/><path d="M59.9,226.62c0,.39,0,.77.08,1.15H58.82c0-.38-.06-.76-.07-1.15Z"/><path d="M59.28,232.47c0,.24.06.5.11.74-2.79-.81-5.28-3.29-7.2-5.53a.59.59,0,0,1,.4-.92c2-.11,4.11-.15,6.16-.15,0,.39,0,.77.07,1.15-1.64,0-3.28,0-4.93.11A14.6,14.6,0,0,0,59.23,232C59.24,232.14,59.26,232.31,59.28,232.47Z"/><path d="M59.14,231.32c0,.22,0,.44.09.66a14.6,14.6,0,0,1-5.34-4.11c1.65-.07,3.29-.11,4.93-.11C58.9,229,59,230.14,59.14,231.32Z"/><path class="cls-4" d="M58.6,366.89A7.87,7.87,0,0,0,59,368c-10.06.55-20.41,1.48-29.57,6.06s-14.9,12.52-17.8,22.24c-.2.65-1.08.34-1.09-.25,0,0,0-.07,0-.1a.7.7,0,0,0,0-.12v0c2.8-9.35,8.16-17.16,16.79-22C36.91,368.58,47.92,367.5,58.6,366.89Z"/><path class="cls-2" d="M58.47,366.37c0,.17.08.36.13.52-10.68.61-21.69,1.69-31.22,7-8.63,4.8-14,12.61-16.79,22,.2-1.69.44-3.39.69-5.08a154.4,154.4,0,0,1,6.41-27.86A73.8,73.8,0,0,1,31.1,339a11.06,11.06,0,0,1,.79-.9A47,47,0,0,1,52.7,324.21,58.73,58.73,0,0,0,58.47,366.37Z"/><path d="M10.59,395.87a.7.7,0,0,1,0,.12.12.12,0,0,1,0-.1Z"/><path class="cls-7" d="M333.56,397l.07.05a.58.58,0,0,0,.72-.9l-.29-.23c-17-13.83-39.88-17.31-61.19-14.72l-.17,0a.58.58,0,0,0,.15,1.15c.37-.05.73-.1,1.1-.13C294.78,379.9,317,383.45,333.56,397Z"/><path class="cls-7" d="M237.77,276.91a.51.51,0,0,0,0-.83c-.33-.23-.67-.45-1-.7a89.36,89.36,0,0,1-27.51-30.19A.58.58,0,0,0,209,245a.67.67,0,0,0-.88.12.44.44,0,0,0,0,.52A90.58,90.58,0,0,0,237,277,.62.62,0,0,0,237.77,276.91Z"/><path class="cls-7" d="M336.37,238.82c-.08.27-.15.55-.22.82-.14.59-.25,1.18-.36,1.77-.86,4.84-.77,9.92-2.65,14.5-1.53,3.7-4.5,6-8,7.71a27,27,0,0,1-7.58,2.71l-.53.06a.34.34,0,0,1,0,.1,1.71,1.71,0,0,1-.41,1.11,3.94,3.94,0,0,0,.58-.06,23.57,23.57,0,0,0,5.85-1.79c3.28-1.27,6.55-2.86,8.89-5.59,4.58-5.36,3.79-12.92,5.2-19.55.06-.24.11-.49.17-.73a20.38,20.38,0,0,1,.62-2.1.61.61,0,0,0-.08-.55.55.55,0,0,0-1,.1c-.18.48-.33,1-.47,1.48"/><path class="cls-7" d="M61.58,196.5c-1.3,9.81-2.27,20.1-1.68,30.12,0,.39,0,.77.08,1.15.07,1.17.18,2.34.31,3.51,0,.33.07.67.13,1a.61.61,0,0,0,0,.14c0,.34.09.68.14,1a60.25,60.25,0,0,0,6.22,20.08"/><path class="cls-7" d="M72.71,263.22a.58.58,0,0,1-.83-.07c-7.4-8.81-11-19.12-12.49-29.94,0-.24-.07-.5-.11-.74s0-.33-.05-.49-.06-.44-.09-.66c-.12-1.18-.24-2.37-.32-3.56,0-.38-.06-.76-.07-1.15-.65-11,.57-22.29,2.06-32.94"/><path class="cls-7" d="M10.59,395.85c2.8-9.35,8.16-17.16,16.79-22,9.53-5.31,20.54-6.39,31.22-7"/><path class="cls-7" d="M59,368c-10.06.55-20.41,1.48-29.57,6.06s-14.9,12.52-17.8,22.24c-.2.65-1.08.34-1.09-.25"/><path class="cls-7" d="M222.41,364.14a.47.47,0,0,1,.4-.19h.9c17.35-.12,36.27,2.27,48.16,16.33l.1.16"/><path class="cls-7" d="M270.86,380.88c-11.72-13.78-30.57-16-47.61-15.78H223a.64.64,0,0,1-.6-.83"/><path class="cls-7" d="M308.45,188c-.14-.24-.26-.49-.37-.73a40.57,40.57,0,0,0-9.82-7.7c-10.18-5.71-22.46-6.81-33.86-5.16-5.95.87-12,2.45-17,5.84-4.9,3.27-8.54,8.07-11.55,13.07A79.87,79.87,0,0,0,227,253c.08.39.19.77.29,1.15.22.84.45,1.69.71,2.52.11.39.23.79.36,1.18.44,1.38.91,2.74,1.43,4.09a69.74,69.74,0,0,0,6.9,13.45q.51.78,1.05,1.53c9.55,13.63,24.08,23.56,41.48,23.16a37.68,37.68,0,0,0,30.95-17.2,57,57,0,0,0,7-15.33c.12-.4.24-.81.35-1.21a111.83,111.83,0,0,0,2.8-13.88v-.11a2,2,0,0,1,0-.35c0-.12,0-.22,0-.34a4,4,0,0,1,.09-.48v0"/><path class="cls-7" d="M307.79,188.94a108.51,108.51,0,0,1,11.85,52.4l0,1.14c0,1-.1,2.05-.17,3.07a.78.78,0,0,0-.05.28c0,1,0,2,0,3a200.61,200.61,0,0,0-25.25-3.12l-1.17,0a196.54,196.54,0,0,0-21.71,0c-2.36.14-4.76.29-7.19.49l-1.15.09c-11.83,1-24.12,3.22-33.93,9.76-.23-.8-.45-1.59-.65-2.4-.11-.38-.2-.76-.29-1.14a79.34,79.34,0,0,1,4.61-50.7c5-11.05,12.15-21,24.26-24.61,11-3.26,23.78-3.29,34.64.64a39.43,39.43,0,0,1,16.19,11.17"/><path class="cls-7" d="M320.53,246a.28.28,0,0,0,.05-.16c.08-1.14.14-2.3.18-3.44l0-1.15a109.89,109.89,0,0,0-8.38-45.1,13.23,13.23,0,0,1-1.3-3"/><path class="cls-7" d="M272.55,246.73a194.12,194.12,0,0,1,20.47,0,14.46,14.46,0,0,1-28.91.48C267,247,269.8,246.87,272.55,246.73Z"/><path class="cls-7" d="M319.44,250.62c-1.21,9-3,17.94-7.05,26.12-5.23,10.6-14.07,18.85-25.85,21.33-22.85,4.81-43.19-10.69-52.93-30.34a72.67,72.67,0,0,1-4.22-10.6c9.67-6.53,21.82-8.77,33.59-9.78a15.61,15.61,0,0,0,31.21-.51A198.8,198.8,0,0,1,319.44,250"/><path class="cls-7" d="M308.45,188c.25.51.55,1,.85,1.51a4.29,4.29,0,0,1,.29.5c.5.82.93,1.69,1.37,2.53q.06.31.15.63"/><path class="cls-7" d="M320.54,246.23a.19.19,0,0,0,0,.07.88.88,0,0,0,0,.16Z"/><path class="cls-7" d="M311.11,193.14s0,0,0,0v0a44,44,0,0,0-3.33-4.24c-.55-1.1-1.13-2.18-1.73-3.26.6.61,1.22,1.2,1.85,1.78.13.12.27.22.4.32l.14.19.41.54c.26.49.5,1,.73,1.47C310.12,191,310.63,192.07,311.11,193.14Z"/><path class="cls-7" d="M319.45,250.46c0-.12,0-.25,0-.38V250h.07v0a3.71,3.71,0,0,1-.06.45v0s0,.08,0,.11"/><path class="cls-7" d="M320.54,246.46v0c0,.61,0,1.22,0,1.84a4.15,4.15,0,0,0,0,.49v.57c0,.25,0,.5,0,.75s0,.39,0,.59,0,.22,0,.34,0,0,0,0,0-.25,0-.38a6,6,0,0,1,0-.6c0-.24,0-.5,0-.74s0-.29,0-.44a.71.71,0,0,1,0-.14"/><path class="cls-7" d="M320.54,246.23a.42.42,0,0,1,0-.1.17.17,0,0,0,0-.1A1.34,1.34,0,0,1,320.54,246.23Z"/><path class="cls-7" d="M422.86,438.74c.19-3,.36-6.07.53-9.11,0-.4-.37-.82-.78-.62q-27.6,13.65-54.2,29.17c-10,5.84-20.44,11.76-29.4,19.26a111.76,111.76,0,0,0-7.2-16.1c-.19-.35-.39-.7-.58-1-6.21-10.79-14.72-19.8-27.17-24a111.36,111.36,0,0,0,36.59-54.67c31.87-1.44,61.6-19.92,78.84-46.66,19.92-30.9,23.49-69.8,14-104.85a175.15,175.15,0,0,0-24.76-52.78c12.32,3,26.07,1,36.15-7,10.32-8.17,15.83-20.85,19.51-33.14A150.17,150.17,0,0,0,470,109c18.72,17.88,36.57,36.74,51.81,57.72,9,12.38,17.13,25.37,25.16,38.38,7.85,12.73,16.48,25.64,19.59,40.51,6.18,29.43-8.67,58.61-23.32,83.13-13.85,23.17-29.75,45.4-49.35,64.06A188.48,188.48,0,0,1,458,419.69C446.45,426.34,434.37,432,422.86,438.74Z"/><path class="cls-7" d="M422.86,438.74c0,.46,0,.91-.08,1.38,11-6.43,22.44-11.92,33.5-18.14a187.83,187.83,0,0,0,33.37-23.74C510,380.06,526.58,358,540.86,334.8c14.56-23.64,29.67-50.63,28.1-79.34-.78-14.36-6.7-27.15-14-39.33-8-13.47-16.34-26.82-25.12-39.79-17.16-25.33-37.77-47.71-59.8-68.76.4-4.42.61-8.86.62-13.29A156.05,156.05,0,0,0,465,52.06a150.6,150.6,0,0,0-7.67-21.33c-2.24-5-4.72-12.15-9.4-15.48-5.65-4-13.75.61-19.33,2.58l-23.25,8.22c-15.8,5.58-31.64,11.06-47.4,16.77-7.25,2.62-15,5.89-21.24,10.68h0A181,181,0,0,0,211.45,37.69c-2.6.63-5.17,1.31-7.74,2.06C183.6,22.38,161,7,135.21.83l-2-.45h0c-.65.25-1.3.5-2,.78h0a280.53,280.53,0,0,0-26.72,12.9c-7.43,4-15.08,7.79-21.92,12.73a74.42,74.42,0,0,0-7.79,6.51h0c-.35.31-.69.65-1,1L74,35.73c.07.48.14,1,.2,1.44q1.73,11.4,4.55,22.6c-8.85,2-17.15,6.6-21.76,14.69-4.45,7.79-4.34,17.94,1.86,24.81,6.87,7.6,18,6.66,27.12,4.67a56.76,56.76,0,0,0,7.6-2.2c.15.35.32.7.49,1.05a208.49,208.49,0,0,0-78.81,67.74c-5.39,7.77-10.58,16-13.18,25.14-2.78,9.78-1.75,20,.05,29.8,4,21.7,8.7,43.29,13.06,64.9,3.27,16.22,6.36,33.46,15.23,47.61A67.79,67.79,0,0,0,20,354c-4.17,9-6.67,18.57-8.49,28.24a176.21,176.21,0,0,0-3.35,32.21c0,19.12,5,39.2,18.45,53.42a60.43,60.43,0,0,0,41,18.61,29.47,29.47,0,0,0,7.88,17.8c6.09,6.75,14.35,10.65,23.06,12.88,10.21,2.63,20.88,3.27,31.35,4.29,10.74,1,21.5,2,32.26,2.57,20.86,1.13,41.93,1,62.58-2.51a161.11,161.11,0,0,0,56.56-20.91c18-10.86,34-24.58,49.62-38.52a110.57,110.57,0,0,1,7.13,16.12q.23.58.42,1.17l.92-.8c9-7.61,19.57-13.59,29.69-19.5q26-15.19,53.09-28.58c-.17,3-.35,6-.52,8.92C422.06,439.2,422.46,439,422.86,438.74Z"/><path class="cls-7" d="M89,88.07q-2.57-6.6-4.74-13.31c-.12-.37-.25-.73-.35-1.1q-2.07-6.45-3.75-13c-.1-.37-.19-.75-.29-1.12a235,235,0,0,1-4.86-24.82,72.82,72.82,0,0,1,8.68-7.27c6.94-5,14.69-8.79,22.19-12.81a268.57,268.57,0,0,1,27.36-13,125.5,125.5,0,0,1,32.63,12.49c13.18,7.18,25.18,16.26,36.53,26.05-38.79,11.61-73.11,37-96,70.42-1.38,2-2.72,4-4,6.08q-3.63-6.55-6.8-13.32c-.18-.35-.34-.68-.49-1s-.3-.65-.45-1c6.42-2.52,12.27-6.4,16.36-12.09,6-8.37,6.87-20.11-.17-28.15a.1.1,0,0,0-.06,0,7,7,0,0,1,1.94.43c.7.25,1.15-.81.46-1.07-6.69-2.45-14.07,4.29-16.31,10-.28.69.79,1.14,1.06.45.17-.42.36-.85.58-1.27,2.22,4.28,1.23,9.53-1.78,13.23A17.68,17.68,0,0,1,89,88.07Z"/><path class="cls-7" d="M87.94,88.42a28.76,28.76,0,0,1-4.23,1c-4.95.74-13.31-.32-10.76-7.57,1.55-4.4,6-6,10.19-6.84C84.6,79.51,86.19,84,87.94,88.42Z"/><path class="cls-7" d="M89.48,89.16a19,19,0,0,0,8.19-5.63A13.4,13.4,0,0,0,99.2,68.42c2.33-3.68,6.53-7.3,10.8-7.41a.52.52,0,0,0-.07.76c6,6.91,6.09,16.88,1.58,24.61-3.88,6.62-10.28,11.12-17.3,13.91a11,11,0,0,1-1.09.4c-.86.33-1.71.62-2.58.88-8.6,2.64-20.12,4.85-28.06-.63C55,95.76,53.35,85.41,56.81,77.42c4-9.17,12.85-14.44,22.25-16.53.3,1.2.62,2.42,1,3.62q1.29,4.72,2.78,9.39C77.92,75,72.85,77,71.61,82.3c-1.33,5.74,3.72,8.6,8.78,8.54a27.11,27.11,0,0,0,8-1.29"/><path class="cls-7" d="M17.71,297q-6.29-30.83-12.44-61.68C3.14,224.8.6,214,1.79,203.2c1.12-10.13,6-19.23,11.47-27.63a206.72,206.72,0,0,1,81.31-71.75q3.33,7.07,7.14,13.93A177.21,177.21,0,0,0,88.82,143c-2.07,5-4,10.09-5.93,15.15a23,23,0,0,0-8.91,5.1c-8.14,7.47-10.85,18.34-12.7,28.89a35.62,35.62,0,0,0-19.46,23.12c-3.13,11.67,1.12,22.79,6.87,32.86,6.13,10.75,14.39,21.35,15.64,34.07,1.43,14.53-7.61,27.17-11.29,40.7a48.89,48.89,0,0,0-21.8,14.18C23.82,325.06,20.53,310.78,17.71,297Z"/><path class="cls-7" d="M10.59,395.87v0c.2-1.69.44-3.39.69-5.08a154.4,154.4,0,0,1,6.41-27.86A73.8,73.8,0,0,1,31.1,339a11.06,11.06,0,0,1,.79-.9A47,47,0,0,1,52.7,324.21a58.73,58.73,0,0,0,5.77,42.16c0,.17.08.36.13.52A7.87,7.87,0,0,0,59,368a7.45,7.45,0,0,0,1,1.56v0c1.32,6.55.59,16,7.53,19.29,1.87.89,4.48,1,5.72-.94,1.72-2.72.66-8.13-.08-11.37,3.19-.84,6.07-3.19,9.48-2.78,7.4.86,10,11.43,11.9,17.19s4.21,11.91,8.71,16.39a16.23,16.23,0,0,0,7,4.24c-6.32,16.74-3.28,35.45,6,50.39a59.94,59.94,0,0,1-18.34,16c-.34.18-.67.37-1,.54a57.67,57.67,0,0,1-18.38,6.22,55.5,55.5,0,0,1-9.79.66l-1.13,0a59.58,59.58,0,0,1-36.29-14.56c-14-12.22-20.43-30.54-21.72-48.65a134.46,134.46,0,0,1,1-26.07s0-.07,0-.1"/><path class="cls-7" d="M71.83,375.58h0a.38.38,0,0,0,0,.16.66.66,0,0,0,0,.14l.21.93c.23,1.11.42,2.22.54,3.35.17,1.63.64,4.08.08,5.66a4.48,4.48,0,0,1-3.42,2.42,4,4,0,0,1-1.86-.8,9.57,9.57,0,0,1-3.36-3.9c-1.93-3.86-2-8.29-2.61-12.53q-.09-.54-.18-1c-.05-.27-.1-.54-.16-.8s-.15-.66-.24-1c0,0,0,0,0,0s-.07-.26-.1-.39a.49.49,0,0,0-.32-.35.37.37,0,0,1,0-.11.62.62,0,0,0,.1-.41,46.51,46.51,0,0,1-.13-5c1.59-2.9,5.25-3.67,8.53-3.95,7-.58,14-1,21-1.53l41.11-3q10.31-.75,20.61-1.48c6.26-.44,12.6-1.15,18.88-.88,5.48.23,11.29,1.33,15.56,5,4.92,4.24,6.87,11,6.39,17.29-.5,6.73-3.44,13.2-7,18.86-1.6,2.54-3.65,5.29-6.88,5.67-6.14.72-5.41-5.73-4.14-9.48,1.39-4.13,2-8-1.12-11.49a13.57,13.57,0,0,0-11.35-4.13c-11.19.95-18.06,11.12-23.5,19.72-5.55,8.75-15,21.5-26.81,18.47a.6.6,0,0,0-1-.27c-.57-.19-1.13-.41-1.7-.66-13.18-6-11.54-23.18-19.52-33.16-3.24-4.06-7.35-5.11-12.13-3.15a34.22,34.22,0,0,1-4.58,1.65"/><path class="cls-7" d="M61,193.55c-.14.84-.28,1.66-.42,2.48a.57.57,0,0,0,1,.47.45.45,0,0,0,.19-.32c.17-1.06.36-2.13.54-3.2.07-.45.15-.92.23-1.37,1.57-8.79,3.74-17.66,9.53-24.65a23.08,23.08,0,0,1,10.23-7.25v0c.47-.17.93-.32,1.42-.45,5.53-1.62,11.64-1.3,17.76.14a140.62,140.62,0,0,1,15,4.59c4.52,1.65,9,3.68,12.62,6.93,7.8,7,9.73,18.26,11.22,28.11a171.3,171.3,0,0,1,1.89,29.57"/><path class="cls-7" d="M102.2,267.32c-4.77,8.84-7.75,18.18-10,28.05-1.51,6.55-3,13.24-6.06,19.27s-7.94,10.33-12.7,15a47.14,47.14,0,0,0-14.26,31.93h0c-.07.12-.13.25-.19.37a7.91,7.91,0,0,0-.54,1.89,57.5,57.5,0,0,1-5.11-37.26c.18-.93.4-1.85.65-2.76.11-.43.23-.87.36-1.3,3.4-11.78,10.44-22.57,11.21-35,1.52-23.94-23-39.54-23.72-62.9-.38-12.94,7.51-25.3,19-31"/><path class="cls-7" d="M101,240.23a92.54,92.54,0,0,1,14.86,8.21,94.15,94.15,0,0,0-11.35,14.87"/><path class="cls-7" d="M125.65,239.3a94.33,94.33,0,0,0-7.07,6.34l-.82.84c-.38.37-.74.74-1.09,1.11a94.8,94.8,0,0,0-15.5-8.54"/><path class="cls-7" d="M180.12,398.76c3.21-1.15,5.59-4.72,7.25-7.57,3.35-5.79,6.12-12.23,6.27-19a22.37,22.37,0,0,0-4.94-15.09c-3.59-4.16-8.85-6.14-14.17-6.86-6.36-.85-12.86-.16-19.22.28q-11.67.81-23.33,1.67l-54.82,4c-5,.35-12.89-.45-16.73,3.61A45.52,45.52,0,0,1,73.32,331.4C77.69,327,82.54,323,85.8,317.64a58.22,58.22,0,0,0,6-15.73c2.92-11.53,5.28-22.73,11-33.32a92.36,92.36,0,0,1,14-19.48c.25-.29.52-.57.79-.84a91.13,91.13,0,0,1,6.93-6.55l.67-.56"/><path class="cls-7" d="M270.86,380.88a.59.59,0,0,0,.2.32c9.06,7.35,11.3,19.34,10.87,30.44a215.79,215.79,0,0,1-3.84,31.63c-1.92,10.07-5,20.17-10.85,28.69a53.6,53.6,0,0,1-22,17.93c-18.21,8.42-40,9.79-59.78,8.12-15.87-1.36-31.68-5.72-45.17-14.09-.48-.29-.94-.59-1.4-.89a76.73,76.73,0,0,1-10.65-8.29A65.53,65.53,0,0,1,117.72,462c-.23-.34-.45-.69-.66-1-8.92-14.6-12-32.55-5.69-49,7.21,1.52,15-2.3,20.39-8.15,9.11-9.92,14.25-28.17,29.87-29.79a12.82,12.82,0,0,1,9.69,2.66c3.7,3.11,3.43,7.1,2,11.32-1.25,3.71-2.3,9.26,2.53,10.85a6.91,6.91,0,0,0,2,.34"/><path class="cls-7" d="M138.71,484.26a98.46,98.46,0,0,0,37.61,13.8,149.28,149.28,0,0,0,35.34,1.06A107.07,107.07,0,0,0,241,493c8.89-3.36,17.2-8.45,23.55-15.61,6.77-7.64,10.74-17.21,13.22-27a190,190,0,0,0,5.35-38.56c.42-10.57-1.53-21.84-9.12-29.53-.35-.35-.71-.69-1.08-1s-.59-.52-.9-.78"/><path class="cls-7" d="M98.35,479a60.63,60.63,0,0,0,18.57-16,61.6,61.6,0,0,0,4.36,5.94,75,75,0,0,0,16,14.31"/><path class="cls-7" d="M143.36,228a172,172,0,0,0-1.74-28c-1.46-10-3.28-21.41-10.71-28.92-7.06-7.15-18.34-10-27.78-12.44-6.27-1.62-12.83-2.31-18.84-.83,1.08-2.83,2.16-5.67,3.27-8.49a188.38,188.38,0,0,1,14.78-30.36s0,0,0,0c.23-.37.46-.75.7-1.12A180.62,180.62,0,0,1,145.33,71a175,175,0,0,1,58.3-29.82l1.29-.37a176.47,176.47,0,0,1,67.56-5.7,179.28,179.28,0,0,1,63.29,19.18,30.81,30.81,0,0,0-11,16.25,20.34,20.34,0,0,0,3.36,18.08c3.78,4.83,9.6,7.79,15.78,6.81a.58.58,0,0,0-.16-1.14c-6.34,1-12.2-2.47-15.64-7.68-3.82-5.76-3.71-12.95-1.05-19.18a31.85,31.85,0,0,1,9.85-12.57c.32-.26.66-.52,1-.77,6.07-4.56,13.48-7.62,20.56-10.19,13.64-4.94,27.34-9.68,41-14.51l21.2-7.5,10.56-3.73c3.7-1.31,8.19-3.66,12.2-3.33,6.91.55,10.06,10.09,12.5,15.45a149.38,149.38,0,0,1,7,18.43A154.75,154.75,0,0,1,469,106.56h0c0,.48-.08,1-.13,1.44a147.8,147.8,0,0,1-3.09,19.4c-2.81,12.33-6.89,25.22-14.87,35.26-9.26,11.67-23.79,16.65-38.39,14.31a42.46,42.46,0,0,1-4.79-1c-.59-.16-1.18-.33-1.77-.52-11.75-3.72-21.76-12-29.17-21.76a.58.58,0,0,0-.92.69c7.85,10.39,18.47,19,31.13,22.58h0c20,28.94,32.49,63.81,30.14,99.31-2.33,35.14-19.05,69.15-49,88.65A95.69,95.69,0,0,1,341,380.51l-1.2.06c-.12.39-.24.78-.35,1.16a110.69,110.69,0,0,1-5.39,14.21c-.16.36-.34.72-.5,1.08a110.24,110.24,0,0,1-31,39.07.58.58,0,0,0,.12,1c12.79,4,21.42,13.05,27.68,24-12.82,11.45-25.86,22.7-40.06,32.41-16.72,11.43-34.93,20-54.69,24.68-39.38,9.29-81.12,5.12-120.89.61-11.22-1.27-23.13-3.24-32.49-10-7.27-5.21-12.9-13.26-13.44-22.22,1.1,0,2.2,0,3.31,0a58.05,58.05,0,0,0,25.26-6.95"/><path class="cls-7" d="M272,380.44a.6.6,0,0,1-1,.54.7.7,0,0,0-.08-.1.59.59,0,0,1,.92-.6Z"/><path class="cls-7" d="M223.71,364c-.15.38-.3.77-.46,1.15a47,47,0,0,1-5.95,10.2,56.58,56.58,0,0,1-4.48,5.18,76.37,76.37,0,0,1-7.79,6.93c-2.76,2.13-5.63,4.12-8.56,6-1.46.95-2.94,1.89-4.42,2.8-.09.06-3.88,2.57-4.62,2.94a10.59,10.59,0,0,1-9.54,0,5.79,5.79,0,0,0,2.23-.39,9.53,9.53,0,0,0,5.88-.17c10.26-6.21,20.75-12.61,28.61-21.81a47.06,47.06,0,0,0,7.74-12.51.31.31,0,0,1,.06-.13,33.65,33.65,0,0,0,1.77-21.6c-.2-.71.88-1.16,1.07-.44A34.84,34.84,0,0,1,223.71,364Z"/><path class="cls-7" d="M210,272.94c-2.63-13-11.43-23.74-19.72-33.67-.48-.57-1.42.11-.93.69,8.52,10.21,17.76,21.37,19.83,35,2.15,14.12-5.25,27.72-2.91,41.84.11.74,1.27.59,1.14-.14C205,301.9,213,287.68,210,272.94Z"/><path class="cls-7" d="M60.81,193.67s0-.08,0-.12a.54.54,0,0,1,.29-.41l-.07.41Z"/><path class="cls-7" d="M127.05,238.2a93.33,93.33,0,0,1,15.14-9.61h0l1.17-.58a89.89,89.89,0,0,1,14.14-5.52c.7-.21,1.14.86.44,1.07a90.27,90.27,0,0,0-14.62,5.76l-1.18.59A91.6,91.6,0,0,0,126.69,240"/><path class="cls-7" d="M127,238.2c-.11.59-.22,1.18-.35,1.76h0c-.5.39-1,.78-1.46,1.19a.28.28,0,0,1,0-.08c.15-.59.29-1.18.42-1.78"/><path class="cls-7" d="M72.71,263.22a34,34,0,0,1-2.35-3,36,36,0,0,1-3.56-6.67"/><path class="cls-7" d="M104.51,263.31a.61.61,0,0,1,.37.94,15.78,15.78,0,0,1-2.68,3.06"/><path class="cls-7" d="M127.05,238.2a50.89,50.89,0,0,0-7-36.28C112.78,190.44,99,180,84.66,183.1c-13.73,3-21.16,17-22.68,29.89a75.85,75.85,0,0,0-.27,13.65c0,.39,0,.77.07,1.16.08,1.14.17,2.29.29,3.43,0,.34.06.67.1,1a.41.41,0,0,0,0,.15c0,.32.07.66.11,1,.19,1.71.42,3.42.66,5.12a62.86,62.86,0,0,0,3.83,15h0a49.61,49.61,0,0,0,6,8.92.52.52,0,0,1-.09.77c4,4.52,9.31,8,15.38,8.51a18.79,18.79,0,0,0,14.11-4.41h0c.67-1.24,1.39-2.47,2.13-3.7,0-.1.12-.2.18-.3a.48.48,0,0,0-.53.22c-3.61,5.39-10.19,7.79-16.53,7-6.6-.87-12.17-5.31-15.91-10.63-4.24-6-6.16-13.28-7.27-20.49-.33-2.09-.62-4.2-.85-6.32,0-.22-.05-.45-.08-.67h1.38a89.43,89.43,0,0,1,14.35,1.29c-1.19,6.2.07,12.61,7,15.16,6.7,2.48,13.57-2,15-8.61a11.17,11.17,0,0,0,.17-1.18l-1.11-.48a94.82,94.82,0,0,0-19.63-5.82l-1.12-.2a94.43,94.43,0,0,0-14.85-1.32H63.22c-.12-1.12-.21-2.26-.29-3.39,0-.39-.06-.77-.08-1.17a85.1,85.1,0,0,1,0-10.35c.82-12.74,6.62-27,19.72-31.44,13.55-4.59,27.53,4.93,35.09,15.59a49.67,49.67,0,0,1,8,38.84l1.39-1.1Z"/><path class="cls-7" d="M80.18,233.87a93.08,93.08,0,0,1,19.72,5.9c-1.22,6.31-7.87,10.55-14.12,7.71C80,244.85,79.09,239.27,80.18,233.87Z"/><path class="cls-7" d="M10.59,395.87a.7.7,0,0,1,0,.12.12.12,0,0,1,0-.1Z"/><path class="cls-7" d="M432,63.13c-1.63-5.52-4.73-12.13-11.67-9.85-3.71,1.23-7.18,3.83-10.4,6q-5.29,3.53-10.25,7.46a116.14,116.14,0,0,0-18.09,17.23c-4.33,5.34-7.46,11.87-5.76,18.87,4.25,17.4,27.09,20.79,33.36,36.46a76.17,76.17,0,0,1-7.87,6.18c-.61.41.08,1.34.7.92a72.25,72.25,0,0,0,7.59-5.94,20.81,20.81,0,0,1,.75,2.82c.14.73,1.29.58,1.15-.15a22.18,22.18,0,0,0-1-3.5C431.2,120.52,440.05,90.71,432,63.13Z"/><path class="cls-7" d="M410,138.46c-4.76-11-17.53-16.05-25.9-24.19-5.78-5.63-9.56-13.47-6.59-21.5,2.65-7.12,8.86-12.81,14.31-17.86A147.38,147.38,0,0,1,409.31,61c3.16-2.15,6.56-4.66,10.08-6.16,5.58-2.38,8.79.93,10.61,5.94,5.43,15,5,32.48-.15,47.49A74.14,74.14,0,0,1,410,138.46Z"/><path class="cls-7" d="M138.71,484.26a47.3,47.3,0,0,1-6.84.53c-7.28.14-14.57.19-21.85.25-4.7,0-9.65-.32-12.29-4.77-.12-.22-.25-.45-.37-.69.34-.17.66-.34,1-.54a8.22,8.22,0,0,0,2.55,3.08c4.32,3.11,11.69,1.74,16.71,1.68,5.28-.05,10.56,0,15.83-.2,1.28-.05,2.55-.13,3.8-.29Z"/><path class="cls-7" d="M89.48,89.16q-.54.21-1.11.39c-.15-.37-.3-.76-.43-1.13.37-.1.73-.23,1.1-.35C89.18,88.44,89.33,88.79,89.48,89.16Z"/><path class="cls-7" d="M72.72,375.39c-.3.08-.59.14-.89.19A.6.6,0,0,1,72.72,375.39Z"/><path class="cls-7" d="M337.82,237.23c3.12-18.89,6.08-38.69-.09-57.27-5.22-15.71-16.61-27.93-32.85-32.18-17-4.43-35.91-1.36-52.69,2.65-8.6,2.06-17.12,5.06-24.28,10.35A50.44,50.44,0,0,0,212.64,180c-9.56,20.28-7.13,43.23-4.65,64.79a.51.51,0,0,0,.17.35A.61.61,0,0,0,209,245a.58.58,0,0,0,.09-.38c-2.16-18.86-4.42-38.59,1.7-57a55.56,55.56,0,0,1,12.4-21.21c6.32-6.51,14.5-10.58,23.09-13.2a157.28,157.28,0,0,1,25.36-5.16,99.25,99.25,0,0,1,25.48-.57c8.28,1.06,16.39,3.76,23.1,8.83a47.08,47.08,0,0,1,14.68,19.51c8.46,20,4.9,42.17,1.44,62.89,0,0,0,.06,0,.1h0a.59.59,0,0,0,1.17,0Z"/><path class="cls-7" d="M117.76,246.48a0,0,0,0,1,0,0c.41.61,1.34-.09.92-.7a1,1,0,0,0-.12-.16c-6.16-8.86-18.8-12.32-28.64-15a120.17,120.17,0,0,0-27.09-4l-1.14,0-1.81,0H58.75c-2,0-4.12,0-6.16.15a.59.59,0,0,0-.4.92c1.92,2.24,4.41,4.72,7.2,5.53a7.93,7.93,0,0,0,1.18.23,5.59,5.59,0,0,0,1.73-.07,6.11,6.11,0,0,0,1.12-.32,7.58,7.58,0,0,0,1.3-.66.57.57,0,0,1,.13-.08c.5-.35.11-1-.39-1a.59.59,0,0,0-.31.1,5.69,5.69,0,0,1-2,.87,4.7,4.7,0,0,1-1.75,0,5.46,5.46,0,0,1-1.19-.3,14.6,14.6,0,0,1-5.34-4.11c1.65-.07,3.29-.11,4.93-.11H60q.9,0,1.8,0l1.15,0a118.15,118.15,0,0,1,25.23,3.56A114.62,114.62,0,0,1,105,237.08C110,239.22,114.65,241.94,117.76,246.48Z"/><path class="cls-7" d="M337.28,239.88a.55.55,0,0,0-.58-.32l-.55.08a144.61,144.61,0,0,1-15.35,1.64c-.39,0-.77,0-1.16.06-30.93,1.59-63.31-3.75-91.55,11.1-.36.17-.71.36-1.06.55l-.11.06c-.64.36-.23,1.41.4,1.09h0l1-.55c28.11-14.84,60.37-9.55,91.23-11.1l1.15,0c4.45-.26,8.88-.65,13.25-1.29q-6.76,4.16-13.54,8.27h0l-.84.52-.1.07-.07.07a.48.48,0,0,0,0,.54.61.61,0,0,0,.86.25l.17-.11h0c5.1-3.11,10.22-6.22,15.31-9.34l1.32-.8a0,0,0,0,1,0,0A.52.52,0,0,0,337.28,239.88Z"/></g></g></svg>