<svg xmlns="http://www.w3.org/2000/svg" viewBox="0 0 514.66 565.26"><defs><style>.cls-1{fill:#fdd621;}.cls-2{fill:#ffdda7;}.cls-3{fill:#faf1e4;}.cls-4{fill:#6a9270;}.cls-5{fill:#ffaea8;}.cls-6{fill:#b48f5b;}.cls-7{fill:#fff;}.cls-8{fill:none;stroke:#000;stroke-miterlimit:10;stroke-width:0.75px;}</style></defs><title>Asset 3</title><g id="Layer_2" data-name="Layer 2"><g id="Layer_26" data-name="Layer 26"><path d="M341.21,373.42c.64-.13.76.87.13,1l-.36.07c.06-.35.12-.7.17-1.05Z"/><path d="M57.74,290.48a26.6,26.6,0,0,1,3.34.79,26.74,26.74,0,0,1-3.37.22l-.1,0C57,291.37,57.11,290.37,57.74,290.48Z"/><path class="cls-1" d="M19.09,130q2.67,5.67,5.67,11.19a8.67,8.67,0,0,0-8.39,6.4c-1.42,5.59,3.4,10.87,8.47,12.35a17.64,17.64,0,0,0,10.89-.65c.33-.11.66-.24,1-.37a27.54,27.54,0,0,0,7.77-4.8c4.36-3.82,7-10.07,3.94-15.34a10.79,10.79,0,0,1,7-4.89h0c6.27,3.94,7.92,13,4.94,20-3.07,7.17-9.56,11.82-16.53,14.93l-1,.42c-1.4.6-2.81,1.13-4.21,1.61C29.44,174,18.69,175,10.17,169.49c-8-5.22-10.85-14.55-7.27-23.42C5.91,138.62,12.16,133.65,19.09,130Z"/><path class="cls-2" d="M213.91,261.08a41.27,41.27,0,0,0,18.23,12.52,145.54,145.54,0,0,0,9,11.79c.81.95,1.63,1.88,2.48,2.78,6,6.55,12.89,12.11,21,15.75,8.41,3.78,17.92,5.45,26.91,3.3,8.45-2,15.57-7.42,21.06-14.45a76.45,76.45,0,0,0,7.1-11.11q1.05-2,2-4c.32-1.37.61-2.75.88-4.13.15-.71.28-1.42.41-2.13l.63-.19,1.2-.36c8.78-2.75,17.26-6.62,22.77-14.3a31.49,31.49,0,0,0,4-7.71l.11-.07a10.44,10.44,0,0,1,.39-1.63c.19-.69.28-1.4.47-2.1a1.49,1.49,0,0,1,.26-.52,49.17,49.17,0,0,0,.58-17.15c-1.47-11.3-5.85-22.15-11.68-31.88-6.14-10.25-14.51-19-25.63-23.8-12.52-5.38-26.74-6.2-40.19-6.34a202.25,202.25,0,0,0-43,4c-12,2.49-24.28,7-32.13,17a29.26,29.26,0,0,0-6.35,15c-.72,6.95,1.11,13.84,2.81,20.52C200.77,235.56,204.54,250.1,213.91,261.08ZM102.41,398.33c-.47.24-.93.49-1.38.76a53.38,53.38,0,0,1-1.39-7.82l-.09-1.06a52,52,0,0,1,1.58-17.64l.27-1c.16-.56.33-1.1.51-1.65,3.35-10.26,11-18.48,12.71-29.34a92.62,92.62,0,0,0,.76-14.7c0-.34,0-.67,0-1a81.21,81.21,0,0,1,1-15.8,63.52,63.52,0,0,1,8.68-21.62c.32-.51.64-1,1-1.51q1-1.54,2.16-3a63.55,63.55,0,0,1,9.06-9.69c.32-.29.64-.57,1-.83a61.6,61.6,0,0,1,14.62-9.14c.59-.26.21-1.19-.38-.93a62.68,62.68,0,0,0-14.31,8.84,165.27,165.27,0,0,0-6.8-38.45c-1.8-5.93-4.25-11.39-9-15.57s-10.33-6.61-16.09-8.49a80.53,80.53,0,0,0-21-3.88c-5.84-.28-11.69.17-16.52,3.79a26.73,26.73,0,0,0-6.32,6.84,90.53,90.53,0,0,1,1-22.65l.21-1.21A124.7,124.7,0,0,1,72,164.82,178.82,178.82,0,0,1,103,116.61a196,196,0,0,1,17.58-17.37l.73-.64a204.21,204.21,0,0,1,73.29-40.55,192.12,192.12,0,0,1,52.66-8.48,31.9,31.9,0,0,0-4.21,15.68c0,11.46,8.59,23.11,20.54,23.91.63,0,.77-1,.13-1-11.88-.8-20.06-12.63-19.66-24a31.81,31.81,0,0,1,4.35-14.64c.19-.33.38-.66.59-1a49.93,49.93,0,0,1,14-14.52c10.75-7.52,23.44-12.28,35.44-17.41,12.78-5.47,26-11.18,39.64-14,7-1.47,14.31-1.89,21.17.35a35.23,35.23,0,0,1,13.05,7.94c8,7.48,13.08,17.71,16.66,27.9a157.15,157.15,0,0,1,8.68,58.94l-.06,1.1a152.68,152.68,0,0,1-2.39,20.24c-2.44,13.08-7,26.56-16.54,36.23-7.62,7.72-18.72,12.6-29.53,11.38-.59-.06-1.17-.15-1.76-.26.44.39.87.79,1.3,1.2,21.9,20.33,38,47.17,43.77,76.62A114.71,114.71,0,0,1,372.66,334a101.34,101.34,0,0,1-29.92,27.28c-.32.2-.65.39-1,.57,0,.38,0,.75,0,1.13a60.29,60.29,0,0,1-.65,10.48,51.78,51.78,0,0,0-32.86,21.88c-11.9-6-26.33-8.46-39.42-10-.22-9.79-4.3-19.25-9-27.79-.31-.56-1.24-.19-.93.37,4.65,8.4,8.69,17.66,8.95,27.3,0,.32,0,.65,0,1a33.9,33.9,0,0,1-.54,6.07,29.9,29.9,0,0,1-7.92,15.2c-1.9,2-3.94,3.95-5.94,5.89a22.6,22.6,0,0,0,.91-2.86,44.45,44.45,0,0,0,1-11.79c-.07-3.45.29-7.73-1.41-10.87-1.59-2.94-5-4.1-8-5.1A66.65,66.65,0,0,0,234,380c-8.56-1.16-17.26-1-25.88-.76A381.8,381.8,0,0,0,152.44,385q-13.66,2.43-27.13,5.85C117.6,392.81,109.52,394.63,102.41,398.33Zm262.78-282c7.43-5.37,9.9-13.55,9.44-22.45-.58-11.23-2.88-22.59-5-33.61-1.83-9.43-3-21.22-9.82-28.57a16.09,16.09,0,0,0-10.5-5.45c-4.2-.27-8.1,1.53-11.47,3.87-4.57,3.17-8.62,7.12-12.8,10.76l-13.21,11.5c-6.46,5.63-14.75,11.72-17,20.46-2,7.7,2.39,14.22,8.6,18.36a75.37,75.37,0,0,0,12.16,6.15,132,132,0,0,1,15.63,7.85,120.74,120.74,0,0,1,15.64,11.12c1.11.93,2.21,1.88,3.28,2.85s1.8,1.89,2.8,2.64a1.16,1.16,0,0,0,1.24,0c.44-.2.91-.37,1.38-.54,1.13-.4,2.25-.85,3.35-1.34A35,35,0,0,0,365.19,116.37ZM248.79,344.75a.5.5,0,0,0,.8-.6c-5.09-6.84-5-15.6-6.25-23.68A35.57,35.57,0,0,0,235,301.9c-4.65-5.33-10.44-9.49-16.05-13.73-6-4.55-17.07-11.37-15.3-20.18.12-.63-.87-.76-1-.13-1.56,7.81,6.21,13.7,11.58,17.95,6.25,4.94,13,9.35,18.54,15.12,6,6.27,8.76,13.46,9.87,22C243.65,330.47,244.07,338.41,248.79,344.75Z"/><path d="M73.62,296.67q-.27-.59-.51-1.17l.68.19c.61.17.48,1.16-.14,1Z"/><path d="M36.12,158.06c.19.29.38.58.59.87-.32.13-.65.26-1,.37-.2-.29-.4-.59-.58-.88C35.47,158.31,35.8,158.19,36.12,158.06Z"/><path d="M44.25,169.39l-.19-.26h0Zm118,351.84c-.36.33-.76.61-1.11,1-.79.77-1.51,1.6-2.23,2.43-.33.38-.65.76-1,1.15a27,27,0,0,0,9.46,6.52c.85.35,1.73.67,2.6.94a6.79,6.79,0,0,1-.3-1.11l-.33-1.11q-.73-2.53-1.48-5.07c-.25-.85-.5-1.69-.74-2.53a11.84,11.84,0,0,0-.59-2.15,2.09,2.09,0,0,0-3.07-1A5.75,5.75,0,0,0,162.21,521.23ZM115.46,280.16a41.65,41.65,0,0,0-.12-15.06,25.59,25.59,0,0,0-10.24,1.31c-5.67,1.91-10.68,5.33-15.42,8.93a43.76,43.76,0,0,0,3.4,9.69c2.58,5.26,8,11.74,14.58,8.76C112.68,291.54,114.59,285.1,115.46,280.16Zm5.59-18.05a79.22,79.22,0,0,0-7.76-16.67c-6.12-9.93-17.63-24.59-31.12-20.11C67.91,230.07,67,247.73,67.36,260.2c0,.59,0,1.18.07,1.77s0,1.06.07,1.59a111,111,0,0,0,2.82,20.27c2.9-1.84,5.78-3.69,8.67-5.54,3-1.94,6.06-3.93,9.1-5.9l.93-.6c3.29-2.13,6.61-4.2,10-6.12,4.75-2.69,10.08-4.94,15.58-4.83.25,0,.5,0,.74,0a17.14,17.14,0,0,1,2.13.24A19.11,19.11,0,0,1,121.05,262.11Zm-54.83-1.6c-.08-3.46,0-6.91.19-10.29.69-11.68,6.7-26.75,20.65-26.65,13.3.09,23.25,14.24,29,24.61a80.09,80.09,0,0,1,6.21,14.45c.15.44.28.89.42,1.34h0c.2.67.39,1.33.57,2l.33,1.23h0A81.08,81.08,0,0,1,126,284.29,65.55,65.55,0,0,1,137.24,272a161.52,161.52,0,0,0-7-39.68c-1.88-6-4.59-11.36-9.59-15.35-4.55-3.63-10-5.91-15.56-7.64a79.11,79.11,0,0,0-19.83-3.53c-7.1-.34-13.58.78-18.63,6.16a31.5,31.5,0,0,0-3.91,5.15h0c-.29.47-.57,1-.83,1.44h0C54.85,231.58,57.09,248.88,66.22,260.51ZM240.67,533.33c-.3,1.11-.58,2.22-.85,3.33a42.93,42.93,0,0,0,15.49-7.28l-.44-.27c-2.51-1.53-5.27-3.89-8.17-4.52C242.26,523.63,241.47,530.35,240.67,533.33ZM113.79,427.42a8.51,8.51,0,0,1-5.92,2.15,13.14,13.14,0,0,1-11.76-8.08c-2.53-6.63-.14-13.84,2.92-19.93l-.49.37a4.31,4.31,0,0,0,.88-1.84c.24-.16.47-.33.72-.48a54.73,54.73,0,0,1-1.45-7.91,46.58,46.58,0,0,0-18.3,16c-.27.38-.52.76-.78,1.14a74,74,0,0,0-8.38,17.48,102,102,0,0,0-3,51.77c3.47,16.92,12.64,36.7,30.38,42.34,6.81,2.16,14.13,2.39,21.33,2.15l1,0c2.09-.08,4.16-.2,6.21-.31a104.74,104.74,0,0,0,25.13-4l.89-.28c.65-.21,1.28-.42,1.92-.65,4.23-1.52,9-3.36,12.29-6.47,3.89-3.63,3.71-9.61,4.3-14.53q1.11-9.14,2.21-18.29a61.47,61.47,0,0,1-8.14-20.39,29.59,29.59,0,0,1-3.18-1.85,39.65,39.65,0,0,1-13.37-15.91c-3.4-7.17-5.35-15.82-11.44-21.33C132.9,414.13,123.51,412,119,418,116.77,420.86,116.55,424.87,113.79,427.42Zm-11.51-103.8A24,24,0,0,0,114.42,325c.08-7.1.23-14.13,2.24-21.17a64.55,64.55,0,0,1,8.43-18.19s0,0,0,0a80.21,80.21,0,0,0-2.67-18.94,23.86,23.86,0,0,0-6.06-1.53,42.65,42.65,0,0,1-.47,17.78c-1.15,4.7-3.56,10.18-8.45,12-5.72,2.11-11-2.18-13.79-6.8A40.92,40.92,0,0,1,88.79,276l-.37.28c-5.34,4.11-10.87,8.64-17,11.66a66.85,66.85,0,0,0,5.11,12.47,57,57,0,0,0,7.49,10.77c.23.25.46.51.71.76a45.48,45.48,0,0,0,17,11.78A.48.48,0,0,1,102.28,323.62ZM430.17,372l.48,13.15a383.2,383.2,0,0,0,53.66-66.76,330.75,330.75,0,0,0,19.41-34.62c5.87-12.31,10.3-25.53,9.47-39.34-.81-13.28-5.65-26-11.16-38a220.31,220.31,0,0,0-16.66-29.87A229.07,229.07,0,0,0,398.78,99.4a135.3,135.3,0,0,1-5,30.32c-3.44,11.88-9.52,23.58-19.79,30.9-6.89,4.89-15.32,7.73-23.65,7.13a151,151,0,0,1,28.08,35.83c16.09,28.63,22,62.68,12.9,94.55-7.57,26.45-24.74,50.37-48.53,64.25a61.68,61.68,0,0,1-5.71,28,89.73,89.73,0,0,1,46.54,23.66l.75.72a88.41,88.41,0,0,1,6.75,7.45,244.75,244.75,0,0,1,38.18-50.46C429.55,371.52,430.16,371.56,430.17,372ZM170.58,458.41c15.54,4.14,24-11.25,28.61-23.35,3.78-9.92,8.81-24,20.67-26.57,4.21-.91,9.9.05,11.77,4.47,1.26,3-.52,7.44,2.18,9.76,3.11,2.69,8.52,1.21,11.58-.71a16.37,16.37,0,0,0,2.74-2.15,17.26,17.26,0,0,0,3.32-4.49c2.13-4.07,2.87-8.92,3-13.59.08-3.85.46-8.87-.9-12.53-1.62-4.34-7.69-5.67-11.7-6.7-8.19-2.11-16.72-2.51-25.14-2.47s-16.81.41-25.19,1a383.29,383.29,0,0,0-51.13,7.27c-8.43,1.78-16.83,3.83-25.11,6.22a61.53,61.53,0,0,0-13.94,5.51l-.58.35-.23.43h0a38,38,0,0,0-4.09,11c-1.26,7.21,1.63,14.8,9.37,16.46,3.06.66,6.32-.06,8.25-2.67,2-2.76,2.39-6.45,4.75-9,3.29-3.61,8.64-3.92,13.06-2.56,5.71,1.75,9.47,6.21,12.17,11.35,3.44,6.54,5.26,13.79,9.54,19.9a35.27,35.27,0,0,0,12,11.08c.37.2.74.39,1.12.57A23.37,23.37,0,0,0,170.58,458.41ZM76.82,344.2c-1.72-10.68,1.48-22.36,6.73-32.08a59.19,59.19,0,0,1-9.93-15.45h0c.62.17.75-.82.14-1l-.68-.19-.06-.14q-1.41-3.39-2.51-6.95a31.78,31.78,0,0,1-9.46,2.86,26.6,26.6,0,0,0-3.34-.79c-.63-.11-.76.89-.13,1l.1,0h-.06l-1,0H56.5c-.6,0-.52-.89,0-1,4.38-.86,8.16-3.07,11.89-5.42l1-.65a104.49,104.49,0,0,1-3.12-22.22,40.56,40.56,0,0,1-9.49-25.5,39,39,0,0,1,4.89-19.86h0a91.17,91.17,0,0,1,1-24.9c.07-.4.14-.81.22-1.21a129.82,129.82,0,0,1,10.45-31.48,187.36,187.36,0,0,1,46.56-60.74,45.89,45.89,0,0,0-5.47-5.14C99.62,81.48,80.14,79.59,61.79,80.06c-3.87.1-7.75.29-11.63.5L34.43,87.08c-7.52,3.12-15.18,6-22.55,9.44a41.44,41.44,0,0,0-3.73,2c.91,3.16,1.92,6.3,3,9.42a218.13,218.13,0,0,0,8.4,20.76c.14.31.29.61.43.91q2.82,6,6,11.8c.23.43.47.86.71,1.28q4.39,7.91,9.43,15.42c-.32.13-.65.25-1,.36q-5.26-7.86-9.81-16.16c-4.1-.62-8.28,3.13-8.18,7.41.13,5.36,5.27,9.26,10.27,9.77a18.11,18.11,0,0,0,7.72-1c.18.29.38.59.58.88a17.64,17.64,0,0,1-10.89.65c-5.07-1.48-9.89-6.76-8.47-12.35a8.67,8.67,0,0,1,8.39-6.4q-3-5.52-5.67-11.19c-6.93,3.64-13.18,8.61-16.19,16.06-3.58,8.87-.77,18.2,7.27,23.42,8.52,5.53,19.27,4.51,28.46,1.35,1.4-.48,2.81-1,4.21-1.61l1-.42c7-3.11,13.46-7.76,16.53-14.93,3-7,1.33-16-4.94-20h0a10.79,10.79,0,0,0-7,4.89c3,5.27.42,11.52-3.94,15.34a27.54,27.54,0,0,1-7.77,4.8c-.21-.29-.4-.58-.59-.87a27.44,27.44,0,0,0,7.15-4.21c4.12-3.35,7-9,4.58-14a11.38,11.38,0,0,0-1,3.34.5.5,0,0,1-1-.13,12.51,12.51,0,0,1,1.39-4.25c.18-.32.37-.63.57-.94a11.8,11.8,0,0,1,6.31-4.66,14.3,14.3,0,0,1,1.47-.35h0a10.85,10.85,0,0,1,1.24.85c5.91,4.47,7.45,13.48,4.41,20.57-3.13,7.29-9.66,12.16-16.81,15.38q4.57,6,9.58,11.61l-.38,1.1q-3.06-3.42-6-7c-1.43-1.75-2.84-3.53-4.21-5.32a64.26,64.26,0,0,1-6.67,2.4c-9.69,2.89-20.72,3.08-29-3.46-7.61-6-9.33-15.77-5.35-24.42,3.28-7.13,9.43-11.95,16.22-15.51A216.46,216.46,0,0,1,7.28,99c-.11-.34-.21-.68-.31-1H7c.29-.17.58-.35.88-.51l.08,0c7.05-4,15-6.64,22.46-9.74l16.75-7h0l2.74-1.14h0l3-.16c15.7-.83,31.63-1.08,46.51,4.38a53.87,53.87,0,0,1,21.26,14,204.9,204.9,0,0,1,29-20.88c29.64-17.66,63.69-27.83,98.2-28.38,4-6.82,10.21-12.54,16.77-16.79a129.4,129.4,0,0,1,18-9.31c6.92-3.08,13.87-6.11,20.87-9s14.34-5.78,21.68-8.22C332,3,339.07.85,346.34.44c26.47-1.52,39.75,24,46.14,45.86a161,161,0,0,1,6.35,52,227.5,227.5,0,0,1,48.83,33.32,230,230,0,0,1,43.42,52.14,214.73,214.73,0,0,1,15.65,31.08c5,12.39,8.63,25.71,7.27,39.19-1.33,13.31-6.9,25.74-13,37.47A379.12,379.12,0,0,1,481.28,325a384.12,384.12,0,0,1-50.7,61.7c-.27.26-.87.23-.89-.25q-.22-6.56-.47-13.1a243.92,243.92,0,0,0-37.58,50,.5.5,0,0,1-.86.1,85,85,0,0,0-6.88-7.67c-7.26,14.91-17.4,28.81-26,42.63-7.65,12.26-13.21,25.28-19.23,38.36-5.28,11.47-11.56,22.22-20.41,31.32-17.21,17.72-40.51,28.33-64.49,33.15a208,208,0,0,1-42.7,3.68c-13.8-.11-27.9-.76-41.49-3.31-12.25-2.31-24.29-6.73-33.73-15.1a56.59,56.59,0,0,1-15.6-23h0c-9.28.23-19.1,0-27.5-4.43-16-8.49-23.78-28.55-26.34-45.51-2.64-17.45-.88-36.27,5.77-52.68a70.32,70.32,0,0,1,7.17-13.42c-1.3-7.05-.36-14.07,1.59-20.88h0Q66.37,366.14,53.5,344.6c-7.72-13-15.39-26.17-21.74-39.86-3.07-6.59-5-13.35-4.65-20.68.37-7.94,2.49-15.8,4.26-23.51a785.11,785.11,0,0,1,22.28-78.18c.25.29.5.56.77.85q-6.14,18-11.4,36.23-6.62,23-11.82,46.38c-1.7,7.65-3.69,15.54-3,23.44.64,7.39,3.91,14.13,7.24,20.64a611.28,611.28,0,0,0,45.86,75.43,117.46,117.46,0,0,1,4.35-11.68c1.31-3.08,2.63-6.33,4.18-9.47-1.15-1.14-2.25-2.34-3.32-3.57C82.26,355.77,77.88,350.76,76.82,344.2Zm167.27-280c-.4,11.34,7.78,23.17,19.66,24,.64,0,.5,1-.13,1-12-.8-20.5-12.45-20.54-23.91a31.9,31.9,0,0,1,4.21-15.68,192.12,192.12,0,0,0-52.66,8.48A204.21,204.21,0,0,0,121.34,98.6l-.73.64A196,196,0,0,0,103,116.61,178.82,178.82,0,0,0,72,164.82a124.7,124.7,0,0,0-8.18,26.74l-.21,1.21a90.53,90.53,0,0,0-1,22.65,26.73,26.73,0,0,1,6.32-6.84c4.83-3.62,10.68-4.07,16.52-3.79a80.53,80.53,0,0,1,21,3.88c5.76,1.88,11.51,4.43,16.09,8.49s7.16,9.64,9,15.57a165.27,165.27,0,0,1,6.8,38.45,62.68,62.68,0,0,1,14.31-8.84c.59-.26,1,.67.38.93a61.6,61.6,0,0,0-14.62,9.14c-.33.26-.65.54-1,.83a63.55,63.55,0,0,0-9.06,9.69q-1.13,1.49-2.16,3c-.34.5-.66,1-1,1.51a63.52,63.52,0,0,0-8.68,21.62,81.21,81.21,0,0,0-1,15.8c0,.34,0,.67,0,1a92.62,92.62,0,0,1-.76,14.7c-1.71,10.86-9.36,19.08-12.71,29.34-.18.55-.35,1.09-.51,1.65-.3-.15-.6-.3-.9-.47.27-.93.57-1.85.89-2.77,2-5.54,5.14-10.39,7.9-15.53a41.37,41.37,0,0,0,4.88-17.67c.17-3,.21-6.08.24-9.1a25,25,0,0,1-11.14-1,.49.49,0,0,1-.56.16A45.88,45.88,0,0,1,84.26,312.9c-4.92,9.24-7.85,20.14-6.56,30.33.83,6.64,5.1,11.59,9.32,16.48,1,1.21,2.13,2.4,3.25,3.54,2.82-5.54,6.39-10.64,11.89-13.68.57-.31.94.62.38.93-5.32,2.94-8.82,8-11.55,13.47-.17.3-.32.61-.47.92-1.61,3.34-3,6.81-4.33,10A108.63,108.63,0,0,0,82,386.37c-.12.41-.24.81-.35,1.22h0a44.88,44.88,0,0,0-1.51,18.68,47.25,47.25,0,0,1,18.44-15.64,52.94,52.94,0,0,1,1.63-18.53l.82.43.09,0a52,52,0,0,0-1.58,17.64l.09,1.06a53.38,53.38,0,0,0,1.39,7.82c.45-.27.91-.52,1.38-.76,7.11-3.7,15.19-5.52,22.9-7.48q13.45-3.42,27.13-5.85a381.8,381.8,0,0,1,55.63-5.75c8.62-.26,17.32-.4,25.88.76a66.65,66.65,0,0,1,12,2.73c3,1,6.42,2.16,8,5.1,1.7,3.14,1.34,7.42,1.41,10.87a44.45,44.45,0,0,1-1,11.79,22.6,22.6,0,0,1-.91,2.86c2-1.94,4-3.84,5.94-5.89a29.9,29.9,0,0,0,7.92-15.2,33.9,33.9,0,0,0,.54-6.07c0-.34,0-.67,0-1l1,.12c13.09,1.52,27.52,3.94,39.42,10-.14.2-.27.4-.4.6a.5.5,0,0,0-.08.2c-11.73-6.08-25.81-8.3-38.93-9.79a34.89,34.89,0,0,1-.55,6.08,30,30,0,0,1-7,14.49c-2.8,3.21-6,6-9,9l0,0a17.2,17.2,0,0,1-9.91,8.57,11.17,11.17,0,0,1-8.2-.4c-2.59-1.34-2.85-3.92-2.89-6.57-.07-4.15-1.56-7.18-5.9-8.12a13.76,13.76,0,0,0-10.25,2.18c-12.24,7.72-13.71,24.53-20.73,36.05-3.24,5.32-7.79,10-13.94,11.73a20.07,20.07,0,0,1-13.57-1.26,60.86,60.86,0,0,0,7.2,18.28c.29.49.59,1,.9,1.46h0a70.79,70.79,0,0,0,19,20c.3.21.6.42.91.62a68.39,68.39,0,0,0,6.47,4c20,10.8,43.85,12.11,65.85,8l.92-.17.13,0c21.72-4.24,43.32-13.92,54.7-33.88a74.9,74.9,0,0,0,9.2-30.78c1-11.65-.08-24.14-6.73-34.1a45.82,45.82,0,0,0-16.75-14.92s0,0,0,0l.51-.76c9.13,4.82,16.67,11.86,20.84,22.39,4.25,10.72,4.13,23.11,2.25,34.33a71.19,71.19,0,0,1-12.15,30.06c-12.11,16.71-32.21,25-52.08,28.76h0a32.33,32.33,0,0,1-10.79,17.79l-.19.16-.82.67a42.63,42.63,0,0,1-16.71,8c-.35.09-.71.18-1.07.25-15.28,3.42-32.54.36-47.6-.89-6.28-.52-13.08-.84-19.37-2.52l-1.13-.32a29.7,29.7,0,0,1-10.15-5.07,24.71,24.71,0,0,1-2.95-2.75c-.23-.25-.46-.5-.67-.76a22.46,22.46,0,0,1-4-6.72c-1,.31-2,.6-3,.86-9.24,2.44-18.83,3.17-28.35,3.44a55.48,55.48,0,0,0,20.64,26.49c12.13,8.24,26.94,11.1,41.29,12.49,49.53,4.82,108.66-.55,141.35-43.21,8.12-10.59,13.21-23,18.6-35.05A244.42,244.42,0,0,1,362,450.05c7.31-11.2,15.2-22.77,21.13-35a88.63,88.63,0,0,0-46.86-23.72.51.51,0,0,1-.4-.69A60,60,0,0,0,341,374.49h0l.36-.07c.63-.12.51-1.12-.13-1h-.06A60.29,60.29,0,0,0,341.8,363c0-.38,0-.75,0-1.13.33-.18.66-.37,1-.57A101.34,101.34,0,0,0,372.66,334a114.71,114.71,0,0,0,19.83-89.74c-5.74-29.45-21.87-56.29-43.77-76.62-.43-.41-.86-.81-1.3-1.2.59.11,1.17.2,1.76.26,10.81,1.22,21.91-3.66,29.53-11.38,9.54-9.67,14.1-23.15,16.54-36.23a152.68,152.68,0,0,0,2.39-20.24l.06-1.1A157.15,157.15,0,0,0,389,38.78c-3.58-10.19-8.68-20.42-16.66-27.9a35.23,35.23,0,0,0-13.05-7.94c-6.86-2.24-14.2-1.82-21.17-.35-13.66,2.87-26.86,8.58-39.64,14.05-12,5.13-24.69,9.89-35.44,17.41a49.93,49.93,0,0,0-14,14.52c-.21.33-.4.66-.59,1A31.81,31.81,0,0,0,244.09,64.2Zm8.51,462.36c1.18.72,2.36,1.44,3.55,2.15A31.7,31.7,0,0,0,267,511.5q-2.79.51-5.55.9c-22.75,3.2-47.38.29-66.74-12.84a113.84,113.84,0,0,0-1.41,23.69c0,.64-1,.77-1,.13a115.62,115.62,0,0,1,1.49-24.45,72,72,0,0,1-18.95-19.48c-.9,8-1.81,16-3,24a13.58,13.58,0,0,1-7.22,10.6,56.49,56.49,0,0,1-11.08,4.82,21.18,21.18,0,0,0,3.74,6.13,40,40,0,0,1,3.09-3.43c1.37-1.36,3.6-3.5,5.71-2.37a3.65,3.65,0,0,1,1.58,2.37c.71,2.12,1.26,4.31,1.89,6.46l1.62,5.55c8.51,2.49,17.77,2.44,26.5,3.33,11.15,1.15,22.42,2.65,33.63,1.34a62.89,62.89,0,0,0,7.47-1.32q.84-3.57,1.88-7.08c.66-2.25,1.21-5.51,3.81-6.32C247.27,522.66,250.36,525.2,252.6,526.56Z"/><path class="cls-3" d="M307.81,396.11c-.08.46.53.88.84.44a45.82,45.82,0,0,1,16.75,14.92c6.65,10,7.72,22.45,6.73,34.1a74.9,74.9,0,0,1-9.2,30.78c-11.38,20-33,29.64-54.7,33.88l-.13,0-.92.17c-22,4.13-45.86,2.82-65.85-8a68.39,68.39,0,0,1-6.47-4c-.31-.2-.61-.41-.91-.62a70.79,70.79,0,0,1-19-20h0c-.31-.48-.61-1-.9-1.46a60.86,60.86,0,0,1-7.2-18.28,20.07,20.07,0,0,0,13.57,1.26c6.15-1.71,10.7-6.41,13.94-11.73,7-11.52,8.49-28.33,20.73-36.05a13.76,13.76,0,0,1,10.25-2.18c4.34.94,5.83,4,5.9,8.12,0,2.65.3,5.23,2.89,6.57a11.17,11.17,0,0,0,8.2.4,17.2,17.2,0,0,0,9.91-8.57l0,0c3-3,6.19-5.82,9-9a30,30,0,0,0,7-14.49,34.89,34.89,0,0,0,.55-6.08C282,387.81,296.08,390,307.81,396.11Z"/><path class="cls-3" d="M268,511.31c19.87-3.75,40-12.05,52.08-28.76a71.19,71.19,0,0,0,12.15-30.06c1.88-11.22,2-23.61-2.25-34.33-4.17-10.53-11.71-17.57-20.84-22.39A50.71,50.71,0,0,1,341,374.49a60,60,0,0,1-5.08,16.11.51.51,0,0,0,.4.69A88.63,88.63,0,0,1,383.16,415c-5.93,12.27-13.82,23.84-21.13,35a244.42,244.42,0,0,0-18.87,34.12c-5.39,12.1-10.48,24.46-18.6,35.05-32.69,42.66-91.82,48-141.35,43.21-14.35-1.39-29.16-4.25-41.29-12.49a55.48,55.48,0,0,1-20.64-26.49c9.52-.27,19.11-1,28.35-3.44,1-.26,2-.55,3-.86a22.46,22.46,0,0,0,4,6.72c.21.26.44.51.67.76a24.71,24.71,0,0,0,2.95,2.75,29.7,29.7,0,0,0,10.15,5.07l1.13.32c6.29,1.68,13.09,2,19.37,2.52,15.06,1.25,32.32,4.31,47.6.89.36-.07.72-.16,1.07-.25a42.63,42.63,0,0,0,16.71-8l.82-.67.19-.16A32.33,32.33,0,0,0,268,511.31Z"/><path d="M309.18,395.77l-.51.76s0,0,0,0l-.84-.44a.5.5,0,0,1,.08-.2c.13-.2.26-.4.4-.6C308.59,395.46,308.89,395.61,309.18,395.77Z"/><path d="M259.85,357.54c4.72,8.54,8.8,18,9,27.79l-1-.12c-.26-9.64-4.3-18.9-8.95-27.3C258.61,357.35,259.54,357,259.85,357.54Z"/><path d="M308.65,396.55c-.31.44-.92,0-.84-.44Z"/><path class="cls-4" d="M115.34,265.1a41.65,41.65,0,0,1,.12,15.06c-.87,4.94-2.78,11.38-7.8,13.63-6.63,3-12-3.5-14.58-8.76a43.76,43.76,0,0,1-3.4-9.69c4.74-3.6,9.75-7,15.42-8.93A25.59,25.59,0,0,1,115.34,265.1Z"/><path class="cls-5" d="M372.41,83.18c1.48,10.54,3.18,22.49-5.49,30.49A35.43,35.43,0,0,1,353.45,121a126.15,126.15,0,0,0-37.21-24.37c-6.64-2.85-14.55-5.93-18.66-12.26-5.55-8.54.18-17.48,6.45-23.64,7.26-7.15,15.37-13.57,23.05-20.27,6.62-5.75,15.4-15.85,25.25-12.54C362.52,31.33,365,43.24,367,52.44Q370.25,67.71,372.41,83.18Z"/><path class="cls-3" d="M323.45,246.28l-.43-.08c-8.23-1.61-16.1-4.7-24.28-6.57-.33-.08-.67-.16-1-.22q-1.59-.36-3.21-.63a75.74,75.74,0,0,0-20.78-.55l-1,.11a80.4,80.4,0,0,0-26.66,8.13,75.86,75.86,0,0,0-14.25,9.36,119.67,119.67,0,0,1-2.77-18.48c-1.12-16.22,3.1-32.79,17.46-42a45,45,0,0,1,41.66-3.21c13.85,6,24.4,18.2,30.09,32A72.7,72.7,0,0,1,323.45,246.28Z"/><path d="M308.29,395.31a51.78,51.78,0,0,1,32.86-21.88c0,.35-.11.7-.17,1.05h0a50.71,50.71,0,0,0-31.8,21.28C308.89,395.61,308.59,395.46,308.29,395.31Z"/><path d="M115.35,260.87c-.24,0-.49,0-.74,0A.46.46,0,0,1,115.35,260.87Z"/><path class="cls-3" d="M99,401.56c-3.06,6.09-5.45,13.3-2.92,19.93a13.14,13.14,0,0,0,11.76,8.08,8.51,8.51,0,0,0,5.92-2.15c2.76-2.55,3-6.56,5.18-9.45,4.54-6,13.93-3.84,18.79.55,6.09,5.51,8,14.16,11.44,21.33a39.65,39.65,0,0,0,13.37,15.91,29.59,29.59,0,0,0,3.18,1.85A61.47,61.47,0,0,0,173.89,478q-1.09,9.15-2.21,18.29c-.59,4.92-.41,10.9-4.3,14.53-3.32,3.11-8.06,4.95-12.29,6.47-.64.23-1.27.44-1.92.65l-.89.28a104.74,104.74,0,0,1-25.13,4c-2.05.11-4.12.23-6.21.31l-1,0c-7.2.24-14.52,0-21.33-2.15C80.84,514.76,71.67,495,68.2,478.06a102,102,0,0,1,3-51.77,74,74,0,0,1,8.38-17.48c.26-.38.51-.76.78-1.14a46.58,46.58,0,0,1,18.3-16,54.73,54.73,0,0,0,1.45,7.91c-.25.15-.48.32-.72.48a4.31,4.31,0,0,1-.88,1.84Z"/><path d="M73.62,296.67c-5.4-1.46-10.37-4.21-15.91-5.18a26.74,26.74,0,0,0,3.37-.22c4.08,1.18,7.94,3,12,4.23Q73.35,296.08,73.62,296.67Z"/><path d="M54.42,183.22c-.27-.29-.52-.56-.77-.85h0l.38-1.1.76.86q3.95,4.41,8.14,8.59c-.08.4-.15.81-.22,1.21Q58.44,187.69,54.42,183.22Z"/><path class="cls-6" d="M239.62,282c-2.09-2.59-4.09-5.27-6-8-.31-.43-.61-.87-.91-1.31-.5-.16-1-.33-1.51-.52a39.87,39.87,0,0,1-14.93-10c-8.38-8.81-12.61-20.7-15.81-32.2-3.38-12.12-8.31-26.1-2.08-38.09,5.72-11,17.26-17.06,28.8-20.18,12.94-3.51,26.69-4.87,40.06-5.29,12.9-.4,26.36-.09,39,3a52.71,52.71,0,0,1,29.89,19.41,86.29,86.29,0,0,1,14.51,29.38c2.36,8.64,3.4,18.31,1.12,27.11h-.09c-.61,1.79-.83,3.54-1.74,5.23-.34.77-.7,1.53-1.11,2.27-5,9.17-13.94,13.68-23.38,16.77l-1.2.38-1,.3q.56-3.27.91-6.57a37.46,37.46,0,0,0,9.5-5.51c2.26-1.81,4.87-4,6.32-6.68,1.57-1.71,3.24-3.27,4.22-5.34-6.55.75-13.06,1.32-19.72.24a76.89,76.89,0,0,0-3.24-17.2c-4.57-14.63-14.32-28-27.75-35.62a46.51,46.51,0,0,0-42-2.09,39.17,39.17,0,0,0-16.07,13.07c-4.78,6.87-6.91,15.2-7.37,23.49-.52,9.51.89,19.11,3.08,28.38.08.36.17.72.26,1.08s.19.79.29,1.19v0c.08.32.16.65.25,1a140.72,140.72,0,0,0,4.34,13.85c.13.37.26.74.4,1.1h0Q238,278.41,239.62,282Z"/><path d="M61.75,134.46a11.3,11.3,0,0,0-4.9-.76,10.85,10.85,0,0,0-1.24-.85,12.18,12.18,0,0,1,6.53.69A.5.5,0,0,1,61.75,134.46Z"/><path d="M101.4,371.59l-.27,1-.09,0-.82-.43c.09-.33.18-.66.28-1C100.8,371.29,101.1,371.44,101.4,371.59Z"/><path class="cls-7" d="M323.7,251.49a96.37,96.37,0,0,1-.51,11.64.51.51,0,0,0-.05.48q-.37,3.52-1,7c-.06.37-.12.73-.19,1.09-.35,1.94-.76,3.88-1.21,5.79C314.81,289.65,307,301,294.47,305.34,275.41,312,255.8,300.44,243,286c-.31-.35-.62-.7-.92-1.06q-2.34-4.94-4.32-10.05c-.14-.36-.28-.72-.41-1.08a136.24,136.24,0,0,1-4.61-14.49,110.51,110.51,0,0,1,40.15-13,110.78,110.78,0,0,0,1.64,14.74c1.16,6.4,3,16.43,11.29,16.94,6.42.4,8.79-6.7,9.63-11.82,1.08-6.62,1.84-13.31,2.59-20q3.56.39,7.07,1C311.32,248.31,317.46,250.19,323.7,251.49Z"/><path d="M295.4,266.17c-.84,5.12-3.21,12.22-9.63,11.82-8.24-.51-10.13-10.54-11.29-16.94a110.78,110.78,0,0,1-1.64-14.74l1-.11a108.89,108.89,0,0,0,1.09,11.39c1,6.47,2.31,19.41,11.28,19.39,7.72,0,8.24-11,8.92-16.46l1.8-14.46,1.07.11C297.24,252.86,296.48,259.55,295.4,266.17Z"/><path d="M235,301.9a35.57,35.57,0,0,1,8.31,18.57c1.24,8.08,1.16,16.84,6.25,23.68a.5.5,0,0,1-.8.6c-4.72-6.34-5.14-14.28-6.12-21.84-1.11-8.52-3.87-15.71-9.87-22-5.53-5.77-12.29-10.18-18.54-15.12-5.37-4.25-13.14-10.14-11.58-17.95.13-.63,1.12-.5,1,.13-1.77,8.81,9.27,15.63,15.3,20.18C224.59,292.41,230.38,296.57,235,301.9Z"/><path class="cls-5" d="M157.25,525a21.18,21.18,0,0,1-3.74-6.13,56.49,56.49,0,0,0,11.08-4.82,13.58,13.58,0,0,0,7.22-10.6c1.19-8,2.1-16,3-24a72,72,0,0,0,18.95,19.48,115.62,115.62,0,0,0-1.49,24.45c0,.64,1,.51,1-.13a113.84,113.84,0,0,1,1.41-23.69c19.36,13.13,44,16,66.74,12.84q2.76-.39,5.55-.9a31.7,31.7,0,0,1-10.81,17.21c-1.19-.71-2.37-1.43-3.55-2.15-2.24-1.36-5.33-3.9-8.17-3-2.6.81-3.15,4.07-3.81,6.32s-1.32,4.7-1.88,7.08a62.89,62.89,0,0,1-7.47,1.32c-11.21,1.31-22.48-.19-33.63-1.34-8.73-.89-18-.84-26.5-3.33L169.52,528c-.63-2.15-1.18-4.34-1.89-6.46a3.65,3.65,0,0,0-1.58-2.37c-2.11-1.13-4.34,1-5.71,2.37A40,40,0,0,0,157.25,525Z"/><path d="M303.38,91.24c-6.21-4.14-10.6-10.66-8.6-18.36,2.28-8.74,10.57-14.83,17-20.46L325,40.92c4.18-3.64,8.23-7.59,12.8-10.76,3.37-2.34,7.27-4.14,11.47-3.87a16.09,16.09,0,0,1,10.5,5.45c6.84,7.35,8,19.14,9.82,28.57,2.14,11,4.44,22.38,5,33.61.46,8.9-2,17.08-9.44,22.45a35,35,0,0,1-6.33,3.6c-1.1.49-2.22.94-3.35,1.34-.47.17-.94.34-1.38.54a1.16,1.16,0,0,1-1.24,0c-1-.75-1.87-1.8-2.8-2.64s-2.17-1.92-3.28-2.85a120.74,120.74,0,0,0-15.64-11.12,132,132,0,0,0-15.63-7.85A75.37,75.37,0,0,1,303.38,91.24Zm23.7-50.8c-7.68,6.7-15.79,13.12-23.05,20.27-6.27,6.16-12,15.1-6.45,23.64,4.11,6.33,12,9.41,18.66,12.26A126.15,126.15,0,0,1,353.45,121a35.43,35.43,0,0,0,13.47-7.31c8.67-8,7-20,5.49-30.49Q370.25,67.72,367,52.44c-2-9.2-4.47-21.11-14.66-24.54C342.48,24.59,333.7,34.69,327.08,40.44Z"/><path class="cls-7" d="M254.87,529.11l.44.27a42.93,42.93,0,0,1-15.49,7.28c.27-1.11.55-2.22.85-3.33.8-3,1.59-9.7,6-8.74C249.6,525.22,252.36,527.58,254.87,529.11Z"/><path class="cls-7" d="M122.42,266.73a80.21,80.21,0,0,1,2.67,18.94s0,0,0,0a64.55,64.55,0,0,0-8.43,18.19c-2,7-2.16,14.07-2.24,21.17a24,24,0,0,1-12.14-1.42.48.48,0,0,0-.54.12,45.48,45.48,0,0,1-17-11.78c-.25-.25-.48-.51-.71-.76a57,57,0,0,1-7.49-10.77A66.85,66.85,0,0,1,71.45,288c6.1-3,11.63-7.55,17-11.66l.37-.28a40.92,40.92,0,0,0,4.86,12.14c2.81,4.62,8.07,8.91,13.79,6.8,4.89-1.8,7.3-7.28,8.45-12a42.65,42.65,0,0,0,.47-17.78A23.86,23.86,0,0,1,122.42,266.73Z"/><path d="M70.54,288.41q1.09,3.55,2.51,6.95l.06.14c-4.09-1.19-8-3.05-12-4.23A31.78,31.78,0,0,0,70.54,288.41Z"/><path class="cls-7" d="M169.35,531l.33,1.11a6.79,6.79,0,0,0,.3,1.11c-.87-.27-1.75-.59-2.6-.94a27,27,0,0,1-9.46-6.52c.3-.39.62-.77,1-1.15.72-.83,1.44-1.66,2.23-2.43.35-.35.75-.63,1.11-1a5.75,5.75,0,0,1,1.26-.94,2.09,2.09,0,0,1,3.07,1,11.84,11.84,0,0,1,.59,2.15c.24.84.49,1.68.74,2.53Q168.62,528.47,169.35,531Z"/><path d="M324.69,251.68a64,64,0,0,0,8,1.11,40.86,40.86,0,0,0,5.19,0,31.07,31.07,0,0,1-5.54,5.15,36,36,0,0,1-8.15,4.67A94.88,94.88,0,0,0,324.69,251.68Z"/><path class="cls-5" d="M253.51,389.25c1.36,3.66,1,8.68.9,12.53-.09,4.67-.83,9.52-3,13.59-1.2,1.21-2.36,2.46-3.45,3.78a.47.47,0,0,0,.13.71,16.37,16.37,0,0,1-2.74,2.15c-3.06,1.92-8.47,3.4-11.58.71-2.7-2.32-.92-6.78-2.18-9.76-1.87-4.42-7.56-5.38-11.77-4.47C208,411.07,203,425.14,199.19,435.06c-4.61,12.1-13.07,27.49-28.61,23.35a23.37,23.37,0,0,1-3.93-1.44c-.38-.18-.75-.37-1.12-.57a35.27,35.27,0,0,1-12-11.08c-4.28-6.11-6.1-13.36-9.54-19.9-2.7-5.14-6.46-9.6-12.17-11.35-4.42-1.36-9.77-1.05-13.06,2.56-2.36,2.58-2.7,6.27-4.75,9-1.93,2.61-5.19,3.33-8.25,2.67-7.74-1.66-10.63-9.25-9.37-16.46a38,38,0,0,1,4.09-11h0l.23-.43.58-.35a61.53,61.53,0,0,1,13.94-5.51c8.28-2.39,16.68-4.44,25.11-6.22a383.29,383.29,0,0,1,51.13-7.27c8.38-.61,16.79-1,25.19-1s17,.36,25.14,2.47C245.82,383.58,251.89,384.91,253.51,389.25Z"/><path class="cls-2" d="M47.85,139.84c2.46,5-.46,10.66-4.58,14a27.44,27.44,0,0,1-7.15,4.21q-5-7.51-9.43-15.42c-.24-.42-.48-.85-.71-1.28q-3.19-5.81-6-11.8c-.14-.3-.29-.6-.43-.91a218.13,218.13,0,0,1-8.4-20.76c-1.07-3.12-2.08-6.26-3-9.42a41.44,41.44,0,0,1,3.73-2c7.37-3.43,15-6.32,22.55-9.44l15.73-6.52c3.88-.21,7.76-.4,11.63-.5,18.35-.47,37.83,1.42,52.68,13.29a45.89,45.89,0,0,1,5.47,5.14,187.36,187.36,0,0,0-46.56,60.74,129.82,129.82,0,0,0-10.45,31.48q-4.18-4.17-8.14-8.59l-.76-.86q-5-5.64-9.58-11.61c7.15-3.22,13.68-8.09,16.81-15.38,3-7.09,1.5-16.1-4.41-20.57a11.3,11.3,0,0,1,4.9.76.5.5,0,0,0,.39-.92,12.18,12.18,0,0,0-6.53-.69h0a14.3,14.3,0,0,0-1.47.35,11.8,11.8,0,0,0-6.31,4.66c-.2.31-.39.62-.57.94a12.51,12.51,0,0,0-1.39,4.25.5.5,0,0,0,1,.13A11.38,11.38,0,0,1,47.85,139.84Z"/><path d="M246.53,195.33c-14.36,9.23-18.58,25.8-17.46,42a119.67,119.67,0,0,0,2.77,18.48,75.86,75.86,0,0,1,14.25-9.36,80.4,80.4,0,0,1,26.66-8.13l1-.11a75.74,75.74,0,0,1,20.78.55q1.62.27,3.21.63c.33.06.67.14,1,.22,8.18,1.87,16.05,5,24.28,6.57l.43.08a72.7,72.7,0,0,0-5.17-22.18c-5.69-13.78-16.24-26-30.09-32A45,45,0,0,0,246.53,195.33Zm85.85,62.6a31.07,31.07,0,0,0,5.54-5.15,40.86,40.86,0,0,1-5.19,0,64,64,0,0,1-8-1.11,94.88,94.88,0,0,1-.46,10.92A36,36,0,0,0,332.38,257.93Zm3.7-69.07a52.71,52.71,0,0,0-29.89-19.41c-12.6-3.1-26.06-3.41-39-3-13.37.42-27.12,1.78-40.06,5.29-11.54,3.12-23.08,9.17-28.8,20.18-6.23,12-1.3,26,2.08,38.09,3.2,11.5,7.43,23.39,15.81,32.2a39.87,39.87,0,0,0,14.93,10c.5.19,1,.36,1.51.52.3.44.6.88.91,1.31,1.92,2.74,3.92,5.42,6,8q-1.6-3.63-3-7.34h0c-.14-.36-.27-.73-.4-1.1a140.72,140.72,0,0,1-4.34-13.85c-.09-.32-.17-.65-.25-1v0c-.1-.4-.2-.79-.29-1.19s-.18-.72-.26-1.08c-2.19-9.27-3.6-18.87-3.08-28.38.46-8.29,2.59-16.62,7.37-23.49a39.17,39.17,0,0,1,16.07-13.07,46.51,46.51,0,0,1,42,2.09c13.43,7.64,23.18,21,27.75,35.62a76.89,76.89,0,0,1,3.24,17.2c6.66,1.08,13.17.51,19.72-.24-1,2.07-2.65,3.63-4.22,5.34-1.45,2.64-4.06,4.87-6.32,6.68a37.46,37.46,0,0,1-9.5,5.51q-.36,3.3-.91,6.57l1-.3,1.2-.38c9.44-3.09,18.4-7.6,23.38-16.77.41-.74.77-1.5,1.11-2.27.91-1.69,1.13-3.44,1.74-5.23h.09c2.28-8.8,1.24-18.47-1.12-27.11A86.29,86.29,0,0,0,336.08,188.86ZM243,286c12.85,14.47,32.46,26,51.52,19.37,12.53-4.35,20.34-15.69,26.28-27.83.45-1.91.86-3.85,1.21-5.79.07-.36.13-.72.19-1.09q.62-3.5,1-7a.51.51,0,0,1,.05-.48,96.37,96.37,0,0,0,.51-11.64c-6.24-1.3-12.38-3.18-18.64-4.3q-3.51-.63-7.07-1l-1.07-.11a107,107,0,0,0-17.72-.33c-1.8.11-3.59.27-5.37.47l-1,.11a110.51,110.51,0,0,0-40.15,13,136.24,136.24,0,0,0,4.61,14.49c.13.36.27.72.41,1.08q2,5.11,4.32,10.05C242.33,285.27,242.64,285.62,243,286ZM323,271.41c-.13.71-.26,1.42-.41,2.13-.27,1.38-.56,2.76-.88,4.13q-1,2-2,4a76.45,76.45,0,0,1-7.1,11.11c-5.49,7-12.61,12.44-21.06,14.45-9,2.15-18.5.48-26.91-3.3-8.11-3.64-15-9.2-21-15.75-.85-.9-1.67-1.83-2.48-2.78a145.54,145.54,0,0,1-9-11.79,41.27,41.27,0,0,1-18.23-12.52c-9.37-11-13.14-25.52-16.63-39.2-1.7-6.68-3.53-13.57-2.81-20.52a29.26,29.26,0,0,1,6.35-15c7.85-9.93,20.1-14.49,32.13-17a202.25,202.25,0,0,1,43-4c13.45.14,27.67,1,40.19,6.34,11.12,4.77,19.49,13.55,25.63,23.8,5.83,9.73,10.21,20.58,11.68,31.88a49.17,49.17,0,0,1-.58,17.15,1.49,1.49,0,0,0-.26.52c-.19.7-.28,1.41-.47,2.1a10.44,10.44,0,0,0-.39,1.63l-.11.07a31.49,31.49,0,0,1-4,7.71c-5.51,7.68-14,11.55-22.77,14.3l-1.2.36Z"/><path class="cls-6" d="M513.19,244.46c.83,13.81-3.6,27-9.47,39.34a330.75,330.75,0,0,1-19.41,34.62,383.2,383.2,0,0,1-53.66,66.76L430.17,372c0-.47-.62-.51-.88-.24a244.75,244.75,0,0,0-38.18,50.46,88.41,88.41,0,0,0-6.75-7.45l-.75-.72a89.73,89.73,0,0,0-46.54-23.66,61.68,61.68,0,0,0,5.71-28c23.79-13.88,41-37.8,48.53-64.25,9.13-31.87,3.19-65.92-12.9-94.55a151,151,0,0,0-28.08-35.83c8.33.6,16.76-2.24,23.65-7.13,10.27-7.32,16.35-19,19.79-30.9a135.3,135.3,0,0,0,5-30.32,229.07,229.07,0,0,1,86.59,77.22A220.31,220.31,0,0,1,502,206.49C507.54,218.47,512.38,231.18,513.19,244.46Z"/><path class="cls-3" d="M113.29,245.44a79.22,79.22,0,0,1,7.76,16.67,19.11,19.11,0,0,0-3.57-1,17.14,17.14,0,0,0-2.13-.24.46.46,0,0,0-.74,0c-5.5-.11-10.83,2.14-15.58,4.83-3.4,1.92-6.72,4-10,6.12l-.93.6c-3,2-6.06,4-9.1,5.9-2.89,1.85-5.77,3.7-8.67,5.54a111,111,0,0,1-2.82-20.27c0-.53,0-1.06-.07-1.59s-.05-1.18-.07-1.77c-.41-12.47.55-30.13,14.81-34.87C95.66,220.85,107.17,235.51,113.29,245.44Z"/><path class="cls-4" d="M296.92,246.06l-1.8,14.46c-.68,5.48-1.2,16.44-8.92,16.46-9,0-10.31-12.92-11.28-19.39a108.89,108.89,0,0,1-1.09-11.39c1.78-.2,3.57-.36,5.37-.47A107,107,0,0,1,296.92,246.06Z"/><path class="cls-6" d="M66.41,250.22c-.2,3.38-.27,6.83-.19,10.29-9.13-11.63-11.37-28.93-4.34-42h0c.26-.49.54-1,.83-1.44h0a31.5,31.5,0,0,1,3.91-5.15c5-5.38,11.53-6.5,18.63-6.16a79.11,79.11,0,0,1,19.83,3.53c5.51,1.73,11,4,15.56,7.64,5,4,7.71,9.35,9.59,15.35a161.52,161.52,0,0,1,7,39.68A65.55,65.55,0,0,0,126,284.29a81.08,81.08,0,0,0-2.45-17.06h0l-.33-1.23c-.18-.68-.37-1.34-.57-2h0c-.14-.45-.27-.9-.42-1.34a80.09,80.09,0,0,0-6.21-14.45c-5.74-10.37-15.69-24.52-29-24.61C73.11,223.47,67.1,238.54,66.41,250.22Z"/><path d="M44.06,169.13l.19.26-.2-.25Z"/><path class="cls-6" d="M68.39,285.06c-3.73,2.35-7.51,4.56-11.89,5.42-.52.1-.6,1,0,1h.13l1,0h.06c5.54,1,10.51,3.72,15.91,5.18a59.19,59.19,0,0,0,9.93,15.45c-5.25,9.72-8.45,21.4-6.73,32.08,1.06,6.56,5.44,11.57,9.67,16.42,1.07,1.23,2.17,2.43,3.32,3.57-1.55,3.14-2.87,6.39-4.18,9.47a117.46,117.46,0,0,0-4.35,11.68,611.28,611.28,0,0,1-45.86-75.43c-3.33-6.51-6.6-13.25-7.24-20.64-.67-7.9,1.32-15.79,3-23.44Q36.41,242.46,43,219.45q5.25-18.25,11.4-36.23,4,4.47,8.29,8.7a91.17,91.17,0,0,0-1,24.9h0a39,39,0,0,0-4.89,19.86,40.56,40.56,0,0,0,9.49,25.5,104.49,104.49,0,0,0,3.12,22.22Z"/><path d="M248,419.15c1.09-1.32,2.25-2.57,3.45-3.78a17.26,17.26,0,0,1-3.32,4.49A.47.47,0,0,1,248,419.15Z"/><path class="cls-2" d="M77.7,343.23c-1.29-10.19,1.64-21.09,6.56-30.33a45.88,45.88,0,0,0,18.45,12.28.49.49,0,0,0,.56-.16,25,25,0,0,0,11.14,1c0,3-.07,6.05-.24,9.1a41.37,41.37,0,0,1-4.88,17.67c-2.76,5.14-5.93,10-7.9,15.53-.32.92-.62,1.84-.89,2.77-.1.33-.19.66-.28,1a52.94,52.94,0,0,0-1.63,18.53,47.25,47.25,0,0,0-18.44,15.64,44.88,44.88,0,0,1,1.51-18.68h0c.11-.41.23-.81.35-1.22a108.63,108.63,0,0,1,4.18-11.45c1.35-3.22,2.72-6.69,4.33-10,.15-.31.3-.62.47-.92,2.73-5.48,6.23-10.53,11.55-13.47.56-.31.19-1.24-.38-.93-5.5,3-9.07,8.14-11.89,13.68-1.12-1.14-2.2-2.33-3.25-3.54C82.8,354.82,78.53,349.87,77.7,343.23Z"/><path class="cls-8" d="M248.13,419.86a.47.47,0,0,1-.13-.71c1.09-1.32,2.25-2.57,3.45-3.78"/><path class="cls-8" d="M267.87,385.21c-.26-9.64-4.3-18.9-8.95-27.3-.31-.56.62-.93.93-.37,4.72,8.54,8.8,18,9,27.79"/><path class="cls-8" d="M249.59,344.15c-5.09-6.84-5-15.6-6.25-23.68A35.57,35.57,0,0,0,235,301.9c-4.65-5.33-10.44-9.49-16.05-13.73-6-4.55-17.07-11.37-15.3-20.18.12-.63-.87-.76-1-.13-1.56,7.81,6.21,13.7,11.58,17.95,6.25,4.94,13,9.35,18.54,15.12,6,6.27,8.76,13.46,9.87,22,1,7.56,1.4,15.5,6.12,21.84A.5.5,0,0,0,249.59,344.15Z"/><path class="cls-8" d="M62.71,191.92a91.17,91.17,0,0,0-1,24.9h0a39,39,0,0,0-4.89,19.86,40.56,40.56,0,0,0,9.49,25.5,104.49,104.49,0,0,0,3.12,22.22l-1,.65c-3.73,2.35-7.51,4.56-11.89,5.42-.52.1-.6,1,0,1h.13l1,0h.06a26.74,26.74,0,0,0,3.37-.22,31.78,31.78,0,0,0,9.46-2.86q1.09,3.55,2.51,6.95l.06.14q.24.58.51,1.17a59.19,59.19,0,0,0,9.93,15.45c-5.25,9.72-8.45,21.4-6.73,32.08,1.06,6.56,5.44,11.57,9.67,16.42,1.07,1.23,2.17,2.43,3.32,3.57-1.55,3.14-2.87,6.39-4.18,9.47a117.46,117.46,0,0,0-4.35,11.68,611.28,611.28,0,0,1-45.86-75.43c-3.33-6.51-6.6-13.25-7.24-20.64-.67-7.9,1.32-15.79,3-23.44Q36.41,242.46,43,219.45q5.25-18.25,11.4-36.23"/><path class="cls-8" d="M36.12,158.06q-5-7.51-9.43-15.42c-.24-.42-.48-.85-.71-1.28q-3.19-5.81-6-11.8c-.14-.3-.29-.6-.43-.91a218.13,218.13,0,0,1-8.4-20.76c-1.07-3.12-2.08-6.26-3-9.42a41.44,41.44,0,0,1,3.73-2c7.37-3.43,15-6.32,22.55-9.44l15.73-6.52c3.88-.21,7.76-.4,11.63-.5,18.35-.47,37.83,1.42,52.68,13.29a45.89,45.89,0,0,1,5.47,5.14,187.36,187.36,0,0,0-46.56,60.74,129.82,129.82,0,0,0-10.45,31.48"/><path class="cls-8" d="M35.15,158.42a18.11,18.11,0,0,1-7.72,1c-5-.51-10.14-4.41-10.27-9.77-.1-4.28,4.08-8,8.18-7.41Q29.89,150.54,35.15,158.42Z"/><path class="cls-8" d="M36.71,158.93a27.54,27.54,0,0,0,7.77-4.8c4.36-3.82,7-10.07,3.94-15.34a10.79,10.79,0,0,1,7-4.89h0c6.27,3.94,7.92,13,4.94,20-3.07,7.17-9.56,11.82-16.53,14.93l-1,.42c-1.4.6-2.81,1.13-4.21,1.61C29.44,174,18.69,175,10.17,169.49c-8-5.22-10.85-14.55-7.27-23.42,3-7.45,9.26-12.42,16.19-16.06q2.67,5.67,5.67,11.19a8.67,8.67,0,0,0-8.39,6.4c-1.42,5.59,3.4,10.87,8.47,12.35a17.64,17.64,0,0,0,10.89-.65"/><path class="cls-8" d="M55.61,132.85h0a14.3,14.3,0,0,0-1.47.35,11.8,11.8,0,0,0-6.31,4.66c-.2.31-.39.62-.57.94a12.51,12.51,0,0,0-1.39,4.25.5.5,0,0,0,1,.13,11.38,11.38,0,0,1,1-3.34c2.46,5-.46,10.66-4.58,14a27.44,27.44,0,0,1-7.15,4.21"/><path class="cls-8" d="M54,181.26q-5-5.64-9.58-11.61c7.15-3.22,13.68-8.09,16.81-15.38,3-7.09,1.5-16.1-4.41-20.57"/><path class="cls-8" d="M53.65,182.37a785.11,785.11,0,0,0-22.28,78.18c-1.77,7.71-3.89,15.57-4.26,23.51-.34,7.33,1.58,14.09,4.65,20.68,6.35,13.69,14,26.91,21.74,39.86q12.86,21.52,27.42,41.95h0c-2,6.81-2.89,13.83-1.59,20.88a70.32,70.32,0,0,0-7.17,13.42c-6.65,16.41-8.41,35.23-5.77,52.68,2.56,17,10.31,37,26.34,45.51,8.4,4.45,18.22,4.66,27.5,4.43h0a56.59,56.59,0,0,0,15.6,23c9.44,8.37,21.48,12.79,33.73,15.1,13.59,2.55,27.69,3.2,41.49,3.31a208,208,0,0,0,42.7-3.68c24-4.82,47.28-15.43,64.49-33.15,8.85-9.1,15.13-19.85,20.41-31.32,6-13.08,11.58-26.1,19.23-38.36,8.61-13.82,18.75-27.72,26-42.63a85,85,0,0,1,6.88,7.67.5.5,0,0,0,.86-.1,243.92,243.92,0,0,1,37.58-50q.24,6.56.47,13.1c0,.48.62.51.89.25a384.12,384.12,0,0,0,50.7-61.7A379.12,379.12,0,0,0,501,291.5c6.12-11.73,11.69-24.16,13-37.47,1.36-13.48-2.26-26.8-7.27-39.19a214.73,214.73,0,0,0-15.65-31.08,230,230,0,0,0-43.42-52.14A227.5,227.5,0,0,0,398.83,98.3a161,161,0,0,0-6.35-52C386.09,24.4,372.81-1.08,346.34.44,339.07.85,332,3,325.14,5.23c-7.34,2.44-14.54,5.25-21.68,8.22s-13.95,5.95-20.87,9a129.4,129.4,0,0,0-18,9.31c-6.56,4.25-12.73,10-16.77,16.79-34.51.55-68.56,10.72-98.2,28.38a204.9,204.9,0,0,0-29,20.88,53.87,53.87,0,0,0-21.26-14c-14.88-5.46-30.81-5.21-46.51-4.38l-3,.16h0l-2.74,1.14h0l-16.75,7C22.92,90.77,15,93.43,7.93,97.41l-.08,0c-.3.16-.59.34-.88.51H7c.1.35.2.69.31,1a216.46,216.46,0,0,0,11.39,30.08c-6.79,3.56-12.94,8.38-16.22,15.51C-1.53,153.25.19,163,7.8,169c8.29,6.54,19.32,6.35,29,3.46a64.26,64.26,0,0,0,6.67-2.4c1.37,1.79,2.78,3.57,4.21,5.32q2.89,3.54,6,7"/><path class="cls-8" d="M66.22,260.51c-9.13-11.63-11.37-28.93-4.34-42h0c.26-.49.54-1,.83-1.44h0a31.5,31.5,0,0,1,3.91-5.15c5-5.38,11.53-6.5,18.63-6.16a79.11,79.11,0,0,1,19.83,3.53c5.51,1.73,11,4,15.56,7.64,5,4,7.71,9.35,9.59,15.35a161.52,161.52,0,0,1,7,39.68A65.55,65.55,0,0,0,126,284.29a81.08,81.08,0,0,0-2.45-17.06h0l-.33-1.23c-.18-.68-.37-1.34-.57-2h0c-.14-.45-.27-.9-.42-1.34a80.09,80.09,0,0,0-6.21-14.45c-5.74-10.37-15.69-24.52-29-24.61-14-.1-20,15-20.65,26.65C66.21,253.6,66.14,257.05,66.22,260.51Z"/><path class="cls-8" d="M114.61,260.84c-5.5-.11-10.83,2.14-15.58,4.83-3.4,1.92-6.72,4-10,6.12l-.93.6c-3,2-6.06,4-9.1,5.9-2.89,1.85-5.77,3.7-8.67,5.54a111,111,0,0,1-2.82-20.27c0-.53,0-1.06-.07-1.59s-.05-1.18-.07-1.77c-.41-12.47.55-30.13,14.81-34.87,13.49-4.48,25,10.18,31.12,20.11a79.22,79.22,0,0,1,7.76,16.67,19.11,19.11,0,0,0-3.57-1,17.14,17.14,0,0,0-2.13-.24"/><path class="cls-8" d="M115.46,280.16c-.87,4.94-2.78,11.38-7.8,13.63-6.63,3-12-3.5-14.58-8.76a43.76,43.76,0,0,1-3.4-9.69c4.74-3.6,9.75-7,15.42-8.93a25.59,25.59,0,0,1,10.24-1.31A41.65,41.65,0,0,1,115.46,280.16Z"/><path class="cls-8" d="M76.56,300.43A66.85,66.85,0,0,1,71.45,288c6.1-3,11.63-7.55,17-11.66l.37-.28a40.92,40.92,0,0,0,4.86,12.14c2.81,4.62,8.07,8.91,13.79,6.8,4.89-1.8,7.3-7.28,8.45-12a42.65,42.65,0,0,0,.47-17.78,23.86,23.86,0,0,1,6.06,1.53,80.21,80.21,0,0,1,2.67,18.94s0,0,0,0a64.55,64.55,0,0,0-8.43,18.19c-2,7-2.16,14.07-2.24,21.17a24,24,0,0,1-12.14-1.42.48.48,0,0,0-.54.12,45.48,45.48,0,0,1-17-11.78c-.25-.25-.48-.51-.71-.76A57,57,0,0,1,76.56,300.43Z"/><path class="cls-8" d="M119.91,522.55c-7.2.24-14.52,0-21.33-2.15C80.84,514.76,71.67,495,68.2,478.06a102,102,0,0,1,3-51.77,74,74,0,0,1,8.38-17.48c.26-.38.51-.76.78-1.14a46.58,46.58,0,0,1,18.3-16,54.73,54.73,0,0,0,1.45,7.91c-.25.15-.48.32-.72.48a4.31,4.31,0,0,1-.88,1.84l.49-.37c-3.06,6.09-5.45,13.3-2.92,19.93a13.14,13.14,0,0,0,11.76,8.08,8.51,8.51,0,0,0,5.92-2.15c2.76-2.55,3-6.56,5.18-9.45,4.54-6,13.93-3.84,18.79.55,6.09,5.51,8,14.16,11.44,21.33a39.65,39.65,0,0,0,13.37,15.91,29.59,29.59,0,0,0,3.18,1.85A61.47,61.47,0,0,0,173.89,478q-1.09,9.15-2.21,18.29c-.59,4.92-.41,10.9-4.3,14.53-3.32,3.11-8.06,4.95-12.29,6.47-.64.23-1.27.44-1.92.65l-.89.28a104.74,104.74,0,0,1-25.13,4c-2.05.11-4.12.23-6.21.31Z"/><path class="cls-8" d="M252.6,526.56c-2.24-1.36-5.33-3.9-8.17-3-2.6.81-3.15,4.07-3.81,6.32s-1.32,4.7-1.88,7.08a62.89,62.89,0,0,1-7.47,1.32c-11.21,1.31-22.48-.19-33.63-1.34-8.73-.89-18-.84-26.5-3.33L169.52,528c-.63-2.15-1.18-4.34-1.89-6.46a3.65,3.65,0,0,0-1.58-2.37c-2.11-1.13-4.34,1-5.71,2.37a40,40,0,0,0-3.09,3.43,21.18,21.18,0,0,1-3.74-6.13,56.49,56.49,0,0,0,11.08-4.82,13.58,13.58,0,0,0,7.22-10.6c1.19-8,2.1-16,3-24a72,72,0,0,0,18.95,19.48,115.62,115.62,0,0,0-1.49,24.45c0,.64,1,.51,1-.13a113.84,113.84,0,0,1,1.41-23.69c19.36,13.13,44,16,66.74,12.84q2.76-.39,5.55-.9a31.7,31.7,0,0,1-10.81,17.21C255,528,253.78,527.28,252.6,526.56Z"/><path class="cls-8" d="M255.31,529.38a42.93,42.93,0,0,1-15.49,7.28c.27-1.11.55-2.22.85-3.33.8-3,1.59-9.7,6-8.74,2.9.63,5.66,3,8.17,4.52Z"/><path class="cls-8" d="M170,533.23c-.87-.27-1.75-.59-2.6-.94a27,27,0,0,1-9.46-6.52c.3-.39.62-.77,1-1.15.72-.83,1.44-1.66,2.23-2.43.35-.35.75-.63,1.11-1a5.75,5.75,0,0,1,1.26-.94,2.09,2.09,0,0,1,3.07,1,11.84,11.84,0,0,1,.59,2.15c.24.84.49,1.68.74,2.53q.75,2.53,1.48,5.07l.33,1.11A6.79,6.79,0,0,0,170,533.23Z"/><path class="cls-8" d="M170,533.23h0"/><path class="cls-8" d="M308.65,396.55a45.82,45.82,0,0,1,16.75,14.92c6.65,10,7.72,22.45,6.73,34.1a74.9,74.9,0,0,1-9.2,30.78c-11.38,20-33,29.64-54.7,33.88l-.13,0-.92.17c-22,4.13-45.86,2.82-65.85-8a68.39,68.39,0,0,1-6.47-4c-.31-.2-.61-.41-.91-.62a70.79,70.79,0,0,1-19-20h0c-.31-.48-.61-1-.9-1.46a60.86,60.86,0,0,1-7.2-18.28,20.07,20.07,0,0,0,13.57,1.26c6.15-1.71,10.7-6.41,13.94-11.73,7-11.52,8.49-28.33,20.73-36.05a13.76,13.76,0,0,1,10.25-2.18c4.34.94,5.83,4,5.9,8.12,0,2.65.3,5.23,2.89,6.57a11.17,11.17,0,0,0,8.2.4,17.2,17.2,0,0,0,9.91-8.57l0,0c3-3,6.19-5.82,9-9a30,30,0,0,0,7-14.49,34.89,34.89,0,0,0,.55-6.08c13.12,1.49,27.2,3.71,38.93,9.79Z"/><path class="cls-8" d="M251.45,415.37a17.26,17.26,0,0,1-3.32,4.49,16.37,16.37,0,0,1-2.74,2.15c-3.06,1.92-8.47,3.4-11.58.71-2.7-2.32-.92-6.78-2.18-9.76-1.87-4.42-7.56-5.38-11.77-4.47C208,411.07,203,425.14,199.19,435.06c-4.61,12.1-13.07,27.49-28.61,23.35a23.37,23.37,0,0,1-3.93-1.44c-.38-.18-.75-.37-1.12-.57a35.27,35.27,0,0,1-12-11.08c-4.28-6.11-6.1-13.36-9.54-19.9-2.7-5.14-6.46-9.6-12.17-11.35-4.42-1.36-9.77-1.05-13.06,2.56-2.36,2.58-2.7,6.27-4.75,9-1.93,2.61-5.19,3.33-8.25,2.67-7.74-1.66-10.63-9.25-9.37-16.46a38,38,0,0,1,4.09-11h0l.23-.43.58-.35a61.53,61.53,0,0,1,13.94-5.51c8.28-2.39,16.68-4.44,25.11-6.22a383.29,383.29,0,0,1,51.13-7.27c8.38-.61,16.79-1,25.19-1s17,.36,25.14,2.47c4,1,10.08,2.36,11.7,6.7,1.36,3.66,1,8.68.9,12.53C254.32,406.45,253.58,411.3,251.45,415.37Z"/><path class="cls-8" d="M101.4,371.59c.16-.56.33-1.1.51-1.65,3.35-10.26,11-18.48,12.71-29.34a92.62,92.62,0,0,0,.76-14.7c0-.34,0-.67,0-1a81.21,81.21,0,0,1,1-15.8,63.52,63.52,0,0,1,8.68-21.62c.32-.51.64-1,1-1.51q1-1.54,2.16-3a63.55,63.55,0,0,1,9.06-9.69c.32-.29.64-.57,1-.83a61.6,61.6,0,0,1,14.62-9.14c.59-.26.21-1.19-.38-.93a62.68,62.68,0,0,0-14.31,8.84,165.27,165.27,0,0,0-6.8-38.45c-1.8-5.93-4.25-11.39-9-15.57s-10.33-6.61-16.09-8.49a80.53,80.53,0,0,0-21-3.88c-5.84-.28-11.69.17-16.52,3.79a26.73,26.73,0,0,0-6.32,6.84,90.53,90.53,0,0,1,1-22.65l.21-1.21A124.7,124.7,0,0,1,72,164.82,178.82,178.82,0,0,1,103,116.61a196,196,0,0,1,17.58-17.37l.73-.64a204.21,204.21,0,0,1,73.29-40.55,192.12,192.12,0,0,1,52.66-8.48,31.9,31.9,0,0,0-4.21,15.68c0,11.46,8.59,23.11,20.54,23.91.63,0,.77-1,.13-1-11.88-.8-20.06-12.63-19.66-24a31.81,31.81,0,0,1,4.35-14.64c.19-.33.38-.66.59-1a49.93,49.93,0,0,1,14-14.52c10.75-7.52,23.44-12.28,35.44-17.41,12.78-5.47,26-11.18,39.64-14,7-1.47,14.31-1.89,21.17.35a35.23,35.23,0,0,1,13.05,7.94c8,7.48,13.08,17.71,16.66,27.9a157.15,157.15,0,0,1,8.68,58.94l-.06,1.1a152.68,152.68,0,0,1-2.39,20.24c-2.44,13.08-7,26.56-16.54,36.23-7.62,7.72-18.72,12.6-29.53,11.38-.59-.06-1.17-.15-1.76-.26.44.39.87.79,1.3,1.2,21.9,20.33,38,47.17,43.77,76.62A114.71,114.71,0,0,1,372.66,334a101.34,101.34,0,0,1-29.92,27.28c-.32.2-.65.39-1,.57,0,.38,0,.75,0,1.13a60.29,60.29,0,0,1-.65,10.48c0,.35-.11.7-.17,1.05"/><path class="cls-8" d="M100.22,372.11a52.94,52.94,0,0,0-1.63,18.53,47.25,47.25,0,0,0-18.44,15.64,44.88,44.88,0,0,1,1.51-18.68h0c.11-.41.23-.81.35-1.22a108.63,108.63,0,0,1,4.18-11.45c1.35-3.22,2.72-6.69,4.33-10,.15-.31.3-.62.47-.92,2.73-5.48,6.23-10.53,11.55-13.47.56-.31.19-1.24-.38-.93-5.5,3-9.07,8.14-11.89,13.68-1.12-1.14-2.2-2.33-3.25-3.54-4.22-4.89-8.49-9.84-9.32-16.48-1.29-10.19,1.64-21.09,6.56-30.33a45.88,45.88,0,0,0,18.45,12.28.49.49,0,0,0,.56-.16,25,25,0,0,0,11.14,1c0,3-.07,6.05-.24,9.1a41.37,41.37,0,0,1-4.88,17.67c-2.76,5.14-5.93,10-7.9,15.53-.32.92-.62,1.84-.89,2.77"/><path class="cls-8" d="M341,374.49a60,60,0,0,1-5.08,16.11.51.51,0,0,0,.4.69A88.63,88.63,0,0,1,383.16,415c-5.93,12.27-13.82,23.84-21.13,35a244.42,244.42,0,0,0-18.87,34.12c-5.39,12.1-10.48,24.46-18.6,35.05-32.69,42.66-91.82,48-141.35,43.21-14.35-1.39-29.16-4.25-41.29-12.49a55.48,55.48,0,0,1-20.64-26.49c9.52-.27,19.11-1,28.35-3.44,1-.26,2-.55,3-.86a22.46,22.46,0,0,0,4,6.72c.21.26.44.51.67.76a24.71,24.71,0,0,0,2.95,2.75,29.7,29.7,0,0,0,10.15,5.07l1.13.32c6.29,1.68,13.09,2,19.37,2.52,15.06,1.25,32.32,4.31,47.6.89.36-.07.72-.16,1.07-.25a42.63,42.63,0,0,0,16.71-8l.82-.67.19-.16A32.33,32.33,0,0,0,268,511.31h0c19.87-3.75,40-12.05,52.08-28.76a71.19,71.19,0,0,0,12.15-30.06c1.88-11.22,2-23.61-2.25-34.33-4.17-10.53-11.71-17.57-20.84-22.39-.29-.16-.59-.31-.89-.46-11.9-6-26.33-8.46-39.42-10l-1-.12c0,.32,0,.65,0,1a33.9,33.9,0,0,1-.54,6.07,29.9,29.9,0,0,1-7.92,15.2c-1.9,2-3.94,3.95-5.94,5.89a22.6,22.6,0,0,0,.91-2.86,44.45,44.45,0,0,0,1-11.79c-.07-3.45.29-7.73-1.41-10.87-1.59-2.94-5-4.1-8-5.1A66.65,66.65,0,0,0,234,380c-8.56-1.16-17.26-1-25.88-.76A381.8,381.8,0,0,0,152.44,385q-13.66,2.43-27.13,5.85c-7.71,2-15.79,3.78-22.9,7.48-.47.24-.93.49-1.38.76a53.38,53.38,0,0,1-1.39-7.82l-.09-1.06a52,52,0,0,1,1.58-17.64"/><path class="cls-8" d="M503.72,283.8a330.75,330.75,0,0,1-19.41,34.62,383.2,383.2,0,0,1-53.66,66.76L430.17,372c0-.47-.62-.51-.88-.24a244.75,244.75,0,0,0-38.18,50.46,88.41,88.41,0,0,0-6.75-7.45l-.75-.72a89.73,89.73,0,0,0-46.54-23.66,61.68,61.68,0,0,0,5.71-28c23.79-13.88,41-37.8,48.53-64.25,9.13-31.87,3.19-65.92-12.9-94.55a151,151,0,0,0-28.08-35.83c8.33.6,16.76-2.24,23.65-7.13,10.27-7.32,16.35-19,19.79-30.9a135.3,135.3,0,0,0,5-30.32,229.07,229.07,0,0,1,86.59,77.22A220.31,220.31,0,0,1,502,206.49c5.51,12,10.35,24.69,11.16,38C514,258.27,509.59,271.49,503.72,283.8Z"/><path class="cls-8" d="M353.46,227.38c-1.47-11.3-5.85-22.15-11.68-31.88-6.14-10.25-14.51-19-25.63-23.8-12.52-5.38-26.74-6.2-40.19-6.34a202.25,202.25,0,0,0-43,4c-12,2.49-24.28,7-32.13,17a29.26,29.26,0,0,0-6.35,15c-.72,6.95,1.11,13.84,2.81,20.52,3.49,13.68,7.26,28.22,16.63,39.2a41.27,41.27,0,0,0,18.23,12.52,145.54,145.54,0,0,0,9,11.79c.81.95,1.63,1.88,2.48,2.78,6,6.55,12.89,12.11,21,15.75,8.41,3.78,17.92,5.45,26.91,3.3,8.45-2,15.57-7.42,21.06-14.45a76.45,76.45,0,0,0,7.1-11.11q1.05-2,2-4c.32-1.37.61-2.75.88-4.13.15-.71.28-1.42.41-2.13l.63-.19,1.2-.36c8.78-2.75,17.26-6.62,22.77-14.3a31.49,31.49,0,0,0,4-7.71l.11-.07a10.44,10.44,0,0,1,.39-1.63c.19-.69.28-1.4.47-2.1a1.49,1.49,0,0,1,.26-.52A49.17,49.17,0,0,0,353.46,227.38Z"/><path class="cls-8" d="M273.83,246.2c1.78-.2,3.57-.36,5.37-.47a107,107,0,0,1,17.72.33"/><path class="cls-8" d="M298,246.17q3.56.39,7.07,1c6.26,1.12,12.4,3,18.64,4.3a96.37,96.37,0,0,1-.51,11.64.51.51,0,0,0-.05.48q-.37,3.52-1,7c-.06.37-.12.73-.19,1.09-.35,1.94-.76,3.88-1.21,5.79C314.81,289.65,307,301,294.47,305.34,275.41,312,255.8,300.44,243,286c-.31-.35-.62-.7-.92-1.06q-2.34-4.94-4.32-10.05c-.14-.36-.28-.72-.41-1.08a136.24,136.24,0,0,1-4.61-14.49,110.51,110.51,0,0,1,40.15-13"/><path class="cls-8" d="M231.84,255.83a119.67,119.67,0,0,1-2.77-18.48c-1.12-16.22,3.1-32.79,17.46-42a45,45,0,0,1,41.66-3.21c13.85,6,24.4,18.2,30.09,32a72.7,72.7,0,0,1,5.17,22.18l-.43-.08c-8.23-1.61-16.1-4.7-24.28-6.57-.33-.08-.67-.16-1-.22q-1.59-.36-3.21-.63a75.74,75.74,0,0,0-20.78-.55l-1,.11a80.4,80.4,0,0,0-26.66,8.13A75.86,75.86,0,0,0,231.84,255.83Z"/><path class="cls-8" d="M324.69,251.68a64,64,0,0,0,8,1.11,40.86,40.86,0,0,0,5.19,0,31.07,31.07,0,0,1-5.54,5.15,36,36,0,0,1-8.15,4.67A94.88,94.88,0,0,0,324.69,251.68Z"/><path class="cls-8" d="M351.71,245.35h-.09c-.61,1.79-.83,3.54-1.74,5.23-.34.77-.7,1.53-1.11,2.27-5,9.17-13.94,13.68-23.38,16.77l-1.2.38-1,.3q.56-3.27.91-6.57a37.46,37.46,0,0,0,9.5-5.51c2.26-1.81,4.87-4,6.32-6.68,1.57-1.71,3.24-3.27,4.22-5.34-6.55.75-13.06,1.32-19.72.24a76.89,76.89,0,0,0-3.24-17.2c-4.57-14.63-14.32-28-27.75-35.62a46.51,46.51,0,0,0-42-2.09,39.17,39.17,0,0,0-16.07,13.07c-4.78,6.87-6.91,15.2-7.37,23.49-.52,9.51.89,19.11,3.08,28.38.08.36.17.72.26,1.08s.19.79.29,1.19v0c.08.32.16.65.25,1a140.72,140.72,0,0,0,4.34,13.85c.13.37.26.74.4,1.1h0q1.4,3.71,3,7.34c-2.09-2.59-4.09-5.27-6-8-.31-.43-.61-.87-.91-1.31-.5-.16-1-.33-1.51-.52a39.87,39.87,0,0,1-14.93-10c-8.38-8.81-12.61-20.7-15.81-32.2-3.38-12.12-8.31-26.1-2.08-38.09,5.72-11,17.26-17.06,28.8-20.18,12.94-3.51,26.69-4.87,40.06-5.29,12.9-.4,26.36-.09,39,3a52.71,52.71,0,0,1,29.89,19.41,86.29,86.29,0,0,1,14.51,29.38C353,226.88,354,236.55,351.71,245.35Z"/><path class="cls-8" d="M115.35,260.87c-.24,0-.49,0-.74,0A.46.46,0,0,1,115.35,260.87Z"/><path class="cls-8" d="M298,246.17c-.75,6.69-1.51,13.38-2.59,20-.84,5.12-3.21,12.22-9.63,11.82-8.24-.51-10.13-10.54-11.29-16.94a110.78,110.78,0,0,1-1.64-14.74l1-.11a108.89,108.89,0,0,0,1.09,11.39c1,6.47,2.31,19.41,11.28,19.39,7.72,0,8.24-11,8.92-16.46l1.8-14.46Z"/><path class="cls-8" d="M374.63,93.92c-.58-11.23-2.88-22.59-5-33.61-1.83-9.43-3-21.22-9.82-28.57a16.09,16.09,0,0,0-10.5-5.45c-4.2-.27-8.1,1.53-11.47,3.87-4.57,3.17-8.62,7.12-12.8,10.76l-13.21,11.5c-6.46,5.63-14.75,11.72-17,20.46-2,7.7,2.39,14.22,8.6,18.36a75.37,75.37,0,0,0,12.16,6.15,132,132,0,0,1,15.63,7.85,120.74,120.74,0,0,1,15.64,11.12c1.11.93,2.21,1.88,3.28,2.85s1.8,1.89,2.8,2.64a1.16,1.16,0,0,0,1.24,0c.44-.2.91-.37,1.38-.54,1.13-.4,2.25-.85,3.35-1.34a35,35,0,0,0,6.33-3.6C372.62,111,375.09,102.82,374.63,93.92Z"/><path class="cls-8" d="M366.92,113.67A35.43,35.43,0,0,1,353.45,121a126.15,126.15,0,0,0-37.21-24.37c-6.64-2.85-14.55-5.93-18.66-12.26-5.55-8.54.18-17.48,6.45-23.64,7.26-7.15,15.37-13.57,23.05-20.27,6.62-5.75,15.4-15.85,25.25-12.54C362.52,31.33,365,43.24,367,52.44q3.25,15.27,5.42,30.74C373.89,93.72,375.59,105.67,366.92,113.67Z"/><path class="cls-8" d="M62.93,190.71c-.08.4-.15.81-.22,1.21q-4.27-4.23-8.29-8.7c-.27-.29-.52-.56-.77-.85h0l.38-1.1.76.86Q58.74,186.53,62.93,190.71Z"/><path class="cls-8" d="M44.25,169.39l-.2-.25h0Z"/><path class="cls-8" d="M36.71,158.93c-.32.13-.65.26-1,.37-.2-.29-.4-.59-.58-.88.32-.11.65-.23,1-.36C36.31,158.35,36.5,158.64,36.71,158.93Z"/><path class="cls-8" d="M55.61,132.85a12.18,12.18,0,0,1,6.53.69.5.5,0,0,1-.39.92,11.3,11.3,0,0,0-4.9-.76A10.85,10.85,0,0,0,55.61,132.85Z"/><path class="cls-8" d="M101.4,371.59l-.27,1-.09,0-.82-.43c.09-.33.18-.66.28-1C100.8,371.29,101.1,371.44,101.4,371.59Z"/><path class="cls-8" d="M73.62,296.67h0c.62.17.75-.82.14-1l-.68-.19c-4.09-1.19-8-3.05-12-4.23a26.6,26.6,0,0,0-3.34-.79c-.63-.11-.76.89-.13,1l.1,0C63.25,292.46,68.22,295.21,73.62,296.67Z"/><path class="cls-8" d="M341,374.48l.36-.07c.63-.12.51-1.12-.13-1h-.06a51.78,51.78,0,0,0-32.86,21.88c-.14.2-.27.4-.4.6a.5.5,0,0,0-.08.2c-.08.46.53.88.84.44,0,0,0,0,0,0l.51-.76A50.71,50.71,0,0,1,341,374.49Z"/></g></g></svg>