<svg xmlns="http://www.w3.org/2000/svg" xmlns:xlink="http://www.w3.org/1999/xlink" viewBox="0 0 1920 1080"><defs><style>.cls-1,.cls-7{fill:none;}.cls-2{fill:url(#linear-gradient);}.cls-3{fill:url(#linear-gradient-2);}.cls-4{fill:url(#linear-gradient-3);}.cls-5{fill:#6c797c;stroke-miterlimit:10;}.cls-5,.cls-7{stroke:#000;}.cls-6{fill:url(#linear-gradient-4);}.cls-7{stroke-linecap:round;stroke-linejoin:round;stroke-width:0.5px;}.cls-8{fill:url(#radial-gradient);}.cls-9{isolation:isolate;}.cls-10{clip-path:url(#clip-path);}.cls-11{fill:#9e9e9e;}.cls-12{fill:#9b9b9b;}.cls-13{fill:#979797;}.cls-14{fill:#929292;}.cls-15{fill:#8c8c8c;}.cls-16{fill:#888;}.cls-17{fill:#828282;}.cls-18{fill:#7f7f7f;}.cls-19{fill:#a6a6a6;}.cls-20{fill:#a3a3a3;}.cls-21{fill:#9d9d9d;}.cls-22{fill:#999;}.cls-23{fill:#959595;}.cls-24{fill:#8f8f8f;}.cls-25{fill:#f6f6f6;}.cls-26{fill:#ababab;}.cls-27{fill:#aaa;}.cls-28{fill:#a4a4a4;}.cls-29{fill:#a0a0a0;}.cls-30{fill:#535353;}.cls-31{fill:#2c2c2c;}.cls-32{fill:#b4b4b4;}.cls-33{fill:#b1b1b1;}.cls-34{fill:#0a0a0a;}.cls-35{fill:#525252;}.cls-36{fill:#949494;}.cls-37{fill:#5a5a5a;}.cls-38{fill:#ccc;}.cls-39{fill:#bababa;}.cls-40{fill:#d7d7d7;}.cls-41{fill:#848484;}.cls-42{fill:#bfbfbf;}.cls-43{fill:#bcbcbc;}.cls-44{fill:#838383;}.cls-45{fill:#e1e1e1;}.cls-46{fill:#c5c5c5;}.cls-47{fill:#ececec;}.cls-48{fill:#cacaca;}.cls-49{fill:#a2a2a2;}.cls-50{fill:#f5f5f5;}.cls-51{fill:#cecece;}.cls-52{fill:#1a1a1a;}.cls-53{fill:#f8f8f8;}.cls-54{fill:#858585;}.cls-55{fill:#d2d2d2;}.cls-56{fill:#d6d6d6;}.cls-57{fill:#d1d1d1;}.cls-58{fill:#adadad;}.cls-59{fill:#d8d8d8;}.cls-60{fill:#d5d5d5;}.cls-61{fill:#c3c3c3;}.cls-62{fill:#b6b6b6;}.cls-63{fill:#909090;}.cls-64{fill:#dadada;}.cls-65{fill:#b8b8b8;}.cls-66{fill:#dcdcdc;}.cls-67{fill:#c8c8c8;}.cls-68{fill:#eee;}.cls-69{fill:#8a8a8a;}.cls-70{fill:#ddd;}.cls-71{fill:#d4d4d4;}.cls-72{fill:#c1c1c1;}.cls-73{fill:#fff;}.cls-74{fill:url(#linear-gradient-5);}.cls-75{fill:#bca4f2;}.cls-76{font-size:36px;font-family:ComicNeue, Comic Neue;}.cls-77{letter-spacing:-0.04em;}.cls-78{letter-spacing:-0.03em;}.cls-79{letter-spacing:-0.03em;}.cls-80{letter-spacing:-0.04em;}</style><linearGradient id="linear-gradient" x1="970.5" y1="1021" x2="970.5" y2="38" gradientUnits="userSpaceOnUse"><stop offset="0" stop-color="#494f4a"/><stop offset="0.05" stop-color="#434841"/><stop offset="0.23" stop-color="#323527"/><stop offset="0.41" stop-color="#262715"/><stop offset="0.6" stop-color="#1e1f0a"/><stop offset="0.81" stop-color="#1c1c06"/></linearGradient><linearGradient id="linear-gradient-2" x1="982.5" y1="496.5" x2="982.5" y2="-2636.15" gradientUnits="userSpaceOnUse"><stop offset="0" stop-color="#e2f2e3"/><stop offset="0.1" stop-color="#e6f2b8"/><stop offset="0.21" stop-color="#eaf190"/><stop offset="0.32" stop-color="#edf16e"/><stop offset="0.44" stop-color="#eff054"/><stop offset="0.56" stop-color="#f1f042"/><stop offset="0.68" stop-color="#f2f037"/><stop offset="0.81" stop-color="#f2f033"/></linearGradient><linearGradient id="linear-gradient-3" x1="952" y1="818.64" x2="952" y2="-175.36" gradientUnits="userSpaceOnUse"><stop offset="0" stop-color="#e2eef2"/><stop offset="0.08" stop-color="#bed6db"/><stop offset="0.2" stop-color="#96bac1"/><stop offset="0.31" stop-color="#74a3ab"/><stop offset="0.43" stop-color="#5a929a"/><stop offset="0.55" stop-color="#48858e"/><stop offset="0.68" stop-color="#3d7d87"/><stop offset="0.81" stop-color="#397b85"/></linearGradient><linearGradient id="linear-gradient-4" x1="959.5" y1="778" x2="959.5" y2="-63" xlink:href="#linear-gradient-3"/><radialGradient id="radial-gradient" cx="1029.43" cy="99.34" r="98" gradientTransform="matrix(-0.23, -0.97, -0.97, 0.23, 1371.71, 1081.5)" gradientUnits="userSpaceOnUse"><stop offset="0" stop-color="#f3f3f3"/><stop offset="0.92" stop-color="#a9a9a9"/></radialGradient><clipPath id="clip-path"><path class="cls-1" d="M1088.06,139.77a87.42,87.42,0,0,0-1.14-14.11,86.85,86.85,0,0,0-15.65-37.27A87.23,87.23,0,0,0,1041,62.48a86.14,86.14,0,0,0-12.49-5.28,126.18,126.18,0,0,0-13.38-3.3A133.22,133.22,0,0,0,1001,52.77c-47,0-85.1,38.95-85.1,87s38.1,87,85.1,87a133.24,133.24,0,0,0,14.12-1.14,126.18,126.18,0,0,0,13.38-3.3h0A86.28,86.28,0,0,0,1052.43,210a129.35,129.35,0,0,0,10.14-8.69,131.33,131.33,0,0,0,8.7-10.14h0a86.57,86.57,0,0,0,15.65-37.27A87.51,87.51,0,0,0,1088.06,139.77Z"/></clipPath><linearGradient id="linear-gradient-5" x1="933.74" y1="1021" x2="933.74" y2="777.7" gradientUnits="userSpaceOnUse"><stop offset="0" stop-color="#494f4a" stop-opacity="0.2"/><stop offset="0.33" stop-color="#2a2c1c" stop-opacity="0.47"/><stop offset="0.81" stop-color="#1c1c06" stop-opacity="0.6"/></linearGradient></defs><title>Artboard 1</title><g id="Layer_3" data-name="Layer 3"><rect class="cls-2" x="396" y="38" width="1149" height="983"/><circle class="cls-3" cx="982.5" cy="496.5" r="426.5"/></g><g id="Layer_1" data-name="Layer 1"><polygon class="cls-4" points="1271.71 683.31 1449 953.97 455 953.97 699.66 686.86 1271.71 683.31"/><rect class="cls-5" x="455" y="953.38" width="994" height="33.09"/><polygon class="cls-6" points="1230 663.5 1380 892.5 539 892.5 746 666.5 1230 663.5"/><polygon class="cls-7" points="1380 892.5 539 892.5 746 666.5 1230 663.5 1380 892.5"/><path d="M1078.68,425.84q-.32-3.21-.81-6.39a4.38,4.38,0,0,0,.27-2c-.82-6.94-1.44-17-9.38-19.31a27.16,27.16,0,0,0-18.62,1.63,10.3,10.3,0,0,0-4.6,1.82c-8.74.38-17.55,1.38-26.23,2,.11-.16.24-.32.34-.5,1.38-2.59.59-6-.61-8.49a16.47,16.47,0,0,0-5.56-6.54,11.66,11.66,0,0,0-2.18-1.15,7.51,7.51,0,0,0-2.12-2.66c.07-2.7,0-5.41-.14-8.11a69,69,0,0,0-.71-7.32,7,7,0,0,0-1.25-3.2,22.08,22.08,0,0,0-2.71-2.76,127.38,127.38,0,0,0-10.1-8.46c.07-.49.12-1,.17-1.48a41,41,0,0,0-.21-7.18,27.66,27.66,0,0,0-.44-3.38c-.27-1.31-.52-3.84-2.15-4.2a3.7,3.7,0,0,0-1.8.18c-3.85,1.11-8.3,3.71-10.67,7a8.76,8.76,0,0,0-1.57,3.81,34,34,0,0,0-5.79-.16,32.27,32.27,0,0,0-15.74,5.12,8.64,8.64,0,0,0-3.78-.72,20.88,20.88,0,0,0-3.25.38,26.43,26.43,0,0,0-3.57.66c-.91.31-1.58,1.42-2.23,2.15l-5,5.63a9.4,9.4,0,0,0-1.53,2.07,4.47,4.47,0,0,0,.06,3.53,3.66,3.66,0,0,0-1.38.93,3.26,3.26,0,0,0-.8,3.37c.59,1.39,2.23,1.31,3.49,1.28.48,0,1-.05,1.43-.1.28.42.56.82.86,1.22a37.14,37.14,0,0,0-4.6,19.85,34.09,34.09,0,0,0,.73,5.59,13.7,13.7,0,0,0,2.44,5.72c-9.13.29-18.68-.49-25.78-6.26a6.1,6.1,0,0,0-5.44-1.25l-1-.64a6.69,6.69,0,0,0-1.28-.69c-3.54-4.41-7.38-8.59-11.32-12.62-7.4-7.55-15.08-14.79-22-22.81-7.49-8.72-14.5-17.82-23.44-25.13a10.52,10.52,0,0,0-1.81-1.2c-1.5-3.21-4.32-5.55-7.78-5.61a37.76,37.76,0,0,0-12-17.94,38.41,38.41,0,0,0-5.56-3.75,41,41,0,0,0-26.15-17.08,4.11,4.11,0,0,0-4.66,2.62c-2,1.59-2.65,5,.26,6.57l9.7,5.26c.86.47,1.94.94,3,1.47a7.85,7.85,0,0,0-5.46,6.46c0,.33-.06.65-.07.94a4.66,4.66,0,0,0-3.58,4.28,6.56,6.56,0,0,0,0,1.93,7.12,7.12,0,0,0-1.93.91c-4.81,3.33-.12,9,3,11.46,4.77,3.66,10.83,4.68,16.66,5.36,2.21.26,4.75.08,6.86.79a9.56,9.56,0,0,1,2.92,1.71,2.87,2.87,0,0,0,.18.4l.25.45c-1,.79-2.2,1.45-2.79,2.66a5.76,5.76,0,0,0,.14,5.44c1.25,2.34,3.77,3.9,5.71,5.65q3.91,3.54,7.63,7.29c9.66,9.75,17.17,20.72,25.42,31.59s19.23,19.64,29.07,28.91l13.31,12.53a18.57,18.57,0,0,1,6.66,6.27l3,2.8c.92.42,1.82.88,2.71,1.36a64.1,64.1,0,0,1,11.31,33.93c0,1.27.06,2.53,0,3.79,3,12.68,2.87,25.18,1.24,38-.81,6.3-1.81,12.62-3.18,18.83q13.86-5.08,28-9.16c-.07.3-.13.6-.2.9,1.69,9.42.57,18.95-2.11,28.75s-6,19-8.09,28.85c-2.39,11.46-3.53,23.57-6.63,34.91,0,.41,0,.83,0,1.24,0,1,.06,2,0,3,0,.41-.07.82-.11,1.22,0,0,0,.06,0,.09a27.85,27.85,0,0,1-.47,3.08c.19.4.38.78.59,1.15-.17.7-.33,1.41-.5,2.11Q927.66,648,922,659.59c-.8,1.1-1.64,2.19-2.46,3.28-.61,1.44-1.21,2.9-1.86,4.32l-.15.36a95.37,95.37,0,0,1-4.71,10.4,102.85,102.85,0,0,1-10.66,14.82c-7,8.53-15.54,16.92-24.93,22.74-1.47.91-3,1.74-4.52,2.51a4.93,4.93,0,0,0,.72,4.72c4,5.67,10.12,9.87,16.83,13a9.19,9.19,0,0,0,1.68,3.65c-1,3.32-2.21,6.62-3.32,9.92l-7.12,21.32c-4.5,13.46,16.74,19.24,21.21,5.85l9.6-28.73c.19-.56.37-1.12.54-1.69.44-.66.84-1.32,1.22-2,5.63-2.95,10.79-6.35,14.26-12.19.57-1,1.13-1.94,1.7-2.92,3-9.87,7.88-19.4,12.38-27.3,2.15-3.77,4.22-7.57,6.11-11.47.53-1.1,4.31-7.93,1.29-2.67a40.14,40.14,0,0,0,2.46-6.54c2.07-5.9,3.77-11.91,5.32-18,1.51-8.49,2.16-17.13,4.29-25.5.33-1.33.74-2.62,1.18-3.89q.24-.21.48-.45c11-11.36,18.6-25.52,25.62-39.81,2.72-3.77,5.37-7.59,7.83-11.53a130,130,0,0,0,2.27,14.43c3.39,15.93,9.59,31.37,10.68,47.74.79,12,.27,24.11-.36,36.18a19.53,19.53,0,0,1,.18,3,67.56,67.56,0,0,1-1.68,13.26,1.27,1.27,0,0,1,.13.11l-.3,1.07c-.13.55-.3,1.1-.47,1.64-1,4.3-2.27,8.57-3.38,13-2.24,8.93-3.49,18.06-6.36,26.83a25.55,25.55,0,0,1-3.29,6.66c2.66,4.75,7.84,8,13.5,10a10.45,10.45,0,0,0,5,4.46,31.21,31.21,0,0,0,7.55,24.55c3.74,4.4,11.76,4.13,15.56,0,4.3-4.69,4-10.86,0-15.56,1.33,1.57-.38-.7-.64-1.08l-.28-.56c-.12-.35-.24-.7-.33-1.05s-.18-.73-.25-1.09v-.19c5.24-1.64,9.33-6.92,7.51-13.25-5.06-17.61-3.6-36-2.8-54.11l2.52-56.59c.86-19.11,1.56-37.79-2.09-56.68-.7-3.58-1.44-7.14-2.2-10.71a147,147,0,0,0-5.28-30.52,92.08,92.08,0,0,0-.08-11.51,71.62,71.62,0,0,0-4.27-18.9,5.36,5.36,0,0,0,2.73-5q-1.57-11.76-3.13-23.5c-1-7.36-2.61-15-2.81-22.39-.22-8,6.54-14.2,12.38-20.2l5.32.11c-1.89,6.2-3.32,13.14,2.69,16.59a15.57,15.57,0,0,0,1.42.7c-3.35,4.21-6.77,8.4-9.88,12.78-2.1,3-9,14.32-2,15.27a1.68,1.68,0,0,0,1-.19,2.21,2.21,0,0,0,.35,2.13,23.74,23.74,0,0,1-1.77,3.15c-.82,1.2-2,2.29-2,3.77a2.47,2.47,0,0,0-.35.73,2.53,2.53,0,0,0,1.75,3.07,10.89,10.89,0,0,0,5.27-.32,4.27,4.27,0,0,0,6.76,1.91,18.36,18.36,0,0,0,2.18-2.3,4.47,4.47,0,0,0,6.27-2.1l.06-.15a3.12,3.12,0,0,0,3.76-2.85c.26-1.9.49-3.78.68-5.66,4-8.22,5.69-17.43,8.09-26.33,1.67.15,3.35.29,5,.45,4.68.43,6.49-3.86,5.46-7.43a6.57,6.57,0,0,0,.42-1.44A105.32,105.32,0,0,0,1078.68,425.84Z"/><circle class="cls-8" cx="1002" cy="139.77" r="87" transform="translate(632.29 1081.5) rotate(-76.51)"/><g class="cls-9"><g class="cls-10"><path class="cls-11" d="M1001,226.77q3.39,0,6.72-.26h0q-3.33.26-6.72.26"/><path class="cls-12" d="M1001,226.77q3.29,0,6.5-.26h.21q-3.32.26-6.71.26"/><path class="cls-13" d="M1001,226.77q3,0,6-.26h.47c-2.13.17-4.29.26-6.46.26"/><path class="cls-14" d="M1001,226.77c1.75,0,3.49-.09,5.21-.26h.71c-2,.17-3.93.26-5.92.26"/><path class="cls-15" d="M1001,226.77a34.4,34.4,0,0,0,4.19-.26h.93a51.17,51.17,0,0,1-5.12.26"/><path class="cls-16" d="M1001,226.77a17.23,17.23,0,0,0,3-.26h1.11a32.35,32.35,0,0,1-4.07.26"/><path class="cls-17" d="M1001,226.77a4.83,4.83,0,0,0,1.54-.26h1.28a15.65,15.65,0,0,1-2.82.26"/><path class="cls-18" d="M1001,226.77s0-.09,0-.26h1.36a4,4,0,0,1-1.4.26"/><path class="cls-18" d="M1001,226.77a4.13,4.13,0,0,1-1.41-.26h1.31c0,.17.07.26.1.26"/><path class="cls-18" d="M1001,226.77a15.11,15.11,0,0,1-2.77-.26h1.22a4.89,4.89,0,0,0,1.55.26"/><path class="cls-18" d="M1001,226.77a31.52,31.52,0,0,1-4-.26h1.11a16.55,16.55,0,0,0,2.9.26"/><path class="cls-18" d="M1001,226.77a50,50,0,0,1-5.06-.26h.94a33.27,33.27,0,0,0,4.12.26"/><path class="cls-18" d="M1001,226.77c-2,0-3.95-.09-5.89-.26h.74c1.7.17,3.42.26,5.15.26"/><path class="cls-18" d="M1001,226.77c-2.17,0-4.33-.09-6.46-.26h.5q3,.26,6,.26"/><path class="cls-18" d="M1001,226.77q-3.31,0-6.57-.26h.07c2.15.17,4.31.26,6.5.26"/><path class="cls-19" d="M1009.68,226.34a86.51,86.51,0,0,0,17-3.41h0c-3.43.91-8,2-11.51,2.7q-2.71.44-5.47.71h0"/><path class="cls-20" d="M1009.67,226.34h-.27a81.29,81.29,0,0,0,16.42-3.41h.8a86.31,86.31,0,0,1-16.95,3.41"/><path class="cls-21" d="M1009.36,226.34h-.62a69.71,69.71,0,0,0,15.12-3.41h1.81a80.38,80.38,0,0,1-16.31,3.41"/><path class="cls-22" d="M1008.66,226.34h-.92a54,54,0,0,0,13.14-3.41h2.73a68.35,68.35,0,0,1-15,3.41"/><path class="cls-23" d="M1007.62,226.34h-1.19a36.9,36.9,0,0,0,10.57-3.41h3.54a52.42,52.42,0,0,1-12.92,3.41"/><path class="cls-24" d="M1006.28,226.34h-1.44a21.09,21.09,0,0,0,7.47-3.41h4.26a35.1,35.1,0,0,1-10.29,3.41"/><path class="cls-14" d="M1004.67,226.34H1003a10.14,10.14,0,0,0,3.89-3.41h4.89a19.76,19.76,0,0,1-7.14,3.41"/><path class="cls-17" d="M1002.84,226.34h-1.74c0-.58.07-1.73.11-3.41h5.15a9.52,9.52,0,0,1-3.52,3.41"/><path class="cls-25" d="M1000.91,226.34h-1.69a9.66,9.66,0,0,1-3.56-3.41h5c.08,1.68.17,2.83.26,3.41"/><path class="cls-18" d="M999,226.34h-1.57a19.3,19.3,0,0,1-7-3.41h4.67a10.25,10.25,0,0,0,3.91,3.41"/><path class="cls-18" d="M997.3,226.34h-1.41a34.18,34.18,0,0,1-10.12-3.41H990a20.64,20.64,0,0,0,7.33,3.41"/><path class="cls-18" d="M995.74,226.34h-1.21a51.29,51.29,0,0,1-12.77-3.41h3.58a35.86,35.86,0,0,0,10.4,3.41"/><path class="cls-18" d="M994.41,226.34h-.95a67.65,67.65,0,0,1-14.87-3.41h2.81a53.1,53.1,0,0,0,13,3.41"/><path class="cls-18" d="M993.37,226.34h-.64a80.14,80.14,0,0,1-16.3-3.41h1.9a69.14,69.14,0,0,0,15,3.41"/><path class="cls-18" d="M992.68,226.34h-.1a83,83,0,0,1-16.6-3.41h.29a81.33,81.33,0,0,0,16.41,3.41"/><path class="cls-26" d="M1041,217.06a87.22,87.22,0,0,1-12.49,5.27l-.09,0h0a86.67,86.67,0,0,0,15.42-6.85h0c-1,.53-1.9,1.05-2.86,1.55"/><path class="cls-27" d="M1028.4,222.36h-.86a82.3,82.3,0,0,0,14.92-6.85h1.34a86.16,86.16,0,0,1-15.4,6.85"/><path class="cls-28" d="M1027.39,222.36h-1.94a73.1,73.1,0,0,0,13.74-6.85h3a81.79,81.79,0,0,1-14.83,6.85"/><path class="cls-29" d="M1025.18,222.36h-2.92a61,61,0,0,0,12-6.85h4.55a72.14,72.14,0,0,1-13.59,6.85"/><path class="cls-30" d="M1021.9,222.36h-3.79a47.75,47.75,0,0,0,9.61-6.85h5.92a59.73,59.73,0,0,1-11.74,6.85"/><path class="cls-14" d="M1017.65,222.36h-4.56a36.44,36.44,0,0,0,6.79-6.85H1027a46.25,46.25,0,0,1-9.35,6.85"/><path class="cls-31" d="M1012.55,222.36h-5.22a35.77,35.77,0,0,0,3.55-6.85H1019a36,36,0,0,1-6.49,6.85"/><path class="cls-16" d="M1006.73,222.36h-5.51c0-1.79.07-4.09.1-6.85h8.61a37.19,37.19,0,0,1-3.2,6.85"/><path class="cls-25" d="M1000.62,222.36h-5.33a36.44,36.44,0,0,1-3.24-6.85h8.33c.08,2.76.16,5.06.24,6.85"/><path class="cls-18" d="M994.72,222.36h-5a35.93,35.93,0,0,1-6.38-6.85h7.81a35.2,35.2,0,0,0,3.56,6.85"/><path class="cls-18" d="M989.2,222.36h-4.49a45.41,45.41,0,0,1-9.2-6.85h7a36.61,36.61,0,0,0,6.67,6.85"/><path class="cls-18" d="M984.25,222.36h-3.83a58.58,58.58,0,0,1-11.62-6.85h6a46.88,46.88,0,0,0,9.46,6.85"/><path class="cls-25" d="M980,222.36h-3a71.55,71.55,0,0,1-13.52-6.85h4.71A59.81,59.81,0,0,0,980,222.36"/><path class="cls-18" d="M976.75,222.36h-2a81.7,81.7,0,0,1-14.82-6.85h3.17a72.68,72.68,0,0,0,13.69,6.85"/><path class="cls-18" d="M974.55,222.36h-.32a83.88,83.88,0,0,1-15.09-6.85h.49a82.3,82.3,0,0,0,14.92,6.85"/><path class="cls-32" d="M1045.48,214.58h0a87,87,0,0,0,13.44-9.87h0c-1.94,1.6-4.5,3.77-6.51,5.27-2.24,1.64-4.55,3.18-7,4.6"/><path class="cls-33" d="M1045.4,214.58H1044a84.86,84.86,0,0,0,13-9.87h1.81a87.4,87.4,0,0,1-13.43,9.87"/><path class="cls-34" d="M1043.76,214.58h-3.14a79.15,79.15,0,0,0,12-9.87h4.09a84.69,84.69,0,0,1-12.93,9.87"/><path class="cls-30" d="M1040.18,214.58h-4.73a71.66,71.66,0,0,0,10.42-9.87H1052a78.17,78.17,0,0,1-11.85,9.87"/><path class="cls-35" d="M1034.85,214.58h-6.14a65.39,65.39,0,0,0,8.38-9.87h8a70.5,70.5,0,0,1-10.24,9.87"/><path class="cls-12" d="M1028,214.58h-7.39a65.72,65.72,0,0,0,5.92-9.87h9.62a64.89,64.89,0,0,1-8.15,9.87"/><path class="cls-36" d="M1019.71,214.58h-8.47a88.14,88.14,0,0,0,3.09-9.87h11a65.32,65.32,0,0,1-5.65,9.87"/><path class="cls-24" d="M1010.26,214.58h-8.93c0-2.86.06-6.17.08-9.87h11.64a96.31,96.31,0,0,1-2.79,9.87"/><path class="cls-16" d="M1000.36,214.58h-8.65a95.89,95.89,0,0,1-2.82-9.87h11.26c.07,3.7.14,7,.21,9.87"/><path class="cls-37" d="M990.79,214.58H982.7a65.21,65.21,0,0,1-5.56-9.87h10.54a90.06,90.06,0,0,0,3.11,9.87"/><path class="cls-18" d="M981.84,214.58h-7.28a64.89,64.89,0,0,1-8-9.87H976a65.54,65.54,0,0,0,5.81,9.87"/><path class="cls-38" d="M973.81,214.58H967.6a70.31,70.31,0,0,1-10.13-9.87h8.1a65.31,65.31,0,0,0,8.24,9.87"/><path class="cls-18" d="M967,214.58H962.1a77.72,77.72,0,0,1-11.79-9.87h6.36A71,71,0,0,0,967,214.58"/><path class="cls-18" d="M961.65,214.58h-3.3a84.69,84.69,0,0,1-12.93-9.87h4.3a78.28,78.28,0,0,0,11.93,9.87"/><path class="cls-25" d="M958.09,214.58h-.51a85.13,85.13,0,0,1-13.16-9.87h.66a84.37,84.37,0,0,0,13,9.87"/><path class="cls-39" d="M1060.25,203.48A87.93,87.93,0,0,0,1071.31,191h.06a.64.64,0,0,0-.1.13c-2.49,3.14-6,7.2-8.7,10.14-.74.74-1.5,1.47-2.27,2.19h0"/><path d="M1060.18,203.48h-1.85A86.72,86.72,0,0,0,1069,191h2.2a87.24,87.24,0,0,1-11,12.46"/><path class="cls-33" d="M1058,203.48h-4.19a85.17,85.17,0,0,0,9.85-12.46h5A86.89,86.89,0,0,1,1058,203.48"/><path d="M1053.23,203.48h-6.3a84.35,84.35,0,0,0,8.56-12.46H1063a85.18,85.18,0,0,1-9.74,12.46"/><path class="cls-14" d="M1046.13,203.48h-8.19a88.6,88.6,0,0,0,6.89-12.46h9.72a84.41,84.41,0,0,1-8.42,12.46"/><path class="cls-20" d="M1037,203.48h-9.86A103.74,103.74,0,0,0,1032,191h11.69a89,89,0,0,1-6.7,12.46"/><path class="cls-40" d="M1025.93,203.48h-11.29c.94-3.79,1.79-8,2.54-12.46h13.4a105.77,105.77,0,0,1-4.65,12.46"/><path class="cls-23" d="M1013.34,203.48h-11.92c0-3.79.05-8,.07-12.46h14.14c-.68,4.5-1.45,8.67-2.29,12.46"/><path class="cls-26" d="M1000.13,203.48H988.6c-.85-3.79-1.63-8-2.32-12.46H1000c0,4.5.11,8.67.17,12.46"/><path class="cls-41" d="M987.37,203.48H976.58A107.74,107.74,0,0,1,972,191h12.81c.75,4.5,1.61,8.67,2.55,12.46"/><path class="cls-25" d="M975.44,203.48h-9.71A87.67,87.67,0,0,1,959.14,191h11.52a105.56,105.56,0,0,0,4.78,12.46"/><path class="cls-18" d="M964.74,203.48h-8.29A85.55,85.55,0,0,1,948.12,191H958a87.24,87.24,0,0,0,6.78,12.46"/><path class="cls-18" d="M955.63,203.48h-6.51a84.94,84.94,0,0,1-9.7-12.46h7.73a84.71,84.71,0,0,0,8.48,12.46"/><path class="cls-18" d="M948.51,203.48h-4.39A86.89,86.89,0,0,1,933.49,191h5.22a85.54,85.54,0,0,0,9.8,12.46"/><path class="cls-18" d="M943.77,203.48h-.68A86.9,86.9,0,0,1,932.27,191h.8a86.72,86.72,0,0,0,10.7,12.46"/><path class="cls-42" d="M1078.34,179.75a86.28,86.28,0,0,1-5.91,9.77h-.06a87.19,87.19,0,0,0,8.23-14.61h.07c-.73,1.64-1.5,3.25-2.33,4.84"/><path class="cls-43" d="M1072.29,189.52h-2.23a87.33,87.33,0,0,0,8-14.61h2.49a86.44,86.44,0,0,1-8.22,14.61"/><path d="M1069.66,189.52h-5.05a90.72,90.72,0,0,0,7.34-14.61h5.62a88.56,88.56,0,0,1-7.91,14.61"/><path class="cls-30" d="M1063.91,189.52h-7.59a97.13,97.13,0,0,0,6.38-14.61h8.46a90.35,90.35,0,0,1-7.25,14.61"/><path class="cls-31" d="M1055.36,189.52h-9.87a109.59,109.59,0,0,0,5.13-14.61h11a96.74,96.74,0,0,1-6.26,14.61"/><path class="cls-19" d="M1044.3,189.52h-11.87a143.12,143.12,0,0,0,3.62-14.61h13.24a112.32,112.32,0,0,1-5,14.61"/><path class="cls-31" d="M1031,189.52h-13.6c.73-4.57,1.37-9.46,1.89-14.61h15.17a149.27,149.27,0,0,1-3.46,14.61"/><path class="cls-26" d="M1015.85,189.52H1001.5c0-4.57,0-9.46,0-14.61h16c-.47,5.15-1,10-1.71,14.61"/><path class="cls-14" d="M1000,189.52H986.06c-.67-4.57-1.25-9.46-1.73-14.61h15.49c0,5.15.08,10,.13,14.61"/><path class="cls-37" d="M984.57,189.52h-13a149.55,149.55,0,0,1-3.4-14.61h14.5c.53,5.15,1.16,10,1.9,14.61"/><path class="cls-44" d="M970.2,189.52H958.5a113.76,113.76,0,0,1-4.91-14.61h13.06a146.07,146.07,0,0,0,3.55,14.61"/><path class="cls-37" d="M957.31,189.52h-10a98.63,98.63,0,0,1-6.2-14.61h11.14a110.92,110.92,0,0,0,5,14.61"/><path class="cls-18" d="M946.34,189.52h-7.85a91.05,91.05,0,0,1-7.22-14.61H940a95.89,95.89,0,0,0,6.31,14.61"/><path class="cls-45" d="M937.76,189.52h-5.29a87.09,87.09,0,0,1-7.91-14.61h5.9a90.56,90.56,0,0,0,7.3,14.61"/><path class="cls-18" d="M932,189.52h-.81c-3.13-4.57-2.37-8.93-8.06-14.61h.91a88.05,88.05,0,0,0,8,14.61"/><path class="cls-46" d="M1083.62,167.27q-1,3-2.22,5.93h-.07a86.46,86.46,0,0,0,5-16.35h.07a86.24,86.24,0,0,1-2.76,10.42"/><path class="cls-34" d="M1081.24,173.2h-2.51a89.11,89.11,0,0,0,4.82-16.35h2.66a85.72,85.72,0,0,1-5,16.35"/><path d="M1078.28,173.2h-5.68a94.15,94.15,0,0,0,4.43-16.35h6a89,89,0,0,1-4.78,16.35"/><path class="cls-35" d="M1071.81,173.2h-8.55a106.53,106.53,0,0,0,3.86-16.35h9.07a95,95,0,0,1-4.38,16.35"/><path class="cls-30" d="M1062.18,173.2h-11.1a129.3,129.3,0,0,0,3.1-16.35H1066a107.65,107.65,0,0,1-3.79,16.35"/><path class="cls-40" d="M1049.73,173.2h-13.36c1-5.21,1.69-10.68,2.19-16.35h14.19a131.17,131.17,0,0,1-3,16.35"/><path class="cls-25" d="M1034.79,173.2h-15.3c.5-5.21.88-10.68,1.14-16.35h16.26c-.48,5.67-1.18,11.14-2.1,16.35"/><path class="cls-26" d="M1017.71,173.2h-16.15c0-5.21,0-10.68,0-16.35h17.16c-.24,5.67-.58,11.14-1,16.35"/><path class="cls-47" d="M999.81,173.2H984.18c-.46-5.21-.81-10.68-1-16.35h16.6c0,5.67,0,11.14.08,16.35"/><path class="cls-24" d="M982.5,173.2H967.87c-.9-5.21-1.59-10.68-2.06-16.35h15.54c.26,5.67.65,11.14,1.15,16.35"/><path class="cls-16" d="M966.33,173.2H953.16a131.21,131.21,0,0,1-3-16.35h14c.49,5.67,1.21,11.14,2.15,16.35"/><path class="cls-25" d="M951.81,173.2H940.57a108.81,108.81,0,0,1-3.74-16.35h11.93a129.34,129.34,0,0,0,3,16.35"/><path class="cls-18" d="M939.46,173.2h-8.83a95.83,95.83,0,0,1-4.36-16.35h9.38a106.48,106.48,0,0,0,3.81,16.35"/><path class="cls-18" d="M929.81,173.2h-6a89,89,0,0,1-4.78-16.35h6.33a95,95,0,0,0,4.41,16.35"/><path class="cls-18" d="M923.37,173.2h-.92a88.45,88.45,0,0,1-4.87-16.35h1a89.09,89.09,0,0,0,4.81,16.35"/><path class="cls-48" d="M1088.06,139.77a87.51,87.51,0,0,1-1.14,14.11c-.06.37-.12.74-.19,1.1h-.07a87.62,87.62,0,0,0,1.32-15.21c0-.81,0-1.62,0-2.42h.07c0,.8,0,1.61,0,2.42"/><path class="cls-34" d="M1086.56,155h-2.67a90.67,90.67,0,0,0,1.28-15.21c0-.81,0-1.62,0-2.42h2.71c0,.8,0,1.61,0,2.42a87.62,87.62,0,0,1-1.33,15.21"/><path d="M1083.4,155h-6.06a97.47,97.47,0,0,0,1.19-15.21c0-.81,0-1.62,0-2.42h6.14c0,.8,0,1.61,0,2.42A90.67,90.67,0,0,1,1083.4,155"/><path class="cls-35" d="M1076.5,155h-9.11a111.53,111.53,0,0,0,1-15.21c0-.81,0-1.62,0-2.42h9.25c0,.8,0,1.61,0,2.42A98.72,98.72,0,0,1,1076.5,155"/><path class="cls-31" d="M1066.24,155h-11.85a137.52,137.52,0,0,0,.83-15.21c0-.81,0-1.62,0-2.42h12c0,.8,0,1.61,0,2.42a114.84,114.84,0,0,1-1,15.21"/><path class="cls-33" d="M1053,155h-14.25c.39-4.94.59-10,.59-15.21,0-.81,0-1.62,0-2.42h14.46c0,.8,0,1.61,0,2.42A142.65,142.65,0,0,1,1053,155"/><path class="cls-27" d="M1037,155h-16.32c.2-4.94.31-10,.31-15.21,0-.81,0-1.62,0-2.42h16.57c0,.8,0,1.61,0,2.42,0,5.19-.19,10.27-.56,15.21"/><path class="cls-49" d="M1018.82,155h-17.23c0-4.94,0-10,0-15.21v-2.42h17.49c0,.8,0,1.61,0,2.42,0,5.19-.1,10.27-.28,15.21"/><path class="cls-25" d="M999.73,155H983.06c-.19-4.94-.28-10-.28-15.21v-2.42h16.93v2.42c0,5.19,0,10.27,0,15.21"/><path class="cls-50" d="M981.27,155h-15.6c-.36-4.94-.55-10-.55-15.21,0-.81,0-1.62,0-2.42H981v2.42c0,5.19.1,10.27.3,15.21"/><path class="cls-25" d="M964,155H950a145.35,145.35,0,0,1-.79-15.21c0-.81,0-1.62,0-2.42h14.26c0,.8,0,1.61,0,2.42,0,5.19.19,10.27.57,15.21"/><path class="cls-44" d="M948.55,155h-12a116.58,116.58,0,0,1-1-15.21c0-.81,0-1.62,0-2.42h12.16c0,.8,0,1.61,0,2.42a140,140,0,0,0,.82,15.21"/><path class="cls-37" d="M935.38,155H926a100,100,0,0,1-1.16-15.21c0-.81,0-1.62,0-2.42h9.56c0,.8,0,1.61,0,2.42a113.16,113.16,0,0,0,1,15.21"/><path class="cls-45" d="M925.09,155h-6.36a90.67,90.67,0,0,1-1.27-15.21c0-.81,0-1.62,0-2.42h6.45c0,.8,0,1.61,0,2.42A97.48,97.48,0,0,0,925.09,155"/><path class="cls-18" d="M918.22,155h-1a89.63,89.63,0,0,1-1.3-15.21c0-.81,0-1.62,0-2.42h1c0,.8,0,1.61,0,2.42A90.67,90.67,0,0,0,918.22,155"/><path class="cls-51" d="M1086.92,125.66a86.59,86.59,0,0,1,1,9.74h-.07a87.35,87.35,0,0,0-2.6-17.25h.07q.95,3.69,1.57,7.51"/><path d="M1087.78,135.4h-2.72a89.57,89.57,0,0,0-2.51-17.25h2.63a86.62,86.62,0,0,1,2.6,17.25"/><path class="cls-34" d="M1084.57,135.4h-6.14a96.21,96.21,0,0,0-2.32-17.25h6a89.57,89.57,0,0,1,2.5,17.25"/><path d="M1077.58,135.4h-9.25a109.66,109.66,0,0,0-2-17.25h9a98,98,0,0,1,2.29,17.25"/><path class="cls-52" d="M1067.16,135.4h-12a134.89,134.89,0,0,0-1.62-17.25h11.66a112.1,112.1,0,0,1,2,17.25"/><path class="cls-37" d="M1053.7,135.4h-14.45c-.13-5.93-.52-11.7-1.14-17.25h14a140.62,140.62,0,0,1,1.58,17.25"/><path class="cls-26" d="M1037.55,135.4H1021c-.07-5.93-.27-11.7-.6-17.25h16.06c.6,5.55,1,11.32,1.1,17.25"/><path class="cls-37" d="M1019.07,135.4H1001.6c0-5.93,0-11.7,0-17.25h16.95c.3,5.55.48,11.32.54,17.25"/><path class="cls-29" d="M999.71,135.4H982.8c.06-5.93.25-11.7.55-17.25h16.4c0,5.55,0,11.32,0,17.25"/><path class="cls-53" d="M981,135.4H965.17c.12-5.93.48-11.7,1.07-17.25h15.35c-.33,5.55-.53,11.32-.6,17.25"/><path class="cls-24" d="M963.5,135.4H949.26a142.7,142.7,0,0,1,1.54-17.25h13.83c-.62,5.55-1,11.32-1.13,17.25"/><path class="cls-54" d="M947.8,135.4H935.64a114.64,114.64,0,0,1,2-17.25h11.79a138.66,138.66,0,0,0-1.59,17.25"/><path class="cls-47" d="M934.45,135.4h-9.56a99,99,0,0,1,2.28-17.25h9.27a110.87,110.87,0,0,0-2,17.25"/><path class="cls-18" d="M924,135.4h-6.45a89.57,89.57,0,0,1,2.5-17.25h6.25A97.12,97.12,0,0,0,924,135.4"/><path class="cls-18" d="M917,135.4h-1a88.82,88.82,0,0,1,2.54-17.25h1A89.58,89.58,0,0,0,917,135.4"/><path class="cls-55" d="M1083.62,112.27c.45,1.34.86,2.69,1.24,4.06h-.07a86.31,86.31,0,0,0-6.13-15.81h.06a86.08,86.08,0,0,1,4.9,11.75"/><path d="M1084.7,116.33h-2.62a87.92,87.92,0,0,0-5.94-15.81h2.43a87,87,0,0,1,6.13,15.81"/><path d="M1081.6,116.33h-5.92a93.05,93.05,0,0,0-5.47-15.81h5.49a87.8,87.8,0,0,1,5.9,15.81"/><path class="cls-31" d="M1074.86,116.33h-8.92a103.23,103.23,0,0,0-4.75-15.81h8.26a94.67,94.67,0,0,1,5.41,15.81"/><path class="cls-35" d="M1064.82,116.33h-11.59a122.57,122.57,0,0,0-3.82-15.81h10.73a104.23,104.23,0,0,1,4.68,15.81"/><path d="M1051.83,116.33h-13.94c-.67-5.51-1.58-10.8-2.7-15.81h12.92a126,126,0,0,1,3.72,15.81"/><path class="cls-25" d="M1036.25,116.33h-16c-.35-5.51-.83-10.8-1.41-15.81h14.8c1.07,5,1.93,10.3,2.58,15.81"/><path class="cls-26" d="M1018.43,116.33h-16.85c0-5.51,0-10.8,0-15.81h15.62c.53,5,1,10.3,1.27,15.81"/><path class="cls-25" d="M999.75,116.33h-16.3c.32-5.51.75-10.8,1.29-15.81h15.11c0,5-.07,10.3-.1,15.81"/><path class="cls-12" d="M981.7,116.33H966.44c.64-5.51,1.49-10.8,2.53-15.81h14.15c-.59,5-1.06,10.3-1.42,15.81"/><path class="cls-50" d="M964.84,116.33H951.09a127.77,127.77,0,0,1,3.66-15.81h12.74c-1.1,5-2,10.3-2.65,15.81"/><path class="cls-38" d="M949.69,116.33H938a104.13,104.13,0,0,1,4.62-15.81h10.86a124.24,124.24,0,0,0-3.76,15.81"/><path class="cls-17" d="M936.81,116.33H927.6A92.81,92.81,0,0,1,933,100.52h8.54a103.15,103.15,0,0,0-4.71,15.81"/><path class="cls-18" d="M926.74,116.33h-6.21a88.53,88.53,0,0,1,5.89-15.81h5.77a93.88,93.88,0,0,0-5.45,15.81"/><path class="cls-18" d="M920,116.33h-1a87.36,87.36,0,0,1,6-15.81H926A87.89,87.89,0,0,0,920,116.33"/><path class="cls-56" d="M1071.27,88.39a87.28,87.28,0,0,1,6.6,10.49h-.07A86.32,86.32,0,0,0,1068.56,85h0c.92,1.12,1.8,2.27,2.66,3.44"/><path class="cls-57" d="M1077.72,98.88h-2.4a88.16,88.16,0,0,0-9-13.93h2.11a87,87,0,0,1,9.24,13.93"/><path class="cls-31" d="M1074.88,98.88h-5.43A88.19,88.19,0,0,0,1061.21,85H1066a87.84,87.84,0,0,1,8.89,13.93"/><path d="M1068.7,98.88h-8.17A92.7,92.7,0,0,0,1053.36,85h7.19a89.31,89.31,0,0,1,8.15,13.93"/><path class="cls-37" d="M1059.49,98.88h-10.61A103.78,103.78,0,0,0,1043.12,85h9.33a92.2,92.2,0,0,1,7,13.93"/><path class="cls-26" d="M1047.59,98.88h-12.77A129.68,129.68,0,0,0,1030.75,85H1042a103.5,103.5,0,0,1,5.61,13.93"/><path class="cls-32" d="M1033.31,98.88h-14.63c-.61-4.95-1.32-9.61-2.13-13.93h12.87a132.61,132.61,0,0,1,3.89,13.93"/><path class="cls-58" d="M1017,98.88h-15.44c0-4.95,0-9.61-.06-13.93h13.58c.73,4.32,1.37,9,1.92,13.93"/><path class="cls-25" d="M999.86,98.88H984.92c.55-4.95,1.2-9.61,1.94-13.93H1000c0,4.32-.1,9-.14,13.93"/><path class="cls-50" d="M983.32,98.88h-14A135.36,135.36,0,0,1,973.15,85h12.3c-.81,4.32-1.53,9-2.13,13.93"/><path class="cls-38" d="M967.86,98.88h-12.6A103.35,103.35,0,0,1,960.78,85h11.07a132.27,132.27,0,0,0-4,13.93"/><path class="cls-25" d="M954,98.88H943.23a93.8,93.8,0,0,1,7-13.93h9.45A102.29,102.29,0,0,0,954,98.88"/><path class="cls-25" d="M942.17,98.88h-8.44A89.07,89.07,0,0,1,941.83,85h7.43a92.39,92.39,0,0,0-7.09,13.93"/><path class="cls-18" d="M932.94,98.88h-5.69A87.08,87.08,0,0,1,936.13,85h5a88.77,88.77,0,0,0-8.2,13.93"/><path class="cls-18" d="M926.79,98.88h-.88A86.62,86.62,0,0,1,935,85h.77a87.4,87.4,0,0,0-8.94,13.93"/><path class="cls-59" d="M1062.57,78.25c1.7,1.7,3.32,3.46,4.88,5.29h-.06a87.87,87.87,0,0,0-11.92-11.62h0a84.78,84.78,0,0,1,7.06,6.33"/><path class="cls-60" d="M1067.32,83.54h-2.08a86.21,86.21,0,0,0-11.54-11.62h1.71a87.79,87.79,0,0,1,11.91,11.62"/><path class="cls-37" d="M1064.87,83.54h-4.7a83.36,83.36,0,0,0-10.62-11.62h3.85a86.29,86.29,0,0,1,11.47,11.62"/><path class="cls-31" d="M1059.52,83.54h-7.06a80.63,80.63,0,0,0-9.24-11.62H1049a83.24,83.24,0,0,1,10.51,11.62"/><path class="cls-61" d="M1051.56,83.54h-9.17A80.22,80.22,0,0,0,1035,71.92h7.53a79.68,79.68,0,0,1,9.07,11.62"/><path class="cls-35" d="M1041.28,83.54h-11A90.28,90.28,0,0,0,1025,71.92h9.06a81.21,81.21,0,0,1,7.23,11.62"/><path class="cls-62" d="M1028.93,83.54h-12.65c-.82-4.24-1.74-8.13-2.73-11.62h10.37a91.78,91.78,0,0,1,5,11.62"/><path class="cls-25" d="M1014.82,83.54h-13.35c0-4.24-.05-8.13-.08-11.62h11c.9,3.49,1.73,7.38,2.48,11.62"/><path class="cls-38" d="M1000,83.54H987.1c.76-4.24,1.6-8.13,2.51-11.62h10.6c-.07,3.49-.13,7.38-.19,11.62"/><path class="cls-29" d="M985.72,83.54H973.63a90.41,90.41,0,0,1,4.93-11.62h9.91c-1,3.49-1.92,7.38-2.75,11.62"/><path class="cls-25" d="M972.36,83.54H961.47a81.68,81.68,0,0,1,7.11-11.62h8.93a90.3,90.3,0,0,0-5.15,11.62"/><path class="cls-63" d="M960.36,83.54h-9.29a80.58,80.58,0,0,1,9-11.62h7.62a79.76,79.76,0,0,0-7.31,11.62"/><path class="cls-54" d="M950.16,83.54h-7.3a82.85,82.85,0,0,1,10.45-11.62h6a80.07,80.07,0,0,0-9.14,11.62"/><path class="cls-47" d="M942.18,83.54h-4.93a86.29,86.29,0,0,1,11.47-11.62h4a83.09,83.09,0,0,0-10.58,11.62"/><path class="cls-18" d="M936.86,83.54h-.76a87.16,87.16,0,0,1,11.67-11.62h.62a86.72,86.72,0,0,0-11.53,11.62"/><path class="cls-64" d="M1041,62.48a87.06,87.06,0,0,1,11.4,7.07c.55.41,1.1.82,1.64,1.24h0a86.72,86.72,0,0,0-14.17-8.89h0l1.14.58"/><path class="cls-56" d="M1054,70.79h-1.66a83.13,83.13,0,0,0-13.71-8.89h1.21A86.21,86.21,0,0,1,1054,70.79"/><path class="cls-57" d="M1052,70.79h-3.74a76.41,76.41,0,0,0-12.64-8.89h2.75A82.87,82.87,0,0,1,1052,70.79"/><path d="M1047.75,70.79h-5.64a67.62,67.62,0,0,0-11-8.89h4.13a75.73,75.73,0,0,1,12.5,8.89"/><path class="cls-31" d="M1041.39,70.79h-7.33a58.5,58.5,0,0,0-8.83-8.89h5.37a66.7,66.7,0,0,1,10.79,8.89"/><path class="cls-42" d="M1033.17,70.79h-8.81a53.75,53.75,0,0,0-6.24-8.89h6.46a57.73,57.73,0,0,1,8.59,8.89"/><path class="cls-65" d="M1023.32,70.79h-10.11A68.15,68.15,0,0,0,1010,61.9h7.4a54.33,54.33,0,0,1,6,8.89"/><path class="cls-26" d="M1012,70.79h-10.66c0-3.4-.06-6.38-.09-8.89h7.81a72.32,72.32,0,0,1,2.94,8.89"/><path class="cls-25" d="M1000.23,70.79H989.91a71.93,71.93,0,0,1,3-8.89h7.55c-.07,2.51-.15,5.49-.21,8.89"/><path class="cls-38" d="M988.81,70.79h-9.66A54.11,54.11,0,0,1,985,61.9h7.08a66.58,66.58,0,0,0-3.27,8.89"/><path class="cls-12" d="M978.13,70.79h-8.69a57.5,57.5,0,0,1,8.45-8.89h6.37a54.09,54.09,0,0,0-6.13,8.89"/><path class="cls-25" d="M968.55,70.79h-7.42a66,66,0,0,1,10.68-8.89h5.43a57.77,57.77,0,0,0-8.69,8.89"/><path class="cls-16" d="M960.4,70.79h-5.83A75.61,75.61,0,0,1,967,61.9h4.27a66.81,66.81,0,0,0-10.87,8.89"/><path class="cls-18" d="M954,70.79H950.1a82.87,82.87,0,0,1,13.63-8.89h2.88A75.94,75.94,0,0,0,954,70.79"/><path class="cls-18" d="M949.78,70.79h-.6a84.51,84.51,0,0,1,13.87-8.89h.44a84,84,0,0,0-13.71,8.89"/><path class="cls-66" d="M1038.23,61.09h0a86.27,86.27,0,0,0-16-5.73h0l6.32,1.84a87,87,0,0,1,9.69,3.89"/><path class="cls-40" d="M1038.15,61.09H1037a81.07,81.07,0,0,0-15.48-5.73h.67a85.72,85.72,0,0,1,16,5.73"/><path class="cls-55" d="M1036.78,61.09h-2.63a71,71,0,0,0-14.25-5.73h1.49a80.48,80.48,0,0,1,15.39,5.73"/><path class="cls-38" d="M1033.79,61.09h-4a57.44,57.44,0,0,0-12.39-5.73h2.25a70.21,70.21,0,0,1,14.1,5.73"/><path class="cls-67" d="M1029.33,61.09h-5.14a42.76,42.76,0,0,0-10-5.73h2.92a56.1,56.1,0,0,1,12.18,5.73"/><path class="cls-37" d="M1023.57,61.09h-6.18a29.86,29.86,0,0,0-7-5.73h3.52a41.22,41.22,0,0,1,9.7,5.73"/><path class="cls-37" d="M1016.66,61.09h-7.08a24,24,0,0,0-3.68-5.73h4a29,29,0,0,1,6.72,5.73"/><path class="cls-68" d="M1008.76,61.09h-7.48c0-2.41-.07-4.34-.1-5.73h4.25a24.34,24.34,0,0,1,3.33,5.73"/><path class="cls-38" d="M1000.47,61.09h-7.23a24,24,0,0,1,3.36-5.73h4.12c-.09,1.39-.17,3.32-.25,5.73"/><path class="cls-20" d="M992.46,61.09h-6.77a28.4,28.4,0,0,1,6.61-5.73h3.85a24,24,0,0,0-3.69,5.73"/><path class="cls-12" d="M985,61.09h-6.1a40.5,40.5,0,0,1,9.54-5.73h3.47A29.55,29.55,0,0,0,985,61.09"/><path class="cls-25" d="M978.26,61.09h-5.2a55.37,55.37,0,0,1,12.05-5.73h3a41.87,41.87,0,0,0-9.81,5.73"/><path class="cls-69" d="M972.55,61.09h-4.09a69.37,69.37,0,0,1,14-5.73h2.32a56.69,56.69,0,0,0-12.26,5.73"/><path class="cls-18" d="M968.08,61.09h-2.76a80.64,80.64,0,0,1,15.38-5.73h1.57a70.74,70.74,0,0,0-14.19,5.73"/><path class="cls-18" d="M965.1,61.09h-.43a83.27,83.27,0,0,1,15.66-5.73h.24a81.48,81.48,0,0,0-15.47,5.73"/><path class="cls-70" d="M1020.36,54.92A87.27,87.27,0,0,0,1003,52.79h0c3.66.22,8.54.63,12.18,1.11l5.22,1h0"/><path class="cls-59" d="M1020.34,54.92h-.6a82,82,0,0,0-16.83-2.13h.06a87.07,87.07,0,0,1,17.37,2.13"/><path class="cls-71" d="M1019.63,54.92h-1.37a69.78,69.78,0,0,0-15.5-2.13h.14a81,81,0,0,1,16.73,2.13"/><path class="cls-51" d="M1018.07,54.92H1016a53.21,53.21,0,0,0-13.47-2.13h.21a68.27,68.27,0,0,1,15.32,2.13"/><path class="cls-67" d="M1015.75,54.92h-2.67a35.19,35.19,0,0,0-10.83-2.13h.26a51.52,51.52,0,0,1,13.24,2.13"/><path class="cls-72" d="M1012.76,54.92h-3.22a18.63,18.63,0,0,0-7.65-2.13h.32a33.48,33.48,0,0,1,10.55,2.13"/><path class="cls-39" d="M1009.16,54.92h-3.68a6.69,6.69,0,0,0-4-2.13h.37a17.17,17.17,0,0,1,7.31,2.13"/><path class="cls-32" d="M1005.05,54.92h-3.89a18.53,18.53,0,0,0-.11-2.13h.39a5.87,5.87,0,0,1,3.61,2.13"/><path class="cls-26" d="M1000.74,54.92H997a6,6,0,0,1,3.65-2.13h.38a9.08,9.08,0,0,0-.27,2.13"/><path class="cls-49" d="M996.58,54.92h-3.52a16.71,16.71,0,0,1,7.18-2.13h.35a6.74,6.74,0,0,0-4,2.13"/><path class="cls-12" d="M992.69,54.92h-3.17a32.4,32.4,0,0,1,10.37-2.13h.31a18.06,18.06,0,0,0-7.51,2.13"/><path class="cls-23" d="M989.19,54.92h-2.7a50.39,50.39,0,0,1,13.09-2.13h.27a34.2,34.2,0,0,0-10.66,2.13"/><path class="cls-69" d="M986.22,54.92H984.1a67.57,67.57,0,0,1,15.24-2.13h.22a52.21,52.21,0,0,0-13.34,2.13"/><path class="cls-18" d="M983.9,54.92h-1.43a80.79,80.79,0,0,1,16.71-2.13h.14a69.15,69.15,0,0,0-15.42,2.13"/><path class="cls-18" d="M982.35,54.92h-.22a83.71,83.71,0,0,1,17-2.13h0a81.85,81.85,0,0,0-16.82,2.13"/></g></g><polygon class="cls-73" points="973.1 85.27 963.65 76.31 972.6 85.77 963.65 95.22 973.1 86.27 982.56 95.22 973.61 85.77 982.56 76.31 973.1 85.27"/><polygon class="cls-73" points="972.85 85.52 963.65 85.77 972.85 86.02 973.1 95.22 973.36 86.02 982.56 85.77 973.36 85.52 973.1 76.31 972.85 85.52"/><polygon class="cls-73" points="949.75 191.7 944.31 186.54 949.46 191.99 944.31 197.43 949.75 192.28 955.19 197.43 950.04 191.99 955.19 186.54 949.75 191.7"/><polygon class="cls-73" points="949.61 191.84 944.31 191.99 949.61 192.13 949.75 197.43 949.9 192.13 955.19 191.99 949.9 191.84 949.75 186.54 949.61 191.84"/><polygon class="cls-73" points="1019.68 174.55 1006.21 161.79 1018.96 175.26 1006.21 188.73 1019.68 175.98 1033.15 188.73 1020.39 175.26 1033.15 161.79 1019.68 174.55"/><polygon class="cls-73" points="1019.32 174.91 1006.21 175.26 1019.32 175.62 1019.68 188.73 1020.03 175.62 1033.15 175.26 1020.03 174.91 1019.68 161.79 1019.32 174.91"/><polygon class="cls-73" points="1059.85 98.88 1053.06 92.45 1059.49 99.24 1053.06 106.02 1059.85 99.6 1066.64 106.02 1060.21 99.24 1066.64 92.45 1059.85 98.88"/><polygon class="cls-73" points="1059.67 99.06 1053.06 99.24 1059.67 99.42 1059.85 106.02 1060.03 99.42 1066.64 99.24 1060.03 99.06 1059.85 92.45 1059.67 99.06"/><rect class="cls-5" x="539" y="892" width="841" height="28"/><path class="cls-74" d="M1078.31,954.83a29.38,29.38,0,0,1-.81,3.13,1.18,1.18,0,0,1,.27,1c-.82,3.39-1.44,8.3-9.38,9.44a54,54,0,0,1-18.62-.79,17.55,17.55,0,0,1-4.6-.89c-8.74-.19-17.55-.68-26.23-1a4.15,4.15,0,0,1,.34.24c1.38,1.27.59,2.93-.61,4.16a13.94,13.94,0,0,1-5.56,3.2,19.44,19.44,0,0,1-2.19.56,5.77,5.77,0,0,1-2.11,1.3,24,24,0,0,1-.14,4,17.33,17.33,0,0,1-.71,3.58,2.83,2.83,0,0,1-1.25,1.56,21.4,21.4,0,0,1-2.71,1.36q-4.83,2.19-10.1,4.13c.07.25.12.49.17.73a9.91,9.91,0,0,1-.21,3.51,7.29,7.29,0,0,1-.44,1.66c-.27.63-.52,1.88-2.15,2a7.74,7.74,0,0,1-1.8-.09c-3.85-.54-8.3-1.81-10.67-3.43a3.67,3.67,0,0,1-1.57-1.86c-1.93.11-3.87.13-5.79.08a58.09,58.09,0,0,1-15.75-2.51,16,16,0,0,1-3.77.35c-1.09,0-2.18-.09-3.26-.18s-2.46-.14-3.56-.32a7,7,0,0,1-2.23-1.06l-5-2.75a7,7,0,0,1-1.53-1c-.56-.57-.35-1.16.06-1.73a4.75,4.75,0,0,1-1.38-.46c-.81-.43-1.29-1.08-.8-1.65s2.23-.64,3.49-.62c.48,0,1,0,1.43,0,.28-.2.56-.4.86-.59a15,15,0,0,1-3.52-4.36,9.39,9.39,0,0,1-1.08-5.35,8.85,8.85,0,0,1,.73-2.74,6,6,0,0,1,2.44-2.8c-9.13-.14-18.68.25-25.78,3.07a11.31,11.31,0,0,1-5.44.61l-1,.31a8.65,8.65,0,0,1-1.28.34c-3.54,2.16-7.38,4.2-11.33,6.17-7.39,3.7-15.07,7.24-22,11.17-7.48,4.26-14.49,8.71-23.43,12.29a16,16,0,0,1-1.81.59c-1.5,1.57-4.32,2.71-7.78,2.74-2.15,3.41-6.34,6.52-12,8.78a50.31,50.31,0,0,1-5.56,1.83c-6.09,4.34-15.46,7.38-26.15,8.36-2.28.21-4-.45-4.66-1.28-2-.78-2.65-2.44.26-3.21l9.7-2.58c.86-.23,1.94-.46,3-.72-2.79-.51-5-1.53-5.46-3.16a2.71,2.71,0,0,1-.07-.46c-1.84-.23-3.23-.86-3.58-2.09a1.62,1.62,0,0,1,0-1,11.89,11.89,0,0,1-1.93-.44c-4.81-1.63-.12-4.42,3-5.61,4.77-1.79,10.83-2.29,16.66-2.62,2.2-.13,4.75,0,6.86-.39a13.82,13.82,0,0,0,2.92-.84c.06-.06.1-.13.17-.19l.26-.22a8.93,8.93,0,0,1-2.79-1.3,1.64,1.64,0,0,1,.14-2.66c1.25-1.15,3.77-1.91,5.71-2.77,2.61-1.15,5.16-2.34,7.63-3.57,9.66-4.76,17.17-10.13,25.41-15.45s19.24-9.61,29.08-14.15l13.31-6.13a19.19,19.19,0,0,0,6.66-3.07l3-1.36c.92-.21,1.82-.44,2.71-.67,7-4.81,10.8-10.76,11.31-16.6,0-.62.06-1.24,0-1.86,3-6.2,2.87-12.32,1.24-18.59a58.44,58.44,0,0,0-3.18-9.21q13.86,2.49,28,4.48c-.07-.14-.13-.29-.2-.44,1.69-4.61.57-9.27-2.11-14.06s-6-9.3-8.09-14.12c-2.4-5.61-3.53-11.53-6.63-17.08,0-.2,0-.41,0-.61a8,8,0,0,0,0-1.47,5.59,5.59,0,0,0-.11-.59v0a7.25,7.25,0,0,0-.47-1.5,5.21,5.21,0,0,1,.59-.56l-.5-1c-3.91-3.75-7.73-7.52-11.51-11.3-.8-.54-1.64-1.08-2.46-1.61-.61-.71-1.21-1.42-1.86-2.12l-.15-.17a44.32,44.32,0,0,0-4.71-5.09,73.81,73.81,0,0,0-10.66-7.25,114.38,114.38,0,0,0-24.93-11.13c-1.47-.44-3-.85-4.52-1.22-.54-.7-.43-1.51.72-2.32,4-2.77,10.12-4.82,16.83-6.35a4.22,4.22,0,0,1,1.68-1.78c-1-1.63-2.21-3.24-3.32-4.86l-7.12-10.43c-4.5-6.59,16.74-9.41,21.21-2.86l9.6,14.06c.19.27.37.54.54.82.44.32.84.65,1.22,1,5.63,1.44,10.79,3.11,14.26,6l1.7,1.43c3,4.83,7.88,9.5,12.38,13.36,2.15,1.84,4.22,3.7,6.11,5.61.53.54,4.31,3.88,1.29,1.31a15.65,15.65,0,0,1,2.46,3.2,73.21,73.21,0,0,1,5.32,8.79c1.51,4.15,2.16,8.38,4.29,12.47a15.28,15.28,0,0,0,1.18,1.9l.48.23c11,5.55,18.6,12.48,25.62,19.48,2.72,1.84,5.37,3.7,7.83,5.63a34.64,34.64,0,0,1,2.27-7c3.39-7.8,9.59-15.36,10.68-23.36.79-5.87.26-11.8-.36-17.71a5,5,0,0,0,.18-1.44,17.52,17.52,0,0,0-1.68-6.49l.13-.05-.3-.53a8.32,8.32,0,0,0-.47-.8c-1-2.11-2.27-4.19-3.38-6.36-2.24-4.37-3.49-8.84-6.36-13.13a12.75,12.75,0,0,0-3.29-3.26c2.66-2.32,7.84-3.9,13.5-4.87a11.17,11.17,0,0,1,5-2.18c-1-4.47,1.44-8.49,7.55-12,3.74-2.16,11.76-2,15.56,0,4.3,2.29,4,5.31,0,7.61,1.33-.77-.38.34-.64.53l-.28.27a4.13,4.13,0,0,0-.33.52,5.2,5.2,0,0,0-.26.53l0,.09c5.24.81,9.33,3.38,7.51,6.48-5.06,8.62-3.6,17.63-2.8,26.48l2.52,27.69c.86,9.35,1.56,18.48-2.09,27.73-.7,1.75-1.44,3.49-2.2,5.24a40.42,40.42,0,0,1-5.28,14.93,22.1,22.1,0,0,1-.08,5.63c-.51,3.34-2.13,6.27-4.27,9.25,1.71.54,3,1.45,2.73,2.43q-1.57,5.76-3.13,11.5c-1,3.6-2.61,7.32-2.81,11-.22,3.9,6.54,7,12.38,9.89L1042,947c-1.89-3-3.32-6.43,2.69-8.11.46-.13.94-.24,1.42-.35-3.35-2.06-6.77-4.11-9.88-6.25-2.1-1.45-9-7-2-7.47a3.69,3.69,0,0,1,1,.09c-.28-.39-.09-.76.35-1a13.58,13.58,0,0,0-1.77-1.54c-.82-.59-2-1.12-2-1.85a1.17,1.17,0,0,1-.35-.35c-.33-.6.42-1.38,1.75-1.51a22.47,22.47,0,0,1,5.27.16c.84-1.17,4.18-2,6.76-.93a17.15,17.15,0,0,1,2.18,1.12c2-.52,5.12-.31,6.27,1l.06.07c1.74-.11,3.45.28,3.76,1.4.26.93.49,1.85.68,2.77,4,4,5.69,8.53,8.09,12.88l5-.22c4.68-.21,6.49,1.89,5.46,3.64a2.18,2.18,0,0,1,.42.7A25.76,25.76,0,0,1,1078.31,954.83Z"/></g><g id="Layer_2" data-name="Layer 2"><path d="M824.7,410.89c-.82.65-1.63,1.33-2.44,2-1,.44-2.08.91-3.1,1.4.85-.76,1.71-1.52,2.58-2.25C822.72,411.63,823.7,411.25,824.7,410.89Z"/><path d="M819.16,414.3c1-.49,2.05-1,3.1-1.4A180.26,180.26,0,0,0,803.47,432c-7.51,8.57-14.76,17.41-23.15,25.15-8,7.4-17.11,14-27.41,17.8A52.09,52.09,0,0,1,737,478.21c-6.61.27-13.17-.78-19.69-1.73-2.6-.38-5.28-.73-8-1,.41-.28.82-.58,1.23-.87,3.43.36,6.84.88,10.17,1.36,6.46.93,13,1.7,19.51,1a53.27,53.27,0,0,0,15.8-4.36C766.2,468.1,775.07,461,783,453.25c8.17-8,15.34-17,23-25.54A174.38,174.38,0,0,1,819.16,414.3Z"/><path d="M821.74,412.05c-.87.73-1.73,1.49-2.58,2.25a109,109,0,0,0-18.29,11.85c-7.2,5.5-14.17,11.35-22,16s-16.44,8.24-25.55,8.69a35,35,0,0,1-12.93-1.78A78.2,78.2,0,0,1,729.23,444l-3.17-1.65.45-.9c1.76.91,3.49,1.84,5.22,2.73a57.15,57.15,0,0,0,11.35,4.65,34.78,34.78,0,0,0,13.4.75c9.15-1.2,17.7-5.43,25.35-10.42s14.35-10.79,21.56-16.13A91.43,91.43,0,0,1,821.74,412.05Z"/><path class="cls-75" d="M800.87,426.15a109,109,0,0,1,18.29-11.85,174.38,174.38,0,0,0-13.23,13.41c-7.64,8.52-14.81,17.5-23,25.54C775.07,461,766.2,468.1,756,472.61a53.27,53.27,0,0,1-15.8,4.36c-6.52.71-13.05-.06-19.51-1-3.33-.48-6.74-1-10.17-1.36l-1.52-.15-1.3.89c-32,21.94-67.63,38.07-104.82,48.92-40.29,11.75-82.27,17.51-124.2,18.31-42.83.81-87.84-4-125.19-26.63-15.94-9.65-30.26-22.3-41-37.62a109.39,109.39,0,0,1-19.38-57.58c-1.14-22.45,3.12-44.94,9-66.5a272.36,272.36,0,0,1,23-58.2,203.09,203.09,0,0,1,37-49.18,214.91,214.91,0,0,1,48.08-34.75C448,192,490.43,182.62,533,181.49a397.48,397.48,0,0,1,70.7,4.77c20.36,3.12,41.08,7,60.28,14.67,18.78,7.54,35.07,19.37,45.74,36.81a142.49,142.49,0,0,1,12.81,28.4c3.63,10.6,6.72,21.42,9.5,32.27,11,43,15.16,89.48-1.48,131.61-1.47,3.72-3.11,7.38-4.9,11-.15.3-.31.6-.47.89l.89.46,3.17,1.65a78.2,78.2,0,0,0,11.19,5.08,35,35,0,0,0,12.93,1.78c9.11-.45,17.79-4.08,25.55-8.69S793.67,431.65,800.87,426.15Z"/><path d="M740.09,332.84c5.35,36.47,3,75.42-13.58,108.58l-.87-.45c1.79-3.57,3.43-7.23,4.9-11C747.18,387.89,743,341.38,732,298.41c-2.78-10.85-5.87-21.67-9.5-32.27a142.49,142.49,0,0,0-12.81-28.4c-10.67-17.44-27-29.27-45.74-36.81-19.2-7.7-39.92-11.55-60.28-14.67a397.48,397.48,0,0,0-70.7-4.77c-42.56,1.13-85,10.47-122.74,30.64a214.91,214.91,0,0,0-48.08,34.75,203.09,203.09,0,0,0-37,49.18,272.36,272.36,0,0,0-23,58.2c-5.9,21.56-10.16,44.05-9,66.5a109.39,109.39,0,0,0,19.38,57.58c10.7,15.32,25,28,41,37.62,37.35,22.62,82.36,27.44,125.19,26.63,41.93-.8,83.91-6.56,124.2-18.31,37.19-10.85,72.87-27,104.82-48.92l1.59.13q-9.54,6.63-19.52,12.56C653.31,509.73,613,524.4,571.52,533.19A483.15,483.15,0,0,1,509,542.13c-22.31,1.73-44.84,2.25-67.16.5-41.07-3.21-82.4-15.36-113-44.11-13.3-12.49-24.1-27.77-30.3-45-7.63-21.18-7.7-44.19-4.43-66.24a291.64,291.64,0,0,1,17.15-63.5,232.13,232.13,0,0,1,30.16-54.86c24.16-32.05,58-55.5,95.23-70,42.17-16.39,88.05-20.83,133-17.58a427.62,427.62,0,0,1,67.9,10.32c18.79,4.48,37.69,11,53.11,23,16.24,12.61,25.77,30.71,32.44,49.79A372.24,372.24,0,0,1,740.09,332.84Z"/><path d="M726.51,441.42l-.45.9-.89-.46c.16-.29.32-.59.47-.89Z"/><path d="M709,474.47l1.52.15c-.41.29-.82.59-1.23.87l-1.59-.13Z"/><text class="cls-76" transform="translate(401.13 257.19)">Oh, no, <tspan class="cls-77" x="122.94" y="0">W</tspan><tspan x="152.71" y="0">endy.</tspan><tspan class="cls-77" x="-23.65" y="43.2">W</tspan><tspan x="6.12" y="43.2">e’</tspan><tspan class="cls-78" x="31.14" y="43.2">r</tspan><tspan x="45.04" y="43.2">e just getting </tspan><tspan x="56.36" y="86.4">started!</tspan><tspan x="-64.82" y="172.8">I’ve only shown you my </tspan><tspan x="25.7" y="216">first move...</tspan></text><path d="M1063.27,405.43c-.5-.48-1-.95-1.52-1.42-.58-.26-1.16-.5-1.75-.73.49.42,1,.84,1.44,1.27C1062.06,404.83,1062.67,405.12,1063.27,405.43Z"/><path d="M1102.06,428.46a19.41,19.41,0,0,0,7.62-1.13,44.1,44.1,0,0,0,6.6-3.2l1.86-1-.26-.57-3.08,1.73a32.82,32.82,0,0,1-6.69,2.93,19.32,19.32,0,0,1-7.9.47c-5.39-.76-10.43-3.42-14.94-6.57s-8.46-6.8-12.71-10.16a53,53,0,0,0-10.81-6.91c.51.47,1,.94,1.52,1.42a65.25,65.25,0,0,1,10.78,7.47c4.24,3.47,8.35,7.16,13,10.08S1096.69,428.18,1102.06,428.46Z"/><path d="M1117.88,422.52l.26.57.53-.28-.28-.57Z"/><path d="M1109.8,444.93a30,30,0,0,1-9.31-2.74c-6-2.85-11.23-7.31-15.88-12.2-4.81-5.08-9-10.73-13.54-16.11a107.79,107.79,0,0,0-7.8-8.45c-.6-.31-1.21-.6-1.83-.88a111.12,111.12,0,0,1,11.08,12c4.42,5.4,8.7,11,13.64,15.85,4.73,4.67,10.09,8.81,16.16,11.22a29.3,29.3,0,0,0,9.39,2.06,58.85,58.85,0,0,0,11.61-1.1c1.53-.23,3.11-.46,4.7-.62l-.72-.55c-2,.23-4,.55-6,.86A43.07,43.07,0,0,1,1109.8,444.93Z"/><path d="M1128.19,443.35l-.89.1.72.55.94-.08Z"/><path class="cls-75" d="M1304.3,278C1282.08,265.3,1257,259.41,1232,258.7a220.42,220.42,0,0,0-41.67,3c-12,2-24.22,4.4-35.54,9.25-11.07,4.75-20.67,12.21-27,23.2a93.57,93.57,0,0,0-7.55,17.9c-2.14,6.68-4,13.5-5.6,20.35-6.48,27.07-8.93,56.39.87,82.94.87,2.34,1.84,4.65,2.89,6.9l.28.57-.53.28-1.86,1a44.1,44.1,0,0,1-6.6,3.2,19.41,19.41,0,0,1-7.62,1.13c-5.37-.28-10.49-2.58-15.06-5.48s-8.71-6.61-13-10.08a65.25,65.25,0,0,0-10.78-7.47,107.79,107.79,0,0,1,7.8,8.45c4.5,5.38,8.73,11,13.54,16.11,4.65,4.89,9.87,9.35,15.88,12.2a30,30,0,0,0,9.31,2.74,43.07,43.07,0,0,0,11.5-.62c2-.31,4-.63,6-.86l.89-.1.77.57a209.88,209.88,0,0,0,61.79,30.83A263.74,263.74,0,0,0,1264,486.29c25.24.52,51.77-2.53,73.79-16.78a82,82,0,0,0,24.14-23.71,72.23,72.23,0,0,0,11.43-36.3c.67-14.15-1.84-28.32-5.32-41.91a178.46,178.46,0,0,0-13.55-36.68A123.32,123.32,0,0,0,1304.3,278Z"/><path d="M1170.38,265.13c-11.07,2.82-22.21,6.93-31.3,14.47C1129.5,287.55,1123.89,299,1120,311a249.31,249.31,0,0,0-10.08,43.11c-3.15,23-1.78,47.53,8,68.43l.51-.28c-1.05-2.25-2-4.56-2.89-6.9-9.8-26.55-7.35-55.87-.87-82.94,1.64-6.85,3.46-13.67,5.6-20.35a93.57,93.57,0,0,1,7.55-17.9c6.29-11,15.89-18.45,27-23.2,11.32-4.85,23.53-7.28,35.54-9.25a220.42,220.42,0,0,1,41.67-3c25.09.71,50.13,6.6,72.35,19.32a123.32,123.32,0,0,1,50.15,52.89A178.46,178.46,0,0,1,1368,367.59c3.48,13.59,6,27.76,5.32,41.91a72.23,72.23,0,0,1-11.43,36.3,82,82,0,0,1-24.14,23.71c-22,14.25-48.55,17.3-73.79,16.78a263.74,263.74,0,0,1-73.21-11.54A209.88,209.88,0,0,1,1129,443.92l-.94.08q5.63,4.17,11.51,7.91c21.5,13.67,45.29,22.92,69.71,28.45a266,266,0,0,0,36.88,5.64,239,239,0,0,0,39.59.32c24.21-2,48.57-9.69,66.61-27.8a73.9,73.9,0,0,0,17.86-28.36c4.5-13.36,4.54-27.86,2.61-41.75a193.67,193.67,0,0,0-10.11-40,149.59,149.59,0,0,0-17.78-34.58c-14.24-20.19-34.19-35-56.13-44.09-24.86-10.34-51.9-13.13-78.37-11.08A236.46,236.46,0,0,0,1170.38,265.13Z"/><text class="cls-76" transform="translate(1179.86 333.18)">A<tspan class="cls-79" x="22.46" y="0">r</tspan><tspan x="36.36" y="0">e you </tspan><tspan class="cls-79" x="-12.57" y="43.2">r</tspan><tspan x="1.32" y="43.2">eady </tspan><tspan class="cls-80" x="86.82" y="43.2">f</tspan><tspan x="98.74" y="43.2">or </tspan><tspan x="21.9" y="86.4">this?</tspan></text></g></svg>