<svg xmlns="http://www.w3.org/2000/svg" xmlns:xlink="http://www.w3.org/1999/xlink" width="1920" height="1080" viewBox="0 0 1920 1080"><defs><style>.cls-1,.cls-7{fill:none;}.cls-2{fill:url(#linear-gradient);}.cls-3{fill:url(#linear-gradient-2);}.cls-4{fill:url(#linear-gradient-3);}.cls-5{fill:#6c797c;stroke-miterlimit:10;}.cls-5,.cls-7{stroke:#000;}.cls-6{fill:url(#linear-gradient-4);}.cls-7{stroke-linecap:round;stroke-linejoin:round;stroke-width:0.5px;}.cls-8{fill:url(#radial-gradient);}.cls-9{isolation:isolate;}.cls-10{clip-path:url(#clip-path);}.cls-11{fill:#9e9e9e;}.cls-12{fill:#9b9b9b;}.cls-13{fill:#979797;}.cls-14{fill:#929292;}.cls-15{fill:#8c8c8c;}.cls-16{fill:#888;}.cls-17{fill:#828282;}.cls-18{fill:#7f7f7f;}.cls-19{fill:#a6a6a6;}.cls-20{fill:#a3a3a3;}.cls-21{fill:#9d9d9d;}.cls-22{fill:#999;}.cls-23{fill:#959595;}.cls-24{fill:#8f8f8f;}.cls-25{fill:#f6f6f6;}.cls-26{fill:#ababab;}.cls-27{fill:#aaa;}.cls-28{fill:#a4a4a4;}.cls-29{fill:#a0a0a0;}.cls-30{fill:#535353;}.cls-31{fill:#2c2c2c;}.cls-32{fill:#b4b4b4;}.cls-33{fill:#b1b1b1;}.cls-34{fill:#0a0a0a;}.cls-35{fill:#525252;}.cls-36{fill:#949494;}.cls-37{fill:#5a5a5a;}.cls-38{fill:#ccc;}.cls-39{fill:#bababa;}.cls-40{fill:#d7d7d7;}.cls-41{fill:#848484;}.cls-42{fill:#bfbfbf;}.cls-43{fill:#bcbcbc;}.cls-44{fill:#838383;}.cls-45{fill:#e1e1e1;}.cls-46{fill:#c5c5c5;}.cls-47{fill:#ececec;}.cls-48{fill:#cacaca;}.cls-49{fill:#a2a2a2;}.cls-50{fill:#f5f5f5;}.cls-51{fill:#cecece;}.cls-52{fill:#1a1a1a;}.cls-53{fill:#f8f8f8;}.cls-54{fill:#858585;}.cls-55{fill:#d2d2d2;}.cls-56{fill:#d6d6d6;}.cls-57{fill:#d1d1d1;}.cls-58{fill:#adadad;}.cls-59{fill:#d8d8d8;}.cls-60{fill:#d5d5d5;}.cls-61{fill:#c3c3c3;}.cls-62{fill:#b6b6b6;}.cls-63{fill:#909090;}.cls-64{fill:#dadada;}.cls-65{fill:#b8b8b8;}.cls-66{fill:#dcdcdc;}.cls-67{fill:#c8c8c8;}.cls-68{fill:#eee;}.cls-69{fill:#8a8a8a;}.cls-70{fill:#ddd;}.cls-71{fill:#d4d4d4;}.cls-72{fill:#c1c1c1;}.cls-73{fill:#fff;}.cls-74{fill:url(#linear-gradient-5);}.cls-75{fill:#bca4f2;}</style><linearGradient id="linear-gradient" x1="970.5" y1="1021" x2="970.5" y2="38" gradientUnits="userSpaceOnUse"><stop offset="0" stop-color="#494f4a"/><stop offset="0.05" stop-color="#434841"/><stop offset="0.23" stop-color="#323527"/><stop offset="0.41" stop-color="#262715"/><stop offset="0.6" stop-color="#1e1f0a"/><stop offset="0.81" stop-color="#1c1c06"/></linearGradient><linearGradient id="linear-gradient-2" x1="982.5" y1="496.5" x2="982.5" y2="-2636.15" gradientUnits="userSpaceOnUse"><stop offset="0" stop-color="#e2f2e3"/><stop offset="0.1" stop-color="#e6f2b8"/><stop offset="0.21" stop-color="#eaf190"/><stop offset="0.32" stop-color="#edf16e"/><stop offset="0.44" stop-color="#eff054"/><stop offset="0.56" stop-color="#f1f042"/><stop offset="0.68" stop-color="#f2f037"/><stop offset="0.81" stop-color="#f2f033"/></linearGradient><linearGradient id="linear-gradient-3" x1="952" y1="818.64" x2="952" y2="-175.36" gradientUnits="userSpaceOnUse"><stop offset="0" stop-color="#e2eef2"/><stop offset="0.08" stop-color="#bed6db"/><stop offset="0.2" stop-color="#96bac1"/><stop offset="0.31" stop-color="#74a3ab"/><stop offset="0.43" stop-color="#5a929a"/><stop offset="0.55" stop-color="#48858e"/><stop offset="0.68" stop-color="#3d7d87"/><stop offset="0.81" stop-color="#397b85"/></linearGradient><linearGradient id="linear-gradient-4" x1="959.5" y1="778" x2="959.5" y2="-63" xlink:href="#linear-gradient-3"/><radialGradient id="radial-gradient" cx="1029.43" cy="99.34" r="98" gradientTransform="matrix(-0.23, -0.97, -0.97, 0.23, 1371.71, 1081.5)" gradientUnits="userSpaceOnUse"><stop offset="0" stop-color="#f3f3f3"/><stop offset="0.92" stop-color="#a9a9a9"/></radialGradient><clipPath id="clip-path"><path class="cls-1" d="M1088.1,139.8a81.3,81.3,0,0,0-1.2-14.1,75,75,0,0,0-3.3-13.4,76.9,76.9,0,0,0-5.3-12.5,82.9,82.9,0,0,0-7-11.4,106.3,106.3,0,0,0-8.7-10.2,92.8,92.8,0,0,0-10.2-8.6,74.8,74.8,0,0,0-11.4-7.1,76.9,76.9,0,0,0-12.5-5.3c-3.9-1.1-9.3-2.6-13.3-3.3a111.7,111.7,0,0,0-14.2-1.1c-47,0-85.1,38.9-85.1,87s38.1,87,85.1,87a133.7,133.7,0,0,0,14.2-1.2,103.3,103.3,0,0,0,13.3-3.3h0a86.5,86.5,0,0,0,12.5-5.2,94.7,94.7,0,0,0,11.4-7.1c3.2-2.5,7.3-5.9,10.2-8.7a122.9,122.9,0,0,0,8.7-10.2h0a82.9,82.9,0,0,0,7-11.4,75.8,75.8,0,0,0,5.3-12.4,77.1,77.1,0,0,0,3.3-13.4A82.1,82.1,0,0,0,1088.1,139.8Z"/></clipPath><linearGradient id="linear-gradient-5" x1="933.74" y1="1021" x2="933.74" y2="777.7" gradientUnits="userSpaceOnUse"><stop offset="0" stop-color="#494f4a" stop-opacity="0.2"/><stop offset="0.33" stop-color="#2a2c1c" stop-opacity="0.47"/><stop offset="0.81" stop-color="#1c1c06" stop-opacity="0.6"/></linearGradient></defs><title>Artboard 1</title><g id="Layer_3" data-name="Layer 3"><rect class="cls-2" x="396" y="38" width="1149" height="983"/><circle class="cls-3" cx="982.5" cy="496.5" r="426.5"/></g><g id="Layer_1" data-name="Layer 1"><polygon class="cls-4" points="1271.7 683.3 1449 954 455 954 699.7 686.9 1271.7 683.3"/><rect class="cls-5" x="455" y="953.4" width="994" height="33.09"/><polygon class="cls-6" points="1230 663.5 1380 892.5 539 892.5 746 666.5 1230 663.5"/><polygon class="cls-7" points="1380 892.5 539 892.5 746 666.5 1230 663.5 1380 892.5"/><path d="M1078.7,425.8c-.2-2.1-.5-4.2-.8-6.3a5,5,0,0,0,.2-2.1c-.8-6.9-1.4-17-9.3-19.3a27.4,27.4,0,0,0-18.7,1.6,11.7,11.7,0,0,0-4.6,1.8c-8.7.4-17.5,1.4-26.2,2.1.1-.2.3-.3.3-.5,1.4-2.6.6-6-.6-8.5a16,16,0,0,0-5.5-6.6,15.1,15.1,0,0,0-2.2-1.1,7.9,7.9,0,0,0-2.1-2.7c0-2.7,0-5.4-.2-8.1a60.1,60.1,0,0,0-.7-7.3,7.3,7.3,0,0,0-1.2-3.2,35.7,35.7,0,0,0-2.7-2.8,115.3,115.3,0,0,0-10.1-8.4c0-.5.1-1,.1-1.5a34.7,34.7,0,0,0-.2-7.2c-.1-1.1-.2-2.2-.4-3.4s-.5-3.8-2.2-4.2a5.5,5.5,0,0,0-1.8.2c-3.8,1.1-8.3,3.7-10.6,7a9.1,9.1,0,0,0-1.6,3.8,37.5,37.5,0,0,0-5.8-.1,31.1,31.1,0,0,0-15.7,5.1,9.9,9.9,0,0,0-3.8-.7,18.6,18.6,0,0,0-3.3.4,21.4,21.4,0,0,0-3.5.6c-.9.3-1.6,1.4-2.3,2.2l-5,5.6a8,8,0,0,0-1.5,2.1,4.3,4.3,0,0,0,0,3.5,3,3,0,0,0-1.3.9,3.3,3.3,0,0,0-.8,3.4c.6,1.4,2.2,1.3,3.5,1.3h1.4l.8,1.2a37.5,37.5,0,0,0-4.6,19.8,34.3,34.3,0,0,0,.8,5.6,13.5,13.5,0,0,0,2.4,5.8c-9.1.2-18.7-.5-25.8-6.3a6.1,6.1,0,0,0-5.4-1.3l-1-.6-1.2-.7q-5.4-6.6-11.4-12.6c-7.4-7.5-15-14.8-21.9-22.8s-14.5-17.8-23.5-25.1a5.7,5.7,0,0,0-1.8-1.2c-1.5-3.2-4.3-5.6-7.8-5.7a37.6,37.6,0,0,0-11.9-17.9,41.7,41.7,0,0,0-5.6-3.7,40.7,40.7,0,0,0-26.1-17.1,4.2,4.2,0,0,0-4.7,2.6c-2,1.6-2.6,5,.3,6.6l9.7,5.2,3,1.5a7.9,7.9,0,0,0-5.5,6.5v.9a4.6,4.6,0,0,0-3.6,4.3,6.1,6.1,0,0,0,0,1.9,6.6,6.6,0,0,0-1.9.9c-4.8,3.4-.1,9.1,3,11.5,4.8,3.6,10.9,4.7,16.7,5.3,2.2.3,4.7.1,6.8.8a9.8,9.8,0,0,1,3,1.7c0,.2.1.3.1.4l.3.5c-1,.8-2.2,1.4-2.8,2.6a5.9,5.9,0,0,0,.1,5.5c1.3,2.3,3.8,3.9,5.8,5.6l7.6,7.3c9.6,9.8,17.2,20.7,25.4,31.6s19.2,19.7,29.1,28.9l13.3,12.6a17.9,17.9,0,0,1,6.6,6.2l3,2.8,2.7,1.4a63.6,63.6,0,0,1,11.3,33.9c.1,1.3.1,2.6.1,3.8,2.9,12.7,2.8,25.2,1.2,38-.8,6.3-1.8,12.6-3.2,18.8,9.3-3.4,18.6-6.4,28.1-9.1-.1.3-.1.6-.2.9,1.7,9.4.6,18.9-2.1,28.7s-6.1,19-8.1,28.9-3.5,23.5-6.6,34.9v1.2c0,1,.1,2,0,3s-.1.8-.1,1.3h0a28.7,28.7,0,0,1-.5,3.1l.6,1.2c-.2.7-.3,1.4-.5,2.1-3.9,7.6-7.7,15.4-11.5,23.1l-2.5,3.3-1.8,4.3c-.1.1-.1.2-.2.4a87.5,87.5,0,0,1-4.7,10.4c-2.9,5.3-6.8,10.1-10.6,14.8-7,8.5-15.6,16.9-25,22.7-1.4.9-3,1.7-4.5,2.5a5.1,5.1,0,0,0,.7,4.7c4,5.7,10.1,9.9,16.9,13a9.5,9.5,0,0,0,1.6,3.7c-1,3.3-2.2,6.6-3.3,9.9l-7.1,21.3c-4.5,13.5,16.7,19.3,21.2,5.9l9.6-28.8.6-1.7,1.2-2c5.6-2.9,10.8-6.3,14.2-12.1.6-1,1.2-2,1.7-3,3-9.8,7.9-19.4,12.4-27.3,2.2-3.7,4.2-7.5,6.1-11.4.5-1.1,4.3-8,1.3-2.7,1.1-1.9,1.7-4.4,2.5-6.5,2-5.9,3.7-12,5.3-18,1.5-8.5,2.1-17.1,4.3-25.5a29.1,29.1,0,0,1,1.2-3.9l.4-.4c11-11.4,18.6-25.6,25.7-39.9,2.7-3.7,5.3-7.5,7.8-11.5a135,135,0,0,0,2.3,14.4c3.3,16,9.5,31.4,10.6,47.8.8,12,.3,24.1-.3,36.2a28.3,28.3,0,0,1,.2,2.9,72.2,72.2,0,0,1-1.7,13.3h.1l-.3,1.1a9.8,9.8,0,0,1-.5,1.6c-1,4.3-2.2,8.6-3.3,13-2.3,8.9-3.5,18.1-6.4,26.8a24.6,24.6,0,0,1-3.3,6.7c2.7,4.7,7.9,8,13.5,10a10.7,10.7,0,0,0,5,4.4,31.5,31.5,0,0,0,7.6,24.6c3.7,4.4,11.7,4.1,15.5,0s4-10.9,0-15.6c1.4,1.6-.4-.7-.6-1.1l-.3-.5-.3-1.1-.3-1.1v-.2c5.3-1.6,9.4-6.9,7.6-13.2-5.1-17.6-3.7-36-2.8-54.1s1.6-37.8,2.5-56.6,1.5-37.8-2.1-56.7c-.7-3.6-1.5-7.1-2.2-10.7a149.9,149.9,0,0,0-5.3-30.5,88.1,88.1,0,0,0-.1-11.5,72.3,72.3,0,0,0-4.2-18.9,5.5,5.5,0,0,0,2.7-5c-1.1-7.8-2.1-15.7-3.2-23.5s-2.6-15-2.8-22.4,6.6-14.2,12.4-20.2h5.3c-1.8,6.2-3.3,13.2,2.7,16.6l1.5.7c-3.4,4.2-6.8,8.4-9.9,12.8s-9.1,14.3-2,15.3l1-.2a2,2,0,0,0,.4,2.1,22.9,22.9,0,0,1-1.8,3.1c-.8,1.3-2,2.3-2,3.8a2.3,2.3,0,0,0,1.4,3.8,10.2,10.2,0,0,0,5.2-.3,4.3,4.3,0,0,0,6.8,1.9,16.1,16.1,0,0,0,2.2-2.3,4.3,4.3,0,0,0,6.2-2.1.1.1,0,0,0,.1-.1,3.1,3.1,0,0,0,3.7-2.9c.3-1.9.5-3.8.7-5.6,4.1-8.3,5.7-17.5,8.1-26.4l5,.5c4.7.4,6.5-3.9,5.5-7.5a5.7,5.7,0,0,0,.4-1.4A104.2,104.2,0,0,0,1078.7,425.8Z"/><circle class="cls-8" cx="1002" cy="139.8" r="87" transform="translate(632.3 1081.5) rotate(-76.5)"/><g class="cls-9"><g class="cls-10"><path class="cls-11" d="M1001,226.8c2.3,0,4.5-.1,6.8-.3h0c-2.3.2-4.5.3-6.8.3"/><path class="cls-12" d="M1001,226.8c2.2,0,4.4-.1,6.5-.3h.3c-2.3.2-4.5.3-6.8.3"/><path class="cls-13" d="M1001,226.8a57.4,57.4,0,0,0,6-.3h.5c-2.1.2-4.3.3-6.5.3"/><path class="cls-14" d="M1001,226.8a44.1,44.1,0,0,0,5.2-.3h.8l-6,.3"/><path class="cls-15" d="M1001,226.8l4.2-.3h1a44.1,44.1,0,0,1-5.2.3"/><path class="cls-16" d="M1001,226.8l3-.3h1.1a27.3,27.3,0,0,1-4.1.3"/><path class="cls-17" d="M1001,226.8a4.1,4.1,0,0,0,1.6-.3h1.3a14.3,14.3,0,0,1-2.9.3"/><path class="cls-18" d="M1001,226.8c.1,0,.1-.1.1-.3h1.3a3.2,3.2,0,0,1-1.4.3"/><path class="cls-18" d="M1001,226.8l-1.4-.3h1.3a.8.8,0,0,1,.1.3"/><path class="cls-18" d="M1001,226.8l-2.7-.3h1.2l1.5.3"/><path class="cls-18" d="M1001,226.8l-4-.3h1.1l2.9.3"/><path class="cls-18" d="M1001,226.8a41.9,41.9,0,0,1-5-.3h.9l4.1.3"/><path class="cls-18" d="M1001,226.8a56.3,56.3,0,0,1-5.8-.3h.7l5.1.3"/><path class="cls-18" d="M1001,226.8c-2.1,0-4.3-.1-6.4-.3h.5a56.8,56.8,0,0,0,5.9.3"/><path class="cls-18" d="M1001,226.8c-2.2,0-4.4-.1-6.5-.3h0l6.5.3"/><path class="cls-19" d="M1009.7,226.3a79.1,79.1,0,0,0,16.9-3.4h.1c-3.5.9-8.1,2.1-11.5,2.7a51.7,51.7,0,0,1-5.5.7h0"/><path class="cls-20" d="M1009.7,226.3h-.3a74.7,74.7,0,0,0,16.4-3.4h.8a79.1,79.1,0,0,1-16.9,3.4"/><path class="cls-21" d="M1009.4,226.3h-.7a64.5,64.5,0,0,0,15.2-3.4h1.8a75,75,0,0,1-16.3,3.4"/><path class="cls-22" d="M1008.7,226.3h-1a49.3,49.3,0,0,0,13.2-3.4h2.7a63.2,63.2,0,0,1-14.9,3.4"/><path class="cls-23" d="M1007.6,226.3h-1.2a33.7,33.7,0,0,0,10.6-3.4h3.5a47.2,47.2,0,0,1-12.9,3.4"/><path class="cls-24" d="M1006.3,226.3h-1.5a19.4,19.4,0,0,0,7.5-3.4h4.3a32.8,32.8,0,0,1-10.3,3.4"/><path class="cls-14" d="M1004.7,226.3H1003a8.7,8.7,0,0,0,3.9-3.4h4.9a18.5,18.5,0,0,1-7.1,3.4"/><path class="cls-17" d="M1002.8,226.3h-1.7c0-.5.1-1.7.1-3.4h5.2a9.4,9.4,0,0,1-3.6,3.4"/><path class="cls-25" d="M1000.9,226.3h-1.7a8.6,8.6,0,0,1-3.5-3.4h4.9c.1,1.7.2,2.9.3,3.4"/><path class="cls-18" d="M999,226.3h-1.5a17.5,17.5,0,0,1-7-3.4h4.6a9.9,9.9,0,0,0,3.9,3.4"/><path class="cls-18" d="M997.3,226.3h-1.4a30.9,30.9,0,0,1-10.1-3.4H990a18.6,18.6,0,0,0,7.3,3.4"/><path class="cls-18" d="M995.7,226.3h-1.2a46.8,46.8,0,0,1-12.7-3.4h3.5a34.3,34.3,0,0,0,10.4,3.4"/><path class="cls-18" d="M994.4,226.3h-.9a62.1,62.1,0,0,1-14.9-3.4h2.8a48.9,48.9,0,0,0,13,3.4"/><path class="cls-18" d="M993.4,226.3h-.7a75,75,0,0,1-16.3-3.4h1.9a64.8,64.8,0,0,0,15.1,3.4"/><path class="cls-18" d="M992.7,226.3h-.1a76.4,76.4,0,0,1-16.6-3.4h.3a73.5,73.5,0,0,0,16.4,3.4"/><path class="cls-26" d="M1041,217.1a86.5,86.5,0,0,1-12.5,5.2h-.1a86.1,86.1,0,0,0,15.5-6.9h0l-2.9,1.6"/><path class="cls-27" d="M1028.4,222.4h-.9a78.6,78.6,0,0,0,15-6.9h1.3a85.2,85.2,0,0,1-15.4,6.9"/><path class="cls-28" d="M1027.4,222.4h-2a68.5,68.5,0,0,0,13.8-6.9h3a79.7,79.7,0,0,1-14.8,6.9"/><path class="cls-29" d="M1025.2,222.4h-2.9a62.3,62.3,0,0,0,11.9-6.9h4.6a72.5,72.5,0,0,1-13.6,6.9"/><path class="cls-30" d="M1021.9,222.4h-3.8a44.7,44.7,0,0,0,9.6-6.9h5.9a58,58,0,0,1-11.7,6.9"/><path class="cls-14" d="M1017.6,222.4h-4.5a37.1,37.1,0,0,0,6.8-6.9h7.1a46.2,46.2,0,0,1-9.4,6.9"/><path class="cls-31" d="M1012.6,222.4h-5.3a31.5,31.5,0,0,0,3.6-6.9h8.1a35.8,35.8,0,0,1-6.4,6.9"/><path class="cls-16" d="M1006.7,222.4h-5.5c.1-1.8.1-4.1.1-6.9h8.6a37.5,37.5,0,0,1-3.2,6.9"/><path class="cls-25" d="M1000.6,222.4h-5.3a44.9,44.9,0,0,1-3.3-6.9h8.4c.1,2.8.1,5.1.2,6.9"/><path class="cls-18" d="M994.7,222.4h-5a35.5,35.5,0,0,1-6.3-6.9h7.8a36.7,36.7,0,0,0,3.5,6.9"/><path class="cls-18" d="M989.2,222.4h-4.5a45.1,45.1,0,0,1-9.2-6.9h7a36.8,36.8,0,0,0,6.7,6.9"/><path class="cls-18" d="M984.2,222.4h-3.8a60.1,60.1,0,0,1-11.6-6.9h6a46.2,46.2,0,0,0,9.4,6.9"/><path class="cls-25" d="M980,222.4h-3a71.6,71.6,0,0,1-13.5-6.9h4.7a58.7,58.7,0,0,0,11.8,6.9"/><path class="cls-18" d="M976.7,222.4h-2a79.7,79.7,0,0,1-14.8-6.9h3.2a72.5,72.5,0,0,0,13.6,6.9"/><path class="cls-18" d="M974.5,222.4h-.3a85.6,85.6,0,0,1-15.1-6.9h.5a80.6,80.6,0,0,0,14.9,6.9"/><path class="cls-32" d="M1045.5,214.6h-.1a93.6,93.6,0,0,0,13.5-9.9h0c-1.9,1.6-4.5,3.8-6.5,5.3a82.7,82.7,0,0,1-6.9,4.6"/><path class="cls-33" d="M1045.4,214.6H1044a84.1,84.1,0,0,0,13-9.9h1.8a87.5,87.5,0,0,1-13.4,9.9"/><path class="cls-34" d="M1043.8,214.6h-3.2a80.9,80.9,0,0,0,12-9.9h4.1a88.3,88.3,0,0,1-12.9,9.9"/><path class="cls-30" d="M1040.2,214.6h-4.7a74.5,74.5,0,0,0,10.4-9.9h6.1a79.4,79.4,0,0,1-11.8,9.9"/><path class="cls-35" d="M1034.9,214.6h-6.2a68.4,68.4,0,0,0,8.4-9.9h8a79.1,79.1,0,0,1-10.2,9.9"/><path class="cls-12" d="M1028,214.6h-7.4a66.4,66.4,0,0,0,5.9-9.9h9.6a66.9,66.9,0,0,1-8.1,9.9"/><path class="cls-36" d="M1019.7,214.6h-8.5a83.3,83.3,0,0,0,3.1-9.9h11.1a76,76,0,0,1-5.7,9.9"/><path class="cls-24" d="M1010.3,214.6h-9c.1-2.9.1-6.2.1-9.9h11.7c-.9,3.7-1.8,7-2.8,9.9"/><path class="cls-16" d="M1000.4,214.6h-8.7c-1-2.9-1.9-6.2-2.8-9.9h11.3c0,3.7.1,7,.2,9.9"/><path class="cls-37" d="M990.8,214.6h-8.1a75.9,75.9,0,0,1-5.6-9.9h10.6a83.3,83.3,0,0,0,3.1,9.9"/><path class="cls-18" d="M981.8,214.6h-7.2a66.9,66.9,0,0,1-8.1-9.9H976a76.1,76.1,0,0,0,5.8,9.9"/><path class="cls-38" d="M973.8,214.6h-6.2a72.5,72.5,0,0,1-10.1-9.9h8.1a67.4,67.4,0,0,0,8.2,9.9"/><path class="cls-18" d="M967,214.6h-4.9a79.4,79.4,0,0,1-11.8-9.9h6.4a73.9,73.9,0,0,0,10.3,9.9"/><path class="cls-18" d="M961.6,214.6h-3.2a84.1,84.1,0,0,1-13-9.9h4.3a85.6,85.6,0,0,0,11.9,9.9"/><path class="cls-25" d="M958.1,214.6h-.5a90.9,90.9,0,0,1-13.2-9.9h.7a84.1,84.1,0,0,0,13,9.9"/><path class="cls-39" d="M1060.3,203.5a93.7,93.7,0,0,0,11-12.5h0c-2.5,3.2-6,7.2-8.7,10.2l-2.3,2.2h0"/><path d="M1060.2,203.5h-1.9A79.5,79.5,0,0,0,1069,191h2.2a93.7,93.7,0,0,1-11,12.5"/><path class="cls-33" d="M1058,203.5h-4.2a93.8,93.8,0,0,0,9.9-12.5h4.9a84.4,84.4,0,0,1-10.6,12.5"/><path d="M1053.2,203.5h-6.3a86.3,86.3,0,0,0,8.6-12.5h7.5a85.8,85.8,0,0,1-9.8,12.5"/><path class="cls-14" d="M1046.1,203.5h-8.2a78.8,78.8,0,0,0,6.9-12.5h9.7a85.3,85.3,0,0,1-8.4,12.5"/><path class="cls-20" d="M1036.9,203.5h-9.8A112.4,112.4,0,0,0,1032,191h11.7a87.3,87.3,0,0,1-6.8,12.5"/><path class="cls-40" d="M1025.9,203.5h-11.3c1-3.8,1.8-8,2.6-12.5h13.4a112.8,112.8,0,0,1-4.7,12.5"/><path class="cls-23" d="M1013.3,203.5h-11.9c0-3.8.1-8,.1-12.5h14.1c-.6,4.5-1.4,8.7-2.3,12.5"/><path class="cls-26" d="M1000.1,203.5H988.6c-.9-3.8-1.6-8-2.3-12.5H1000c0,4.5.1,8.7.1,12.5"/><path class="cls-41" d="M987.4,203.5H976.6A113,113,0,0,1,972,191h12.8c.8,4.5,1.6,8.7,2.6,12.5"/><path class="cls-25" d="M975.4,203.5h-9.7a97.9,97.9,0,0,1-6.6-12.5h11.6a112.8,112.8,0,0,0,4.7,12.5"/><path class="cls-18" d="M964.7,203.5h-8.3a93.5,93.5,0,0,1-8.3-12.5H958a87,87,0,0,0,6.7,12.5"/><path class="cls-18" d="M955.6,203.5h-6.5a92.6,92.6,0,0,1-9.7-12.5h7.8a85.3,85.3,0,0,0,8.4,12.5"/><path class="cls-18" d="M948.5,203.5h-4.4A84.4,84.4,0,0,1,933.5,191h5.2a85.8,85.8,0,0,0,9.8,12.5"/><path class="cls-18" d="M943.8,203.5h-.7A85.8,85.8,0,0,1,932.3,191h.8a79.5,79.5,0,0,0,10.7,12.5"/><path class="cls-42" d="M1078.3,179.7a74.9,74.9,0,0,1-5.9,9.8h0a83.1,83.1,0,0,0,8.2-14.6h.1c-.8,1.6-1.5,3.3-2.4,4.8"/><path class="cls-43" d="M1072.3,189.5h-2.2a88.8,88.8,0,0,0,7.9-14.6h2.5a83.1,83.1,0,0,1-8.2,14.6"/><path d="M1069.7,189.5h-5.1a79.6,79.6,0,0,0,7.3-14.6h5.7a88.8,88.8,0,0,1-7.9,14.6"/><path class="cls-30" d="M1063.9,189.5h-7.6a92,92,0,0,0,6.4-14.6h8.5a86.5,86.5,0,0,1-7.3,14.6"/><path class="cls-31" d="M1055.4,189.5h-9.9a100.1,100.1,0,0,0,5.1-14.6h11a91.5,91.5,0,0,1-6.2,14.6"/><path class="cls-19" d="M1044.3,189.5h-11.9a135.6,135.6,0,0,0,3.6-14.6h13.3a113.5,113.5,0,0,1-5,14.6"/><path class="cls-31" d="M1031,189.5h-13.6c.8-4.5,1.4-9.4,1.9-14.6h15.2a136.1,136.1,0,0,1-3.5,14.6"/><path class="cls-26" d="M1015.9,189.5h-14.4c0-4.5,0-9.4.1-14.6h16c-.5,5.2-1.1,10.1-1.7,14.6"/><path class="cls-14" d="M999.9,189.5H986.1c-.7-4.5-1.3-9.4-1.8-14.6h15.5c.1,5.2.1,10.1.1,14.6"/><path class="cls-37" d="M984.6,189.5h-13a136.6,136.6,0,0,1-3.4-14.6h14.5c.5,5.2,1.1,10.1,1.9,14.6"/><path class="cls-44" d="M970.2,189.5H958.5a113.5,113.5,0,0,1-4.9-14.6h13a135.6,135.6,0,0,0,3.6,14.6"/><path class="cls-37" d="M957.3,189.5h-10a91.5,91.5,0,0,1-6.2-14.6h11.2a113.5,113.5,0,0,0,5,14.6"/><path class="cls-18" d="M946.3,189.5h-7.8a86.2,86.2,0,0,1-7.2-14.6H940a101.9,101.9,0,0,0,6.3,14.6"/><path class="cls-45" d="M937.8,189.5h-5.3a76,76,0,0,1-7.9-14.6h5.9a79.6,79.6,0,0,0,7.3,14.6"/><path class="cls-18" d="M932,189.5h-.8c-3.1-4.5-2.3-8.9-8-14.6h.9a88.8,88.8,0,0,0,7.9,14.6"/><path class="cls-46" d="M1083.6,167.3a59.5,59.5,0,0,1-2.2,5.9h-.1a83.1,83.1,0,0,0,5-16.3h.1a93.9,93.9,0,0,1-2.8,10.4"/><path class="cls-34" d="M1081.2,173.2h-2.5a82.6,82.6,0,0,0,4.8-16.3h2.7a83.1,83.1,0,0,1-5,16.3"/><path d="M1078.3,173.2h-5.7a97.8,97.8,0,0,0,4.4-16.3h6.1a90,90,0,0,1-4.8,16.3"/><path class="cls-35" d="M1071.8,173.2h-8.5a121,121,0,0,0,3.8-16.3h9.1a97.8,97.8,0,0,1-4.4,16.3"/><path class="cls-30" d="M1062.2,173.2h-11.1a138.3,138.3,0,0,0,3.1-16.3H1066a121,121,0,0,1-3.8,16.3"/><path class="cls-40" d="M1049.7,173.2h-13.3c.9-5.2,1.7-10.7,2.2-16.3h14.1a120.5,120.5,0,0,1-3,16.3"/><path class="cls-25" d="M1034.8,173.2h-15.3c.5-5.2.9-10.7,1.1-16.3h16.3c-.5,5.6-1.2,11.1-2.1,16.3"/><path class="cls-26" d="M1017.7,173.2h-16.1V156.9h17.1c-.2,5.6-.5,11.1-1,16.3"/><path class="cls-47" d="M999.8,173.2H984.2c-.5-5.2-.8-10.7-1.1-16.3h16.6c0,5.6.1,11.1.1,16.3"/><path class="cls-24" d="M982.5,173.2H967.9c-.9-5.2-1.6-10.7-2.1-16.3h15.6c.2,5.6.6,11.1,1.1,16.3"/><path class="cls-16" d="M966.3,173.2H953.2a138.3,138.3,0,0,1-3-16.3h14c.5,5.6,1.2,11.1,2.1,16.3"/><path class="cls-25" d="M951.8,173.2H940.6a107.5,107.5,0,0,1-3.8-16.3h12a138.3,138.3,0,0,0,3,16.3"/><path class="cls-18" d="M939.5,173.2h-8.9a97.6,97.6,0,0,1-4.3-16.3h9.3a107.6,107.6,0,0,0,3.9,16.3"/><path class="cls-18" d="M929.8,173.2h-5.9a90,90,0,0,1-4.8-16.3h6.3a97.8,97.8,0,0,0,4.4,16.3"/><path class="cls-18" d="M923.4,173.2h-.9a82.9,82.9,0,0,1-4.9-16.3h1a90,90,0,0,0,4.8,16.3"/><path class="cls-48" d="M1088.1,139.8a82.1,82.1,0,0,1-1.2,14.1,5.2,5.2,0,0,1-.2,1.1h0a95.4,95.4,0,0,0,1.3-15.2v-2.4h0c0,.8.1,1.6.1,2.4"/><path class="cls-34" d="M1086.6,155h-2.7a95.4,95.4,0,0,0,1.3-15.2,19.3,19.3,0,0,0-.1-2.4h2.8v2.4a95.4,95.4,0,0,1-1.3,15.2"/><path d="M1083.4,155h-6.1a95.4,95.4,0,0,0,1.2-15.2v-2.4h6.1a19.3,19.3,0,0,1,.1,2.4,95.4,95.4,0,0,1-1.3,15.2"/><path class="cls-35" d="M1076.5,155h-9.1a108.8,108.8,0,0,0,1-15.2v-2.4h9.2a19.3,19.3,0,0,1,.1,2.4,95.4,95.4,0,0,1-1.2,15.2"/><path class="cls-31" d="M1066.2,155h-11.8a151.6,151.6,0,0,0,.8-15.2v-2.4h12v2.4a108.8,108.8,0,0,1-1,15.2"/><path class="cls-33" d="M1053,155h-14.3c.4-5,.6-10,.6-15.2v-2.4h14.4a19.3,19.3,0,0,1,.1,2.4,151.6,151.6,0,0,1-.8,15.2"/><path class="cls-27" d="M1037,155h-16.3c.2-5,.3-10,.3-15.2v-2.4h16.6v2.4c0,5.2-.2,10.2-.6,15.2"/><path class="cls-49" d="M1018.8,155h-17.2V137.4h17.5v2.4c0,5.2-.1,10.2-.3,15.2"/><path class="cls-25" d="M999.7,155H983.1c-.2-5-.3-10-.3-15.2v-2.4h16.9V155"/><path class="cls-50" d="M981.3,155H965.7c-.4-5-.6-10-.6-15.2v-2.4H981v2.4c0,5.2.1,10.2.3,15.2"/><path class="cls-25" d="M964,155H950a151.6,151.6,0,0,1-.8-15.2v-2.4h14.3v2.4c0,5.2.2,10.2.5,15.2"/><path class="cls-44" d="M948.5,155H936.6a108.8,108.8,0,0,1-1-15.2v-2.4h12.2a19.3,19.3,0,0,0-.1,2.4,151.6,151.6,0,0,0,.8,15.2"/><path class="cls-37" d="M935.4,155H926a95.4,95.4,0,0,1-1.2-15.2v-2.4h9.6v2.4a108.8,108.8,0,0,0,1,15.2"/><path class="cls-45" d="M925.1,155h-6.4a95.4,95.4,0,0,1-1.2-15.2v-2.4h6.4v2.4a95.4,95.4,0,0,0,1.2,15.2"/><path class="cls-18" d="M918.2,155h-1a95.4,95.4,0,0,1-1.3-15.2c0-.8.1-1.6.1-2.4h1c0,.8-.1,1.6-.1,2.4a95.4,95.4,0,0,0,1.3,15.2"/><path class="cls-51" d="M1086.9,125.7a75.8,75.8,0,0,1,1,9.7h0a90.3,90.3,0,0,0-2.6-17.3h0a64.1,64.1,0,0,1,1.6,7.6"/><path d="M1087.8,135.4h-2.7a90.3,90.3,0,0,0-2.6-17.3h2.7a90.3,90.3,0,0,1,2.6,17.3"/><path class="cls-34" d="M1084.6,135.4h-6.2a90.1,90.1,0,0,0-2.3-17.3h6a98.8,98.8,0,0,1,2.5,17.3"/><path d="M1077.6,135.4h-9.3a109,109,0,0,0-2-17.3h9a109.1,109.1,0,0,1,2.3,17.3"/><path class="cls-52" d="M1067.2,135.4h-12a138.9,138.9,0,0,0-1.7-17.3h11.7a122.1,122.1,0,0,1,2,17.3"/><path class="cls-37" d="M1053.7,135.4h-14.4c-.2-5.9-.6-11.7-1.2-17.3h14a139,139,0,0,1,1.6,17.3"/><path class="cls-26" d="M1037.5,135.4H1021c-.1-5.9-.3-11.7-.6-17.3h16.1c.6,5.6.9,11.4,1,17.3"/><path class="cls-37" d="M1019.1,135.4h-17.5V118.1h16.9c.3,5.6.5,11.4.6,17.3"/><path class="cls-29" d="M999.7,135.4H982.8c.1-5.9.2-11.7.5-17.3h16.4v17.3"/><path class="cls-53" d="M981,135.4H965.2c.1-5.9.5-11.7,1-17.3h15.4c-.3,5.6-.5,11.4-.6,17.3"/><path class="cls-24" d="M963.5,135.4H949.3a139.1,139.1,0,0,1,1.5-17.3h13.8c-.6,5.6-1,11.4-1.1,17.3"/><path class="cls-54" d="M947.8,135.4H935.6a122.1,122.1,0,0,1,2-17.3h11.8a139,139,0,0,0-1.6,17.3"/><path class="cls-47" d="M934.4,135.4h-9.5a90.1,90.1,0,0,1,2.3-17.3h9.2a138.6,138.6,0,0,0-2,17.3"/><path class="cls-18" d="M924,135.4h-6.4a83,83,0,0,1,2.5-17.3h6.2a109.1,109.1,0,0,0-2.3,17.3"/><path class="cls-18" d="M917,135.4h-1a90.3,90.3,0,0,1,2.6-17.3h1a90.3,90.3,0,0,0-2.6,17.3"/><path class="cls-55" d="M1083.6,112.3c.5,1.3.9,2.7,1.3,4h-.1a86.1,86.1,0,0,0-6.1-15.8h0a81.4,81.4,0,0,1,4.9,11.8"/><path d="M1084.7,116.3h-2.6a85.8,85.8,0,0,0-6-15.8h2.5a86.1,86.1,0,0,1,6.1,15.8"/><path d="M1081.6,116.3h-5.9a92.2,92.2,0,0,0-5.5-15.8h5.5a93.3,93.3,0,0,1,5.9,15.8"/><path class="cls-31" d="M1074.9,116.3h-9a90.3,90.3,0,0,0-4.7-15.8h8.3a101.3,101.3,0,0,1,5.4,15.8"/><path class="cls-35" d="M1064.8,116.3h-11.6a110.5,110.5,0,0,0-3.8-15.8h10.7a99.8,99.8,0,0,1,4.7,15.8"/><path d="M1051.8,116.3h-13.9c-.7-5.5-1.6-10.8-2.7-15.8h12.9a125.8,125.8,0,0,1,3.7,15.8"/><path class="cls-25" d="M1036.2,116.3h-15.9c-.4-5.5-.8-10.8-1.4-15.8h14.8c1,5,1.9,10.3,2.5,15.8"/><path class="cls-26" d="M1018.4,116.3h-16.8c0-5.5,0-10.8-.1-15.8h15.7c.5,5,.9,10.3,1.2,15.8"/><path class="cls-25" d="M999.8,116.3H983.4c.4-5.5.8-10.8,1.3-15.8h15.1v15.8"/><path class="cls-12" d="M981.7,116.3H966.4c.7-5.5,1.5-10.8,2.6-15.8h14.1c-.6,5-1,10.3-1.4,15.8"/><path class="cls-50" d="M964.8,116.3H951.1a110.5,110.5,0,0,1,3.7-15.8h12.7c-1.1,5-2,10.3-2.7,15.8"/><path class="cls-38" d="M949.7,116.3H938a99.6,99.6,0,0,1,4.6-15.8h10.9a110.5,110.5,0,0,0-3.8,15.8"/><path class="cls-17" d="M936.8,116.3h-9.2a91.9,91.9,0,0,1,5.4-15.8h8.5a111.5,111.5,0,0,0-4.7,15.8"/><path class="cls-18" d="M926.7,116.3h-6.2a93.3,93.3,0,0,1,5.9-15.8h5.8a92.2,92.2,0,0,0-5.5,15.8"/><path class="cls-18" d="M920,116.3h-.9a85.8,85.8,0,0,1,6-15.8h.9a85.8,85.8,0,0,0-6,15.8"/><path class="cls-56" d="M1071.3,88.4a93.1,93.1,0,0,1,6.6,10.5h-.1a81.7,81.7,0,0,0-9.2-13.9h0l2.7,3.4"/><path class="cls-57" d="M1077.7,98.9h-2.4a80.2,80.2,0,0,0-8.9-13.9h2.1a81.7,81.7,0,0,1,9.2,13.9"/><path class="cls-31" d="M1074.9,98.9h-5.4a91.2,91.2,0,0,0-8.3-13.9h4.8a86.6,86.6,0,0,1,8.9,13.9"/><path d="M1068.7,98.9h-8.2a86.4,86.4,0,0,0-7.1-13.9h7.2a90.3,90.3,0,0,1,8.1,13.9"/><path class="cls-37" d="M1059.5,98.9h-10.6a103.5,103.5,0,0,0-5.8-13.9h9.4a95,95,0,0,1,7,13.9"/><path class="cls-26" d="M1047.6,98.9h-12.8a120.7,120.7,0,0,0-4-13.9H1042a103.3,103.3,0,0,1,5.6,13.9"/><path class="cls-32" d="M1033.3,98.9h-14.6c-.6-5-1.3-9.6-2.1-13.9h12.8a121,121,0,0,1,3.9,13.9"/><path class="cls-58" d="M1017,98.9h-15.5V85h13.6c.7,4.3,1.3,8.9,1.9,13.9"/><path class="cls-25" d="M999.9,98.9h-15c.6-5,1.2-9.6,2-13.9H1000c-.1,4.3-.1,8.9-.1,13.9"/><path class="cls-50" d="M983.3,98.9h-14c1.1-5,2.4-9.6,3.8-13.9h12.4c-.9,4.3-1.6,8.9-2.2,13.9"/><path class="cls-38" d="M967.9,98.9H955.3A91.5,91.5,0,0,1,960.8,85h11.1a103.5,103.5,0,0,0-4,13.9"/><path class="cls-25" d="M954,98.9H943.2a95,95,0,0,1,7-13.9h9.4A103.3,103.3,0,0,0,954,98.9"/><path class="cls-25" d="M942.2,98.9h-8.5A90.3,90.3,0,0,1,941.8,85h7.5a86.4,86.4,0,0,0-7.1,13.9"/><path class="cls-18" d="M932.9,98.9h-5.7A94.1,94.1,0,0,1,936.1,85h5a90.7,90.7,0,0,0-8.2,13.9"/><path class="cls-18" d="M926.8,98.9h-.9A81.2,81.2,0,0,1,935,85h.7a80.2,80.2,0,0,0-8.9,13.9"/><path class="cls-59" d="M1062.6,78.2c1.7,1.7,3.3,3.5,4.8,5.3h0a93.2,93.2,0,0,0-11.9-11.6h0c2.5,2,4.8,4.1,7.1,6.3"/><path class="cls-60" d="M1067.3,83.5h-2.1a84,84,0,0,0-11.5-11.6h1.7a93.2,93.2,0,0,1,11.9,11.6"/><path class="cls-37" d="M1064.9,83.5h-4.7a84.1,84.1,0,0,0-10.7-11.6h3.9a90,90,0,0,1,11.5,11.6"/><path class="cls-31" d="M1059.5,83.5h-7a81.5,81.5,0,0,0-9.3-11.6h5.8a82.7,82.7,0,0,1,10.5,11.6"/><path class="cls-61" d="M1051.6,83.5h-9.2a88.5,88.5,0,0,0-7.4-11.6h7.5a87.9,87.9,0,0,1,9.1,11.6"/><path class="cls-35" d="M1041.3,83.5h-11.1a82.8,82.8,0,0,0-5.2-11.6h9a78.8,78.8,0,0,1,7.3,11.6"/><path class="cls-62" d="M1028.9,83.5h-12.6c-.8-4.2-1.8-8.1-2.8-11.6h10.4a96.3,96.3,0,0,1,5,11.6"/><path class="cls-25" d="M1014.8,83.5h-13.3c-.1-4.2-.1-8.1-.1-11.6h10.9c.9,3.5,1.8,7.4,2.5,11.6"/><path class="cls-38" d="M1000,83.5H987.1c.8-4.2,1.6-8.1,2.5-11.6h10.6c-.1,3.5-.1,7.4-.2,11.6"/><path class="cls-29" d="M985.7,83.5H973.6a96.3,96.3,0,0,1,5-11.6h9.9c-1,3.5-2,7.4-2.8,11.6"/><path class="cls-25" d="M972.4,83.5H961.5a78,78,0,0,1,7.1-11.6h8.9a82.7,82.7,0,0,0-5.1,11.6"/><path class="cls-63" d="M960.4,83.5h-9.3a79.7,79.7,0,0,1,9-11.6h7.6a78.8,78.8,0,0,0-7.3,11.6"/><path class="cls-54" d="M950.2,83.5h-7.3a82,82,0,0,1,10.4-11.6h6a80.3,80.3,0,0,0-9.1,11.6"/><path class="cls-47" d="M942.2,83.5h-4.9a83.3,83.3,0,0,1,11.4-11.6h4.1a83.4,83.4,0,0,0-10.6,11.6"/><path class="cls-18" d="M936.9,83.5h-.8a85.5,85.5,0,0,1,11.7-11.6h.6a84,84,0,0,0-11.5,11.6"/><path class="cls-64" d="M1041,62.5a74.8,74.8,0,0,1,11.4,7.1l1.7,1.2h-.1a85.9,85.9,0,0,0-14.1-8.9h0l1.1.6"/><path class="cls-56" d="M1054,70.8h-1.7a82.5,82.5,0,0,0-13.7-8.9h1.2a86.8,86.8,0,0,1,14.2,8.9"/><path class="cls-57" d="M1052,70.8h-3.7a78.5,78.5,0,0,0-12.7-8.9h2.8a81.6,81.6,0,0,1,13.6,8.9"/><path d="M1047.7,70.8h-5.6a66,66,0,0,0-11-8.9h4.2a72,72,0,0,1,12.4,8.9"/><path class="cls-31" d="M1041.4,70.8h-7.3a57.6,57.6,0,0,0-8.9-8.9h5.4a69,69,0,0,1,10.8,8.9"/><path class="cls-42" d="M1033.2,70.8h-8.8a58,58,0,0,0-6.3-8.9h6.5a60.8,60.8,0,0,1,8.6,8.9"/><path class="cls-65" d="M1023.3,70.8h-10.1a74.6,74.6,0,0,0-3.2-8.9h7.4a50.9,50.9,0,0,1,5.9,8.9"/><path class="cls-26" d="M1012,70.8h-10.6c0-3.4-.1-6.4-.1-8.9h7.8a77.8,77.8,0,0,1,2.9,8.9"/><path class="cls-25" d="M1000.2,70.8H989.9a61.5,61.5,0,0,1,3-8.9h7.5c0,2.5-.1,5.5-.2,8.9"/><path class="cls-38" d="M988.8,70.8h-9.7a57.3,57.3,0,0,1,5.9-8.9h7.1a59.9,59.9,0,0,0-3.3,8.9"/><path class="cls-12" d="M978.1,70.8h-8.7a60.3,60.3,0,0,1,8.5-8.9h6.4a51.6,51.6,0,0,0-6.2,8.9"/><path class="cls-25" d="M968.6,70.8h-7.5a68.3,68.3,0,0,1,10.7-8.9h5.4a60.8,60.8,0,0,0-8.6,8.9"/><path class="cls-16" d="M960.4,70.8h-5.8A72,72,0,0,1,967,61.9h4.3a65.3,65.3,0,0,0-10.9,8.9"/><path class="cls-18" d="M954,70.8h-3.9a81.6,81.6,0,0,1,13.6-8.9h2.9A77.7,77.7,0,0,0,954,70.8"/><path class="cls-18" d="M949.8,70.8h-.6A83.3,83.3,0,0,1,963,61.9h.5a78.5,78.5,0,0,0-13.7,8.9"/><path class="cls-66" d="M1038.2,61.1h0a86.9,86.9,0,0,0-16-5.7h0l6.3,1.8a75.5,75.5,0,0,1,9.7,3.9"/><path class="cls-40" d="M1038.2,61.1H1037a82,82,0,0,0-15.5-5.7h.7a89.6,89.6,0,0,1,16,5.7"/><path class="cls-55" d="M1036.8,61.1h-2.6a73.5,73.5,0,0,0-14.3-5.7h1.5a83.7,83.7,0,0,1,15.4,5.7"/><path class="cls-38" d="M1033.8,61.1h-4a57.9,57.9,0,0,0-12.4-5.7h2.3a71.8,71.8,0,0,1,14.1,5.7"/><path class="cls-67" d="M1029.3,61.1h-5.1a43.6,43.6,0,0,0-10-5.7h3a55.7,55.7,0,0,1,12.1,5.7"/><path class="cls-37" d="M1023.6,61.1h-6.2a30.2,30.2,0,0,0-7-5.7h3.5a44,44,0,0,1,9.7,5.7"/><path class="cls-37" d="M1016.7,61.1h-7.1a24.4,24.4,0,0,0-3.7-5.7h4a29.4,29.4,0,0,1,6.8,5.7"/><path class="cls-68" d="M1008.8,61.1h-7.5c-.1-2.4-.1-4.3-.1-5.7h4.2a24.5,24.5,0,0,1,3.4,5.7"/><path class="cls-38" d="M1000.5,61.1h-7.3a24.5,24.5,0,0,1,3.4-5.7h4.1c-.1,1.4-.2,3.3-.2,5.7"/><path class="cls-20" d="M992.5,61.1h-6.8a28.7,28.7,0,0,1,6.6-5.7h3.9a21.6,21.6,0,0,0-3.7,5.7"/><path class="cls-12" d="M985,61.1h-6.1a40.6,40.6,0,0,1,9.5-5.7h3.5a29.8,29.8,0,0,0-6.9,5.7"/><path class="cls-25" d="M978.3,61.1h-5.2a54.9,54.9,0,0,1,12-5.7h3a42.4,42.4,0,0,0-9.8,5.7"/><path class="cls-69" d="M972.5,61.1h-4a68.5,68.5,0,0,1,14-5.7h2.3a57.2,57.2,0,0,0-12.3,5.7"/><path class="cls-18" d="M968.1,61.1h-2.8a83.7,83.7,0,0,1,15.4-5.7h1.6a70.2,70.2,0,0,0-14.2,5.7"/><path class="cls-18" d="M965.1,61.1h-.4a83,83,0,0,1,15.6-5.7h.3a82,82,0,0,0-15.5,5.7"/><path class="cls-70" d="M1020.4,54.9a83.7,83.7,0,0,0-17.4-2.1h0c3.6.2,8.5.6,12.2,1.1l5.2,1h0"/><path class="cls-59" d="M1020.3,54.9h-.6a77.3,77.3,0,0,0-16.8-2.1h.1a82.7,82.7,0,0,1,17.3,2.1"/><path class="cls-71" d="M1019.6,54.9h-1.3a66.6,66.6,0,0,0-15.5-2.1h.1a77.1,77.1,0,0,1,16.7,2.1"/><path class="cls-51" d="M1018.1,54.9H1016a50.1,50.1,0,0,0-13.5-2.1h.2a65.7,65.7,0,0,1,15.4,2.1"/><path class="cls-67" d="M1015.8,54.9h-2.7a33.5,33.5,0,0,0-10.9-2.1h.3a49.3,49.3,0,0,1,13.3,2.1"/><path class="cls-72" d="M1012.8,54.9h-3.3a17.4,17.4,0,0,0-7.6-2.1h.3a32.2,32.2,0,0,1,10.6,2.1"/><path class="cls-39" d="M1009.2,54.9h-3.7a6.3,6.3,0,0,0-4-2.1h.4a16.5,16.5,0,0,1,7.3,2.1"/><path class="cls-32" d="M1005.1,54.9h-3.9c-.1-1.3-.1-2-.1-2.1h.3a5.7,5.7,0,0,1,3.7,2.1"/><path class="cls-26" d="M1000.7,54.9H997a5.7,5.7,0,0,1,3.6-2.1h.4a7.3,7.3,0,0,0-.3,2.1"/><path class="cls-49" d="M996.6,54.9h-3.5a15.7,15.7,0,0,1,7.1-2.1h.4a6.3,6.3,0,0,0-4,2.1"/><path class="cls-12" d="M992.7,54.9h-3.2a31.1,31.1,0,0,1,10.4-2.1h.3a16.9,16.9,0,0,0-7.5,2.1"/><path class="cls-23" d="M989.2,54.9h-2.7a47.8,47.8,0,0,1,13.1-2.1h.3a32.3,32.3,0,0,0-10.7,2.1"/><path class="cls-69" d="M986.2,54.9h-2.1a64,64,0,0,1,15.2-2.1h.3a50,50,0,0,0-13.4,2.1"/><path class="cls-18" d="M983.9,54.9h-1.4a76.3,76.3,0,0,1,16.7-2.1h.1a65.7,65.7,0,0,0-15.4,2.1"/><path class="cls-18" d="M982.3,54.9h-.2a79.9,79.9,0,0,1,17-2.1h.1a79,79,0,0,0-16.9,2.1"/></g></g><polygon class="cls-73" points="973.1 85.3 963.6 76.3 972.6 85.8 963.6 95.2 973.1 86.3 982.6 95.2 973.6 85.8 982.6 76.3 973.1 85.3"/><polygon class="cls-73" points="972.9 85.5 963.6 85.8 972.9 86 973.1 95.2 973.4 86 982.6 85.8 973.4 85.5 973.1 76.3 972.9 85.5"/><polygon class="cls-73" points="949.8 191.7 944.3 186.5 949.5 192 944.3 197.4 949.8 192.3 955.2 197.4 950 192 955.2 186.5 949.8 191.7"/><polygon class="cls-73" points="949.6 191.8 944.3 192 949.6 192.1 949.8 197.4 949.9 192.1 955.2 192 949.9 191.8 949.8 186.5 949.6 191.8"/><polygon class="cls-73" points="1019.7 174.5 1006.2 161.8 1019 175.3 1006.2 188.7 1019.7 176 1033.1 188.7 1020.4 175.3 1033.1 161.8 1019.7 174.5"/><polygon class="cls-73" points="1019.3 174.9 1006.2 175.3 1019.3 175.6 1019.7 188.7 1020 175.6 1033.1 175.3 1020 174.9 1019.7 161.8 1019.3 174.9"/><polygon class="cls-73" points="1059.8 98.9 1053.1 92.5 1059.5 99.2 1053.1 106 1059.8 99.6 1066.6 106 1060.2 99.2 1066.6 92.5 1059.8 98.9"/><polygon class="cls-73" points="1059.7 99.1 1053.1 99.2 1059.7 99.4 1059.8 106 1060 99.4 1066.6 99.2 1060 99.1 1059.8 92.5 1059.7 99.1"/><rect class="cls-5" x="539" y="892" width="841" height="28"/><path class="cls-74" d="M1078.3,954.8c-.2,1.1-.5,2.1-.8,3.2a1.2,1.2,0,0,1,.3,1c-.8,3.4-1.5,8.3-9.4,9.4a52.7,52.7,0,0,1-18.6-.8,15.7,15.7,0,0,1-4.6-.9c-8.8-.2-17.6-.7-26.3-1l.4.3c1.4,1.2.6,2.9-.6,4.1a14.2,14.2,0,0,1-5.6,3.2l-2.2.6a5.8,5.8,0,0,1-2.1,1.3,27.1,27.1,0,0,1-.1,4,19.7,19.7,0,0,1-.7,3.5,3.2,3.2,0,0,1-1.3,1.6l-2.7,1.4c-3.2,1.4-6.6,2.8-10.1,4.1.1.2.1.5.2.7a10.2,10.2,0,0,1-.2,3.5,5.5,5.5,0,0,1-.5,1.7c-.3.6-.5,1.9-2.1,2h-1.8c-3.9-.6-8.3-1.9-10.7-3.5a3.8,3.8,0,0,1-1.6-1.8,68.8,68.8,0,0,1-21.5-2.5,15.8,15.8,0,0,1-3.8.4l-3.2-.2c-1.2-.1-2.5-.1-3.6-.3a6.5,6.5,0,0,1-2.2-1.1l-5.1-2.7-1.5-1a1.4,1.4,0,0,1,.1-1.8l-1.4-.4c-.8-.5-1.3-1.1-.8-1.7s2.2-.6,3.5-.6h1.4l.9-.5a13.8,13.8,0,0,1-3.5-4.4,9.6,9.6,0,0,1-1.1-5.4,9,9,0,0,1,.7-2.7,5.5,5.5,0,0,1,2.5-2.8c-9.2-.1-18.7.2-25.8,3.1a11.6,11.6,0,0,1-5.5.6l-.9.3-1.3.3c-3.6,2.2-7.4,4.2-11.3,6.2-7.4,3.7-15.1,7.2-22,11.2s-14.5,8.7-23.4,12.3l-1.8.5c-1.5,1.6-4.4,2.8-7.8,2.8-2.2,3.4-6.4,6.5-12,8.8a44.3,44.3,0,0,1-5.5,1.8c-6.1,4.3-15.5,7.4-26.2,8.4-2.3.2-4-.5-4.7-1.3s-2.6-2.5.3-3.2l9.7-2.6,3-.7c-2.8-.5-5-1.6-5.4-3.2a.9.9,0,0,1-.1-.5c-1.8-.2-3.2-.8-3.6-2a1.7,1.7,0,0,1,0-1l-1.9-.4c-4.8-1.7-.1-4.5,3.1-5.6,4.7-1.8,10.8-2.3,16.6-2.7a52.2,52.2,0,0,0,6.9-.4,8.9,8.9,0,0,0,2.9-.8l.2-.2c0-.1.1-.1.2-.2a9.1,9.1,0,0,1-2.8-1.3c-.9-.9-.8-1.8.2-2.7s3.7-1.9,5.7-2.7l7.6-3.6c9.7-4.8,17.2-10.1,25.4-15.5s19.3-9.6,29.1-14.1l13.3-6.1a19.9,19.9,0,0,0,6.7-3.1l2.9-1.4,2.7-.6c7-4.8,10.8-10.8,11.4-16.6v-1.9c3-6.2,2.9-12.3,1.2-18.6a62.2,62.2,0,0,0-3.1-9.2c9.2,1.7,18.6,3.2,28,4.5l-.2-.5c1.7-4.6.6-9.2-2.1-14s-6-9.3-8.1-14.1-3.5-11.6-6.6-17.1V857a3.8,3.8,0,0,0,0-1.5,1.3,1.3,0,0,0-.1-.6h0a8.3,8.3,0,0,0-.4-1.5l.5-.6-.5-1-11.5-11.3-2.4-1.6c-.6-.7-1.2-1.5-1.9-2.2h-.1a45.1,45.1,0,0,0-4.7-5.1,80.1,80.1,0,0,0-10.7-7.3,119.6,119.6,0,0,0-24.9-11.1l-4.6-1.2c-.5-.7-.4-1.5.8-2.3,3.9-2.8,10.1-4.9,16.8-6.4a4.2,4.2,0,0,1,1.7-1.8l-3.3-4.8-7.2-10.5c-4.5-6.5,16.8-9.4,21.2-2.8l9.6,14,.6.9,1.2.9c5.6,1.5,10.8,3.1,14.3,6l1.7,1.4c2.9,4.9,7.8,9.5,12.3,13.4a66.4,66.4,0,0,1,6.1,5.6c.6.5,4.4,3.9,1.3,1.3a17.5,17.5,0,0,1,2.5,3.2,62.3,62.3,0,0,1,5.3,8.8c1.5,4.1,2.2,8.4,4.3,12.5a19.9,19.9,0,0,0,1.2,1.9l.5.2c11,5.6,18.6,12.5,25.6,19.5,2.7,1.8,5.4,3.7,7.8,5.6a35.8,35.8,0,0,1,2.3-7c3.4-7.8,9.6-15.4,10.7-23.4.8-5.9.2-11.8-.4-17.7a7.7,7.7,0,0,0,.2-1.5,18.4,18.4,0,0,0-1.7-6.4h.1l-.3-.5-.4-.8c-1.1-2.1-2.3-4.2-3.4-6.4-2.2-4.4-3.5-8.8-6.4-13.1a12.9,12.9,0,0,0-3.3-3.3c2.7-2.3,7.9-3.9,13.5-4.8a10.5,10.5,0,0,1,5.1-2.2q-1.6-6.7,7.5-12c3.7-2.2,11.8-2.1,15.6,0s3.9,5.3,0,7.6c1.3-.8-.4.3-.7.5l-.3.3-.3.5a1.7,1.7,0,0,0-.2.5h0c5.2.8,9.3,3.4,7.5,6.5-5.1,8.6-3.6,17.6-2.8,26.5s1.7,18.4,2.5,27.7,1.6,18.5-2.1,27.7c-.7,1.7-1.4,3.5-2.2,5.2a39.8,39.8,0,0,1-5.3,15,26.2,26.2,0,0,1,0,5.6,23.8,23.8,0,0,1-4.3,9.3c1.7.5,3,1.4,2.7,2.4-1,3.8-2.1,7.6-3.1,11.5s-2.6,7.3-2.8,10.9,6.5,7,12.3,9.9h5.4c-1.9-3.1-3.4-6.5,2.7-8.2l1.4-.3c-3.4-2.1-6.8-4.1-9.9-6.2s-9-7.1-2-7.5h1a.8.8,0,0,1,.4-1.1l-1.8-1.5c-.8-.6-2-1.1-2-1.9l-.4-.3c-.3-.6.4-1.4,1.8-1.5a22.4,22.4,0,0,1,5.2.1c.9-1.1,4.2-2,6.8-.9l2.2,1.1c2-.5,5.1-.3,6.3,1.1h0c1.8-.1,3.5.3,3.8,1.4s.5,1.9.7,2.8c4,4,5.6,8.5,8.1,12.9l5-.2c4.7-.3,6.5,1.8,5.4,3.6a1,1,0,0,1,.4.7A24.5,24.5,0,0,1,1078.3,954.8Z"/></g><g id="Layer_2" data-name="Layer 2"><path d="M824.7,410.9l-2.4,2-3.1,1.4,2.5-2.2Z"/><path d="M819.2,414.3l3.1-1.4c-6.9,5.8-12.9,12.4-18.8,19.1-7.5,8.6-14.8,17.4-23.2,25.2s-17.1,13.9-27.4,17.7a51.3,51.3,0,0,1-15.9,3.3c-6.6.3-13.2-.8-19.7-1.7l-8-1,1.2-.9,10.2,1.4c6.5.9,13,1.7,19.5,1a53.8,53.8,0,0,0,15.8-4.4c10.2-4.5,19.1-11.6,26.9-19.3s15.4-17.1,23-25.6A168.2,168.2,0,0,1,819.2,414.3Z"/><path d="M821.7,412.1l-2.5,2.2a100.8,100.8,0,0,0-18.3,11.9c-7.2,5.5-14.2,11.3-22,15.9s-16.4,8.3-25.5,8.7a35.8,35.8,0,0,1-13-1.7,93.9,93.9,0,0,1-11.2-5.1l-3.1-1.7.4-.9,5.2,2.8a59.1,59.1,0,0,0,11.4,4.6,37.6,37.6,0,0,0,13.4.8c9.1-1.2,17.7-5.5,25.3-10.5s14.4-10.8,21.6-16.1A89.4,89.4,0,0,1,821.7,412.1Z"/><path class="cls-75" d="M800.9,426.2a100.8,100.8,0,0,1,18.3-11.9,168.2,168.2,0,0,0-13.3,13.4c-7.6,8.5-14.8,17.5-23,25.6s-16.7,14.8-26.9,19.3a53.8,53.8,0,0,1-15.8,4.4c-6.5.7-13-.1-19.5-1l-10.2-1.4H709l-1.3.9c-31.9,21.9-67.6,38-104.8,48.9-40.3,11.7-82.3,17.5-124.2,18.3s-87.8-4-125.2-26.6c-15.9-9.7-30.3-22.3-41-37.7a108.7,108.7,0,0,1-19.3-57.5c-1.2-22.5,3.1-45,9-66.5a268.2,268.2,0,0,1,23-58.2,198,198,0,0,1,37-49.2,214.7,214.7,0,0,1,48.1-34.8c37.6-20.1,80.1-29.5,122.7-30.6a399,399,0,0,1,70.7,4.8c20.4,3.1,41.1,6.9,60.3,14.6s35,19.4,45.7,36.8a136.6,136.6,0,0,1,12.8,28.4c3.7,10.6,6.7,21.5,9.5,32.3,11,43,15.2,89.5-1.5,131.6a119.1,119.1,0,0,1-4.9,11l-.4.9.9.4,3.1,1.7a93.9,93.9,0,0,0,11.2,5.1,35.8,35.8,0,0,0,13,1.7c9.1-.4,17.7-4,25.5-8.7S793.7,431.7,800.9,426.2Z"/><path d="M740.1,332.8c5.3,36.5,3,75.5-13.6,108.6l-.9-.4a119.1,119.1,0,0,0,4.9-11c16.7-42.1,12.5-88.6,1.5-131.6-2.8-10.8-5.8-21.7-9.5-32.3a136.6,136.6,0,0,0-12.8-28.4c-10.7-17.4-26.9-29.2-45.7-36.8s-39.9-11.5-60.3-14.6a399,399,0,0,0-70.7-4.8c-42.6,1.1-85.1,10.5-122.7,30.6a214.7,214.7,0,0,0-48.1,34.8,198,198,0,0,0-37,49.2,268.2,268.2,0,0,0-23,58.2c-5.9,21.5-10.2,44-9,66.5a108.7,108.7,0,0,0,19.3,57.5c10.7,15.4,25.1,28,41,37.7,37.4,22.6,82.4,27.4,125.2,26.6s83.9-6.6,124.2-18.3c37.2-10.9,72.9-27,104.8-48.9h1.6q-9.6,6.6-19.5,12.6c-36.5,21.6-76.9,36.3-118.3,45.1a469.4,469.4,0,0,1-62.6,8.9,417.6,417.6,0,0,1-67.1.5c-41.1-3.2-82.4-15.3-113-44.1-13.3-12.5-24.1-27.7-30.3-45-7.6-21.2-7.7-44.2-4.4-66.2a290.8,290.8,0,0,1,17.1-63.5,235,235,0,0,1,30.2-54.9c24.1-32,58-55.5,95.2-70,42.2-16.3,88-20.8,132.9-17.5a420.2,420.2,0,0,1,67.9,10.3c18.8,4.5,37.7,11,53.2,23s25.7,30.7,32.4,49.7A378.3,378.3,0,0,1,740.1,332.8Z"/><path d="M726.5,441.4l-.4.9-.9-.4.4-.9Z"/><path d="M709,474.5h1.5l-1.2.9h-1.6Z"/><path d="M403.3,245.9c0-7.2,4.8-13.3,10.5-13.3s8.9,5.2,8.9,11.4-4.8,13.3-10.4,13.3S403.3,252,403.3,245.9Zm1.9,0c0,5.2,2.9,9.5,7.1,9.5s8.5-5.2,8.5-11.3-3-9.6-7.3-9.6S405.2,239.6,405.2,245.9Z"/><path d="M440.1,257.2a1,1,0,0,1-1-1c0-.5.1-2.4.1-4.6,0-9.3-1.6-10.5-2.9-10.5-3.1,0-5.9,4.7-6.5,5.9a7.9,7.9,0,0,0-.6,3.2v5.9a1,1,0,0,1-1,1.1,1,1,0,0,1-1-1V233.4a1.1,1.1,0,0,1,1-1,1,1,0,0,1,1,1v11.7c1.3-2.9,4.3-6,7.2-6s4.8,4.1,4.8,12.3c0,2.3,0,3.7-.1,4.8A.9.9,0,0,1,440.1,257.2Z"/><path d="M449.3,255.6a4.6,4.6,0,0,1-.7,2.3c-.8,2.1-.9,2.6-1.5,2.6a.8.8,0,0,1-.9-.8c0-.1.1-.2.1-.3l.9-2.3a1.3,1.3,0,0,1-.5-1.1,1.6,1.6,0,0,1,1.5-1.6A1.2,1.2,0,0,1,449.3,255.6Z"/><path d="M468.6,246.7c.7-4.1,3.7-7.5,7.5-7.5s5.1,4,5.1,12.5v4.4a1,1,0,0,1-1,1.1,1.1,1.1,0,0,1-1-1c-.1-10,.6-15-3.2-15-1.6,0-3.5.7-5.4,4.3a17.3,17.3,0,0,0-2,7.7v2.9a1,1,0,0,1-1,1.1,1,1,0,0,1-1-.9V240.2a1,1,0,0,1,1-1,.9.9,0,0,1,1,1Z"/><path d="M485.3,248.9c0-5.2,3.9-9.7,8.4-9.7s7.3,3.8,7.3,8.3-3.9,9.7-8.4,9.7S485.3,253.4,485.3,248.9Zm2.1-.1c0,3.6,2.1,6.7,5.2,6.7s6.3-3.7,6.3-7.8-2.4-6.8-5.4-6.8S487.4,244.6,487.4,248.8Z"/><path d="M509.1,255.6a4.6,4.6,0,0,1-.7,2.3c-.8,2.1-.9,2.6-1.5,2.6a.8.8,0,0,1-.9-.8c0-.1.1-.2.1-.3l.9-2.3a1.3,1.3,0,0,1-.5-1.1,1.6,1.6,0,0,1,1.5-1.6A1.2,1.2,0,0,1,509.1,255.6Z"/><path d="M544.8,256.5l-5.3-19.3-6.3,19.3a.9.9,0,0,1-.9.7,1,1,0,0,1-1-.7l-6.7-22.1a2.6,2.6,0,0,1-.1-.7.9.9,0,0,1,.9-1,1,1,0,0,1,1,.7l5.9,19.4,6.3-19.4a1,1,0,0,1,1.9,0l5.4,19.5,7-19.6a1.1,1.1,0,0,1,1-.6,1.1,1.1,0,0,1,1,.9c0,.2-.1.3-.1.4l-8.1,22.5a1,1,0,0,1-.9.7A1,1,0,0,1,544.8,256.5Z"/><path d="M570.5,254.6a8.6,8.6,0,0,1-14.8-6c0-4.9,3.1-9.4,8-9.4s6.8,3.3,6.8,4.8-.2.7-.8,1.1l-11.5,6.5a6.8,6.8,0,0,0,6.4,3.7,7.2,7.2,0,0,0,4.6-2,.9.9,0,0,1,.7-.3.9.9,0,0,1,.9,1A.7.7,0,0,1,570.5,254.6Zm-13-5.9a4.1,4.1,0,0,0,.1,1.1l10.9-6c-.6-1.7-2.1-2.7-4.8-2.7S557.5,244.5,557.5,248.7Z"/><path d="M577,246.7c.7-4.1,3.6-7.5,7.4-7.5s5.1,4,5.1,12.5v4.4a1,1,0,0,1-1,1.1,1,1,0,0,1-.9-1c-.2-10,.5-15-3.3-15-1.6,0-3.5.7-5.4,4.3a17.2,17.2,0,0,0-1.9,7.7v2.9a1,1,0,0,1-1,1.1,1,1,0,0,1-1-.9V240.2a1,1,0,0,1,1-1,1,1,0,0,1,1.1,1Z"/><path d="M608.1,256.2a1,1,0,0,1-1.1,1c-.7,0-1-.6-1-1.2v-1.7a9.2,9.2,0,0,1-6.2,2.7c-4.3,0-6.2-4-6.2-7.9s2.1-9.8,7.7-9.8a11.6,11.6,0,0,1,5,1.1v-7.3a1.1,1.1,0,0,1,2.1.1Zm-8.2-.9c3.7,0,6.2-2.8,6.2-3.9l.2-8.8a10.5,10.5,0,0,0-4.8-1.4c-4.9,0-5.8,4.6-5.8,7.7S596.6,255.3,599.9,255.3Z"/><path d="M617.2,263.6a1.1,1.1,0,0,1-1,.7,1,1,0,0,1-1-1.1.8.8,0,0,1,.1-.4l3.6-7.8-7.1-14.2a1.3,1.3,0,0,1-.1-.6,1,1,0,0,1,1-1,1,1,0,0,1,.9.7l6.4,12.7,5.8-12.8a1.1,1.1,0,0,1,2,.4.6.6,0,0,1-.1.4Z"/><path d="M631.1,255.8a1.5,1.5,0,0,1,1.4-1.6,1.2,1.2,0,0,1,1.1,1.3,1.6,1.6,0,0,1-1.4,1.7C631.5,257.2,631.1,256.6,631.1,255.8Z"/><path d="M398.2,299.7l-5.3-19.3-6.2,19.3a1,1,0,0,1-1.9,0l-6.7-22.1a1.4,1.4,0,0,1-.2-.7.9.9,0,0,1,.9-1,1,1,0,0,1,1,.7l5.9,19.4,6.3-19.4a1,1,0,0,1,1.9,0l5.4,19.5,7-19.6a1.1,1.1,0,0,1,1-.6,1,1,0,0,1,1,.9c0,.2,0,.3-.1.4l-8.1,22.5a1,1,0,0,1-.9.7A1,1,0,0,1,398.2,299.7Z"/><path d="M424,297.8a9,9,0,0,1-6,2.6,8.5,8.5,0,0,1-8.9-8.6c0-4.9,3.2-9.4,8-9.4s6.8,3.3,6.8,4.8-.2.7-.8,1.1l-11.5,6.5a6.8,6.8,0,0,0,6.4,3.7,7,7,0,0,0,4.6-2,.9.9,0,0,1,.7-.3.9.9,0,0,1,.9,1A1.1,1.1,0,0,1,424,297.8Zm-13.1-5.9a4.1,4.1,0,0,0,.1,1.1l10.9-6c-.6-1.7-2.1-2.7-4.8-2.7S410.9,287.7,410.9,291.9Z"/><path d="M430.6,275.1a6.1,6.1,0,0,1-.7,2.3c-.9,2.1-.9,2.7-1.6,2.7a.8.8,0,0,1-.8-.8.4.4,0,0,1,.1-.3l.8-2.3a2.1,2.1,0,0,1-.4-1.1,1.6,1.6,0,0,1,1.4-1.6A1.2,1.2,0,0,1,430.6,275.1Z"/><path d="M445.8,286.4a1,1,0,0,1-1,1,.9.9,0,0,1-.9-1v-.9c0-.7-.3-1.2-1.3-1.2s-3.4,1.4-4.7,3.2a7.1,7.1,0,0,0-1.2,3.8v8.2a.9.9,0,0,1-1,.9,1,1,0,0,1-1-.9V283.4a1.1,1.1,0,0,1,1-1,1.1,1.1,0,0,1,1.1,1v3.5c1-2,3-4.6,6.2-4.6a2.7,2.7,0,0,1,2.9,2.9Z"/><path d="M462.9,297.8a8.7,8.7,0,0,1-5.9,2.6,8.6,8.6,0,0,1-9-8.6c0-4.9,3.2-9.4,8.1-9.4s6.7,3.3,6.7,4.8-.2.7-.8,1.1l-11.4,6.5a6.6,6.6,0,0,0,6.3,3.7,6.7,6.7,0,0,0,4.6-2,.9.9,0,0,1,.7-.3.9.9,0,0,1,.9,1A1.1,1.1,0,0,1,462.9,297.8Zm-13.1-5.9a4.1,4.1,0,0,0,.1,1.1l11-6c-.7-1.7-2.1-2.7-4.8-2.7S449.8,287.7,449.8,291.9Z"/><path d="M486.3,300.5c0,2.3-.7,6.4-4.3,6.4s-5.2-4.4-5.5-5.1-.1-.3-.1-.4a1.1,1.1,0,0,1,1.1-1,1.2,1.2,0,0,1,1,.7c.6,1.7,1.8,4,3.5,4s2.3-3.7,2.3-4.5-.2-16-.2-17.2a1,1,0,0,1,1-1.1,1.1,1.1,0,0,1,1,1C486.1,284.1,486.3,299.4,486.3,300.5Zm.1-23.8-.2,1.6c0,.4-.5.7-1,.7s-1-.5-.9-.9v-1.8a1.1,1.1,0,0,1,1-.7A1,1,0,0,1,486.4,276.7Z"/><path d="M504.9,299.4a1.1,1.1,0,0,1-1.1,1,1.1,1.1,0,0,1-1.1-1.2v-1.5a7.9,7.9,0,0,1-6.1,2.8c-5.5,0-5.4-5.3-5.4-10.6v-.5a39.1,39.1,0,0,1,.4-5.8c.1-1,.5-1.2,1-1.2a1,1,0,0,1,1,.9c0,.9-.5,3.2-.5,6.6v.5c0,4.2.1,8.3,3.5,8.3a9,9,0,0,0,5.8-2.6,2.9,2.9,0,0,0,.4-1.5l.2-11.3a.9.9,0,0,1,.9-.9,1,1,0,0,1,1,.9Z"/><path d="M509.1,295.8a.9.9,0,0,1,.9-1,.9.9,0,0,1,.9.7,4.7,4.7,0,0,0,4.7,3.1c3.2,0,4.3-2.2,4.3-3.2s-.8-2.6-4.3-3.6-5.5-2.5-5.5-5.1,3.6-4.3,6.1-4.3,5.6,1.6,5.6,4.1-.3,1.6-1,1.6a.9.9,0,0,1-1-1,5.6,5.6,0,0,0,.1-.7c0-1.3-1.1-2.2-3.6-2.2s-4.3.9-4.3,2.5,2.4,2.8,3.8,3.2c3.4,1.1,6,1.9,6,5.5s-2.4,5.1-6.2,5.1S509.1,297,509.1,295.8Z"/><path d="M535.9,282.4a.9.9,0,0,1,1,1,1,1,0,0,1-1,1h-4.2v15.1a1,1,0,0,1-1,.9,1,1,0,0,1-1.1-.9V284.4h-4.2a1.1,1.1,0,0,1-1-1,1,1,0,0,1,1.1-1h4.1v-5.2a1.1,1.1,0,0,1,1.1-1,1,1,0,0,1,1,1v5.2Z"/><path d="M552.9,305.5a1.1,1.1,0,0,1,1-1,22.2,22.2,0,0,0,4.2.5c3.9,0,5.3-2.1,5.4-5.4v-2a6.5,6.5,0,0,1-5.1,2.8c-4.2,0-7.1-3.8-7.1-8.7s3.6-9.3,8.5-9.3a8.6,8.6,0,0,1,4,1.1c0-.8.2-1.5,1-1.5a1,1,0,0,1,1,1l-.4,16.7c-.1,5.1-3.1,7.4-7.3,7.4a17.5,17.5,0,0,1-4.5-.6A1.1,1.1,0,0,1,552.9,305.5Zm10.8-19.9a6.1,6.1,0,0,0-3.7-1.2c-3.7,0-6.8,3.2-6.8,7.5,0,2.6,1.4,6.6,5,6.6s5.5-1.8,5.5-7.7Z"/><path d="M585,297.8a8.7,8.7,0,0,1-5.9,2.6,8.6,8.6,0,0,1-9-8.6c0-4.9,3.2-9.4,8.1-9.4s6.7,3.3,6.7,4.8-.2.7-.8,1.1l-11.4,6.5a6.6,6.6,0,0,0,6.3,3.7,6.7,6.7,0,0,0,4.6-2,.9.9,0,0,1,.7-.3.9.9,0,0,1,.9,1A1.1,1.1,0,0,1,585,297.8Zm-13.1-5.9a4.1,4.1,0,0,0,.1,1.1l11-6c-.7-1.7-2.1-2.7-4.8-2.7S571.9,287.7,571.9,291.9Z"/><path d="M599.2,282.4a.9.9,0,0,1,1,1,1,1,0,0,1-1,1H595v15.1a1,1,0,0,1-1,.9.9.9,0,0,1-1-.9V284.4h-4.2a1,1,0,0,1,0-2H593v-5.2a1,1,0,0,1,2,0v5.2Z"/><path d="M613.2,282.4a1,1,0,0,1,1,1,1.1,1.1,0,0,1-1,1h-4.3v15.1a.9.9,0,0,1-1,.9,1,1,0,0,1-1-.9V284.4h-4.2a1,1,0,0,1-1-1,1,1,0,0,1,1.1-1h4.1v-5.2a1,1,0,1,1,2,0v5.2Z"/><path d="M619.3,299.3a1,1,0,0,1-1,1.1,1.1,1.1,0,0,1-1.1-1.1l.3-15.7a1,1,0,1,1,2,0Zm-1.8-21v-1.4a.9.9,0,0,1,1-1,1,1,0,0,1,.9,1v1.5a1,1,0,0,1-1,.9A1,1,0,0,1,617.5,278.3Z"/><path d="M626.2,289.9c.8-4.1,3.7-7.5,7.5-7.5s5.1,4,5.1,12.5v4.4a1,1,0,0,1-1,1.1,1,1,0,0,1-.9-1c-.2-10,.5-15-3.3-15-1.6,0-3.5.7-5.4,4.3a18.7,18.7,0,0,0-2,7.7v2.9a1,1,0,0,1-1,1.1,1,1,0,0,1-1-.9V283.4a1,1,0,0,1,1-1,.9.9,0,0,1,1,1Z"/><path d="M644.6,305.5a1,1,0,0,1,1-1,19.2,19.2,0,0,0,4.1.5c4,0,5.3-2.1,5.4-5.4v-2a6.4,6.4,0,0,1-5.1,2.8c-4.1,0-7.1-3.8-7.1-8.7s3.6-9.3,8.5-9.3a8.3,8.3,0,0,1,4,1.1c0-.8.2-1.5,1-1.5a1.1,1.1,0,0,1,1.1,1l-.4,16.7c-.2,5.1-3.2,7.4-7.4,7.4a18.2,18.2,0,0,1-4.5-.6A1,1,0,0,1,644.6,305.5Zm10.8-19.9a6.1,6.1,0,0,0-3.8-1.2c-3.7,0-6.8,3.2-6.8,7.5,0,2.6,1.4,6.6,5,6.6s5.6-1.8,5.6-7.7Z"/><path d="M459.3,339a1,1,0,0,1,1-1,.9.9,0,0,1,.9.7,4.7,4.7,0,0,0,4.7,3.1c3.2,0,4.2-2.2,4.2-3.2s-.7-2.6-4.2-3.6-5.5-2.5-5.5-5.1,3.5-4.3,6.1-4.3,5.6,1.6,5.6,4.1-.3,1.6-1,1.6a.9.9,0,0,1-1-1,5.6,5.6,0,0,0,.1-.7c0-1.3-1.1-2.2-3.6-2.2s-4.4.9-4.4,2.5,2.5,2.8,3.9,3.2c3.3,1.1,5.9,1.9,5.9,5.5s-2.3,5.1-6.1,5.1S459.3,340.2,459.3,339Z"/><path d="M486.2,325.6a.9.9,0,0,1,1,1,1,1,0,0,1-1,1h-4.3v15.1a.9.9,0,0,1-1,.9,1,1,0,0,1-1-.9V327.6h-4.2a1,1,0,0,1-1-1,1,1,0,0,1,1.1-1h4.1v-5.2a1,1,0,0,1,2,0v5.2Z"/><path d="M503.7,342.5a1,1,0,0,1-1,1.1c-.6,0-1-.5-1-1.2v-.8a10.4,10.4,0,0,1-5.2,1.7c-3.9,0-6.8-3.1-6.8-7.8s2.3-10.4,8.6-10.4a11.2,11.2,0,0,1,5.4,1.5Zm-1.9-14.7a10.2,10.2,0,0,0-3.4-.7c-4.9,0-6.6,5.4-6.6,8.4s1.2,5.8,4.6,5.8,4.4-1.5,5.3-2.1Z"/><path d="M519.6,329.6a1,1,0,0,1-1,1,.9.9,0,0,1-.9-1v-.9c0-.7-.3-1.2-1.3-1.2s-3.4,1.4-4.7,3.2a7.1,7.1,0,0,0-1.2,3.8v8.2a.9.9,0,0,1-1,.9,1,1,0,0,1-1-.9V326.6a1.1,1.1,0,0,1,1-1,1.1,1.1,0,0,1,1.1,1v3.5c1.1-2,3-4.6,6.2-4.6a2.7,2.7,0,0,1,2.9,2.9Z"/><path d="M533.3,325.6a1,1,0,0,1,1,1,1.1,1.1,0,0,1-1,1H529v15.1a1,1,0,0,1-2,0V327.6h-4.2a1,1,0,0,1-1-1,1,1,0,0,1,1.1-1H527v-5.2a1,1,0,0,1,2,0v5.2Z"/><path d="M551.7,341a8.7,8.7,0,0,1-5.9,2.6,8.6,8.6,0,0,1-9-8.6c0-4.9,3.2-9.4,8.1-9.4s6.7,3.3,6.7,4.8-.2.7-.8,1.1L539.4,338a6.6,6.6,0,0,0,6.4,3.7,7.2,7.2,0,0,0,4.6-2,.7.7,0,0,1,.6-.3c.6,0,.9.4.9,1A1.1,1.1,0,0,1,551.7,341Zm-13-5.9v1.1l11-6c-.7-1.7-2.1-2.7-4.8-2.7S538.7,330.9,538.7,335.1Z"/><path d="M569.9,342.6a.9.9,0,0,1-1,1c-.7,0-1-.6-1-1.2v-1.7a9.2,9.2,0,0,1-6.2,2.7c-4.3,0-6.2-4-6.2-7.9s2.1-9.8,7.7-9.8a11.6,11.6,0,0,1,5,1.1v-7.3a1.1,1.1,0,0,1,2.1.1Zm-8.1-.9c3.7,0,6.2-2.8,6.2-3.9l.2-8.8a10.5,10.5,0,0,0-4.8-1.4c-4.9,0-5.8,4.6-5.8,7.7S558.5,341.7,561.8,341.7Z"/><path d="M576,343.6a1.2,1.2,0,0,1-1.2-1.3,1.7,1.7,0,0,1,1.4-1.7,1.2,1.2,0,0,1,1.2,1.3A1.6,1.6,0,0,1,576,343.6Zm-.8-23.9a1.1,1.1,0,0,1,1.1-1.1,1,1,0,0,1,1,1.1v17.4a.9.9,0,0,1-1,1,1,1,0,0,1-1.1-1Z"/><path d="M348.7,428a1,1,0,1,1,0,2h-9.2a1,1,0,0,1,0-2h3.6V407.5h-3.6a1,1,0,0,1,0-2h9.2a1,1,0,1,1,0,2h-3.5V428Z"/><path d="M356.5,404.7a6.1,6.1,0,0,1-.7,2.3c-.9,2.1-.9,2.7-1.6,2.7a.8.8,0,0,1-.8-.8v-.3l.9-2.3a2.1,2.1,0,0,1-.4-1.1,1.6,1.6,0,0,1,1.4-1.6A1.2,1.2,0,0,1,356.5,404.7Z"/><path d="M366.9,429.4a.8.8,0,0,1-.9.6,1,1,0,0,1-.9-.7l-6.5-15.9c0-.1-.1-.3-.1-.4a1.1,1.1,0,0,1,1.1-1,1.1,1.1,0,0,1,.9.7l5.5,13.9,5.6-14a.9.9,0,0,1,.9-.6,1.1,1.1,0,0,1,1,1c0,.2-.1.3-.1.4Z"/><path d="M390.6,427.4a8.7,8.7,0,0,1-5.9,2.6,8.6,8.6,0,0,1-9-8.6c0-4.9,3.2-9.4,8.1-9.4s6.7,3.3,6.7,4.8-.2.7-.8,1.1l-11.4,6.5a6.6,6.6,0,0,0,6.3,3.7,6.7,6.7,0,0,0,4.6-2,.9.9,0,0,1,.7-.3.9.9,0,0,1,.9,1A1.1,1.1,0,0,1,390.6,427.4Zm-13.1-5.9a4.1,4.1,0,0,0,.1,1.1l10.9-6c-.6-1.7-2-2.7-4.7-2.7S377.5,417.3,377.5,421.5Z"/><path d="M406.3,421.7c0-5.2,3.8-9.7,8.4-9.7s7.3,3.8,7.3,8.3-3.9,9.7-8.4,9.7S406.3,426.2,406.3,421.7Zm2-.1c0,3.6,2.1,6.7,5.3,6.7s6.3-3.7,6.3-7.8-2.4-6.8-5.4-6.8S408.3,417.4,408.3,421.6Z"/><path d="M428.1,419.5c.7-4.1,3.6-7.5,7.5-7.5s5.1,4,5.1,12.5c0,1.4,0,2.9-.1,4.4s-.3,1.1-.9,1.1a1.1,1.1,0,0,1-1-1c-.2-10,.5-15-3.2-15-1.6,0-3.5.7-5.4,4.3a16.1,16.1,0,0,0-2,7.7v2.9a1,1,0,0,1-1,1.1,1,1,0,0,1-1-.9V413a1,1,0,0,1,2,0Z"/><path d="M448.1,429.1a1,1,0,0,1-2,0v-23a.9.9,0,0,1,1-.9,1,1,0,0,1,1,.9Z"/><path d="M457.4,436.4a1,1,0,0,1-2-.4.8.8,0,0,1,.1-.4l3.6-7.8L452,413.6a1.3,1.3,0,0,1-.1-.6,1,1,0,0,1,1-1,1.2,1.2,0,0,1,1,.7l6.3,12.7,5.9-12.8a.9.9,0,0,1,.9-.6.9.9,0,0,1,1,1v.4Z"/><path d="M482.5,425.4a.9.9,0,0,1,.9-1,.9.9,0,0,1,.9.7,4.7,4.7,0,0,0,4.7,3.1c3.2,0,4.3-2.2,4.3-3.2s-.8-2.6-4.3-3.6-5.5-2.5-5.5-5.1,3.6-4.3,6.1-4.3,5.6,1.6,5.6,4.1-.3,1.6-1,1.6a1,1,0,0,1-1-1,5.6,5.6,0,0,0,.1-.7c0-1.3-1.1-2.2-3.6-2.2s-4.3.9-4.3,2.5,2.4,2.8,3.8,3.2c3.4,1.1,6,1.9,6,5.5s-2.4,5.1-6.2,5.1S482.5,426.6,482.5,425.4Z"/><path d="M512.3,430a1,1,0,0,1-.9-1v-4.6c0-9.3-1.6-10.5-2.9-10.5-3.1,0-5.9,4.7-6.5,5.9a8,8,0,0,0-.5,3.2v5.9a1,1,0,0,1-1,1.1.9.9,0,0,1-1-1V406.2a1,1,0,0,1,2,0v11.7c1.3-2.9,4.2-6,7.2-6s4.7,4.1,4.7,12.3c0,2.3,0,3.7-.1,4.8A.9.9,0,0,1,512.3,430Z"/><path d="M517,421.7c0-5.2,3.9-9.7,8.4-9.7s7.3,3.8,7.3,8.3-3.9,9.7-8.4,9.7S517,426.2,517,421.7Zm2.1-.1c0,3.6,2.1,6.7,5.2,6.7s6.3-3.7,6.3-7.8-2.4-6.8-5.4-6.8S519.1,417.4,519.1,421.6Z"/><path d="M555.4,413.4l-5,15.8a1.1,1.1,0,0,1-1,.8,1,1,0,0,1-1-.8L545,415.9l-4.8,13.3a.9.9,0,0,1-.9.8,1.2,1.2,0,0,1-1.1-.9l-3.3-15.6c0-.1-.1-.4-.1-.5a1.1,1.1,0,0,1,1-1,1,1,0,0,1,1,.9l2.7,13.3,4.6-13.5a1.3,1.3,0,0,1,1.1-.7,1.2,1.2,0,0,1,1,.9l3.3,13.5,4-13.6a1,1,0,0,1,2,.2A.6.6,0,0,1,555.4,413.4Z"/><path d="M560.2,419.5c.7-4.1,3.7-7.5,7.5-7.5s5.1,4,5.1,12.5v4.4a1,1,0,0,1-1,1.1,1.1,1.1,0,0,1-1-1c-.1-10,.6-15-3.2-15-1.6,0-3.5.7-5.4,4.3a17.3,17.3,0,0,0-2,7.7v2.9a1,1,0,0,1-1,1.1,1,1,0,0,1-1-.9V413a1,1,0,0,1,1-1,.9.9,0,0,1,1,1Z"/><path d="M593.2,436.4a1,1,0,0,1-.9.7,1,1,0,0,1-1-1.1.8.8,0,0,1,.1-.4l3.5-7.8-7-14.2a1.4,1.4,0,0,1-.2-.6,1.1,1.1,0,0,1,1-1,1.1,1.1,0,0,1,1,.7l6.3,12.7,5.9-12.8a1.1,1.1,0,0,1,2,.4.6.6,0,0,1-.1.4Z"/><path d="M606.4,421.7c0-5.2,3.9-9.7,8.4-9.7s7.3,3.8,7.3,8.3-3.9,9.7-8.4,9.7S606.4,426.2,606.4,421.7Zm2.1-.1c0,3.6,2.1,6.7,5.2,6.7s6.3-3.7,6.3-7.8-2.4-6.8-5.4-6.8S608.5,417.4,608.5,421.6Z"/><path d="M640,429a1.1,1.1,0,0,1-1.1,1,1.1,1.1,0,0,1-1.1-1.2v-1.5a7.9,7.9,0,0,1-6.1,2.8c-5.5,0-5.4-5.3-5.4-10.6a4.3,4.3,0,0,1-.1-.5,36.6,36.6,0,0,1,.5-5.8c.1-1,.5-1.2,1-1.2a1,1,0,0,1,1,.9c0,.9-.5,3.2-.5,6.6v.5c0,4.2.1,8.3,3.5,8.3a8.5,8.5,0,0,0,5.7-2.6,2.5,2.5,0,0,0,.5-1.5l.2-11.3a.9.9,0,0,1,.9-.9,1,1,0,0,1,1,.9Z"/><path d="M681.1,418.2V429a1,1,0,0,1-2,0V418c0-4.2-1.7-4.6-2.9-4.6a6.6,6.6,0,0,0-5.9,6.4V429a1,1,0,0,1-1,1,.9.9,0,0,1-1-1V418c0-4.2-1.7-4.6-2.9-4.6s-4,1.7-6.4,5.5a7.5,7.5,0,0,0-.5,1.6V429a.9.9,0,0,1-1,1,1,1,0,0,1-1-1V413a1.1,1.1,0,0,1,1-1,1,1,0,0,1,1,1v4c2-2.7,4.5-5.4,6.9-5.4s3.9.8,4.6,4c1.7-2.5,4.3-4,6.2-4S681.1,412.7,681.1,418.2Z"/><path d="M689.7,436.4a1,1,0,0,1-2-.4.8.8,0,0,1,.1-.4l3.6-7.8-7.1-14.2a1.3,1.3,0,0,1-.1-.6,1,1,0,0,1,1-1,1.2,1.2,0,0,1,1,.7l6.3,12.7,5.9-12.8a.9.9,0,0,1,.9-.6.9.9,0,0,1,1,1v.4Z"/><path d="M431.2,455.2c0-5.2,2.1-6.9,7.2-6.9.8,0,1.4.2,1.4,1a.8.8,0,0,1-.9.9c-4.4,0-5.7.6-5.7,5h5a1,1,0,0,1,.9.9.9.9,0,0,1-.9.9h-5v15.3a1,1,0,0,1-2,0V457h-2.7a.9.9,0,0,1-.9-.9.9.9,0,0,1,.8-.9Z"/><path d="M444.6,472.1a1.1,1.1,0,0,1-1,1.1,1.1,1.1,0,0,1-1.1-1.1l.2-15.7a1.1,1.1,0,0,1,1.1-1.1,1,1,0,0,1,1,1.1Zm-1.8-21v-1.4a.9.9,0,0,1,1-1,1,1,0,0,1,.9,1v1.5a1,1,0,0,1-1,.9A1,1,0,0,1,442.8,451.1Z"/><path d="M460.7,459.2a1,1,0,0,1-1,1,.9.9,0,0,1-.9-1v-.9c0-.7-.3-1.2-1.3-1.2s-3.4,1.4-4.7,3.2a7.1,7.1,0,0,0-1.2,3.8v8.2a.9.9,0,0,1-1,.9,1,1,0,0,1-1-.9V456.2a1.1,1.1,0,0,1,1-1,1.1,1.1,0,0,1,1.1,1v3.5c1-2,3-4.6,6.2-4.6a2.7,2.7,0,0,1,2.9,2.9Z"/><path d="M464,468.6a.9.9,0,0,1,1-1,1.1,1.1,0,0,1,.9.7,4.5,4.5,0,0,0,4.6,3.1c3.2,0,4.3-2.2,4.3-3.2s-.7-2.6-4.3-3.6-5.5-2.5-5.5-5.1,3.6-4.3,6.1-4.3,5.6,1.6,5.6,4.1-.3,1.6-1,1.6a1,1,0,0,1-1-1,5.6,5.6,0,0,0,.1-.7c0-1.3-1.1-2.2-3.5-2.2s-4.4.9-4.4,2.5,2.4,2.8,3.9,3.2c3.3,1.1,5.9,1.9,5.9,5.5s-2.4,5.1-6.2,5.1S464,469.8,464,468.6Z"/><path d="M490.8,455.2a.9.9,0,0,1,1,1,1,1,0,0,1-1,1h-4.2v15.1a1,1,0,0,1-1,.9.9.9,0,0,1-1-.9V457.2h-4.2a1,1,0,0,1,0-2h4.2V450a1,1,0,0,1,2,0v5.2Z"/><path d="M531.4,461.4v10.8a1,1,0,0,1-1,1,.9.9,0,0,1-1-1v-11c0-4.2-1.7-4.6-2.9-4.6s-6,2.3-6,6.4v9.2a.9.9,0,0,1-1,1,1,1,0,0,1-1-1v-11c0-4.2-1.6-4.6-2.8-4.6s-4.1,1.7-6.5,5.5a4.2,4.2,0,0,0-.4,1.6v8.5a1,1,0,0,1-2,0v-16a1.1,1.1,0,0,1,1-1,1,1,0,0,1,1,1v4c1.9-2.7,4.4-5.4,6.9-5.4s3.9.8,4.6,4c1.7-2.5,4.2-4,6.2-4S531.4,455.9,531.4,461.4Z"/><path d="M535.5,464.9c0-5.2,3.9-9.7,8.4-9.7s7.3,3.8,7.3,8.3-3.9,9.7-8.4,9.7S535.5,469.4,535.5,464.9Zm2.1-.1c0,3.6,2.1,6.7,5.2,6.7s6.3-3.7,6.3-7.8-2.4-6.8-5.4-6.8S537.6,460.6,537.6,464.8Z"/><path d="M561.8,472.6a1,1,0,0,1-1,.6,1,1,0,0,1-.9-.7l-6.5-15.9c0-.1-.1-.3-.1-.4a1.1,1.1,0,0,1,1.1-1,1.1,1.1,0,0,1,.9.7l5.5,13.9,5.6-14a.9.9,0,0,1,.9-.6,1.1,1.1,0,0,1,1,1c0,.2-.1.3-.1.4Z"/><path d="M585.4,470.6a8.7,8.7,0,0,1-5.9,2.6,8.6,8.6,0,0,1-9-8.6c0-4.9,3.2-9.4,8.1-9.4s6.7,3.3,6.7,4.8-.2.7-.8,1.1l-11.4,6.5a6.6,6.6,0,0,0,6.3,3.7,6.7,6.7,0,0,0,4.6-2,.9.9,0,0,1,.7-.3.9.9,0,0,1,.9,1A1.1,1.1,0,0,1,585.4,470.6Zm-13.1-5.9a4.1,4.1,0,0,0,.1,1.1l11-6c-.7-1.7-2.1-2.7-4.8-2.7S572.3,460.5,572.3,464.7Z"/><path d="M589.9,471.8a1.6,1.6,0,0,1,1.5-1.6,1.2,1.2,0,0,1,1.1,1.3,1.6,1.6,0,0,1-1.4,1.7A1.3,1.3,0,0,1,589.9,471.8Z"/><path d="M597.7,471.8a1.5,1.5,0,0,1,1.4-1.6,1.2,1.2,0,0,1,1.1,1.3,1.6,1.6,0,0,1-1.4,1.7C598.1,473.2,597.7,472.6,597.7,471.8Z"/><path d="M605.4,471.8a1.5,1.5,0,0,1,1.4-1.6,1.2,1.2,0,0,1,1.1,1.3,1.6,1.6,0,0,1-1.4,1.7C605.8,473.2,605.4,472.6,605.4,471.8Z"/><path d="M1063.3,405.4l-1.6-1.4-1.7-.7,1.4,1.2Z"/><path d="M1102.1,428.5a20.2,20.2,0,0,0,7.6-1.2,44.5,44.5,0,0,0,6.6-3.2l1.8-1-.2-.6-3.1,1.7a31.1,31.1,0,0,1-6.7,3,19.2,19.2,0,0,1-7.9.4c-5.4-.7-10.4-3.4-14.9-6.5s-8.5-6.8-12.7-10.2a54.2,54.2,0,0,0-10.9-6.9l1.6,1.4a60.6,60.6,0,0,1,10.7,7.5c4.3,3.5,8.4,7.2,13,10.1S1096.7,428.2,1102.1,428.5Z"/><path d="M1117.9,422.5l.2.6.6-.3-.3-.6Z"/><path d="M1109.8,444.9a27.6,27.6,0,0,1-9.3-2.7c-6-2.9-11.2-7.3-15.9-12.2s-9-10.7-13.5-16.1c-2.5-3-5.1-5.8-7.8-8.5l-1.9-.9a115.3,115.3,0,0,1,11.1,12.1c4.4,5.4,8.7,11,13.7,15.8a50,50,0,0,0,16.1,11.3,30.4,30.4,0,0,0,9.4,2,56.3,56.3,0,0,0,11.6-1.1l4.7-.6-.7-.6-6,.9A40.4,40.4,0,0,1,1109.8,444.9Z"/><path d="M1128.2,443.4h-.9l.7.6h1Z"/><path class="cls-75" d="M1304.3,278c-22.2-12.7-47.3-18.6-72.4-19.3a215.3,215.3,0,0,0-41.6,3c-12,2-24.2,4.4-35.6,9.2s-20.6,12.3-26.9,23.3a94.4,94.4,0,0,0-7.6,17.9c-2.1,6.6-3.9,13.5-5.6,20.3-6.5,27.1-8.9,56.4.9,82.9a71.3,71.3,0,0,0,2.9,6.9l.3.6-.6.3-1.8,1a44.5,44.5,0,0,1-6.6,3.2,20.2,20.2,0,0,1-7.6,1.2c-5.4-.3-10.5-2.6-15.1-5.5s-8.7-6.6-13-10.1a60.6,60.6,0,0,0-10.7-7.5c2.7,2.7,5.3,5.5,7.8,8.5,4.5,5.4,8.7,11,13.5,16.1s9.9,9.3,15.9,12.2a27.6,27.6,0,0,0,9.3,2.7,40.4,40.4,0,0,0,11.5-.6l6-.9h.9l.8.5a208.7,208.7,0,0,0,61.7,30.8,261,261,0,0,0,73.3,11.6c25.2.5,51.7-2.5,73.7-16.8a82.8,82.8,0,0,0,24.2-23.7,72.3,72.3,0,0,0,11.4-36.3c.7-14.1-1.8-28.3-5.3-41.9a187.5,187.5,0,0,0-13.5-36.7,124.5,124.5,0,0,0-50.2-52.9Z"/><path d="M1170.4,265.1c-11.1,2.8-22.2,7-31.3,14.5S1123.9,299,1120,311a243.2,243.2,0,0,0-10.1,43.1c-3.2,23-1.8,47.5,8,68.4l.5-.3a71.3,71.3,0,0,1-2.9-6.9c-9.8-26.5-7.4-55.8-.9-82.9,1.7-6.8,3.5-13.7,5.6-20.3a94.4,94.4,0,0,1,7.6-17.9c6.3-11,15.9-18.5,26.9-23.3s23.6-7.2,35.6-9.2a215.3,215.3,0,0,1,41.6-3c25.1.7,50.2,6.6,72.4,19.3a124.5,124.5,0,0,1,50.2,52.9,187.5,187.5,0,0,1,13.5,36.7c3.5,13.6,6,27.8,5.3,41.9a72.3,72.3,0,0,1-11.4,36.3,82.8,82.8,0,0,1-24.2,23.7c-22,14.3-48.5,17.3-73.7,16.8a261,261,0,0,1-73.3-11.6,208.7,208.7,0,0,1-61.7-30.8h-1c3.8,2.8,7.6,5.4,11.5,7.9,21.5,13.7,45.3,22.9,69.7,28.5a271.7,271.7,0,0,0,36.9,5.6,238.1,238.1,0,0,0,39.6.3c24.2-2,48.6-9.7,66.6-27.8a74.2,74.2,0,0,0,17.9-28.3c4.5-13.4,4.5-27.9,2.6-41.8a195.5,195.5,0,0,0-10.1-40,149,149,0,0,0-17.8-34.6c-14.2-20.2-34.2-35-56.1-44.1-24.9-10.3-51.9-13.1-78.4-11.1A247,247,0,0,0,1170.4,265.1Z"/><path d="M1200.5,331.9v.3a1,1,0,0,1-1,1,1,1,0,0,1-1-.7l-3-8.7-9.2,2-2.7,6.7a1,1,0,0,1-.9.7,1.1,1.1,0,0,1-1-1.1v-.3l2.2-5.5h-.7a1,1,0,0,1-1.1-1,1.1,1.1,0,0,1,.8-1l1.9-.4,5.9-15a.9.9,0,0,1,1-.6,1,1,0,0,1,.9.7Zm-5.7-10.1-3.2-9.4-4.4,11.1Z"/><path d="M1215.9,319.2a1.1,1.1,0,0,1-1,1,1,1,0,0,1-1-1.1v-.9c0-.6-.2-1.1-1.3-1.1s-3.3,1.4-4.7,3.2a8.1,8.1,0,0,0-1.2,3.8v8.1a1,1,0,1,1-2,0v-16a1,1,0,0,1,2,0v3.4c1.1-1.9,3.1-4.5,6.2-4.5a2.7,2.7,0,0,1,3,2.9Z"/><path d="M1232.9,330.6a8.6,8.6,0,0,1-14.8-6c0-5,3.1-9.4,8-9.4s6.8,3.3,6.8,4.8-.3.7-.8,1.1l-11.5,6.5a6.7,6.7,0,0,0,6.4,3.7,7.2,7.2,0,0,0,4.6-2,.7.7,0,0,1,.6-.3.9.9,0,0,1,1,.9A.9.9,0,0,1,1232.9,330.6Zm-13-5.9a4.5,4.5,0,0,0,.1,1.1l10.9-6c-.6-1.7-2.1-2.7-4.8-2.7S1219.9,320.5,1219.9,324.7Z"/><path d="M1253.1,339.6a1,1,0,0,1-2-.4.6.6,0,0,1,.1-.4l3.6-7.8-7.1-14.2c0-.2-.1-.4-.1-.6a1,1,0,0,1,1-1,1.2,1.2,0,0,1,1,.7l6.3,12.7,5.9-12.8a1,1,0,0,1,.9-.7,1,1,0,0,1,1,1.1v.4Z"/><path d="M1266.3,324.9c0-5.3,3.8-9.7,8.3-9.7s7.3,3.8,7.3,8.3-3.8,9.7-8.4,9.7S1266.3,329.4,1266.3,324.9Zm2-.1c0,3.6,2.1,6.7,5.2,6.7s6.3-3.7,6.3-7.9-2.3-6.7-5.3-6.7S1268.3,320.6,1268.3,324.8Z"/><path d="M1299.8,332.2a1.1,1.1,0,0,1-1.1,1,1.1,1.1,0,0,1-1.1-1.2v-1.6a7.9,7.9,0,0,1-6.1,2.9c-5.4,0-5.4-5.3-5.4-10.6v-.5c0-2.5.3-4.5.4-5.8s.5-1.2,1-1.2a1,1,0,0,1,1,.9c0,.9-.5,3.2-.5,6.6v.5c0,4.2.1,8.3,3.5,8.3a9,9,0,0,0,5.8-2.6,2.5,2.5,0,0,0,.5-1.5V316.1a.9.9,0,0,1,1-.9.8.8,0,0,1,.9.9Z"/><path d="M1180.8,362.4a1,1,0,0,1-1,1c-.7,0-.9-.6-.9-1.1v-.9c0-.6-.3-1.1-1.3-1.1s-3.4,1.4-4.7,3.2a7.1,7.1,0,0,0-1.2,3.8v8.1a.9.9,0,0,1-1,1,1,1,0,0,1-1-1v-16a1.1,1.1,0,0,1,1-1,1.1,1.1,0,0,1,1.1,1v3.4c1.1-1.9,3-4.5,6.2-4.5a2.7,2.7,0,0,1,2.9,2.9Z"/><path d="M1197.9,373.8a8.7,8.7,0,0,1-5.9,2.6,8.6,8.6,0,0,1-9-8.6c0-5,3.2-9.4,8.1-9.4s6.7,3.3,6.7,4.8-.2.7-.8,1.1l-11.4,6.5a6.6,6.6,0,0,0,6.3,3.7,7.2,7.2,0,0,0,4.7-2,.7.7,0,0,1,.6-.3.9.9,0,0,1,.9.9A1.4,1.4,0,0,1,1197.9,373.8Zm-13-5.9V369l11-6c-.7-1.7-2.1-2.7-4.8-2.7S1184.9,363.7,1184.9,367.9Z"/><path d="M1215.8,375.3a1.1,1.1,0,0,1-1,1.1c-.7,0-1-.6-1-1.2v-.8a10.7,10.7,0,0,1-5.3,1.7c-3.9,0-6.8-3.1-6.8-7.8s2.4-10.4,8.6-10.4a12.2,12.2,0,0,1,5.5,1.5Zm-2-14.7a9,9,0,0,0-3.3-.7c-5,0-6.7,5.4-6.7,8.3s1.2,5.9,4.6,5.9a10.1,10.1,0,0,0,5.3-2.1Z"/><path d="M1234.3,375.4a.9.9,0,0,1-1,1,1,1,0,0,1-1-1.2v-1.7a9,9,0,0,1-6.2,2.7c-4.2,0-6.1-4-6.1-8s2.1-9.7,7.7-9.7a11.1,11.1,0,0,1,4.9,1.1l.2-7.3a1.1,1.1,0,1,1,2.1.1Zm-8.2-.9c3.8,0,6.3-2.8,6.3-3.9l.2-8.8a10.6,10.6,0,0,0-4.9-1.4c-4.9,0-5.8,4.6-5.8,7.7S1222.8,374.5,1226.1,374.5Z"/><path d="M1243.4,382.8a1,1,0,0,1-.9.7,1.1,1.1,0,0,1-1.1-1.1l.2-.4,3.5-7.8-7-14.2a1.4,1.4,0,0,1-.2-.6,1.1,1.1,0,0,1,1-1,1.1,1.1,0,0,1,1,.7l6.3,12.7,5.9-12.8a1,1,0,0,1,1-.7,1.1,1.1,0,0,1,1,1.1.8.8,0,0,1-.1.4Z"/><path d="M1271,358.3c0-5.1,2.2-6.8,7.3-6.8.8,0,1.4.2,1.4.9a1,1,0,0,1-1,1c-4.3,0-5.6.6-5.6,4.9h4.9a1,1,0,0,1,.9.9.9.9,0,0,1-.9.9h-4.9v15.2a1,1,0,0,1-1.1,1,1,1,0,0,1-1-1V360.2h-2.7a.9.9,0,0,1-.9-.9,1,1,0,0,1,.9-1Z"/><path d="M1280.4,368.1c0-5.3,3.9-9.7,8.4-9.7s7.3,3.8,7.3,8.3-3.9,9.7-8.4,9.7S1280.4,372.6,1280.4,368.1Zm2.1-.1c0,3.6,2,6.7,5.2,6.7s6.3-3.7,6.3-7.9-2.4-6.7-5.4-6.7S1282.5,363.8,1282.5,368Z"/><path d="M1311.4,362.4a1,1,0,0,1-1,1c-.7,0-.9-.6-.9-1.1v-.9c0-.6-.3-1.1-1.3-1.1s-3.4,1.4-4.7,3.2a7.1,7.1,0,0,0-1.2,3.8v8.1a1,1,0,0,1-2,0v-16a1.1,1.1,0,0,1,1-1,1.1,1.1,0,0,1,1.1,1v3.4c1-1.9,3-4.5,6.2-4.5a2.7,2.7,0,0,1,2.9,2.9Z"/><path d="M1214,401.6a1,1,0,0,1,1,1,1.1,1.1,0,0,1-1,1h-4.3v15a.9.9,0,0,1-1,1,1,1,0,0,1-1-1v-15h-4.2a1,1,0,0,1-1-1,1,1,0,0,1,1.1-1h4.1v-5.2a1,1,0,1,1,2,0v5.2Z"/><path d="M1230.9,419.6a1.1,1.1,0,0,1-.9-1V414c0-9.4-1.6-10.5-2.9-10.5-3.1,0-5.9,4.7-6.5,5.9a8,8,0,0,0-.5,3.2v5.9a1,1,0,0,1-1.1,1.1,1.1,1.1,0,0,1-1-1V395.8a1.1,1.1,0,0,1,1-1.1,1,1,0,0,1,1.1,1.1v11.7c1.2-2.9,4.2-6,7.2-6s4.7,4.1,4.7,12.3c0,2.3,0,3.7-.1,4.8A1,1,0,0,1,1230.9,419.6Z"/><path d="M1238.2,418.5a1,1,0,0,1-1,1.1,1.1,1.1,0,0,1-1.1-1.1l.3-15.7a1,1,0,1,1,2,0Zm-1.8-21V396a.9.9,0,0,1,1-.9,1,1,0,0,1,.9,1v1.5a1,1,0,0,1-1,.9A1,1,0,0,1,1236.4,397.5Z"/><path d="M1242.6,415a1,1,0,0,1,1-1,.9.9,0,0,1,.9.7c.6,1.9,2.4,3,4.7,3s4.2-2.1,4.2-3.2-.7-2.5-4.2-3.5-5.5-2.5-5.5-5.1,3.5-4.3,6.1-4.3,5.6,1.6,5.6,4.1-.3,1.6-1,1.6a.9.9,0,0,1-1-1,5.6,5.6,0,0,0,.1-.7c0-1.3-1.1-2.2-3.6-2.2s-4.4.9-4.4,2.5,2.5,2.8,3.9,3.2c3.3,1.1,5.9,1.9,5.9,5.5s-2.3,5.1-6.1,5.1S1242.6,416.2,1242.6,415Z"/><path d="M1264.3,413.3a.9.9,0,0,1-.9-1,.9.9,0,0,1,.3-.7c.7-.6,2.7-2.3,4.3-3.9s4.1-3.3,4.1-6.3-1.5-5.5-6-5.5a6.4,6.4,0,0,0-5,2.7.9.9,0,0,1-.7.3,1,1,0,0,1-1-1c0-.3.4-.7.8-1.2a7.9,7.9,0,0,1,5.9-2.7c4.7,0,8,3,8,7.4s-3,6.3-4.9,7.9L1265,413A.9.9,0,0,1,1264.3,413.3Zm-2.3,4.9a1.5,1.5,0,0,1,1.4-1.6,1.2,1.2,0,0,1,1.1,1.3,1.6,1.6,0,0,1-1.4,1.7C1262.4,419.6,1262,419,1262,418.2Z"/></g></svg>