<svg xmlns="http://www.w3.org/2000/svg" viewBox="0 0 390.25 418.52"><defs><style>.cls-1{fill:#001121;}.cls-2{fill:#e8e8e8;}.cls-3{fill:#d2d8d6;}.cls-10,.cls-4{fill:none;}.cls-10,.cls-12,.cls-4{stroke:#000;stroke-miterlimit:10;}.cls-4{stroke-width:0.5px;}.cls-5{fill:#faf1e4;}.cls-6{fill:#e2eef2;}.cls-7{fill:#b3cac4;}.cls-8{fill:#b48f5b;}.cls-9{fill:#d74957;}.cls-10,.cls-12{stroke-width:0.25px;}.cls-11{fill:#ffaea8;}</style></defs><title>Asset 6</title><g id="Layer_2" data-name="Layer 2"><g id="lazer"><path class="cls-1" d="M378.75,153.87c.55,1.13-1.28,2.6-1.84,3.27l-2.07,2.51c-.46.56-.92,1.13-1.4,1.69l-50.29,22a8.09,8.09,0,0,1-1.13-.59,8.39,8.39,0,0,1-4-7.94,9.12,9.12,0,0,1,.17-1.15l6.88-3a.38.38,0,0,1,.35-.15L370.11,151l1.56.39c1,.25,1.95.52,2.92.82S378.2,152.74,378.75,153.87Zm-3.47,3.78c1.14-1.23,2.52-2.87,1.12-3.86a9.17,9.17,0,0,0-3.19-1.12,9.12,9.12,0,0,0,2,4.9S375.25,157.62,375.28,157.65Zm-3.07-5a.59.59,0,0,1,0-.19c-.44-.09-.85-.18-1.2-.27l-.74-.17a.5.5,0,0,1,.09.26c.06,2.62,1.53,5.46,2.93,7.66l1.11-1.35a2.54,2.54,0,0,0,.2-.24l-.08-.06A10.39,10.39,0,0,1,372.21,152.65Zm-2.84-.3-8.49,3.72c.12,2.75.8,6.29,2.91,8.22a.53.53,0,0,1,.12.15l8.66-3.79s0,0,0,0C371,158.28,369.46,155.2,369.37,152.35Zm-9.47,4.15-34.09,14.95c-.44,1.26.16,3,.56,4.18a6.76,6.76,0,0,0,2.61,3.79.5.5,0,0,1,.19.25L363,164.86C360.86,162.82,360.08,159.38,359.9,156.5Zm-35.19,15.43-5.66,2.48a7.38,7.38,0,0,0,4.16,7.87l5-2.19a7.9,7.9,0,0,1-2.81-4.18A10.26,10.26,0,0,1,324.71,171.93Z" transform="translate(-0.13 -0.13)"/><path class="cls-2" d="M376.4,153.79c1.4,1,0,2.63-1.12,3.86,0,0,0-.06,0-.08a9.12,9.12,0,0,1-2-4.9A9.17,9.17,0,0,1,376.4,153.79Z" transform="translate(-0.13 -0.13)"/><path class="cls-2" d="M372.22,152.46a.59.59,0,0,0,0,.19,10.39,10.39,0,0,0,2.32,5.64l.08.06a2.54,2.54,0,0,1-.2.24l-1.11,1.35c-1.4-2.2-2.87-5-2.93-7.66a.5.5,0,0,0-.09-.26l.74.17C371.37,152.28,371.78,152.37,372.22,152.46Z" transform="translate(-0.13 -0.13)"/><path class="cls-2" d="M360.88,156.07l8.49-3.72c.09,2.85,1.66,5.93,3.18,8.27,0,0,0,0,0,0l-8.66,3.79a.53.53,0,0,0-.12-.15C361.68,162.36,361,158.82,360.88,156.07Z" transform="translate(-0.13 -0.13)"/><path class="cls-2" d="M325.81,171.45,359.9,156.5c.18,2.88,1,6.32,3.06,8.36l-33.79,14.81a.5.5,0,0,0-.19-.25,6.76,6.76,0,0,1-2.61-3.79C326,174.42,325.37,172.71,325.81,171.45Zm31.2-8.81a2.5,2.5,0,1,0-1.28,3.29A2.51,2.51,0,0,0,357,162.64Z" transform="translate(-0.13 -0.13)"/><circle class="cls-3" cx="354.6" cy="163.52" r="2.5"/><path class="cls-2" d="M319.05,174.41l5.66-2.48a10.26,10.26,0,0,0,.7,4,7.9,7.9,0,0,0,2.81,4.18l-5,2.19A7.38,7.38,0,0,1,319.05,174.41Z" transform="translate(-0.13 -0.13)"/><path class="cls-4" d="M374.59,152.16c-1-.3-1.94-.57-2.92-.82l-1.56-.39-44.69,19.59a.38.38,0,0,0-.35.15l-6.88,3a9.12,9.12,0,0,0-.17,1.15,8.39,8.39,0,0,0,4,7.94,8.09,8.09,0,0,0,1.13.59l50.29-22c.48-.56.94-1.13,1.4-1.69l2.07-2.51c.56-.67,2.39-2.14,1.84-3.27S375.62,152.48,374.59,152.16Z" transform="translate(-0.13 -0.13)"/><path class="cls-4" d="M372.55,160.62s0,0,0,0l-8.66,3.79a.53.53,0,0,0-.12-.15c-2.11-1.93-2.79-5.47-2.91-8.22l8.49-3.72C369.46,155.2,371,158.28,372.55,160.62Z" transform="translate(-0.13 -0.13)"/><path class="cls-4" d="M329,179.42a6.76,6.76,0,0,1-2.61-3.79c-.4-1.21-1-2.92-.56-4.18L359.9,156.5c.18,2.88,1,6.32,3.06,8.36l-33.79,14.81A.5.5,0,0,0,329,179.42Z" transform="translate(-0.13 -0.13)"/><path class="cls-4" d="M319.05,174.41l5.66-2.48a10.26,10.26,0,0,0,.7,4,7.9,7.9,0,0,0,2.81,4.18l-5,2.19A7.38,7.38,0,0,1,319.05,174.41Z" transform="translate(-0.13 -0.13)"/><path class="cls-4" d="M373.3,159.94c-1.4-2.2-2.87-5-2.93-7.66a.5.5,0,0,0-.09-.26l.74.17c.35.09.76.18,1.2.27a.59.59,0,0,0,0,.19,10.39,10.39,0,0,0,2.32,5.64l.08.06a2.54,2.54,0,0,1-.2.24Z" transform="translate(-0.13 -0.13)"/><path class="cls-4" d="M375.28,157.65s0-.06,0-.08a9.12,9.12,0,0,1-2-4.9,9.17,9.17,0,0,1,3.19,1.12C377.8,154.78,376.42,156.42,375.28,157.65Z" transform="translate(-0.13 -0.13)"/><circle class="cls-4" cx="354.6" cy="163.52" r="2.5"/></g><g id="Layer_6" data-name="Layer 6"><path class="cls-1" d="M390.2,63.37c.45,3.18-2.21,5.43-4.81,6.25-4.33,1.38-8.86-.14-12.59,3.21-2.79,2.51-4.45,6.16-6.44,9.33-1.7,2.7-3.7,5.3-6.52,6.75-3.79,2-8.16,1.66-12.25,2.06-5,.5-8.52,2.67-11.72,6.67-2.38,3-4.5,6.35-7.65,8.52s-6.9,2.65-10.59,2.63c-.64,0-1.29,0-1.92,0a67.44,67.44,0,0,1-4.7,17.8,76.58,76.58,0,0,1-27.92,33.72,82.82,82.82,0,0,1-11,6.26c.82.91,1.63,1.83,2.42,2.77,2.42,2.86,3,4.42-.53,6.55-3.22,2-7,3-10.64,4.2,1,2.09,2.07,4.19,3.07,6.3,14.93-7.27,29.2-16.48,42.43-25.33l1-.63a.46.46,0,0,1,.1.31v4.64a60.87,60.87,0,0,1,10.67-5.94c8-3.48,18.95-7,25.31,1.44a14,14,0,0,1,2.31,11.78,14.37,14.37,0,0,1-3,5.88c-1.55,1.82-3.69,2.9-5.31,4.62-3.86,4.05-3.73,10.48-6,15.45a28.69,28.69,0,0,1-8.3,10.55A36.06,36.06,0,0,1,311.05,216h0a.43.43,0,0,0-.5.07l-.08.05-.57.12V218c-.35.29-.71.56-1.06.82a95.14,95.14,0,0,1-24.21,12.56,189.42,189.42,0,0,1,8,41.66c2,27.13,3.29,54.35,4.91,81.52a.55.55,0,0,1-.87.52,73.13,73.13,0,0,0-24.1-12.42,89.91,89.91,0,0,0-8.92-2.19q.87,2.32,1.68,4.65c2.88,8.26,6.78,18,5.12,26.95a14.76,14.76,0,0,1-.5,2c2.58,4.56,2.14,11.16,1.79,16.25-.49,6.79-3.15,12.35-9,15.6-6.81,3.79-15.12,3.28-22.56,2.74-6.49-.47-13.68-2.16-17.74-8-3.36-4.87-3.11-11-2.19-16.72a17.15,17.15,0,0,1-6.48-13c-.19-5.21,1.12-10.36.62-15.57a26.56,26.56,0,0,0-4.68-12.46c-.19-.28-.4-.57-.6-.84-9.07,1.52-18.28,3.81-25.9,8.79a164,164,0,0,0,21.33,28.4.6.6,0,0,1-.13,1q-6.17,2.16-12.42,4.15a389.05,389.05,0,0,1-57.81,13.48,22.69,22.69,0,0,1-6.92,13.25c-5.82,5.48-13.91,7.52-21.56,7.45a64.68,64.68,0,0,1-14-1.88c-3.65-.84-7.74-1.52-11.08-3.37-4.36-2.41-5.14-6.62-4.52-10.95a385.05,385.05,0,0,1-39-1.9A242.08,242.08,0,0,1,12,397C6.13,395.81.49,392.79.26,385.73c-.12-3.51.9-6.94,1.8-10.27Q3.59,369.69,5.32,364c2.21-7.31,4.64-14.57,7.29-21.72A380.58,380.58,0,0,1,82.28,224.69a356.44,356.44,0,0,1,59.5-54.5L131.5,166a.58.58,0,0,1-.21-.87l12.89-19.18a71.89,71.89,0,0,1-7.66-9,69.68,69.68,0,0,1-8.44-2.6c-5.41-1.92-11-4.15-16.79-3.81-6.14.38-11.1,4.32-16.81,6.22a27.54,27.54,0,0,1-15.63.47c-5.22-1.39-9.75-4.53-14.68-6.73a20.87,20.87,0,0,0-9-2.1,41.56,41.56,0,0,0-8.55,1.52c-5.34,1.25-10.58,1.35-15.73-.87a25.52,25.52,0,0,1-6.41-4.15c-1.85-1.58-3.73-3.4-6-4.22-4.29-1.52-9.15,2.61-13-.63a.6.6,0,0,1-.08-.8c4.36-4.84,10.38-6.53,16.13-8.8,7.07-2.79,12.24-7.58,17.57-13.06,4.06-4.18,8.22-8.26,13.39-10.88,6.08-3.09,12.81-4.45,19.16-6.84a62,62,0,0,0,17.77-9.86c5-4.13,8.28-10.23,13.5-14,4.92-3.54,11-3.76,16.69-4.93,7.25-1.47,12.48-5.91,18.26-10.44,4.42-3.47,9.54-6.93,15.27-6.95A13.74,13.74,0,0,1,159,34.75c-.14.32-.27.64-.4,1-4.36-2-10-.8-14.22,1.56-6.09,3.41-10.87,8.92-17.06,12.17-5.09,2.67-10.72,2.85-16.17,4.1a20.06,20.06,0,0,0-9.62,4.84c-2.31,2.17-4.17,4.82-6.26,7.22-7.74,8.89-18.43,13.74-29.2,17.17-6.4,2-12.87,3.83-18.35,8-4.57,3.51-8.32,8-12.49,12a40.71,40.71,0,0,1-13.32,8.68c-5.37,2.11-11.11,3.68-15.28,8,2.47,1.57,5.56,0,8.23-.31a9.16,9.16,0,0,1,6.06,1.47c2.09,1.29,3.82,3.11,5.77,4.6a21.58,21.58,0,0,0,9.7,4.21c5.84.94,11.07-1.43,16.77-2.1,4.92-.58,9.39,1,13.78,3.2,4.85,2.45,9.48,5.28,14.9,6.12,6.56,1,12.45-.79,18.34-3.69,4.26-2.1,8.4-3.8,13.19-3.62s9.66,2,14.28,3.62a82.45,82.45,0,0,0,7.89,2.55h0c.49.12,1,.24,1.48.34a25.87,25.87,0,0,0,6.39.63A22,22,0,0,0,154.62,133l-.12.5c-.09.36-.19.71-.3,1.06v0a23,23,0,0,1-9.77,3.07,25.66,25.66,0,0,1-6.38-.36,68.3,68.3,0,0,0,6.75,7.74c.26.27.52.52.79.78a73.53,73.53,0,0,0,24.57,15.61,17.3,17.3,0,0,0,1.1,1.59,73.34,73.34,0,0,1-22-12.5c-1.46-1.21-2.89-2.48-4.26-3.8q-6.21,9.26-12.43,18.49l10.29,4.22,1.21.5q31.78,13,63.57,26.08a63,63,0,0,0-3.34-22.49,181.36,181.36,0,0,1-18.91-4.35.56.56,0,0,1-.34-.27c.62-.13,1.22-.29,1.83-.47h0c5.6,1.56,11.27,2.89,17,3.93.41.07.82.15,1.24.21,2.56.45,5.13.84,7.7,1.15h0c.38,0,.74.09,1.12.12a120.67,120.67,0,0,0,26.12.28l1.17-.12.52-.06c.56-.07,1.12-.13,1.68-.22v.05l0-.05,1-.14a2.48,2.48,0,0,1,0,.27,2.74,2.74,0,0,1,.05-.28,99,99,0,0,0,12.9-2.82l1.05-.31a91.09,91.09,0,0,0,11.63-4.4c.36-.15.7-.31,1-.48,17.73-8.34,32.7-22.47,40-42.23a65.68,65.68,0,0,0,3.51-14.58c.05-.36.09-.72.13-1.07a67,67,0,0,0-4.56-32.48,62.67,62.67,0,0,0-26.65-30.45c0-.42.05-.83.06-1.25A64.18,64.18,0,0,1,312.9,79.35a68.42,68.42,0,0,1,2.93,28.32c1.19,0,2.38,0,3.56,0,5.7-.25,9.53-2.82,13.07-7.35,2.35-3,4.57-6.4,7.89-8.38,3.81-2.28,8.29-2.06,12.52-2.43,4.56-.4,8.22-1.9,11.1-5.73C366,81,367.51,77.79,369.5,75c1.75-2.44,3.89-4.54,6.74-5.36,3.61-1,12.41.68,12.81-5.22.21-3.11-2.81-4.94-5.43-5.25s-5.26.92-7.71,1.73a16.12,16.12,0,0,1-9.7.63c-6.86-1.85-12.15-7.32-18.65-10.07-4.62-2-8.78-1.09-13.6-.85a11.69,11.69,0,0,1-8.95-3.2c-2.49-2.3-4.38-5.31-7.13-7.34-4-2.94-8.22-1.23-12.35.41-2.87,1.15-6,2.29-9,1.35-3.48-1.05-5.64-4.34-8.54-6.36a8.38,8.38,0,0,0-5.66-1.37c-.13-.4-.27-.79-.42-1.19a10.89,10.89,0,0,1,2-.08c4.54.32,7,4.27,10.51,6.71,4.9,3.39,9.85-.11,14.71-1.62,3.34-1,6.53-.87,9.44,1.27s4.88,5.43,7.64,7.78c4.4,3.76,9.35,1.95,14.48,1.89,7.63-.09,13.66,5.44,20,9,3.66,2.08,7.66,3.59,11.87,2.78s8-3.48,12.24-2.45C387.19,58.81,389.81,60.61,390.2,63.37ZM346.93,173.11a13,13,0,0,0-4-13.75c-4.65-3.85-10.36-2.8-15.65-1.22a59.55,59.55,0,0,0-11.68,4.93,58.32,58.32,0,0,0-5.74,3.63v48.36a34.11,34.11,0,0,0,17.5-9,26.56,26.56,0,0,0,6.84-11.49c1.14-3.92,1.66-8.32,4.27-11.58,1.36-1.71,3.28-2.72,4.86-4.17A12.88,12.88,0,0,0,346.93,173.11Zm-38.1,44.28v-55c-10.08,6.75-20.24,13.43-30.8,19.33-3.63,2-7.33,4-11.08,5.77l-1,.48a147.66,147.66,0,0,1-24.88,9.34c-.38.1-.74.21-1.12.3-2.21.58-4.43,1.07-6.67,1.52-.42.09-.85.17-1.28.23a96.15,96.15,0,0,1-18.12,1.7h-1.2c-.64,0-1.29,0-1.94,0a79.22,79.22,0,0,1-28.1-6.2c-10.13-4.34-19.38-10.59-28.55-16.79-.53-.35,0-1.13.52-1l.15.08c10.29,6.94,20.72,14,32.32,18.21A78,78,0,0,0,208,199.87c1.38.11,2.75.18,4.12.22.62,0,1.24,0,1.86,0a91.2,91.2,0,0,0,18.56-1.83l1.25-.26c2.14-.46,4.27-1,6.39-1.55q1.58-10.83,3.14-21.67c-.81.11-1.61.2-2.42.28a37.44,37.44,0,0,1-5.41,10.56c-.3.41-.63.82-1,1.23h0a25.93,25.93,0,0,1-7.35,6.26c-2.46,1.37-4.46.62-6.08-.95-.27-.26-.54-.55-.79-.84a27.55,27.55,0,0,1-2.77-4.27A43.84,43.84,0,0,1,213,174.75q-3.76-.42-7.51-1a64.21,64.21,0,0,1,3.18,23.17.5.5,0,0,1-.53.48.52.52,0,0,1-.21,0l-52.74-21.63-12.22-5c-.7.49-1.4,1-2.09,1.51a357.27,357.27,0,0,0-63.66,60.15A378,378,0,0,0,29,306.77a382.67,382.67,0,0,0-17.23,40.9q-3.68,10.4-6.74,21c-2,7-7.15,18.58-.37,24.18,3,2.47,7.09,3,10.72,3.62,4.14.65,8.27,1.24,12.42,1.77q12.44,1.54,25,2.29,11.78.69,23.57.65h1q13.44-.06,26.87-1.06,14.56-1.1,29-3.29l1.1-.17a389.26,389.26,0,0,0,68.94-17.26,164.32,164.32,0,0,1-20.93-28c-.19-.32-.37-.65-.56-1-.34-.61-.69-1.21-1-1.82a126.48,126.48,0,0,1-9.45-21.35c-.13-.38-.25-.76-.38-1.13a101.76,101.76,0,0,1-4.87-41c.13-1.35.28-2.7.47-4,.06-.39.11-.79.18-1.17a89.77,89.77,0,0,1,4.16-16.67c-1.71,1-3.4,2-5.13,2.88-2.39,1.23-7,4-9.69,2.32-1.37-.81-1.79-2.61-2.26-4.06-.78-2.38-1.51-4.79-2.22-7.2-1.35-4.57-3.31-9.6-3.71-14.38-.33-3.89,2.37-6.73,4.74-9.34.56-.61,1.12-1.21,1.7-1.8a199.26,199.26,0,0,1-21.2-8.66c-.63-.31-.22-1.35.42-1a200.58,200.58,0,0,0,21.65,8.84l1,.33c5.13,1.72,10.32,3.24,15.56,4.52q6.68,1.63,13.43,2.8l1.26.22c5.23.87,10.47,1.53,15.75,2,.35,0,.71.06,1.07.09a196.56,196.56,0,0,0,30.5.09c.41,0,.81-.05,1.21-.09q3.95-.3,7.87-.78a192.71,192.71,0,0,0,35.39-7.65c1.73-.56,3.47-1.14,5.19-1.76l.91-.33A92.61,92.61,0,0,0,308.83,217.39ZM296.41,353.44q-1.32-22.31-2.66-44.58c-.8-13.38-1.32-26.82-2.54-40.16a178.46,178.46,0,0,0-7.5-37c-3,1.08-6.12,2.06-9.2,3a195,195,0,0,1-39.77,7.29l-1.19.1a200.93,200.93,0,0,1-30.74-.17,1.57,1.57,0,0,0-.09.23c-1.25,3.5-2.18,7.29-4.37,10.31-5,6.92-14.33,5.06-21.28,7.79a40.11,40.11,0,0,0-4.81,2.32,87.42,87.42,0,0,0-4.43,17.25l26-4.51c5.39-.94,10.8-1.8,16.18-2.82a37.45,37.45,0,0,0,9.23-2.74c.27.29.54.58.8.88a41.59,41.59,0,0,1-11.19,3.22c-5.65,1-11.32,2-17,3l-24.29,4.2a99.68,99.68,0,0,0,3.05,40.88c.41,1.45.85,2.88,1.33,4.3,13.6-.29,27.08,2.26,36.65,13.56.32.37.62.74.91,1.13s.52.68.74,1h0a28.67,28.67,0,0,1,5.17,18.67c-.33,5.33-1.56,11,.48,16.13a15.42,15.42,0,0,0,4.5,6.05c.32.27.64.52,1,.77a20.41,20.41,0,0,0,4.59,2.48c5,2,10.56,1.84,15.83,1.31a91.57,91.57,0,0,0,12.65-1.93c4.17-1,8.48-2.7,11.43-6.1a14.75,14.75,0,0,0,2.8-5,13.62,13.62,0,0,0,.38-1.39,23.48,23.48,0,0,0,.41-8c-.88-8.34-4-16.73-7.1-24.59-.17-.42-.33-.83-.49-1.24-.25-.63-.49-1.26-.74-1.88a224.38,224.38,0,0,0-12.38-26.24,218.27,218.27,0,0,0-28.75-40.3l1-.52a220.62,220.62,0,0,1,32.43,47.32,225.28,225.28,0,0,1,9.67,21.84A78.36,78.36,0,0,1,296.41,353.44ZM272.78,175.25c1.59-.85,2.76-1.6,2.16-3.71-.25-.86-1.7-2-2.3-2.71s-1.05-1.21-1.6-1.8a87.09,87.09,0,0,1-12,4.49l-1.05.31a101.4,101.4,0,0,1-13.43,2.81q.55,6.21.91,12.44a119.27,119.27,0,0,1,16.3-7.7c.33-.14.67-.26,1-.39,1.63-.62,3.28-1.2,4.94-1.76A29.79,29.79,0,0,0,272.78,175.25Zm-3,220.39c1.2-4.13,1.2-9,1.05-13.28a18.33,18.33,0,0,0-1.43-6.89c-2.45,5.89-7.95,9.18-14,10.77a85.55,85.55,0,0,1-13.4,2.13c-4.69.47-9.52.61-14.11-.64a21.4,21.4,0,0,1-6.64-3.11c-1,6.82-.76,13.91,5.08,18.47,6.61,5.16,16.72,5.06,24.59,4.65S267.31,404.26,269.82,395.64Zm-4.39-208.81c-1-2.15-2.08-4.29-3.14-6.42-.87.28-1.73.6-2.57.94a119.17,119.17,0,0,0-14.51,7.17.54.54,0,0,1-.73-.46q-.27-4.8-.65-9.58-1.29,8.85-2.56,17.68A154.16,154.16,0,0,0,265.43,186.83Zm-30.22-3a34.72,34.72,0,0,0,4.46-8.67,126.62,126.62,0,0,1-25.52-.31,42.22,42.22,0,0,0,3.18,9.49,30.49,30.49,0,0,0,3.51,6c.17.21.34.43.52.63a3.13,3.13,0,0,0,.25.26c2.59,2.66,5.22,1,7.68-1a32.72,32.72,0,0,0,5-5.16C234.63,184.67,234.93,184.26,235.21,183.86ZM198.93,343.19c3.11-.79,6.26-1.52,9.44-2.15-9-11.38-22.43-14-36-13.77a126.88,126.88,0,0,0,10.28,22.59A54.38,54.38,0,0,1,198.93,343.19ZM200.24,246c.51-1.42,1-2.83,1.5-4.22q-8.15-.72-16.21-2.1c-.42-.07-.83-.13-1.24-.21a199,199,0,0,1-29-7.42,40.79,40.79,0,0,0-5,6c-3.06,4.53.14,11.4,1.5,16.2.69,2.41,1.41,4.83,2.17,7.22.32,1,.63,2.06,1,3.08a4.23,4.23,0,0,0,5.13,2.83c4-1.22,7.64-3.48,11.32-5.54l1.42-.77a30.57,30.57,0,0,1,8.06-3.15c3.82-.79,7.85-.81,11.52-2.28C196.62,253.9,198.73,250.24,200.24,246ZM126,410.72A21.61,21.61,0,0,0,133.08,398a386.49,386.49,0,0,1-44.24,4.09c-3.91.14-7.81.21-11.72.23a13,13,0,0,0-.09,4.17c.67,4.22,4.12,6.1,7.67,7.18,7.18,2.17,14.88,3.91,22.39,3.73C113.79,417.22,120.8,415.33,126,410.72Z" transform="translate(-0.13 -0.13)"/><path class="cls-5" d="M383.62,59.15c2.62.31,5.64,2.14,5.43,5.25-.4,5.9-9.2,4.19-12.81,5.22-2.85.82-5,2.92-6.74,5.36-2,2.81-3.47,6-5.53,8.76-2.88,3.83-6.54,5.33-11.1,5.73-4.23.37-8.71.15-12.52,2.43-3.32,2-5.54,5.35-7.89,8.38-3.54,4.53-7.37,7.1-13.07,7.35-1.18.06-2.37.07-3.56,0a68.42,68.42,0,0,0-2.93-28.32,64.18,64.18,0,0,0-29.28-35.87,28.34,28.34,0,0,0-1.33-9.4A8.38,8.38,0,0,1,288,35.45c2.9,2,5.06,5.31,8.54,6.36,3.08.94,6.17-.2,9-1.35,4.13-1.64,8.35-3.35,12.35-.41,2.75,2,4.64,5,7.13,7.34a11.69,11.69,0,0,0,8.95,3.2c4.82-.24,9-1.11,13.6.85,6.5,2.75,11.79,8.22,18.65,10.07a16.12,16.12,0,0,0,9.7-.63C378.36,60.07,381,58.83,383.62,59.15Z" transform="translate(-0.13 -0.13)"/><path class="cls-5" d="M343,159.36a13.07,13.07,0,0,1,.4,19.46c-1.58,1.45-3.5,2.46-4.86,4.17-2.61,3.26-3.13,7.66-4.27,11.58a26.56,26.56,0,0,1-6.84,11.49,34.11,34.11,0,0,1-17.5,9V166.7a58.32,58.32,0,0,1,5.74-3.63,59.55,59.55,0,0,1,11.68-4.93C332.6,156.56,338.31,155.51,343,159.36Z" transform="translate(-0.13 -0.13)"/><path class="cls-5" d="M310.21,75.18a67,67,0,0,1,4.56,32.48c0,.35-.08.71-.13,1.07a65.68,65.68,0,0,1-3.51,14.58c-7.26,19.76-22.23,33.89-40,42.23-.34.17-.68.33-1,.48a91.09,91.09,0,0,1-11.63,4.4l-1.05.31a99,99,0,0,1-12.9,2.82h-.08l-1,.14a0,0,0,0,1,0,0c-.56.09-1.12.15-1.68.22l-.52.06-1.17.12a120.67,120.67,0,0,1-26.12-.28c-.38,0-.74-.08-1.12-.12h0c-2.57-.31-5.14-.7-7.7-1.15-.42-.06-.83-.14-1.24-.21-5.72-1-11.39-2.37-17-3.93a21.52,21.52,0,0,0,4.19-1.83,21,21,0,0,0,10-14,22.73,22.73,0,0,0,.41-5.76,35.34,35.34,0,0,0,6.75.67,26.66,26.66,0,0,0,10.88-2.18,13.25,13.25,0,0,0,8.39,2.23A41.45,41.45,0,0,0,225,159.44c-.19,4.53,4.54,5.66,8.06,4.77,4.86-1.25,8.36-6,11-10.11a50.07,50.07,0,0,0,6.3-14.4c1.15,0,2.26,0,3.3.08a8.89,8.89,0,0,0,5.08-.9h0a18,18,0,0,0,6.53.48c-1.16,4.24-1.67,8.89.11,12.71,2.5,5.38,10.06,5.63,14.89,4.35,5.9-1.57,8.72-8.44,10.24-14,1.63-6,2.55-13.08-2.43-17.56-.25-4.75-2.3-9.77-5-12.54-1.49-1.55-4-2.17-6-2.8a17.39,17.39,0,0,0-6.73-1,10.87,10.87,0,0,0-7.19,3.7,28.51,28.51,0,0,0-3.17-.25c-3.15-.06-7.12.39-10,2.25a5.69,5.69,0,0,0-3.62-2.71,25.3,25.3,0,0,0-7.73-.87h0c.65-.26.24-1.31-.39-1a28.24,28.24,0,0,1-8.29,2.1c-2.12.18-4.37-.16-6.44.42s-4.24,2.62-3.7,5.21a3.38,3.38,0,0,0,.22.7l-.15.06c-2.38-5.35-10.58-7.91-15.48-8.19-5.06-.29-10.36,2.29-12.27,7.19A22.73,22.73,0,0,0,181,121.59a11.11,11.11,0,0,0-4.33,7.26c-5.64,1.93-9.72,6.31-9.86,13.63-.07,3.36.16,7.16,2.16,9.91-1.37,3.1-.55,6.25,1.14,9a73.53,73.53,0,0,1-24.57-15.61c-.27-.26-.53-.51-.79-.78a68.3,68.3,0,0,1-6.75-7.74,25.66,25.66,0,0,0,6.38.36,23,23,0,0,0,9.77-3.07v0h0a6.88,6.88,0,0,0,1.24-.86l.13-.11c.13-.49.24-1,.34-1.48a27.08,27.08,0,0,0,.5-5.91,35,35,0,0,0-2.08-10.06c-.86-2.67-1.66-5.6-.07-8.18a12.1,12.1,0,0,1,4.65-3.81c4.11-2.3,9-5.16,7.42-10.92-1.07-4-3.3-7.18-1-10.9,8.54,6,19.74,7.05,29.74,7a19.51,19.51,0,0,0,3.11-.27,13.78,13.78,0,0,0,6.82,3.34c12,2.4,25.53.64,37.22-2.61,5.15-1.44,10.94-3,15.08-6.75a12.76,12.76,0,0,0,4.41-9.74c7.9-3.19,14.92-8.86,18.78-17a31.89,31.89,0,0,0,3-11.57A62.67,62.67,0,0,1,310.21,75.18ZM274.3,100A5.92,5.92,0,0,0,273,93.29a5.42,5.42,0,0,0-7.83,1.06,6.21,6.21,0,0,0,1.46,8.21,5.64,5.64,0,0,0,7.78-1.76A.58.58,0,0,0,274.3,100ZM200,107.93a5.92,5.92,0,0,0-1.27-6.71,5.44,5.44,0,0,0-7.84,1.06,6.22,6.22,0,0,0,1.46,8.21,5.64,5.64,0,0,0,7.79-1.75A.6.6,0,0,0,200,107.93Z" transform="translate(-0.13 -0.13)"/><path class="cls-1" d="M310.54,216.06a.43.43,0,0,1,.5-.07c-.2,0-.38.08-.58.12Z" transform="translate(-0.13 -0.13)"/><path class="cls-6" d="M308.83,162.38v55a92.61,92.61,0,0,1-24.55,12.86l-.91.33c-1.72.62-3.46,1.2-5.19,1.76A192.71,192.71,0,0,1,242.79,240q-3.93.48-7.87.78c-.4,0-.8.07-1.21.09a196.56,196.56,0,0,1-30.5-.09c-.36,0-.72-.05-1.07-.09-5.28-.45-10.52-1.11-15.75-2l-1.26-.22q-6.75-1.15-13.43-2.8c-5.24-1.28-10.43-2.8-15.56-4.52l-1-.33A200.58,200.58,0,0,1,133.51,222c-.64-.3-1,.74-.42,1a199.26,199.26,0,0,0,21.2,8.66c-.58.59-1.14,1.19-1.7,1.8-2.37,2.61-5.07,5.45-4.74,9.34.4,4.78,2.36,9.81,3.71,14.38.71,2.41,1.44,4.82,2.22,7.2.47,1.45.89,3.25,2.26,4.06,2.72,1.66,7.3-1.09,9.69-2.32,1.73-.9,3.42-1.91,5.13-2.88A89.77,89.77,0,0,0,166.7,280c-.07.38-.12.78-.18,1.17-.19,1.34-.34,2.69-.47,4a101.76,101.76,0,0,0,4.87,41c.13.37.25.75.38,1.13a126.48,126.48,0,0,0,9.45,21.35c.33.61.68,1.21,1,1.82.19.31.37.64.56,1a164.32,164.32,0,0,0,20.93,28,389.26,389.26,0,0,1-68.94,17.26l-1.1.17q-14.44,2.19-29,3.29-13.42,1-26.87,1.06h-1q-11.79,0-23.57-.65-12.53-.73-25-2.29c-4.15-.53-8.28-1.12-12.42-1.77-3.63-.58-7.74-1.15-10.72-3.62-6.78-5.6-1.65-17.2.37-24.18s4.29-14.07,6.74-21A382.67,382.67,0,0,1,29,306.77a378,378,0,0,1,48.19-74.43,357.27,357.27,0,0,1,63.66-60.15c.69-.51,1.39-1,2.09-1.51l12.22,5-.55,1.35c-.53-.17-1,.61-.52,1,9.17,6.2,18.42,12.45,28.55,16.79a79.22,79.22,0,0,0,28.1,6.2c.65,0,1.3,0,1.94,0h1.2a96.15,96.15,0,0,0,18.12-1.7c.43-.06.86-.14,1.28-.23,2.24-.45,4.46-.94,6.67-1.52.38-.09.74-.2,1.12-.3A147.66,147.66,0,0,0,266,188l1-.48c3.75-1.8,7.45-3.74,11.08-5.77C288.59,175.81,298.75,169.13,308.83,162.38Z" transform="translate(-0.13 -0.13)"/><path class="cls-7" d="M293.75,308.86q1.32,22.27,2.66,44.58a78.36,78.36,0,0,0-33.22-14.24,225.28,225.28,0,0,0-9.67-21.84A220.62,220.62,0,0,0,221.09,270c.17-.11.36-.21.53-.31,7.38-4.43,10.37-13.13,12-21.44.41-2.11.79-4.24,1.15-6.37a195,195,0,0,0,39.77-7.29c3.08-.91,6.16-1.89,9.2-3a178.46,178.46,0,0,1,7.5,37C292.43,282,293,295.48,293.75,308.86Z" transform="translate(-0.13 -0.13)"/><path class="cls-1" d="M288.12,124.87c5,4.48,4.06,11.59,2.43,17.56-1.52,5.55-4.34,12.42-10.24,14-4.83,1.28-12.39,1-14.89-4.35-1.78-3.82-1.27-8.47-.11-12.71a18,18,0,0,1-6.53-.48,6.57,6.57,0,0,0,1.06-.82,19,19,0,0,0,5.82.07c.42-.06.83-.13,1.2-.21a9.84,9.84,0,0,0,1.86-.51,11.43,11.43,0,0,0,7.34-9.49.54.54,0,1,1,1.07.15,12.74,12.74,0,0,1-10.66,11.12c-1,3.64-1.59,7.58-.57,11.08,1.7,5.83,8.54,6.11,13.38,5.22,5.42-1,8.24-6.78,9.79-11.81,1.71-5.51,3.25-12.68-.94-17.25C288.15,125.92,288.15,125.4,288.12,124.87Z" transform="translate(-0.13 -0.13)"/><path class="cls-5" d="M288.13,126.43c4.19,4.57,2.65,11.74.94,17.25-1.55,5-4.37,10.79-9.79,11.81-4.84.89-11.68.61-13.38-5.22-1-3.5-.46-7.44.57-11.08a12.74,12.74,0,0,0,10.66-11.12.54.54,0,1,0-1.07-.15,11.43,11.43,0,0,1-7.34,9.49,9.84,9.84,0,0,1-1.86.51c-.37.08-.78.15-1.2.21a19,19,0,0,1-5.82-.07l.25-.25c1.91-2,2.84-4.76,4.85-6.69.51-.49-.13-1.39-.64-.91a22.83,22.83,0,0,0-3.36,4.6,8.71,8.71,0,0,1-2.63,2.82,6.07,6.07,0,0,1-1.17.58,9.75,9.75,0,0,1-3.81.42c-.82,0-1.72,0-2.64-.07-.36,0-.73,0-1.09,0a10.47,10.47,0,0,1-5.54-1.47,5,5,0,0,1-1.75-2.62s0,0,0,0c-.33-1.6-.89-3.65-2.56-4a.4.4,0,0,0-.52.34h0c-.35,0-.71.33-.53.69a3,3,0,0,0,.46.65h0a.43.43,0,0,0,.05.21,5.92,5.92,0,0,1,.55,1.87.48.48,0,0,0-.13.49c1.65,7.15-4.59,10.8-10.42,11.63a1.42,1.42,0,0,1-.42.06h0a1.65,1.65,0,0,1-.83.07c-.45,0-.9.05-1.33.05H226a11.18,11.18,0,0,1-5.67-1.77,9.45,9.45,0,0,0,4.74-6.53A.54.54,0,1,0,224,138a8.55,8.55,0,0,1-4.66,6,11.35,11.35,0,0,1-1.21.6,25.51,25.51,0,0,1-9.15,1.81,28,28,0,0,1-7.62-.83h0a20.94,20.94,0,0,0-.53-2.93c-.55-2.17-1.29-5.4-3.61-6-.66-.19-.79.94-.14,1.12,2,.57,2.86,5,3.16,7.56h0c.05.41.1.77.12,1,0,.1,0,.22,0,.32a21.74,21.74,0,0,1-.78,7.44,19.8,19.8,0,0,1-8,10.92,20,20,0,0,1-6.36,2.77,11.72,11.72,0,0,1-7.83-.64,15,15,0,0,1-4.37-3.49,0,0,0,0,0,0,0A16.78,16.78,0,0,1,171.7,162c-1.86-2.66-2.93-5.86-1.91-8.65a8.22,8.22,0,0,0,8.77,1.9c.66-.23.25-1.29-.41-1.05a7.24,7.24,0,0,1-7.86-2,7.55,7.55,0,0,1-.6-.77,8.05,8.05,0,0,1-.86-1.65,20.8,20.8,0,0,1-.71-10.07c.81-5.21,4.33-8.19,8.57-9.67a6.82,6.82,0,0,0,1.94,4.42c.48.53,1.14-.37.67-.88a5.8,5.8,0,0,1-1.73-3.83,4.67,4.67,0,0,1,.09-1.19c.67-3.56,4.64-6.78,7.58-8.2a23.36,23.36,0,0,1,6.63-2,13.13,13.13,0,0,0-.28,1.49.54.54,0,1,0,1.07.15,9.32,9.32,0,0,1,.38-1.79,7.32,7.32,0,0,1,.45-1.19c2-4.4,7.19-6.38,11.86-5.86s13.45,3.4,14.2,9.28a.54.54,0,1,0,1.08-.14,7.56,7.56,0,0,0-.62-2.16l.15-.06c1.19,2.71,5.5,1.61,7.73,1.55,1.76,0,3.55-.17,4.83,1.44.82,1,1.08,2.49,1.76,3.63a5.67,5.67,0,0,0,2.87,2.62c2.49.87,4.3-.8,4.78-3.28.38-2,.08-3.31,2.29-4.39a25.82,25.82,0,0,1,2.81-.77,4.45,4.45,0,0,0,2.78-2.1,3.22,3.22,0,0,0,.33-1.35c2.38-1.66,5.76-2.14,8.38-2.25a26.39,26.39,0,0,1,3.71.17c.41,0,.84.09,1.28.16,3.52.51,7.35,1.71,6.9,4.3a.54.54,0,1,0,1.06.16c.6-3.32-3.42-4.83-7.05-5.48a9.77,9.77,0,0,1,6.83-2.78c3.27,0,9.13,1.17,11.35,4,3.91,5,6.92,16,.71,20.29a.56.56,0,0,0,.65.92C286.84,133,288,129.85,288.13,126.43Z" transform="translate(-0.13 -0.13)"/><path class="cls-1" d="M288.12,124.87c0,.53,0,1,0,1.56-.13,3.42-1.29,6.55-4,8.42a.56.56,0,0,1-.65-.92c6.21-4.33,3.2-15.34-.71-20.29-2.22-2.82-8.08-4-11.35-4a9.77,9.77,0,0,0-6.83,2.78l-1.35-.21a10.87,10.87,0,0,1,7.19-3.7,17.39,17.39,0,0,1,6.73,1c1.94.63,4.47,1.25,6,2.8C285.82,115.1,287.87,120.12,288.12,124.87Z" transform="translate(-0.13 -0.13)"/><path class="cls-1" d="M282.29,34.08a28.34,28.34,0,0,1,1.33,9.4c0,.42,0,.83-.06,1.25-.34-.2-.69-.39-1-.58q0-.63,0-1.26a26.62,26.62,0,0,0-1.37-8.7c-.13-.38-.27-.77-.42-1.15.38-.06.76-.12,1.11-.15C282,33.29,282.16,33.68,282.29,34.08Z" transform="translate(-0.13 -0.13)"/><path class="cls-1" d="M283.56,44.73a31.89,31.89,0,0,1-3,11.57c-3.86,8.11-10.88,13.78-18.78,17A12.76,12.76,0,0,1,257.37,83c-4.14,3.73-9.93,5.31-15.08,6.75-11.69,3.25-25.22,5-37.22,2.61A13.78,13.78,0,0,1,198.25,89a19.51,19.51,0,0,1-3.11.27c-10,.07-21.2-1-29.74-7a10,10,0,0,1,.67-.91,2.48,2.48,0,0,1-1-.68s0,0,0,0a11.31,11.31,0,0,0,1,.68,37.53,37.53,0,0,0,16,5.86,91,91,0,0,0,12.23.91,20.12,20.12,0,0,0,3-.18,8.11,8.11,0,0,1-1.61-3.93c-.47-3.52,2.18-6.94,5.66-6.75,3.21.17,4.54,3.58,3.65,6.52a7.24,7.24,0,0,1-5.46,4.93c2.66,2.26,6.47,2.74,9.83,3a93.44,93.44,0,0,0,26-1.52,90.74,90.74,0,0,0,12.74-3.53c3.74-1.32,7.68-3,10.22-6.37a11.85,11.85,0,0,0,2.31-6.64c-.88.33-1.77.62-2.66.89a18.21,18.21,0,0,1-2.61.68,5.13,5.13,0,0,1-4.12-1c-2.44-2.19-1.08-6.1,1.34-7.61,3.52-2.2,7.67.82,8.8,4.49a9.3,9.3,0,0,1,.25,1,38.21,38.21,0,0,0,5.77-2.94,32,32,0,0,0,13.92-18,30.13,30.13,0,0,0,1.18-7.06C282.87,44.34,283.22,44.53,283.56,44.73ZM260,72.78l.63-.24a5.92,5.92,0,0,0-3.27-4.88,4.13,4.13,0,0,0-4.75.39c-1.1,1-1.94,3-1.29,4.43a2.75,2.75,0,0,0,1.45,1.42,3.25,3.25,0,0,0,1,.22,2.92,2.92,0,0,0,.51,0,5.71,5.71,0,0,1,.58,0,5,5,0,0,0,1.28-.11,8.83,8.83,0,0,0,1-.3,1,1,0,0,1,.23-.08C258.19,73.35,259.09,73.08,260,72.78Zm-61.41,15c3.09-.66,6-2.32,5.64-6.08-.28-3.26-3.58-4-5.81-2.2s-2,4.89-.66,7.13A9.15,9.15,0,0,0,198.55,87.76Z" transform="translate(-0.13 -0.13)"/><path class="cls-5" d="M281.18,34.19a26.62,26.62,0,0,1,1.37,8.7q0,.63,0,1.26a30.13,30.13,0,0,1-1.18,7.06,32,32,0,0,1-13.92,18,38.21,38.21,0,0,1-5.77,2.94,9.3,9.3,0,0,0-.25-1c-1.13-3.67-5.28-6.69-8.8-4.49-2.42,1.51-3.78,5.42-1.34,7.61a5.13,5.13,0,0,0,4.12,1,18.21,18.21,0,0,0,2.61-.68c.89-.27,1.78-.56,2.66-.89a11.85,11.85,0,0,1-2.31,6.64c-2.54,3.33-6.48,5-10.22,6.37a90.74,90.74,0,0,1-12.74,3.53,93.44,93.44,0,0,1-26,1.52c-3.36-.29-7.17-.77-9.83-3A7.24,7.24,0,0,0,205,83.82c.89-2.94-.44-6.35-3.65-6.52-3.48-.19-6.13,3.23-5.66,6.75A8.11,8.11,0,0,0,197.3,88a20.12,20.12,0,0,1-3,.18,91,91,0,0,1-12.23-.91,37.53,37.53,0,0,1-16-5.86,11.31,11.31,0,0,1-1-.68,26.11,26.11,0,0,1-4.26-4C156,71.07,154.13,63,157.4,56a16.92,16.92,0,0,1,1.19-2.12,16.14,16.14,0,0,0,2.59,3.79c2.82,3,7,4.4,10.66,2.15,3.09-1.9,4.93-6.1,2.69-9.47-2.08-3.12-6.42-3.8-9.71-2.81a12.74,12.74,0,0,0-5.95,4.12,17.94,17.94,0,0,1-.78-2.89c-.09-.52-.17-1-.22-1.57s-.08-.89-.09-1.33a23.69,23.69,0,0,1,1.78-9.62c.12-.33.26-.63.41-1h0a30.63,30.63,0,0,1,4.26-6.95c5.17-6.35,12.56-9.9,20.11-12a99.62,99.62,0,0,1,22.39-3.66,22.93,22.93,0,0,1,2.73.06A15.46,15.46,0,0,0,208,16c-1.19,3.86-.19,8.13,3.26,10.3a5.22,5.22,0,0,0,7.93-2.59A9.31,9.31,0,0,0,217,14.52a10.2,10.2,0,0,0-5.56-2.73,25,25,0,0,1,6.12-5.58,28.47,28.47,0,0,1,40.26,9.41A20.78,20.78,0,0,1,259,17.89a11,11,0,0,0-5.33,2.5c-2.43,2.08-3.49,6.36-1.06,8.9s6.33.9,8-1.76,1.22-5.67.15-8.51c6.22-.43,12.73,3.27,16.63,8.07A22.29,22.29,0,0,1,280.76,33C280.91,33.42,281.05,33.81,281.18,34.19Z" transform="translate(-0.13 -0.13)"/><path class="cls-1" d="M281.87,32.89c-.35,0-.73.09-1.11.15a22.29,22.29,0,0,0-3.44-5.95c-3.9-4.8-10.41-8.5-16.63-8.07,1.07,2.84,1.44,5.92-.15,8.51s-5.55,4.28-8,1.76-1.37-6.82,1.06-8.9a11,11,0,0,1,5.33-2.5,20.78,20.78,0,0,0-1.17-2.27,28.47,28.47,0,0,0-40.26-9.41,25,25,0,0,0-6.12,5.58A10.2,10.2,0,0,1,217,14.52a9.31,9.31,0,0,1,2.17,9.18,5.22,5.22,0,0,1-7.93,2.59c-3.45-2.17-4.45-6.44-3.26-10.3a15.46,15.46,0,0,1,1.5-3.28,22.93,22.93,0,0,0-2.73-.06,99.62,99.62,0,0,0-22.39,3.66c-7.55,2.09-14.94,5.64-20.11,12a30.63,30.63,0,0,0-4.26,7h0c-.15.32-.29.62-.41,1a23.69,23.69,0,0,0-1.78,9.62c0,.44,0,.88.09,1.33s.13,1.05.22,1.57a17.94,17.94,0,0,0,.78,2.89,12.74,12.74,0,0,1,5.95-4.12c3.29-1,7.63-.31,9.71,2.81,2.24,3.37.4,7.57-2.69,9.47-3.65,2.25-7.84.85-10.66-2.15a16.14,16.14,0,0,1-2.59-3.79A16.92,16.92,0,0,0,157.4,56c-3.27,7-1.39,15.11,3.46,20.77a26.11,26.11,0,0,0,4.26,4s0,0,0,0a8.26,8.26,0,0,0-.64.91,22.14,22.14,0,0,1-1.84-1.52c-6.85-6.17-10.34-16.05-6.07-24.93a17.92,17.92,0,0,1,1.5-2.53A18.17,18.17,0,0,1,156.89,48l-.14.1a1.43,1.43,0,0,0,0-.29,1.69,1.69,0,0,0-.11-1l.15-.12a26.13,26.13,0,0,1,1.84-10.9c.13-.33.26-.65.4-1a27.91,27.91,0,0,1,1.58-3.14c5.75-9.81,15.83-14.64,26.16-17.09A138.51,138.51,0,0,1,204,11.72a29.73,29.73,0,0,1,6.13-.11,26.58,26.58,0,0,1,7.8-7,28.91,28.91,0,0,1,29.2-.77,31.3,31.3,0,0,1,11.05,10.39,27.67,27.67,0,0,1,1.94,3.52c6.51-.53,13.88,3.72,17.76,8.35A23.43,23.43,0,0,1,281.87,32.89Zm-25-3.73c4.39-1.49,4-6.14,2.62-10a12.82,12.82,0,0,0-2.62.69c-2.19.83-4.23,2.48-4.53,5.07C252,27.77,254.16,30.07,256.86,29.16ZM215.31,26c3.89-1,3.71-6.27,2-9.18-1.43-2.47-4-3.54-6.64-3.94a13.56,13.56,0,0,0-1.28,2.37,8.58,8.58,0,0,0,0,7.5C210.57,24.85,212.87,26.58,215.31,26ZM164.87,59c4.07,2,11.42-1.35,9.3-7-1.36-3.63-6-4.35-9.13-3.35a11.86,11.86,0,0,0-5.7,4.15A12,12,0,0,0,164.87,59Z" transform="translate(-0.13 -0.13)"/><path class="cls-6" d="M274.94,171.54c.6,2.11-.57,2.86-2.16,3.71a29.79,29.79,0,0,1-5,2c-1.66.56-3.31,1.14-4.94,1.76-.34.13-.68.25-1,.39a119.27,119.27,0,0,0-16.3,7.7q-.35-6.22-.91-12.44A101.4,101.4,0,0,0,258,171.83l1.05-.31A87.09,87.09,0,0,0,271,167c.55.59,1.08,1.19,1.6,1.8S274.69,170.68,274.94,171.54Z" transform="translate(-0.13 -0.13)"/><path class="cls-1" d="M273,93.29A5.92,5.92,0,0,1,274.3,100a.58.58,0,0,1,.13.8,5.64,5.64,0,0,1-7.78,1.76,6.21,6.21,0,0,1-1.46-8.21A5.42,5.42,0,0,1,273,93.29Zm-.52,7.56a4.86,4.86,0,0,0-.14-6.67,4.36,4.36,0,0,0-6.32.87,5,5,0,0,0,1.51,6.76,4.48,4.48,0,0,0,4.85-.45A.48.48,0,0,1,272.5,100.85Z" transform="translate(-0.13 -0.13)"/><path class="cls-1" d="M272.36,94.18a4.86,4.86,0,0,1,.14,6.67.48.48,0,0,0-.1.51,4.48,4.48,0,0,1-4.85.45A5,5,0,0,1,266,95.05,4.36,4.36,0,0,1,272.36,94.18Z" transform="translate(-0.13 -0.13)"/><path class="cls-1" d="M264.62,112.43c3.63.65,7.65,2.16,7.05,5.48a.54.54,0,1,1-1.06-.16c.45-2.59-3.38-3.79-6.9-4.3-.44-.07-.87-.12-1.28-.16a26.39,26.39,0,0,0-3.71-.17c-2.62.11-6,.59-8.38,2.25a3.22,3.22,0,0,1-.33,1.35,4.45,4.45,0,0,1-2.78,2.1,25.82,25.82,0,0,0-2.81.77c-2.21,1.08-1.91,2.44-2.29,4.39-.48,2.48-2.29,4.15-4.78,3.28a5.67,5.67,0,0,1-2.87-2.62c-.68-1.14-.94-2.61-1.76-3.63-1.28-1.61-3.07-1.49-4.83-1.44-2.23.06-6.54,1.16-7.73-1.55a3.38,3.38,0,0,1-.22-.7c-.54-2.59,1.54-4.61,3.7-5.21s4.32-.24,6.44-.42a28.24,28.24,0,0,0,8.29-2.1c.63-.27,1,.78.39,1h0a25.3,25.3,0,0,1,7.73.87,5.69,5.69,0,0,1,3.62,2.71c2.89-1.86,6.86-2.31,10-2.25a28.51,28.51,0,0,1,3.17.25ZM248.45,117c0-.42-.07-.84-.1-1.27-.06-.74-.11-1.47-.16-2.21-.88-1.24-4.18-1.33-5.55-1.49a31.84,31.84,0,0,0-10.7.72.46.46,0,0,1-.35-.07c-.61.09-1.23.18-1.85.21-1.51.11-3,0-4.53.15a5,5,0,0,0-3.48,1.49,2.64,2.64,0,0,0,1.76,4.15c4.28.51,8.61-1.76,10.93,3.29,1,2.22,2.28,5,5.19,4.25,1.71-.47,1.44-3.38,1.81-4.71.52-1.87,1.74-2.65,3.44-3.2.74-.23,1.54-.31,2.27-.61h0A4.26,4.26,0,0,0,248.45,117Z" transform="translate(-0.13 -0.13)"/><path class="cls-5" d="M270.87,382.36c.15,4.29.15,9.15-1.05,13.28-2.51,8.62-11.12,11.69-18.88,12.1s-18,.51-24.59-4.65c-5.84-4.56-6.07-11.65-5.08-18.47a21.4,21.4,0,0,0,6.64,3.11c4.59,1.25,9.42,1.11,14.11.64a85.55,85.55,0,0,0,13.4-2.13c6.07-1.59,11.57-4.88,14-10.77A18.33,18.33,0,0,1,270.87,382.36Z" transform="translate(-0.13 -0.13)"/><path class="cls-8" d="M269.55,364.81a23.48,23.48,0,0,1-.41,8,13.62,13.62,0,0,1-.38,1.39,14.75,14.75,0,0,1-2.8,5c-2.95,3.4-7.26,5.08-11.43,6.1a91.57,91.57,0,0,1-12.65,1.93c-5.27.53-10.79.66-15.83-1.31a20.41,20.41,0,0,1-4.59-2.48c-.34-.25-.66-.5-1-.77a15.42,15.42,0,0,1-4.5-6.05c-2-5.13-.81-10.8-.48-16.13a28.67,28.67,0,0,0-5.17-18.67h0c-.22-.35-.48-.69-.74-1s-.59-.76-.91-1.13c-9.57-11.3-23-13.85-36.65-13.56-.48-1.42-.92-2.85-1.33-4.3a99.68,99.68,0,0,1-3.05-40.88l24.29-4.2c5.65-1,11.32-1.94,17-3a41.59,41.59,0,0,0,11.19-3.22,218.27,218.27,0,0,1,28.75,40.3,224.38,224.38,0,0,1,12.38,26.24c.25.62.49,1.25.74,1.88.16.41.32.82.49,1.24C265.54,348.08,268.67,356.47,269.55,364.81Z" transform="translate(-0.13 -0.13)"/><path class="cls-1" d="M264.3,130.21c.51-.48,1.15.42.64.91-2,1.93-2.94,4.7-4.85,6.69l-.25.25a6.57,6.57,0,0,1-1.06.82h0a8.89,8.89,0,0,1-5.08.9c-1,0-2.15,0-3.3-.08-.35,0-.72,0-1.08,0a11.63,11.63,0,0,1-5.75-1.56,5.81,5.81,0,0,1-2.09-2.25,3.83,3.83,0,0,1-.22-.56.39.39,0,0,0,.18-.18.5.5,0,0,0,0,.12c.12.63,1.11.51,1-.13,0-.2-.09-.42-.13-.65a5,5,0,0,0,1.75,2.62,10.47,10.47,0,0,0,5.54,1.47c.36,0,.73,0,1.09,0,.92,0,1.82,0,2.64.07a9.75,9.75,0,0,0,3.81-.42,6.07,6.07,0,0,0,1.17-.58,8.71,8.71,0,0,0,2.63-2.82A22.83,22.83,0,0,1,264.3,130.21Z" transform="translate(-0.13 -0.13)"/><path class="cls-6" d="M262.29,180.41c1.06,2.13,2.1,4.27,3.14,6.42a154.16,154.16,0,0,1-24.16,9.33q1.28-8.83,2.56-17.68.38,4.78.65,9.58a.54.54,0,0,0,.73.46,119.17,119.17,0,0,1,14.51-7.17C260.56,181,261.42,180.69,262.29,180.41Z" transform="translate(-0.13 -0.13)"/><path class="cls-5" d="M260.59,72.54l-.63.24c-.87.3-1.77.57-2.66.85a1,1,0,0,0-.23.08,8.83,8.83,0,0,1-1,.3,5,5,0,0,1-1.28.11,5.71,5.71,0,0,0-.58,0,2.92,2.92,0,0,1-.51,0,3.25,3.25,0,0,1-1-.22,2.75,2.75,0,0,1-1.45-1.42c-.65-1.47.19-3.47,1.29-4.43a4.13,4.13,0,0,1,4.75-.39A5.92,5.92,0,0,1,260.59,72.54Z" transform="translate(-0.13 -0.13)"/><path class="cls-5" d="M259.48,19.15c1.41,3.87,1.77,8.52-2.62,10-2.7.91-4.85-1.39-4.53-4.25.3-2.59,2.34-4.24,4.53-5.07A12.82,12.82,0,0,1,259.48,19.15Z" transform="translate(-0.13 -0.13)"/><path class="cls-1" d="M249.31,139.65c.36,0,.73,0,1.08,0a50.07,50.07,0,0,1-6.3,14.4c-2.68,4.15-6.18,8.86-11,10.11-3.52.89-8.25-.24-8.06-4.77a41.45,41.45,0,0,1,2.46-11.88,13.25,13.25,0,0,1-8.39-2.23c.42-.21.83-.43,1.22-.67a11.18,11.18,0,0,0,5.67,1.77h.6c.43,0,.88,0,1.33-.05a1.65,1.65,0,0,0,.83-.07h0a1.42,1.42,0,0,0,.42-.06c5.83-.83,12.07-4.48,10.42-11.63a.48.48,0,0,1,.13-.49,6.48,6.48,0,0,1,.07.77c0,.47.55.53.83.26a.52.52,0,0,0,.19.11c1.18,7.42-5.93,11.6-12.15,12.2a46.67,46.67,0,0,0-2,7.68c-.52,3-1.14,7.19,2.56,8.06a9.13,9.13,0,0,0,7.35-2C243,156.45,247.15,147.62,249.31,139.65Z" transform="translate(-0.13 -0.13)"/><path class="cls-1" d="M248.35,115.68c0,.43.06.85.1,1.27a4.26,4.26,0,0,1-1.31.7.47.47,0,0,1,.06-.33A8,8,0,0,1,248.35,115.68Z" transform="translate(-0.13 -0.13)"/><path class="cls-1" d="M248.19,113.47c.05.74.1,1.47.16,2.21a8,8,0,0,0-1.15,1.64.47.47,0,0,0-.06.33h0c-.73.3-1.53.38-2.27.61-1.7.55-2.92,1.33-3.44,3.2-.37,1.33-.1,4.24-1.81,4.71-2.91.78-4.16-2-5.19-4.25-2.32-5-6.65-2.78-10.93-3.29a2.64,2.64,0,0,1-1.76-4.15,5,5,0,0,1,3.48-1.49c1.49-.19,3,0,4.53-.15.62,0,1.24-.12,1.85-.21a.46.46,0,0,0,.35.07,31.84,31.84,0,0,1,10.7-.72C244,112.14,247.31,112.23,248.19,113.47Z" transform="translate(-0.13 -0.13)"/><path class="cls-1" d="M249.31,139.65c-2.16,8-6.32,16.8-12.76,21.59a9.13,9.13,0,0,1-7.35,2c-3.7-.87-3.08-5.11-2.56-8.06a46.67,46.67,0,0,1,2-7.68c6.22-.6,13.33-4.78,12.15-12.2a.53.53,0,0,0,.43,0,3.83,3.83,0,0,0,.22.56,5.81,5.81,0,0,0,2.09,2.25A11.63,11.63,0,0,0,249.31,139.65Z" transform="translate(-0.13 -0.13)"/><path class="cls-1" d="M244.55,173.55a2.74,2.74,0,0,0-.05.28,2.48,2.48,0,0,0,0-.27Z" transform="translate(-0.13 -0.13)"/><path class="cls-1" d="M243.44,173.7l0,.05v-.05A0,0,0,0,0,243.44,173.7Z" transform="translate(-0.13 -0.13)"/><path class="cls-5" d="M243.28,174.8q-1.58,10.83-3.14,21.67c-2.12.58-4.25,1.09-6.39,1.55a26.71,26.71,0,0,0,1.7-12.38,37.44,37.44,0,0,0,5.41-10.56C241.67,175,242.47,174.91,243.28,174.8Z" transform="translate(-0.13 -0.13)"/><path class="cls-1" d="M242.44,135.09c.12.64-.87.76-1,.13a.5.5,0,0,1,0-.12h0a.48.48,0,0,0,0-.18,7.72,7.72,0,0,0-.09-1.18.37.37,0,0,0,.18-.35,2.61,2.61,0,0,0-.89-2.06l.11.07a7.24,7.24,0,0,1,1.53,3s0,0,0,0C242.35,134.67,242.4,134.89,242.44,135.09Z" transform="translate(-0.13 -0.13)"/><path class="cls-1" d="M242.3,134.4a7.24,7.24,0,0,0-1.53-3l-.11-.07a.07.07,0,0,0-.06,0l-.24-.18a.48.48,0,0,0-.6-.28,3.23,3.23,0,0,0-.54-.11.4.4,0,0,1,.52-.34C241.41,130.75,242,132.8,242.3,134.4Z" transform="translate(-0.13 -0.13)"/><path class="cls-1" d="M240.66,131.32a2.61,2.61,0,0,1,.89,2.06.37.37,0,0,1-.18.35,5,5,0,0,0-.18-.74c-.13-.45-.32-1-.78-1h0a1.52,1.52,0,0,0-.4-.4.48.48,0,0,1,.6-.26A.07.07,0,0,1,240.66,131.32Z" transform="translate(-0.13 -0.13)"/><path class="cls-1" d="M241.46,134.91a.48.48,0,0,1,0,.18c-.07-.34-.15-.81-.27-1.3a.37.37,0,0,0,.21-.06A7.72,7.72,0,0,1,241.46,134.91Z" transform="translate(-0.13 -0.13)"/><path class="cls-1" d="M241.43,135.09h0a.39.39,0,0,1-.18.18c-.15-.46-.24-.95-.36-1.42a.28.28,0,0,0,.1-.09l.17,0C241.28,134.28,241.36,134.75,241.43,135.09Z" transform="translate(-0.13 -0.13)"/><path class="cls-1" d="M241.19,133a5,5,0,0,1,.18.74.37.37,0,0,1-.21.06,5.24,5.24,0,0,0-.75-1.84C240.87,132,241.06,132.54,241.19,133Z" transform="translate(-0.13 -0.13)"/><path class="cls-1" d="M241.25,135.28a.53.53,0,0,1-.43,0,1.8,1.8,0,0,0-.06-.32.48.48,0,0,0,0-.18,5.79,5.79,0,0,0-.06-.83.37.37,0,0,0,.16-.09C241,134.33,241.1,134.82,241.25,135.28Z" transform="translate(-0.13 -0.13)"/><path class="cls-1" d="M241.16,133.79l-.17,0a.28.28,0,0,1-.1.09,3.83,3.83,0,0,0-.45-1.15s0,0,0,0q-.13-.39-.3-.75h0a.58.58,0,0,1,.23,0h0A5.24,5.24,0,0,1,241.16,133.79Z" transform="translate(-0.13 -0.13)"/><path class="cls-1" d="M240.89,133.86a.37.37,0,0,1-.16.09,7.45,7.45,0,0,0-.29-1.24A3.83,3.83,0,0,1,240.89,133.86Z" transform="translate(-0.13 -0.13)"/><path class="cls-1" d="M240.79,134.78a.48.48,0,0,1,0,.18,4,4,0,0,0-.09-.48.52.52,0,0,0-.25-.36h0l0-.17a.45.45,0,0,0,.34,0A5.79,5.79,0,0,1,240.79,134.78Z" transform="translate(-0.13 -0.13)"/><path class="cls-1" d="M240.76,135a1.8,1.8,0,0,1,.06.32.52.52,0,0,1-.19-.11A.44.44,0,0,0,240.76,135Z" transform="translate(-0.13 -0.13)"/><path class="cls-1" d="M240.67,134.48a4,4,0,0,1,.09.48.44.44,0,0,1-.13.21.56.56,0,0,1-.16-.39,4.89,4.89,0,0,0-.05-.66A.52.52,0,0,1,240.67,134.48Z" transform="translate(-0.13 -0.13)"/><path class="cls-1" d="M240.73,134a.45.45,0,0,1-.34,0l0-.18a2.5,2.5,0,0,0-.27-.87.53.53,0,0,1-.15-.89.54.54,0,0,0,.16.28,2.51,2.51,0,0,1,.33.4s0,0,0,0A7.45,7.45,0,0,1,240.73,134Z" transform="translate(-0.13 -0.13)"/><path class="cls-1" d="M240.36,131.1l.24.18a.48.48,0,0,0-.6.26,1,1,0,0,0-.39-.18.52.52,0,0,1-.39-.65,3.23,3.23,0,0,1,.54.11A.48.48,0,0,1,240.36,131.1Z" transform="translate(-0.13 -0.13)"/><path class="cls-1" d="M240.47,134.78a.56.56,0,0,0,.16.39c-.28.27-.83.21-.83-.26a6.48,6.48,0,0,0-.07-.77.6.6,0,0,1,.69,0h0A4.89,4.89,0,0,1,240.47,134.78Z" transform="translate(-0.13 -0.13)"/><path class="cls-1" d="M240.39,133.94l0,.17a.6.6,0,0,0-.69,0,5.92,5.92,0,0,0-.55-1.87.43.43,0,0,1-.05-.21l.32.34a2,2,0,0,1,.39.58,6.22,6.22,0,0,0,.29.71A.48.48,0,0,0,240.39,133.94Z" transform="translate(-0.13 -0.13)"/><path class="cls-1" d="M240.4,131.94a.58.58,0,0,0-.23,0h0s0,0,0,0a.42.42,0,0,0-.17-.2l.06-.16A1.52,1.52,0,0,1,240.4,131.94Z" transform="translate(-0.13 -0.13)"/><path class="cls-1" d="M240.36,133.76l0,.18a.48.48,0,0,1-.26-.25,6.22,6.22,0,0,1-.29-.71,2,2,0,0,0-.39-.58l-.32-.34h0a.52.52,0,0,1,.81-.35.61.61,0,0,0,0,.3.53.53,0,0,0,.15.89A2.5,2.5,0,0,1,240.36,133.76Z" transform="translate(-0.13 -0.13)"/><path class="cls-1" d="M240.13,131.93q.17.36.3.75a2.51,2.51,0,0,0-.33-.4.54.54,0,0,1-.16-.28.36.36,0,0,1,.18-.07Z" transform="translate(-0.13 -0.13)"/><path class="cls-1" d="M240.11,131.9s0,0,0,0a.36.36,0,0,0-.18.07.61.61,0,0,1,0-.3A.42.42,0,0,1,240.11,131.9Z" transform="translate(-0.13 -0.13)"/><path class="cls-1" d="M240,131.54l-.06.16a.52.52,0,0,0-.81.35,3,3,0,0,1-.46-.65c-.18-.36.18-.71.53-.69h0a.52.52,0,0,0,.39.65A1,1,0,0,1,240,131.54Z" transform="translate(-0.13 -0.13)"/><path class="cls-9" d="M239.67,175.19a34.72,34.72,0,0,1-4.46,8.67c-.28.4-.58.81-.89,1.21a32.72,32.72,0,0,1-5,5.16c-2.46,2-5.09,3.65-7.68,1a3.13,3.13,0,0,1-.25-.26c-.18-.2-.35-.42-.52-.63a30.49,30.49,0,0,1-3.51-6,42.22,42.22,0,0,1-3.18-9.49A126.62,126.62,0,0,0,239.67,175.19Z" transform="translate(-0.13 -0.13)"/><path class="cls-1" d="M235.45,185.64a26.71,26.71,0,0,1-1.7,12.38l-1.25.26a26.28,26.28,0,0,0,2-11.4h0C234.82,186.46,235.15,186.05,235.45,185.64Z" transform="translate(-0.13 -0.13)"/><path class="cls-1" d="M233.55,242l1.19-.1c-.36,2.13-.74,4.26-1.15,6.37-1.6,8.31-4.59,17-12,21.44-.17.1-.36.2-.53.31l-1,.52c-.26-.3-.53-.59-.8-.88a7.91,7.91,0,0,0,1-.52h0a18.5,18.5,0,0,0,3.7-2.58C230.63,260.58,232.27,250.69,233.55,242Z" transform="translate(-0.13 -0.13)"/><path class="cls-9" d="M234.48,186.88a26.28,26.28,0,0,1-2,11.4,91.2,91.2,0,0,1-18.56,1.83,14.88,14.88,0,0,0,1.16-.94,29.33,29.33,0,0,0,6-7c1.62,1.57,3.62,2.32,6.08.95A25.93,25.93,0,0,0,234.48,186.88Z" transform="translate(-0.13 -0.13)"/><path class="cls-5" d="M233.55,242c-1.28,8.67-2.92,18.56-9.54,24.56a18.5,18.5,0,0,1-3.7,2.58h0a7.91,7.91,0,0,1-1,.52,37.45,37.45,0,0,1-9.23,2.74c-5.38,1-10.79,1.88-16.18,2.82l-26,4.51a87.42,87.42,0,0,1,4.43-17.25,40.11,40.11,0,0,1,4.81-2.32c7-2.73,16.26-.87,21.28-7.79,2.19-3,3.12-6.81,4.37-10.31a1.57,1.57,0,0,1,.09-.23A200.93,200.93,0,0,0,233.55,242Z" transform="translate(-0.13 -0.13)"/><path class="cls-1" d="M224,138a.54.54,0,1,1,1.06.15,9.45,9.45,0,0,1-4.74,6.53c-.39.24-.8.46-1.22.67a26.66,26.66,0,0,1-10.88,2.18,35.34,35.34,0,0,1-6.75-.67c0-.43-.06-.87-.11-1.3a28,28,0,0,0,7.62.83,25.51,25.51,0,0,0,9.15-1.81,11.35,11.35,0,0,0,1.21-.6A8.55,8.55,0,0,0,224,138Z" transform="translate(-0.13 -0.13)"/><path class="cls-1" d="M220.26,191.35c.25.29.52.58.79.84a29.33,29.33,0,0,1-6,7,14.88,14.88,0,0,1-1.16.94c-.62,0-1.24,0-1.86,0A30.17,30.17,0,0,0,220.26,191.35Z" transform="translate(-0.13 -0.13)"/><path class="cls-1" d="M220.63,120.24a.54.54,0,1,1-1.08.14c-.75-5.88-9.46-8.76-14.2-9.28s-9.82,1.46-11.86,5.86a7.32,7.32,0,0,0-.45,1.19,9.32,9.32,0,0,0-.38,1.79.54.54,0,1,1-1.07-.15,13.13,13.13,0,0,1,.28-1.49,11.58,11.58,0,0,1,.39-1.22c1.91-4.9,7.21-7.48,12.27-7.19,4.9.28,13.1,2.84,15.48,8.19A7.56,7.56,0,0,1,220.63,120.24Z" transform="translate(-0.13 -0.13)"/><path class="cls-5" d="M217.49,187.08a27.55,27.55,0,0,0,2.77,4.27,30.17,30.17,0,0,1-8.18,8.74c-1.37,0-2.74-.11-4.12-.22l.18-2.51a.5.5,0,0,0,.53-.48,64.21,64.21,0,0,0-3.18-23.17q3.75.61,7.51,1A43.84,43.84,0,0,0,217.49,187.08Z" transform="translate(-0.13 -0.13)"/><path class="cls-5" d="M217.32,16.78c1.7,2.91,1.88,8.18-2,9.18-2.44.62-4.74-1.11-5.91-3.25a8.58,8.58,0,0,1,0-7.5,13.56,13.56,0,0,1,1.28-2.37C213.33,13.24,215.89,14.31,217.32,16.78Z" transform="translate(-0.13 -0.13)"/><path class="cls-6" d="M208.14,197.36l-.18,2.51a78,78,0,0,1-20.85-4.54c-11.6-4.24-22-11.27-32.32-18.21l-.15-.08.55-1.35,52.74,21.63A.52.52,0,0,0,208.14,197.36Z" transform="translate(-0.13 -0.13)"/><path class="cls-6" d="M204.28,173.5A63,63,0,0,1,207.62,196q-31.77-13.05-63.57-26.08l-1.21-.5-10.29-4.22Q138.76,156,145,146.7c1.37,1.32,2.8,2.59,4.26,3.8a73.34,73.34,0,0,0,22,12.5,25.11,25.11,0,0,0,3.51,3.67c2.91,2.48,6.67,2.92,10.27,2.21a.56.56,0,0,0,.34.27A181.36,181.36,0,0,0,204.28,173.5Z" transform="translate(-0.13 -0.13)"/><path class="cls-5" d="M204.19,81.68c.32,3.76-2.55,5.42-5.64,6.08a9.15,9.15,0,0,1-.83-1.15c-1.33-2.24-1.46-5.4.66-7.13S203.91,78.42,204.19,81.68Z" transform="translate(-0.13 -0.13)"/><path class="cls-1" d="M201.43,146.84a22.73,22.73,0,0,1-.41,5.76,21,21,0,0,1-10,14,21.52,21.52,0,0,1-4.19,1.83h0l-1.35-.38a.43.43,0,0,0-.25,0l-.07-.28a20,20,0,0,0,6.36-2.77,19.8,19.8,0,0,0,8-10.92,21.74,21.74,0,0,0,.78-7.44c0-.1,0-.22,0-.32,0-.28-.07-.64-.12-1h0c-.3-2.52-1.13-7-3.16-7.56-.65-.18-.52-1.31.14-1.12,2.32.65,3.06,3.88,3.61,6a20.94,20.94,0,0,1,.53,2.93h0C201.37,146,201.42,146.41,201.43,146.84Z" transform="translate(-0.13 -0.13)"/><path class="cls-7" d="M208.37,341c-3.18.63-6.33,1.36-9.44,2.15a54.38,54.38,0,0,0-16.25,6.67,126.88,126.88,0,0,1-10.28-22.59C185.94,327,199.42,329.66,208.37,341Z" transform="translate(-0.13 -0.13)"/><path class="cls-9" d="M201.74,241.76c-.52,1.39-1,2.8-1.5,4.22-1.51,4.26-3.62,7.92-7.84,9.62-3.67,1.47-7.7,1.49-11.52,2.28a30.57,30.57,0,0,0-8.06,3.15l-1.42.77c-3.68,2.06-7.28,4.32-11.32,5.54a4.23,4.23,0,0,1-5.13-2.83c-.35-1-.66-2.05-1-3.08-.76-2.39-1.48-4.81-2.17-7.22-1.36-4.8-4.56-11.67-1.5-16.2a40.79,40.79,0,0,1,5-6,199,199,0,0,0,29,7.42c.41.08.82.14,1.24.21Q193.6,241.06,201.74,241.76Z" transform="translate(-0.13 -0.13)"/><path class="cls-1" d="M198.72,101.22a5.92,5.92,0,0,1,1.27,6.71.6.6,0,0,1,.14.81,5.64,5.64,0,0,1-7.79,1.75,6.22,6.22,0,0,1-1.46-8.21A5.44,5.44,0,0,1,198.72,101.22Zm-.53,7.57a4.87,4.87,0,0,0-.14-6.68,4.37,4.37,0,0,0-6.32.88,5,5,0,0,0,1.52,6.76,4.46,4.46,0,0,0,4.84-.46A.46.46,0,0,1,198.19,108.79Z" transform="translate(-0.13 -0.13)"/><path class="cls-1" d="M198.05,102.11a4.87,4.87,0,0,1,.14,6.68.46.46,0,0,0-.1.5,4.46,4.46,0,0,1-4.84.46,5,5,0,0,1-1.52-6.76A4.37,4.37,0,0,1,198.05,102.11Z" transform="translate(-0.13 -0.13)"/><path class="cls-1" d="M192.26,117.08a11.58,11.58,0,0,0-.39,1.22,23.36,23.36,0,0,0-6.63,2c-2.94,1.42-6.91,4.64-7.58,8.2a4.67,4.67,0,0,0-.09,1.19,5.8,5.8,0,0,0,1.73,3.83c.47.51-.19,1.41-.67.88a6.82,6.82,0,0,1-1.94-4.42,6.65,6.65,0,0,1,0-1.18,11.11,11.11,0,0,1,4.33-7.26A22.73,22.73,0,0,1,192.26,117.08Z" transform="translate(-0.13 -0.13)"/><path class="cls-1" d="M185.51,168l1.35.38c-.61.18-1.21.34-1.83.47-.19-.32-.09-.78.23-.86A.43.43,0,0,1,185.51,168Z" transform="translate(-0.13 -0.13)"/><path class="cls-1" d="M185.19,167.74l.07.28c-.32.08-.42.54-.23.86-3.6.71-7.36.27-10.27-2.21a25.11,25.11,0,0,1-3.51-3.67,17.3,17.3,0,0,1-1.1-1.59c-1.69-2.77-2.51-5.92-1.14-9a6.49,6.49,0,0,0,.67.82l.11.11c-1,2.79.05,6,1.91,8.65a16.78,16.78,0,0,0,1.27,1.62,0,0,0,0,1,0,0,15,15,0,0,0,4.37,3.49A11.72,11.72,0,0,0,185.19,167.74Z" transform="translate(-0.13 -0.13)"/><path class="cls-1" d="M178.15,154.17c.66-.24,1.07.82.41,1.05a8.22,8.22,0,0,1-8.77-1.9l-.11-.11a6.49,6.49,0,0,1-.67-.82c-2-2.75-2.23-6.55-2.16-9.91.14-7.32,4.22-11.7,9.86-13.63a6.65,6.65,0,0,0,0,1.18c-4.24,1.48-7.76,4.46-8.57,9.67a20.8,20.8,0,0,0,.71,10.07,8.05,8.05,0,0,0,.86,1.65,7.55,7.55,0,0,0,.6.77A7.24,7.24,0,0,0,178.15,154.17Z" transform="translate(-0.13 -0.13)"/><path class="cls-5" d="M174.17,52c2.12,5.69-5.23,9-9.3,7a12,12,0,0,1-5.53-6.24,11.86,11.86,0,0,1,5.7-4.15C168.17,47.64,172.81,48.36,174.17,52Z" transform="translate(-0.13 -0.13)"/><path class="cls-1" d="M166.36,93.22c1.57,5.76-3.31,8.62-7.42,10.92a12.1,12.1,0,0,0-4.65,3.81c-1.59,2.58-.79,5.51.07,8.18a35,35,0,0,1,2.08,10.06,27.08,27.08,0,0,1-.5,5.91c-.1.5-.21,1-.34,1.48l-.13.11a6.88,6.88,0,0,1-1.24.86h0c.11-.35.21-.7.3-1.06l.12-.5a26.41,26.41,0,0,0-.35-13.69c-.92-3.08-2.53-6.29-1.82-9.61.63-3,3-4.79,5.38-6.21,3.35-2,8.56-4.11,7.69-9.16-.59-3.45-3.07-6.12-2.22-9.82a9.19,9.19,0,0,1,1.17-2.86c.31.24.62.47.93.68C163.06,86,165.29,89.27,166.36,93.22Z" transform="translate(-0.13 -0.13)"/><path class="cls-1" d="M166.07,81.41a10,10,0,0,0-.67.91c-.31-.21-.62-.44-.93-.68a8.26,8.26,0,0,1,.64-.91A2.48,2.48,0,0,0,166.07,81.41Z" transform="translate(-0.13 -0.13)"/><path class="cls-5" d="M165.52,94.32c.87,5.05-4.34,7.19-7.69,9.16-2.4,1.42-4.75,3.23-5.38,6.21-.71,3.32.9,6.53,1.82,9.61a26.41,26.41,0,0,1,.35,13.69,22,22,0,0,1-11.18,3.57,25.87,25.87,0,0,1-6.39-.63c-.5-.1-1-.22-1.48-.34h0a82.45,82.45,0,0,1-7.89-2.55c-4.62-1.66-9.36-3.43-14.28-3.62s-8.93,1.52-13.19,3.62c-5.89,2.9-11.78,4.7-18.34,3.69-5.42-.84-10-3.67-14.9-6.12-4.39-2.21-8.86-3.78-13.78-3.2-5.7.67-10.93,3-16.77,2.1a21.58,21.58,0,0,1-9.7-4.21c-1.95-1.49-3.68-3.31-5.77-4.6a9.16,9.16,0,0,0-6.06-1.47c-2.67.29-5.76,1.88-8.23.31,4.17-4.33,9.91-5.9,15.28-8a40.71,40.71,0,0,0,13.32-8.68c4.17-4,7.92-8.5,12.49-12,5.48-4.22,11.95-6,18.35-8,10.77-3.43,21.46-8.28,29.2-17.17,2.09-2.4,3.95-5,6.26-7.22a20.06,20.06,0,0,1,9.62-4.84c5.45-1.25,11.08-1.43,16.17-4.1,6.19-3.25,11-8.76,17.06-12.17,4.2-2.36,9.86-3.52,14.22-1.56a26.13,26.13,0,0,0-1.84,10.9l-.15.12a1.69,1.69,0,0,1,.11,1,1.43,1.43,0,0,1,0,.29l.14-.1a18.17,18.17,0,0,0,1.17,4.71,17.92,17.92,0,0,0-1.5,2.53c-4.27,8.88-.78,18.76,6.07,24.93a22.14,22.14,0,0,0,1.84,1.52,9.19,9.19,0,0,0-1.17,2.86C162.45,88.2,164.93,90.87,165.52,94.32Z" transform="translate(-0.13 -0.13)"/><path class="cls-5" d="M133.08,398A21.61,21.61,0,0,1,126,410.72c-5.22,4.61-12.23,6.5-18.93,6.67-7.51.18-15.21-1.56-22.39-3.73-3.55-1.08-7-3-7.67-7.18a13,13,0,0,1,.09-4.17c3.91,0,7.81-.09,11.72-.23A386.49,386.49,0,0,0,133.08,398Z" transform="translate(-0.13 -0.13)"/><path class="cls-10" d="M283.62,43.48a28.34,28.34,0,0,0-1.33-9.4" transform="translate(-0.13 -0.13)"/><path class="cls-10" d="M280.76,33c.15.38.29.77.42,1.15a26.62,26.62,0,0,1,1.37,8.7q0,.63,0,1.26" transform="translate(-0.13 -0.13)"/><path class="cls-10" d="M164.47,81.64c.31.24.62.47.93.68,8.54,6,19.74,7.05,29.74,7a19.51,19.51,0,0,0,3.11-.27,13.78,13.78,0,0,0,6.82,3.34c12,2.4,25.53.64,37.22-2.61,5.15-1.44,10.94-3,15.08-6.75a12.76,12.76,0,0,0,4.41-9.74c7.9-3.19,14.92-8.86,18.78-17a31.89,31.89,0,0,0,3-11.57c-.34-.2-.69-.39-1-.58a30.13,30.13,0,0,1-1.18,7.06,32,32,0,0,1-13.92,18,38.21,38.21,0,0,1-5.77,2.94,9.3,9.3,0,0,0-.25-1c-1.13-3.67-5.28-6.69-8.8-4.49-2.42,1.51-3.78,5.42-1.34,7.61a5.13,5.13,0,0,0,4.12,1,18.21,18.21,0,0,0,2.61-.68c.89-.27,1.78-.56,2.66-.89a11.85,11.85,0,0,1-2.31,6.64c-2.54,3.33-6.48,5-10.22,6.37a90.74,90.74,0,0,1-12.74,3.53,93.44,93.44,0,0,1-26,1.52c-3.36-.29-7.17-.77-9.83-3A7.24,7.24,0,0,0,205,83.82c.89-2.94-.44-6.35-3.65-6.52-3.48-.19-6.13,3.23-5.66,6.75A8.11,8.11,0,0,0,197.3,88a20.12,20.12,0,0,1-3,.18,91,91,0,0,1-12.23-.91,37.53,37.53,0,0,1-16-5.86,11.31,11.31,0,0,1-1-.68" transform="translate(-0.13 -0.13)"/><path class="cls-10" d="M260,72.78c-.87.3-1.77.57-2.66.85a1,1,0,0,0-.23.08,8.83,8.83,0,0,1-1,.3,5,5,0,0,1-1.28.11,5.71,5.71,0,0,0-.58,0,2.92,2.92,0,0,1-.51,0,3.25,3.25,0,0,1-1-.22,2.75,2.75,0,0,1-1.45-1.42c-.65-1.47.19-3.47,1.29-4.43a4.13,4.13,0,0,1,4.75-.39,5.92,5.92,0,0,1,3.27,4.88Z" transform="translate(-0.13 -0.13)"/><path class="cls-10" d="M197.72,86.61c-1.33-2.24-1.46-5.4.66-7.13s5.53-1.06,5.81,2.2c.32,3.76-2.55,5.42-5.64,6.08A9.15,9.15,0,0,1,197.72,86.61Z" transform="translate(-0.13 -0.13)"/><path class="cls-10" d="M165.11,80.73s0,0,0,0a26.11,26.11,0,0,1-4.26-4C156,71.07,154.13,63,157.4,56a16.92,16.92,0,0,1,1.19-2.12,16.14,16.14,0,0,0,2.59,3.79c2.82,3,7,4.4,10.66,2.15,3.09-1.9,4.93-6.1,2.69-9.47-2.08-3.12-6.42-3.8-9.71-2.81a12.74,12.74,0,0,0-5.95,4.12,17.94,17.94,0,0,1-.78-2.89c-.09-.52-.17-1-.22-1.57s-.08-.89-.09-1.33a23.69,23.69,0,0,1,1.78-9.62c.12-.33.26-.63.41-1h0a30.63,30.63,0,0,1,4.26-6.95c5.17-6.35,12.56-9.9,20.11-12a99.62,99.62,0,0,1,22.39-3.66,22.93,22.93,0,0,1,2.73.06A15.46,15.46,0,0,0,208,16c-1.19,3.86-.19,8.13,3.26,10.3a5.22,5.22,0,0,0,7.93-2.59A9.31,9.31,0,0,0,217,14.52a10.2,10.2,0,0,0-5.56-2.73,25,25,0,0,1,6.12-5.58,28.47,28.47,0,0,1,40.26,9.41A20.78,20.78,0,0,1,259,17.89a11,11,0,0,0-5.33,2.5c-2.43,2.08-3.49,6.36-1.06,8.9s6.33.9,8-1.76,1.22-5.67.15-8.51c6.22-.43,12.73,3.27,16.63,8.07A22.29,22.29,0,0,1,280.76,33c.38-.06.76-.12,1.11-.15a23.43,23.43,0,0,0-3.95-6.79c-3.88-4.63-11.25-8.88-17.76-8.35a27.67,27.67,0,0,0-1.94-3.52A31.3,31.3,0,0,0,247.17,3.84a28.91,28.91,0,0,0-29.2.77,26.58,26.58,0,0,0-7.8,7,29.73,29.73,0,0,0-6.13.11,138.51,138.51,0,0,0-17.28,2.8C176.43,17,166.35,21.8,160.6,31.61A27.91,27.91,0,0,0,159,34.75" transform="translate(-0.13 -0.13)"/><path class="cls-10" d="M158.62,35.72a26.13,26.13,0,0,0-1.84,10.9l-.15.12a1.69,1.69,0,0,1,.11,1,1.43,1.43,0,0,1,0,.29l.14-.1a18.17,18.17,0,0,0,1.17,4.71,17.92,17.92,0,0,0-1.5,2.53c-4.27,8.88-.78,18.76,6.07,24.93a22.14,22.14,0,0,0,1.84,1.52" transform="translate(-0.13 -0.13)"/><path class="cls-10" d="M165,48.64c3.13-1,7.77-.28,9.13,3.35,2.12,5.69-5.23,9-9.3,7a12,12,0,0,1-5.53-6.24A11.86,11.86,0,0,1,165,48.64Z" transform="translate(-0.13 -0.13)"/><path class="cls-10" d="M217.32,16.78c1.7,2.91,1.88,8.18-2,9.18-2.44.62-4.74-1.11-5.91-3.25a8.58,8.58,0,0,1,0-7.5,13.56,13.56,0,0,1,1.28-2.37C213.33,13.24,215.89,14.31,217.32,16.78Z" transform="translate(-0.13 -0.13)"/><path class="cls-10" d="M256.86,29.16c-2.7.91-4.85-1.39-4.53-4.25.3-2.59,2.34-4.24,4.53-5.07a12.82,12.82,0,0,1,2.62-.69C260.89,23,261.25,27.67,256.86,29.16Z" transform="translate(-0.13 -0.13)"/><path class="cls-10" d="M200,107.93a5.92,5.92,0,0,0-1.27-6.71,5.44,5.44,0,0,0-7.84,1.06,6.22,6.22,0,0,0,1.46,8.21,5.64,5.64,0,0,0,7.79-1.75A.6.6,0,0,0,200,107.93Z" transform="translate(-0.13 -0.13)"/><path class="cls-10" d="M193.25,109.75a5,5,0,0,1-1.52-6.76,4.37,4.37,0,0,1,6.32-.88,4.87,4.87,0,0,1,.14,6.68.46.46,0,0,0-.1.5A4.46,4.46,0,0,1,193.25,109.75Z" transform="translate(-0.13 -0.13)"/><path class="cls-10" d="M274.3,100A5.92,5.92,0,0,0,273,93.29a5.42,5.42,0,0,0-7.83,1.06,6.21,6.21,0,0,0,1.46,8.21,5.64,5.64,0,0,0,7.78-1.76A.58.58,0,0,0,274.3,100Z" transform="translate(-0.13 -0.13)"/><path class="cls-10" d="M267.55,101.81A5,5,0,0,1,266,95.05a4.36,4.36,0,0,1,6.32-.87,4.86,4.86,0,0,1,.14,6.67.48.48,0,0,0-.1.51A4.48,4.48,0,0,1,267.55,101.81Z" transform="translate(-0.13 -0.13)"/><path class="cls-10" d="M219.06,145.33a13.25,13.25,0,0,0,8.39,2.23A41.45,41.45,0,0,0,225,159.44c-.19,4.53,4.54,5.66,8.06,4.77,4.86-1.25,8.36-6,11-10.11a50.07,50.07,0,0,0,6.3-14.4" transform="translate(-0.13 -0.13)"/><path class="cls-10" d="M240.42,134.11a.6.6,0,0,0-.69,0,.48.48,0,0,0-.13.49c1.65,7.15-4.59,10.8-10.42,11.63a1.42,1.42,0,0,1-.42.06h0a1.65,1.65,0,0,1-.83.07c-.45,0-.9.05-1.33.05H226a11.18,11.18,0,0,1-5.67-1.77" transform="translate(-0.13 -0.13)"/><path class="cls-10" d="M249.31,139.65c-2.16,8-6.32,16.8-12.76,21.59a9.13,9.13,0,0,1-7.35,2c-3.7-.87-3.08-5.11-2.56-8.06a46.67,46.67,0,0,1,2-7.68c6.22-.6,13.33-4.78,12.15-12.2a1.8,1.8,0,0,0-.06-.32,4,4,0,0,0-.09-.48.52.52,0,0,0-.25-.36" transform="translate(-0.13 -0.13)"/><path class="cls-10" d="M201.32,145.54a28,28,0,0,0,7.62.83,25.51,25.51,0,0,0,9.15-1.81,11.35,11.35,0,0,0,1.21-.6,8.55,8.55,0,0,0,4.66-6,.54.54,0,1,1,1.06.15,9.45,9.45,0,0,1-4.74,6.53c-.39.24-.8.46-1.22.67a26.66,26.66,0,0,1-10.88,2.18,35.34,35.34,0,0,1-6.75-.67" transform="translate(-0.13 -0.13)"/><path class="cls-10" d="M169.79,153.32c-1,2.79.05,6,1.91,8.65a16.78,16.78,0,0,0,1.27,1.62,0,0,0,0,1,0,0,15,15,0,0,0,4.37,3.49,11.72,11.72,0,0,0,7.83.64,20,20,0,0,0,6.36-2.77,19.8,19.8,0,0,0,8-10.92,21.74,21.74,0,0,0,.78-7.44c0-.1,0-.22,0-.32,0-.28-.07-.64-.12-1h0c-.3-2.52-1.13-7-3.16-7.56-.65-.18-.52-1.31.14-1.12,2.32.65,3.06,3.88,3.61,6a20.94,20.94,0,0,1,.53,2.93h0c.05.43.1.87.11,1.3a22.73,22.73,0,0,1-.41,5.76,21,21,0,0,1-10,14,21.52,21.52,0,0,1-4.19,1.83" transform="translate(-0.13 -0.13)"/><path class="cls-10" d="M170.15,161.41c-1.69-2.77-2.51-5.92-1.14-9" transform="translate(-0.13 -0.13)"/><path class="cls-10" d="M185,168.88c-3.6.71-7.36.27-10.27-2.21a25.11,25.11,0,0,1-3.51-3.67" transform="translate(-0.13 -0.13)"/><path class="cls-10" d="M176.69,130c-4.24,1.48-7.76,4.46-8.57,9.67a20.8,20.8,0,0,0,.71,10.07,8.05,8.05,0,0,0,.86,1.65,7.55,7.55,0,0,0,.6.77,7.24,7.24,0,0,0,7.86,2c.66-.24,1.07.82.41,1.05a8.22,8.22,0,0,1-8.77-1.9l-.11-.11a6.49,6.49,0,0,1-.67-.82c-2-2.75-2.23-6.55-2.16-9.91.14-7.32,4.22-11.7,9.86-13.63" transform="translate(-0.13 -0.13)"/><path class="cls-10" d="M191.87,118.3a23.36,23.36,0,0,0-6.63,2c-2.94,1.42-6.91,4.64-7.58,8.2a4.67,4.67,0,0,0-.09,1.19,5.8,5.8,0,0,0,1.73,3.83c.47.51-.19,1.41-.67.88a6.82,6.82,0,0,1-1.94-4.42,6.65,6.65,0,0,1,0-1.18,11.11,11.11,0,0,1,4.33-7.26,22.73,22.73,0,0,1,11.22-4.51" transform="translate(-0.13 -0.13)"/><path class="cls-10" d="M220,118.08a7.56,7.56,0,0,1,.62,2.16.54.54,0,1,1-1.08.14c-.75-5.88-9.46-8.76-14.2-9.28s-9.82,1.46-11.86,5.86a7.32,7.32,0,0,0-.45,1.19,9.32,9.32,0,0,0-.38,1.79.54.54,0,1,1-1.07-.15,13.13,13.13,0,0,1,.28-1.49,11.58,11.58,0,0,1,.39-1.22c1.91-4.9,7.21-7.48,12.27-7.19C209.43,110.17,217.63,112.73,220,118.08Z" transform="translate(-0.13 -0.13)"/><path class="cls-10" d="M240.66,131.32l.11.07a7.24,7.24,0,0,1,1.53,3" transform="translate(-0.13 -0.13)"/><path class="cls-10" d="M240.43,132.68a2.51,2.51,0,0,0-.33-.4.54.54,0,0,1-.16-.28.61.61,0,0,1,0-.3l.06-.16a.48.48,0,0,1,.6-.26" transform="translate(-0.13 -0.13)"/><path class="cls-10" d="M258.78,138.88h0a8.89,8.89,0,0,1-5.08.9c-1,0-2.15,0-3.3-.08-.35,0-.72,0-1.08,0a11.63,11.63,0,0,1-5.75-1.56,5.81,5.81,0,0,1-2.09-2.25,3.83,3.83,0,0,1-.22-.56c-.15-.46-.24-.95-.36-1.42a3.83,3.83,0,0,0-.45-1.15" transform="translate(-0.13 -0.13)"/><path class="cls-10" d="M242.31,134.44a5,5,0,0,0,1.75,2.62,10.47,10.47,0,0,0,5.54,1.47c.36,0,.73,0,1.09,0,.92,0,1.82,0,2.64.07a9.75,9.75,0,0,0,3.81-.42,6.07,6.07,0,0,0,1.17-.58,8.71,8.71,0,0,0,2.63-2.82,22.83,22.83,0,0,1,3.36-4.6c.51-.48,1.15.42.64.91-2,1.93-2.94,4.7-4.85,6.69l-.25.25" transform="translate(-0.13 -0.13)"/><path class="cls-10" d="M288.12,124.87c5,4.48,4.06,11.59,2.43,17.56-1.52,5.55-4.34,12.42-10.24,14-4.83,1.28-12.39,1-14.89-4.35-1.78-3.82-1.27-8.47-.11-12.71a18,18,0,0,1-6.53-.48,6.57,6.57,0,0,0,1.06-.82,19,19,0,0,0,5.82.07c.42-.06.83-.13,1.2-.21a9.84,9.84,0,0,0,1.86-.51,11.43,11.43,0,0,0,7.34-9.49.54.54,0,1,1,1.07.15,12.74,12.74,0,0,1-10.66,11.12c-1,3.64-1.59,7.58-.57,11.08,1.7,5.83,8.54,6.11,13.38,5.22,5.42-1,8.24-6.78,9.79-11.81,1.71-5.51,3.25-12.68-.94-17.25" transform="translate(-0.13 -0.13)"/><path class="cls-10" d="M263.27,112.22a10.87,10.87,0,0,1,7.19-3.7,17.39,17.39,0,0,1,6.73,1c1.94.63,4.47,1.25,6,2.8,2.67,2.77,4.72,7.79,5,12.54,0,.53,0,1,0,1.56-.13,3.42-1.29,6.55-4,8.42a.56.56,0,0,1-.65-.92c6.21-4.33,3.2-15.34-.71-20.29-2.22-2.82-8.08-4-11.35-4a9.77,9.77,0,0,0-6.83,2.78" transform="translate(-0.13 -0.13)"/><path class="cls-10" d="M264.62,112.43l-1.35-.21a28.51,28.51,0,0,0-3.17-.25c-3.15-.06-7.12.39-10,2.25a5.69,5.69,0,0,0-3.62-2.71,25.3,25.3,0,0,0-7.73-.87h0c.65-.26.24-1.31-.39-1a28.24,28.24,0,0,1-8.29,2.1c-2.12.18-4.37-.16-6.44.42s-4.24,2.62-3.7,5.21a3.38,3.38,0,0,0,.22.7c1.19,2.71,5.5,1.61,7.73,1.55,1.76,0,3.55-.17,4.83,1.44.82,1,1.08,2.49,1.76,3.63a5.67,5.67,0,0,0,2.87,2.62c2.49.87,4.3-.8,4.78-3.28.38-2,.08-3.31,2.29-4.39a25.82,25.82,0,0,1,2.81-.77,4.45,4.45,0,0,0,2.78-2.1,3.22,3.22,0,0,0,.33-1.35c2.38-1.66,5.76-2.14,8.38-2.25a26.39,26.39,0,0,1,3.71.17c.41,0,.84.09,1.28.16,3.52.51,7.35,1.71,6.9,4.3a.54.54,0,1,0,1.06.16C272.27,114.59,268.25,113.08,264.62,112.43Z" transform="translate(-0.13 -0.13)"/><path class="cls-10" d="M247.14,117.65h0c-.73.3-1.53.38-2.27.61-1.7.55-2.92,1.33-3.44,3.2-.37,1.33-.1,4.24-1.81,4.71-2.91.78-4.16-2-5.19-4.25-2.32-5-6.65-2.78-10.93-3.29a2.64,2.64,0,0,1-1.76-4.15,5,5,0,0,1,3.48-1.49c1.49-.19,3,0,4.53-.15.62,0,1.24-.12,1.85-.21a.46.46,0,0,0,.35.07,31.84,31.84,0,0,1,10.7-.72c1.37.16,4.67.25,5.55,1.49.05.74.1,1.47.16,2.21" transform="translate(-0.13 -0.13)"/><path class="cls-10" d="M248.35,115.68c0,.43.06.85.1,1.27a4.26,4.26,0,0,1-1.31.7.47.47,0,0,1,.06-.33A8,8,0,0,1,248.35,115.68Z" transform="translate(-0.13 -0.13)"/><path class="cls-10" d="M154.62,133a22,22,0,0,1-11.18,3.57,25.87,25.87,0,0,1-6.39-.63c-.5-.1-1-.22-1.48-.34h0a82.45,82.45,0,0,1-7.89-2.55c-4.62-1.66-9.36-3.43-14.28-3.62s-8.93,1.52-13.19,3.62c-5.89,2.9-11.78,4.7-18.34,3.69-5.42-.84-10-3.67-14.9-6.12-4.39-2.21-8.86-3.78-13.78-3.2-5.7.67-10.93,3-16.77,2.1a21.58,21.58,0,0,1-9.7-4.21c-1.95-1.49-3.68-3.31-5.77-4.6a9.16,9.16,0,0,0-6.06-1.47c-2.67.29-5.76,1.88-8.23.31,4.17-4.33,9.91-5.9,15.28-8a40.71,40.71,0,0,0,13.32-8.68c4.17-4,7.92-8.5,12.49-12,5.48-4.22,11.95-6,18.35-8,10.77-3.43,21.46-8.28,29.2-17.17,2.09-2.4,3.95-5,6.26-7.22a20.06,20.06,0,0,1,9.62-4.84c5.45-1.25,11.08-1.43,16.17-4.1,6.19-3.25,11-8.76,17.06-12.17,4.2-2.36,9.86-3.52,14.22-1.56.13-.33.26-.65.4-1a13.74,13.74,0,0,0-5.89-1.26c-5.73,0-10.85,3.48-15.27,6.95-5.78,4.53-11,9-18.26,10.44-5.68,1.17-11.77,1.39-16.69,4.93-5.22,3.78-8.52,9.88-13.5,14a62,62,0,0,1-17.77,9.86c-6.35,2.39-13.08,3.75-19.16,6.84-5.17,2.62-9.33,6.7-13.39,10.88-5.33,5.48-10.5,10.27-17.57,13.06-5.75,2.27-11.77,4-16.13,8.8a.6.6,0,0,0,.08.8c3.85,3.24,8.71-.89,13,.63,2.29.82,4.17,2.64,6,4.22a25.52,25.52,0,0,0,6.41,4.15c5.15,2.22,10.39,2.12,15.73.87a41.56,41.56,0,0,1,8.55-1.52,20.87,20.87,0,0,1,9,2.1c4.93,2.2,9.46,5.34,14.68,6.73a27.54,27.54,0,0,0,15.63-.47c5.71-1.9,10.67-5.84,16.81-6.22,5.8-.34,11.38,1.89,16.79,3.81a69.68,69.68,0,0,0,8.44,2.6,71.89,71.89,0,0,0,7.66,9L131.29,165.1a.58.58,0,0,0,.21.87l10.28,4.22a356.44,356.44,0,0,0-59.5,54.5A380.58,380.58,0,0,0,12.61,342.26C10,349.41,7.53,356.67,5.32,364Q3.6,369.7,2.06,375.46c-.9,3.33-1.92,6.76-1.8,10.27C.49,392.79,6.13,395.81,12,397a242.08,242.08,0,0,0,25.14,3.4,385.05,385.05,0,0,0,39,1.9c-.62,4.33.16,8.54,4.52,10.95,3.34,1.85,7.43,2.53,11.08,3.37a64.68,64.68,0,0,0,14,1.88c7.65.07,15.74-2,21.56-7.45a22.69,22.69,0,0,0,6.92-13.25A389.05,389.05,0,0,0,192,384.34q6.26-2,12.42-4.15a.6.6,0,0,0,.13-1,164,164,0,0,1-21.33-28.4c7.62-5,16.83-7.27,25.9-8.79.2.27.41.56.6.84a26.56,26.56,0,0,1,4.68,12.46c.5,5.21-.81,10.36-.62,15.57a17.15,17.15,0,0,0,6.48,13c-.92,5.74-1.17,11.85,2.19,16.72,4.06,5.88,11.25,7.57,17.74,8,7.44.54,15.75,1.05,22.56-2.74,5.84-3.25,8.5-8.81,9-15.6.35-5.09.79-11.69-1.79-16.25a14.76,14.76,0,0,0,.5-2c1.66-8.95-2.24-18.69-5.12-26.95q-.81-2.32-1.68-4.65a89.91,89.91,0,0,1,8.92,2.19A73.13,73.13,0,0,1,296.68,355a.55.55,0,0,0,.87-.52c-1.62-27.17-2.91-54.39-4.91-81.52a189.42,189.42,0,0,0-8-41.66,95.14,95.14,0,0,0,24.21-12.56c.35-.26.71-.53,1.06-.82v-1.73l.57-.12" transform="translate(-0.13 -0.13)"/><path class="cls-10" d="M185,168.88a.56.56,0,0,0,.34.27,181.36,181.36,0,0,0,18.91,4.35A63,63,0,0,1,207.62,196q-31.77-13.05-63.57-26.08l-1.21-.5-10.29-4.22Q138.76,156,145,146.7c1.37,1.32,2.8,2.59,4.26,3.8a73.34,73.34,0,0,0,22,12.5,17.3,17.3,0,0,1-1.1-1.59,73.53,73.53,0,0,1-24.57-15.61c-.27-.26-.53-.51-.79-.78a68.3,68.3,0,0,1-6.75-7.74,25.66,25.66,0,0,0,6.38.36,23,23,0,0,0,9.77-3.07v0c.11-.35.21-.7.3-1.06" transform="translate(-0.13 -0.13)"/><path class="cls-10" d="M243.42,173.7c-.56.09-1.12.15-1.68.22l-.52.06-1.17.12a120.67,120.67,0,0,1-26.12-.28c-.38,0-.74-.08-1.12-.12h0c-2.57-.31-5.14-.7-7.7-1.15-.42-.06-.83-.14-1.24-.21-5.72-1-11.39-2.37-17-3.93h0" transform="translate(-0.13 -0.13)"/><path class="cls-10" d="M244.47,173.56l-1,.14" transform="translate(-0.13 -0.13)"/><path class="cls-10" d="M311,216h0a36.06,36.06,0,0,0,14.59-6.86,28.69,28.69,0,0,0,8.3-10.55c2.23-5,2.1-11.4,6-15.45,1.62-1.72,3.76-2.8,5.31-4.62a14.37,14.37,0,0,0,3-5.88,14,14,0,0,0-2.31-11.78c-6.36-8.48-17.27-4.92-25.31-1.44a60.87,60.87,0,0,0-10.67,5.94v-4.64a.46.46,0,0,0-.1-.31l-1,.63c-13.23,8.85-27.5,18.06-42.43,25.33-1-2.11-2-4.21-3.07-6.3,3.64-1.19,7.42-2.24,10.64-4.2,3.49-2.13,2.95-3.69.53-6.55-.79-.94-1.6-1.86-2.42-2.77a82.82,82.82,0,0,0,11-6.26A76.58,76.58,0,0,0,311,126.56a67.44,67.44,0,0,0,4.7-17.8c.63,0,1.28,0,1.92,0,3.69,0,7.44-.45,10.59-2.63s5.27-5.55,7.65-8.52c3.2-4,6.72-6.17,11.72-6.67,4.09-.4,8.46-.1,12.25-2.06,2.82-1.45,4.82-4,6.52-6.75,2-3.17,3.65-6.82,6.44-9.33,3.73-3.35,8.26-1.83,12.59-3.21,2.6-.82,5.26-3.07,4.81-6.25-.39-2.76-3-4.56-5.4-5.15-4.24-1-8.18,1.68-12.24,2.45s-8.21-.7-11.87-2.78c-6.36-3.61-12.39-9.14-20-9-5.13.06-10.08,1.87-14.48-1.89-2.76-2.35-4.71-5.63-7.64-7.78s-6.1-2.31-9.44-1.27c-4.86,1.51-9.81,5-14.71,1.62-3.52-2.44-6-6.39-10.51-6.71a10.89,10.89,0,0,0-2,.08c.15.4.29.79.42,1.19A8.38,8.38,0,0,1,288,35.45c2.9,2,5.06,5.31,8.54,6.36,3.08.94,6.17-.2,9-1.35,4.13-1.64,8.35-3.35,12.35-.41,2.75,2,4.64,5,7.13,7.34a11.69,11.69,0,0,0,8.95,3.2c4.82-.24,9-1.11,13.6.85,6.5,2.75,11.79,8.22,18.65,10.07a16.12,16.12,0,0,0,9.7-.63c2.45-.81,5.07-2.05,7.71-1.73s5.64,2.14,5.43,5.25c-.4,5.9-9.2,4.19-12.81,5.22-2.85.82-5,2.92-6.74,5.36-2,2.81-3.47,6-5.53,8.76-2.88,3.83-6.54,5.33-11.1,5.73-4.23.37-8.71.15-12.52,2.43-3.32,2-5.54,5.35-7.89,8.38-3.54,4.53-7.37,7.1-13.07,7.35-1.18.06-2.37.07-3.56,0a68.42,68.42,0,0,0-2.93-28.32,64.18,64.18,0,0,0-29.28-35.87c0,.42,0,.83-.06,1.25a62.67,62.67,0,0,1,26.65,30.45,67,67,0,0,1,4.56,32.48c0,.35-.08.71-.13,1.07a65.68,65.68,0,0,1-3.51,14.58c-7.26,19.76-22.23,33.89-40,42.23-.34.17-.68.33-1,.48a91.09,91.09,0,0,1-11.63,4.4l-1.05.31a99,99,0,0,1-12.9,2.82" transform="translate(-0.13 -0.13)"/><path class="cls-10" d="M309.89,166.7a58.32,58.32,0,0,1,5.74-3.63,59.55,59.55,0,0,1,11.68-4.93c5.29-1.58,11-2.63,15.65,1.22a13.07,13.07,0,0,1,.4,19.46c-1.58,1.45-3.5,2.46-4.86,4.17-2.61,3.26-3.13,7.66-4.27,11.58a26.56,26.56,0,0,1-6.84,11.49,34.11,34.11,0,0,1-17.5,9Z" transform="translate(-0.13 -0.13)"/><path class="cls-10" d="M239.67,175.19a34.72,34.72,0,0,1-4.46,8.67c-.28.4-.58.81-.89,1.21a32.72,32.72,0,0,1-5,5.16c-2.46,2-5.09,3.65-7.68,1a3.13,3.13,0,0,1-.25-.26c-.18-.2-.35-.42-.52-.63a30.49,30.49,0,0,1-3.51-6,42.22,42.22,0,0,1-3.18-9.49A126.62,126.62,0,0,0,239.67,175.19Z" transform="translate(-0.13 -0.13)"/><path class="cls-10" d="M126,410.72c-5.22,4.61-12.23,6.5-18.93,6.67-7.51.18-15.21-1.56-22.39-3.73-3.55-1.08-7-3-7.67-7.18a13,13,0,0,1,.09-4.17c3.91,0,7.81-.09,11.72-.23A386.49,386.49,0,0,0,133.08,398,21.61,21.61,0,0,1,126,410.72Z" transform="translate(-0.13 -0.13)"/><path class="cls-10" d="M198.93,343.19a54.38,54.38,0,0,0-16.25,6.67,126.88,126.88,0,0,1-10.28-22.59c13.54-.24,27,2.39,36,13.77C205.19,341.67,202,342.4,198.93,343.19Z" transform="translate(-0.13 -0.13)"/><path class="cls-10" d="M270.87,382.36c.15,4.29.15,9.15-1.05,13.28-2.51,8.62-11.12,11.69-18.88,12.1s-18,.51-24.59-4.65c-5.84-4.56-6.07-11.65-5.08-18.47a21.4,21.4,0,0,0,6.64,3.11c4.59,1.25,9.42,1.11,14.11.64a85.55,85.55,0,0,0,13.4-2.13c6.07-1.59,11.57-4.88,14-10.77A18.33,18.33,0,0,1,270.87,382.36Z" transform="translate(-0.13 -0.13)"/><path class="cls-10" d="M219.29,269.68a37.45,37.45,0,0,1-9.23,2.74c-5.38,1-10.79,1.88-16.18,2.82l-26,4.51a87.42,87.42,0,0,1,4.43-17.25,40.11,40.11,0,0,1,4.81-2.32c7-2.73,16.26-.87,21.28-7.79,2.19-3,3.12-6.81,4.37-10.31a1.57,1.57,0,0,1,.09-.23,200.93,200.93,0,0,0,30.74.17" transform="translate(-0.13 -0.13)"/><path class="cls-10" d="M220.09,270.56a218.27,218.27,0,0,1,28.75,40.3,224.38,224.38,0,0,1,12.38,26.24c.25.62.49,1.25.74,1.88.16.41.32.82.49,1.24,3.09,7.86,6.22,16.25,7.1,24.59a23.48,23.48,0,0,1-.41,8,13.62,13.62,0,0,1-.38,1.39,14.75,14.75,0,0,1-2.8,5c-2.95,3.4-7.26,5.08-11.43,6.1a91.57,91.57,0,0,1-12.65,1.93c-5.27.53-10.79.66-15.83-1.31a20.41,20.41,0,0,1-4.59-2.48c-.34-.25-.66-.5-1-.77a15.42,15.42,0,0,1-4.5-6.05c-2-5.13-.81-10.8-.48-16.13a28.67,28.67,0,0,0-5.17-18.67h0c-.22-.35-.48-.69-.74-1s-.59-.76-.91-1.13c-9.57-11.3-23-13.85-36.65-13.56-.48-1.42-.92-2.85-1.33-4.3a99.68,99.68,0,0,1-3.05-40.88l24.29-4.2c5.65-1,11.32-1.94,17-3A41.59,41.59,0,0,0,220.09,270.56Z" transform="translate(-0.13 -0.13)"/><path class="cls-10" d="M234.74,241.92a195,195,0,0,0,39.77-7.29c3.08-.91,6.16-1.89,9.2-3a178.46,178.46,0,0,1,7.5,37c1.22,13.34,1.74,26.78,2.54,40.16q1.32,22.27,2.66,44.58a78.36,78.36,0,0,0-33.22-14.24,225.28,225.28,0,0,0-9.67-21.84A220.62,220.62,0,0,0,221.09,270" transform="translate(-0.13 -0.13)"/><path class="cls-10" d="M171.4,261.8c-3.68,2.06-7.28,4.32-11.32,5.54a4.23,4.23,0,0,1-5.13-2.83c-.35-1-.66-2.05-1-3.08-.76-2.39-1.48-4.81-2.17-7.22-1.36-4.8-4.56-11.67-1.5-16.2a40.79,40.79,0,0,1,5-6,199,199,0,0,0,29,7.42c.41.08.82.14,1.24.21q8.07,1.4,16.21,2.1c-.52,1.39-1,2.8-1.5,4.22-1.51,4.26-3.62,7.92-7.84,9.62-3.67,1.47-7.7,1.49-11.52,2.28a30.57,30.57,0,0,0-8.06,3.15Z" transform="translate(-0.13 -0.13)"/><path class="cls-10" d="M212.08,200.09c-1.37,0-2.74-.11-4.12-.22a78,78,0,0,1-20.85-4.54c-11.6-4.24-22-11.27-32.32-18.21l-.15-.08c-.53-.17-1,.61-.52,1,9.17,6.2,18.42,12.45,28.55,16.79a79.22,79.22,0,0,0,28.1,6.2c.65,0,1.3,0,1.94,0h1.2a96.15,96.15,0,0,0,18.12-1.7c.43-.06.86-.14,1.28-.23,2.24-.45,4.46-.94,6.67-1.52.38-.09.74-.2,1.12-.3A147.66,147.66,0,0,0,266,188l1-.48c3.75-1.8,7.45-3.74,11.08-5.77,10.56-5.9,20.72-12.58,30.8-19.33v55a92.61,92.61,0,0,1-24.55,12.86l-.91.33c-1.72.62-3.46,1.2-5.19,1.76A192.71,192.71,0,0,1,242.79,240q-3.93.48-7.87.78c-.4,0-.8.07-1.21.09a196.56,196.56,0,0,1-30.5-.09c-.36,0-.72-.05-1.07-.09-5.28-.45-10.52-1.11-15.75-2l-1.26-.22q-6.75-1.15-13.43-2.8c-5.24-1.28-10.43-2.8-15.56-4.52l-1-.33A200.58,200.58,0,0,1,133.51,222c-.64-.3-1,.74-.42,1a199.26,199.26,0,0,0,21.2,8.66c-.58.59-1.14,1.19-1.7,1.8-2.37,2.61-5.07,5.45-4.74,9.34.4,4.78,2.36,9.81,3.71,14.38.71,2.41,1.44,4.82,2.22,7.2.47,1.45.89,3.25,2.26,4.06,2.72,1.66,7.3-1.09,9.69-2.32,1.73-.9,3.42-1.91,5.13-2.88A89.77,89.77,0,0,0,166.7,280c-.07.38-.12.78-.18,1.17-.19,1.34-.34,2.69-.47,4a101.76,101.76,0,0,0,4.87,41c.13.37.25.75.38,1.13a126.48,126.48,0,0,0,9.45,21.35c.33.61.68,1.21,1,1.82.19.31.37.64.56,1a164.32,164.32,0,0,0,20.93,28,389.26,389.26,0,0,1-68.94,17.26l-1.1.17q-14.44,2.19-29,3.29-13.42,1-26.87,1.06h-1q-11.79,0-23.57-.65-12.53-.73-25-2.29c-4.15-.53-8.28-1.12-12.42-1.77-3.63-.58-7.74-1.15-10.72-3.62-6.78-5.6-1.65-17.2.37-24.18s4.29-14.07,6.74-21A382.67,382.67,0,0,1,29,306.77a378,378,0,0,1,48.19-74.43,357.27,357.27,0,0,1,63.66-60.15c.69-.51,1.39-1,2.09-1.51l12.22,5,52.74,21.63a.52.52,0,0,0,.21,0,.5.5,0,0,0,.53-.48,64.21,64.21,0,0,0-3.18-23.17q3.75.61,7.51,1a43.84,43.84,0,0,0,4.49,12.33,27.55,27.55,0,0,0,2.77,4.27" transform="translate(-0.13 -0.13)"/><path class="cls-10" d="M232.5,198.28a91.2,91.2,0,0,1-18.56,1.83" transform="translate(-0.13 -0.13)"/><path class="cls-10" d="M235.45,185.64a37.44,37.44,0,0,0,5.41-10.56c.81-.08,1.61-.17,2.42-.28q-1.58,10.83-3.14,21.67c-2.12.58-4.25,1.09-6.39,1.55" transform="translate(-0.13 -0.13)"/><path class="cls-10" d="M221.05,192.19c1.62,1.57,3.62,2.32,6.08.95a25.93,25.93,0,0,0,7.35-6.26" transform="translate(-0.13 -0.13)"/><path class="cls-10" d="M265.43,186.83a154.16,154.16,0,0,1-24.16,9.33q1.28-8.83,2.56-17.68.38,4.78.65,9.58a.54.54,0,0,0,.73.46,119.17,119.17,0,0,1,14.51-7.17c.84-.34,1.7-.66,2.57-.94C263.35,182.54,264.39,184.68,265.43,186.83Z" transform="translate(-0.13 -0.13)"/><path class="cls-10" d="M272.64,168.83c.6.68,2.05,1.85,2.3,2.71.6,2.11-.57,2.86-2.16,3.71a29.79,29.79,0,0,1-5,2c-1.66.56-3.31,1.14-4.94,1.76-.34.13-.68.25-1,.39a119.27,119.27,0,0,0-16.3,7.7q-.35-6.22-.91-12.44A101.4,101.4,0,0,0,258,171.83l1.05-.31A87.09,87.09,0,0,0,271,167C271.59,167.62,272.12,168.22,272.64,168.83Z" transform="translate(-0.13 -0.13)"/><path class="cls-10" d="M165.4,82.32a10,10,0,0,1,.67-.91,2.48,2.48,0,0,1-1-.68,8.26,8.26,0,0,0-.64.91,9.19,9.19,0,0,0-1.17,2.86c-.85,3.7,1.63,6.37,2.22,9.82.87,5.05-4.34,7.19-7.69,9.16-2.4,1.42-4.75,3.23-5.38,6.21-.71,3.32.9,6.53,1.82,9.61a26.41,26.41,0,0,1,.35,13.69l-.12.5c-.09.36-.19.71-.3,1.06h0a6.88,6.88,0,0,0,1.24-.86l.13-.11c.13-.49.24-1,.34-1.48a27.08,27.08,0,0,0,.5-5.91,35,35,0,0,0-2.08-10.06c-.86-2.67-1.66-5.6-.07-8.18a12.1,12.1,0,0,1,4.65-3.81c4.11-2.3,9-5.16,7.42-10.92C165.29,89.27,163.06,86,165.4,82.32Z" transform="translate(-0.13 -0.13)"/><path class="cls-10" d="M186.86,168.41c-.61.18-1.21.34-1.83.47-.19-.32-.09-.78.23-.86a.43.43,0,0,1,.25,0Z" transform="translate(-0.13 -0.13)"/><path class="cls-10" d="M243.44,173.7l0,.05v-.05A0,0,0,0,0,243.44,173.7Z" transform="translate(-0.13 -0.13)"/><path class="cls-10" d="M244.55,173.55a2.74,2.74,0,0,0-.05.28,2.48,2.48,0,0,0,0-.27Z" transform="translate(-0.13 -0.13)"/><path class="cls-10" d="M311,216c-.2,0-.38.08-.58.12l.08-.05A.43.43,0,0,1,311,216Z" transform="translate(-0.13 -0.13)"/><path class="cls-10" d="M234.74,241.92c-.36,2.13-.74,4.26-1.15,6.37-1.6,8.31-4.59,17-12,21.44-.17.1-.36.2-.53.31l-1,.52c-.26-.3-.53-.59-.8-.88a7.91,7.91,0,0,0,1-.52h0a18.5,18.5,0,0,0,3.7-2.58c6.62-6,8.26-15.89,9.54-24.56Z" transform="translate(-0.13 -0.13)"/><path class="cls-10" d="M221.05,192.19a29.33,29.33,0,0,1-6,7,14.88,14.88,0,0,1-1.16.94c-.62,0-1.24,0-1.86,0a30.17,30.17,0,0,0,8.18-8.74C220.51,191.64,220.78,191.93,221.05,192.19Z" transform="translate(-0.13 -0.13)"/><path class="cls-10" d="M233.75,198l-1.25.26a26.28,26.28,0,0,0,2-11.4h0c.34-.41.67-.82,1-1.23A26.71,26.71,0,0,1,233.75,198Z" transform="translate(-0.13 -0.13)"/><path class="cls-10" d="M239.13,132.06a.43.43,0,0,0,.05.21,5.92,5.92,0,0,1,.55,1.87,6.48,6.48,0,0,1,.07.77c0,.47.55.53.83.26a.44.44,0,0,0,.13-.21.48.48,0,0,0,0-.18,5.79,5.79,0,0,0-.06-.83,7.45,7.45,0,0,0-.29-1.24s0,0,0,0q-.13-.39-.3-.75" transform="translate(-0.13 -0.13)"/><path class="cls-10" d="M240.12,131.93s0,0,0,0a.42.42,0,0,0-.17-.2.52.52,0,0,0-.81.35" transform="translate(-0.13 -0.13)"/><path class="cls-10" d="M241.43,135.09a.48.48,0,0,0,0-.18,7.72,7.72,0,0,0-.09-1.18,5,5,0,0,0-.18-.74c-.13-.45-.32-1-.78-1" transform="translate(-0.13 -0.13)"/><path class="cls-10" d="M240.4,131.94a.58.58,0,0,0-.23,0h0a.36.36,0,0,0-.18.07.53.53,0,0,0,.15.89,2.5,2.5,0,0,1,.27.87l0,.18,0,.17h0a4.89,4.89,0,0,1,.05.66.56.56,0,0,0,.16.39.52.52,0,0,0,.19.11.53.53,0,0,0,.43,0,.39.39,0,0,0,.18-.18" transform="translate(-0.13 -0.13)"/><path class="cls-10" d="M240.6,131.28l-.24-.18a.48.48,0,0,0-.6-.28,3.23,3.23,0,0,0-.54-.11h0c-.35,0-.71.33-.53.69a3,3,0,0,0,.46.65h0l.32.34a2,2,0,0,1,.39.58,6.22,6.22,0,0,0,.29.71.48.48,0,0,0,.26.25.45.45,0,0,0,.34,0,.37.37,0,0,0,.16-.09.28.28,0,0,0,.1-.09l.17,0a.37.37,0,0,0,.21-.06.37.37,0,0,0,.18-.35,2.61,2.61,0,0,0-.89-2.06A.07.07,0,0,0,240.6,131.28Z" transform="translate(-0.13 -0.13)"/><path class="cls-10" d="M242.3,134.4c-.33-1.6-.89-3.65-2.56-4a.4.4,0,0,0-.52.34.52.52,0,0,0,.39.65,1,1,0,0,1,.39.18,1.52,1.52,0,0,1,.4.4h0a5.24,5.24,0,0,1,.75,1.84c.12.49.2,1,.27,1.3h0a.5.5,0,0,0,0,.12c.12.63,1.11.51,1-.13,0-.2-.09-.42-.13-.65C242.31,134.43,242.3,134.42,242.3,134.4Z" transform="translate(-0.13 -0.13)"/><path class="cls-11" d="M239.16,148.06c3.36,2.14,3.46,6.18,1.07,9.09S233,163.88,228.8,162c-3.6-1.59-1.6-7.35-.24-10.47a.39.39,0,0,1-.18-.58C230.45,147.41,235.54,145.76,239.16,148.06Zm-1.33,10.1c2.74-2.47,4.73-6.6.86-9.17-2.78-1.84-6.81-.91-8.85,1.61a.46.46,0,0,1,0,.46,21.47,21.47,0,0,0-1.55,4.42,10.58,10.58,0,0,0-.35,2.16,5.16,5.16,0,0,0,2.14,3.76C232.58,162.57,236.14,159.68,237.83,158.16Z" transform="translate(-0.13 -0.13)"/><path class="cls-11" d="M238.69,149c3.87,2.57,1.88,6.7-.86,9.17-1.69,1.52-5.25,4.41-7.71,3.24a5.16,5.16,0,0,1-2.14-3.76,10.58,10.58,0,0,1,.35-2.16,21.47,21.47,0,0,1,1.55-4.42.46.46,0,0,0,0-.46C231.88,148.08,235.91,147.15,238.69,149Z" transform="translate(-0.13 -0.13)"/><path class="cls-12" d="M208.34,197.38v2c0,.64-1,.77-1,.13v-2C207.35,196.87,208.34,196.74,208.34,197.38Z" transform="translate(-0.13 -0.13)"/><path class="cls-1" d="M237.49,147a15,15,0,0,1-1.41,4.33,10.18,10.18,0,0,1-2.26,3.6c-.5.4.1,1.2.6.8a9.91,9.91,0,0,0,2.31-3.48,16.61,16.61,0,0,0,1.75-5.12A.5.5,0,0,0,237.49,147Z" transform="translate(-0.13 -0.13)"/><path class="cls-12" d="M210.7,101.6c-1.79-7.14-8.61-12.55-16.07-12.13-7.64.42-13.91,7.06-14.53,14.54-.06.64.93.77,1,.13a15.07,15.07,0,0,1,13-13.63c7.1-.76,13.93,4.4,15.64,11.21C209.86,102.34,210.86,102.22,210.7,101.6Z" transform="translate(-0.13 -0.13)"/><path class="cls-12" d="M267.84,80.9c-8.33-.06-15.27,7.83-12.53,16.1.21.61,1.13.23.93-.38-2.75-8.29,5-15.55,13.09-14.63,8.5,1,13.72,8.56,14.83,16.52a.5.5,0,0,0,1-.12C283.9,89.45,277.54,81,267.84,80.9Z" transform="translate(-0.13 -0.13)"/><path class="cls-5" d="M279.62,127.48c-.5-3.9-4.39-7.17-8.4-6.48a102.61,102.61,0,0,1-15.55,1.51c-4,.09-7,4.7-6.47,8.41.56,4.37,4.33,6.56,8.4,6.47a103.91,103.91,0,0,0,15.55-1.51A7.65,7.65,0,0,0,279.62,127.48Z" transform="translate(-0.13 -0.13)"/><path class="cls-5" d="M277.59,118.8a7.65,7.65,0,0,0-8.4-6.47,38.91,38.91,0,0,0-15.5,5.4c-3.4,2-3.89,7.61-1.52,10.5,2.81,3.45,6.87,3.64,10.5,1.52a22.61,22.61,0,0,1,8.45-2.54C275,126.77,278.28,122.75,277.59,118.8Z" transform="translate(-0.13 -0.13)"/><path class="cls-5" d="M281.64,119.38c-4.66-3.78-8.79-7.58-15.12-7.73-5.78-.14-12.06,1.2-16.73,4.73-7.71,5.83,1.28,17.84,9,12a12,12,0,0,1,7.19-1.86,5.45,5.45,0,0,1,1.95.84c.49,3.71,3.32,6.94,8.06,6a14.62,14.62,0,0,0,3.83-1.16C284.8,129.73,286.25,123.13,281.64,119.38Z" transform="translate(-0.13 -0.13)"/><path class="cls-5" d="M267.13,124.27c-4.57,1.66-8.85.85-13-1.47-3.54-2-8.37.55-9.83,4-1.72,4.07.44,7.84,4,9.83a29.47,29.47,0,0,0,24.49,1.55C281.86,134.86,276.19,121,267.13,124.27Z" transform="translate(-0.13 -0.13)"/><path class="cls-5" d="M269.94,133.47c-.57-4.38-4.33-6.55-8.4-6.47a30.12,30.12,0,0,1-4.25-.34c-.33,0-.66-.1-1-.16a7.47,7.47,0,0,0-14,2.63c-1.78,11.78,13,12.89,21.14,12.74C267.52,141.8,270.43,137.17,269.94,133.47Z" transform="translate(-0.13 -0.13)"/><path class="cls-5" d="M249.86,129.33a72.45,72.45,0,0,0-9.16-1.21,5.14,5.14,0,0,0-5.62,4.31c-.33,2.54,1.6,5.43,4.31,5.61a70.67,70.67,0,0,1,9.16,1.21c2.65.53,5.28-1.76,5.62-4.31A5.1,5.1,0,0,0,249.86,129.33Z" transform="translate(-0.13 -0.13)"/><path class="cls-5" d="M227.49,132.49A25.91,25.91,0,0,1,217,134.8c-2.7,0-5.23,1.4-5.61,4.31-.33,2.43,1.58,5.58,4.3,5.61a37.67,37.67,0,0,0,15.61-3C237.16,139.2,233.41,129.92,227.49,132.49Z" transform="translate(-0.13 -0.13)"/><path class="cls-5" d="M201.36,114.26a25.17,25.17,0,0,0-23,9.3c-6,7.37-7.44,17.2-6.54,26.38.63,6.41,10.55,5.13,9.92-1.28-1.11-11.31,4.36-26.53,18.35-24.48C206.42,125.11,207.74,115.2,201.36,114.26Z" transform="translate(-0.13 -0.13)"/><path class="cls-5" d="M182.19,152.65c-1.39.09-3.65.51-4.61-.71-.63-.8.15-4.3.31-5.13.71-3.7,2.56-7.37,6.63-8.05,6.33-1.07,5.09-11-1.29-9.92-9.5,1.6-14.82,9.89-15.54,19.09-.33,4.26-.11,8.8,3.41,11.75s7.91,3.17,12.37,2.89C189.9,162.17,188.6,152.25,182.19,152.65Z" transform="translate(-0.13 -0.13)"/><path class="cls-5" d="M223.37,121.2a5.61,5.61,0,0,0-3.35-2,15.68,15.68,0,0,0-4.88-.21,5,5,0,1,0,1.29,9.92c.18,0,.37,0,.56,0a12.67,12.67,0,0,1,1.72.23,5,5,0,0,0,3.65-1,5.1,5.1,0,0,0,2-3.35A5,5,0,0,0,223.37,121.2Z" transform="translate(-0.13 -0.13)"/><path class="cls-5" d="M251.87,131.07c-6.71,0-14.34-1-20.85.6-3.27.84-6.11,2.08-9.54,2.29a35,35,0,0,1-4.58-.06c-1.8-.12-4.57-1.33-4-.07-3.07-2.6-8.29-2.67-10.08,2.17l-.16.44c-.75,2-.77,4.73.78,6.43,4.85,5.31,15.78,4.71,22.35,3.69,3.81-.6,7.31-2.49,11.14-2.62,4.4-.14,8.83,0,13.23,0,3.54,0,6.75-1.8,7.29-5.6C257.91,135.23,255.37,131.08,251.87,131.07Z" transform="translate(-0.13 -0.13)"/><path class="cls-5" d="M208,115.36a7,7,0,0,0-3.76-3.82,7.25,7.25,0,0,0-5.36,0l-3.23,1.37a7.27,7.27,0,0,0-3.82,3.76,7.2,7.2,0,0,0,0,5.36,7,7,0,0,0,3.77,3.81,7.12,7.12,0,0,0,5.35,0l3.24-1.36a7.33,7.33,0,0,0,3.81-3.76A7.1,7.1,0,0,0,208,115.36Z" transform="translate(-0.13 -0.13)"/><path class="cls-5" d="M219.67,120.06c-.88-1.72-1-4-2.5-5.85a14.68,14.68,0,0,0-7.3-4.43,17.23,17.23,0,0,0-7.21-.62c-2.15.29-3.94,1.33-6,1.82-3.67.89-6.57,3.81-6,7.85.45,3.44,4.15,6.93,7.84,6,2-.48,4.51-1.94,6.58-1.88l.84.22a6.34,6.34,0,0,0,.79,2.11c1.73,3.36,5.4,5.36,9.12,3.85C219.08,127.85,221.4,123.43,219.67,120.06Z" transform="translate(-0.13 -0.13)"/><path class="cls-5" d="M220.85,119.84c-.49-4.15-4.08-6-7.84-6s-6.45,4.43-6,7.84c.49,4.15,4.08,6,7.84,6S221.25,123.24,220.85,119.84Z" transform="translate(-0.13 -0.13)"/><path class="cls-5" d="M289.7,130.43c-2.11-7.25-4.78-17.68-11.55-22a24.65,24.65,0,0,0-23.57-1.37c-8.17,3.76-2.94,16.75,5.27,13,3.24-1.49,8.2-2.29,11,.41,1.41,1.37,2.24,4.83,3,6.65.17.43.33.86.49,1.3a7.83,7.83,0,0,0,.15.91,26.26,26.26,0,0,0,2.21,6.23.84.84,0,0,1,.05.17l0,0c.27.52.54,1,.85,1.58,1.73,3,6.3,3.39,9,1.85C289.85,137.28,290.69,133.83,289.7,130.43Z" transform="translate(-0.13 -0.13)"/><path class="cls-5" d="M294.93,130.49c-.41-6.59-2.76-14.33-7.31-19.24-2.6-2.79-6.52-3.81-9.8-1.41-2.81,2-4,7-1.42,9.79,3.11,3.35,5.27,9.43,4.54,14-.36,2.29-2,3.47-3.36,5.22a18.47,18.47,0,0,0-3.51,7.35c-1,3.68,2.63,7.37,6,7.85,4.13.59,6.89-2.39,7.85-6,.17-.62,2.29-2.31,2.81-3a20.36,20.36,0,0,0,2.53-4A22.4,22.4,0,0,0,294.93,130.49Z" transform="translate(-0.13 -0.13)"/><path class="cls-5" d="M288.17,137.74c-3.83-1.62-7.28.43-9.17,3.73a11.91,11.91,0,0,1-2.49,3.46c-.82.59-2.2.41-3.32.52a.65.65,0,0,1-.23,0c0-.3-.14-.7-.14-.9,0-1.92-.26-3.89-.38-5.81-.58-9-14.47-7.17-13.89,1.8.26,4,.18,8.17,2,11.83,2.1,4.21,6.55,6.6,11.14,7,4,.34,8.47-.07,11.89-2.22,3.8-2.38,6.14-6.4,8.31-10.2C293.78,143.63,291.36,139.09,288.17,137.74Z" transform="translate(-0.13 -0.13)"/><path class="cls-5" d="M228.17,141.15c-.91-7-9.53-7.42-12.75-3.06q-1.29.36-2.61.6a5.15,5.15,0,0,1-3.21-.12c-2.76-1.22-4.79-4.89-7.46-6.55-3.56-2.22-7.76-2.87-11.8-3.79-4.31-1-8.79-2.41-13.17-3-8.21-1-14.71,4.28-15.93,12.4-1.06,7,.54,15.65,9.51,14.86,6.41-.57,7.32-7.82,4-11.63a3.61,3.61,0,0,1,.33-1.41c.59-1.34-.31-.51,1.13-.15,3.43.87,6.92,1.56,10.37,2.35,2.81.64,6.18.88,8.58,2.52,2.15,1.46,3.64,3.78,5.72,5.36C208.17,155.07,229.85,153.92,228.17,141.15Z" transform="translate(-0.13 -0.13)"/><path class="cls-5" d="M258.29,131.54c-11.26,1.83-22.56-1.67-33.89-.16-8.93,1.19-7.16,15.08,1.8,13.88,11.29-1.5,22.56,2,33.89.17C269,144,267.22,130.09,258.29,131.54Z" transform="translate(-0.13 -0.13)"/><path class="cls-1" d="M221.52,117.55c-6.6-4.16-14.65-7.34-22.56-7.43-4.1,0-7.67,1.54-11.27,3.34-3.39,1.7-6.85,3.44-9.67,6s-4.73,6-6.48,9.39a40.58,40.58,0,0,0-3.88,10.59,38,38,0,0,0,2.79,23.48c.27.59,1.2.21.93-.37a37.15,37.15,0,0,1-3-21.72A38.37,38.37,0,0,1,172.06,130c1.74-3.46,3.66-7.1,6.56-9.75a38.62,38.62,0,0,1,8.72-5.52c3.42-1.73,6.89-3.5,10.8-3.63,7.88-.27,16.21,3.08,22.76,7.22C221.44,118.68,222.07,117.89,221.52,117.55Z" transform="translate(-0.13 -0.13)"/><path d="M199.41,137c-.26-.6-1.19-.22-.93.37,1.85,4.32,1.88,8.9,1.81,13.52,0,.64,1,.78,1,.13C201.35,146.24,201.32,141.46,199.41,137Z" transform="translate(-0.13 -0.13)"/><path d="M233.11,144.7c-5.27,1.36-10.59,2.64-16.07,2.2s-11-2.33-16.31-4.18c-.6-.21-1,.71-.39.92,5.38,1.87,10.86,3.79,16.57,4.25s11-.82,16.33-2.2C233.85,145.53,233.73,144.54,233.11,144.7Z" transform="translate(-0.13 -0.13)"/><path d="M247.25,145.45a12.32,12.32,0,0,1-4.85-1.11,10.74,10.74,0,0,0-3.1-1.42c-2.17-.25-4.86,1.57-6.8,2.39a.5.5,0,0,0,.38.93c2.46-1,5.48-3,8.07-1.55a13.45,13.45,0,0,0,6.17,1.75C247.75,146.46,247.89,145.47,247.25,145.45Z" transform="translate(-0.13 -0.13)"/><path d="M243,145.29a7,7,0,0,0-3-1.1,6.27,6.27,0,0,0-3.63.31.46.46,0,0,0-.18.11c-.48,0-1,.11-1.43.18a.5.5,0,0,0,.13,1,12,12,0,0,1,4.54,0,9.52,9.52,0,0,0,3.35.4A.51.51,0,0,0,243,145.29Z" transform="translate(-0.13 -0.13)"/><path d="M289.15,121.11c-1.89-7.06-7.78-12-14.76-13.68-9.38-2.33-18.89,1.61-26.42,7a.5.5,0,0,0,.6.8c7.66-5.54,17.49-9.5,26.95-6.5a19.94,19.94,0,0,1,9.68,6.48c3.16,4,3.77,9.21,4.27,14.15,1,9.53-.14,20.32-8.9,26-3.88,2.52-8.5,3.73-13,4.49-1.37.23-3,.61-4.35,0-1.56-.64-2.55-2.4-3.24-3.82a16.8,16.8,0,0,1-1.61-7.83.43.43,0,0,0,0-.11c.05-.46.09-.93.17-1.39s.4-.73.51-1.14c.16-.63-.83-.75-1-.14a2.43,2.43,0,0,1-.32.51,1.82,1.82,0,0,0-.19.64c-.08.54-.13,1.08-.2,1.62a.49.49,0,0,0,.05.27,16.72,16.72,0,0,0,3.2,10.47c2.45,3.09,6,2.14,9.45,1.42,7.63-1.6,14.79-5.07,18.26-12.43C292,140,291.39,129.45,289.15,121.11Z" transform="translate(-0.13 -0.13)"/><path d="M266.64,135.56c-1.93,9.63-12.61,11.85-20.95,11-.64-.06-.77.93-.13,1,8.93.9,20-1.68,22.07-11.87C267.76,135.06,266.77,134.93,266.64,135.56Z" transform="translate(-0.13 -0.13)"/><path class="cls-5" d="M244.13,133.83c-1.21-3-5.34-5.23-8.46-3.58a20,20,0,0,1-11.44,2.54c-8.3-.76-10.06,12.13-1.69,12.89a32.13,32.13,0,0,0,18-3.38C243.66,140.66,245.55,137.31,244.13,133.83Z" transform="translate(-0.13 -0.13)"/><path class="cls-5" d="M250.33,133.69l-.61-.07a6.26,6.26,0,0,0-1.56,0c-2.22-2.32-6.09-3.08-8.74-.92s-3.61,6.29-1.31,9.1a12.39,12.39,0,0,0,2.53,2.48,15.49,15.49,0,0,0,2.15,1.26,3.94,3.94,0,0,0,1.12.42l-.74-.51c.61.38,1.23.74,1.86,1.09a9,9,0,0,0,2.5.57,9.23,9.23,0,0,0,5.74-1.47,5.05,5.05,0,0,0,2-2.56,5.57,5.57,0,0,0,.63-2.1A6.62,6.62,0,0,0,250.33,133.69Z" transform="translate(-0.13 -0.13)"/><path class="cls-5" d="M257.53,135.49a6.53,6.53,0,0,0-4.36-2.56,6.74,6.74,0,0,0-4.54,1.1l-.57.11a6.8,6.8,0,0,0-4.26,2.42,6.65,6.65,0,0,0-1.35,4.87,6.55,6.55,0,0,0,2.42,4.26,6.64,6.64,0,0,0,4.86,1.35,13.7,13.7,0,0,0,6.48-2.46,6.78,6.78,0,0,0,2.56-4.35A6.68,6.68,0,0,0,257.53,135.49Z" transform="translate(-0.13 -0.13)"/><path class="cls-1" d="M238.47,139.87c-.31,1.61-.07,2.82-1.6,3.86a13.24,13.24,0,0,1-4.65,1.63c-2.57.56-5.19.9-7.79,1.34a.5.5,0,0,0,0,1l3.47.62c.64.11.77-.88.13-1l-.47-.09a39.84,39.84,0,0,0,7.87-1.72,7.7,7.7,0,0,0,3.23-1.85c.87-1,.56-2.4.8-3.66C239.59,139.37,238.6,139.24,238.47,139.87Z" transform="translate(-0.13 -0.13)"/><path class="cls-1" d="M238.58,139.74a11.8,11.8,0,0,1-3.28,3.86.33.33,0,0,0-.17,0,15.21,15.21,0,0,0-3.5,1.5l-.51.2c-.61.23-.23,1.13.38.93,1.34-.45,3.53,0,4.08-1.6a12.59,12.59,0,0,0,3.92-4.48C239.83,139.58,238.9,139.19,238.58,139.74Z" transform="translate(-0.13 -0.13)"/><path class="cls-1" d="M237.8,140.78a5.56,5.56,0,0,1-2,3c-.55.34.06,1.14.6.8a6.46,6.46,0,0,0,2.28-3.4C239,140.57,238,140.18,237.8,140.78Z" transform="translate(-0.13 -0.13)"/><path class="cls-1" d="M243,146.18c-.8-.65-1.63-1.28-2.41-2a3.43,3.43,0,0,1-1.13-3.32c.06-.64-.93-.78-1-.13a4.47,4.47,0,0,0,.69,3.44,20.69,20.69,0,0,0,3.22,2.75C242.84,147.37,243.46,146.58,243,146.18Z" transform="translate(-0.13 -0.13)"/><path class="cls-1" d="M244.7,146.82c-2.43-1.62-5.27-3.61-5.1-6.89,0-.64-.95-.78-1-.13-.2,3.68,2.69,5.95,5.47,7.8C244.61,148,245.23,147.18,244.7,146.82Z" transform="translate(-0.13 -0.13)"/><path class="cls-1" d="M238.1,140.12a11,11,0,0,1-2.74,3.25,16.4,16.4,0,0,1-4.08,1.87c-.6.21-.23,1.14.38.93a17.36,17.36,0,0,0,4.3-2,11.47,11.47,0,0,0,2.92-3.43C239.22,140.2,238.44,139.57,238.1,140.12Z" transform="translate(-0.13 -0.13)"/><path class="cls-1" d="M238.46,139.62c-2.06,3.94-6.26,5.5-10.23,6.89-.61.21-.23,1.13.38.92,4.26-1.49,8.57-3.21,10.77-7.42C239.68,139.44,238.76,139.05,238.46,139.62Z" transform="translate(-0.13 -0.13)"/></g></g></svg>