<svg xmlns="http://www.w3.org/2000/svg" viewBox="0 0 285.44 457.77"><defs><style>.cls-1{fill:#333;}.cls-2{fill:#faf1e4;}.cls-3{fill:#e2eef2;}.cls-4{fill:#b48f5b;}.cls-5{fill:#ffaea8;}.cls-6{fill:#d74957;}.cls-7{fill:none;stroke:#000;stroke-miterlimit:10;stroke-width:0.5px;}</style></defs><title>Asset 8</title><g id="Layer_2" data-name="Layer 2"><g id="Layer_10" data-name="Layer 10"><path class="cls-1" d="M260.77,338.56c.27,6.92-1,13.94-6.74,18.43a25.14,25.14,0,0,1-9.18,4.27,39.86,39.86,0,0,1-5.08.95,5.7,5.7,0,0,1,.2.63c1.58,6.57-7.3,8.63-12,8.57a41.64,41.64,0,0,1-12.69-2.64c-3.91-1.33-7.93-2.7-11.37-5-5.53-3.74-8.59-10-9.44-16.54-1-7.78,1.2-15.47,4.53-22.45a123.3,123.3,0,0,1,6.16-11.07c1.93-3.16,4-6.22,7.15-8.23a.54.54,0,0,1,.81.54.47.47,0,0,1-.21.26c-3.5,2.21-5.58,5.73-7.66,9.19A102.85,102.85,0,0,0,199,327.15c-3.31,7.55-5,16-2.68,24.06,2.1,7.2,7,11.87,13.9,14.64,7.07,2.86,16.1,6.36,23.74,3.76,3.23-1.1,6.08-4.24,4.69-7.26a4.63,4.63,0,0,1-3.05-.33c-1.3-.82-1.43-2.9.31-3a3.9,3.9,0,0,1,3.36,2.26l.24,0c.73-.09,1.45-.19,2.17-.32a33.39,33.39,0,0,0,5.21-1.31c7.1-2.45,11.82-7.67,12.69-15.25.8-7-.21-15-2-21.84-1.87-7.16-5.8-14-12.68-17.34a18.08,18.08,0,0,0-3.5-1.27,4.18,4.18,0,0,1-1.15,1.94c-2.08,2-6.18.25-5.41-2.77a.52.52,0,0,1,.43-.43,16.56,16.56,0,0,1,5.17.09v-.09a5,5,0,0,0-.26-1.76,6.13,6.13,0,0,0-1.76-2.45,9.22,9.22,0,0,0-4.63-2c-4.06-.61-8.11,1.21-11.7,2.89-3.16,1.47-6.69,3.44-7.33,7.18-.11.63-1.11.5-1-.13a2,2,0,0,1,.05-.24c.9-4.43,5.25-6.57,9-8.26,4.66-2.07,10.25-3.93,15-1.05,2,1.18,3.76,3.75,3.68,6.15a21.89,21.89,0,0,1,13.11,9.89C259.37,320.35,260.44,329.89,260.77,338.56Zm-20.41-34.89-.59-.11c-.8-.11-2.49-.47-3.2-.07a1.25,1.25,0,0,0-.1,1.66c.78,1,1.77.33,2.52-.12S240.2,304.23,240.36,303.67Z" transform="translate(0 0)"/><path class="cls-2" d="M257.63,322.51c1.78,6.83,2.79,14.8,2,21.84-.87,7.58-5.59,12.8-12.69,15.25a33.39,33.39,0,0,1-5.21,1.31c-.72.13-1.44.23-2.17.32l-.24,0A3.9,3.9,0,0,0,236,359c-1.74.11-1.61,2.19-.31,3a4.63,4.63,0,0,0,3.05.33c1.39,3-1.46,6.16-4.69,7.26-7.64,2.6-16.67-.9-23.74-3.76-6.86-2.77-11.8-7.44-13.9-14.64-2.36-8.08-.63-16.51,2.68-24.06a102.85,102.85,0,0,1,6.25-11.72c2.08-3.46,4.16-7,7.66-9.19a.47.47,0,0,0,.21-.26l.7.13a2,2,0,0,0-.05.24c-.11.63.89.76,1,.13.64-3.74,4.17-5.71,7.33-7.18,3.59-1.68,7.64-3.5,11.7-2.89a9.22,9.22,0,0,1,4.63,2,6.13,6.13,0,0,1,1.76,2.45,5,5,0,0,1,.26,1.76v.09a16.56,16.56,0,0,0-5.17-.09.52.52,0,0,0-.43.43c-.77,3,3.33,4.78,5.41,2.77a4.18,4.18,0,0,0,1.15-1.94,18.08,18.08,0,0,1,3.5,1.27C251.83,308.53,255.76,315.35,257.63,322.51Z" transform="translate(0 0)"/><path d="M284.88,111.4c.45.13.37.8,0,1-7,3-10.3,10.36-16.18,14.77-7,5.27-15,2-22.95,3-5.82.73-9.1,4.95-12.46,9.16,0,0,0,0,0,0a39.48,39.48,0,0,1-5,5.51,30.35,30.35,0,0,1-13.68,6.64c-.51.11-1,.21-1.55.28a29.2,29.2,0,0,1-4.48.35c-7.18,0-16.32-2.57-22.19,2.9-1.76,1.65-3.48,4.35-6.28,4-2.12-.3-3.39-2.43-3.72-4.38-.51-3,1.22-5.5,2.69-7.91a15.74,15.74,0,0,0,1.63-13.76c-1.33-4.23-3.72-8.07-6.13-11.75-2-3.06-3.92-6-4-9.78-.12-4.3,1.64-8.57.82-12.86s-3.64-7.58-6.06-11c-2.2-3.11-4.27-7.08-4.26-10.92.3,0,.6-.08.9-.14-.3,6.23,6.43,12.58,9,17.66,1.72,3.42,1.86,6.86,1.34,10.6-.34,2.44-.91,5-.65,7.45a16.22,16.22,0,0,0,3.06,7.25c3.72,5.69,8,12.07,8,19.14a16.33,16.33,0,0,1-2.83,8.74c-1.17,1.93-2.74,4.09-2.56,6.48s1.88,4.91,4.5,3.9c1.6-.62,2.64-2.34,3.85-3.47a12.48,12.48,0,0,1,3.1-2.13,20,20,0,0,1,8.81-1.54c5.63,0,11,.77,16.41-.1.5-.08,1-.18,1.51-.29a24.14,24.14,0,0,0,3.57-1.06,29.56,29.56,0,0,0,10.29-6.67c1.94-2,3.51-4.25,5.25-6.39.42-.54.87-1.07,1.33-1.58,4.62-5.13,10.19-5.79,16.77-5.35,3.93.26,8.06.69,11.81-.78a21.13,21.13,0,0,0,7.63-5.86c3.46-3.8,6.56-8.1,11.18-10.5-4.83-1.49-9.69-3.15-13.9-6-4.85-3.26-7-7.59-9.2-12.83-4.2-10-14.52-13.36-21.81-20.49-7-6.82-8.09-18.87-18-22.59-5.19-2-10.93-1.75-16.15-3.65-4.83-1.75-9-4.85-12.9-8.17-5.16-4.42-10.33-9.82-16.28-13.45,0-.23,0-.45,0-.67s0-.35,0-.52c6.1,3.58,11.37,9,16.67,13.56,4.51,3.9,9.44,7.46,15.28,9,5.19,1.37,10.84,1.28,15.71,3.76,8.9,4.55,10.08,16.2,17.15,22.66s16.6,9.93,20.8,18.94c1.32,2.84,2.18,5.87,4,8.46a20.26,20.26,0,0,0,5.73,5.38C274.75,108.28,279.88,109.88,284.88,111.4Z" transform="translate(0 0)"/><path class="cls-2" d="M283.29,112c-4.62,2.4-7.72,6.7-11.18,10.5a21.13,21.13,0,0,1-7.63,5.86c-3.75,1.47-7.88,1-11.81.78-6.58-.44-12.15.22-16.77,5.35-.46.51-.91,1-1.33,1.58-1.74,2.14-3.31,4.42-5.25,6.39A29.56,29.56,0,0,1,219,149.12a24.14,24.14,0,0,1-3.57,1.06c-.51.11-1,.21-1.51.29-5.4.87-10.78.14-16.41.1a20,20,0,0,0-8.81,1.54,12.48,12.48,0,0,0-3.1,2.13c-1.21,1.13-2.25,2.85-3.85,3.47-2.62,1-4.32-1.62-4.5-3.9s1.39-4.55,2.56-6.48a16.33,16.33,0,0,0,2.83-8.74c0-7.07-4.31-13.45-8-19.14a16.22,16.22,0,0,1-3.06-7.25c-.26-2.48.31-5,.65-7.45.52-3.74.38-7.18-1.34-10.6-2.56-5.08-9.29-11.43-9-17.66a26.29,26.29,0,0,0,17.18-11.24,28.63,28.63,0,0,0,4.16-10.36c.07-.32.12-.65.17-1,.11-.66.19-1.33.26-2a32.13,32.13,0,0,0-1-11.59c-1.15-4.19-3.31-8.85-7.43-10.86a8.48,8.48,0,0,0-.95-.37,10.65,10.65,0,0,0,.81-4.28c5.95,3.63,11.12,9,16.28,13.45,3.86,3.32,8.07,6.42,12.9,8.17,5.22,1.9,11,1.7,16.15,3.65,9.88,3.72,11,15.77,18,22.59,7.29,7.13,17.61,10.51,21.81,20.49,2.21,5.24,4.35,9.57,9.2,12.83C273.6,108.84,278.46,110.5,283.29,112Z" transform="translate(0 0)"/><path d="M273.26,395.18a.51.51,0,0,1-.1.7c-9.76,7.58-22.07,10.13-34,12.18A401.14,401.14,0,0,1,196.84,413q-8.79.57-17.6.84l-1.09,0-.8,0-1,0c-18.46.47-36.94,0-55.38-.84h-.3l-1-.06c.11-.31.22-.62.32-.93a468.35,468.35,0,0,0,13.64-45.8A217.27,217.27,0,0,0,139.33,327c0-.3,0-.59,0-.88,0-.58,0-1.16.07-1.74a145,145,0,0,0-.58-17.84c0-.36-.07-.73-.11-1.09l-.12-1.11c.35,0,.71,0,1.06-.08l.15,1.44c0,.37.07.73.1,1.09a153.11,153.11,0,0,1,.42,19.28c0,.29,0,.59,0,.88,0,1.37-.13,2.74-.22,4.11C138.2,358.86,130,385.82,121,412.09l10.81.42c14.86.55,29.74.76,44.61.37l1,0c.3,0,.61,0,.91,0l1.08,0q13.26-.41,26.48-1.51c12.07-1,24.11-2.56,36-4.72,10.65-1.93,21.47-4.55,30.24-11.2a265.89,265.89,0,0,1-23.56-39.22c-1.46-3-2.86-5.94-4.23-8.94s-2.67-6-3.94-9-2.49-6.09-3.68-9.15-2.32-6.15-3.43-9.24-2.17-6.2-3.2-9.32-2-6.26-3-9.4-1.89-6.3-2.79-9.46-1.77-6.34-2.61-9.52-1.66-6.37-2.45-9.57-1.56-6.4-2.31-9.61-1.47-6.43-2.17-9.65-1.4-6.44-2.07-9.67-1.33-6.45-2-9.68l-1-4.85a42.87,42.87,0,0,0-1-4.77c-.21-.67-.41-1.35-.6-2-.79-2.68-1.52-5.37-2.25-8.07q-1.38-5.13-2.77-10.25l-2.32-8.56c-1.22-4.5-2.44-8.85-6.12-12-3.07-2.64-6.92-4.16-10.66-5.56a.49.49,0,0,1,0-.91h0l.12.06,0,0a2.91,2.91,0,0,1,.3.17,1.08,1.08,0,0,1,.24.18,12.05,12.05,0,0,1,1.33.74,5.91,5.91,0,0,1,.81.65,4.18,4.18,0,0,1,.89-.1,2.85,2.85,0,0,1,.42,0,6,6,0,0,0-.43-.45,28.06,28.06,0,0,1,7.53,4.38c3.05,2.61,4.62,6,5.71,9.81q1.46,5.07,2.83,10.16c.93,3.39,1.83,6.79,2.73,10.19l1.14,4.29.57,2.14a14.52,14.52,0,0,0,.58,2.15c.2.06.43,1.2.51,1.46s.26.8.38,1.19a10.62,10.62,0,0,1,.24,1.12c.16.87.33,1.74.5,2.6l1,5.19q.87,4.37,1.78,8.71C224.6,295.57,240.3,350.09,273.26,395.18Z" transform="translate(0 0)"/><path class="cls-3" d="M248.6,356.15a265.89,265.89,0,0,0,23.56,39.22c-8.77,6.65-19.59,9.27-30.24,11.2-11.92,2.16-24,3.69-36,4.72q-13.21,1.13-26.48,1.51l-1.08,0c-.3,0-.61,0-.91,0l-1,0c-14.87.39-29.75.18-44.61-.37L121,412.09c9-26.27,17.21-53.23,19.11-81.08.09-1.37.17-2.74.22-4.11,0-.29,0-.59,0-.88a153.11,153.11,0,0,0-.42-19.28c0-.36-.06-.72-.1-1.09l-.15-1.44a25.6,25.6,0,0,0,10.53-3.08c9.91-5.58,14.8-16,21.18-25.05a60.81,60.81,0,0,1,4.07-5.22l2.79-4.24,5.37-8.16,1.21-1.83,6.41-9.75,16-24.34,1-.29c.19.67.39,1.35.6,2a42.87,42.87,0,0,1,1,4.77l1,4.85c.65,3.23,1.3,6.46,2,9.68s1.36,6.45,2.07,9.67,1.43,6.44,2.17,9.65,1.52,6.41,2.31,9.61,1.61,6.39,2.45,9.57,1.71,6.35,2.61,9.52,1.83,6.32,2.79,9.46,2,6.27,3,9.4,2.1,6.22,3.2,9.32,2.25,6.17,3.43,9.24,2.41,6.11,3.68,9.15,2.59,6,3.94,9S247.14,353.19,248.6,356.15Z" transform="translate(0 0)"/><path d="M213,151.76c.52-.07,1-.17,1.55-.28A80.91,80.91,0,0,1,192,172.42q-3.39,2.16-6.93,4h0l-.23.12-.68.35a9.45,9.45,0,0,0-1-.34l-.36-.11,1-.53-.49-.17.52.13h0a88.26,88.26,0,0,0,15.1-9.7A76.55,76.55,0,0,0,213,151.76Z" transform="translate(0 0)"/><path class="cls-2" d="M208.53,152.11a29.2,29.2,0,0,0,4.48-.35,76.55,76.55,0,0,1-14,14.41,88.26,88.26,0,0,1-15.1,9.7h0l-.52-.13c-2.45-.85-5.18-1.38-7.51-2q-2.48-.61-5-1.14a20,20,0,0,0,.46-6.48,56,56,0,0,0-4.77-18.45,52.73,52.73,0,0,0-22.42-24.83,5.7,5.7,0,1,0-8.22-5.12,5.53,5.53,0,0,0,.26,1.69,47.7,47.7,0,0,0-29.65-.1,3.82,3.82,0,0,0-.6-.43c-2.79-1.6-7-1.74-10.09-1.94-1.61-.11-3.23-.14-4.84-.09a.4.4,0,0,0-.38-.08l-.36.11a43.89,43.89,0,0,0-5.72.63c-2.24.4-5.22,1-6.37,3.28a3.23,3.23,0,0,0-.35,1.12,22.31,22.31,0,0,0-7.84-2.26L70.3,117a5.53,5.53,0,0,0,1.69.26,5.71,5.71,0,0,0,5.71-5.7,5.65,5.65,0,0,0-.26-1.7l2.85-.71a.63.63,0,0,0,1.1-.16c.58-2.83,1.17-6-.69-8.62a5.87,5.87,0,0,0-1-1.12c8.18,1.9,17,1.82,25.29,1.2,16-1.2,33-5,43.9-17.7a34.83,34.83,0,0,0,4.35-6.37,22.65,22.65,0,0,0,7.81.24c0,3.84,2.06,7.81,4.26,10.92,2.42,3.4,5.25,6.76,6.06,11s-.94,8.56-.82,12.86c.11,3.77,2,6.72,4,9.78,2.41,3.68,4.8,7.52,6.13,11.75A15.74,15.74,0,0,1,179,146.68c-1.47,2.41-3.2,4.95-2.69,7.91.33,1.95,1.6,4.08,3.72,4.38,2.8.39,4.52-2.31,6.28-4C192.21,149.54,201.35,152.13,208.53,152.11Zm-48.45-43.83c.14.65,1.17.52,1-.14-1.52-7.14-8.52-10.85-15.45-10.24-8.64.76-15.72,7.15-21.21,13.35-.44.5.38,1.14.82.64,4.75-5.38,10.67-10.87,17.88-12.54C150.15,97.73,158.45,100.6,160.08,108.28Z" transform="translate(0 0)"/><path class="cls-3" d="M208.22,222.25l-1,.29a9.43,9.43,0,0,1-1.85.93q-7.62,11.61-15.25,23.19L185,254.45l-1.2,1.81q-4.69,7.14-9.38,14.27c-7.86,9.16-12.39,21.21-22.48,28.31-6.82,4.8-14.91,5.07-22.9,3.93a148.89,148.89,0,0,1-23.22-5.36l-1-.3a.5.5,0,0,0-.27,0l-.52-.14h0q-16.84-4.35-33.59-9.14h0l-1-.29c-4.21-1.2-8.42-2.44-12.62-3.69,0-.16,0-.32,0-.48,0-.35,0-.7-.06-1,0-1,0-1.88,0-2.66a36.8,36.8,0,0,1,2.15-12.55c2.08-5.8,5.6-10.85,9.4-15.66l.67-.86c.15-.19.3-.38.46-.56,2,.67,4.11,1.34,6.17,2l.87.28q9,2.89,18.15,5.61l2.22.65q6.87,2.06,13.76,4l.73.21.27.08.74.21q7.45,2.08,14.93,4.06l.26.07a.45.45,0,0,0,.28.4,11,11,0,0,0,14-4.39,8.86,8.86,0,0,0-2-11.83l.19-.27,20-28c.38-.55-.43-1.19-.82-.65Q149,236.59,138.9,250.78a.37.37,0,0,0-.37,0,26.77,26.77,0,0,0-10.17,0c-.23-1.23-.44-2.47-.65-3.7a227.5,227.5,0,0,1-3-41.29,324.37,324.37,0,0,1,35.37,8.89c.29.09.71,0,.72-.41q.3-11.73.32-23.46V186.5c0-.55,0-1.1,0-1.65l.07,0a6.26,6.26,0,0,0,0-.75.76.76,0,0,1,0-.15h-.06c0-.55,0-1.1,0-1.65a20.81,20.81,0,0,0,3.62-1.65,12.47,12.47,0,0,0,5.86-7.16c1.16.24,2.32.5,3.48.77,2.54.6,5.59,1.16,8.3,2.07l.25.05.18.06.36.11a9.45,9.45,0,0,1,1,.34h0a.49.49,0,0,0,0,.91c3.74,1.4,7.59,2.92,10.66,5.56,3.68,3.16,4.9,7.51,6.12,12l2.32,8.56q1.38,5.12,2.77,10.25C206.7,216.88,207.43,219.57,208.22,222.25Z" transform="translate(0 0)"/><path d="M207.24,222.54l-16,24.34-6.41,9.75c.06-.72.12-1.45.19-2.18l5.12-7.79q7.62-11.59,15.25-23.19A9.43,9.43,0,0,0,207.24,222.54Z" transform="translate(0 0)"/><path d="M187.85,178.2a6,6,0,0,1,.43.45,2.85,2.85,0,0,0-.42,0,4.18,4.18,0,0,0-.89.1,5.91,5.91,0,0,0-.81-.65,12.05,12.05,0,0,0-1.33-.74,1.08,1.08,0,0,0-.24-.18.41.41,0,0,0,.15-.17C185.78,177.36,186.82,177.76,187.85,178.2Z" transform="translate(0 0)"/><path d="M187.1,177.57a5.94,5.94,0,0,1,.75.63c-1-.44-2.07-.84-3.11-1.23a.52.52,0,0,0,0-.44l.23-.12h0A12.16,12.16,0,0,1,187.1,177.57Z" transform="translate(0 0)"/><path d="M185,254.45c-.07.73-.13,1.46-.19,2.18l-1.21,1.83c.07-.73.14-1.46.2-2.2Z" transform="translate(0 0)"/><path d="M184.79,176.53a.52.52,0,0,1,0,.44l-.25-.09a.45.45,0,0,0-.36,0h0Z" transform="translate(0 0)"/><path d="M184.49,176.88l.25.09a.41.41,0,0,1-.15.17,1.28,1.28,0,0,0-.3-.17l0,0-.12-.06A.45.45,0,0,1,184.49,176.88Z" transform="translate(0 0)"/><path d="M184.59,177.14a2.91,2.91,0,0,0-.3-.17A1.28,1.28,0,0,1,184.59,177.14Z" transform="translate(0 0)"/><path d="M183.82,256.26c-.06.74-.13,1.47-.2,2.2l-5.37,8.16-2.79,4.24a60.81,60.81,0,0,0-4.07,5.22,3,3,0,0,0-.6,0l2.89-4.4.76-1.16Q179.14,263.4,183.82,256.26Z" transform="translate(0 0)"/><path d="M183.81,175.9l-1,.53-.18-.06c-.11-.32.13-.79.52-.69l.2,0Z" transform="translate(0 0)"/><path d="M182.65,40.33a32.13,32.13,0,0,1,1,11.59c-.07.67-.15,1.34-.26,2,0,.32-.1.65-.17,1a28.63,28.63,0,0,1-4.16,10.36A26.29,26.29,0,0,1,161.9,76.49c-.3.06-.6.11-.9.14a7.55,7.55,0,0,1,.07-1.06c.32,0,.63-.09,1-.16a25.32,25.32,0,0,0,14.35-8.29c.24-.27.46-.55.68-.83s.44-.56.64-.85c.42-.58.81-1.17,1.17-1.78.09-.15.18-.3.26-.46a2,2,0,0,0,.16-.28c.13-.24.27-.47.39-.72a.43.43,0,0,0,0-.07l.39-.8s0,0,0-.08c.13-.28.26-.57.38-.86s.23-.53.33-.81c.22-.54.41-1.1.58-1.66,0-.13.08-.27.13-.41.13-.42.24-.85.34-1.28.07-.28.14-.57.2-.86s.12-.57.17-.86a1.29,1.29,0,0,0,0-.19c0-.17.06-.33.09-.5s0-.19,0-.28q.15-1,.24-1.95a31.31,31.31,0,0,0-.18-7c-.56-4-1.81-8.35-4.43-11.51a10.12,10.12,0,0,0-4.31-3,6.22,6.22,0,0,1-1.55,1.69,5.57,5.57,0,0,1-6.71.14.52.52,0,0,1-.08-.73,7.82,7.82,0,0,1,7.65-2.43,9.46,9.46,0,0,0,1-4.48.28.28,0,0,0,0-.09c0-.4-.07-.8-.13-1.2.38.2.76.42,1.13.64,0,.17,0,.35,0,.52s0,.44,0,.67a10.65,10.65,0,0,1-.81,4.28,8.48,8.48,0,0,1,.95.37C179.34,31.48,181.5,36.14,182.65,40.33ZM172.51,29.75a6.33,6.33,0,0,0-5.88,1.66C169.14,32.91,171.2,31.75,172.51,29.75Z" transform="translate(0 0)"/><path d="M183.32,175.73l-.2,0c-.39-.1-.63.37-.52.69l-.25-.05c-2.71-.91-5.76-1.47-8.3-2.07-1.16-.27-2.32-.53-3.48-.77.09-.28.17-.56.24-.85q2.52.52,5,1.14C178.14,174.35,180.87,174.88,183.32,175.73Z" transform="translate(0 0)"/><path class="cls-2" d="M182.49,44.61a31.31,31.31,0,0,1,.18,7q-.09,1-.24,1.95c0,.09,0,.18,0,.28s0,.33-.09.5a1.29,1.29,0,0,1,0,.19c0,.29-.11.58-.17.86s-.13.58-.2.86c-.1.43-.21.86-.34,1.28-.05.14-.09.28-.13.41-.17.56-.36,1.12-.58,1.66q-.15.42-.33.81c-.12.29-.25.58-.38.86,0,0,0,0,0,.08l-.39.8a.43.43,0,0,1,0,.07c-.12.25-.26.48-.39.72a2,2,0,0,1-.16.28c-.08.16-.17.31-.26.46-.36.61-.75,1.2-1.17,1.78-.2.29-.42.57-.64.85s-.44.56-.68.83A25.32,25.32,0,0,1,162,75.41c-.32.07-.63.12-1,.16a21.55,21.55,0,0,1-5.56.13,13.16,13.16,0,0,1-1.63-.27c1.68-3.19,2.52-7.51-.55-10.17-2.11-1.83-5.33-1.92-7,.52a6.21,6.21,0,0,0,1,7.71,10.64,10.64,0,0,0,4.78,2.65c-10.94,20.22-38.36,24.17-59.31,23.69a58.6,58.6,0,0,1-16.66-2.59,36.69,36.69,0,0,1-11.51-6,30.21,30.21,0,0,1-3-2.62,28.71,28.71,0,0,1-1.94-2.15l-.71-.88a28.34,28.34,0,0,1-2.27-3.5c-.15-.28-.3-.56-.44-.85a19.08,19.08,0,0,1-1.87-5.81c3.52,1.25,7.79.54,8-4A4,4,0,0,0,59,67c-2.72-.24-4.88,2-5.47,4.51a11.33,11.33,0,0,0-.27,2.24,6.34,6.34,0,0,1-.91-.68,16.83,16.83,0,0,1-4.56-9.53c-.1-.51-.17-1-.23-1.53a30.23,30.23,0,0,1,0-6A33,33,0,0,1,53.86,39.9,50.73,50.73,0,0,1,65.62,28.59a32.45,32.45,0,0,1,7-4.23l.34-.11a5.67,5.67,0,0,0,3.65,4.92c4.75,2.13,3.79-5.29-.12-6.24a6.06,6.06,0,0,0-2.68,0c.15-4.32,4.61-9.21,7.34-11.7a38.7,38.7,0,0,1,28.27-9.84,32.84,32.84,0,0,1,7.36,1.3A9.7,9.7,0,0,1,121,4.92a17.44,17.44,0,0,0-1.89.93c-1.66,1-3.3,2.94-1.92,4.82a3.61,3.61,0,0,0,4.67.73c1.91-1.28,1.83-4.05.84-5.9,1.32-.47,2.66-.89,4-1.24a50.85,50.85,0,0,1,9.34-1.45,50,50,0,0,1,20.52,3.05c5.39,2,10.65,5.16,14.11,9.86A16.65,16.65,0,0,1,173.88,23c.06.4.11.8.13,1.2a.28.28,0,0,1,0,.09,9.46,9.46,0,0,1-1,4.48,7.82,7.82,0,0,0-7.65,2.43.52.52,0,0,0,.08.73,5.57,5.57,0,0,0,6.71-.14,6.22,6.22,0,0,0,1.55-1.69,10.12,10.12,0,0,1,4.31,3C180.68,36.26,181.93,40.61,182.49,44.61Z" transform="translate(0 0)"/><path d="M178.15,413.84l1.09,0a25.55,25.55,0,0,1-2.33,7,16.79,16.79,0,0,1-1.22,2,17,17,0,0,1-1.62,2c-2.91,3.1-6.9,4.78-10.95,5.84a127.6,127.6,0,0,1-16.49,2.8,217.23,217.23,0,0,1-29.4,1.61c0-.34,0-.67,0-1a215.6,215.6,0,0,0,36.25-2.57c4.86-.76,9.95-1.46,14.45-3.56a17,17,0,0,0,7.94-7.49,20.66,20.66,0,0,0,1.22-2.75c.1-.28.2-.57.29-.86A27.81,27.81,0,0,0,178.15,413.84Z" transform="translate(0 0)"/><path class="cls-4" d="M177.35,413.86l.8,0a27.81,27.81,0,0,1-.75,3c-.09.29-.19.58-.29.86a20.66,20.66,0,0,1-1.22,2.75,17,17,0,0,1-7.94,7.49c-4.5,2.1-9.59,2.8-14.45,3.56a215.6,215.6,0,0,1-36.25,2.57c0-1.47-.07-2.95-.19-4.42a.47.47,0,0,0,.19-.41c-.4-12.61-5.1-24.4-7.63-36.64-2-9.51-1.26-19.21-1.83-28.81,1.45,1.09,2.89,2.21,4.31,3.34.5.4,1.12-.39.62-.79q-2.48-2-5-3.88l-1-.79A256,256,0,0,0,85.1,347.17c-.55-.32-1.17.46-.62.79a253.27,253.27,0,0,1,22.28,15c.66,9.9-.16,19.91,1.87,29.73,2.46,11.89,7,23.37,7.57,35.58a2.08,2.08,0,0,1-.21.21c.07.6.13,1.2.17,1.8.08,1.24.11,2.49.11,3.74l-1.47,0-1,0a218.24,218.24,0,0,1-28.19-2.66q-8.15-1.31-16.16-3.24c-5.09-1.23-11-2.32-13.93-7.14a16.3,16.3,0,0,1-1.78-4.18h0a29.19,29.19,0,0,1-1-5.22v-.13c-.14-1.22-.24-2.45-.33-3.65,0-.34-.06-.68-.08-1s-.09-1-.13-1.43q-.81-8.73-1.25-17.5a411.73,411.73,0,0,1,3.4-77l1.27-.24a16.19,16.19,0,0,0,1.67,2.85c3.95,5.4,10.83,8.76,17.88,10.46,8.9,2.14,18.44,2.24,27.62,2.68,9.66.47,19.34.78,29,.6,2.51-.05,5-.13,7.54-.25a217.27,217.27,0,0,1-5.74,39.29A468.35,468.35,0,0,1,120,412c-.1.31-.21.62-.32.93l-.17.5c-.2.6.72,1,.93.39.09-.28.19-.55.28-.83h.3c18.44.88,36.92,1.31,55.38.84Z" transform="translate(0 0)"/><path d="M176.91,420.78c-.41,6.43-.91,13-2.54,19.17s-5.13,11.3-11.12,13.93c-6.45,2.83-14.16,3.19-21.1,3.55s-14.05-.28-19.83-4.33A16.82,16.82,0,0,1,116.2,445h0c.11-.58.21-1.17.3-1.74a20.23,20.23,0,0,0,1.08,2.8,16.9,16.9,0,0,0,7.88,7.72c6.87,3.45,14.76,2.89,22.18,2.19,6.7-.63,14.24-1.22,19.63-5.71,5.68-4.73,6.85-12.51,7.62-19.43.3-2.68.56-5.36.8-8.05A16.79,16.79,0,0,0,176.91,420.78Z" transform="translate(0 0)"/><path class="cls-2" d="M175.69,422.81c-.24,2.69-.5,5.37-.8,8.05-.77,6.92-1.94,14.7-7.62,19.43-5.39,4.49-12.93,5.08-19.63,5.71-7.42.7-15.31,1.26-22.18-2.19a16.9,16.9,0,0,1-7.88-7.72,20.23,20.23,0,0,1-1.08-2.8v0c.19-1.22.32-2.42.44-3.54.17-1.55.27-3.11.29-4.66a217.23,217.23,0,0,0,29.4-1.61,127.6,127.6,0,0,0,16.49-2.8c4-1.06,8-2.74,10.95-5.84A17,17,0,0,0,175.69,422.81Z" transform="translate(0 0)"/><path d="M175,23.63c-.37-.22-.75-.44-1.13-.64a16.65,16.65,0,0,0-3.16-7.27C167.26,11,162,7.89,156.61,5.86a50,50,0,0,0-20.52-3.05,50.85,50.85,0,0,0-9.34,1.45c-1.36.35-2.7.77-4,1.24,1,1.85,1.07,4.62-.84,5.9a3.61,3.61,0,0,1-4.67-.73c-1.38-1.88.26-3.87,1.92-4.82A17.44,17.44,0,0,1,121,4.92a9.7,9.7,0,0,0-4.23-2.25,32.84,32.84,0,0,0-7.36-1.3,38.7,38.7,0,0,0-28.27,9.84c-2.73,2.49-7.19,7.38-7.34,11.7a6.06,6.06,0,0,1,2.68,0c3.91.95,4.87,8.37.12,6.24A5.67,5.67,0,0,1,73,24.25l-.34.11a32.45,32.45,0,0,0-7,4.23A50.73,50.73,0,0,0,53.86,39.9,33,33,0,0,0,47.52,56a30.23,30.23,0,0,0,0,6c.06.51.13,1,.23,1.53a16.83,16.83,0,0,0,4.56,9.53,6.34,6.34,0,0,0,.91.68,11.33,11.33,0,0,1,.27-2.24c.59-2.46,2.75-4.75,5.47-4.51a4,4,0,0,1,3.5,4.38c-.21,4.58-4.48,5.29-8,4a19.08,19.08,0,0,0,1.87,5.81c.14.29.29.57.44.85a28.34,28.34,0,0,0,2.27,3.5l.71.88a28.71,28.71,0,0,0,1.94,2.15,30.21,30.21,0,0,0,3,2.62,36.69,36.69,0,0,0,11.51,6l-.07.23a24.18,24.18,0,0,0-2.48-.6,7.53,7.53,0,0,0-1.47-.14h-.28a35.49,35.49,0,0,1-7.67-4.53A33.88,33.88,0,0,1,60.67,89q-.69-.7-1.38-1.53c-.24-.28-.48-.57-.72-.88a31.2,31.2,0,0,1-2.64-3.89c-.16-.28-.31-.55-.45-.83a18.56,18.56,0,0,1-2.19-7,8,8,0,0,1-2.2-1.65A18.22,18.22,0,0,1,47,64.88a29.3,29.3,0,0,1-7.2,8.19c-3,2.21-6.63,3.69-8.93,6.68-2.74,3.54-2.75,8.27-2.18,12.5.53,4,1.88,8,1.75,12.06a20.85,20.85,0,0,1-3.14,9.89c-3.92,6.66-10.12,11.5-14.53,17.79-2.52,3.61-4.42,7.71-4.42,12.18,0,3.32,1,6.82.09,10.09-1,3.56-4.91,4.42-6.4,7.62-1.62,3.5-.52,7.93,2.06,10.68,6.47,6.91,17.28,3.88,25.09,1.71a59.57,59.57,0,0,1,25.25-1.91c4.7.72,9.46,2,14.25,1.32l.39-.06a9,9,0,0,0-.5,1.09c-4.94.62-9.88-.71-14.74-1.43a54,54,0,0,0-17.57.3c-5.2.95-10.17,2.87-15.38,3.77-6.49,1.12-14.87.43-18.77-5.7a11.29,11.29,0,0,1-1.56-8.54,8.26,8.26,0,0,1,1.84-3.59c1.21-1.34,3-2.07,4.08-3.54,2.62-3.59.7-8.58.88-12.66a21.46,21.46,0,0,1,3.51-10.25c4.59-7.4,12-12.64,16.13-20.36a20.44,20.44,0,0,0,1.83-14.16c-.74-3.9-1.66-7.79-1.39-11.79a13.4,13.4,0,0,1,3.73-8.85c2.8-2.77,6.59-4.23,9.51-6.85a32.6,32.6,0,0,0,6.06-7.58,30.3,30.3,0,0,1,.32-11A37.81,37.81,0,0,1,58,33.58a61,61,0,0,1,9.41-7.46,23.61,23.61,0,0,1,5.57-3c.21-3.36,2.4-7.11,4.32-9.38A39.23,39.23,0,0,1,114.83,1.1c2.52.55,5.48,1.35,7.22,3.41a46.69,46.69,0,0,1,7.65-1.95,51.26,51.26,0,0,1,12.24-.8,46.65,46.65,0,0,1,22.27,6.69C169.54,11.83,174.36,17.11,175,23.63ZM119.65,10.89c2.8.38,3-3.08,2.06-5L121.3,6a6.18,6.18,0,0,0-2.58,1.43C117.76,8.61,117.94,10.66,119.65,10.89ZM79,27.62c.31-.9-.4-2-1-2.61a4.13,4.13,0,0,0-4.11-1,5.58,5.58,0,0,0,2.16,3.59C76.86,28.25,78.44,29.19,79,27.62ZM54.38,74.33c3.09,1.26,7.39.81,7.08-3.43-.21-2.82-3.34-3.51-5.3-1.9a6.08,6.08,0,0,0-1.8,5.16A.88.88,0,0,0,54.38,74.33Z" transform="translate(0 0)"/><path d="M174.44,270.53l-.76,1.16-2.89,4.4a3,3,0,0,1,.6,0c-6.38,9.05-11.27,19.47-21.18,25.05a25.6,25.6,0,0,1-10.53,3.08c0-.15,0-.3-.05-.45l-1.08-.05c0,.19,0,.38.07.58a49.24,49.24,0,0,1-9.69-.53c-3.24-.46-6.45-1.05-9.65-1.76h-.16c-4.27-.93-8.5-2.06-12.68-3.34h0l-2.39-.61h0q-9.36,3.25-18.91,5.89c-1.66.46-3.31.9-5,1.33h0l-1,.27h0q-9.34,2.39-18.83,4.19l-3.71.72-1,.18-1.27.24-1,.18c-6.18,1.1-12.47,1.91-18.65,1.26a30.51,30.51,0,0,1-3.65-.6.42.42,0,0,0,0-.1h0l-.66,0h0a27.06,27.06,0,0,1-4-1.29,21.34,21.34,0,0,1-8.66-6.3A19,19,0,0,1,15,299.3c-.25-.59-.47-1.18-.67-1.79.17-.75.32-1.5.48-2.25q2.13-10.1,4-20.23,5.73-30.42,9.47-61.16c.44-3.63.29-8.11,2.33-11.3,2.15-3.37,6.68-5.53,10-7.6a190.64,190.64,0,0,1,18-10.05h0c.55-.28,1.1-.55,1.66-.81h0q2.46-1.19,5-2.3a.45.45,0,0,1,.59.17l-.33.85c-.77.34-1.53.69-2.29,1l-.06,0c-.89.41-1.77.83-2.65,1.26h0A189.79,189.79,0,0,0,37.7,198.1c-1.87,1.25-4,2.47-5.51,4.2s-1.89,4-2.17,6.27c-.6,4.83-1.16,9.67-1.79,14.49q-1.92,14.59-4.29,29.11-1.65,10.14-3.52,20.23l-.18,1q-2.25,12-4.8,24a18.54,18.54,0,0,0,6,8.82,22.87,22.87,0,0,0,9,4.32h0a38.69,38.69,0,0,0,11.76.9l1.16-.09c3.39-.28,6.78-.74,10.16-1.3l1-.17.74-.13,1-.19c3.65-.66,7.29-1.43,10.89-2.2q5.69-1.21,11.31-2.65l1-.26q11.58-3,22.89-6.83Q86.45,293.47,70.71,289l-1-.29Q63.35,286.84,57,285c-.33-.09-.65-.19-1-.3a2.89,2.89,0,0,1,0-.29c0-.27-.07-.54-.09-.81l0-.26-1.08-.08h0l-1-.3c0,.08,0,.16,0,.23l-3.57-.26H50.1L45,282.48l-8.13-.61c-1.93-.15-4.39.05-6.17-.89s-2.44-3-2.39-5a9.43,9.43,0,0,1,.07-1.06,11.5,11.5,0,0,1,.36-1.82c1-3.78,3.66-6.93,6.21-9.79,5.27-5.94,11.62-11.54,19.51-13.54a23.76,23.76,0,0,1,2.87-.54c.36-.05.71-.08,1.07-.11a24.78,24.78,0,0,1,9.57,1.1c.14-.19.29-.37.44-.56l.69-.85,1.05.34L75.86,251l.87.28q10.09,3.22,20.25,6.23l12.66-2,.92-.15,8.38-1.34a.43.43,0,0,1,.42.14,27.5,27.5,0,0,1,8.09-3.22l.91-.18a26.77,26.77,0,0,1,10.17,0,.56.56,0,0,0-.05.88,3.36,3.36,0,0,0-2.25-.2c-.36,0-.72-.09-1.08-.11a26.18,26.18,0,0,0-3.86,0c-.64.06-1.27.13-1.9.23-.3,0-.61.08-.91.14s-.58.15-.88.21a23.85,23.85,0,0,0-3,.84,26.35,26.35,0,0,0-2.85,1.19,26.38,26.38,0,0,0-5.22,3.36,25.9,25.9,0,0,0-2.29,2.16c-.37.38-.72.78-1.06,1.19-.17.2-.34.41-.5.62a5.75,5.75,0,0,1-.48.63c5.18,1.46,10.39,2.88,15.59,4.26a3.1,3.1,0,0,0,1,.61l-.06.08-.52-.23a.47.47,0,0,0-.66.52l-.26-.07q-7.48-2-14.93-4.06l-.74-.21-.27-.08-.73-.21q-6.9-1.94-13.76-4l-2.22-.65q-9.11-2.72-18.15-5.61L75.6,252c-2.06-.65-4.12-1.32-6.17-2-.16.18-.31.37-.46.56l-.67.86c-3.8,4.81-7.32,9.86-9.4,15.66a36.8,36.8,0,0,0-2.15,12.55c0,.78,0,1.69,0,2.66,0,.34,0,.69.06,1,0,.16,0,.32,0,.48,4.2,1.25,8.41,2.49,12.62,3.69l1,.29h0q16.74,4.8,33.59,9.14h0l.52.14a.5.5,0,0,1,.27,0l1,.3a148.89,148.89,0,0,0,23.22,5.36c8,1.14,16.08.87,22.9-3.93C162.05,291.74,166.58,279.69,174.44,270.53Zm-56.72-15.31-7,1.11-.92.15-10.65,1.7q5.91,1.77,11.84,3.43l.17.05c.19-.27.39-.54.59-.8A27,27,0,0,1,117.72,255.22ZM56.83,270.4c1.81-7.29,5.88-13.46,10.43-19.29a23.91,23.91,0,0,0-9.07-.91c-.36,0-.72.07-1.07.12-.59.08-1.17.18-1.75.31-7.39,1.61-13.5,6.68-18.52,12.1-2.5,2.7-5.2,5.64-6.6,9.09a13.39,13.39,0,0,0-.92,3.44,5.42,5.42,0,0,0,0,1.06,5.29,5.29,0,0,0,.35,1.94c1,2.54,4.08,2.34,6.33,2.5l9.64.72h0l4.6.34h0l3.53.26,1,.08,1,.07A37.79,37.79,0,0,1,56.83,270.4Z" transform="translate(0 0)"/><path class="cls-2" d="M166.63,31.41a6.33,6.33,0,0,1,5.88-1.66C171.2,31.75,169.14,32.91,166.63,31.41Z" transform="translate(0 0)"/><path d="M171.27,166.15a20,20,0,0,1-.46,6.48c-.07.29-.15.57-.24.85a12.47,12.47,0,0,1-5.86,7.16,20.81,20.81,0,0,1-3.62,1.65c0,.55,0,1.1,0,1.65h.06a.76.76,0,0,0,0,.15,6.26,6.26,0,0,1,0,.75l-.07,0-1,.21v-.91c0-.34,0-.69,0-1v-.48a36.7,36.7,0,0,1-11.67,1.45,21.33,21.33,0,0,1-16.11-7.33,2.09,2.09,0,0,1-.14-.17c-.25-.29-.49-.59-.72-.89l-.06-.08c-.19-.25-.38-.5-.55-.76a27.05,27.05,0,0,1-2.42-4.1c-.14-.29-.27-.57-.39-.86-4.22-9.6-3.41-21.29-3.18-31.66l.12,0a.5.5,0,0,0-.1-1c0-.42,0-.84,0-1.25,0-.66,1-.52,1,.14-.11,10.63-1.4,23.58,3.18,33.7.12.29.26.58.41.87a24.27,24.27,0,0,0,2.35,3.86c.19.28.41.56.63.83l.11.14c.27.33.55.65.84,1,.53.58,1.1,1.14,1.7,1.68,5.16,4.62,12,5.38,18.66,4.61a34.86,34.86,0,0,0,6.28-1.24c.35-.1.7-.22,1-.34h0a14.05,14.05,0,0,0,7.49-5.47,10.92,10.92,0,0,0,1.14-2.42c.09-.28.18-.56.25-.85,1.28-4.91-.12-10.92-1.31-15.5a56,56,0,0,0-6.76-15.68,50.39,50.39,0,0,0-19.17-17.93,5,5,0,0,0,1.36-.47A52.73,52.73,0,0,1,166.5,147.7,56,56,0,0,1,171.27,166.15Z" transform="translate(0 0)"/><path class="cls-2" d="M168.65,157c1.19,4.58,2.59,10.59,1.31,15.5-.07.29-.16.57-.25.85a10.92,10.92,0,0,1-1.14,2.42,14.05,14.05,0,0,1-7.49,5.47h0c-.34.12-.69.24-1,.34a34.86,34.86,0,0,1-6.28,1.24c-6.63.77-13.5,0-18.66-4.61-.6-.54-1.17-1.1-1.7-1.68-.29-.32-.57-.64-.84-1l-.11-.14c-.22-.27-.44-.55-.63-.83a24.27,24.27,0,0,1-2.35-3.86c-.15-.29-.29-.58-.41-.87-4.58-10.12-3.29-23.07-3.18-33.7,0-.66-1-.8-1-.14,0,.41,0,.83,0,1.25h0a31.66,31.66,0,0,0-8.72,2.55l-.11.08c-2.8,1.16-5.74,2.26-8.76,3.19,0,0,0,0,0,0a.52.52,0,0,0-.53.16c-8.74,2.62-18.11,3.77-26.57.64a.51.51,0,0,0-.67.32,27.31,27.31,0,0,1-11.72.8,50.26,50.26,0,0,1-6.14-1.69l-.54-.16h0l-.81-.2-.61-.13a13,13,0,0,0-2-.26c-.66,0-.8,1-.13,1a16,16,0,0,1,2.68.38l.55.13.93.25c.13,0,.27.07.4.12a39.71,39.71,0,0,0,7.36,1.79,27.24,27.24,0,0,0,6.45-.23,31.3,31.3,0,0,1,6,6.47,82.38,82.38,0,0,1,7.92,13.59s0,0,0,0a4.57,4.57,0,0,1-.23,3.86,4.81,4.81,0,0,1-.59.9,6.31,6.31,0,0,1-.66.71l-.07.06a6.18,6.18,0,0,1-.83.62l-.22.14a6.25,6.25,0,0,1-1.17.55l0,0a15,15,0,0,1-7,.29,32.09,32.09,0,0,1-3.49-.68h0c-.51-.13-1-.27-1.51-.42l-.06,0c-.77-.22-1.54-.48-2.29-.76A36.13,36.13,0,0,1,67,169.24,35.1,35.1,0,0,1,50.5,149.3c-2.35-7.22-3.1-17.42,1.76-23.92a11.82,11.82,0,0,1,.77-.95l.24-.27a11.73,11.73,0,0,1,5.52-3.27,23.15,23.15,0,0,1,8.31-.51c3.75.35,7.77.85,11,3a2.16,2.16,0,0,0,1.12.84l.36.31a.44.44,0,0,0,.68-.07,36.6,36.6,0,0,0,4.38-.12h1c-.54,2-1.3,5.63.54,6.78,2.31,1.44,3.6,1,4.49-1.28.66-1.71,1.23-3.71,2-5.57l11.32-.11a.43.43,0,0,0,.26-.09,3.47,3.47,0,0,0,2.75-1.37,2.15,2.15,0,0,0,.21-2.43,46.5,46.5,0,0,1,28,0c.5.16,1,.32,1.48.5h0a5.67,5.67,0,0,0,4.86,2.73,5.38,5.38,0,0,0,1.14-.12h0a50.39,50.39,0,0,1,19.17,17.93A56,56,0,0,1,168.65,157Z" transform="translate(0 0)"/><path d="M161.11,108.14c.14.66-.89.79-1,.14-1.63-7.68-9.93-10.55-16.93-8.93-7.21,1.67-13.13,7.16-17.88,12.54-.44.5-1.26-.14-.82-.64,5.49-6.2,12.57-12.59,21.21-13.35C152.59,97.29,159.59,101,161.11,108.14Z" transform="translate(0 0)"/><path d="M161.11,186.5v4.28q0,11.73-.32,23.46c0,.37-.43.5-.72.41a324.37,324.37,0,0,0-35.37-8.89,227.5,227.5,0,0,0,3,41.29c.21,1.23.42,2.47.65,3.7l-.91.18c-.73-3.78-1.37-7.58-1.87-11.41a230.82,230.82,0,0,1-1.88-34q-3.17-.6-6.35-1.14c-1.7-.29-4.18-.27-5-2.15s0-5,.39-7.05c0-.14,0-.28.07-.42.07-.45.14-.88.22-1.33h0a89.74,89.74,0,0,1,2-8.89c.1-.34.19-.69.3-1,0-.16.09-.32.14-.48s.12-.45.19-.67.06-.2.1-.3c.26-.87.55-1.73.84-2.6a0,0,0,0,0,0,0,1.59,1.59,0,0,1,.07-.2c.09-.25.16-.51.25-.77h0a.56.56,0,0,1,0-.08c.06-.23.13-.45.19-.68a.35.35,0,0,1,.06-.14c.85,0,1.7,0,2.56-.09a0,0,0,0,0,0,0,0,0,0,0,0,0,0c.53,0,1.07-.06,1.6-.1s1.11-.09,1.66-.15h.14c.49-.05,1-.11,1.47-.18h.07c.36,0,.72-.09,1.07-.15q1.11-.16,2.19-.39c.4-.08.8-.16,1.19-.26h0l.54-.13c.55-.13,1.09-.27,1.62-.43.23.3.47.6.72.89-2,.18-4,.39-6,.63l-1.27.15h0q-3.37.42-6.73.94c-.48,1.34-.93,2.7-1.34,4.06,0,.11-.07.22-.1.33s-.13.42-.18.63c-.12.38-.23.75-.33,1.13s-.23.81-.33,1.22h0c-.54,2-1,4.06-1.39,6.12h0c-.13.61-.23,1.21-.33,1.83h0c0,.27-.1.54-.14.81-.25,1.56-.47,3.13-.61,4.71-.2,2.26.19,3.52,2.66,4s5.16.89,7.73,1.37c.33,0,.66.12,1,.18l.16,0a329.55,329.55,0,0,1,34.89,8.75q.25-9.89.3-19.78,0-3.54,0-7.09C160.42,186.58,160.76,186.55,161.11,186.5Z" transform="translate(0 0)"/><path d="M161.1,184.85c0,.55,0,1.1,0,1.65-.35.05-.69.08-1,.11,0-.52,0-1,0-1.55Z" transform="translate(0 0)"/><path d="M161.07,75.57a7.55,7.55,0,0,0-.07,1.06,22.65,22.65,0,0,1-7.81-.24,34.83,34.83,0,0,1-4.35,6.37c-10.9,12.66-27.95,16.5-43.9,17.7-8.27.62-17.11.7-25.29-1.2a6.31,6.31,0,0,0-.58-.44h0a11.11,11.11,0,0,0-2.94-1.35l.07-.23a58.6,58.6,0,0,0,16.66,2.59c21,.48,48.37-3.47,59.31-23.69a10.64,10.64,0,0,1-4.78-2.65,6.21,6.21,0,0,1-1-7.71c1.65-2.44,4.87-2.35,7-.52,3.07,2.66,2.23,7,.55,10.17a13.16,13.16,0,0,0,1.63.27A21.55,21.55,0,0,0,161.07,75.57ZM153.83,73a6.63,6.63,0,0,0-.3-5.95c-1.71-2.66-5.68-2.85-6.81.33-1.49,4.19,2.31,6.67,6,7.75.31-.61.6-1.23.88-1.87A.44.44,0,0,1,153.83,73Z" transform="translate(0 0)"/><path class="cls-3" d="M160.07,186.61q0,3.55,0,7.09,0,9.9-.3,19.78a329.55,329.55,0,0,0-34.89-8.75l-.16,0c-.33-.06-.66-.13-1-.18-2.57-.48-5.15-.89-7.73-1.37s-2.86-1.71-2.66-4c.14-1.58.36-3.15.61-4.71,0-.27.09-.54.14-.81h0c.1-.62.2-1.22.33-1.83h0c.38-2.06.85-4.1,1.39-6.12h0c.1-.41.21-.82.33-1.22s.21-.75.33-1.13c0-.21.12-.42.18-.63s.07-.22.1-.33c.41-1.36.86-2.72,1.34-4.06q3.36-.52,6.73-.94h0l1.27-.15c2-.24,4-.45,6-.63a2.09,2.09,0,0,0,.14.17,21.33,21.33,0,0,0,16.11,7.33,36.7,36.7,0,0,0,11.67-1.45v.48c0,.34,0,.69,0,1v.91C160.07,185.58,160.07,186.09,160.07,186.61Z" transform="translate(0 0)"/><path d="M159.11,222.41c.39-.54,1.2.1.82.65l-20,28-.19.27a6.7,6.7,0,0,0-.83-.56l0,0Q149,236.59,159.11,222.41Z" transform="translate(0 0)"/><path class="cls-2" d="M153.53,67a6.63,6.63,0,0,1,.3,5.95.44.44,0,0,0-.26.26c-.28.64-.57,1.26-.88,1.87-3.66-1.08-7.46-3.56-6-7.75C147.85,64.19,151.82,64.38,153.53,67Z" transform="translate(0 0)"/><path d="M147.27,117.75a5.69,5.69,0,0,1-3.19,5.12c-.78-.43-1.59-.84-2.4-1.22a48.36,48.36,0,0,0-5.56-2.21,5.53,5.53,0,0,1-.26-1.69,5.71,5.71,0,0,1,11.41,0Z" transform="translate(0 0)"/><path d="M144.08,122.87a5,5,0,0,1-1.36.47h0a45.13,45.13,0,0,0-6-2.61h0a5.36,5.36,0,0,1-.58-1.29,48.36,48.36,0,0,1,5.56,2.21C142.49,122,143.3,122.44,144.08,122.87Z" transform="translate(0 0)"/><path d="M139.77,251.36a8.86,8.86,0,0,1,2,11.83,11,11,0,0,1-14,4.39.45.45,0,0,1-.28-.4l.82.22c.11-.17.24-.34.36-.51a10,10,0,0,0,11.48-3.1c2.77-3.45,2.78-8.59-.68-11.39l0,0a2.91,2.91,0,0,0-.27-.24l.11-.15Z" transform="translate(0 0)"/><path d="M142.71,123.34a5.38,5.38,0,0,1-1.14.12,5.67,5.67,0,0,1-4.86-2.73A45.13,45.13,0,0,1,142.71,123.34Z" transform="translate(0 0)"/><path class="cls-2" d="M139.51,252.4c3.46,2.8,3.45,7.94.68,11.39a10,10,0,0,1-11.48,3.1l.06-.08a3.1,3.1,0,0,1-1-.61c-5.2-1.38-10.41-2.8-15.59-4.26a5.75,5.75,0,0,0,.48-.63c.16-.21.33-.42.5-.62.34-.41.69-.81,1.06-1.19a25.9,25.9,0,0,1,2.29-2.16,26.38,26.38,0,0,1,5.22-3.36,26.35,26.35,0,0,1,2.85-1.19,23.85,23.85,0,0,1,3-.84c.3-.06.59-.15.88-.21s.61-.1.91-.14c.63-.1,1.26-.17,1.9-.23a26.18,26.18,0,0,1,3.86,0c.36,0,.72.07,1.08.11a3.36,3.36,0,0,1,2.25.2,2.71,2.71,0,0,1,.37.21,2.42,2.42,0,0,1,.36.27h0a2.91,2.91,0,0,1,.27.24Z" transform="translate(0 0)"/><path d="M139.77,251.36l-.44.62-.11.15a1.78,1.78,0,0,0-.37-.26,2.71,2.71,0,0,0-.37-.21.56.56,0,0,1,.05-.88c.11,0,.22,0,.33.06l0-.06,0,0A6.7,6.7,0,0,1,139.77,251.36Z" transform="translate(0 0)"/><path d="M139.63,303.76c0,.15,0,.3.05.45-.35,0-.71.06-1.06.08,0-.2-.05-.39-.07-.58Z" transform="translate(0 0)"/><path class="cls-2" d="M138.85,306.49a145,145,0,0,1,.58,17.84c0,.58,0,1.16-.07,1.74a376,376,0,0,1-39.86-.47l0-.35a.52.52,0,0,0,.39-.18L118,303.42c.4-.48.81-.94,1.23-1.42h0c3.2.71,6.41,1.3,9.65,1.76a49.24,49.24,0,0,0,9.69.53l.12,1.11C138.78,305.76,138.81,306.13,138.85,306.49Z" transform="translate(0 0)"/><path d="M139.36,326.07c0,.29,0,.58,0,.88-2.51.12-5,.2-7.54.25-9.68.18-19.36-.13-29-.6-9.18-.44-18.72-.54-27.62-2.68-7.05-1.7-13.93-5.06-17.88-10.46a16.19,16.19,0,0,1-1.67-2.85l1-.18a15.56,15.56,0,0,0,.81,1.5,22.34,22.34,0,0,0,7.93,7.26c7.32,4.24,16.35,5.28,25,5.85,3,.2,6.1.39,9.15.56A376,376,0,0,0,139.36,326.07Z" transform="translate(0 0)"/><path d="M139.22,252.13h0a2.42,2.42,0,0,0-.36-.27A1.78,1.78,0,0,1,139.22,252.13Z" transform="translate(0 0)"/><path d="M138.9,250.78l0,.06c-.11,0-.22-.05-.33-.06A.37.37,0,0,1,138.9,250.78Z" transform="translate(0 0)"/><path d="M136.12,119.44a5.36,5.36,0,0,0,.58,1.29c-.49-.18-1-.34-1.48-.5a46.5,46.5,0,0,0-28,0,3,3,0,0,0-.71-.88A47.7,47.7,0,0,1,136.12,119.44Z" transform="translate(0 0)"/><path d="M131.35,175.62l.06.08c-.53.16-1.07.3-1.62.43l-.54.13h0l-1.19.26q-1.08.22-2.19.39l-1.07.15h-.07l-1.47.18h-.14c-.55.06-1.1.11-1.66.15l-1.6.1s0,0,0,0a0,0,0,0,1,0,0l-1.67.06a.52.52,0,0,0-.89,0h-2.8a65.33,65.33,0,0,1-11-1.13,66.54,66.54,0,0,1-14.16-4.37,6.66,6.66,0,0,1-.56.5,2.31,2.31,0,0,1,.07.47v.13a5.2,5.2,0,0,1,0,1h0c-.26,2.31-1.63,4.79-2.58,6.95-.17.39-.33.78-.47,1.15l-.13.37c-.88,2.43-1.7,4.89-2.44,7.37q-1.78,5.91-3,11.95h0a1.57,1.57,0,0,1-.85,1h-.37l-8-.08-1.13,0-4.24,0c-2.4,0-6.17.66-6.27-2.7a12,12,0,0,1,1.24-4.33q1.14-2.94,2.27-5.9l2.07-5.36a5.58,5.58,0,0,0,.67-.28c.2-.09.39-.2.59-.31h0l-4,10.42c-.56,1.45-2,3.74-1.83,5.28.36,3,5.76,2.18,7.78,2.2l2.09,0h1.11l7.79.09a144.11,144.11,0,0,1,4.77-17.44c.12-.35.24-.7.37-1h0c.17-.53.36-1.05.55-1.57h0c.43-1.18.87-2.35,1.34-3.52a23.68,23.68,0,0,0,1.66-4.17,3.5,3.5,0,0,0,.07-.45,2.9,2.9,0,0,0,0-.59s0,0,0,0l0,0-.57.3a10.12,10.12,0,0,1-3.39.94h-.08l-.46,0a18.77,18.77,0,0,1-4.42-.22,37,37,0,0,1-3.94-.83c-.31-.08-.62-.16-.92-.26h0c-.52-.15-1-.31-1.55-.49l-.59-.2a4.33,4.33,0,0,0-1.3.77h0a4.57,4.57,0,0,0-.44.44,2.65,2.65,0,0,0-.44.78c-.23.54-.39,1.18-.56,1.72a9.18,9.18,0,0,1-1.25.42c.22-.65.43-1.32.68-2a9,9,0,0,1,.5-1.09A4.81,4.81,0,0,1,70.38,172a36.5,36.5,0,0,1-22.63-34.32c.1-4.72,1.26-9.85,4.2-13.48a12,12,0,0,1,.82-.92,12.38,12.38,0,0,1,5.1-3.2c.28-.09.57-.18.85-.25,0,.36,0,.73.07,1.09a11.73,11.73,0,0,0-5.52,3.27l-.24.27a11.82,11.82,0,0,0-.77.95c-4.86,6.5-4.11,16.7-1.76,23.92A35.1,35.1,0,0,0,67,169.24a36.13,36.13,0,0,0,4.65,2.13c.75.28,1.52.54,2.29.76l.06,0c.5.15,1,.29,1.51.42h0a32.09,32.09,0,0,0,3.49.68,15,15,0,0,0,7-.29l0,0a6.25,6.25,0,0,0,1.17-.55l.22-.14a6.18,6.18,0,0,0,.83-.62l.07-.06a6.31,6.31,0,0,0,.66-.71,4.81,4.81,0,0,0,.59-.9,4.57,4.57,0,0,0,.23-3.86s0,0,0,0a82.38,82.38,0,0,0-7.92-13.59,31.3,31.3,0,0,0-6-6.47c.43-.06.86-.14,1.29-.22a30.6,30.6,0,0,1,4.53,4.84,79.42,79.42,0,0,1,8.63,14.32,8.94,8.94,0,0,1,.76,2.54,6,6,0,0,1-1.16,3.83,65.44,65.44,0,0,0,21.18,5.16c2.09.15,4.27.22,6.49.18l1.11,0a50.43,50.43,0,0,0,12.09-1.75C131,175.12,131.16,175.37,131.35,175.62Z" transform="translate(0 0)"/><path d="M129.25,176.26l.54-.13Z" transform="translate(0 0)"/><path d="M128.05,176.52l1.19-.26C128.85,176.36,128.45,176.44,128.05,176.52Z" transform="translate(0 0)"/><path class="cls-2" d="M128.38,170.76a27.05,27.05,0,0,0,2.42,4.1,50.43,50.43,0,0,1-12.09,1.75l-1.11,0c-2.22,0-4.4,0-6.49-.18a65.44,65.44,0,0,1-21.18-5.16,6,6,0,0,0,1.16-3.83,8.94,8.94,0,0,0-.76-2.54,79.42,79.42,0,0,0-8.63-14.32,30.6,30.6,0,0,0-4.53-4.84,30.32,30.32,0,0,0,3.09-.77c8.5,3,17.79,1.84,26.5-.74,1.09,2.8,6.3,2.77,8.66,2.31a8.49,8.49,0,0,0,7.21-7.92c.72-.17,1.44-.3,2.18-.41-.23,10.37-1,22.06,3.18,31.66C128.11,170.19,128.24,170.47,128.38,170.76Z" transform="translate(0 0)"/><path d="M128.19,266.66l.52.23c-.12.17-.25.34-.36.51l-.82-.22A.47.47,0,0,1,128.19,266.66Z" transform="translate(0 0)"/><path class="cls-2" d="M125.58,239.52c.5,3.83,1.14,7.63,1.87,11.41a27.5,27.5,0,0,0-8.09,3.22.43.43,0,0,0-.42-.14l-8.38,1.34a213.13,213.13,0,0,1-3.73-23.7,217.36,217.36,0,0,1-1-29.09l1.5-1.54c1.81-1.87,3.68-3.78,5.42-5.79-.37,2.09-1.2,5.11-.39,7.05s3.26,1.86,5,2.15q3.18.54,6.35,1.14A230.82,230.82,0,0,0,125.58,239.52Z" transform="translate(0 0)"/><path d="M124.79,177.06l1.07-.15C125.51,177,125.15,177,124.79,177.06Z" transform="translate(0 0)"/><path d="M124.83,137.23a.5.5,0,0,1,.1,1l-.12,0C124.82,137.9,124.82,137.56,124.83,137.23Z" transform="translate(0 0)"/><path d="M124.83,137.23c0,.33,0,.67,0,1-.74.11-1.46.24-2.18.41v0c0-.64-1-.77-1-.13,0,.13,0,.26,0,.39a30.72,30.72,0,0,0-4.3,1.47.51.51,0,0,1-.21.16l-1.19.49-.26-.35a.5.5,0,0,0-.81.6l.1.14c-2.34.93-4.76,1.81-7.23,2.57a1.74,1.74,0,0,1-.15-.52.45.45,0,0,0-.35-.4c3-.93,6-2,8.76-3.19l.11-.08a31.66,31.66,0,0,1,8.72-2.55Z" transform="translate(0 0)"/><path d="M121.45,177.41c.56,0,1.11-.09,1.66-.15C122.56,177.32,122,177.37,121.45,177.41Z" transform="translate(0 0)"/><path d="M121.64,138.5c0-.64,1-.51,1,.13v0l-1,.24C121.63,138.76,121.63,138.63,121.64,138.5Z" transform="translate(0 0)"/><path d="M121.61,138.89l1-.24a8.49,8.49,0,0,1-7.21,7.92c-2.36.46-7.57.49-8.66-2.31l.95-.29c1.07,2.58,7.17,1.89,9,1.22l.54-.22A7.21,7.21,0,0,0,121.61,138.89Z" transform="translate(0 0)"/><path class="cls-2" d="M121.71,5.86c1,1.95.74,5.41-2.06,5-1.71-.23-1.89-2.28-.93-3.46A6.18,6.18,0,0,1,121.3,6Z" transform="translate(0 0)"/><path d="M119.85,177.51l1.6-.1C120.92,177.45,120.38,177.49,119.85,177.51Z" transform="translate(0 0)"/><path d="M120.67,413c-.09.28-.19.55-.28.83-.21.61-1.13.21-.93-.39l.17-.5Z" transform="translate(0 0)"/><path class="cls-5" d="M121.61,138.89a7.21,7.21,0,0,1-4.39,6.08l-.77-1.84a.5.5,0,0,0,.43-.79l-1-1.33,1.19-.49a.51.51,0,0,0,.21-.16A30.72,30.72,0,0,1,121.61,138.89Z" transform="translate(0 0)"/><path d="M119.28,302h0l-.1,0Z" transform="translate(0 0)"/><path d="M119.17,302l.1,0c-.42.48-.83.94-1.23,1.42L99.91,325.07a.52.52,0,0,1-.39.18.35.35,0,0,1-.26-.1c-6.68-6.38-13.71-12.54-19.9-19.4-.07-.08-.14-.15-.2-.23l1-.27h0c.56.63,1.13,1.24,1.71,1.84,5.65,5.89,11.73,11.4,17.64,17q9.31-11.13,18.64-22.26l1,.11h0Z" transform="translate(0 0)"/><path d="M118.11,177.57l1.67-.06c-.86.05-1.71.08-2.56.09A.52.52,0,0,1,118.11,177.57Z" transform="translate(0 0)"/><path class="cls-6" d="M119.12,302l-1-.11q-9.3,11.14-18.64,22.26c-5.91-5.63-12-11.14-17.64-17-.58-.6-1.15-1.21-1.71-1.84,1.67-.43,3.32-.87,5-1.33q9.54-2.62,18.91-5.89h0l2.39.61h0C110.62,299.91,114.85,301,119.12,302Z" transform="translate(0 0)"/><path class="cls-3" d="M110.77,256.33l7-1.11a27,27,0,0,0-5.92,5.64c-.2.26-.4.53-.59.8l-.17-.05q-5.94-1.67-11.84-3.43l10.65-1.7Z" transform="translate(0 0)"/><path d="M117.25,429.23a.47.47,0,0,1-.19.41c.12,1.47.19,2.95.19,4.42,0,.34,0,.67,0,1,0,1.55-.12,3.11-.29,4.66-.12,1.12-.25,2.32-.44,3.54v0c-.09.57-.19,1.16-.3,1.74h0c-.59,3-1.6,5.9-3.63,7.93-2.72,2.72-6.7,3-10.33,2.84-10.37-.34-21.14-1.12-31.06-4.35-4.62-1.5-9.58-3.56-13.24-6.85-3.23-2.89-4.55-6.93-5-11.14-.54-5.48-.23-11.09-.24-16.58v-.18a1.46,1.46,0,0,0,.05.2,18,18,0,0,0,.92,2.62v.13c-.05,4.43-.17,8.89.22,13.28.49,5.51,2.58,9.86,7.33,12.9a48,48,0,0,0,13.88,5.74,121.08,121.08,0,0,0,28,3.26c2.7,0,5.64-.19,7.88-1.86,2.07-1.55,3-4,3.69-6.39.32-1.19.58-2.41.79-3.63.14-.76.26-1.51.35-2.28a52.9,52.9,0,0,0,.41-5.63c0-.33,0-.67,0-1,0-1.25,0-2.5-.11-3.74,0-.6-.1-1.2-.17-1.8a2.08,2.08,0,0,0,.21-.21c-.61-12.21-5.11-23.69-7.57-35.58-2-9.82-1.21-19.83-1.87-29.73a253.27,253.27,0,0,0-22.28-15c-.55-.33.07-1.11.62-.79a256,256,0,0,1,21.56,14.49l1,.79q2.54,1.91,5,3.88c.5.4-.12,1.19-.62.79-1.42-1.13-2.86-2.25-4.31-3.34.57,9.6-.14,19.3,1.83,28.81C112.15,404.83,116.85,416.62,117.25,429.23Z" transform="translate(0 0)"/><path class="cls-5" d="M116.45,143.13l.77,1.84-.54.22c-1.8.67-7.9,1.36-9-1.22,2.47-.76,4.89-1.64,7.23-2.57h0c.38.51.75,1,1.13,1.53A.45.45,0,0,0,116.45,143.13Z" transform="translate(0 0)"/><path class="cls-2" d="M117.22,177.6a.35.35,0,0,0-.06.14c-.06.23-.13.45-.19.68a.56.56,0,0,0,0,.08h0c-.09.26-.16.52-.25.77a1.59,1.59,0,0,0-.07.2,0,0,0,0,1,0,0c-.29.87-.58,1.73-.84,2.6,0,.1-.07.2-.1.3s-.14.45-.19.67-.1.32-.14.48a19.75,19.75,0,0,0-2.51-2.07h0a55.47,55.47,0,0,0-8-4.31.53.53,0,0,0-.24,0,9.07,9.07,0,0,0-.89-.26.46.46,0,0,0-.33-.14l.05-.26a65.33,65.33,0,0,0,11,1.13h2.8Z" transform="translate(0 0)"/><path d="M116.88,142.34a.5.5,0,0,1-.43.79.45.45,0,0,1-.37-.2c-.38-.5-.75-1-1.13-1.53l1-.39Z" transform="translate(0 0)"/><path d="M116.27,434.05c0,.33,0,.67,0,1l-1.32,0-1,0,0-.21-.12-.8,1,0Z" transform="translate(0 0)"/><path class="cls-2" d="M114.94,435l1.32,0a52.9,52.9,0,0,1-.41,5.63c-.09.77-.21,1.52-.35,2.28-.21,1.22-.47,2.44-.79,3.63-.64,2.41-1.62,4.84-3.69,6.39-2.24,1.67-5.18,1.9-7.88,1.86a121.08,121.08,0,0,1-28-3.26,48,48,0,0,1-13.88-5.74c-4.75-3-6.84-7.39-7.33-12.9-.39-4.39-.27-8.85-.22-13.28a13.17,13.17,0,0,0,7,6.9c4.81,2.12,10.37,3,15.49,4.06A215.69,215.69,0,0,0,113.93,435Z" transform="translate(0 0)"/><path d="M115.91,141l-1,.39h0l-.1-.14a.5.5,0,0,1,.81-.6Z" transform="translate(0 0)"/><path d="M115.33,183.55c-.11.34-.2.69-.3,1a3.84,3.84,0,0,0-.28-.3,29.43,29.43,0,0,0-7-4.66h0c-1.06-.55-2.12-1.05-3.15-1.54a.45.45,0,0,1-.16,0,7.32,7.32,0,0,0-1.13-.33h0l-.14,0a19.07,19.07,0,0,0-16,11.7,20,20,0,0,0,1.07,16.26c.19.34.4.66.61,1a12.46,12.46,0,0,0,2.61,2.81c4,3.12,8.36-2.3,11.06-4.87.83-.79,1.65-1.59,2.47-2.4h0l1-1h0q2.46-2.49,4.79-5.12c.68-.76,1.53-1.64,2.37-2.59-.08.45-.15.88-.22,1.33,0,.14,0,.28-.07.42-1.74,2-3.61,3.92-5.42,5.79l-1.5,1.54a217.36,217.36,0,0,0,1,29.09,213.13,213.13,0,0,0,3.73,23.7l-.92.15c-.31-1.43-.6-2.86-.88-4.3a219.13,219.13,0,0,1-3.85-47.68c-2,2-4,3.92-6.17,5.69s-4.65,3-7.23,1.4a10.59,10.59,0,0,1-3.05-3.06l-1.14,3q-3.7,14.28-7.42,28.56-1.58,6.1-3.17,12.21l-.87-.28Q81,231.1,86.2,211.2a.42.42,0,0,1,0-.33l1.65-4.29a22.23,22.23,0,0,1-1.4-2.87,19.29,19.29,0,0,1-.62-12.83,19.9,19.9,0,0,1,13.64-13.47.28.28,0,0,1,.13,0l.21-.06a18,18,0,0,1,1.83-.39h0c.56-.09,1.12-.16,1.7-.2h0a.46.46,0,0,1,.33.14,9.07,9.07,0,0,1,.89.26.53.53,0,0,1,.24,0,55.47,55.47,0,0,1,8,4.31h0A19.75,19.75,0,0,1,115.33,183.55Z" transform="translate(0 0)"/><path class="cls-6" d="M114.75,184.28a3.84,3.84,0,0,1,.28.3,89.74,89.74,0,0,0-2,8.89h0c-.84,1-1.69,1.83-2.37,2.59q-2.33,2.63-4.79,5.12h0l-1,1h0c-.82.81-1.64,1.61-2.47,2.4-2.7,2.57-7.06,8-11.06,4.87a12.46,12.46,0,0,1-2.61-2.81c-.21-.32-.42-.64-.61-1a20,20,0,0,1-1.07-16.26,19.07,19.07,0,0,1,16-11.7l.14,0h0a7.32,7.32,0,0,1,1.13.33.45.45,0,0,0,.16,0c1,.49,2.09,1,3.15,1.54h0A29.43,29.43,0,0,1,114.75,184.28Z" transform="translate(0 0)"/><path d="M113.9,434.79l0,.21a215.69,215.69,0,0,1-37.74-4.38c-5.12-1.05-10.68-1.94-15.49-4.06a13.17,13.17,0,0,1-7-6.9v-.13a18,18,0,0,1-.92-2.62,1.46,1.46,0,0,1-.05-.2,53.14,53.14,0,0,1-1.42-9.12l-1.77-.29a117.33,117.33,0,0,1-30.21-8.91,64.62,64.62,0,0,1-13.28-7.82c-4-3.23-1.23-7.55.18-11.56Q18.11,345.26,30,311.52l.37,0h0c.21.06.41.11.62.15q-5.87,16.68-11.75,33.36c-4.64,13.16-9.63,26.25-13.92,39.53-1.34,4.13,2,5.78,4.92,7.67a77.9,77.9,0,0,0,6.92,4A94.18,94.18,0,0,0,31.43,402a138.1,138.1,0,0,0,19.79,4.56l1.09.17c0,.34,0,.68.08,1,.09,1.2.19,2.43.33,3.65v.13a29.19,29.19,0,0,0,1,5.22h0A16.3,16.3,0,0,0,55.5,421c3,4.82,8.84,5.91,13.93,7.14q8,1.94,16.16,3.24A218.24,218.24,0,0,0,113.78,434Z" transform="translate(0 0)"/><path class="cls-6" d="M109.64,255.5l-12.66,2q-10.16-3-20.25-6.23,1.59-6.11,3.17-12.21,3.7-14.28,7.42-28.56l1.14-3a10.59,10.59,0,0,0,3.05,3.06c2.58,1.6,5.11.33,7.23-1.4s4.19-3.71,6.17-5.69a219.13,219.13,0,0,0,3.85,47.68C109,252.64,109.33,254.07,109.64,255.5Z" transform="translate(0 0)"/><path d="M107.71,144l-.95.29a2.22,2.22,0,0,1-.19-.68.45.45,0,0,1,.1-.37l.53-.16s0,0,0,0a.45.45,0,0,1,.35.4A1.74,1.74,0,0,0,107.71,144Z" transform="translate(0 0)"/><path d="M107.18,120.22a2.15,2.15,0,0,1-.21,2.43,3.47,3.47,0,0,1-2.75,1.37.43.43,0,0,1-.26.09l-11.32.11c.14-.34.29-.67.45-1l6.64-.06a.41.41,0,0,0,.44,0l.68-.35a16.81,16.81,0,0,0,3.37.23c1.35-.06,1.92-.87,1.71-2.42Z" transform="translate(0 0)"/><path d="M106.67,143.21a.52.52,0,0,1,.53-.16Z" transform="translate(0 0)"/><path d="M106.57,143.58a2.22,2.22,0,0,0,.19.68c-8.71,2.58-18,3.7-26.5.74l.08,0c.64-.19.24-1.15-.39-1l-.52.15a.51.51,0,0,1,.67-.32c8.46,3.13,17.83,2,26.57-.64A.45.45,0,0,0,106.57,143.58Z" transform="translate(0 0)"/><path d="M106.47,119.34a3,3,0,0,1,.71.88l-1.25.41c0-.17-.05-.36-.09-.55s-.36-.23-.54-.33Z" transform="translate(0 0)"/><path d="M105.87,118.91a3.82,3.82,0,0,1,.6.43l-1.17.41a6.14,6.14,0,0,0-.92-.38,29.13,29.13,0,0,0-6.5-1.21.5.5,0,0,0-.64-.64,7.16,7.16,0,0,0-1,.48,49.24,49.24,0,0,0-5.83-.14l.24-.07a.55.55,0,0,0,.25-.91c1.61,0,3.23,0,4.84.09C98.9,117.17,103.08,117.31,105.87,118.91Z" transform="translate(0 0)"/><path d="M105.93,120.63c.21,1.55-.36,2.36-1.71,2.42a16.81,16.81,0,0,1-3.37-.23A43.69,43.69,0,0,1,105.93,120.63Z" transform="translate(0 0)"/><path d="M105.84,120.08c0,.19.07.38.09.55a43.69,43.69,0,0,0-5.08,2.19l-.59,0a.54.54,0,0,0-.51.37h0a.57.57,0,0,1,0-1,42.36,42.36,0,0,1,5.52-2.45Q105.57,119.9,105.84,120.08Z" transform="translate(0 0)"/><path d="M104.38,119.37a6.14,6.14,0,0,1,.92.38,42.36,42.36,0,0,0-5.52,2.45.57.57,0,0,0,0,1l-6.64.06a9,9,0,0,1,4.52-4.77.43.43,0,0,0,.27-.29A29.13,29.13,0,0,1,104.38,119.37Z" transform="translate(0 0)"/><path class="cls-2" d="M103.43,176.47l-.05.26h0c-.58,0-1.14.11-1.7.2h0a18,18,0,0,0-1.83.39l-.21.06a.28.28,0,0,0-.13,0,19.9,19.9,0,0,0-13.64,13.47l-2.71-.79c.74-2.48,1.56-4.94,2.44-7.37l.13-.37c.14-.37.3-.76.47-1.15,1-2.16,2.32-4.64,2.58-6.95h0a5.2,5.2,0,0,0,0-1v-.13a2.31,2.31,0,0,0-.07-.47,6.66,6.66,0,0,0,.56-.5A66.54,66.54,0,0,0,103.43,176.47Z" transform="translate(0 0)"/><path d="M100.85,122.82l-.68.35a.41.41,0,0,1-.44,0h0a.54.54,0,0,1,.51-.37Z" transform="translate(0 0)"/><path class="cls-2" d="M99.52,325.25l0,.35c-3-.17-6.11-.36-9.15-.56-8.65-.57-17.68-1.61-25-5.85a22.34,22.34,0,0,1-7.93-7.26,15.56,15.56,0,0,1-.81-1.5l3.71-.72q9.48-1.8,18.83-4.19h0c.06.08.13.15.2.23,6.19,6.86,13.22,13,19.9,19.4A.35.35,0,0,0,99.52,325.25Z" transform="translate(0 0)"/><path d="M97.24,117.52a.5.5,0,0,1,.64.64l-.37,0L96.28,118A7.16,7.16,0,0,1,97.24,117.52Z" transform="translate(0 0)"/><path d="M97.51,118.12l.37,0a.43.43,0,0,1-.27.29,9,9,0,0,0-4.52,4.77h-1A10.56,10.56,0,0,1,96.28,118Z" transform="translate(0 0)"/><path d="M90.45,117.86a49.24,49.24,0,0,1,5.83.14,10.56,10.56,0,0,0-4.21,5.23l-2.77,0-2.45,0c.62-2.27,1.74-4.77,3.58-5.41Z" transform="translate(0 0)"/><path d="M93.09,123.22c-.16.33-.31.66-.45,1h-1c.13-.34.27-.67.42-1Z" transform="translate(0 0)"/><path d="M91.65,124.23h1c-.79,1.86-1.36,3.86-2,5.57-.89,2.29-2.18,2.72-4.49,1.28-1.84-1.15-1.08-4.73-.54-6.78h1c-.15.64-.25,1.24-.32,1.73a9.17,9.17,0,0,0-.15,2c.11,1.18,1.49,3.91,3.25,2.19.61-.6.92-2.46,1.23-3.27S91.28,125.13,91.65,124.23Z" transform="translate(0 0)"/><path d="M89.3,123.26l2.77,0c-.15.33-.29.66-.42,1H90.4l-3.79,0c.06-.32.15-.66.24-1Z" transform="translate(0 0)"/><path d="M90.4,124.24h1.25c-.37.9-.7,1.82-1,2.72s-.62,2.67-1.23,3.27c-1.76,1.72-3.14-1-3.25-2.19a9.17,9.17,0,0,1,.15-2c.07-.49.17-1.09.32-1.73Z" transform="translate(0 0)"/><path d="M90.94,116.88a.55.55,0,0,1-.25.91l-.24.07h0c-.64,0-1.28.06-1.91.12a4.23,4.23,0,0,1,1.68-1.08Z" transform="translate(0 0)"/><path d="M90.56,116.8a.4.4,0,0,1,.38.08l-.74,0Z" transform="translate(0 0)"/><path d="M88.52,118c.63-.06,1.27-.1,1.91-.12-1.84.64-3,3.14-3.58,5.41h-1A12.17,12.17,0,0,1,88.52,118Z" transform="translate(0 0)"/><path d="M90.2,116.91A4.23,4.23,0,0,0,88.52,118a37.22,37.22,0,0,0-5,.75,9.07,9.07,0,0,0-3.42,1.34c-1.35.73-1.39,1.81-.14,3.24l-.1.12a12.26,12.26,0,0,0-2.13-1.5,3.23,3.23,0,0,1,.35-1.12c1.15-2.23,4.13-2.88,6.37-3.28A43.89,43.89,0,0,1,90.2,116.91Z" transform="translate(0 0)"/><path d="M87.83,173.25a2.9,2.9,0,0,1,0,.59l-.62-.29.57-.3,0,0S87.84,173.24,87.83,173.25Z" transform="translate(0 0)"/><path class="cls-2" d="M87.85,206.58l-1.65,4.29a.42.42,0,0,0,0,.33Q81,231.11,75.86,251l-5.74-1.85-1.05-.34-.69.85c-.15.19-.3.37-.44.56a24.78,24.78,0,0,0-9.57-1.1c.15-.88.3-1.75.47-2.62.06-.35.12-.69.19-1A257.25,257.25,0,0,1,69.09,208c.59-1.68,1.18-3.39,1.81-5.09l8,.08h.37a1.57,1.57,0,0,0,.85-1h0q1.26-6,3-11.95l2.71.79a19.29,19.29,0,0,0,.62,12.83A22.23,22.23,0,0,0,87.85,206.58Z" transform="translate(0 0)"/><path class="cls-3" d="M87.22,173.55l.62.29a3.5,3.5,0,0,1-.07.45,23.68,23.68,0,0,1-1.66,4.17c-.47,1.17-.91,2.34-1.34,3.52h0c-.19.52-.38,1-.55,1.57h0c-.13.35-.25.7-.37,1A144.11,144.11,0,0,0,79.06,202L71.27,202H70.16l-2.09,0c-2,0-7.42.84-7.78-2.2-.18-1.54,1.27-3.83,1.83-5.28l4-10.42,0,0,.52-1.35.22-.57L68.45,178h0c.16-.43.32-.85.49-1.28.06-.15.11-.31.16-.48.17-.54.33-1.18.56-1.72a2.65,2.65,0,0,1,.44-.78,4.57,4.57,0,0,1,.44-.44h0a4.33,4.33,0,0,1,1.3-.77l.59.2c.51.18,1,.34,1.55.49h0c.3.1.61.18.92.26a37,37,0,0,0,3.94.83,18.77,18.77,0,0,0,4.42.22l.46,0h.08A10.12,10.12,0,0,0,87.22,173.55Z" transform="translate(0 0)"/><path d="M88.52,118a12.17,12.17,0,0,0-2.67,5.3q-1.66,0-3.33,0c-.84,0-1.68,0-2.53,0-1.25-1.43-1.21-2.51.14-3.24a9.07,9.07,0,0,1,3.42-1.34A37.22,37.22,0,0,1,88.52,118Z" transform="translate(0 0)"/><path d="M86.85,123.28c-.09.34-.18.68-.24,1h-1c0-.22.1-.41.15-.59s.07-.27.11-.41Z" transform="translate(0 0)"/><path d="M85.85,123.29c0,.14-.07.28-.11.41s-.1.37-.15.59h-1a36.6,36.6,0,0,1-4.38.12.53.53,0,0,0,0-.74,3.22,3.22,0,0,0-.28-.24l.1-.12c.85,0,1.69,0,2.53,0Q84.19,123.32,85.85,123.29Z" transform="translate(0 0)"/><path class="cls-3" d="M102.29,297.58Q91,301.43,79.4,304.41l-1,.26q-5.62,1.43-11.31,2.65c-3.6.77-7.24,1.54-10.89,2.2l-1,.19-.74.13-1,.17c-3.38.56-6.77,1-10.16,1.3l-1.16.09a38.69,38.69,0,0,1-11.76-.9h0a22.87,22.87,0,0,1-9-4.32,18.54,18.54,0,0,1-6-8.82q2.55-12,4.8-24l.18-1q1.88-10.09,3.52-20.23,2.37-14.52,4.29-29.11c.63-4.82,1.19-9.66,1.79-14.49.28-2.25.65-4.49,2.17-6.27s3.64-3,5.51-4.2a189.79,189.79,0,0,1,22.81-12.94h0c.88-.43,1.76-.85,2.65-1.26l.06,0c.76-.36,1.52-.71,2.29-1a1,1,0,0,0,0,.16h0c-.21.53-.41,1.07-.62,1.6L62.77,190q-1.12,3-2.27,5.9a12,12,0,0,0-1.24,4.33c.1,3.36,3.87,2.67,6.27,2.7l4.24,0c-1.89,4.91-3.44,9.94-5,14.91q-3.69,12.09-6.19,24.41c-.2,1-.39,1.94-.56,2.9-.07.35-.14.69-.2,1-.19,1-.38,2-.55,3.07a23.76,23.76,0,0,0-2.87.54c-7.89,2-14.24,7.6-19.51,13.54-2.55,2.86-5.18,6-6.21,9.79a11.5,11.5,0,0,0-.36,1.82,9.43,9.43,0,0,0-.07,1.06c-.05,2,.52,4,2.39,5s4.24.74,6.17.89l8.13.61,5.13.38h.09L53.74,284c.32.11.65.2,1,.29h0l1.32.39c.33.11.65.21,1,.3q6.33,1.89,12.69,3.72l1,.29Q86.45,293.48,102.29,297.58Z" transform="translate(0 0)"/><path d="M80.7,100.38c1.86,2.6,1.27,5.79.69,8.62a.63.63,0,0,1-1.1.16.36.36,0,0,1,0-.29c.45-2.22,1-4.64.08-6.83-.82-2-2.77-3.06-4.94-3.7l.08-.24c.79.27,1.58.5,2.39.72h0c.59.16,1.18.31,1.78.44A5.87,5.87,0,0,1,80.7,100.38Z" transform="translate(0 0)"/><path d="M80,144c.63-.19,1,.77.39,1l-.08,0c-.19-.05-.37-.12-.56-.19a.46.46,0,0,1-.27-.64Z" transform="translate(0 0)"/><path class="cls-2" d="M80.33,102c.91,2.19.37,4.61-.08,6.83a.36.36,0,0,0,0,.29l-2.85.71A5.7,5.7,0,1,0,70.3,117l-.38,2.67-.18,0c-3.6-.5-7.45-.81-11,.15-.28.07-.57.16-.85.25a12.38,12.38,0,0,0-5.1,3.2c-1.51-7.25-.42-14.57,1.47-21.7a85.11,85.11,0,0,1,5-14.06q.69.83,1.38,1.53a33.88,33.88,0,0,0,3.54,3.18,35.49,35.49,0,0,0,7.67,4.53h0c-5.25.15-9.23,5.56-9.43,9.89,0,.64,1.11.78,1.14.13.09-2.27,1.36-4.18,2.82-6,1.87-2.33,4-3.51,7.43-2.79.51.11,1,.23,1.53.38C77.56,99,79.51,100,80.33,102Z" transform="translate(0 0)"/><path d="M80.17,123.68a.53.53,0,0,1,0,.74,4.79,4.79,0,0,1-1-.24,9.91,9.91,0,0,0-1.12-.84,2.1,2.1,0,0,1-.29-1.4,12.26,12.26,0,0,1,2.13,1.5A3.22,3.22,0,0,1,80.17,123.68Z" transform="translate(0 0)"/><path d="M79.7,144.81c.19.07.37.14.56.19a30.32,30.32,0,0,1-3.09.77l-.29-.24c-.35.15-.71.28-1.07.41l.07.05a27.24,27.24,0,0,1-6.45.23,39.71,39.71,0,0,1-7.36-1.79c-.13-.05-.27-.08-.4-.12l-.93-.25-.55-.13a16,16,0,0,0-2.68-.38c-.67,0-.53-1.06.13-1a13,13,0,0,1,2,.26l.61.13.81.2h0l.54.16A50.26,50.26,0,0,0,67.71,145a27.31,27.31,0,0,0,11.72-.8A.46.46,0,0,0,79.7,144.81Z" transform="translate(0 0)"/><path d="M80.21,124.42a.44.44,0,0,1-.68.07l-.36-.31A4.79,4.79,0,0,0,80.21,124.42Z" transform="translate(0 0)"/><path d="M79.07,98.82a6.31,6.31,0,0,1,.58.44c-.6-.13-1.19-.28-1.78-.44h0a11.68,11.68,0,0,0-4.71-1.95A5.54,5.54,0,0,0,72,96.73h.14a7.53,7.53,0,0,1,1.47.14,24.18,24.18,0,0,1,2.48.6,11.11,11.11,0,0,1,2.94,1.35Z" transform="translate(0 0)"/><path class="cls-2" d="M78,25c.56.61,1.27,1.71,1,2.61-.52,1.57-2.1.63-2.91,0A5.58,5.58,0,0,1,73.89,24,4.13,4.13,0,0,1,78,25Z" transform="translate(0 0)"/><path d="M78.05,123.34a9.91,9.91,0,0,1,1.12.84A2.16,2.16,0,0,1,78.05,123.34Z" transform="translate(0 0)"/><path d="M77.76,121.94a2.1,2.1,0,0,0,.29,1.4c-3.18-2.11-7.2-2.61-11-3a23.15,23.15,0,0,0-8.31.51c0-.36-.06-.73-.07-1.09,3.57-1,7.42-.65,11-.15l.18,0A22.31,22.31,0,0,1,77.76,121.94Z" transform="translate(0 0)"/><path d="M77.44,109.87a5.65,5.65,0,0,1,.26,1.7,5.71,5.71,0,0,1-5.71,5.7A5.53,5.53,0,0,1,70.3,117a5.7,5.7,0,1,1,7.14-7.14Z" transform="translate(0 0)"/><path d="M76.88,145.53l.29.24c-.43.08-.86.16-1.29.22l-.07-.05C76.17,145.81,76.53,145.68,76.88,145.53Z" transform="translate(0 0)"/><path d="M77.86,98.82c-.81-.22-1.6-.45-2.39-.72-1.21-.4-2.4-.85-3.57-1.36H72a5.54,5.54,0,0,1,1.13.14A11.68,11.68,0,0,1,77.86,98.82Z" transform="translate(0 0)"/><path d="M75.47,98.1l-.08.24c-.5-.15-1-.27-1.53-.38-3.38-.72-5.56.46-7.43,2.79-1.46,1.83-2.73,3.74-2.82,6,0,.65-1.17.51-1.14-.13.2-4.33,4.18-9.74,9.43-9.89C73.07,97.25,74.26,97.7,75.47,98.1Z" transform="translate(0 0)"/><path d="M72,96.73h0Z" transform="translate(0 0)"/><path d="M69.77,202.93l1.13,0c-.63,1.7-1.22,3.41-1.81,5.09A257.25,257.25,0,0,0,59,245.48c-.07.35-.13.69-.19,1-.17.87-.32,1.74-.47,2.62-.36,0-.71.06-1.07.11.17-1,.36-2,.55-3.07.06-.34.13-.68.2-1,.17-1,.36-1.93.56-2.9q2.49-12.31,6.19-24.41C66.33,212.87,67.88,207.84,69.77,202.93Z" transform="translate(0 0)"/><path class="cls-2" d="M70.38,172A4.81,4.81,0,0,0,69,173.62l-.39.06c-4.79.66-9.55-.6-14.25-1.32a59.57,59.57,0,0,0-25.25,1.91c-7.81,2.17-18.62,5.2-25.09-1.71C1.48,169.81.38,165.38,2,161.88c1.49-3.2,5.36-4.06,6.4-7.62.95-3.27-.08-6.77-.09-10.09,0-4.47,1.9-8.57,4.42-12.18,4.41-6.29,10.61-11.13,14.53-17.79a20.85,20.85,0,0,0,3.14-9.89c.13-4.08-1.22-8-1.75-12.06-.57-4.23-.56-9,2.18-12.5,2.3-3,6-4.47,8.93-6.68A29.3,29.3,0,0,0,47,64.88a18.22,18.22,0,0,0,4.13,8.39,8,8,0,0,0,2.2,1.65,18.56,18.56,0,0,0,2.19,7c.14.28.29.55.45.83a31.2,31.2,0,0,0,2.64,3.89,82.66,82.66,0,0,0-3.68,9.19c-2.14,6.42-3.86,13.2-3.93,20a34.6,34.6,0,0,0,1,8.4c-2.94,3.63-4.1,8.76-4.2,13.48A36.5,36.5,0,0,0,70.38,172Z" transform="translate(0 0)"/><path d="M69.11,176.25c0,.17-.1.33-.16.48-.17.43-.33.85-.49,1.28h0c-.39.1-.78.19-1.17.25.08-.19.15-.37.22-.56s.25-.68.36-1A9.18,9.18,0,0,0,69.11,176.25Z" transform="translate(0 0)"/><path d="M68.45,178l-1.56,4.05-.22.57L66.15,184l0,0h0a18.74,18.74,0,0,1,.71-1.89,12.24,12.24,0,0,1-1.34.87,1,1,0,0,1,0-.16l.13-.06a.52.52,0,0,0,.2-.79c.48-1.24,1-2.48,1.43-3.72C67.67,178.2,68.06,178.11,68.45,178Z" transform="translate(0 0)"/><path d="M66.81,182.12A18.74,18.74,0,0,0,66.1,184c-.2.11-.39.22-.59.31a5.58,5.58,0,0,1-.67.28c.21-.53.41-1.07.62-1.6h0A12.24,12.24,0,0,0,66.81,182.12Z" transform="translate(0 0)"/><path d="M65.85,182a.52.52,0,0,1-.2.79l-.13.06Z" transform="translate(0 0)"/><path class="cls-2" d="M67.26,251.11c-4.55,5.83-8.62,12-10.43,19.29a37.79,37.79,0,0,0-1,11.85l-1-.07-1-.08-3.53-.26h0l-4.6-.34h0L36,280.76c-2.25-.16-5.35,0-6.33-2.5a5.29,5.29,0,0,1-.35-1.94,5.42,5.42,0,0,1,0-1.06,13.39,13.39,0,0,1,.92-3.44c1.4-3.45,4.1-6.39,6.6-9.09,5-5.42,11.13-10.49,18.52-12.1.58-.13,1.16-.23,1.75-.31.35,0,.71-.1,1.07-.12A23.91,23.91,0,0,1,67.26,251.11Z" transform="translate(0 0)"/><path class="cls-2" d="M61.46,70.9c.31,4.24-4,4.69-7.08,3.43a.88.88,0,0,1,0-.17A6.08,6.08,0,0,1,56.16,69C58.12,67.39,61.25,68.08,61.46,70.9Z" transform="translate(0 0)"/><path d="M58.57,86.61c.24.31.48.6.72.88a85.11,85.11,0,0,0-5,14.06c-1.89,7.13-3,14.45-1.47,21.7a12,12,0,0,0-.82.92,34.6,34.6,0,0,1-1-8.4c.07-6.77,1.79-13.55,3.93-20A82.66,82.66,0,0,1,58.57,86.61Z" transform="translate(0 0)"/><path d="M56,284.36a2.89,2.89,0,0,0,0,.29l-1.32-.39h0c-.33-.09-.66-.18-1-.29l-3.55-1.09,3.57.26,1,.08h0l1.11.34C55.93,283.82,56,284.09,56,284.36Z" transform="translate(0 0)"/><path d="M54.8,283.21h0Z" transform="translate(0 0)"/><path d="M53.3,311l1-.18a411.73,411.73,0,0,0-3.4,77q.43,8.78,1.25,17.5c0,.47.08.95.13,1.43l-1.09-.17c-.14-1.85-.26-3.69-.41-5.5q-.77-9.22-1.11-18.48A412.56,412.56,0,0,1,53.3,311Z" transform="translate(0 0)"/><path class="cls-3" d="M50.81,401.07c.15,1.81.27,3.65.41,5.5A138.1,138.1,0,0,1,31.43,402a94.18,94.18,0,0,1-14.26-5.78,77.9,77.9,0,0,1-6.92-4c-2.94-1.89-6.26-3.54-4.92-7.67,4.29-13.28,9.28-26.37,13.92-39.53Q25.13,328.36,31,311.69a30.51,30.51,0,0,0,3.65.6c6.18.65,12.47-.16,18.65-1.26a412.56,412.56,0,0,0-3.6,71.56Q50,391.85,50.81,401.07Z" transform="translate(0 0)"/><path d="M50.17,282.87h0Z" transform="translate(0 0)"/><path d="M31,311.58h0a.42.42,0,0,1,0,.1c-.21,0-.41-.09-.62-.15Z" transform="translate(0 0)"/><path class="cls-7" d="M136.7,120.73a5.36,5.36,0,0,1-.58-1.29,5.53,5.53,0,0,1-.26-1.69,5.71,5.71,0,1,1,8.22,5.12" transform="translate(0 0)"/><path class="cls-7" d="M142.71,123.34a5.38,5.38,0,0,1-1.14.12,5.67,5.67,0,0,1-4.86-2.73" transform="translate(0 0)"/><path class="cls-7" d="M107.21,143.05c3-.93,6-2,8.76-3.19l.11-.08a31.66,31.66,0,0,1,8.72-2.55h0" transform="translate(0 0)"/><path class="cls-7" d="M114.94,141.4c-2.34.93-4.76,1.81-7.23,2.57l-.95.29c-8.71,2.58-18,3.7-26.5.74-.19-.05-.37-.12-.56-.19a.46.46,0,0,1-.27-.64.51.51,0,0,1,.67-.32c8.46,3.13,17.83,2,26.57-.64l.53-.16" transform="translate(0 0)"/><path class="cls-7" d="M124.81,138.24c-.74.11-1.46.24-2.18.41l-1,.24a30.72,30.72,0,0,0-4.3,1.47.51.51,0,0,1-.21.16l-1.19.49-1,.39" transform="translate(0 0)"/><path class="cls-7" d="M161.11,108.14c-1.52-7.14-8.52-10.85-15.45-10.24-8.64.76-15.72,7.15-21.21,13.35-.44.5.38,1.14.82.64,4.75-5.38,10.67-10.87,17.88-12.54,7-1.62,15.3,1.25,16.93,8.93C160.22,108.93,161.25,108.8,161.11,108.14Z" transform="translate(0 0)"/><path class="cls-7" d="M124.81,138.24c0-.34,0-.68,0-1" transform="translate(0 0)"/><path class="cls-7" d="M142.72,123.34h0a45.13,45.13,0,0,0-6-2.61h0c-.49-.18-1-.34-1.48-.5a46.5,46.5,0,0,0-28,0l-1.25.41a43.69,43.69,0,0,0-5.08,2.19l-.68.35a.41.41,0,0,1-.44,0,.57.57,0,0,1,0-1,42.36,42.36,0,0,1,5.52-2.45l1.17-.41a47.7,47.7,0,0,1,29.65.1,48.36,48.36,0,0,1,5.56,2.21c.81.38,1.62.79,2.4,1.22" transform="translate(0 0)"/><path class="cls-7" d="M75.88,146a27.24,27.24,0,0,1-6.45.23,39.71,39.71,0,0,1-7.36-1.79c-.13-.05-.27-.08-.4-.12l-.93-.25-.55-.13a16,16,0,0,0-2.68-.38c-.67,0-.53-1.06.13-1a13,13,0,0,1,2,.26l.61.13.81.2h0l.54.16A50.26,50.26,0,0,0,67.71,145a27.31,27.31,0,0,0,11.72-.8L80,144c.63-.19,1,.77.39,1l-.08,0a30.32,30.32,0,0,1-3.09.77" transform="translate(0 0)"/><path class="cls-7" d="M58.72,119.8c3.57-1,7.42-.65,11-.15l.18,0a22.31,22.31,0,0,1,7.84,2.26,12.26,12.26,0,0,1,2.13,1.5,3.22,3.22,0,0,1,.28.24.53.53,0,0,1,0,.74.44.44,0,0,1-.68.07l-.36-.31a9.91,9.91,0,0,0-1.12-.84c-3.18-2.11-7.2-2.61-11-3a23.15,23.15,0,0,0-8.31.51" transform="translate(0 0)"/><path class="cls-7" d="M75.88,146l-.07-.05c.36-.13.72-.26,1.07-.41l.29.24" transform="translate(0 0)"/><path class="cls-7" d="M77.44,109.87a5.65,5.65,0,0,1,.26,1.7,5.71,5.71,0,0,1-5.71,5.7A5.53,5.53,0,0,1,70.3,117a5.7,5.7,0,1,1,7.14-7.14Z" transform="translate(0 0)"/><path class="cls-7" d="M173.88,23c.06.4.11.8.13,1.2a.28.28,0,0,1,0,.09,9.46,9.46,0,0,1-1,4.48,7.82,7.82,0,0,0-7.65,2.43.52.52,0,0,0,.08.73,5.57,5.57,0,0,0,6.71-.14,6.22,6.22,0,0,0,1.55-1.69,10.12,10.12,0,0,1,4.31,3c2.62,3.16,3.87,7.51,4.43,11.51a31.31,31.31,0,0,1,.18,7q-.09,1-.24,1.95c0,.09,0,.18,0,.28s0,.33-.09.5a1.29,1.29,0,0,1,0,.19c0,.29-.11.58-.17.86s-.13.58-.2.86c-.1.43-.21.86-.34,1.28-.05.14-.09.28-.13.41-.17.56-.36,1.12-.58,1.66q-.15.42-.33.81c-.12.29-.25.58-.38.86,0,0,0,0,0,.08l-.39.8a.43.43,0,0,1,0,.07c-.12.25-.26.48-.39.72a2,2,0,0,1-.16.28c-.08.16-.17.31-.26.46-.36.61-.75,1.2-1.17,1.78-.2.29-.42.57-.64.85s-.44.56-.68.83A25.32,25.32,0,0,1,162,75.41c-.32.07-.63.12-1,.16" transform="translate(0 0)"/><path class="cls-7" d="M161.9,76.49a26.29,26.29,0,0,0,17.18-11.24,28.63,28.63,0,0,0,4.16-10.36c.07-.32.12-.65.17-1,.11-.66.19-1.33.26-2a32.13,32.13,0,0,0-1-11.59c-1.15-4.19-3.31-8.85-7.43-10.86a8.48,8.48,0,0,0-.95-.37,10.65,10.65,0,0,0,.81-4.28" transform="translate(0 0)"/><path class="cls-7" d="M166.63,31.41a6.33,6.33,0,0,1,5.88-1.66C171.2,31.75,169.14,32.91,166.63,31.41Z" transform="translate(0 0)"/><path class="cls-7" d="M71.88,96.73h0c1.17.51,2.36,1,3.57,1.36.79.27,1.58.5,2.39.72" transform="translate(0 0)"/><path class="cls-7" d="M59.29,87.49q.69.83,1.38,1.53a33.88,33.88,0,0,0,3.54,3.18,35.49,35.49,0,0,0,7.67,4.53H72a5.54,5.54,0,0,1,1.13.14,11.68,11.68,0,0,1,4.71,1.95h0c.59.16,1.18.31,1.78.44,8.18,1.9,17,1.82,25.29,1.2,16-1.2,33-5,43.9-17.7a34.83,34.83,0,0,0,4.35-6.37,22.65,22.65,0,0,0,7.81.24,7.55,7.55,0,0,1,.07-1.06,21.55,21.55,0,0,1-5.56.13,13.16,13.16,0,0,1-1.63-.27c1.68-3.19,2.52-7.51-.55-10.17-2.11-1.83-5.33-1.92-7,.52a6.21,6.21,0,0,0,1,7.71,10.64,10.64,0,0,0,4.78,2.65c-10.94,20.22-38.36,24.17-59.31,23.69a58.6,58.6,0,0,1-16.66-2.59,36.69,36.69,0,0,1-11.51-6,30.21,30.21,0,0,1-3-2.62,28.71,28.71,0,0,1-1.94-2.15l-.71-.88a28.34,28.34,0,0,1-2.27-3.5c-.15-.28-.3-.56-.44-.85a19.08,19.08,0,0,1-1.87-5.81c3.52,1.25,7.79.54,8-4A4,4,0,0,0,59,67c-2.72-.24-4.88,2-5.47,4.51a11.33,11.33,0,0,0-.27,2.24,6.34,6.34,0,0,1-.91-.68,16.83,16.83,0,0,1-4.56-9.53c-.1-.51-.17-1-.23-1.53a30.23,30.23,0,0,1,0-6A33,33,0,0,1,53.86,39.9,50.73,50.73,0,0,1,65.62,28.59a32.45,32.45,0,0,1,7-4.23l.34-.11a5.67,5.67,0,0,0,3.65,4.92c4.75,2.13,3.79-5.29-.12-6.24a6.06,6.06,0,0,0-2.68,0c.15-4.32,4.61-9.21,7.34-11.7a38.7,38.7,0,0,1,28.27-9.84,32.84,32.84,0,0,1,7.36,1.3A9.7,9.7,0,0,1,121,4.92a17.44,17.44,0,0,0-1.89.93c-1.66,1-3.3,2.94-1.92,4.82a3.61,3.61,0,0,0,4.67.73c1.91-1.28,1.83-4.05.84-5.9,1.32-.47,2.66-.89,4-1.24a50.85,50.85,0,0,1,9.34-1.45,50,50,0,0,1,20.52,3.05c5.39,2,10.65,5.16,14.11,9.86A16.65,16.65,0,0,1,173.88,23c.38.2.76.42,1.13.64-.65-6.52-5.47-11.8-10.8-15.18a46.65,46.65,0,0,0-22.27-6.69,51.26,51.26,0,0,0-12.24.8,46.69,46.69,0,0,0-7.65,1.95c-1.74-2.06-4.7-2.86-7.22-3.41A39.23,39.23,0,0,0,77.29,13.74c-1.92,2.27-4.11,6-4.32,9.38a23.61,23.61,0,0,0-5.57,3A61,61,0,0,0,58,33.58,37.81,37.81,0,0,0,47,52.5a30.3,30.3,0,0,0-.32,11,32.6,32.6,0,0,1-6.06,7.58c-2.92,2.62-6.71,4.08-9.51,6.85a13.4,13.4,0,0,0-3.73,8.85c-.27,4,.65,7.89,1.39,11.79A20.44,20.44,0,0,1,27,112.71c-4.13,7.72-11.54,13-16.13,20.36a21.46,21.46,0,0,0-3.51,10.25c-.18,4.08,1.74,9.07-.88,12.66-1.07,1.47-2.87,2.2-4.08,3.54a8.26,8.26,0,0,0-1.84,3.59,11.29,11.29,0,0,0,1.56,8.54c3.9,6.13,12.28,6.82,18.77,5.7,5.21-.9,10.18-2.82,15.38-3.77a54,54,0,0,1,17.57-.3c4.86.72,9.8,2.05,14.74,1.43" transform="translate(0 0)"/><path class="cls-7" d="M69,173.62l-.39.06c-4.79.66-9.55-.6-14.25-1.32a59.57,59.57,0,0,0-25.25,1.91c-7.81,2.17-18.62,5.2-25.09-1.71C1.48,169.81.38,165.38,2,161.88c1.49-3.2,5.36-4.06,6.4-7.62.95-3.27-.08-6.77-.09-10.09,0-4.47,1.9-8.57,4.42-12.18,4.41-6.29,10.61-11.13,14.53-17.79a20.85,20.85,0,0,0,3.14-9.89c.13-4.08-1.22-8-1.75-12.06-.57-4.23-.56-9,2.18-12.5,2.3-3,6-4.47,8.93-6.68A29.3,29.3,0,0,0,47,64.88a18.22,18.22,0,0,0,4.13,8.39,8,8,0,0,0,2.2,1.65,18.56,18.56,0,0,0,2.19,7c.14.28.29.55.45.83a31.2,31.2,0,0,0,2.64,3.89" transform="translate(0 0)"/><path class="cls-7" d="M146.72,67.37c1.13-3.18,5.1-3,6.81-.33a6.63,6.63,0,0,1,.3,5.95.44.44,0,0,0-.26.26c-.28.64-.57,1.26-.88,1.87C149,74,145.23,71.56,146.72,67.37Z" transform="translate(0 0)"/><path class="cls-7" d="M56.16,69c2-1.61,5.09-.92,5.3,1.9.31,4.24-4,4.69-7.08,3.43a.88.88,0,0,1,0-.17A6.08,6.08,0,0,1,56.16,69Z" transform="translate(0 0)"/><path class="cls-7" d="M78,25c.56.61,1.27,1.71,1,2.61-.52,1.57-2.1.63-2.91,0A5.58,5.58,0,0,1,73.89,24,4.13,4.13,0,0,1,78,25Z" transform="translate(0 0)"/><path class="cls-7" d="M119.65,10.89c-1.71-.23-1.89-2.28-.93-3.46A6.18,6.18,0,0,1,121.3,6l.41-.14C122.69,7.81,122.45,11.27,119.65,10.89Z" transform="translate(0 0)"/><path class="cls-7" d="M213,151.76a29.2,29.2,0,0,1-4.48.35c-7.18,0-16.32-2.57-22.19,2.9-1.76,1.65-3.48,4.35-6.28,4-2.12-.3-3.39-2.43-3.72-4.38-.51-3,1.22-5.5,2.69-7.91a15.74,15.74,0,0,0,1.63-13.76c-1.33-4.23-3.72-8.07-6.13-11.75-2-3.06-3.92-6-4-9.78-.12-4.3,1.64-8.57.82-12.86s-3.64-7.58-6.06-11c-2.2-3.11-4.27-7.08-4.26-10.92.3,0,.6-.08.9-.14-.3,6.23,6.43,12.58,9,17.66,1.72,3.42,1.86,6.86,1.34,10.6-.34,2.44-.91,5-.65,7.45a16.22,16.22,0,0,0,3.06,7.25c3.72,5.69,8,12.07,8,19.14a16.33,16.33,0,0,1-2.83,8.74c-1.17,1.93-2.74,4.09-2.56,6.48s1.88,4.91,4.5,3.9c1.6-.62,2.64-2.34,3.85-3.47a12.48,12.48,0,0,1,3.1-2.13,20,20,0,0,1,8.81-1.54c5.63,0,11,.77,16.41-.1.5-.08,1-.18,1.51-.29a24.14,24.14,0,0,0,3.57-1.06,29.56,29.56,0,0,0,10.29-6.67c1.94-2,3.51-4.25,5.25-6.39.42-.54.87-1.07,1.33-1.58,4.62-5.13,10.19-5.79,16.77-5.35,3.93.26,8.06.69,11.81-.78a21.13,21.13,0,0,0,7.63-5.86c3.46-3.8,6.56-8.1,11.18-10.5-4.83-1.49-9.69-3.15-13.9-6-4.85-3.26-7-7.59-9.2-12.83-4.2-10-14.52-13.36-21.81-20.49-7-6.82-8.09-18.87-18-22.59-5.19-2-10.93-1.75-16.15-3.65-4.83-1.75-9-4.85-12.9-8.17-5.16-4.42-10.33-9.82-16.28-13.45,0-.23,0-.45,0-.67s0-.35,0-.52c6.1,3.58,11.37,9,16.67,13.56,4.51,3.9,9.44,7.46,15.28,9,5.19,1.37,10.84,1.28,15.71,3.76,8.9,4.55,10.08,16.2,17.15,22.66s16.6,9.93,20.8,18.94c1.32,2.84,2.18,5.87,4,8.46a20.26,20.26,0,0,0,5.73,5.38c4.41,2.89,9.54,4.49,14.54,6,.45.13.37.8,0,1-7,3-10.3,10.36-16.18,14.77-7,5.27-15,2-22.95,3-5.82.73-9.1,4.95-12.46,9.16,0,0,0,0,0,0a39.48,39.48,0,0,1-5,5.51,30.35,30.35,0,0,1-13.68,6.64" transform="translate(0 0)"/><path class="cls-7" d="M75.86,251Q81,231.1,86.2,211.2a.42.42,0,0,1,0-.33l1.65-4.29a22.23,22.23,0,0,1-1.4-2.87,19.29,19.29,0,0,1-.62-12.83,19.9,19.9,0,0,1,13.64-13.47.28.28,0,0,1,.13,0l.21-.06a18,18,0,0,1,1.83-.39h0c.56-.09,1.12-.16,1.7-.2h0a.46.46,0,0,1,.33.14,9.07,9.07,0,0,1,.89.26.53.53,0,0,1,.24,0,55.47,55.47,0,0,1,8,4.31h0a19.75,19.75,0,0,1,2.51,2.07" transform="translate(0 0)"/><path class="cls-7" d="M109.64,255.5c-.31-1.43-.6-2.86-.88-4.3a219.13,219.13,0,0,1-3.85-47.68c-2,2-4,3.92-6.17,5.69s-4.65,3-7.23,1.4a10.59,10.59,0,0,1-3.05-3.06l-1.14,3q-3.7,14.28-7.42,28.56-1.58,6.1-3.17,12.21" transform="translate(0 0)"/><path class="cls-7" d="M112.78,195.23c-1.74,2-3.61,3.92-5.42,5.79l-1.5,1.54a217.36,217.36,0,0,0,1,29.09,213.13,213.13,0,0,0,3.73,23.7" transform="translate(0 0)"/><path class="cls-7" d="M115,184.58a3.84,3.84,0,0,0-.28-.3,29.43,29.43,0,0,0-7-4.66h0c-1.06-.55-2.12-1.05-3.15-1.54a.45.45,0,0,1-.16,0,7.32,7.32,0,0,0-1.13-.33h0l-.14,0a19.07,19.07,0,0,0-16,11.7,20,20,0,0,0,1.07,16.26c.19.34.4.66.61,1a12.46,12.46,0,0,0,2.61,2.81c4,3.12,8.36-2.3,11.06-4.87.83-.79,1.65-1.59,2.47-2.4h0l1-1h0q2.46-2.49,4.79-5.12c.68-.76,1.53-1.64,2.37-2.59" transform="translate(0 0)"/><path class="cls-7" d="M80.16,305.25c.56.63,1.13,1.24,1.71,1.84,5.65,5.89,11.73,11.4,17.64,17q9.31-11.13,18.64-22.26l1,.11" transform="translate(0 0)"/><path class="cls-7" d="M119.27,302c-.42.48-.83.94-1.23,1.42L99.91,325.07a.52.52,0,0,1-.39.18.35.35,0,0,1-.26-.1c-6.68-6.38-13.71-12.54-19.9-19.4-.07-.08-.14-.15-.2-.23" transform="translate(0 0)"/><path class="cls-7" d="M184.83,256.63l6.41-9.75,16-24.34a9.43,9.43,0,0,1-1.85.93q-7.62,11.61-15.25,23.19L185,254.45" transform="translate(0 0)"/><path class="cls-7" d="M183.82,256.26l1.2-1.81c-.07.73-.13,1.46-.19,2.18l-1.21,1.83" transform="translate(0 0)"/><path class="cls-7" d="M54.8,283.21l1.11.34" transform="translate(0 0)"/><path class="cls-7" d="M53.76,283.13l1,.08" transform="translate(0 0)"/><path class="cls-7" d="M56,284.65l-1.32-.39h0c-.33-.09-.66-.18-1-.29l-3.55-1.09" transform="translate(0 0)"/><path class="cls-7" d="M161.11,186.5c0-.55,0-1.1,0-1.65" transform="translate(0 0)"/><path class="cls-7" d="M160.06,185.06c0,.52,0,1,0,1.55" transform="translate(0 0)"/><path class="cls-7" d="M174.44,270.53q4.69-7.12,9.38-14.27c-.06.74-.13,1.47-.2,2.2l-5.37,8.16-2.79,4.24a60.81,60.81,0,0,0-4.07,5.22" transform="translate(0 0)"/><path class="cls-7" d="M132.13,176.59c-2,.18-4,.39-6,.63l-1.27.15h0q-3.37.42-6.73.94c-.48,1.34-.93,2.7-1.34,4.06,0,.11-.07.22-.1.33s-.13.42-.18.63c-.12.38-.23.75-.33,1.13s-.23.81-.33,1.22h0c-.54,2-1,4.06-1.39,6.12h0c-.13.61-.23,1.21-.33,1.83h0c0,.27-.1.54-.14.81-.25,1.56-.47,3.13-.61,4.71-.2,2.26.19,3.52,2.66,4s5.16.89,7.73,1.37c.33,0,.66.12,1,.18l.16,0a329.55,329.55,0,0,1,34.89,8.75q.25-9.89.3-19.78,0-3.54,0-7.09c.35,0,.69-.06,1-.11v4.28q0,11.73-.32,23.46c0,.37-.43.5-.72.41a324.37,324.37,0,0,0-35.37-8.89,227.5,227.5,0,0,0,3,41.29c.21,1.23.42,2.47.65,3.7" transform="translate(0 0)"/><path class="cls-7" d="M129.25,176.26l.54-.13" transform="translate(0 0)"/><path class="cls-7" d="M128.05,176.52l1.19-.26" transform="translate(0 0)"/><path class="cls-7" d="M124.79,177.06l1.07-.15" transform="translate(0 0)"/><path class="cls-7" d="M123.25,177.25c.49-.05,1-.11,1.47-.18" transform="translate(0 0)"/><path class="cls-7" d="M119.8,177.51a0,0,0,0,0,0,0l1.6-.1c.56,0,1.11-.09,1.66-.15" transform="translate(0 0)"/><path class="cls-7" d="M127.45,250.93c-.73-3.78-1.37-7.58-1.87-11.41a230.82,230.82,0,0,1-1.88-34q-3.17-.6-6.35-1.14c-1.7-.29-4.18-.27-5-2.15s0-5,.39-7.05c0-.14,0-.28.07-.42.07-.45.14-.88.22-1.33h0a89.74,89.74,0,0,1,2-8.89c.1-.34.19-.69.3-1,0-.16.09-.32.14-.48s.12-.45.19-.67.06-.2.1-.3c.26-.87.55-1.73.84-2.6a0,0,0,0,0,0,0,1.59,1.59,0,0,1,.07-.2c.09-.25.16-.51.25-.77h0a.56.56,0,0,1,0-.08c.06-.23.13-.45.19-.68a.35.35,0,0,1,.06-.14.52.52,0,0,1,.89,0l1.67-.06" transform="translate(0 0)"/><path class="cls-7" d="M127.53,267.18l.82.22c.11-.17.24-.34.36-.51" transform="translate(0 0)"/><path class="cls-7" d="M138.85,251.87a2.42,2.42,0,0,1,.36.27h0l.11-.15.44-.62.19-.27,20-28c.38-.55-.43-1.19-.82-.65Q149,236.59,138.9,250.78l0,.06c-.11,0-.22-.05-.33-.06" transform="translate(0 0)"/><path class="cls-7" d="M119.27,302l-.1,0" transform="translate(0 0)"/><path class="cls-7" d="M139.68,304.21l.15,1.44c0,.37.07.73.1,1.09a153.11,153.11,0,0,1,.42,19.28c0,.29,0,.59,0,.88,0,1.37-.13,2.74-.22,4.11C138.2,358.86,130,385.82,121,412.09l10.81.42c14.86.55,29.74.76,44.61.37l1,0c.3,0,.61,0,.91,0l1.08,0q13.26-.41,26.48-1.51c12.07-1,24.11-2.56,36-4.72,10.65-1.93,21.47-4.55,30.24-11.2a265.89,265.89,0,0,1-23.56-39.22c-1.46-3-2.86-5.94-4.23-8.94s-2.67-6-3.94-9-2.49-6.09-3.68-9.15-2.32-6.15-3.43-9.24-2.17-6.2-3.2-9.32-2-6.26-3-9.4-1.89-6.3-2.79-9.46-1.77-6.34-2.61-9.52-1.66-6.37-2.45-9.57-1.56-6.4-2.31-9.61-1.47-6.43-2.17-9.65-1.4-6.44-2.07-9.67-1.33-6.45-2-9.68l-1-4.85a42.87,42.87,0,0,0-1-4.77c-.21-.67-.41-1.35-.6-2-.79-2.68-1.52-5.37-2.25-8.07q-1.38-5.13-2.77-10.25l-2.32-8.56c-1.22-4.5-2.44-8.85-6.12-12-3.07-2.64-6.92-4.16-10.66-5.56a.49.49,0,0,1,0-.91" transform="translate(0 0)"/><path class="cls-7" d="M139.36,326.07c0-.58,0-1.16.07-1.74a145,145,0,0,0-.58-17.84c0-.36-.07-.73-.11-1.09l-.12-1.11" transform="translate(0 0)"/><path class="cls-7" d="M119.63,413c.11-.31.22-.62.32-.93a468.35,468.35,0,0,0,13.64-45.8A217.27,217.27,0,0,0,139.33,327" transform="translate(0 0)"/><path class="cls-7" d="M178.15,413.84l-.8,0-1,0c-18.46.47-36.94,0-55.38-.84h-.3" transform="translate(0 0)"/><path class="cls-7" d="M187.85,178.2a28.06,28.06,0,0,1,7.53,4.38c3.05,2.61,4.62,6,5.71,9.81q1.46,5.07,2.83,10.16c.93,3.39,1.83,6.79,2.73,10.19l1.14,4.29.57,2.14a14.52,14.52,0,0,0,.58,2.15c.2.06.43,1.2.51,1.46s.26.8.38,1.19a10.62,10.62,0,0,1,.24,1.12c.16.87.33,1.74.5,2.6l1,5.19q.87,4.37,1.78,8.71c11.23,54,26.93,108.5,59.89,153.59a.51.51,0,0,1-.1.7c-9.76,7.58-22.07,10.13-34,12.18A401.14,401.14,0,0,1,196.84,413q-8.79.57-17.6.84" transform="translate(0 0)"/><path class="cls-7" d="M139.68,304.21c-.35,0-.71.06-1.06.08" transform="translate(0 0)"/><path class="cls-7" d="M50.17,282.87H50.1" transform="translate(0 0)"/><polyline class="cls-7" points="54.8 283.21 54.76 283.21 54.76 283.2"/><path class="cls-7" d="M170.57,173.48c1.16.24,2.32.5,3.48.77,2.54.6,5.59,1.16,8.3,2.07l.25.05" transform="translate(0 0)"/><path class="cls-7" d="M182.78,176.43l1-.53-.49-.17c-2.45-.85-5.18-1.38-7.51-2q-2.48-.61-5-1.14" transform="translate(0 0)"/><path class="cls-7" d="M185,176.41a12.16,12.16,0,0,1,2.07,1.16,5.94,5.94,0,0,1,.75.63" transform="translate(0 0)"/><path class="cls-7" d="M184.11,176.88l.68-.35" transform="translate(0 0)"/><path class="cls-7" d="M184.59,177.14a1.28,1.28,0,0,0-.3-.17" transform="translate(0 0)"/><path class="cls-7" d="M57.3,249.25c.17-1,.36-2,.55-3.07.06-.34.13-.68.2-1,.17-1,.36-1.93.56-2.9q2.49-12.31,6.19-24.41c1.53-5,3.08-10,5-14.91" transform="translate(0 0)"/><path class="cls-7" d="M70.9,203c-.63,1.7-1.22,3.41-1.81,5.09A257.25,257.25,0,0,0,59,245.48c-.07.35-.13.69-.19,1-.17.87-.32,1.74-.47,2.62" transform="translate(0 0)"/><path class="cls-7" d="M56.61,310.43a15.56,15.56,0,0,0,.81,1.5,22.34,22.34,0,0,0,7.93,7.26c7.32,4.24,16.35,5.28,25,5.85,3,.2,6.1.39,9.15.56a376,376,0,0,0,39.86.47c0,.29,0,.58,0,.88-2.51.12-5,.2-7.54.25-9.68.18-19.36-.13-29-.6-9.18-.44-18.72-.54-27.62-2.68-7.05-1.7-13.93-5.06-17.88-10.46a16.19,16.19,0,0,1-1.67-2.85" transform="translate(0 0)"/><path class="cls-7" d="M51.22,406.57c-.14-1.85-.26-3.69-.41-5.5q-.77-9.22-1.11-18.48A412.56,412.56,0,0,1,53.3,311" transform="translate(0 0)"/><path class="cls-7" d="M54.33,310.85a411.73,411.73,0,0,0-3.4,77q.43,8.78,1.25,17.5c0,.47.08.95.13,1.43" transform="translate(0 0)"/><path class="cls-7" d="M113.78,434l1,0,1.47,0" transform="translate(0 0)"/><path class="cls-7" d="M116.26,435.05l-1.32,0-1,0" transform="translate(0 0)"/><path class="cls-7" d="M117.25,434.06a215.6,215.6,0,0,0,36.25-2.57c4.86-.76,9.95-1.46,14.45-3.56a17,17,0,0,0,7.94-7.49,20.66,20.66,0,0,0,1.22-2.75c.1-.28.2-.57.29-.86a27.81,27.81,0,0,0,.75-3l1.09,0a25.55,25.55,0,0,1-2.33,7" transform="translate(0 0)"/><path class="cls-7" d="M175.69,422.81a17,17,0,0,1-1.62,2c-2.91,3.1-6.9,4.78-10.95,5.84a127.6,127.6,0,0,1-16.49,2.8,217.23,217.23,0,0,1-29.4,1.61" transform="translate(0 0)"/><path class="cls-7" d="M68.45,178h0c.16-.43.32-.85.49-1.28.06-.15.11-.31.16-.48" transform="translate(0 0)"/><path class="cls-7" d="M67.86,176.67c-.11.35-.23.7-.36,1s-.14.37-.22.56" transform="translate(0 0)"/><path class="cls-7" d="M52.77,123.25a12.38,12.38,0,0,1,5.1-3.2c.28-.09.57-.18.85-.25,0,.36,0,.73.07,1.09a11.73,11.73,0,0,0-5.52,3.27l-.24.27a11.82,11.82,0,0,0-.77.95c-4.86,6.5-4.11,16.7-1.76,23.92A35.1,35.1,0,0,0,67,169.24a36.13,36.13,0,0,0,4.65,2.13c.75.28,1.52.54,2.29.76l.06,0c.5.15,1,.29,1.51.42h0a32.09,32.09,0,0,0,3.49.68,15,15,0,0,0,7-.29l0,0a6.25,6.25,0,0,0,1.17-.55l.22-.14a6.18,6.18,0,0,0,.83-.62l.07-.06a6.31,6.31,0,0,0,.66-.71,4.81,4.81,0,0,0,.59-.9,4.57,4.57,0,0,0,.23-3.86s0,0,0,0a82.38,82.38,0,0,0-7.92-13.59,31.3,31.3,0,0,0-6-6.47c.43-.06.86-.14,1.29-.22a30.6,30.6,0,0,1,4.53,4.84,79.42,79.42,0,0,1,8.63,14.32,8.94,8.94,0,0,1,.76,2.54,6,6,0,0,1-1.16,3.83,65.44,65.44,0,0,0,21.18,5.16c2.09.15,4.27.22,6.49.18l1.11,0a50.43,50.43,0,0,0,12.09-1.75" transform="translate(0 0)"/><path class="cls-7" d="M87.22,173.55a10.12,10.12,0,0,1-3.39.94h-.08l-.46,0a18.77,18.77,0,0,1-4.42-.22,37,37,0,0,1-3.94-.83c-.31-.08-.62-.16-.92-.26h0c-.52-.15-1-.31-1.55-.49l-.59-.2a4.33,4.33,0,0,0-1.3.77h0a4.57,4.57,0,0,0-.44.44,2.65,2.65,0,0,0-.44.78c-.23.54-.39,1.18-.56,1.72a9.18,9.18,0,0,1-1.25.42c.22-.65.43-1.32.68-2a9,9,0,0,1,.5-1.09A4.81,4.81,0,0,1,70.38,172a36.5,36.5,0,0,1-22.63-34.32c.1-4.72,1.26-9.85,4.2-13.48" transform="translate(0 0)"/><path class="cls-7" d="M64.84,184.6c.21-.53.41-1.07.62-1.6h0a1,1,0,0,1,0-.16l.13-.06a.52.52,0,0,0,.2-.79c.48-1.24,1-2.48,1.43-3.72.39-.06.78-.15,1.17-.25l-1.56,4.05-.22.57L66.15,184l0,0-4,10.42c-.56,1.45-2,3.74-1.83,5.28.36,3,5.76,2.18,7.78,2.2l2.09,0h1.11l7.79.09a144.11,144.11,0,0,1,4.77-17.44c.12-.35.24-.7.37-1h0c.17-.53.36-1.05.55-1.57h0c.43-1.18.87-2.35,1.34-3.52a23.68,23.68,0,0,0,1.66-4.17,3.5,3.5,0,0,0,.07-.45" transform="translate(0 0)"/><path class="cls-7" d="M131.41,175.7c-.53.16-1.07.3-1.62.43l-.54.13h0c-.39.1-.79.18-1.19.26q-1.08.22-2.19.39c-.35.06-.71.11-1.07.15h-.07l-1.47.18h-.14c-.55.06-1.11.11-1.66.15s-1.07.08-1.6.1c0,0,0,0,0,0a0,0,0,0,1,0,0c-.86.05-1.71.08-2.56.09h-2.8a65.33,65.33,0,0,1-11-1.13,66.54,66.54,0,0,1-14.16-4.37,6.66,6.66,0,0,1-.56.5,2.31,2.31,0,0,1,.07.47v.13a5.2,5.2,0,0,1,0,1h0c-.26,2.31-1.63,4.79-2.58,6.95-.17.39-.33.78-.47,1.15l-.13.37c-.88,2.43-1.7,4.89-2.44,7.37q-1.78,5.91-3,11.95h0a1.57,1.57,0,0,1-.85,1h-.37l-8-.08-1.13,0-4.24,0c-2.4,0-6.17.66-6.27-2.7a12,12,0,0,1,1.24-4.33q1.14-2.94,2.27-5.9l2.07-5.36a5.58,5.58,0,0,0,.67-.28c.2-.09.39-.2.59-.31a18.74,18.74,0,0,1,.71-1.89,12.24,12.24,0,0,1-1.34.87" transform="translate(0 0)"/><path class="cls-7" d="M53.7,419.66c-.05,4.43-.17,8.89.22,13.28.49,5.51,2.58,9.86,7.33,12.9a48,48,0,0,0,13.88,5.74,121.08,121.08,0,0,0,28,3.26c2.7,0,5.64-.19,7.88-1.86,2.07-1.55,3-4,3.69-6.39.32-1.19.58-2.41.79-3.63.14-.76.26-1.51.35-2.28a52.9,52.9,0,0,0,.41-5.63c0-.33,0-.67,0-1,0-1.25,0-2.5-.11-3.74,0-.6-.1-1.2-.17-1.8a2.08,2.08,0,0,0,.21-.21c-.61-12.21-5.11-23.69-7.57-35.58-2-9.82-1.21-19.83-1.87-29.73a253.27,253.27,0,0,0-22.28-15c-.55-.33.07-1.11.62-.79a256,256,0,0,1,21.56,14.49l1,.79q2.54,1.91,5,3.88c.5.4-.12,1.19-.62.79-1.42-1.13-2.86-2.25-4.31-3.34.57,9.6-.14,19.3,1.83,28.81,2.53,12.24,7.23,24,7.63,36.64a.47.47,0,0,1-.19.41c.12,1.47.19,2.95.19,4.42,0,.34,0,.67,0,1,0,1.55-.12,3.11-.29,4.66-.12,1.12-.25,2.32-.44,3.54v0" transform="translate(0 0)"/><path class="cls-7" d="M116.2,445c-.59,3-1.6,5.9-3.63,7.93-2.72,2.72-6.7,3-10.33,2.84-10.37-.34-21.14-1.12-31.06-4.35-4.62-1.5-9.58-3.56-13.24-6.85-3.23-2.89-4.55-6.93-5-11.14-.54-5.48-.23-11.09-.24-16.58v-.18" transform="translate(0 0)"/><path class="cls-7" d="M176.91,420.78c-.41,6.43-.91,13-2.54,19.17s-5.13,11.3-11.12,13.93c-6.45,2.83-14.16,3.19-21.1,3.55s-14.05-.28-19.83-4.33A16.82,16.82,0,0,1,116.2,445h0c.11-.58.21-1.17.3-1.74a20.23,20.23,0,0,0,1.08,2.8,16.9,16.9,0,0,0,7.88,7.72c6.87,3.45,14.76,2.89,22.18,2.19,6.7-.63,14.24-1.22,19.63-5.71,5.68-4.73,6.85-12.51,7.62-19.43.3-2.68.56-5.36.8-8.05A16.79,16.79,0,0,0,176.91,420.78Z" transform="translate(0 0)"/><path class="cls-7" d="M31,311.69q-5.87,16.68-11.75,33.36c-4.64,13.16-9.63,26.25-13.92,39.53-1.34,4.13,2,5.78,4.92,7.67a77.9,77.9,0,0,0,6.92,4A94.18,94.18,0,0,0,31.43,402a138.1,138.1,0,0,0,19.79,4.56l1.09.17c0,.34,0,.68.08,1,.09,1.2.19,2.43.33,3.65v.13a29.19,29.19,0,0,0,1,5.22h0A16.3,16.3,0,0,0,55.5,421c3,4.82,8.84,5.91,13.93,7.14q8,1.94,16.16,3.24A218.24,218.24,0,0,0,113.78,434l.12.8,0,.21a215.69,215.69,0,0,1-37.74-4.38c-5.12-1.05-10.68-1.94-15.49-4.06a13.17,13.17,0,0,1-7-6.9v-.13a18,18,0,0,1-.92-2.62,1.46,1.46,0,0,1-.05-.2,53.14,53.14,0,0,1-1.42-9.12l-1.77-.29a117.33,117.33,0,0,1-30.21-8.91,64.62,64.62,0,0,1-13.28-7.82c-4-3.23-1.23-7.55.18-11.56Q18.11,345.26,30,311.52l.37,0" transform="translate(0 0)"/><path class="cls-7" d="M120.67,413c-.09.28-.19.55-.28.83-.21.61-1.13.21-.93-.39l.17-.5Z" transform="translate(0 0)"/><path class="cls-7" d="M79.65,99.26a5.87,5.87,0,0,1,1,1.12c1.86,2.6,1.27,5.79.69,8.62a.63.63,0,0,1-1.1.16.36.36,0,0,1,0-.29c.45-2.22,1-4.64.08-6.83-.82-2-2.77-3.06-4.94-3.7-.5-.15-1-.27-1.53-.38-3.38-.72-5.56.46-7.43,2.79-1.46,1.83-2.73,3.74-2.82,6,0,.65-1.17.51-1.14-.13.2-4.33,4.18-9.74,9.43-9.89h.26a7.53,7.53,0,0,1,1.47.14,24.18,24.18,0,0,1,2.48.6,11.11,11.11,0,0,1,2.94,1.35h0A6.31,6.31,0,0,1,79.65,99.26Z" transform="translate(0 0)"/><path class="cls-7" d="M106.47,119.34a3.82,3.82,0,0,0-.6-.43c-2.79-1.6-7-1.74-10.09-1.94-1.61-.11-3.23-.14-4.84-.09l-.74,0a43.89,43.89,0,0,0-5.72.63c-2.24.4-5.22,1-6.37,3.28a3.23,3.23,0,0,0-.35,1.12,2.1,2.1,0,0,0,.29,1.4,2.16,2.16,0,0,0,1.12.84,4.79,4.79,0,0,0,1,.24,36.6,36.6,0,0,0,4.38-.12h2l3.79,0h2.24l11.32-.11a.43.43,0,0,0,.26-.09,3.47,3.47,0,0,0,2.75-1.37,2.15,2.15,0,0,0,.21-2.43A3,3,0,0,0,106.47,119.34Z" transform="translate(0 0)"/><path class="cls-7" d="M90.45,117.86a49.24,49.24,0,0,1,5.83.14l1.23.12.37,0a29.13,29.13,0,0,1,6.5,1.21,6.14,6.14,0,0,1,.92.38q.27.15.54.33c0,.19.07.38.09.55.21,1.55-.36,2.36-1.71,2.42a16.81,16.81,0,0,1-3.37-.23l-.59,0a.54.54,0,0,0-.51.37h0l-6.64.06h-1l-2.77,0-2.45,0h-1q-1.66,0-3.33,0c-.84,0-1.68,0-2.53,0-1.25-1.43-1.21-2.51.14-3.24a9.07,9.07,0,0,1,3.42-1.34,37.22,37.22,0,0,1,5-.75c.63-.06,1.27-.1,1.91-.12" transform="translate(0 0)"/><path class="cls-7" d="M97.88,118.16a.5.5,0,0,0-.64-.64,7.16,7.16,0,0,0-1,.48,10.56,10.56,0,0,0-4.21,5.23c-.15.33-.29.66-.42,1-.37.9-.7,1.82-1,2.72s-.62,2.67-1.23,3.27c-1.76,1.72-3.14-1-3.25-2.19a9.17,9.17,0,0,1,.15-2c.07-.49.17-1.09.32-1.73.06-.32.15-.66.24-1,.62-2.27,1.74-4.77,3.58-5.41h0l.24-.07a.55.55,0,0,0,.25-.91.4.4,0,0,0-.38-.08l-.36.11A4.23,4.23,0,0,0,88.52,118a12.17,12.17,0,0,0-2.67,5.3c0,.14-.07.28-.11.41s-.1.37-.15.59c-.54,2-1.3,5.63.54,6.78,2.31,1.44,3.6,1,4.49-1.28.66-1.71,1.23-3.71,2-5.57.14-.34.29-.67.45-1a9,9,0,0,1,4.52-4.77A.43.43,0,0,0,97.88,118.16Z" transform="translate(0 0)"/><path class="cls-7" d="M122.63,138.65v0c0-.64-1-.77-1-.13,0,.13,0,.26,0,.39a7.21,7.21,0,0,1-4.39,6.08l-.54.22c-1.8.67-7.9,1.36-9-1.22a1.74,1.74,0,0,1-.15-.52.45.45,0,0,0-.35-.4s0,0,0,0a.52.52,0,0,0-.53.16.45.45,0,0,0-.1.37,2.22,2.22,0,0,0,.19.68c1.09,2.8,6.3,2.77,8.66,2.31A8.49,8.49,0,0,0,122.63,138.65Z" transform="translate(0 0)"/><path class="cls-7" d="M116.45,143.13a.5.5,0,0,0,.43-.79l-1-1.33-.26-.35a.5.5,0,0,0-.81.6l.1.14h0c.38.51.75,1,1.13,1.53A.45.45,0,0,0,116.45,143.13Z" transform="translate(0 0)"/><path class="cls-7" d="M59.29,87.49a85.11,85.11,0,0,0-5,14.06c-1.89,7.13-3,14.45-1.47,21.7a12,12,0,0,0-.82.92,34.6,34.6,0,0,1-1-8.4c.07-6.77,1.79-13.55,3.93-20a82.66,82.66,0,0,1,3.68-9.19C58.81,86.92,59.05,87.21,59.29,87.49Z" transform="translate(0 0)"/><path class="cls-7" d="M170.81,172.63c-.07.29-.15.57-.24.85a12.47,12.47,0,0,1-5.86,7.16,20.81,20.81,0,0,1-3.62,1.65c0,.55,0,1.1,0,1.65h.06a.76.76,0,0,0,0,.15,6.26,6.26,0,0,1,0,.75l-.07,0-1,.21v-.91c0-.34,0-.69,0-1v-.48a36.7,36.7,0,0,1-11.67,1.45,21.33,21.33,0,0,1-16.11-7.33,2.09,2.09,0,0,1-.14-.17c-.25-.29-.49-.59-.72-.89l-.06-.08c-.19-.25-.38-.5-.55-.76a27.05,27.05,0,0,1-2.42-4.1c-.14-.29-.27-.57-.39-.86-4.22-9.6-3.41-21.29-3.18-31.66l.12,0a.5.5,0,0,0-.1-1c0-.42,0-.84,0-1.25,0-.66,1-.52,1,.14-.11,10.63-1.4,23.58,3.18,33.7.12.29.26.58.41.87a24.27,24.27,0,0,0,2.35,3.86c.19.28.41.56.63.83l.11.14c.27.33.55.65.84,1,.53.58,1.1,1.14,1.7,1.68,5.16,4.62,12,5.38,18.66,4.61a34.86,34.86,0,0,0,6.28-1.24c.35-.1.7-.22,1-.34h0a14.05,14.05,0,0,0,7.49-5.47,10.92,10.92,0,0,0,1.14-2.42c.09-.28.18-.56.25-.85,1.28-4.91-.12-10.92-1.31-15.5a56,56,0,0,0-6.76-15.68,50.39,50.39,0,0,0-19.17-17.93,5,5,0,0,0,1.36-.47A52.73,52.73,0,0,1,166.5,147.7a56,56,0,0,1,4.77,18.45A20,20,0,0,1,170.81,172.63Z" transform="translate(0 0)"/><path class="cls-7" d="M184.13,176.89h0a9.45,9.45,0,0,0-1-.34l-.36-.11-.18-.06c-.11-.32.13-.79.52-.69l.2,0,.52.13h0a88.26,88.26,0,0,0,15.1-9.7,76.55,76.55,0,0,0,14-14.41c.52-.07,1-.17,1.55-.28A80.91,80.91,0,0,1,192,172.42q-3.39,2.16-6.93,4h0l-.23.12a.52.52,0,0,1,0,.44.41.41,0,0,1-.15.17" transform="translate(0 0)"/><path class="cls-7" d="M87.84,173.84l-.62-.29.57-.3,0,0s0,0,0,0A2.9,2.9,0,0,1,87.84,173.84Z" transform="translate(0 0)"/><path class="cls-7" d="M187.85,178.2a6,6,0,0,1,.43.45,2.85,2.85,0,0,0-.42,0,4.18,4.18,0,0,0-.89.1,5.91,5.91,0,0,0-.81-.65,12.05,12.05,0,0,0-1.33-.74,1.08,1.08,0,0,0-.24-.18,2.91,2.91,0,0,0-.3-.17l0,0-.12-.06a.45.45,0,0,1,.36,0l.25.09C185.78,177.36,186.82,177.76,187.85,178.2Z" transform="translate(0 0)"/><path class="cls-7" d="M138.53,250.78a.37.37,0,0,1,.37,0l0,0a6.7,6.7,0,0,1,.83.56,8.86,8.86,0,0,1,2,11.83,11,11,0,0,1-14,4.39.45.45,0,0,1-.28-.4" transform="translate(0 0)"/><path class="cls-7" d="M128.71,266.89a10,10,0,0,0,11.48-3.1c2.77-3.45,2.78-8.59-.68-11.39l0,0a2.91,2.91,0,0,0-.27-.24,1.78,1.78,0,0,0-.37-.26,2.71,2.71,0,0,0-.37-.21" transform="translate(0 0)"/><path class="cls-7" d="M119.27,302h0c3.2.71,6.41,1.3,9.65,1.76a49.24,49.24,0,0,0,9.69.53c0-.2-.05-.39-.07-.58l1.08.05c0,.15,0,.3.05.45a25.6,25.6,0,0,0,10.53-3.08c9.91-5.58,14.8-16,21.18-25.05a3,3,0,0,0-.6,0l2.89-4.4.76-1.16c-7.86,9.16-12.39,21.21-22.48,28.31-6.82,4.8-14.91,5.07-22.9,3.93a148.89,148.89,0,0,1-23.22-5.36l-1-.3a.5.5,0,0,0-.27,0l-.52-.14h0q-16.84-4.35-33.59-9.14h0l-1-.29c-4.21-1.2-8.42-2.44-12.62-3.69,0-.16,0-.32,0-.48,0-.35,0-.7-.06-1,0-1,0-1.88,0-2.66a36.8,36.8,0,0,1,2.15-12.55c2.08-5.8,5.6-10.85,9.4-15.66l.67-.86c.15-.19.3-.38.46-.56,2,.67,4.11,1.34,6.17,2l.87.28q9,2.89,18.15,5.61l2.22.65q6.87,2.06,13.76,4l.73.21.27.08.74.21q7.45,2.08,14.93,4.06l.26.07a.47.47,0,0,1,.66-.52l.52.23.06-.08a3.1,3.1,0,0,1-1-.61c-5.2-1.38-10.41-2.8-15.59-4.26a5.75,5.75,0,0,0,.48-.63c.16-.21.33-.42.5-.62.34-.41.69-.81,1.06-1.19a25.9,25.9,0,0,1,2.29-2.16,26.38,26.38,0,0,1,5.22-3.36,26.35,26.35,0,0,1,2.85-1.19,23.85,23.85,0,0,1,3-.84c.3-.06.59-.15.88-.21s.61-.1.91-.14c.63-.1,1.26-.17,1.9-.23a26.18,26.18,0,0,1,3.86,0c.36,0,.72.07,1.08.11a3.36,3.36,0,0,1,2.25.2.56.56,0,0,1,.05-.88,26.77,26.77,0,0,0-10.17,0l-.91.18a27.5,27.5,0,0,0-8.09,3.22.43.43,0,0,0-.42-.14l-8.38,1.34-.92.15-12.66,2q-10.16-3-20.25-6.23l-.87-.28-5.74-1.85-1.05-.34-.69.85c-.15.19-.3.37-.44.56a24.78,24.78,0,0,0-9.57-1.1c-.36,0-.71.06-1.07.11a23.76,23.76,0,0,0-2.87.54c-7.89,2-14.24,7.6-19.51,13.54-2.55,2.86-5.18,6-6.21,9.79a11.5,11.5,0,0,0-.36,1.82,9.43,9.43,0,0,0-.07,1.06c-.05,2,.52,4,2.39,5s4.24.74,6.17.89l8.13.61,5.13.38h.09l3.57.26c0-.07,0-.15,0-.23l1,.3h0l1.08.08,0,.26c0,.27.06.54.09.81a2.89,2.89,0,0,0,0,.29c.33.11.65.21,1,.3q6.33,1.89,12.69,3.72l1,.29q15.74,4.52,31.58,8.62Q91,301.43,79.4,304.41l-1,.26q-5.62,1.43-11.31,2.65c-3.6.77-7.24,1.54-10.89,2.2l-1,.19-.74.13-1,.17c-3.38.56-6.77,1-10.16,1.3l-1.16.09a38.69,38.69,0,0,1-11.76-.9h0a22.87,22.87,0,0,1-9-4.32,18.54,18.54,0,0,1-6-8.82q2.55-12,4.8-24l.18-1q1.88-10.09,3.52-20.23,2.37-14.52,4.29-29.11c.63-4.82,1.19-9.66,1.79-14.49.28-2.25.65-4.49,2.17-6.27s3.64-3,5.51-4.2a189.79,189.79,0,0,1,22.81-12.94h0c.88-.43,1.76-.85,2.65-1.26l.06,0c.76-.36,1.52-.71,2.29-1l.33-.85a.45.45,0,0,0-.59-.17q-2.49,1.11-5,2.3h0c-.56.26-1.11.53-1.66.81h0a190.64,190.64,0,0,0-18,10.05c-3.28,2.07-7.81,4.23-10,7.6-2,3.19-1.89,7.67-2.33,11.3Q24.6,244.59,18.88,275q-1.9,10.14-4,20.23c-.16.75-.31,1.5-.48,2.25.2.61.42,1.2.67,1.79A19,19,0,0,0,17.74,304a21.34,21.34,0,0,0,8.66,6.3,27.06,27.06,0,0,0,4,1.29h0" transform="translate(0 0)"/><path class="cls-7" d="M31,311.69a30.51,30.51,0,0,0,3.65.6c6.18.65,12.47-.16,18.65-1.26l1-.18,1.27-.24,1-.18,3.71-.72q9.48-1.8,18.83-4.19h0l1-.27h0c1.67-.43,3.32-.87,5-1.33q9.54-2.62,18.91-5.89h0l2.39.61h0c4.18,1.28,8.41,2.41,12.68,3.34h.16" transform="translate(0 0)"/><path class="cls-7" d="M109.85,256.48l.92-.15,7-1.11a27,27,0,0,0-5.92,5.64c-.2.26-.4.53-.59.8l-.17-.05q-5.94-1.67-11.84-3.43Z" transform="translate(0 0)"/><path class="cls-7" d="M55.8,282.25l-1-.07-1-.08-3.53-.26h0l-4.6-.34h0L36,280.76c-2.25-.16-5.35,0-6.33-2.5a5.29,5.29,0,0,1-.35-1.94,5.42,5.42,0,0,1,0-1.06,13.39,13.39,0,0,1,.92-3.44c1.4-3.45,4.1-6.39,6.6-9.09,5-5.42,11.13-10.49,18.52-12.1.58-.13,1.16-.23,1.75-.31.35,0,.71-.1,1.07-.12a23.91,23.91,0,0,1,9.07.91c-4.55,5.83-8.62,12-10.43,19.29A37.79,37.79,0,0,0,55.8,282.25Z" transform="translate(0 0)"/><path class="cls-7" d="M30.38,311.54l.66,0h0a.42.42,0,0,1,0,.1C30.79,311.65,30.59,311.6,30.38,311.54Z" transform="translate(0 0)"/></g></g></svg>